
<svg width="664" height="630" viewBox="0 0 664 630" fill="none" xmlns="http://www.w3.org/2000/svg">
<g clip-path="url(#clip0_81_40735)">
<path d="M693.725 43.2892V650.179H78.3671V43.2892H693.725ZM694.883 42.147H77.209V651.321H694.883V42.147Z" fill="white"/>
<path d="M410.97 431.401H423.331C429.531 431.401 434.557 436.366 434.557 442.488C434.557 448.611 429.531 453.575 423.331 453.575H211.824C205.624 453.575 200.598 448.611 200.598 442.488C200.598 436.366 205.624 431.401 211.824 431.401H410.97Z" fill="white"/>
<path d="M402.168 387.084H232.987V431.424H402.168V387.084Z" fill="white"/>
<path d="M402.167 431.912H232.986C232.708 431.912 232.492 431.691 232.492 431.424V387.084C232.492 386.81 232.716 386.597 232.986 386.597C233.257 386.597 233.48 386.818 233.48 387.084V430.937H401.665V387.084C401.665 386.81 401.889 386.597 402.16 386.597C402.43 386.597 402.654 386.818 402.654 387.084V431.424C402.654 431.698 402.43 431.912 402.16 431.912H402.167Z" fill="#313036"/>
<path d="M423.331 454.055H211.824C205.361 454.055 200.104 448.862 200.104 442.481C200.104 436.099 205.361 430.906 211.824 430.906H223.197C223.475 430.906 223.691 431.127 223.691 431.394C223.691 431.66 223.467 431.881 223.197 431.881H211.824C205.91 431.881 201.1 436.632 201.1 442.473C201.1 448.313 205.91 453.065 211.824 453.065H423.331C429.245 453.065 434.055 448.313 434.055 442.473C434.055 436.632 429.245 431.881 423.331 431.881H410.97C410.692 431.881 410.476 431.66 410.476 431.394C410.476 431.127 410.7 430.906 410.97 430.906H423.331C429.794 430.906 435.051 436.099 435.051 442.481C435.051 448.862 429.794 454.055 423.331 454.055Z" fill="#313036"/>
<path d="M395.86 397.988H239.287C239.009 397.988 238.793 397.768 238.793 397.501C238.793 397.234 239.017 397.014 239.287 397.014H395.86C396.138 397.014 396.354 397.234 396.354 397.501C396.354 397.768 396.13 397.988 395.86 397.988Z" fill="#313036"/>
<path d="M520.12 363.493C520.12 376.522 509.411 387.076 496.201 387.061L103.892 386.65C95.9243 386.65 89.4619 380.269 89.4619 372.403V109.392C89.4619 101.518 95.9243 95.1445 103.892 95.1445H505.69C513.658 95.1445 520.12 101.526 520.12 109.392V363.486V363.493Z" fill="white"/>
<path d="M520.12 117.715H89.4697C89.1918 117.715 88.9756 117.494 88.9756 117.228C88.9756 116.961 89.1995 116.74 89.4697 116.74H520.12C520.39 116.74 520.614 116.961 520.614 117.228C520.614 117.494 520.39 117.715 520.12 117.715Z" fill="#313036"/>
<path d="M102.666 111.539C100.195 111.539 98.1875 109.552 98.1875 107.115C98.1875 104.678 100.195 102.691 102.666 102.691C105.136 102.691 107.144 104.678 107.144 107.115C107.144 109.552 105.136 111.539 102.666 111.539ZM102.666 103.673C100.743 103.673 99.1835 105.219 99.1835 107.115C99.1835 109.011 100.743 110.557 102.666 110.557C104.588 110.557 106.148 109.011 106.148 107.115C106.148 105.219 104.588 103.673 102.666 103.673Z" fill="#313036"/>
<path d="M114.278 111.539C111.807 111.539 109.8 109.552 109.8 107.115C109.8 104.678 111.807 102.691 114.278 102.691C116.749 102.691 118.756 104.678 118.756 107.115C118.756 109.552 116.749 111.539 114.278 111.539ZM114.278 103.673C112.355 103.673 110.796 105.219 110.796 107.115C110.796 109.011 112.355 110.557 114.278 110.557C116.2 110.557 117.76 109.011 117.76 107.115C117.76 105.219 116.2 103.673 114.278 103.673Z" fill="#313036"/>
<path d="M125.89 111.539C123.42 111.539 121.412 109.552 121.412 107.115C121.412 104.678 123.42 102.691 125.89 102.691C128.361 102.691 130.368 104.678 130.368 107.115C130.368 109.552 128.361 111.539 125.89 111.539ZM125.89 103.673C123.968 103.673 122.408 105.219 122.408 107.115C122.408 109.011 123.968 110.557 125.89 110.557C127.813 110.557 129.372 109.011 129.372 107.115C129.372 105.219 127.813 103.673 125.89 103.673Z" fill="#313036"/>
<path d="M486.018 387.571L103.893 387.137C95.6628 387.137 88.9688 380.528 88.9688 372.395V109.392C88.9688 101.267 95.6628 94.6499 103.893 94.6499H505.69C513.921 94.6499 520.615 101.259 520.615 109.392V243.92C520.615 244.187 520.391 244.408 520.121 244.408C519.851 244.408 519.627 244.187 519.627 243.92V109.392C519.627 101.808 513.381 95.6322 505.698 95.6322H103.893C96.211 95.6322 89.9648 101.808 89.9648 109.392V372.395C89.9648 379.98 96.211 386.155 103.893 386.155L486.018 386.589C486.296 386.589 486.512 386.81 486.512 387.076C486.512 387.343 486.288 387.564 486.018 387.564V387.571Z" fill="#313036"/>
<path d="M411.487 332.083H205.346C205.068 332.083 204.852 331.862 204.852 331.596C204.852 331.329 205.075 331.108 205.346 331.108H411.487C411.765 331.108 411.981 331.329 411.981 331.596C411.981 331.862 411.757 332.083 411.487 332.083Z" fill="#313036"/>
<path d="M589.463 239.222L590.79 240.783C605.823 258.472 614.339 280.669 614.965 303.757C616.416 357.532 618.91 456.705 618.601 491.07C618.555 496.271 614.27 500.451 609.012 500.451H554.425C550.727 500.451 548.665 496.241 550.958 493.377L558.965 483.364L569.396 361.247L527.324 494.116C525.966 497.908 522.337 500.444 518.26 500.444H460.052C456.238 500.444 454.215 495.989 456.747 493.172L467.51 481.224L545.291 275.43L589.455 239.207L589.463 239.222Z" fill="white"/>
<path d="M609.003 500.946H554.417C552.517 500.946 550.819 499.895 549.992 498.212C549.159 496.522 549.375 494.557 550.556 493.08L558.47 483.189L568.515 365.664L527.787 494.283C526.359 498.281 522.529 500.954 518.252 500.954H460.044C458.082 500.954 456.361 499.857 455.558 498.091C454.755 496.324 455.064 494.321 456.368 492.867L467.07 480.988L544.819 275.285C544.85 275.209 544.904 275.133 544.966 275.08L589.13 238.857C589.338 238.681 589.655 238.712 589.825 238.917L591.153 240.478C606.193 258.183 614.817 280.654 615.443 303.756C616.933 359.047 619.388 456.903 619.079 491.093C619.033 496.537 614.508 500.961 608.996 500.961L609.003 500.946ZM569.395 360.768C569.395 360.768 569.457 360.768 569.488 360.775C569.735 360.821 569.905 361.049 569.889 361.293L559.458 483.41C559.451 483.509 559.412 483.6 559.35 483.668L551.344 493.682C550.386 494.877 550.216 496.408 550.896 497.778C551.567 499.149 552.888 499.964 554.424 499.964H609.011C613.983 499.964 618.06 495.974 618.106 491.07C618.415 456.895 615.96 359.054 614.47 303.772C613.852 280.89 605.305 258.632 590.411 241.103L589.4 239.915L545.715 275.742L467.981 481.415C467.958 481.468 467.927 481.521 467.888 481.567L457.125 493.514C456.083 494.672 455.836 496.271 456.477 497.687C457.117 499.096 458.492 499.971 460.059 499.971H518.267C522.12 499.971 525.579 497.558 526.861 493.971L568.924 361.118C568.986 360.912 569.187 360.775 569.395 360.775V360.768Z" fill="#313036"/>
<path d="M528.204 485.755C528.204 485.755 528.189 485.755 528.181 485.755C509.389 484.971 490.38 483.562 471.68 481.574C471.409 481.544 471.209 481.3 471.239 481.034C471.27 480.767 471.517 480.569 471.788 480.6C490.465 482.587 509.45 483.996 528.22 484.78C528.49 484.795 528.706 485.016 528.691 485.29C528.683 485.557 528.459 485.763 528.197 485.763L528.204 485.755Z" fill="#313036"/>
<path d="M599.623 485.321C587.177 485.321 574.7 484.986 562.339 484.316C562.069 484.301 561.853 484.072 561.868 483.798C561.883 483.524 562.123 483.311 562.393 483.334C580.668 484.324 599.214 484.583 617.505 484.103C617.76 484.095 618.007 484.308 618.015 484.583C618.015 484.849 617.806 485.077 617.528 485.085C611.583 485.237 605.599 485.321 599.623 485.321Z" fill="#313036"/>
<path d="M569.65 360.105C569.611 360.105 569.565 360.105 569.527 360.09C569.264 360.022 569.102 359.755 569.171 359.496L580.706 316.138C581.965 311.402 583.54 306.567 587.624 304.046C587.856 303.901 588.165 303.97 588.312 304.198C588.458 304.427 588.389 304.731 588.157 304.876C584.374 307.214 582.93 311.653 581.672 316.389L570.136 359.747C570.075 359.968 569.874 360.113 569.658 360.113L569.65 360.105Z" fill="#313036"/>
<path d="M541.191 154.44C541.191 154.44 534.327 176.492 543.214 178.373C550.078 179.828 558.27 176.439 558.486 175.929C558.702 175.426 561.737 161.59 561.737 161.59L541.184 154.433L541.191 154.44Z" fill="white"/>
<path d="M546.843 179.218C545.577 179.218 544.318 179.112 543.114 178.853C541.608 178.533 540.435 177.665 539.609 176.279C535.895 170.027 540.52 154.935 540.721 154.295C540.759 154.166 540.852 154.059 540.968 153.999C541.091 153.938 541.23 153.93 541.354 153.976L561.907 161.133C562.138 161.217 562.277 161.461 562.223 161.697C561.714 164.012 559.166 175.601 558.942 176.127C558.602 176.926 552.673 179.218 546.835 179.218H546.843ZM541.523 155.072C540.751 157.737 537.323 170.507 540.466 175.784C541.153 176.942 542.087 177.634 543.33 177.893C549.7 179.249 557.243 176.249 558.062 175.67C558.324 174.748 560.015 167.187 561.173 161.91L541.531 155.072H541.523Z" fill="#313036"/>
<path d="M545.986 173.051L548.171 189.894L565.883 189.186L561.011 164.142L545.986 173.051Z" fill="white"/>
<path d="M548.163 190.382C547.916 190.382 547.7 190.199 547.669 189.955L545.492 173.112C545.461 172.845 545.646 172.602 545.924 172.563C546.194 172.533 546.441 172.716 546.48 172.99L548.603 189.392L565.288 188.722L560.524 164.233C560.47 163.966 560.648 163.708 560.918 163.662C561.188 163.609 561.451 163.784 561.497 164.05L566.369 189.095C566.4 189.232 566.361 189.377 566.269 189.491C566.176 189.605 566.045 189.674 565.898 189.674L548.179 190.382C548.179 190.382 548.163 190.382 548.155 190.382H548.163Z" fill="#313036"/>
<path d="M558.957 145.744C558.957 145.744 556.61 139.828 546.75 139.934C543.037 139.973 540.929 139.668 539.732 139.272C537.3 138.472 534.605 139.66 533.787 142.051C533.216 143.719 533.586 145.836 536.227 148.318C536.227 148.318 532.065 151.988 538.651 155.453C538.651 155.453 536.829 160.7 545.005 161.849C545.005 161.849 546.272 159.23 548.851 160.7C550.372 161.568 550.495 165.055 547.785 168.147C547.785 168.147 552.093 176.645 559.845 176.553C567.597 176.462 567.605 167.484 567.666 164.537C567.728 161.591 571.99 153.633 566.894 147.739C563.829 144.199 558.957 145.729 558.957 145.729V145.744Z" fill="#313036"/>
<path d="M548.257 162.284C548.257 162.284 545.624 160.692 546.048 165.703L548.257 162.284Z" fill="white"/>
<path d="M546.048 166.19C545.793 166.19 545.577 165.999 545.554 165.74C545.376 163.593 545.7 162.299 546.565 161.781C547.276 161.347 548.133 161.628 548.519 161.864C548.75 162.009 548.827 162.306 548.681 162.535C548.534 162.763 548.233 162.839 548.001 162.694C547.994 162.694 547.445 162.382 547.082 162.611C546.859 162.748 546.349 163.326 546.542 165.657C546.565 165.923 546.364 166.159 546.086 166.182C546.071 166.182 546.056 166.182 546.048 166.182V166.19Z" fill="#313036"/>
<path d="M510.601 214.33L505.729 212.434L498.371 220.147C498.371 220.147 474.729 204.217 462.854 193.679C450.98 183.148 439.622 177.018 436.796 177.695C433.97 178.373 435.036 182.257 440.935 185.615C440.935 185.615 435.785 187.008 436.796 191.288C436.796 191.288 433.129 191.371 433.955 196.557C433.955 196.557 429.77 198.773 431.639 203.372C433.507 207.971 438.688 208.101 438.688 208.101C438.688 208.101 452.763 224.488 467.572 238.78C481.168 251.9 501.745 255.061 518.654 246.494C523.935 243.821 528.822 238.872 532.204 235.201L510.593 214.33H510.601Z" fill="white"/>
<path d="M498.579 251.779C487.144 251.779 475.841 247.431 467.232 239.131C453.357 225.744 439.954 210.317 438.456 208.581C437.383 208.497 432.943 207.895 431.183 203.555C429.484 199.374 432.441 196.968 433.422 196.313C433.183 194.455 433.476 193.024 434.31 192.034C434.928 191.303 435.7 191.006 436.217 190.884C435.831 188.044 437.993 186.3 439.799 185.508C436.487 183.414 434.557 180.947 434.827 179.066C434.966 178.129 435.622 177.475 436.68 177.223C439.792 176.477 451.443 182.896 463.186 193.321C474.119 203.014 495.321 217.49 498.301 219.508L505.366 212.106C505.505 211.961 505.721 211.916 505.906 211.984L510.778 213.88C510.84 213.903 510.894 213.941 510.94 213.987L532.559 234.859C532.752 235.042 532.759 235.346 532.582 235.536C529.27 239.131 524.243 244.217 518.893 246.936C512.453 250.195 505.489 251.786 498.579 251.786V251.779ZM437.321 178.129C437.167 178.129 437.035 178.145 436.92 178.168C436.263 178.327 435.893 178.67 435.815 179.195C435.63 180.498 437.228 182.934 441.189 185.188C441.359 185.287 441.459 185.478 441.436 185.676C441.413 185.874 441.266 186.033 441.073 186.087C440.88 186.14 436.402 187.412 437.282 191.173C437.313 191.318 437.282 191.47 437.19 191.585C437.097 191.699 436.958 191.767 436.811 191.775C436.773 191.775 435.777 191.821 435.066 192.673C434.387 193.488 434.179 194.767 434.457 196.481C434.487 196.686 434.387 196.892 434.202 196.991C434.047 197.075 430.434 199.07 432.109 203.197C433.831 207.431 438.51 207.613 438.711 207.621C438.85 207.621 438.981 207.69 439.074 207.796C439.213 207.964 453.303 224.335 467.927 238.438C481.431 251.466 501.729 254.535 518.437 246.068C523.479 243.509 528.266 238.742 531.524 235.232L510.322 214.756L505.86 213.02L498.733 220.49C498.563 220.665 498.293 220.695 498.092 220.558C497.853 220.399 474.289 204.491 462.522 194.052C451.149 183.962 440.425 178.137 437.313 178.137L437.321 178.129Z" fill="#313036"/>
<path d="M438.858 208.817C438.703 208.817 438.549 208.74 438.449 208.611C436.935 206.471 435.53 204.225 434.264 201.933C434.133 201.697 434.225 201.4 434.465 201.27C434.704 201.141 435.005 201.232 435.136 201.468C436.387 203.73 437.769 205.946 439.259 208.055C439.414 208.276 439.36 208.581 439.136 208.733C439.051 208.794 438.951 208.824 438.85 208.824L438.858 208.817Z" fill="#313036"/>
<path d="M439.336 199.055C439.221 199.055 439.105 199.017 439.012 198.933C437.591 197.714 435.708 197.06 433.816 197.143C433.816 197.143 433.801 197.143 433.793 197.143C433.53 197.143 433.306 196.938 433.299 196.679C433.283 196.412 433.499 196.184 433.77 196.169C435.893 196.077 438.055 196.816 439.668 198.194C439.877 198.369 439.9 198.682 439.715 198.887C439.614 199.001 439.475 199.055 439.344 199.055H439.336Z" fill="#313036"/>
<path d="M443.36 194.912C443.236 194.912 443.113 194.867 443.02 194.775C441.329 193.184 439.121 192.148 436.805 191.843C436.534 191.805 436.341 191.562 436.38 191.295C436.419 191.029 436.666 190.838 436.936 190.876C439.461 191.204 441.862 192.331 443.707 194.067C443.908 194.25 443.916 194.562 443.723 194.76C443.622 194.859 443.491 194.912 443.367 194.912H443.36Z" fill="#313036"/>
<path d="M446.702 189.75C446.594 189.75 446.486 189.712 446.393 189.643C444.61 188.257 442.657 187.1 440.587 186.201C440.34 186.095 440.224 185.805 440.333 185.554C440.441 185.31 440.734 185.196 440.989 185.303C443.135 186.239 445.166 187.442 447.011 188.874C447.227 189.041 447.266 189.346 447.096 189.559C446.996 189.681 446.849 189.75 446.702 189.75Z" fill="#313036"/>
<path d="M564.045 139.607C561.798 138.434 559.721 137.901 558.625 139.317C557.528 140.734 558.37 143.346 560.285 144.442C558.957 143.604 557.582 142.744 556.108 142.409C554.633 142.074 553.027 142.401 552.456 143.544C551.954 144.549 552.386 145.942 553.197 147.031C553.598 147.564 554.077 148.044 554.594 148.493C553.614 148.188 552.502 148.326 551.892 148.965C550.858 150.054 550.842 151.767 551.892 153.237C552.772 154.478 554.378 155.826 555.915 157.014C557.613 158.415 558.941 159.39 561.366 161.065C558.609 160.646 553.869 160.174 554.262 163.502C554.811 168.139 575.781 170.835 579.054 172.814C585.185 176.515 589.925 179.226 589.925 179.226C592.736 179.028 603.514 165.42 605.236 160.89C602.657 158.796 581.046 144.83 572.198 139.668C570.716 138.8 569.164 137.916 567.55 137.703C565.936 137.49 564.269 138.168 564.053 139.599L564.045 139.607Z" fill="white"/>
<path d="M589.926 179.721C589.841 179.721 589.756 179.698 589.679 179.653C589.632 179.622 584.861 176.896 578.8 173.233C577.75 172.601 574.607 171.848 570.963 170.972C561.451 168.695 554.147 166.7 553.776 163.555C553.668 162.611 553.908 161.85 554.494 161.286C555.552 160.281 557.575 160.182 559.482 160.334C557.969 159.261 556.888 158.438 555.606 157.38C554.209 156.306 552.471 154.882 551.499 153.511C550.325 151.859 550.34 149.887 551.545 148.623C551.954 148.189 552.572 147.93 553.251 147.861C553.089 147.679 552.942 147.503 552.803 147.321C552.001 146.247 551.375 144.633 552.016 143.331C552.742 141.869 554.649 141.572 556.224 141.93C556.842 142.067 557.436 142.295 558.015 142.569C557.884 142.272 557.783 141.96 557.722 141.64C557.521 140.635 557.699 139.698 558.231 139.013C559.675 137.155 562.347 138.206 563.736 138.891C564.331 137.543 566.068 137.01 567.612 137.216C569.38 137.452 571.079 138.442 572.446 139.242C581.394 144.473 602.943 158.392 605.545 160.509C605.707 160.639 605.769 160.86 605.692 161.058C603.947 165.657 593.145 179.485 589.957 179.714C589.941 179.714 589.933 179.714 589.918 179.714L589.926 179.721ZM558.108 161.256C556.934 161.256 555.776 161.423 555.166 162.002C554.811 162.344 554.672 162.817 554.749 163.449C555.073 166.167 564.771 168.49 571.187 170.028C575.063 170.957 578.128 171.688 579.309 172.403C584.76 175.701 589.161 178.236 590.018 178.724C592.535 178.122 602.495 166.076 604.634 161.058C601.059 158.354 580.599 145.151 571.944 140.094C570.654 139.341 569.048 138.404 567.481 138.191C566.168 138.016 564.709 138.526 564.539 139.676C564.516 139.836 564.416 139.973 564.269 140.041C564.122 140.11 563.952 140.11 563.813 140.041C561.366 138.762 559.791 138.617 559.019 139.622C558.664 140.079 558.548 140.734 558.695 141.457C558.888 142.409 559.482 143.308 560.285 143.864C560.378 143.917 560.463 143.978 560.555 144.031C560.779 144.176 560.849 144.473 560.71 144.701C560.571 144.93 560.27 145.006 560.038 144.869C559.938 144.808 559.837 144.747 559.745 144.686C558.594 143.963 557.305 143.194 556 142.897C554.849 142.638 553.39 142.798 552.904 143.772C552.533 144.519 552.803 145.691 553.599 146.75C553.938 147.199 554.371 147.656 554.919 148.128C555.097 148.28 555.143 148.531 555.027 148.737C554.911 148.935 554.664 149.034 554.448 148.966C553.599 148.699 552.703 148.844 552.263 149.301C551.391 150.222 551.406 151.692 552.302 152.956C553.213 154.235 554.973 155.666 556.224 156.626C557.907 158.012 559.227 158.986 561.652 160.662C561.837 160.791 561.914 161.035 561.829 161.248C561.744 161.461 561.52 161.583 561.296 161.553C560.671 161.461 559.389 161.263 558.123 161.263L558.108 161.256Z" fill="#313036"/>
<path d="M571.117 167.545C571.032 167.545 570.94 167.522 570.862 167.477C570.793 167.431 563.535 163.091 561.088 161.476C560.864 161.324 560.802 161.019 560.949 160.799C561.103 160.578 561.412 160.517 561.636 160.661C564.068 162.268 571.302 166.601 571.372 166.639C571.604 166.776 571.681 167.081 571.542 167.309C571.449 167.461 571.287 167.545 571.117 167.545Z" fill="#313036"/>
<path d="M566.693 157.943C566.585 157.943 566.477 157.912 566.392 157.836C562.925 155.164 558.478 151.965 554.911 149.392L554.262 148.927C554.038 148.767 553.992 148.463 554.154 148.242C554.316 148.021 554.625 147.975 554.849 148.135L555.498 148.6C559.072 151.181 563.527 154.387 567.009 157.067C567.226 157.235 567.264 157.539 567.094 157.753C566.994 157.874 566.847 157.943 566.701 157.943H566.693Z" fill="#313036"/>
<path d="M570.847 152.049C570.747 152.049 570.654 152.019 570.562 151.966L560.247 144.907C560.023 144.754 559.969 144.45 560.123 144.229C560.277 144.008 560.586 143.955 560.81 144.107L571.125 151.166C571.349 151.318 571.403 151.623 571.249 151.844C571.156 151.981 571.002 152.057 570.84 152.057L570.847 152.049Z" fill="#313036"/>
<path d="M573.974 146.643C573.874 146.643 573.773 146.612 573.681 146.551C570.662 144.389 567.512 142.31 564.331 140.376C564.099 140.231 564.022 139.934 564.168 139.706C564.315 139.477 564.616 139.401 564.848 139.546C568.052 141.495 571.218 143.582 574.26 145.759C574.484 145.919 574.53 146.224 574.368 146.445C574.268 146.574 574.121 146.65 573.966 146.65L573.974 146.643Z" fill="#313036"/>
<path d="M606.487 267.16C606.294 267.16 606.109 267.046 606.024 266.856L600.14 252.51C600.04 252.258 600.164 251.977 600.411 251.87C600.665 251.771 600.951 251.885 601.059 252.136L606.943 266.483C607.043 266.734 606.919 267.016 606.672 267.122C606.611 267.145 606.549 267.16 606.487 267.16Z" fill="#313036"/>
<path d="M594.859 152.963C594.859 152.963 592.443 163.433 580.267 174.056C584.189 177.741 599.453 189.605 599.453 189.605C599.453 189.605 565.28 188.31 555.529 187.945C538.736 187.328 525.139 191.508 517.025 199.489L497.722 217.444L472.235 199.26L450.177 221.838L471.147 242.359C486.643 256.781 510.832 256.797 526.344 242.382L535.246 234.432L537.57 282.709L612.942 271.965L602.464 221.99C602.464 221.99 638.784 224.046 640.768 204.461C643.702 175.441 594.859 152.963 594.859 152.963Z" fill="#6490F7"/>
<path d="M620.068 190.9C620.068 190.9 620.053 190.9 620.045 190.9L599.438 190.1C599.168 190.093 598.951 189.864 598.959 189.59C598.967 189.316 599.222 189.11 599.476 189.118L620.084 189.917C620.354 189.925 620.57 190.153 620.562 190.428C620.555 190.694 620.331 190.9 620.068 190.9Z" fill="#313036"/>
<path d="M535.254 234.928C534.992 234.928 534.776 234.722 534.76 234.463L534.389 227.374C534.374 227.107 534.582 226.871 534.86 226.856C535.131 226.833 535.37 227.047 535.386 227.321L535.756 234.41C535.772 234.676 535.563 234.913 535.285 234.928C535.277 234.928 535.27 234.928 535.262 234.928H535.254Z" fill="#313036"/>
<path d="M171.876 500.672H83.5867C83.5867 500.672 53.2512 489.532 73.9665 458.555C75.1246 456.819 77.8578 457.763 77.6494 459.827C76.6688 469.673 77.0703 486.037 89.169 491.961V488.694C89.169 481.171 91.4621 473.823 95.7472 467.601L124.878 425.317C124.878 425.317 101.407 417.063 141.162 391.097C141.162 391.097 140.05 377.748 156.387 383.543C156.387 383.543 183.882 366.479 189.124 368.085C194.367 369.692 202.064 379.165 177.767 409.166L173.157 419.096C172.354 420.825 171.937 422.705 171.937 424.601V486.113C171.937 488.763 173.613 491.085 176.091 492.098C178.114 492.928 179.759 494.489 177.913 497.428C176.632 499.477 174.308 500.664 171.876 500.664V500.672Z" fill="white"/>
<path d="M171.875 501.159H83.5865C83.5247 501.159 83.4707 501.152 83.4166 501.129C83.2931 501.083 71.0168 496.461 67.303 485.252C64.7165 477.432 66.8166 468.355 73.557 458.289C74.2055 457.314 75.3868 456.926 76.4987 457.314C77.6028 457.702 78.2668 458.73 78.1509 459.88C77.2399 469.003 77.4406 485.009 88.6823 491.154V488.694C88.6823 481.041 90.9831 473.655 95.3455 467.327L124.137 425.538C122.531 424.822 118.176 422.469 117.582 417.642C116.702 410.476 124.461 401.46 140.667 390.846C140.629 389.696 140.729 385.538 143.848 383.185C146.566 381.129 150.774 381.068 156.349 383.01C160.008 380.748 184.09 366.037 189.294 367.628C190.475 367.994 193.363 369.25 194.567 373.119C196.219 378.434 194.722 389.041 178.214 409.441L173.628 419.317C172.848 420.992 172.454 422.774 172.454 424.617V486.128C172.454 488.534 173.96 490.704 176.299 491.664C177.805 492.281 178.739 493.126 179.087 494.184C179.419 495.212 179.179 496.4 178.353 497.71C177.01 499.85 174.531 501.175 171.891 501.175L171.875 501.159ZM83.6791 500.177H171.875C174.176 500.177 176.33 499.027 177.496 497.177C178.16 496.126 178.369 495.212 178.129 494.466C177.874 493.697 177.133 493.05 175.913 492.555C173.203 491.451 171.458 488.923 171.458 486.12V424.609C171.458 422.622 171.883 420.703 172.725 418.898L177.334 408.968C177.334 408.968 177.373 408.9 177.396 408.869C193.664 388.774 195.193 378.487 193.61 373.4C192.544 369.981 190.027 368.877 188.993 368.557C184.87 367.286 164.262 379.248 156.665 383.962C156.534 384.046 156.379 384.061 156.233 384.008C150.89 382.112 146.921 382.096 144.451 383.954C141.324 386.315 141.663 391.005 141.671 391.059C141.686 391.234 141.602 391.409 141.447 391.508C121.489 404.544 117.991 412.852 118.562 417.527C119.203 422.743 124.994 424.837 125.056 424.86C125.202 424.914 125.31 425.028 125.357 425.173C125.403 425.317 125.38 425.477 125.295 425.599L96.1639 467.883C91.9174 474.051 89.6706 481.247 89.6706 488.702V491.968C89.6706 492.136 89.5856 492.296 89.4389 492.387C89.2922 492.479 89.1147 492.486 88.9602 492.41C76.4832 486.303 76.213 469.353 77.1704 459.789C77.2553 458.928 76.6917 458.418 76.1744 458.235C75.6571 458.053 74.8773 458.098 74.3909 458.829C67.8281 468.645 65.7666 477.432 68.2527 484.955C71.6576 495.25 82.6368 499.774 83.6868 500.185L83.6791 500.177Z" fill="#313036"/>
<path d="M171.304 500.429C171.266 500.429 171.227 500.429 171.189 500.413C170.926 500.352 170.756 500.086 170.826 499.819C171.274 498.015 169.768 496.172 168.116 495.502C166.286 494.763 164.17 494.954 162.163 495.266L161.406 495.388C159.553 495.692 157.638 496.004 155.739 495.685C155.538 495.654 155.384 495.502 155.338 495.312C155.291 495.121 155.368 494.916 155.531 494.801C161.723 490.415 166.216 483.692 167.876 476.343C168.548 473.358 168.641 470.8 168.154 468.523C167.575 465.812 166.1 463.482 164.108 462.134C160.233 459.507 155.029 460.573 151.346 461.936C144.853 464.327 139.124 468.416 134.784 473.762C134.615 473.975 134.306 474.006 134.09 473.838C133.873 473.671 133.842 473.358 134.012 473.153C138.46 467.67 144.335 463.475 150.998 461.023C154.905 459.583 160.441 458.472 164.672 461.335C166.873 462.827 168.494 465.378 169.127 468.333C169.644 470.754 169.552 473.45 168.849 476.572C167.235 483.737 162.997 490.324 157.144 494.847C158.503 494.885 159.893 494.657 161.244 494.436L162.008 494.314C164.163 493.971 166.448 493.773 168.502 494.611C170.579 495.456 172.385 497.725 171.799 500.071C171.744 500.292 171.544 500.444 171.32 500.444L171.304 500.429Z" fill="#313036"/>
<path d="M159.075 460.124C159.013 460.124 158.944 460.109 158.882 460.086C158.627 459.979 158.511 459.69 158.62 459.446L164.41 446.159C164.518 445.907 164.812 445.793 165.059 445.9C165.314 446.006 165.429 446.296 165.321 446.539L159.531 459.827C159.453 460.01 159.268 460.124 159.075 460.124Z" fill="#313036"/>
<path d="M156.041 404.72C156.041 404.72 141.356 421.266 142.9 428.881C144.444 436.496 152.165 436.496 152.165 436.496C152.165 436.496 146.76 434.211 148.305 424.312C149.849 414.413 151.424 409.502 156.041 404.72Z" fill="#E5E4E7"/>
<path d="M192.877 379.294C192.877 379.294 192.831 379.294 192.808 379.294C190.584 378.997 188.484 377.855 187.056 376.149C185.619 374.451 184.855 372.205 184.963 369.989C184.979 369.723 185.21 369.502 185.481 369.525C185.751 369.54 185.967 369.768 185.951 370.035C185.859 372.007 186.531 374.002 187.812 375.517C189.094 377.033 190.955 378.053 192.939 378.32C193.209 378.358 193.402 378.601 193.364 378.868C193.333 379.111 193.117 379.294 192.869 379.294H192.877Z" fill="#313036"/>
<path d="M153.161 436.945C152.482 436.945 151.81 436.892 151.154 436.778C146.814 436.039 143.278 432.765 142.553 428.82C141.935 425.47 143.34 422.089 144.622 419.515C147.517 413.72 151.362 408.481 156.041 403.958C156.234 403.768 156.551 403.776 156.744 403.958C156.937 404.149 156.929 404.461 156.744 404.651C152.142 409.098 148.366 414.238 145.517 419.941C144.297 422.378 142.969 425.576 143.533 428.645C144.174 432.14 147.448 435.148 151.324 435.81C154.867 436.412 158.851 435.217 161.986 432.605C164.681 430.358 166.804 427.145 168.302 423.056C169.645 419.386 170.332 415.464 171.004 411.672C171.05 411.405 171.305 411.23 171.576 411.276C171.846 411.322 172.023 411.573 171.977 411.839C171.305 415.67 170.603 419.637 169.228 423.391C167.669 427.648 165.453 431.006 162.619 433.359C159.84 435.673 156.419 436.953 153.153 436.953L153.161 436.945Z" fill="#313036"/>
<path d="M125.589 424.899C125.489 424.899 125.381 424.868 125.296 424.8C125.072 424.64 125.025 424.335 125.195 424.114L136.777 408.664C136.939 408.451 137.248 408.398 137.472 408.565C137.696 408.725 137.742 409.03 137.572 409.251L125.991 424.701C125.89 424.83 125.744 424.899 125.589 424.899Z" fill="#313036"/>
<path d="M141.595 406.068C141.595 406.068 141.564 406.068 141.548 406.068C139.34 405.87 137.333 404.446 136.445 402.443C135.549 400.44 135.85 398.019 137.194 396.275C138.344 394.783 140.189 393.899 142.073 393.884L141.147 392.239C141.015 392.003 141.1 391.706 141.34 391.577C141.579 391.447 141.88 391.531 142.011 391.767L143.386 394.196C143.478 394.356 143.471 394.562 143.363 394.714C143.255 394.866 143.069 394.943 142.884 394.92C141.07 394.646 139.108 395.437 137.989 396.877C136.877 398.316 136.622 400.395 137.363 402.055C138.097 403.715 139.826 404.933 141.649 405.101C141.919 405.123 142.12 405.359 142.096 405.634C142.073 405.885 141.857 406.075 141.602 406.075L141.595 406.068Z" fill="#313036"/>
<path d="M164.271 402.23C164.271 402.23 164.24 402.23 164.224 402.23C163.954 402.199 163.753 401.963 163.776 401.697C164.417 395.338 161.808 388.759 156.959 384.525C156.75 384.343 156.735 384.038 156.913 383.833C157.098 383.627 157.407 383.612 157.615 383.787C162.696 388.219 165.436 395.117 164.765 401.788C164.742 402.039 164.525 402.23 164.271 402.23Z" fill="#313036"/>
<path d="M159.391 432.018C159.121 432.018 158.904 431.805 158.897 431.539C158.727 423.505 162.147 415.403 168.046 409.867C168.247 409.677 168.556 409.692 168.749 409.883C168.934 410.081 168.926 410.385 168.733 410.575C163.027 415.921 159.723 423.749 159.893 431.516C159.893 431.79 159.684 432.011 159.406 432.018H159.399H159.391Z" fill="#313036"/>
<path d="M291.905 113.717L192.043 284.461C185.209 296.149 193.757 310.754 207.438 310.754H407.163C420.845 310.754 429.392 296.149 422.559 284.461L322.696 113.717C315.855 102.021 298.746 102.021 291.913 113.717H291.905Z" fill="#6490F7"/>
<path d="M299.758 128.086L208.581 283.981C205.23 289.708 209.423 296.858 216.117 296.858H398.47C405.172 296.858 409.356 289.708 406.005 283.981L314.829 128.086C311.478 122.36 303.101 122.36 299.75 128.086H299.758Z" fill="white"/>
<path d="M282.895 226.955H288.092V230.793H282.895V239.375H278.116V230.793H261.068V228.021L277.831 202.39H282.895V226.955ZM266.465 226.955H278.116V208.817L277.553 209.83L266.473 226.947L266.465 226.955Z" fill="#313036"/>
<path d="M315.855 223.597C315.855 229.102 314.906 233.191 312.999 235.864C311.099 238.537 308.119 239.877 304.073 239.877C300.028 239.877 297.124 238.567 295.202 235.955C293.279 233.336 292.291 229.43 292.222 224.236V217.962C292.222 212.525 293.171 208.489 295.078 205.847C296.978 203.205 299.966 201.887 304.027 201.887C308.088 201.887 311.022 203.159 312.922 205.71C314.821 208.261 315.801 212.19 315.855 217.505V223.597ZM311.099 217.17C311.099 213.187 310.536 210.294 309.401 208.474C308.266 206.654 306.475 205.74 304.027 205.74C301.579 205.74 299.819 206.646 298.707 208.459C297.595 210.271 297.016 213.058 296.986 216.812V224.328C296.986 228.325 297.572 231.272 298.746 233.176C299.919 235.08 301.695 236.031 304.081 236.031C306.467 236.031 308.173 235.133 309.316 233.336C310.459 231.539 311.053 228.714 311.099 224.853V217.155V217.17Z" fill="#313036"/>
<path d="M342.037 226.955H347.233V230.793H342.037V239.375H337.258V230.793H320.21V228.021L336.972 202.39H342.037V226.955ZM325.607 226.955H337.258V208.817L336.694 209.83L325.615 226.947L325.607 226.955Z" fill="#313036"/>
<path d="M272.426 264.906H262.69V272.772H274.001V275.163H259.732V252.974H273.846V255.365H262.69V262.515H272.426V264.906Z" fill="#313036"/>
<path d="M285.929 266.186H280.656V275.163H277.676V252.974H285.111C287.644 252.974 289.589 253.545 290.948 254.68C292.307 255.814 292.994 257.474 292.994 259.645C292.994 261.023 292.616 262.234 291.859 263.254C291.102 264.282 290.052 265.051 288.701 265.554L293.975 274.973V275.156H290.794L285.922 266.178L285.929 266.186ZM280.656 263.795H285.204C286.671 263.795 287.844 263.421 288.717 262.668C289.589 261.914 290.022 260.909 290.022 259.645C290.022 258.274 289.605 257.216 288.778 256.484C287.952 255.753 286.756 255.38 285.188 255.373H280.656V263.802V263.795Z" fill="#313036"/>
<path d="M305.386 266.186H300.113V275.163H297.133V252.974H304.568C307.101 252.974 309.046 253.545 310.405 254.68C311.764 255.814 312.451 257.474 312.451 259.645C312.451 261.023 312.073 262.234 311.316 263.254C310.56 264.282 309.509 265.051 308.158 265.554L313.432 274.973V275.156H310.251L305.379 266.178L305.386 266.186ZM300.113 263.795H304.661C306.128 263.795 307.301 263.421 308.174 262.668C309.046 261.914 309.479 260.909 309.479 259.645C309.479 258.274 309.062 257.216 308.236 256.484C307.409 255.753 306.213 255.38 304.645 255.373H300.113V263.802V263.795Z" fill="#313036"/>
<path d="M333.884 264.785C333.884 266.963 333.514 268.859 332.772 270.481C332.031 272.102 330.981 273.336 329.622 274.189C328.263 275.042 326.681 275.468 324.874 275.468C323.067 275.468 321.538 275.042 320.164 274.181C318.798 273.321 317.732 272.102 316.975 270.511C316.219 268.92 315.833 267.077 315.81 264.99V263.391C315.81 261.259 316.188 259.371 316.937 257.741C317.686 256.104 318.751 254.855 320.126 253.987C321.5 253.119 323.067 252.685 324.843 252.685C326.619 252.685 328.233 253.111 329.599 253.972C330.966 254.832 332.031 256.074 332.772 257.703C333.514 259.333 333.884 261.229 333.884 263.399V264.8V264.785ZM330.935 263.353C330.935 260.719 330.402 258.701 329.329 257.292C328.256 255.883 326.766 255.183 324.835 255.183C322.905 255.183 321.492 255.883 320.411 257.292C319.338 258.701 318.782 260.65 318.751 263.155V264.785C318.751 267.336 319.292 269.338 320.38 270.8C321.469 272.255 322.959 272.986 324.866 272.986C326.773 272.986 328.263 272.3 329.306 270.922C330.348 269.544 330.896 267.572 330.927 264.998V263.353H330.935Z" fill="#313036"/>
<path d="M346.562 266.186H341.289V275.163H338.309V252.974H345.744C348.276 252.974 350.222 253.545 351.581 254.68C352.94 255.814 353.627 257.474 353.627 259.645C353.627 261.023 353.249 262.234 352.492 263.254C351.735 264.282 350.685 265.051 349.334 265.554L354.607 274.973V275.156H351.426L346.555 266.178L346.562 266.186ZM341.289 263.795H345.837C347.303 263.795 348.477 263.421 349.35 262.668C350.222 261.914 350.654 260.909 350.654 259.645C350.654 258.274 350.237 257.216 349.411 256.484C348.585 255.753 347.388 255.38 345.821 255.373H341.289V263.802V263.795Z" fill="#313036"/>
<path d="M164.116 139.759H75.8505C66.4387 139.759 58.8027 147.298 58.8027 156.595V183.886C58.8027 193.184 66.431 200.722 75.8505 200.722H164.116C173.528 200.722 181.164 193.184 181.164 183.886V156.595C181.164 147.298 173.536 139.759 164.116 139.759Z" fill="#EBF1FF"/>
<path d="M119.984 192.841C132.618 192.841 142.861 182.723 142.861 170.241C142.861 157.759 132.618 147.641 119.984 147.641C107.349 147.641 97.1064 157.759 97.1064 170.241C97.1064 182.723 107.349 192.841 119.984 192.841Z" fill="white"/>
<path d="M111.53 166.951C112.698 166.951 113.645 166.017 113.645 164.865C113.645 163.712 112.698 162.778 111.53 162.778C110.361 162.778 109.414 163.712 109.414 164.865C109.414 166.017 110.361 166.951 111.53 166.951Z" fill="#313036"/>
<path d="M128.43 166.951C129.598 166.951 130.546 166.017 130.546 164.865C130.546 163.712 129.598 162.778 128.43 162.778C127.262 162.778 126.314 163.712 126.314 164.865C126.314 166.017 127.262 166.951 128.43 166.951Z" fill="#313036"/>
<path d="M110.395 180.148C110.325 180.148 110.256 180.132 110.186 180.102C109.939 179.988 109.831 179.698 109.947 179.455C109.978 179.394 112.734 173.667 119.822 173.667C126.91 173.667 129.867 179.348 129.898 179.401C130.014 179.645 129.913 179.934 129.666 180.056C129.419 180.178 129.126 180.071 129.002 179.828C128.894 179.615 126.354 174.642 119.822 174.642C113.29 174.642 110.951 179.645 110.843 179.858C110.758 180.033 110.58 180.14 110.395 180.14V180.148Z" fill="#313036"/>
<path d="M182.646 231.387C167.382 231.387 154.959 219.12 154.959 204.043C154.959 203.768 155.183 203.555 155.453 203.555C155.723 203.555 155.947 203.776 155.947 204.043C155.947 218.579 167.922 230.405 182.639 230.405C182.916 230.405 183.133 230.625 183.133 230.892C183.133 231.158 182.909 231.379 182.639 231.379L182.646 231.387Z" fill="#313036"/>
<path d="M467.17 176.074C467.124 176.074 467.07 176.074 467.016 176.051C466.753 175.967 466.614 175.693 466.692 175.434L470.112 164.872C470.15 164.751 470.243 164.644 470.359 164.583C470.475 164.522 470.614 164.514 470.737 164.553C475.339 166.015 480.234 165.611 484.535 163.433C488.835 161.248 492.016 157.539 493.491 152.993C496.533 143.605 491.275 133.515 481.778 130.5C474.482 128.185 466.468 130.675 461.843 136.706C461.681 136.919 461.364 136.965 461.148 136.797C460.932 136.637 460.885 136.325 461.055 136.112C465.935 129.761 474.389 127.126 482.087 129.571C492.109 132.746 497.652 143.391 494.441 153.298C492.881 158.095 489.53 162.009 484.99 164.316C480.605 166.54 475.625 167.004 470.915 165.641L467.641 175.746C467.572 175.952 467.379 176.089 467.17 176.089V176.074Z" fill="#313036"/>
<path d="M464.221 185.226C464.174 185.226 464.12 185.226 464.066 185.203C463.804 185.12 463.665 184.846 463.742 184.587L465.17 180.185C465.255 179.926 465.533 179.782 465.796 179.866C466.058 179.949 466.197 180.223 466.12 180.482L464.692 184.884C464.622 185.089 464.429 185.226 464.221 185.226Z" fill="#313036"/>
<path d="M403.388 187.678C403.341 187.678 403.287 187.678 403.233 187.656C402.971 187.572 402.832 187.298 402.909 187.039L405.804 178.107C405.843 177.985 405.936 177.878 406.052 177.817C406.167 177.757 406.306 177.749 406.43 177.787C410.298 179.013 414.421 178.678 418.042 176.85C421.663 175.015 424.342 171.893 425.585 168.063C428.149 160.159 423.725 151.669 415.726 149.125C409.58 147.176 402.84 149.278 398.948 154.349C398.786 154.562 398.47 154.608 398.253 154.44C398.037 154.28 397.991 153.968 398.161 153.755C402.315 148.356 409.495 146.118 416.035 148.196C424.551 150.9 429.268 159.946 426.535 168.36C425.215 172.442 422.358 175.762 418.505 177.726C414.799 179.607 410.599 180.003 406.615 178.868L403.866 187.343C403.797 187.549 403.604 187.686 403.396 187.686L403.388 187.678Z" fill="#313036"/>
<path d="M400.894 195.415C400.848 195.415 400.794 195.415 400.74 195.392C400.478 195.308 400.339 195.034 400.416 194.775L401.62 191.052C401.705 190.793 401.983 190.648 402.246 190.732C402.508 190.816 402.647 191.09 402.57 191.349L401.365 195.072C401.296 195.278 401.103 195.415 400.894 195.415Z" fill="#313036"/>
<path d="M473.247 338.639C473.193 338.639 473.139 338.632 473.085 338.617C472.822 338.533 472.683 338.251 472.776 338L476.297 327.697C476.335 327.575 476.428 327.476 476.544 327.415C476.66 327.362 476.799 327.347 476.922 327.393C481.416 328.885 486.226 328.565 490.472 326.486C494.719 324.408 497.892 320.821 499.413 316.389C502.54 307.237 497.545 297.277 488.272 294.193C481.153 291.824 473.255 294.147 468.622 299.987C468.452 300.201 468.143 300.239 467.927 300.071C467.711 299.904 467.672 299.599 467.842 299.386C472.73 293.226 481.068 290.766 488.588 293.271C498.379 296.53 503.652 307.046 500.347 316.709C498.749 321.392 495.398 325.177 490.912 327.37C486.573 329.494 481.678 329.875 477.077 328.474L473.71 338.32C473.641 338.525 473.448 338.655 473.239 338.655L473.247 338.639Z" fill="#313036"/>
<path d="M470.213 347.564C470.159 347.564 470.104 347.556 470.05 347.541C469.788 347.457 469.649 347.175 469.742 346.924L471.209 342.629C471.293 342.37 471.579 342.233 471.834 342.325C472.097 342.408 472.235 342.69 472.143 342.942L470.676 347.236C470.606 347.442 470.413 347.571 470.205 347.571L470.213 347.564Z" fill="#313036"/>
<path d="M87.0228 367.621C121.98 367.621 150.319 339.631 150.319 305.104C150.319 270.577 121.98 242.588 87.0228 242.588C52.0652 242.588 23.7266 270.577 23.7266 305.104C23.7266 339.631 52.0652 367.621 87.0228 367.621Z" fill="white"/>
<path d="M112.131 331.055C113.699 329.943 115.189 328.702 116.579 327.339C116.864 327.56 117.158 327.773 117.482 327.964C121.752 330.537 127.326 329.197 129.928 324.979C132.53 320.76 131.179 315.255 126.909 312.681C126.593 312.491 126.261 312.323 125.936 312.178C127.056 308.645 127.619 305.021 127.635 301.419C127.998 301.373 128.361 301.32 128.724 301.236C133.588 300.071 136.568 295.236 135.394 290.431C134.213 285.626 129.318 282.679 124.454 283.844C124.091 283.928 123.744 284.042 123.404 284.172C121.713 280.973 119.536 278.004 116.903 275.377C117.127 275.095 117.343 274.806 117.536 274.486C120.138 270.267 118.787 264.762 114.517 262.188C110.247 259.614 104.673 260.954 102.071 265.173C101.878 265.485 101.708 265.813 101.561 266.14C97.9865 265.028 94.3191 264.48 90.6671 264.457C90.6285 264.099 90.5667 263.741 90.4818 263.384C89.3005 258.579 84.4054 255.632 79.5412 256.797C74.677 257.962 71.6967 262.797 72.8703 267.602C72.9553 267.96 73.0711 268.303 73.2023 268.638C71.4033 269.567 69.6739 270.64 68.0293 271.866L71.0096 283.235L77.2404 283.913L80.3056 287.926C85.6485 283.943 93.13 283.349 99.1987 287.004C107.128 291.779 109.637 302.005 104.804 309.841C103.669 311.683 102.225 313.229 100.581 314.455L102.65 324.156L107.815 324.842L112.139 331.04L112.131 331.055Z" fill="#F5F9FF"/>
<path d="M112.132 331.543C112.132 331.543 112.078 331.543 112.047 331.543C111.916 331.52 111.8 331.444 111.723 331.337L107.523 325.314L102.581 324.659C102.373 324.629 102.203 324.476 102.164 324.278L100.095 314.577C100.056 314.394 100.126 314.196 100.28 314.082C101.925 312.856 103.299 311.349 104.38 309.605C109.067 302.013 106.627 292.068 98.9369 287.446C93.1849 283.981 85.989 284.332 80.5997 288.337C80.4916 288.413 80.3604 288.451 80.2291 288.428C80.0979 288.413 79.9821 288.345 79.9049 288.238L76.9709 284.393L70.9563 283.738C70.7478 283.715 70.5857 283.57 70.5317 283.372L67.5514 272.004C67.4973 271.813 67.5745 271.608 67.729 271.493C69.2654 270.351 70.8945 269.316 72.5854 268.417C72.5005 268.173 72.4387 267.945 72.3847 267.732C71.1416 262.676 74.2995 257.566 79.4184 256.34C81.8969 255.746 84.4679 256.142 86.6452 257.452C88.8225 258.762 90.3513 260.833 90.9535 263.285C91.0076 263.506 91.0539 263.734 91.0925 263.985C94.5515 264.039 97.9718 264.572 101.284 265.554C101.4 265.325 101.516 265.12 101.632 264.93C102.96 262.775 105.06 261.267 107.538 260.673C110.016 260.079 112.58 260.475 114.757 261.785C119.251 264.495 120.679 270.313 117.938 274.752C117.815 274.95 117.683 275.141 117.537 275.346C119.946 277.806 121.992 280.57 123.621 283.578C123.86 283.502 124.092 283.433 124.316 283.38C126.794 282.786 129.365 283.182 131.542 284.492C133.72 285.801 135.248 287.873 135.851 290.324C137.094 295.381 133.936 300.49 128.817 301.716C128.593 301.769 128.354 301.815 128.107 301.853C128.053 305.264 127.512 308.653 126.516 311.927C126.748 312.042 126.956 312.156 127.149 312.27C131.643 314.981 133.071 320.798 130.33 325.238C129.002 327.393 126.902 328.9 124.424 329.494C121.945 330.088 119.382 329.692 117.205 328.383C117.012 328.268 116.811 328.131 116.602 327.987C115.29 329.243 113.877 330.401 112.402 331.451C112.317 331.512 112.217 331.543 112.109 331.543H112.132ZM103.06 323.73L107.878 324.37C108.017 324.385 108.14 324.461 108.218 324.575L112.248 330.362C113.653 329.342 114.989 328.208 116.232 326.997C116.409 326.822 116.695 326.806 116.888 326.959C117.189 327.195 117.475 327.393 117.737 327.553C119.691 328.725 121.992 329.083 124.208 328.55C126.431 328.017 128.315 326.662 129.504 324.735C131.959 320.753 130.685 315.537 126.647 313.115C126.377 312.955 126.084 312.803 125.721 312.636C125.489 312.537 125.381 312.278 125.451 312.042C126.547 308.6 127.111 305.028 127.126 301.427C127.126 301.175 127.319 300.97 127.566 300.939C127.944 300.894 128.284 300.84 128.593 300.764C133.179 299.668 136.005 295.084 134.893 290.553C134.353 288.36 132.979 286.502 131.033 285.322C129.079 284.149 126.779 283.791 124.563 284.324C124.254 284.4 123.93 284.499 123.567 284.636C123.335 284.72 123.065 284.621 122.949 284.408C121.266 281.217 119.104 278.293 116.533 275.735C116.355 275.56 116.34 275.285 116.494 275.088C116.741 274.783 116.934 274.509 117.097 274.242C119.552 270.26 118.27 265.044 114.24 262.622C112.286 261.45 109.993 261.092 107.77 261.625C105.546 262.158 103.662 263.513 102.473 265.44C102.311 265.706 102.149 266.003 101.994 266.353C101.894 266.582 101.632 266.689 101.392 266.62C97.9101 265.539 94.2967 264.983 90.6447 264.96C90.3976 264.96 90.1814 264.77 90.1583 264.526C90.1119 264.138 90.0579 263.818 89.9807 263.513C89.4402 261.32 88.0659 259.462 86.1202 258.282C84.1668 257.109 81.866 256.751 79.6501 257.284C75.0638 258.381 72.238 262.965 73.3498 267.496C73.427 267.8 73.5274 268.112 73.6586 268.478C73.7436 268.706 73.6432 268.965 73.427 269.087C71.7438 269.955 70.1147 270.96 68.5937 272.08L71.4041 282.809L77.2952 283.448C77.4342 283.464 77.5577 283.532 77.6349 283.639L80.4067 287.263C86.0662 283.289 93.4937 283.014 99.4542 286.609C107.608 291.52 110.194 302.059 105.222 310.115C104.133 311.882 102.751 313.412 101.122 314.676L103.06 323.738V323.73Z" fill="#313036"/>
<path d="M93.2924 320.189C87.9495 324.172 80.4679 324.766 74.3993 321.111C66.4699 316.336 63.9606 306.11 68.7939 298.274C69.9288 296.431 71.3727 294.886 73.0172 293.66L70.1759 289.936L63.6286 289.03L60.7409 277.593C59.4361 278.567 58.1853 279.634 57.004 280.783C56.7183 280.563 56.4249 280.349 56.1007 280.159C51.831 277.585 46.2565 278.925 43.6545 283.144C41.0526 287.362 42.4037 292.868 46.6734 295.442C46.99 295.632 47.322 295.799 47.6462 295.944C46.5267 299.477 45.9631 303.102 45.9476 306.704C45.5847 306.749 45.2219 306.803 44.859 306.886C39.9948 308.051 37.0145 312.887 38.1881 317.692C39.3617 322.497 44.2645 325.443 49.1287 324.278C49.4915 324.195 49.839 324.08 50.1787 323.951C51.8696 327.149 54.0469 330.119 56.6797 332.746C56.4558 333.028 56.2396 333.317 56.0466 333.637C53.4447 337.855 54.7958 343.361 59.0655 345.935C63.3352 348.508 68.9097 347.168 71.5116 342.95C71.7047 342.637 71.8745 342.31 72.0212 341.982C75.596 343.094 79.2634 343.643 82.9154 343.665C82.954 344.023 83.0158 344.381 83.1007 344.739C84.2821 349.544 89.1771 352.491 94.0413 351.326C98.9055 350.161 101.886 345.325 100.712 340.52C100.627 340.163 100.511 339.82 100.38 339.485C101.924 338.693 103.407 337.787 104.835 336.774L100.357 330.347L95.7708 330.317L93.2847 320.197L93.2924 320.189Z" fill="#EBF1FF"/>
<path d="M91.9026 352.064C90.1731 352.064 88.4668 351.592 86.9458 350.678C84.7685 349.369 83.2397 347.298 82.6375 344.846C82.5834 344.625 82.5371 344.396 82.4985 344.145C79.0395 344.092 75.6192 343.559 72.2992 342.576C72.1833 342.805 72.0675 343.01 71.9517 343.201C70.6237 345.356 68.5236 346.863 66.0452 347.457C63.5668 348.051 61.0034 347.655 58.8261 346.346C54.3326 343.635 52.9042 337.817 55.6451 333.378C55.7687 333.18 55.8999 332.99 56.0466 332.784C53.6377 330.324 51.5994 327.56 49.9625 324.552C49.7232 324.636 49.4915 324.697 49.2676 324.75C46.7892 325.344 44.2181 324.948 42.0408 323.639C39.8635 322.329 38.3348 320.258 37.7326 317.806C36.4895 312.75 39.6474 307.64 44.7663 306.414C44.9902 306.361 45.2219 306.315 45.4767 306.277C45.5307 302.866 46.0712 299.477 47.0672 296.203C46.8355 296.089 46.6271 295.975 46.434 295.86C41.9327 293.15 40.5121 287.332 43.253 282.893C44.581 280.738 46.6811 279.23 49.1595 278.636C51.638 278.042 54.2013 278.438 56.3786 279.748C56.5716 279.862 56.7724 279.999 56.9808 280.144C58.0772 279.1 59.2431 278.111 60.4553 277.204C60.5865 277.105 60.7641 277.075 60.9185 277.136C61.0729 277.189 61.1965 277.319 61.2351 277.479L64.0378 288.596L70.2531 289.456C70.3844 289.472 70.5002 289.54 70.5774 289.647L73.4187 293.37C73.5808 293.584 73.5422 293.896 73.3183 294.056C71.6738 295.282 70.2994 296.789 69.2185 298.533C64.5319 306.125 66.9717 316.07 74.6618 320.692C80.4139 324.156 87.6175 323.806 92.999 319.801C93.1302 319.702 93.3078 319.671 93.4622 319.732C93.6166 319.786 93.7402 319.915 93.7788 320.075L96.1723 329.822L100.372 329.852C100.535 329.852 100.689 329.936 100.774 330.065L105.252 336.492C105.407 336.713 105.352 337.01 105.136 337.17C103.816 338.107 102.434 338.959 101.006 339.713C101.083 339.949 101.152 340.178 101.206 340.399C102.449 345.455 99.2915 350.564 94.1726 351.79C93.4236 351.973 92.6593 352.057 91.9026 352.057V352.064ZM72.0367 341.495C72.083 341.495 72.137 341.495 72.1834 341.518C75.6655 342.599 79.2866 343.155 82.9309 343.178C83.178 343.178 83.3941 343.368 83.4173 343.612C83.4636 343.993 83.5177 344.328 83.5949 344.625C84.1353 346.818 85.5097 348.676 87.4553 349.856C89.401 351.036 91.7096 351.387 93.9255 350.854C98.5117 349.757 101.338 345.173 100.226 340.642C100.149 340.338 100.048 340.018 99.9169 339.66C99.832 339.432 99.9324 339.165 100.149 339.051C101.523 338.343 102.866 337.536 104.148 336.66L100.095 330.842L95.7631 330.812C95.5392 330.812 95.3384 330.659 95.2844 330.439L92.9681 321.027C87.3318 324.865 80.0201 325.085 74.129 321.545C65.9757 316.633 63.3892 306.087 68.3615 298.038C69.4193 296.325 70.7473 294.825 72.3223 293.584L69.898 290.408L63.5591 289.533C63.3583 289.502 63.1962 289.357 63.1499 289.167L60.4475 278.461C59.3743 279.298 58.332 280.205 57.3592 281.156C57.1816 281.332 56.8959 281.347 56.7029 281.194C56.4018 280.958 56.1238 280.76 55.8536 280.601C53.9002 279.428 51.5994 279.07 49.3834 279.603C47.1598 280.136 45.2759 281.491 44.0869 283.418C41.6316 287.4 42.9056 292.617 46.9436 295.038C47.2139 295.198 47.5073 295.35 47.8701 295.518C48.094 295.617 48.2099 295.876 48.1404 296.112C47.044 299.553 46.4804 303.125 46.4649 306.726C46.4649 306.97 46.2796 307.183 46.0248 307.214C45.6311 307.26 45.3068 307.313 44.998 307.389C40.4117 308.485 37.5859 313.07 38.6977 317.6C39.2381 319.793 40.6125 321.651 42.5581 322.832C44.5115 324.004 46.8124 324.362 49.0283 323.829C49.3371 323.753 49.6537 323.654 50.0243 323.517C50.2559 323.433 50.5261 323.532 50.6419 323.745C52.3328 326.936 54.487 329.86 57.0581 332.426C57.2356 332.601 57.2511 332.883 57.0966 333.073C56.8496 333.378 56.6643 333.644 56.4944 333.911C54.0392 337.893 55.3131 343.109 59.3512 345.539C61.3046 346.711 63.5977 347.069 65.8213 346.536C68.0449 346.003 69.9288 344.648 71.1179 342.721C71.28 342.455 71.4344 342.165 71.5966 341.807C71.6815 341.632 71.8591 341.518 72.0444 341.518L72.0367 341.495Z" fill="#313036"/>
<path d="M86.3743 368.116C84.3514 368.101 82.3131 367.986 80.3134 367.773C80.0431 367.743 79.8424 367.507 79.8733 367.232C79.9041 366.966 80.1512 366.768 80.4214 366.798C82.3903 367.004 84.3977 367.118 86.3897 367.133C86.6677 367.133 86.8839 367.354 86.8839 367.628C86.8839 367.895 86.66 368.116 86.3897 368.116H86.3743ZM92.3966 367.887C92.1418 367.887 91.9256 367.697 91.9025 367.438C91.8793 367.172 92.08 366.928 92.3503 366.905C93.3231 366.821 94.3114 366.715 95.2842 366.585C96.288 366.456 97.2917 366.296 98.2722 366.121C98.5425 366.075 98.7973 366.25 98.8513 366.517C98.8976 366.783 98.72 367.035 98.4498 367.088C97.4538 367.263 96.4269 367.423 95.4155 367.56C94.4272 367.689 93.4235 367.796 92.4352 367.88C92.4198 367.88 92.4043 367.88 92.3889 367.88L92.3966 367.887ZM74.3991 366.875C74.3991 366.875 74.3296 366.875 74.2987 366.867C72.3222 366.471 70.3456 365.976 68.4077 365.39C68.1452 365.314 67.9985 365.039 68.0757 364.781C68.1529 364.522 68.4308 364.377 68.6934 364.453C70.5927 365.024 72.5461 365.519 74.4918 365.908C74.762 365.961 74.9319 366.22 74.8778 366.486C74.8315 366.715 74.623 366.875 74.3914 366.875H74.3991ZM104.241 365.763C104.024 365.763 103.824 365.618 103.762 365.405C103.685 365.146 103.839 364.872 104.102 364.803C106.016 364.27 107.923 363.646 109.769 362.938C110.023 362.839 110.309 362.968 110.41 363.22C110.51 363.471 110.379 363.753 110.124 363.852C108.248 364.567 106.31 365.207 104.364 365.748C104.318 365.763 104.271 365.763 104.225 365.763H104.241ZM62.8872 363.395C62.8254 363.395 62.756 363.379 62.6942 363.357C60.8257 362.595 58.9804 361.735 57.1969 360.806C56.9575 360.676 56.8649 360.379 56.9884 360.143C57.1197 359.907 57.4208 359.816 57.6601 359.938C59.4128 360.859 61.2349 361.704 63.0725 362.45C63.3273 362.557 63.4431 362.839 63.3428 363.09C63.2655 363.28 63.0802 363.395 62.8872 363.395ZM115.467 361.461C115.281 361.461 115.112 361.362 115.027 361.194C114.903 360.95 115.003 360.661 115.251 360.539C117.026 359.656 118.771 358.681 120.454 357.638C120.686 357.493 120.995 357.562 121.142 357.79C121.288 358.019 121.219 358.323 120.987 358.468C119.281 359.526 117.497 360.524 115.698 361.415C115.629 361.453 115.552 361.468 115.474 361.468L115.467 361.461ZM52.2555 357.828C52.1628 357.828 52.0702 357.806 51.9853 357.745C50.3021 356.648 48.6498 355.46 47.0747 354.211C46.8586 354.044 46.8277 353.732 46.9975 353.526C47.1674 353.32 47.484 353.282 47.6924 353.45C49.2366 354.676 50.8657 355.849 52.5257 356.922C52.7573 357.075 52.8191 357.372 52.6647 357.6C52.5721 357.745 52.4099 357.821 52.2478 357.821L52.2555 357.828ZM125.651 355.133C125.504 355.133 125.357 355.064 125.257 354.942C125.087 354.729 125.126 354.425 125.35 354.257C126.917 353.062 128.453 351.775 129.905 350.435C130.106 350.252 130.422 350.259 130.607 350.457C130.793 350.655 130.785 350.968 130.584 351.15C129.11 352.513 127.558 353.815 125.959 355.034C125.867 355.102 125.759 355.133 125.658 355.133H125.651ZM42.8746 350.389C42.751 350.389 42.6275 350.343 42.5271 350.252C41.0833 348.866 39.6858 347.389 38.381 345.873C38.2034 345.668 38.2266 345.356 38.435 345.18C38.6435 345.005 38.9601 345.028 39.1376 345.234C40.4193 346.726 41.7936 348.173 43.222 349.544C43.415 349.734 43.4228 350.039 43.2297 350.237C43.1294 350.336 43.0058 350.381 42.8746 350.381V350.389ZM134.437 347.016C134.321 347.016 134.205 346.977 134.105 346.894C133.897 346.711 133.881 346.406 134.059 346.201C135.371 344.731 136.63 343.185 137.803 341.601C137.966 341.381 138.274 341.335 138.498 341.495C138.722 341.655 138.769 341.959 138.606 342.18C137.417 343.787 136.143 345.363 134.808 346.856C134.707 346.962 134.576 347.023 134.437 347.023V347.016ZM35.0841 341.335C34.9297 341.335 34.7753 341.259 34.6749 341.122C33.5168 339.485 32.4359 337.779 31.4476 336.05C31.3163 335.814 31.4013 335.517 31.6329 335.38C31.8722 335.243 32.1734 335.327 32.3046 335.563C33.2774 337.269 34.3507 338.944 35.4856 340.558C35.64 340.779 35.586 341.084 35.3621 341.236C35.2772 341.297 35.1768 341.327 35.0764 341.327L35.0841 341.335ZM141.517 337.406C141.432 337.406 141.347 337.383 141.262 337.337C141.023 337.2 140.946 336.903 141.085 336.667C142.096 334.977 143.038 333.225 143.88 331.451C143.996 331.207 144.297 331.101 144.536 331.215C144.783 331.329 144.891 331.619 144.775 331.862C143.918 333.659 142.961 335.441 141.934 337.162C141.841 337.314 141.679 337.406 141.509 337.406H141.517ZM29.1776 330.987C28.9846 330.987 28.807 330.88 28.7221 330.697C27.9037 328.877 27.1702 326.997 26.5294 325.108C26.4444 324.849 26.5834 324.575 26.8459 324.491C27.1084 324.408 27.3864 324.545 27.4713 324.804C28.0967 326.661 28.8225 328.512 29.6332 330.301C29.7413 330.545 29.6332 330.834 29.3784 330.949C29.3166 330.979 29.2471 330.994 29.1776 330.994V330.987ZM146.636 326.654C146.582 326.654 146.528 326.646 146.466 326.623C146.211 326.532 146.073 326.25 146.165 325.999C146.837 324.149 147.424 322.253 147.91 320.357C147.98 320.098 148.25 319.938 148.512 320.006C148.775 320.075 148.937 320.341 148.868 320.6C148.373 322.527 147.779 324.453 147.092 326.334C147.022 326.532 146.829 326.661 146.628 326.661L146.636 326.654ZM25.3712 319.725C25.1473 319.725 24.9388 319.572 24.8848 319.344C24.4293 317.41 24.0664 315.43 23.8039 313.45C23.7653 313.183 23.9583 312.94 24.2285 312.902C24.4988 312.871 24.7535 313.054 24.7844 313.321C25.0469 315.27 25.4098 317.219 25.8499 319.123C25.9117 319.389 25.7418 319.648 25.4793 319.709C25.4407 319.717 25.4021 319.725 25.3712 319.725ZM149.601 315.14C149.601 315.14 149.547 315.14 149.524 315.14C149.254 315.102 149.068 314.851 149.107 314.585C149.408 312.651 149.616 310.678 149.732 308.721C149.748 308.455 149.987 308.249 150.257 308.264C150.527 308.28 150.744 308.508 150.721 308.782C150.605 310.77 150.389 312.772 150.087 314.745C150.049 314.988 149.84 315.156 149.601 315.156V315.14ZM23.7807 307.952C23.5182 307.952 23.2943 307.747 23.2866 307.48C23.2557 306.665 23.2402 305.835 23.2402 305.021C23.2402 303.848 23.2711 302.652 23.3406 301.487C23.3561 301.221 23.5954 301.008 23.8656 301.03C24.1359 301.046 24.3521 301.274 24.3366 301.548C24.2671 302.698 24.2362 303.871 24.2362 305.028C24.2362 305.828 24.2517 306.643 24.2826 307.45C24.2903 307.716 24.0818 307.945 23.8039 307.96C23.8039 307.96 23.7884 307.96 23.7807 307.96V307.952ZM150.288 303.284C150.026 303.284 149.802 303.079 149.794 302.812C149.717 300.855 149.547 298.883 149.284 296.934L149.269 296.82C149.23 296.553 149.423 296.309 149.694 296.271C149.964 296.233 150.211 296.424 150.25 296.69L150.265 296.797C150.528 298.777 150.705 300.779 150.782 302.767C150.79 303.033 150.582 303.262 150.304 303.277C150.304 303.277 150.288 303.277 150.28 303.277L150.288 303.284ZM24.4601 296.096C24.4601 296.096 24.4061 296.096 24.3829 296.096C24.1127 296.058 23.9274 295.807 23.966 295.54C24.2748 293.576 24.6763 291.596 25.1705 289.669C25.24 289.41 25.5102 289.251 25.7727 289.311C26.0352 289.38 26.1974 289.647 26.1356 289.905C25.6492 291.801 25.2477 293.751 24.9466 295.685C24.908 295.929 24.6995 296.104 24.4601 296.104V296.096ZM148.682 291.406C148.458 291.406 148.25 291.253 148.196 291.025C147.748 289.114 147.2 287.202 146.574 285.352C146.489 285.093 146.628 284.819 146.891 284.735C147.153 284.651 147.431 284.788 147.516 285.047C148.157 286.928 148.705 288.87 149.169 290.812C149.23 291.078 149.061 291.337 148.798 291.398C148.759 291.406 148.721 291.413 148.682 291.413V291.406ZM27.4095 284.583C27.3555 284.583 27.3014 284.575 27.2397 284.552C26.9849 284.461 26.8459 284.179 26.9386 283.928C27.618 282.055 28.3978 280.189 29.2548 278.384C29.3707 278.141 29.6641 278.034 29.9111 278.148C30.1582 278.263 30.2663 278.552 30.1505 278.796C29.3089 280.57 28.5445 282.405 27.8728 284.248C27.8033 284.446 27.6103 284.575 27.4018 284.575L27.4095 284.583ZM144.868 280.143C144.675 280.143 144.497 280.037 144.413 279.854C143.602 278.065 142.698 276.29 141.726 274.585C141.594 274.349 141.672 274.052 141.911 273.915C142.15 273.785 142.451 273.861 142.59 274.097C143.579 275.826 144.497 277.631 145.324 279.45C145.432 279.694 145.324 279.984 145.069 280.098C145.007 280.128 144.938 280.143 144.868 280.143ZM32.5208 273.823C32.4359 273.823 32.3509 273.8 32.266 273.755C32.0267 273.618 31.9494 273.321 32.0884 273.085C33.1153 271.371 34.2348 269.681 35.4161 268.074C35.5783 267.853 35.8871 267.808 36.111 267.968C36.3349 268.127 36.3813 268.432 36.2191 268.653C35.0533 270.237 33.9492 271.897 32.9377 273.587C32.8451 273.739 32.6829 273.831 32.5131 273.831L32.5208 273.823ZM138.954 269.803C138.799 269.803 138.645 269.727 138.545 269.597C137.41 267.99 136.182 266.422 134.893 264.929C134.715 264.724 134.738 264.411 134.947 264.236C135.155 264.061 135.464 264.084 135.649 264.29C136.954 265.805 138.205 267.404 139.363 269.034C139.517 269.254 139.463 269.559 139.239 269.711C139.155 269.772 139.054 269.803 138.954 269.803ZM39.5932 264.214C39.4774 264.214 39.3615 264.175 39.2689 264.092C39.0604 263.917 39.045 263.604 39.2226 263.399C40.5583 261.906 41.9789 260.459 43.4459 259.096C43.6467 258.914 43.9632 258.921 44.1485 259.119C44.3338 259.317 44.3261 259.629 44.1254 259.812C42.6738 261.152 41.2763 262.576 39.9638 264.046C39.8634 264.153 39.7321 264.214 39.5932 264.214ZM131.156 260.756C131.032 260.756 130.909 260.711 130.808 260.619C129.388 259.256 127.874 257.939 126.33 256.713C126.114 256.546 126.083 256.233 126.253 256.028C126.423 255.815 126.739 255.784 126.948 255.952C128.523 257.2 130.052 258.533 131.495 259.919C131.688 260.109 131.696 260.414 131.503 260.612C131.403 260.711 131.279 260.756 131.148 260.756H131.156ZM48.3719 256.081C48.2252 256.081 48.0785 256.013 47.9781 255.891C47.8082 255.677 47.8468 255.373 48.063 255.205C49.6613 253.987 51.3367 252.83 53.0353 251.771C53.2669 251.626 53.5758 251.695 53.7225 251.923C53.8692 252.152 53.7997 252.456 53.5681 252.601C51.8926 253.644 50.2403 254.787 48.673 255.982C48.5803 256.051 48.4722 256.081 48.3719 256.081ZM121.767 253.317C121.674 253.317 121.582 253.294 121.497 253.233C119.837 252.152 118.107 251.147 116.355 250.225C116.115 250.096 116.023 249.807 116.146 249.563C116.277 249.327 116.571 249.235 116.818 249.357C118.601 250.286 120.362 251.314 122.045 252.411C122.277 252.555 122.338 252.86 122.184 253.088C122.091 253.233 121.929 253.309 121.767 253.309V253.317ZM58.5558 249.738C58.3705 249.738 58.2006 249.639 58.1157 249.472C57.9921 249.228 58.0925 248.938 58.3319 248.817C60.1386 247.918 61.9993 247.096 63.8832 246.38C64.138 246.281 64.4237 246.403 64.5241 246.662C64.6244 246.913 64.4932 247.195 64.2384 247.294C62.3931 248.002 60.5555 248.809 58.7797 249.692C58.7102 249.73 58.633 249.746 58.5558 249.746V249.738ZM111.128 247.758C111.066 247.758 110.996 247.743 110.935 247.72C109.097 246.974 107.205 246.304 105.306 245.733C105.043 245.657 104.897 245.382 104.974 245.124C105.051 244.865 105.329 244.72 105.592 244.796C107.522 245.375 109.444 246.06 111.313 246.814C111.568 246.921 111.683 247.202 111.583 247.454C111.506 247.644 111.321 247.758 111.128 247.758ZM69.7743 245.428C69.5581 245.428 69.3573 245.291 69.2956 245.07C69.2184 244.811 69.3728 244.537 69.6353 244.469C71.5733 243.928 73.5575 243.471 75.5495 243.113C75.8198 243.06 76.0746 243.243 76.1286 243.509C76.1749 243.776 75.9974 244.027 75.7271 244.08C73.766 244.431 71.8049 244.88 69.9055 245.413C69.8592 245.428 69.8129 245.428 69.7666 245.428H69.7743ZM99.6157 244.294C99.6157 244.294 99.5462 244.294 99.5153 244.286C97.5696 243.898 95.5776 243.593 93.6011 243.395C93.3308 243.365 93.1301 243.128 93.161 242.854C93.1919 242.588 93.4312 242.382 93.7092 242.42C95.7166 242.626 97.7318 242.93 99.7161 243.326C99.9863 243.38 100.156 243.639 100.102 243.905C100.056 244.134 99.8473 244.301 99.6157 244.301V244.294ZM81.6182 243.296C81.3634 243.296 81.1472 243.106 81.1241 242.847C81.1009 242.58 81.3016 242.337 81.5719 242.314C83.4172 242.154 85.2779 242.078 87.1232 242.078H87.6405C87.9107 242.078 88.1347 242.306 88.1347 242.573C88.1347 242.839 87.9107 243.06 87.6405 243.06H87.1232C85.3088 243.06 83.4712 243.136 81.6568 243.296C81.6413 243.296 81.6259 243.296 81.6105 243.296H81.6182Z" fill="#2B59C5"/>
</g>
<defs>
<clipPath id="clip0_81_40735">
<rect width="664" height="664" fill="white" transform="translate(0 -34)"/>
</clipPath>
</defs>
</svg>
