<svg width="24" height="25" viewBox="0 0 24 25" fill="none" xmlns="http://www.w3.org/2000/svg">
<g id="account_tree">
<mask id="mask0_2207_14614" style="mask-type:alpha" maskUnits="userSpaceOnUse" x="0" y="0" width="24" height="25">
<rect id="Bounding box" y="0.5" width="24" height="24" fill="#D9D9D9"/>
</mask>
<g mask="url(#mask0_2207_14614)">
<path id="account_tree_2" d="M17 21.5C16.45 21.5 15.9792 21.3042 15.5875 20.9125C15.1958 20.5208 15 20.05 15 19.5V18.5H13C12.45 18.5 11.9792 18.3042 11.5875 17.9125C11.1958 17.5208 11 17.05 11 16.5V8.5H9V9.5C9 10.05 8.80417 10.5208 8.4125 10.9125C8.02083 11.3042 7.55 11.5 7 11.5H4C3.45 11.5 2.97917 11.3042 2.5875 10.9125C2.19583 10.5208 2 10.05 2 9.5V5.5C2 4.95 2.19583 4.47917 2.5875 4.0875C2.97917 3.69583 3.45 3.5 4 3.5H7C7.55 3.5 8.02083 3.69583 8.4125 4.0875C8.80417 4.47917 9 4.95 9 5.5V6.5H15V5.5C15 4.95 15.1958 4.47917 15.5875 4.0875C15.9792 3.69583 16.45 3.5 17 3.5H20C20.55 3.5 21.0208 3.69583 21.4125 4.0875C21.8042 4.47917 22 4.95 22 5.5V9.5C22 10.05 21.8042 10.5208 21.4125 10.9125C21.0208 11.3042 20.55 11.5 20 11.5H17C16.45 11.5 15.9792 11.3042 15.5875 10.9125C15.1958 10.5208 15 10.05 15 9.5V8.5H13V16.5H15V15.5C15 14.95 15.1958 14.4792 15.5875 14.0875C15.9792 13.6958 16.45 13.5 17 13.5H20C20.55 13.5 21.0208 13.6958 21.4125 14.0875C21.8042 14.4792 22 14.95 22 15.5V19.5C22 20.05 21.8042 20.5208 21.4125 20.9125C21.0208 21.3042 20.55 21.5 20 21.5H17ZM17 9.5H20V5.5H17V9.5ZM17 19.5H20V15.5H17V19.5ZM4 9.5H7V5.5H4V9.5Z" fill="#111AE8"/>
</g>
</g>
</svg>
