<svg width="18" height="18" viewBox="0 0 18 18" fill="none" xmlns="http://www.w3.org/2000/svg">
<path d="M16.1999 8.19998H9.80002V1.79995C9.80002 1.35845 9.44158 1 8.99993 1C8.55842 1 8.19998 1.35845 8.19998 1.79995V8.19998H1.79995C1.35845 8.19998 1 8.55842 1 8.99993C1 9.44158 1.35845 9.80002 1.79995 9.80002H8.19998V16.1999C8.19998 16.6416 8.55842 17 8.99993 17C9.44158 17 9.80002 16.6416 9.80002 16.1999V9.80002H16.1999C16.6416 9.80002 17 9.44158 17 8.99993C17 8.55842 16.6416 8.19998 16.1999 8.19998Z" fill="white"/>
</svg>
