<svg width="24" height="24" viewBox="0 0 24 24" fill="none" xmlns="http://www.w3.org/2000/svg">
<path d="M2.9091 12.8642L18.8965 12.8642L14.0847 17.4956C13.9978 17.5763 13.9286 17.6729 13.8809 17.7796C13.8333 17.8864 13.8082 18.0012 13.8072 18.1174C13.8061 18.2336 13.8291 18.3488 13.8748 18.4563C13.9205 18.5639 13.988 18.6616 14.0734 18.7437C14.1588 18.8259 14.2603 18.8908 14.372 18.9348C14.4837 18.9788 14.6034 19.001 14.7241 19C14.8448 18.999 14.9641 18.9748 15.075 18.929C15.186 18.8831 15.2863 18.8164 15.3701 18.7329L21.7338 12.6079C21.9043 12.4438 22 12.2213 22 11.9892C22 11.7572 21.9043 11.5347 21.7338 11.3706L15.3701 5.24562C15.1987 5.08623 14.969 4.99804 14.7307 5.00003C14.4923 5.00203 14.2643 5.09405 14.0957 5.25628C13.9272 5.41851 13.8316 5.63797 13.8295 5.8674C13.8274 6.09682 13.9191 6.31785 14.0847 6.48287L18.8965 11.1142L2.9091 11.1142C2.66799 11.1142 2.43676 11.2064 2.26627 11.3705C2.09578 11.5346 2 11.7572 2 11.9892C2 12.2213 2.09578 12.4439 2.26627 12.608C2.43676 12.7721 2.66799 12.8642 2.9091 12.8642Z" fill="white"/>
</svg>
