
<svg width="24" height="24" viewBox="0 0 24 24" fill="none" xmlns="http://www.w3.org/2000/svg">
<mask id="mask0_3779_23725" style="mask-type:alpha" maskUnits="userSpaceOnUse" x="0" y="0" width="24" height="24">
<rect width="24" height="24" fill="#D9D9D9"/>
</mask>
<g mask="url(#mask0_3779_23725)">
<path d="M8.19922 14.0008C8.04922 14.0008 7.92839 13.9508 7.83672 13.8508C7.74505 13.7508 7.69922 13.6341 7.69922 13.5008C7.69922 13.4674 7.74922 13.3508 7.84922 13.1508L11.4742 9.52578C11.5576 9.44245 11.6409 9.38411 11.7242 9.35078C11.8076 9.31745 11.8992 9.30078 11.9992 9.30078C12.0992 9.30078 12.1909 9.31745 12.2742 9.35078C12.3576 9.38411 12.4409 9.44245 12.5242 9.52578L16.1492 13.1508C16.1992 13.2008 16.2367 13.2549 16.2617 13.3133C16.2867 13.3716 16.2992 13.4341 16.2992 13.5008C16.2992 13.6341 16.2534 13.7508 16.1617 13.8508C16.0701 13.9508 15.9492 14.0008 15.7992 14.0008H8.19922Z" fill="#464646"/>
</g>
</svg>
