<svg xmlns="http://www.w3.org/2000/svg" width="25" height="24" viewBox="0 0 25 24" fill="none">
  <mask id="mask0_4588_26104" style="mask-type:alpha" maskUnits="userSpaceOnUse" x="0" y="0" width="25" height="24">
    <rect x="0.5" y="24" width="24" height="24" transform="rotate(-90 0.5 24)" fill="#D9D9D9"/>
  </mask>
  <g mask="url(#mask0_4588_26104)">
    <path d="M15.4504 12.0002C15.4504 12.1335 15.4296 12.2585 15.3879 12.3752C15.3462 12.4919 15.2754 12.6002 15.1754 12.7002L10.5754 17.3002C10.3921 17.4835 10.1587 17.5752 9.87539 17.5752C9.59206 17.5752 9.35872 17.4835 9.17539 17.3002C8.99206 17.1169 8.90039 16.8835 8.90039 16.6002C8.90039 16.3169 8.99206 16.0835 9.17539 15.9002L13.0754 12.0002L9.17539 8.10019C8.99206 7.91686 8.90039 7.68353 8.90039 7.4002C8.90039 7.11686 8.99206 6.88353 9.17539 6.7002C9.35872 6.51686 9.59206 6.42519 9.87539 6.42519C10.1587 6.42519 10.3921 6.51686 10.5754 6.7002L15.1754 11.3002C15.2754 11.4002 15.3462 11.5085 15.3879 11.6252C15.4296 11.7419 15.4504 11.8669 15.4504 12.0002Z" fill="#464646"/>
  </g>
</svg>