<svg width="25" height="24" viewBox="0 0 25 24" fill="none" xmlns="http://www.w3.org/2000/svg">
<mask id="mask0_4415_21509" style="mask-type:alpha" maskUnits="userSpaceOnUse" x="0" y="0" width="25" height="24">
<rect x="0.5" width="24" height="24" fill="#D9D9D9"/>
</mask>
<g mask="url(#mask0_4415_21509)">
<path d="M12.5 14.9504C12.3667 14.9504 12.2417 14.9296 12.125 14.8879C12.0084 14.8462 11.9 14.7754 11.8 14.6754L7.20005 10.0754C7.01672 9.89206 6.92505 9.65872 6.92505 9.37539C6.92505 9.09206 7.01672 8.85872 7.20005 8.67539C7.38338 8.49206 7.61672 8.40039 7.90005 8.40039C8.18338 8.40039 8.41672 8.49206 8.60005 8.67539L12.5 12.5754L16.4 8.67539C16.5834 8.49206 16.8167 8.40039 17.1 8.40039C17.3834 8.40039 17.6167 8.49206 17.8 8.67539C17.9834 8.85872 18.075 9.09206 18.075 9.37539C18.075 9.65872 17.9834 9.89206 17.8 10.0754L13.2 14.6754C13.1 14.7754 12.9917 14.8462 12.875 14.8879C12.7584 14.9296 12.6334 14.9504 12.5 14.9504Z" fill="#464646"/>
</g>
</svg>
