
<svg width="24" height="24" viewBox="0 0 24 24" fill="none" xmlns="http://www.w3.org/2000/svg">
<g clip-path="url(#clip0_4072_16498)">
<path d="M11.9998 24C18.6165 24 23.9996 18.6168 23.9996 11.9999C23.9996 5.38325 18.6165 0 11.9998 0C5.38314 0 0 5.38325 0 11.9999C0 18.6168 5.38314 24 11.9998 24ZM11.9998 1.6427C17.7107 1.6427 22.3569 6.28892 22.357 11.9999C22.357 17.711 17.7109 22.3572 11.9998 22.3573C6.28892 22.3572 1.64281 17.711 1.64281 11.9998C1.64281 6.28903 6.28892 1.6427 11.9998 1.6427Z" fill="#2B59C5"/>
<path d="M10.3873 17.1405C10.7081 17.4612 11.2282 17.4611 11.5488 17.1405C11.8697 16.8197 11.8697 16.2997 11.5487 15.9788L8.39253 12.8227L17.5322 12.8219C17.9858 12.8218 18.3534 12.4541 18.3534 12.0003C18.3533 11.5467 17.9857 11.1792 17.5321 11.1792L8.39209 11.18L11.549 8.0233C11.8698 7.70254 11.8698 7.18235 11.549 6.86169C11.3886 6.70137 11.1784 6.62109 10.9682 6.62109C10.758 6.62109 10.5479 6.70137 10.3874 6.86159L5.82849 11.4204C5.67441 11.5744 5.58789 11.7832 5.58789 12.0012C5.588 12.2191 5.67452 12.4278 5.8286 12.5821L10.3873 17.1405Z" fill="#2B59C5"/>
</g>
<defs>
<clipPath id="clip0_4072_16498">
<rect width="24" height="24" fill="white"/>
</clipPath>
</defs>
</svg>
