<svg width="28" height="28" viewBox="0 0 28 28" fill="none" xmlns="http://www.w3.org/2000/svg">
<g id="Group">
<path id="Vector" d="M13.9998 28C21.7193 28 27.9995 21.7195 27.9995 13.9999C27.9995 6.28046 21.7193 0 13.9998 0C6.28033 0 0 6.28046 0 13.9999C0 21.7195 6.28033 28 13.9998 28ZM13.9998 1.91649C20.6625 1.91649 26.083 7.33708 26.0831 13.9999C26.0831 20.6628 20.6627 26.0834 13.9998 26.0835C7.33708 26.0834 1.91661 20.6628 1.91661 13.9998C1.91661 7.33721 7.33708 1.91649 13.9998 1.91649Z" fill="#040A2F"/>
<path id="Vector_2" d="M12.1198 19.9963C12.4941 20.3704 13.1008 20.3703 13.4749 19.9963C13.8493 19.622 13.8493 19.0153 13.4748 18.641L9.79259 14.9589L20.4555 14.9579C20.9847 14.9577 21.4137 14.5288 21.4137 13.9994C21.4135 13.4702 20.9846 13.0414 20.4554 13.0414L9.79208 13.0424L13.4752 9.35955C13.8494 8.98532 13.8494 8.37843 13.4752 8.00433C13.288 7.81728 13.0428 7.72363 12.7975 7.72363C12.5523 7.72363 12.3071 7.81729 12.12 8.00421L6.80121 13.3228C6.62144 13.5025 6.52051 13.7461 6.52051 14.0004C6.52064 14.2546 6.62157 14.4982 6.80134 14.6782L12.1198 19.9963Z" fill="#040A2F"/>
</g>
</svg>
