<svg width="17" height="18" viewBox="0 0 17 18" fill="none" xmlns="http://www.w3.org/2000/svg">
<mask id="mask0_4415_17790" style="mask-type:alpha" maskUnits="userSpaceOnUse" x="0" y="0" width="17" height="18">
<rect y="0.5" width="17" height="17" fill="#D9D9D9"/>
</mask>
<g mask="url(#mask0_4415_17790)">
<path d="M7.45513 14.8972C7.34888 14.8618 7.26034 14.7998 7.1895 14.7113C7.11867 14.6227 7.08325 14.5135 7.08325 14.3837L7.08325 10.417H6.37492C5.98534 10.417 5.65183 10.2783 5.3744 10.0008C5.09697 9.72342 4.95825 9.38991 4.95825 9.00033L4.95825 3.33366C4.95825 2.94408 5.09697 2.61057 5.3744 2.33314C5.65183 2.05571 5.98534 1.91699 6.37492 1.91699L10.5187 1.91699C10.8964 1.91699 11.2004 2.06456 11.4306 2.3597C11.6609 2.65484 11.7287 2.97949 11.6343 3.33366L10.6249 6.87533H11.4218C11.8468 6.87533 12.1626 7.06421 12.3692 7.44199C12.5758 7.81977 12.5551 8.18574 12.3072 8.53991L8.05721 14.6847C7.98638 14.791 7.89488 14.8618 7.78273 14.8972C7.67058 14.9326 7.56138 14.9326 7.45513 14.8972Z" fill="#666666"/>
</g>
</svg>
