<svg width="18" height="18" viewBox="0 0 18 18" fill="none" xmlns="http://www.w3.org/2000/svg">
<g id="bolt">
<mask id="mask0_632_7545" style="mask-type:alpha" maskUnits="userSpaceOnUse" x="0" y="0" width="18" height="18">
<rect id="Bounding box" width="18" height="18" fill="#D9D9D9"/>
</mask>
<g mask="url(#mask0_632_7545)">
<path id="bolt_2" d="M7.91248 13.65L11.7937 9H8.79373L9.33748 4.74375L5.86873 9.75H8.47498L7.91248 13.65ZM6.74998 11.25H4.42498C4.12498 11.25 3.9031 11.1156 3.75935 10.8469C3.6156 10.5781 3.63123 10.3188 3.80623 10.0688L9.41248 2.00625C9.53748 1.83125 9.69998 1.70938 9.89998 1.64063C10.1 1.57188 10.3062 1.575 10.5187 1.65C10.7312 1.725 10.8875 1.85625 10.9875 2.04375C11.0875 2.23125 11.125 2.43125 11.1 2.64375L10.5 7.5H13.4062C13.7312 7.5 13.9594 7.64375 14.0906 7.93125C14.2219 8.21875 14.1812 8.4875 13.9687 8.7375L7.79998 16.125C7.66248 16.2875 7.49373 16.3938 7.29373 16.4438C7.09373 16.4938 6.89998 16.475 6.71248 16.3875C6.52498 16.3 6.3781 16.1656 6.27185 15.9844C6.1656 15.8031 6.12498 15.6063 6.14998 15.3938L6.74998 11.25Z" fill="#2D2E34"/>
</g>
</g>
</svg>
