<svg width="17" height="17" viewBox="0 0 17 17" fill="none" xmlns="http://www.w3.org/2000/svg">
<g id="bolt">
<mask id="mask0_1264_6258" style="mask-type:alpha" maskUnits="userSpaceOnUse" x="0" y="0" width="17" height="17">
<rect id="Bounding box" width="17" height="17" fill="#D9D9D9"/>
</mask>
<g mask="url(#mask0_1264_6258)">
<path id="bolt_2" d="M6.37506 10.625H4.17923C3.89589 10.625 3.68634 10.4981 3.55058 10.2443C3.41482 9.99048 3.42957 9.74552 3.59485 9.50941L8.88964 1.89482C9.0077 1.72955 9.16117 1.61444 9.35006 1.54951C9.53895 1.48458 9.73374 1.48753 9.93444 1.55836C10.1351 1.6292 10.2827 1.75316 10.3771 1.93024C10.4716 2.10732 10.507 2.29621 10.4834 2.49691L9.91673 7.08336H12.6615C12.9685 7.08336 13.1839 7.21913 13.3079 7.49066C13.4318 7.76218 13.3935 8.016 13.1928 8.25211L7.36673 15.2292C7.23687 15.3827 7.07749 15.483 6.8886 15.5302C6.69971 15.5775 6.51673 15.5598 6.33964 15.4771C6.16256 15.3945 6.02384 15.2676 5.9235 15.0964C5.82315 14.9252 5.78478 14.7393 5.80839 14.5386L6.37506 10.625Z" fill="#666666"/>
</g>
</g>
</svg>
