<svg width="48" height="48" viewBox="0 0 48 48" fill="none" xmlns="http://www.w3.org/2000/svg">
<g id="bolt">
<mask id="mask0_868_5237" style="mask-type:alpha" maskUnits="userSpaceOnUse" x="0" y="0" width="48" height="48">
<rect id="Bounding box" width="48" height="48" fill="#D9D9D9"/>
</mask>
<g mask="url(#mask0_868_5237)">
<path id="bolt_2" d="M21.1 36.3999L31.45 23.9999H23.45L24.9 12.6499L15.65 25.9999H22.6L21.1 36.3999ZM20.3077 27.9999H14.3385C13.7949 27.9999 13.4019 27.7634 13.1596 27.2903C12.9173 26.8172 12.9526 26.3627 13.2654 25.9268L24.5231 9.6191C24.7282 9.33193 24.9821 9.14155 25.2846 9.04795C25.5872 8.95435 25.9064 8.9691 26.2423 9.0922C26.5782 9.21527 26.8218 9.41783 26.9731 9.6999C27.1244 9.98193 27.1795 10.2909 27.1385 10.6268L25.7308 21.9999H32.9039C33.4629 21.9999 33.8597 22.255 34.0943 22.7652C34.3289 23.2755 34.2654 23.7486 33.9039 24.1845L21.3769 39.1922C21.1641 39.4461 20.9064 39.6076 20.6039 39.6768C20.3013 39.7461 20.0026 39.7153 19.7077 39.5845C19.4128 39.4538 19.1878 39.2557 19.0327 38.9903C18.8776 38.7249 18.8205 38.4243 18.8615 38.0884L20.3077 27.9999Z" fill="#FFC331"/>
</g>
</g>
</svg>
