<svg xmlns="http://www.w3.org/2000/svg" width="24" height="24" viewBox="0 0 24 24" fill="none">
  <mask id="mask0_1241_6978" style="mask-type:alpha" maskUnits="userSpaceOnUse" x="0" y="0" width="24" height="24">
    <rect width="24" height="24" fill="#D9D9D9"/>
  </mask>
  <g mask="url(#mask0_1241_6978)">
    <path d="M7.55768 21.5C6.71318 21.5 5.99244 21.2015 5.39548 20.6045C4.79849 20.0075 4.5 19.2868 4.5 18.4423V5.75C4.5 4.84743 4.81602 4.08013 5.44807 3.44808C6.08012 2.81603 6.84743 2.5 7.75 2.5H17.6922C18.1894 2.5 18.6149 2.67701 18.9689 3.03103C19.3229 3.38503 19.5 3.81058 19.5 4.3077V16.4481C19.5 16.5667 19.4538 16.6743 19.3615 16.7707C19.2692 16.8671 19.1198 16.9596 18.9134 17.048C18.6224 17.1519 18.3878 17.3286 18.2095 17.5782C18.0313 17.8278 17.9422 18.1159 17.9422 18.4423C17.9422 18.7628 18.0297 19.0503 18.2047 19.3048C18.3797 19.5593 18.6128 19.7365 18.9038 19.8365C19.0922 19.9109 19.2387 20.0152 19.3432 20.1494C19.4477 20.2836 19.5 20.4274 19.5 20.5807V20.7346C19.5 20.9461 19.4281 21.1266 19.2843 21.2759C19.1406 21.4253 18.9625 21.5 18.75 21.5H7.55768ZM8.94262 15.3846C9.15521 15.3846 9.33329 15.3128 9.47687 15.169C9.62046 15.0253 9.69225 14.8471 9.69225 14.6346V4.74995C9.69225 4.53747 9.62035 4.35935 9.47655 4.2156C9.33273 4.07185 9.15453 3.99998 8.94195 3.99998C8.72935 3.99998 8.55126 4.07185 8.40768 4.2156C8.26409 4.35935 8.1923 4.53747 8.1923 4.74995V14.6346C8.1923 14.8471 8.26421 15.0253 8.40802 15.169C8.55182 15.3128 8.73002 15.3846 8.94262 15.3846ZM7.55768 20H16.9019C16.757 19.7731 16.6442 19.5317 16.5634 19.2759C16.4827 19.0201 16.4423 18.7422 16.4423 18.4423C16.4423 18.1564 16.4801 17.882 16.5558 17.6192C16.6314 17.3564 16.7468 17.1115 16.9019 16.8846H7.55768C7.11153 16.8846 6.74037 17.036 6.4442 17.3389C6.14805 17.6418 5.99997 18.0096 5.99997 18.4423C5.99997 18.8884 6.14805 19.2596 6.4442 19.5558C6.74037 19.8519 7.11153 20 7.55768 20Z" fill="white"/>
  </g>
</svg>