
<svg width="148" height="24" viewBox="0 0 148 24" fill="none" xmlns="http://www.w3.org/2000/svg">
<g clip-path="url(#clip0_81_40764)">
<path d="M114.656 0.0805664C113.968 0.0805664 113.385 0.595095 113.29 1.28984L112.66 5.84224C111.789 5.59673 110.818 5.46875 109.739 5.46875C107.824 5.46875 106.131 5.8553 104.661 6.63101C103.192 7.40672 101.997 8.48801 101.077 9.8775C100.982 10.0238 100.889 10.1726 100.802 10.3215C100.743 9.88795 100.643 9.47528 100.499 9.08612C100.129 8.07534 99.5224 7.27874 98.6796 6.69892C97.8369 6.11909 96.7911 5.82918 95.5423 5.82918C94.2936 5.82918 93.0705 6.15305 92.0145 6.79816C90.9559 7.44328 90.1568 8.33652 89.6172 9.47267H89.4322L89.9024 6.06163H85.1001C84.4012 6.06163 83.8077 6.58399 83.7126 7.28919L83.1602 11.2853C83.1345 11.1416 83.1088 11.0006 83.078 10.8622C82.821 9.72601 82.3662 8.75703 81.711 7.96042C81.0558 7.16121 80.2156 6.55265 79.1955 6.13215C78.1755 5.71165 76.9961 5.5027 75.6626 5.5027C73.8383 5.5027 72.2041 5.88925 70.7575 6.65974C69.3109 7.43022 68.1238 8.5089 67.1962 9.89578C66.2687 11.2827 65.6777 12.902 65.4208 14.7538C65.1535 16.6839 65.2897 18.3424 65.8319 19.7241C66.3714 21.1057 67.2708 22.1661 68.5298 22.9C69.7888 23.6366 71.3587 24.0048 73.2421 24.0048C74.8737 24.0048 76.3357 23.7541 77.6256 23.2526C78.9155 22.7512 79.9972 22.0434 80.8657 21.1266C81.3153 20.6513 81.6982 20.1315 82.0142 19.57L81.4001 24.0048H87.7415L89.1367 13.9154C89.2267 13.3225 89.404 12.8158 89.6686 12.3901C89.9333 11.967 90.275 11.6379 90.6938 11.408C91.1126 11.1782 91.5828 11.0633 92.1019 11.0633C92.8984 11.0633 93.4868 11.3166 93.8645 11.8233C94.2422 12.33 94.3655 13.0274 94.2371 13.9128L92.8419 24.0022H99.1833L99.7819 19.677C100.322 21.0091 101.2 22.0564 102.421 22.8086C103.677 23.5843 105.263 23.9709 107.177 23.9709C108.256 23.9709 109.263 23.8429 110.201 23.5974L110.145 24.0022H116.486L117.19 18.9144L118.133 12.0897L119.798 0.0805664H114.656ZM72.5561 11.28C72.867 10.8909 73.2524 10.5853 73.7124 10.3633C74.1723 10.1413 74.6579 10.0316 75.1718 10.0316C75.6857 10.0316 76.1585 10.1413 76.5439 10.3633C76.9319 10.5853 77.2222 10.8935 77.4149 11.2853C77.6102 11.6797 77.6744 12.1315 77.6128 12.646H71.96C72.0473 12.1237 72.2452 11.6692 72.5561 11.28ZM76.9344 17.8775C76.7649 18.2118 76.5336 18.4991 76.2407 18.7368C75.9478 18.9745 75.6112 19.1547 75.2283 19.28C74.848 19.4054 74.4395 19.4681 74.0027 19.4681C73.3758 19.4681 72.8567 19.3401 72.4482 19.0815C72.0396 18.8256 71.7467 18.4704 71.572 18.0185C71.3973 17.5667 71.3485 17.0522 71.4281 16.4776L71.4667 16.1981H82.4767L82.2455 17.8801H76.9344V17.8775ZM109.351 18.6506C108.909 19.0163 108.42 19.1991 107.883 19.1991C107.316 19.1991 106.856 19.0163 106.501 18.6506C106.146 18.2849 105.907 17.7626 105.787 17.0861C105.666 16.4097 105.671 15.6026 105.8 14.6676C105.931 13.7247 106.149 12.9177 106.457 12.2438C106.766 11.57 107.146 11.0502 107.603 10.6845C108.061 10.3189 108.572 10.1361 109.137 10.1361C109.674 10.1361 110.111 10.3189 110.453 10.6845C110.792 11.0502 111.023 11.57 111.144 12.2438C111.265 12.9177 111.26 13.7247 111.131 14.6676C111.003 15.6026 110.784 16.407 110.476 17.0861C110.168 17.7626 109.792 18.2849 109.353 18.6506H109.351Z" fill="#122B6D"/>
<path d="M69.8735 5.4872H62.751L57.129 12.0899H56.9003L58.3341 1.71835C58.4523 0.856447 57.7945 0.0859605 56.9363 0.0859605H52.2163L50.9264 9.41538C50.3791 8.26356 49.5543 7.34682 48.452 6.66513C47.1956 5.88942 45.6102 5.50287 43.696 5.50287C41.7817 5.50287 40.0885 5.88942 38.6188 6.66513C37.2826 7.36771 36.1778 8.32886 35.2965 9.53813C34.7492 8.32886 33.909 7.36771 32.7681 6.66513C31.5117 5.88942 29.9263 5.50287 28.0121 5.50287C26.0978 5.50287 24.4046 5.88942 22.9349 6.66513C21.4651 7.44084 20.2703 8.52213 19.3505 9.91162C19.2914 10.0004 19.2374 10.0944 19.1809 10.1859C19.1501 10.0944 19.1218 10.0004 19.0858 9.91162C18.5514 8.52213 17.6547 7.44084 16.3982 6.66513C15.1417 5.88942 13.5564 5.50287 11.6422 5.50287C10.6555 5.50287 9.72792 5.60735 8.85688 5.81368L9.42472 1.70529C9.54292 0.846 8.88771 0.078125 8.03465 0.078125H3.30687L1.45174 13.5003C1.35667 13.9051 1.27701 14.323 1.21792 14.7513C1.15882 15.1823 1.12285 15.5976 1.10743 16.0024L0 23.9945H6.34139L6.3825 23.689C7.19444 23.8953 8.09375 23.9998 9.08042 23.9998C10.9947 23.9998 12.6879 23.6132 14.1576 22.8375C15.6274 22.0618 16.8222 20.9805 17.742 19.591C17.8011 19.5022 17.8551 19.4082 17.9116 19.3168C17.9424 19.4082 17.9707 19.5022 18.0067 19.591C18.5411 20.9805 19.4378 22.0618 20.6943 22.8375C21.9508 23.6132 23.5361 23.9998 25.4503 23.9998C27.3646 23.9998 29.0578 23.6132 30.5276 22.8375C31.8611 22.1349 32.9685 21.1738 33.8499 19.9645C34.3972 21.1738 35.2374 22.1349 36.3782 22.8375C37.6347 23.6132 39.22 23.9998 41.1342 23.9998C43.0485 23.9998 44.7417 23.6132 46.2115 22.8375C47.5013 22.1584 48.5805 21.2417 49.4464 20.0873L48.9068 23.9998H55.2482L55.9522 18.9119L57.0725 17.6792L59.7987 23.9998H67.0599L62.2679 13.9234L69.8709 5.4872H69.8735ZM13.0348 14.7043C12.9063 15.6393 12.6879 16.4438 12.3796 17.1229C12.0712 17.7993 11.6961 18.3217 11.2567 18.6873C10.8148 19.053 10.3266 19.2358 9.78958 19.2358C9.22174 19.2358 8.76181 19.053 8.40722 18.6873C8.05264 18.3217 7.81368 17.7993 7.69292 17.1229C7.57215 16.4464 7.57729 15.6393 7.70576 14.7043C7.83681 13.7614 8.05521 12.9544 8.36354 12.2805C8.67188 11.6067 9.05215 11.0869 9.50951 10.7213C9.96688 10.3556 10.4782 10.1728 11.0435 10.1728C11.5805 10.1728 12.0173 10.3556 12.359 10.7213C12.6982 11.0869 12.9294 11.6067 13.0502 12.2805C13.171 12.9544 13.1658 13.7614 13.0374 14.7043H13.0348ZM29.4073 14.7043C29.2788 15.6393 29.0604 16.4438 28.7521 17.1229C28.4438 17.7993 28.0686 18.3217 27.6292 18.6873C27.1873 19.053 26.6991 19.2358 26.1621 19.2358C25.5942 19.2358 25.1343 19.053 24.7797 18.6873C24.4251 18.3217 24.1862 17.7993 24.0654 17.1229C23.9447 16.4464 23.9498 15.6393 24.0783 14.7043C24.2093 13.7614 24.4277 12.9544 24.736 12.2805C25.0444 11.6067 25.4247 11.0869 25.882 10.7213C26.3394 10.3556 26.8507 10.1728 27.416 10.1728C27.953 10.1728 28.3898 10.3556 28.7315 10.7213C29.0707 11.0869 29.3019 11.6067 29.4227 12.2805C29.5435 12.9544 29.5383 13.7614 29.4099 14.7043H29.4073ZM45.0912 14.7043C44.9627 15.6393 44.7443 16.4438 44.436 17.1229C44.1276 17.7993 43.7525 18.3217 43.3131 18.6873C42.8712 19.053 42.383 19.2358 41.846 19.2358C41.2781 19.2358 40.8182 19.053 40.4636 18.6873C40.109 18.3217 39.8701 17.7993 39.7493 17.1229C39.6285 16.4464 39.6337 15.6393 39.7622 14.7043C39.8932 13.7614 40.1116 12.9544 40.4199 12.2805C40.7283 11.6067 41.1085 11.0869 41.5659 10.7213C42.0233 10.3556 42.5346 10.1728 43.0999 10.1728C43.6369 10.1728 44.0737 10.3556 44.4154 10.7213C44.7546 11.0869 44.9858 11.6067 45.1066 12.2805C45.2274 12.9544 45.2222 13.7614 45.0938 14.7043H45.0912Z" fill="#122B6D"/>
<path d="M146.62 23.9503C147.38 23.9503 148 23.3235 148 22.5478V0.300293H147.807C146.741 0.300293 145.877 1.17786 145.877 2.26177V19.2072L139.127 0.349918H138.786C137.627 0.349918 136.591 1.08645 136.193 2.19386L128.39 23.9973H129.253C130.07 23.9973 130.797 23.475 131.072 22.6914L133.11 16.8723H142.868L145.361 23.9973L146.617 23.9477L146.62 23.9503ZM133.788 14.9369L137.909 3.15762H138.069L142.19 14.9369H133.788Z" fill="#122B6D"/>
<path d="M129.117 0.0703125L121.052 22.5972C120.774 23.3703 119.931 23.9998 119.171 23.9998H118.426L126.491 1.47286C126.769 0.699761 127.612 0.0703125 128.372 0.0703125H129.117Z" fill="#92B2FC"/>
<path d="M132.252 0L124.187 22.5269C123.909 23.3 123.066 23.9295 122.306 23.9295H121.561L129.626 1.40255C129.904 0.629448 130.746 0 131.507 0L132.252 0Z" fill="#406FDD"/>
<path d="M135.286 0L127.221 22.5269C126.943 23.3 126.1 23.9295 125.34 23.9295H124.595L132.66 1.40255C132.938 0.629448 133.78 0 134.541 0L135.286 0Z" fill="#204097"/>
</g>
<defs>
<clipPath id="clip0_81_40764">
<rect width="148" height="24" fill="white"/>
</clipPath>
</defs>
</svg>
