<svg width="301" height="48" viewBox="0 0 301 48" fill="none" xmlns="http://www.w3.org/2000/svg">
<g clip-path="url(#clip0_1948_23404)">
<path d="M233.186 0.162109C231.786 0.162109 230.6 1.19117 230.406 2.58065L229.126 11.6855C227.354 11.1944 225.379 10.9385 223.184 10.9385C219.291 10.9385 215.847 11.7116 212.858 13.263C209.869 14.8144 207.439 16.977 205.569 19.756C205.375 20.0485 205.187 20.3462 205.009 20.644C204.889 19.7769 204.685 18.9515 204.393 18.1732C203.64 16.1517 202.407 14.5585 200.693 13.3988C198.979 12.2392 196.852 11.6593 194.312 11.6593C191.773 11.6593 189.285 12.3071 187.137 13.5973C184.985 14.8875 183.359 16.674 182.262 18.9463H181.886L182.842 12.1242H173.075C171.654 12.1242 170.447 13.169 170.253 14.5793L169.13 22.5715C169.077 22.2842 169.025 22.0021 168.963 21.7253C168.44 19.453 167.515 17.515 166.182 15.9218C164.85 14.3234 163.141 13.1063 161.067 12.2653C158.992 11.4243 156.593 11.0064 153.881 11.0064C150.171 11.0064 146.847 11.7795 143.905 13.3205C140.963 14.8614 138.549 17.0188 136.663 19.7925C134.776 22.5663 133.574 25.8049 133.052 29.5085C132.508 33.3688 132.785 36.6858 133.888 39.4491C134.985 42.2124 136.814 44.3332 139.375 45.801C141.935 47.2741 145.128 48.0106 148.959 48.0106C152.277 48.0106 155.25 47.5092 157.874 46.5062C160.497 45.5033 162.697 44.0877 164.463 42.2542C165.378 41.3035 166.156 40.264 166.799 39.1409L165.55 48.0106H178.447L181.285 27.8317C181.468 26.6459 181.828 25.6326 182.366 24.7811C182.905 23.9349 183.6 23.2767 184.451 22.817C185.303 22.3573 186.26 22.1275 187.315 22.1275C188.935 22.1275 190.132 22.6342 190.9 23.6476C191.668 24.661 191.919 26.0557 191.658 27.8265L188.82 48.0054H201.717L202.935 39.3551C204.032 42.0191 205.819 44.1138 208.302 45.6182C210.857 47.1696 214.081 47.9427 217.974 47.9427C220.169 47.9427 222.218 47.6868 224.125 47.1957L224.01 48.0054H236.907L238.339 37.8298L240.257 24.1804L243.643 0.162109H233.186ZM147.563 22.5611C148.196 21.7827 148.979 21.1716 149.915 20.7276C150.85 20.2836 151.838 20.0642 152.883 20.0642C153.928 20.0642 154.89 20.2836 155.674 20.7276C156.463 21.1716 157.053 21.788 157.445 22.5715C157.842 23.3603 157.973 24.264 157.847 25.293H146.351C146.529 24.2483 146.931 23.3394 147.563 22.5611ZM156.468 35.756C156.123 36.4246 155.653 36.9992 155.057 37.4745C154.461 37.9499 153.777 38.3103 152.998 38.5611C152.225 38.8118 151.394 38.9372 150.505 38.9372C149.23 38.9372 148.175 38.6812 147.344 38.1641C146.513 37.6522 145.917 36.9417 145.562 36.0381C145.207 35.1344 145.107 34.1053 145.269 32.9561L145.348 32.3972H167.74L167.269 35.7612H156.468V35.756ZM222.395 37.3022C221.496 38.0335 220.504 38.3991 219.411 38.3991C218.257 38.3991 217.321 38.0335 216.6 37.3022C215.879 36.5709 215.393 35.5261 215.147 34.1732C214.902 32.8203 214.912 31.2062 215.173 29.3361C215.44 27.4504 215.884 25.8363 216.511 24.4886C217.138 23.1409 217.912 22.1014 218.842 21.3701C219.772 20.6388 220.812 20.2731 221.962 20.2731C223.054 20.2731 223.942 20.6388 224.637 21.3701C225.327 22.1014 225.797 23.1409 226.043 24.4886C226.288 25.8363 226.278 27.4504 226.017 29.3361C225.755 31.2062 225.311 32.8151 224.684 34.1732C224.057 35.5261 223.294 36.5709 222.4 37.3022H222.395Z" fill="white"/>
<path d="M142.108 10.9744H127.622L116.188 24.1798H115.723L118.639 3.43669C118.879 1.71289 117.542 0.171921 115.796 0.171921H106.197L103.573 18.8308C102.46 16.5271 100.783 14.6936 98.5409 13.3303C95.9856 11.7788 92.7613 11.0057 88.8682 11.0057C84.975 11.0057 81.5313 11.7788 78.5422 13.3303C75.8248 14.7354 73.5778 16.6577 71.7854 19.0763C70.6723 16.6577 68.9635 14.7354 66.6433 13.3303C64.0879 11.7788 60.8637 11.0057 56.9705 11.0057C53.0774 11.0057 49.6336 11.7788 46.6445 13.3303C43.6554 14.8817 41.2255 17.0443 39.3547 19.8232C39.2345 20.0008 39.1248 20.1889 39.0098 20.3717C38.9471 20.1889 38.8896 20.0008 38.8165 19.8232C37.7295 17.0443 35.9057 14.8817 33.3504 13.3303C30.795 11.7788 27.5708 11.0057 23.6776 11.0057C21.671 11.0057 19.7845 11.2147 18.013 11.6274L19.1678 3.41058C19.4082 1.692 18.0757 0.15625 16.3407 0.15625H6.72547L2.95252 27.0005C2.75917 27.8102 2.59717 28.646 2.47698 29.5026C2.35679 30.3645 2.28363 31.1951 2.25227 32.0048L0 47.9891H12.897L12.9806 47.3779C14.6319 47.7906 16.4609 47.9995 18.4676 47.9995C22.3607 47.9995 25.8045 47.2264 28.7936 45.675C31.7827 44.1236 34.2126 41.961 36.0834 39.182C36.2036 39.0044 36.3133 38.8164 36.4283 38.6336C36.491 38.8164 36.5485 39.0044 36.6217 39.182C37.7086 41.961 39.5324 44.1236 42.0877 45.675C44.6431 47.2264 47.8674 47.9995 51.7605 47.9995C55.6536 47.9995 59.0974 47.2264 62.0865 45.675C64.7986 44.2699 67.0509 42.3476 68.8433 39.929C69.9564 42.3476 71.6652 44.2699 73.9854 45.675C76.5407 47.2264 79.765 47.9995 83.6581 47.9995C87.5513 47.9995 90.995 47.2264 93.9841 45.675C96.6074 44.3169 98.8022 42.4834 100.563 40.1745L99.4659 47.9995H112.363L113.795 37.8239L116.073 35.3583L121.618 47.9995H136.385L126.639 27.8467L142.102 10.9744H142.108ZM26.5099 29.4086C26.2487 31.2787 25.8045 32.8876 25.1774 34.2457C24.5503 35.5986 23.7874 36.6434 22.8938 37.3747C21.9949 38.106 21.0021 38.4716 19.9099 38.4716C18.755 38.4716 17.8196 38.106 17.0985 37.3747C16.3773 36.6434 15.8913 35.5986 15.6457 34.2457C15.4001 32.8928 15.4106 31.2787 15.6719 29.4086C15.9384 27.5229 16.3826 25.9088 17.0096 24.5611C17.6367 23.2134 18.4101 22.1739 19.3403 21.4426C20.2705 20.7113 21.3104 20.3456 22.46 20.3456C23.5522 20.3456 24.4406 20.7113 25.1356 21.4426C25.8254 22.1739 26.2957 23.2134 26.5413 24.5611C26.7869 25.9088 26.7765 27.5229 26.5152 29.4086H26.5099ZM59.8081 29.4086C59.5468 31.2787 59.1026 32.8876 58.4755 34.2457C57.8484 35.5986 57.0855 36.6434 56.1919 37.3747C55.2931 38.106 54.3002 38.4716 53.208 38.4716C52.0531 38.4716 51.1177 38.106 50.3966 37.3747C49.6754 36.6434 49.1895 35.5986 48.9439 34.2457C48.6982 32.8928 48.7087 31.2787 48.97 29.4086C49.2365 27.5229 49.6807 25.9088 50.3078 24.5611C50.9348 23.2134 51.7082 22.1739 52.6384 21.4426C53.5686 20.7113 54.6085 20.3456 55.7582 20.3456C56.8503 20.3456 57.7387 20.7113 58.4337 21.4426C59.1235 22.1739 59.5938 23.2134 59.8394 24.5611C60.085 25.9088 60.0746 27.5229 59.8133 29.4086H59.8081ZM91.7057 29.4086C91.4444 31.2787 91.0002 32.8876 90.3732 34.2457C89.7461 35.5986 88.9831 36.6434 88.0895 37.3747C87.1907 38.106 86.1978 38.4716 85.1057 38.4716C83.9508 38.4716 83.0154 38.106 82.2942 37.3747C81.5731 36.6434 81.0871 35.5986 80.8415 34.2457C80.5959 32.8928 80.6063 31.2787 80.8676 29.4086C81.1341 27.5229 81.5783 25.9088 82.2054 24.5611C82.8325 23.2134 83.6059 22.1739 84.5361 21.4426C85.4662 20.7113 86.5061 20.3456 87.6558 20.3456C88.748 20.3456 89.6363 20.7113 90.3314 21.4426C91.0211 22.1739 91.4915 23.2134 91.7371 24.5611C91.9827 25.9088 91.9722 27.5229 91.7109 29.4086H91.7057Z" fill="white"/>
<path d="M298.194 47.9016C299.741 47.9016 301 46.6479 301 45.0965V0.601562H300.608C298.44 0.601562 296.684 2.3567 296.684 4.52451V38.4155L282.956 0.700812H282.261C279.904 0.700812 277.798 2.17388 276.988 4.3887L261.118 47.9956H262.874C264.535 47.9956 266.014 46.9509 266.573 45.3838L270.717 33.7455H290.564L295.633 47.9956L298.189 47.8964L298.194 47.9016ZM272.097 29.8748L280.479 6.31622H280.803L289.185 29.8748H272.097Z" fill="white"/>
<path d="M262.596 0.140625L246.193 45.1945C245.628 46.7407 243.914 47.9996 242.367 47.9996H240.852L257.256 2.94572C257.82 1.39952 259.534 0.140625 261.081 0.140625H262.596Z" fill="#F5F9FF"/>
<path d="M268.972 0L252.568 45.0539C252.004 46.6001 250.29 47.859 248.743 47.859H247.228L263.631 2.80509C264.195 1.2589 265.909 0 267.456 0L268.972 0Z" fill="#92B2FC"/>
<path d="M275.143 0L258.74 45.0539C258.175 46.6001 256.461 47.859 254.914 47.859H253.399L269.802 2.80509C270.367 1.2589 272.081 0 273.628 0L275.143 0Z" fill="#204097"/>
</g>
<defs>
<clipPath id="clip0_1948_23404">
<rect width="301" height="48" fill="white"/>
</clipPath>
</defs>
</svg>
