
<svg width="16" height="16" viewBox="0 0 16 16" fill="none" xmlns="http://www.w3.org/2000/svg">
<g id="building_license">
<mask id="mask0_379_15060" style="mask-type:alpha" maskUnits="userSpaceOnUse" x="0" y="0" width="16" height="16">
<rect id="Bounding box" width="16" height="16" fill="#D9D9D9"/>
</mask>
<g mask="url(#mask0_379_15060)">
<path id="account_balance" d="M3.33301 10.6668V7.3335C3.33301 7.14461 3.3969 6.98627 3.52467 6.8585C3.65245 6.73072 3.81079 6.66683 3.99967 6.66683C4.18856 6.66683 4.3469 6.73072 4.47467 6.8585C4.60245 6.98627 4.66634 7.14461 4.66634 7.3335V10.6668C4.66634 10.8557 4.60245 11.0141 4.47467 11.1418C4.3469 11.2696 4.18856 11.3335 3.99967 11.3335C3.81079 11.3335 3.65245 11.2696 3.52467 11.1418C3.3969 11.0141 3.33301 10.8557 3.33301 10.6668ZM7.33301 10.6668V7.3335C7.33301 7.14461 7.3969 6.98627 7.52467 6.8585C7.65245 6.73072 7.81079 6.66683 7.99967 6.66683C8.18856 6.66683 8.3469 6.73072 8.47468 6.8585C8.60245 6.98627 8.66634 7.14461 8.66634 7.3335V10.6668C8.66634 10.8557 8.60245 11.0141 8.47468 11.1418C8.3469 11.2696 8.18856 11.3335 7.99967 11.3335C7.81079 11.3335 7.65245 11.2696 7.52467 11.1418C7.3969 11.0141 7.33301 10.8557 7.33301 10.6668ZM1.99967 14.0002C1.81079 14.0002 1.65245 13.9363 1.52467 13.8085C1.3969 13.6807 1.33301 13.5224 1.33301 13.3335C1.33301 13.1446 1.3969 12.9863 1.52467 12.8585C1.65245 12.7307 1.81079 12.6668 1.99967 12.6668H13.9997C14.1886 12.6668 14.3469 12.7307 14.4747 12.8585C14.6025 12.9863 14.6663 13.1446 14.6663 13.3335C14.6663 13.5224 14.6025 13.6807 14.4747 13.8085C14.3469 13.9363 14.1886 14.0002 13.9997 14.0002H1.99967ZM11.333 10.6668V7.3335C11.333 7.14461 11.3969 6.98627 11.5247 6.8585C11.6525 6.73072 11.8108 6.66683 11.9997 6.66683C12.1886 6.66683 12.3469 6.73072 12.4747 6.8585C12.6025 6.98627 12.6663 7.14461 12.6663 7.3335V10.6668C12.6663 10.8557 12.6025 11.0141 12.4747 11.1418C12.3469 11.2696 12.1886 11.3335 11.9997 11.3335C11.8108 11.3335 11.6525 11.2696 11.5247 11.1418C11.3969 11.0141 11.333 10.8557 11.333 10.6668ZM13.9997 5.3335H1.93301C1.76634 5.3335 1.62467 5.27516 1.50801 5.1585C1.39134 5.04183 1.33301 4.90016 1.33301 4.7335V4.36683C1.33301 4.24461 1.36356 4.13905 1.42467 4.05016C1.48579 3.96127 1.56634 3.88905 1.66634 3.8335L7.39967 0.966829C7.58856 0.877941 7.78856 0.833496 7.99967 0.833496C8.21079 0.833496 8.41079 0.877941 8.59968 0.966829L14.2997 3.81683C14.4219 3.87239 14.5136 3.95572 14.5747 4.06683C14.6358 4.17794 14.6663 4.29461 14.6663 4.41683V4.66683C14.6663 4.85572 14.6025 5.01405 14.4747 5.14183C14.3469 5.26961 14.1886 5.3335 13.9997 5.3335Z" fill="#666666"/>
</g>
</g>
</svg>
