<svg width="16" height="16" viewBox="0 0 16 16" fill="none" xmlns="http://www.w3.org/2000/svg">
<g id="check">
<mask id="mask0_2207_14709" style="mask-type:alpha" maskUnits="userSpaceOnUse" x="0" y="0" width="16" height="16">
<rect id="Bounding box" width="16" height="16" fill="#D9D9D9"/>
</mask>
<g mask="url(#mask0_2207_14709)">
<path id="check_circle" d="M7.06671 9.20016L5.63337 7.76683C5.51115 7.64461 5.3556 7.5835 5.16671 7.5835C4.97782 7.5835 4.82226 7.64461 4.70004 7.76683C4.57782 7.88905 4.51671 8.04461 4.51671 8.2335C4.51671 8.42239 4.57782 8.57794 4.70004 8.70016L6.60004 10.6002C6.73337 10.7335 6.88893 10.8002 7.06671 10.8002C7.24449 10.8002 7.40004 10.7335 7.53337 10.6002L11.3 6.8335C11.4223 6.71127 11.4834 6.55572 11.4834 6.36683C11.4834 6.17794 11.4223 6.02239 11.3 5.90016C11.1778 5.77794 11.0223 5.71683 10.8334 5.71683C10.6445 5.71683 10.4889 5.77794 10.3667 5.90016L7.06671 9.20016ZM8.00004 14.6668C7.07782 14.6668 6.21115 14.4918 5.40004 14.1418C4.58893 13.7918 3.88337 13.3168 3.28337 12.7168C2.68337 12.1168 2.20837 11.4113 1.85837 10.6002C1.50837 9.78905 1.33337 8.92239 1.33337 8.00016C1.33337 7.07794 1.50837 6.21127 1.85837 5.40016C2.20837 4.58905 2.68337 3.8835 3.28337 3.2835C3.88337 2.6835 4.58893 2.2085 5.40004 1.8585C6.21115 1.5085 7.07782 1.3335 8.00004 1.3335C8.92226 1.3335 9.78893 1.5085 10.6 1.8585C11.4112 2.2085 12.1167 2.6835 12.7167 3.2835C13.3167 3.8835 13.7917 4.58905 14.1417 5.40016C14.4917 6.21127 14.6667 7.07794 14.6667 8.00016C14.6667 8.92239 14.4917 9.78905 14.1417 10.6002C13.7917 11.4113 13.3167 12.1168 12.7167 12.7168C12.1167 13.3168 11.4112 13.7918 10.6 14.1418C9.78893 14.4918 8.92226 14.6668 8.00004 14.6668Z" fill="#008558"/>
</g>
</g>
</svg>
