<svg xmlns="http://www.w3.org/2000/svg" width="14" height="15" viewBox="0 0 14 15" fill="none">
  <mask id="mask0_5218_26507" style="mask-type:alpha" maskUnits="userSpaceOnUse" x="0" y="0" width="14" height="15">
    <rect y="0.5" width="14" height="14" fill="#fff"/>
  </mask>
  <g mask="url(#mask0_5218_26507)">
    <path d="M6.99997 8.31615L4.14163 11.1745C4.03469 11.2814 3.89858 11.3349 3.7333 11.3349C3.56802 11.3349 3.43191 11.2814 3.32497 11.1745C3.21802 11.0675 3.16455 10.9314 3.16455 10.7661C3.16455 10.6009 3.21802 10.4648 3.32497 10.3578L6.1833 7.49948L3.32497 4.64115C3.21802 4.5342 3.16455 4.39809 3.16455 4.23281C3.16455 4.06753 3.21802 3.93142 3.32497 3.82448C3.43191 3.71753 3.56802 3.66406 3.7333 3.66406C3.89858 3.66406 4.03469 3.71753 4.14163 3.82448L6.99997 6.68281L9.8583 3.82448C9.96525 3.71753 10.1014 3.66406 10.2666 3.66406C10.4319 3.66406 10.568 3.71753 10.675 3.82448C10.7819 3.93142 10.8354 4.06753 10.8354 4.23281C10.8354 4.39809 10.7819 4.5342 10.675 4.64115L7.81663 7.49948L10.675 10.3578C10.7819 10.4648 10.8354 10.6009 10.8354 10.7661C10.8354 10.9314 10.7819 11.0675 10.675 11.1745C10.568 11.2814 10.4319 11.3349 10.2666 11.3349C10.1014 11.3349 9.96525 11.2814 9.8583 11.1745L6.99997 8.31615Z" fill="#fff"/>
  </g>
</svg>