
<svg width="760" height="314" viewBox="0 0 760 314" fill="none" xmlns="http://www.w3.org/2000/svg">
<g clip-path="url(#clip0_4718_14448)">
<rect width="760" height="314" rx="8" fill="white"/>
<path d="M60.3111 76.1662H58.3168C58.2401 75.7401 58.0973 75.3651 57.8885 75.0412C57.6797 74.7173 57.424 74.4425 57.1214 74.2166C56.8189 73.9908 56.4801 73.8203 56.1051 73.7053C55.7344 73.5902 55.3402 73.5327 54.9226 73.5327C54.1683 73.5327 53.4929 73.7223 52.8963 74.1016C52.304 74.4808 51.8352 75.0369 51.4901 75.7699C51.1491 76.5028 50.9787 77.3977 50.9787 78.4545C50.9787 79.5199 51.1491 80.419 51.4901 81.152C51.8352 81.8849 52.3061 82.4389 52.9027 82.8139C53.4993 83.1889 54.1705 83.3764 54.9162 83.3764C55.3295 83.3764 55.7216 83.321 56.0923 83.2102C56.4673 83.0952 56.8061 82.9268 57.1087 82.7053C57.4112 82.4837 57.6669 82.2131 57.8757 81.8935C58.0888 81.5696 58.2358 81.1989 58.3168 80.7812L60.3111 80.7876C60.2045 81.4311 59.9979 82.0234 59.6911 82.5646C59.3885 83.1016 58.9986 83.5661 58.5213 83.9581C58.0483 84.3459 57.5071 84.6463 56.8977 84.8594C56.2884 85.0724 55.6236 85.179 54.9034 85.179C53.7699 85.179 52.7599 84.9105 51.8736 84.3736C50.9872 83.8324 50.2884 83.0589 49.777 82.0533C49.2699 81.0476 49.0163 79.848 49.0163 78.4545C49.0163 77.0568 49.272 75.8572 49.7834 74.8558C50.2947 73.8501 50.9936 73.0788 51.88 72.5419C52.7663 72.0007 53.7741 71.7301 54.9034 71.7301C55.598 71.7301 56.2457 71.8303 56.8466 72.0305C57.4517 72.2266 57.995 72.5163 58.4766 72.8999C58.9581 73.2791 59.3565 73.7436 59.6719 74.2933C59.9872 74.8388 60.2003 75.4631 60.3111 76.1662ZM66.7468 85.1982C65.8263 85.1982 65.0231 84.9872 64.337 84.5653C63.6509 84.1435 63.1182 83.5533 62.739 82.7947C62.3597 82.0362 62.1701 81.1499 62.1701 80.1357C62.1701 79.1172 62.3597 78.2266 62.739 77.4638C63.1182 76.701 63.6509 76.1087 64.337 75.6868C65.0231 75.2649 65.8263 75.054 66.7468 75.054C67.6672 75.054 68.4705 75.2649 69.1566 75.6868C69.8427 76.1087 70.3753 76.701 70.7546 77.4638C71.1339 78.2266 71.3235 79.1172 71.3235 80.1357C71.3235 81.1499 71.1339 82.0362 70.7546 82.7947C70.3753 83.5533 69.8427 84.1435 69.1566 84.5653C68.4705 84.9872 67.6672 85.1982 66.7468 85.1982ZM66.7532 83.5938C67.3498 83.5938 67.8441 83.4361 68.2361 83.1207C68.6282 82.8054 68.9179 82.3857 69.1054 81.8615C69.2972 81.3374 69.3931 80.7599 69.3931 80.1293C69.3931 79.5028 69.2972 78.9276 69.1054 78.4034C68.9179 77.875 68.6282 77.451 68.2361 77.1314C67.8441 76.8118 67.3498 76.652 66.7532 76.652C66.1523 76.652 65.6537 76.8118 65.2574 77.1314C64.8654 77.451 64.5735 77.875 64.3817 78.4034C64.1942 78.9276 64.1005 79.5028 64.1005 80.1293C64.1005 80.7599 64.1942 81.3374 64.3817 81.8615C64.5735 82.3857 64.8654 82.8054 65.2574 83.1207C65.6537 83.4361 66.1523 83.5938 66.7532 83.5938ZM73.5468 85V75.1818H75.3813V76.7798H75.5028C75.7073 76.2386 76.0419 75.8168 76.5063 75.5142C76.9708 75.2074 77.5269 75.054 78.1747 75.054C78.8309 75.054 79.3806 75.2074 79.8238 75.5142C80.2713 75.821 80.6015 76.2429 80.8146 76.7798H80.9169C81.1512 76.2557 81.5241 75.8381 82.0355 75.527C82.5468 75.2116 83.1562 75.054 83.8636 75.054C84.7542 75.054 85.4808 75.3331 86.0433 75.8913C86.61 76.4496 86.8934 77.2912 86.8934 78.4162V85H84.9822V78.5952C84.9822 77.9304 84.8011 77.4489 84.4389 77.1506C84.0767 76.8523 83.6441 76.7031 83.1413 76.7031C82.5191 76.7031 82.0355 76.8949 81.6903 77.2784C81.3451 77.6577 81.1725 78.1456 81.1725 78.7422V85H79.2677V78.4737C79.2677 77.9411 79.1015 77.5128 78.7691 77.1889C78.4367 76.8651 78.0042 76.7031 77.4715 76.7031C77.1093 76.7031 76.7748 76.799 76.468 76.9908C76.1654 77.1783 75.9204 77.4403 75.7329 77.777C75.5497 78.1136 75.4581 78.5036 75.4581 78.9467V85H73.5468ZM89.545 85V75.1818H91.4563V85H89.545ZM90.5102 73.6669C90.1778 73.6669 89.8923 73.5561 89.6537 73.3345C89.4193 73.1087 89.3021 72.8402 89.3021 72.5291C89.3021 72.2138 89.4193 71.9453 89.6537 71.7237C89.8923 71.4979 90.1778 71.3849 90.5102 71.3849C90.8426 71.3849 91.126 71.4979 91.3604 71.7237C91.599 71.9453 91.7183 72.2138 91.7183 72.5291C91.7183 72.8402 91.599 73.1087 91.3604 73.3345C91.126 73.5561 90.8426 73.6669 90.5102 73.6669ZM96.0287 79.1705V85H94.1175V75.1818H95.952V76.7798H96.0734C96.2993 76.2599 96.653 75.8423 97.1345 75.527C97.6203 75.2116 98.2318 75.054 98.969 75.054C99.6381 75.054 100.224 75.1946 100.727 75.4759C101.23 75.7528 101.62 76.1662 101.897 76.7159C102.174 77.2656 102.312 77.9453 102.312 78.755V85H100.401V78.9851C100.401 78.2734 100.215 77.7173 99.8447 77.3168C99.474 76.9119 98.9648 76.7095 98.317 76.7095C97.8739 76.7095 97.4797 76.8054 97.1345 76.9972C96.7936 77.1889 96.523 77.4702 96.3227 77.8409C96.1267 78.2074 96.0287 78.6506 96.0287 79.1705ZM109.082 88.8864C108.302 88.8864 107.631 88.7841 107.068 88.5795C106.51 88.375 106.054 88.1044 105.7 87.7678C105.347 87.4311 105.082 87.0625 104.908 86.6619L106.55 85.9844C106.666 86.1719 106.819 86.37 107.011 86.5788C107.207 86.7919 107.471 86.973 107.803 87.1222C108.14 87.2713 108.573 87.3459 109.101 87.3459C109.825 87.3459 110.424 87.169 110.897 86.8153C111.37 86.4659 111.607 85.9077 111.607 85.1406V83.2102H111.485C111.37 83.419 111.204 83.6513 110.987 83.907C110.774 84.1626 110.479 84.3842 110.104 84.5717C109.729 84.7592 109.242 84.853 108.641 84.853C107.865 84.853 107.166 84.6719 106.544 84.3097C105.926 83.9432 105.436 83.4041 105.074 82.6925C104.716 81.9766 104.537 81.0966 104.537 80.0526C104.537 79.0085 104.714 78.1136 105.068 77.3679C105.425 76.6222 105.916 76.0511 106.538 75.6548C107.16 75.2543 107.865 75.054 108.653 75.054C109.263 75.054 109.755 75.1562 110.13 75.3608C110.505 75.5611 110.797 75.7955 111.006 76.0639C111.219 76.3324 111.383 76.5689 111.498 76.7734H111.639V75.1818H113.511V85.2173C113.511 86.0611 113.315 86.7536 112.923 87.2947C112.531 87.8359 112.001 88.2365 111.332 88.4964C110.667 88.7564 109.917 88.8864 109.082 88.8864ZM109.063 83.2678C109.612 83.2678 110.077 83.1399 110.456 82.8842C110.84 82.6243 111.129 82.2536 111.325 81.772C111.526 81.2862 111.626 80.7045 111.626 80.027C111.626 79.3665 111.528 78.7848 111.332 78.282C111.136 77.7791 110.848 77.3871 110.469 77.1058C110.09 76.8203 109.621 76.6776 109.063 76.6776C108.487 76.6776 108.008 76.8267 107.624 77.125C107.241 77.419 106.951 77.8196 106.755 78.3267C106.563 78.8338 106.467 79.4006 106.467 80.027C106.467 80.6705 106.565 81.2351 106.761 81.7209C106.957 82.2067 107.247 82.5859 107.631 82.8587C108.019 83.1314 108.496 83.2678 109.063 83.2678ZM128.312 75.348C128.243 74.7429 127.962 74.2741 127.468 73.9418C126.974 73.6051 126.351 73.4368 125.601 73.4368C125.064 73.4368 124.6 73.522 124.208 73.6925C123.816 73.8587 123.511 74.0888 123.294 74.3828C123.081 74.6726 122.974 75.0028 122.974 75.3736C122.974 75.6847 123.047 75.9531 123.192 76.179C123.341 76.4048 123.535 76.5945 123.773 76.7479C124.016 76.897 124.276 77.0227 124.553 77.125C124.83 77.223 125.096 77.304 125.352 77.3679L126.631 77.7003C127.048 77.8026 127.476 77.9411 127.915 78.1158C128.354 78.2905 128.761 78.5206 129.136 78.8061C129.511 79.0916 129.814 79.4453 130.044 79.8672C130.278 80.2891 130.395 80.794 130.395 81.3821C130.395 82.1236 130.204 82.782 129.82 83.3572C129.441 83.9325 128.889 84.3864 128.165 84.7188C127.444 85.0511 126.573 85.2173 125.55 85.2173C124.57 85.2173 123.722 85.0618 123.006 84.7507C122.29 84.4396 121.73 83.9986 121.325 83.4276C120.92 82.8523 120.697 82.1705 120.654 81.3821H122.636C122.674 81.8551 122.827 82.2493 123.096 82.5646C123.368 82.8757 123.716 83.108 124.138 83.2614C124.564 83.4105 125.03 83.4851 125.537 83.4851C126.096 83.4851 126.592 83.3977 127.027 83.223C127.466 83.044 127.811 82.7969 128.062 82.4815C128.314 82.1619 128.439 81.7891 128.439 81.3629C128.439 80.9751 128.329 80.6577 128.107 80.4105C127.89 80.1634 127.594 79.9588 127.219 79.7969C126.848 79.6349 126.428 79.4922 125.959 79.3686L124.412 78.9467C123.364 78.6612 122.533 78.2415 121.92 77.6875C121.31 77.1335 121.006 76.4006 121.006 75.4886C121.006 74.7344 121.21 74.076 121.619 73.5135C122.028 72.951 122.582 72.5142 123.281 72.2031C123.98 71.8878 124.768 71.7301 125.646 71.7301C126.533 71.7301 127.314 71.8857 127.992 72.1967C128.674 72.5078 129.211 72.9361 129.603 73.4815C129.995 74.0227 130.199 74.6449 130.216 75.348H128.312ZM136.828 85.1982C135.908 85.1982 135.104 84.9872 134.418 84.5653C133.732 84.1435 133.199 83.5533 132.82 82.7947C132.441 82.0362 132.251 81.1499 132.251 80.1357C132.251 79.1172 132.441 78.2266 132.82 77.4638C133.199 76.701 133.732 76.1087 134.418 75.6868C135.104 75.2649 135.908 75.054 136.828 75.054C137.748 75.054 138.552 75.2649 139.238 75.6868C139.924 76.1087 140.457 76.701 140.836 77.4638C141.215 78.2266 141.405 79.1172 141.405 80.1357C141.405 81.1499 141.215 82.0362 140.836 82.7947C140.457 83.5533 139.924 84.1435 139.238 84.5653C138.552 84.9872 137.748 85.1982 136.828 85.1982ZM136.834 83.5938C137.431 83.5938 137.925 83.4361 138.317 83.1207C138.709 82.8054 138.999 82.3857 139.187 81.8615C139.378 81.3374 139.474 80.7599 139.474 80.1293C139.474 79.5028 139.378 78.9276 139.187 78.4034C138.999 77.875 138.709 77.451 138.317 77.1314C137.925 76.8118 137.431 76.652 136.834 76.652C136.233 76.652 135.735 76.8118 135.339 77.1314C134.947 77.451 134.655 77.875 134.463 78.4034C134.275 78.9276 134.182 79.5028 134.182 80.1293C134.182 80.7599 134.275 81.3374 134.463 81.8615C134.655 82.3857 134.947 82.8054 135.339 83.1207C135.735 83.4361 136.233 83.5938 136.834 83.5938ZM147.764 85.1982C146.843 85.1982 146.04 84.9872 145.354 84.5653C144.668 84.1435 144.135 83.5533 143.756 82.7947C143.377 82.0362 143.187 81.1499 143.187 80.1357C143.187 79.1172 143.377 78.2266 143.756 77.4638C144.135 76.701 144.668 76.1087 145.354 75.6868C146.04 75.2649 146.843 75.054 147.764 75.054C148.684 75.054 149.487 75.2649 150.173 75.6868C150.86 76.1087 151.392 76.701 151.771 77.4638C152.151 78.2266 152.34 79.1172 152.34 80.1357C152.34 81.1499 152.151 82.0362 151.771 82.7947C151.392 83.5533 150.86 84.1435 150.173 84.5653C149.487 84.9872 148.684 85.1982 147.764 85.1982ZM147.77 83.5938C148.367 83.5938 148.861 83.4361 149.253 83.1207C149.645 82.8054 149.935 82.3857 150.122 81.8615C150.314 81.3374 150.41 80.7599 150.41 80.1293C150.41 79.5028 150.314 78.9276 150.122 78.4034C149.935 77.875 149.645 77.451 149.253 77.1314C148.861 76.8118 148.367 76.652 147.77 76.652C147.169 76.652 146.671 76.8118 146.274 77.1314C145.882 77.451 145.59 77.875 145.399 78.4034C145.211 78.9276 145.117 79.5028 145.117 80.1293C145.117 80.7599 145.211 81.3374 145.399 81.8615C145.59 82.3857 145.882 82.8054 146.274 83.1207C146.671 83.4361 147.169 83.5938 147.77 83.5938ZM156.475 79.1705V85H154.564V75.1818H156.398V76.7798H156.52C156.746 76.2599 157.099 75.8423 157.581 75.527C158.067 75.2116 158.678 75.054 159.415 75.054C160.084 75.054 160.67 75.1946 161.173 75.4759C161.676 75.7528 162.066 76.1662 162.343 76.7159C162.62 77.2656 162.758 77.9453 162.758 78.755V85H160.847V78.9851C160.847 78.2734 160.662 77.7173 160.291 77.3168C159.92 76.9119 159.411 76.7095 158.763 76.7095C158.32 76.7095 157.926 76.8054 157.581 76.9972C157.24 77.1889 156.969 77.4702 156.769 77.8409C156.573 78.2074 156.475 78.6506 156.475 79.1705ZM166.671 85.1214C166.321 85.1214 166.021 84.9979 165.769 84.7507C165.518 84.4993 165.392 84.1967 165.392 83.843C165.392 83.4936 165.518 83.1953 165.769 82.9482C166.021 82.6967 166.321 82.571 166.671 82.571C167.02 82.571 167.321 82.6967 167.572 82.9482C167.823 83.1953 167.949 83.4936 167.949 83.843C167.949 84.0774 167.89 84.2926 167.77 84.4886C167.655 84.6804 167.502 84.8338 167.31 84.9489C167.118 85.0639 166.905 85.1214 166.671 85.1214ZM171.858 85.1214C171.509 85.1214 171.209 84.9979 170.957 84.7507C170.706 84.4993 170.58 84.1967 170.58 83.843C170.58 83.4936 170.706 83.1953 170.957 82.9482C171.209 82.6967 171.509 82.571 171.858 82.571C172.208 82.571 172.508 82.6967 172.76 82.9482C173.011 83.1953 173.137 83.4936 173.137 83.843C173.137 84.0774 173.077 84.2926 172.958 84.4886C172.843 84.6804 172.689 84.8338 172.498 84.9489C172.306 85.0639 172.093 85.1214 171.858 85.1214ZM177.046 85.1214C176.697 85.1214 176.396 84.9979 176.145 84.7507C175.893 84.4993 175.768 84.1967 175.768 83.843C175.768 83.4936 175.893 83.1953 176.145 82.9482C176.396 82.6967 176.697 82.571 177.046 82.571C177.395 82.571 177.696 82.6967 177.947 82.9482C178.199 83.1953 178.324 83.4936 178.324 83.843C178.324 84.0774 178.265 84.2926 178.145 84.4886C178.03 84.6804 177.877 84.8338 177.685 84.9489C177.494 85.0639 177.28 85.1214 177.046 85.1214Z" fill="#406FDD"/>
<path d="M50.8182 108.364V120H49.4091V108.364H50.8182ZM54.8826 114.75V120H53.5416V111.273H54.8371V112.636H54.9507C55.1553 112.193 55.4659 111.837 55.8826 111.568C56.2992 111.295 56.8371 111.159 57.4962 111.159C58.0871 111.159 58.6041 111.28 59.0473 111.523C59.4905 111.761 59.8352 112.125 60.0814 112.614C60.3276 113.098 60.4507 113.712 60.4507 114.455V120H59.1098V114.545C59.1098 113.86 58.9318 113.326 58.5757 112.943C58.2197 112.557 57.731 112.364 57.1098 112.364C56.6818 112.364 56.2992 112.456 55.9621 112.642C55.6288 112.828 55.3655 113.098 55.1723 113.455C54.9791 113.811 54.8826 114.242 54.8826 114.75ZM62.981 123.273V111.273H64.2765V112.659H64.4356C64.5341 112.508 64.6704 112.314 64.8447 112.08C65.0227 111.841 65.2765 111.629 65.606 111.443C65.9394 111.254 66.3901 111.159 66.9583 111.159C67.6931 111.159 68.3409 111.343 68.9015 111.71C69.4621 112.078 69.8996 112.598 70.214 113.273C70.5284 113.947 70.6856 114.742 70.6856 115.659C70.6856 116.583 70.5284 117.384 70.214 118.062C69.8996 118.737 69.464 119.259 68.9072 119.631C68.3503 119.998 67.7083 120.182 66.981 120.182C66.4204 120.182 65.9716 120.089 65.6344 119.903C65.2973 119.714 65.0378 119.5 64.856 119.261C64.6742 119.019 64.5341 118.818 64.4356 118.659H64.3219V123.273H62.981ZM64.2992 115.636C64.2992 116.295 64.3958 116.877 64.589 117.381C64.7822 117.881 65.0644 118.273 65.4356 118.557C65.8068 118.837 66.2613 118.977 66.7992 118.977C67.3598 118.977 67.8276 118.83 68.2026 118.534C68.5814 118.235 68.8655 117.833 69.0549 117.33C69.2481 116.822 69.3447 116.258 69.3447 115.636C69.3447 115.023 69.25 114.47 69.0606 113.977C68.875 113.481 68.5928 113.089 68.214 112.801C67.839 112.509 67.3674 112.364 66.7992 112.364C66.2538 112.364 65.7954 112.502 65.4242 112.778C65.053 113.051 64.7727 113.434 64.5833 113.926C64.3939 114.415 64.2992 114.985 64.2992 115.636ZM78.311 116.432V111.273H79.6519V120H78.311V118.523H78.2201C78.0156 118.966 77.6974 119.343 77.2656 119.653C76.8337 119.96 76.2883 120.114 75.6292 120.114C75.0837 120.114 74.5989 119.994 74.1747 119.756C73.7504 119.513 73.4171 119.15 73.1747 118.665C72.9322 118.176 72.811 117.561 72.811 116.818V111.273H74.1519V116.727C74.1519 117.364 74.33 117.871 74.686 118.25C75.0459 118.629 75.5042 118.818 76.061 118.818C76.3944 118.818 76.7334 118.733 77.0781 118.562C77.4266 118.392 77.7182 118.131 77.9531 117.778C78.1917 117.426 78.311 116.977 78.311 116.432ZM85.9834 111.273V112.409H81.4606V111.273H85.9834ZM82.7788 109.182H84.1197V117.5C84.1197 117.879 84.1746 118.163 84.2845 118.352C84.3981 118.538 84.5421 118.663 84.7163 118.727C84.8943 118.788 85.0818 118.818 85.2788 118.818C85.4265 118.818 85.5477 118.811 85.6424 118.795C85.7371 118.777 85.8129 118.761 85.8697 118.75L86.1424 119.955C86.0515 119.989 85.9246 120.023 85.7618 120.057C85.5989 120.095 85.3924 120.114 85.1424 120.114C84.7637 120.114 84.3924 120.032 84.0288 119.869C83.669 119.706 83.3697 119.458 83.1311 119.125C82.8962 118.792 82.7788 118.371 82.7788 117.864V109.182ZM96.2059 120.182C95.3877 120.182 94.6831 119.989 94.0922 119.602C93.5013 119.216 93.0468 118.684 92.7286 118.006C92.4104 117.328 92.2513 116.553 92.2513 115.682C92.2513 114.795 92.4142 114.013 92.7399 113.335C93.0695 112.653 93.5278 112.121 94.1149 111.739C94.7059 111.352 95.3952 111.159 96.1831 111.159C96.7968 111.159 97.3498 111.273 97.8422 111.5C98.3346 111.727 98.738 112.045 99.0524 112.455C99.3668 112.864 99.5619 113.341 99.6377 113.886H98.2968C98.1945 113.489 97.9672 113.136 97.6149 112.83C97.2665 112.519 96.7968 112.364 96.2059 112.364C95.6831 112.364 95.2248 112.5 94.8309 112.773C94.4407 113.042 94.1358 113.422 93.9161 113.915C93.7002 114.403 93.5922 114.977 93.5922 115.636C93.5922 116.311 93.6983 116.898 93.9104 117.398C94.1263 117.898 94.4293 118.286 94.8195 118.562C95.2134 118.839 95.6755 118.977 96.2059 118.977C96.5543 118.977 96.8706 118.917 97.1547 118.795C97.4388 118.674 97.6793 118.5 97.8763 118.273C98.0733 118.045 98.2134 117.773 98.2968 117.455H99.6377C99.5619 117.97 99.3744 118.434 99.0752 118.847C98.7797 119.256 98.3877 119.581 97.899 119.824C97.4142 120.062 96.8498 120.182 96.2059 120.182ZM105.223 120.182C104.435 120.182 103.744 119.994 103.149 119.619C102.559 119.244 102.096 118.72 101.763 118.045C101.434 117.371 101.269 116.583 101.269 115.682C101.269 114.773 101.434 113.979 101.763 113.301C102.096 112.623 102.559 112.097 103.149 111.722C103.744 111.347 104.435 111.159 105.223 111.159C106.011 111.159 106.701 111.347 107.292 111.722C107.886 112.097 108.348 112.623 108.678 113.301C109.011 113.979 109.178 114.773 109.178 115.682C109.178 116.583 109.011 117.371 108.678 118.045C108.348 118.72 107.886 119.244 107.292 119.619C106.701 119.994 106.011 120.182 105.223 120.182ZM105.223 118.977C105.822 118.977 106.314 118.824 106.701 118.517C107.087 118.21 107.373 117.807 107.559 117.307C107.744 116.807 107.837 116.265 107.837 115.682C107.837 115.098 107.744 114.555 107.559 114.051C107.373 113.547 107.087 113.14 106.701 112.83C106.314 112.519 105.822 112.364 105.223 112.364C104.625 112.364 104.132 112.519 103.746 112.83C103.36 113.14 103.074 113.547 102.888 114.051C102.703 114.555 102.61 115.098 102.61 115.682C102.61 116.265 102.703 116.807 102.888 117.307C103.074 117.807 103.36 118.21 103.746 118.517C104.132 118.824 104.625 118.977 105.223 118.977ZM112.646 114.75V120H111.305V111.273H112.6V112.636H112.714C112.918 112.193 113.229 111.837 113.646 111.568C114.062 111.295 114.6 111.159 115.259 111.159C115.85 111.159 116.367 111.28 116.81 111.523C117.254 111.761 117.598 112.125 117.845 112.614C118.091 113.098 118.214 113.712 118.214 114.455V120H116.873V114.545C116.873 113.86 116.695 113.326 116.339 112.943C115.983 112.557 115.494 112.364 114.873 112.364C114.445 112.364 114.062 112.456 113.725 112.642C113.392 112.828 113.129 113.098 112.935 113.455C112.742 113.811 112.646 114.242 112.646 114.75ZM124.54 111.273V112.409H120.017V111.273H124.54ZM121.335 109.182H122.676V117.5C122.676 117.879 122.731 118.163 122.841 118.352C122.954 118.538 123.098 118.663 123.273 118.727C123.451 118.788 123.638 118.818 123.835 118.818C123.983 118.818 124.104 118.811 124.199 118.795C124.293 118.777 124.369 118.761 124.426 118.75L124.699 119.955C124.608 119.989 124.481 120.023 124.318 120.057C124.155 120.095 123.949 120.114 123.699 120.114C123.32 120.114 122.949 120.032 122.585 119.869C122.225 119.706 121.926 119.458 121.687 119.125C121.452 118.792 121.335 118.371 121.335 117.864V109.182ZM126.637 120V111.273H127.932V112.591H128.023C128.182 112.159 128.47 111.809 128.887 111.54C129.303 111.271 129.773 111.136 130.296 111.136C130.394 111.136 130.517 111.138 130.665 111.142C130.813 111.146 130.925 111.152 131 111.159V112.523C130.955 112.511 130.851 112.494 130.688 112.472C130.529 112.445 130.36 112.432 130.182 112.432C129.758 112.432 129.379 112.521 129.046 112.699C128.716 112.873 128.455 113.116 128.262 113.426C128.072 113.733 127.978 114.083 127.978 114.477V120H126.637ZM135.95 120.182C135.162 120.182 134.47 119.994 133.876 119.619C133.285 119.244 132.823 118.72 132.489 118.045C132.16 117.371 131.995 116.583 131.995 115.682C131.995 114.773 132.16 113.979 132.489 113.301C132.823 112.623 133.285 112.097 133.876 111.722C134.47 111.347 135.162 111.159 135.95 111.159C136.737 111.159 137.427 111.347 138.018 111.722C138.612 112.097 139.075 112.623 139.404 113.301C139.737 113.979 139.904 114.773 139.904 115.682C139.904 116.583 139.737 117.371 139.404 118.045C139.075 118.72 138.612 119.244 138.018 119.619C137.427 119.994 136.737 120.182 135.95 120.182ZM135.95 118.977C136.548 118.977 137.041 118.824 137.427 118.517C137.813 118.21 138.099 117.807 138.285 117.307C138.47 116.807 138.563 116.265 138.563 115.682C138.563 115.098 138.47 114.555 138.285 114.051C138.099 113.547 137.813 113.14 137.427 112.83C137.041 112.519 136.548 112.364 135.95 112.364C135.351 112.364 134.859 112.519 134.472 112.83C134.086 113.14 133.8 113.547 133.614 114.051C133.429 114.555 133.336 115.098 133.336 115.682C133.336 116.265 133.429 116.807 133.614 117.307C133.8 117.807 134.086 118.21 134.472 118.517C134.859 118.824 135.351 118.977 135.95 118.977ZM143.372 108.364V120H142.031V108.364H143.372ZM154.374 111.273V112.409H149.67V111.273H154.374ZM151.079 120V110.068C151.079 109.568 151.196 109.152 151.431 108.818C151.666 108.485 151.971 108.235 152.346 108.068C152.721 107.902 153.117 107.818 153.533 107.818C153.863 107.818 154.132 107.845 154.34 107.898C154.549 107.951 154.704 108 154.806 108.045L154.42 109.205C154.352 109.182 154.257 109.153 154.136 109.119C154.018 109.085 153.863 109.068 153.67 109.068C153.227 109.068 152.906 109.18 152.709 109.403C152.516 109.627 152.42 109.955 152.42 110.386V120H151.079ZM159.633 120.182C158.792 120.182 158.067 119.996 157.457 119.625C156.851 119.25 156.383 118.727 156.054 118.057C155.728 117.383 155.565 116.598 155.565 115.705C155.565 114.811 155.728 114.023 156.054 113.341C156.383 112.655 156.842 112.121 157.429 111.739C158.02 111.352 158.709 111.159 159.497 111.159C159.951 111.159 160.4 111.235 160.843 111.386C161.287 111.538 161.69 111.784 162.054 112.125C162.417 112.462 162.707 112.909 162.923 113.466C163.139 114.023 163.247 114.708 163.247 115.523V116.091H156.52V114.932H161.883C161.883 114.439 161.785 114 161.588 113.614C161.395 113.227 161.118 112.922 160.758 112.699C160.402 112.475 159.982 112.364 159.497 112.364C158.963 112.364 158.501 112.496 158.111 112.761C157.724 113.023 157.427 113.364 157.218 113.784C157.01 114.205 156.906 114.655 156.906 115.136V115.909C156.906 116.568 157.02 117.127 157.247 117.585C157.478 118.04 157.798 118.386 158.207 118.625C158.616 118.86 159.092 118.977 159.633 118.977C159.986 118.977 160.304 118.928 160.588 118.83C160.876 118.727 161.124 118.576 161.332 118.375C161.54 118.17 161.701 117.917 161.815 117.614L163.111 117.977C162.974 118.417 162.745 118.803 162.423 119.136C162.101 119.466 161.703 119.723 161.23 119.909C160.756 120.091 160.224 120.182 159.633 120.182ZM167.935 120.205C167.382 120.205 166.88 120.1 166.429 119.892C165.978 119.68 165.62 119.375 165.355 118.977C165.09 118.576 164.958 118.091 164.958 117.523C164.958 117.023 165.056 116.617 165.253 116.307C165.45 115.992 165.713 115.746 166.043 115.568C166.372 115.39 166.736 115.258 167.134 115.17C167.535 115.08 167.939 115.008 168.344 114.955C168.874 114.886 169.304 114.835 169.634 114.801C169.967 114.763 170.209 114.701 170.361 114.614C170.516 114.527 170.594 114.375 170.594 114.159V114.114C170.594 113.553 170.441 113.117 170.134 112.807C169.831 112.496 169.37 112.341 168.753 112.341C168.113 112.341 167.611 112.481 167.247 112.761C166.884 113.042 166.628 113.341 166.48 113.659L165.208 113.205C165.435 112.674 165.738 112.261 166.117 111.966C166.499 111.667 166.916 111.458 167.367 111.341C167.821 111.22 168.268 111.159 168.708 111.159C168.988 111.159 169.31 111.193 169.673 111.261C170.041 111.326 170.395 111.46 170.736 111.665C171.081 111.869 171.367 112.178 171.594 112.591C171.821 113.004 171.935 113.557 171.935 114.25V120H170.594V118.818H170.526C170.435 119.008 170.283 119.21 170.071 119.426C169.859 119.642 169.577 119.826 169.225 119.977C168.872 120.129 168.442 120.205 167.935 120.205ZM168.139 119C168.67 119 169.117 118.896 169.48 118.688C169.848 118.479 170.124 118.21 170.31 117.881C170.499 117.551 170.594 117.205 170.594 116.841V115.614C170.537 115.682 170.412 115.744 170.219 115.801C170.03 115.854 169.81 115.902 169.56 115.943C169.314 115.981 169.073 116.015 168.838 116.045C168.607 116.072 168.42 116.095 168.276 116.114C167.927 116.159 167.601 116.233 167.298 116.335C166.999 116.434 166.757 116.583 166.571 116.784C166.389 116.981 166.298 117.25 166.298 117.591C166.298 118.057 166.471 118.409 166.816 118.648C167.164 118.883 167.605 119 168.139 119ZM178.258 111.273V112.409H173.735V111.273H178.258ZM175.053 109.182H176.394V117.5C176.394 117.879 176.449 118.163 176.559 118.352C176.673 118.538 176.816 118.663 176.991 118.727C177.169 118.788 177.356 118.818 177.553 118.818C177.701 118.818 177.822 118.811 177.917 118.795C178.012 118.777 178.087 118.761 178.144 118.75L178.417 119.955C178.326 119.989 178.199 120.023 178.036 120.057C177.873 120.095 177.667 120.114 177.417 120.114C177.038 120.114 176.667 120.032 176.303 119.869C175.943 119.706 175.644 119.458 175.405 119.125C175.171 118.792 175.053 118.371 175.053 117.864V109.182ZM185.855 116.432V111.273H187.196V120H185.855V118.523H185.764C185.559 118.966 185.241 119.343 184.809 119.653C184.378 119.96 183.832 120.114 183.173 120.114C182.628 120.114 182.143 119.994 181.718 119.756C181.294 119.513 180.961 119.15 180.718 118.665C180.476 118.176 180.355 117.561 180.355 116.818V111.273H181.696V116.727C181.696 117.364 181.874 117.871 182.23 118.25C182.59 118.629 183.048 118.818 183.605 118.818C183.938 118.818 184.277 118.733 184.622 118.562C184.97 118.392 185.262 118.131 185.497 117.778C185.735 117.426 185.855 116.977 185.855 116.432ZM189.732 120V111.273H191.027V112.591H191.118C191.277 112.159 191.565 111.809 191.982 111.54C192.398 111.271 192.868 111.136 193.391 111.136C193.489 111.136 193.612 111.138 193.76 111.142C193.908 111.146 194.02 111.152 194.095 111.159V112.523C194.05 112.511 193.946 112.494 193.783 112.472C193.624 112.445 193.455 112.432 193.277 112.432C192.853 112.432 192.474 112.521 192.141 112.699C191.811 112.873 191.55 113.116 191.357 113.426C191.167 113.733 191.073 114.083 191.073 114.477V120H189.732ZM199.158 120.182C198.317 120.182 197.592 119.996 196.982 119.625C196.376 119.25 195.908 118.727 195.579 118.057C195.253 117.383 195.09 116.598 195.09 115.705C195.09 114.811 195.253 114.023 195.579 113.341C195.908 112.655 196.367 112.121 196.954 111.739C197.545 111.352 198.234 111.159 199.022 111.159C199.476 111.159 199.925 111.235 200.368 111.386C200.812 111.538 201.215 111.784 201.579 112.125C201.942 112.462 202.232 112.909 202.448 113.466C202.664 114.023 202.772 114.708 202.772 115.523V116.091H196.045V114.932H201.408C201.408 114.439 201.31 114 201.113 113.614C200.92 113.227 200.643 112.922 200.283 112.699C199.927 112.475 199.507 112.364 199.022 112.364C198.488 112.364 198.026 112.496 197.636 112.761C197.249 113.023 196.952 113.364 196.743 113.784C196.535 114.205 196.431 114.655 196.431 115.136V115.909C196.431 116.568 196.545 117.127 196.772 117.585C197.003 118.04 197.323 118.386 197.732 118.625C198.141 118.86 198.617 118.977 199.158 118.977C199.511 118.977 199.829 118.928 200.113 118.83C200.401 118.727 200.649 118.576 200.857 118.375C201.065 118.17 201.226 117.917 201.34 117.614L202.636 117.977C202.499 118.417 202.27 118.803 201.948 119.136C201.626 119.466 201.228 119.723 200.755 119.909C200.281 120.091 199.749 120.182 199.158 120.182ZM211.073 113.227L209.869 113.568C209.793 113.367 209.681 113.172 209.534 112.983C209.39 112.79 209.193 112.631 208.943 112.506C208.693 112.381 208.373 112.318 207.983 112.318C207.448 112.318 207.003 112.441 206.647 112.688C206.295 112.93 206.119 113.239 206.119 113.614C206.119 113.947 206.24 114.21 206.483 114.403C206.725 114.597 207.104 114.758 207.619 114.886L208.914 115.205C209.695 115.394 210.276 115.684 210.659 116.074C211.041 116.46 211.233 116.958 211.233 117.568C211.233 118.068 211.089 118.515 210.801 118.909C210.517 119.303 210.119 119.614 209.608 119.841C209.096 120.068 208.501 120.182 207.823 120.182C206.933 120.182 206.197 119.989 205.613 119.602C205.03 119.216 204.661 118.652 204.505 117.909L205.778 117.591C205.899 118.061 206.128 118.413 206.466 118.648C206.806 118.883 207.251 119 207.801 119C208.426 119 208.922 118.867 209.289 118.602C209.661 118.333 209.846 118.011 209.846 117.636C209.846 117.333 209.74 117.08 209.528 116.875C209.316 116.667 208.99 116.511 208.551 116.409L207.096 116.068C206.297 115.879 205.71 115.585 205.335 115.188C204.964 114.786 204.778 114.284 204.778 113.682C204.778 113.189 204.916 112.754 205.193 112.375C205.473 111.996 205.854 111.699 206.335 111.483C206.82 111.267 207.369 111.159 207.983 111.159C208.846 111.159 209.524 111.348 210.017 111.727C210.513 112.106 210.865 112.606 211.073 113.227ZM219.888 120L217.229 111.273H218.638L220.525 117.955H220.616L222.479 111.273H223.911L225.752 117.932H225.843L227.729 111.273H229.138L226.479 120H225.161L223.252 113.295H223.116L221.206 120H219.888ZM230.991 120V111.273H232.332V120H230.991ZM231.673 109.818C231.411 109.818 231.186 109.729 230.997 109.551C230.811 109.373 230.718 109.159 230.718 108.909C230.718 108.659 230.811 108.445 230.997 108.267C231.186 108.089 231.411 108 231.673 108C231.934 108 232.158 108.089 232.343 108.267C232.533 108.445 232.627 108.659 232.627 108.909C232.627 109.159 232.533 109.373 232.343 109.551C232.158 109.729 231.934 109.818 231.673 109.818ZM236.209 108.364V120H234.868V108.364H236.209ZM240.086 108.364V120H238.745V108.364H240.086ZM253.383 113.227L252.179 113.568C252.103 113.367 251.991 113.172 251.844 112.983C251.7 112.79 251.503 112.631 251.253 112.506C251.003 112.381 250.683 112.318 250.293 112.318C249.758 112.318 249.313 112.441 248.957 112.688C248.605 112.93 248.429 113.239 248.429 113.614C248.429 113.947 248.55 114.21 248.793 114.403C249.035 114.597 249.414 114.758 249.929 114.886L251.224 115.205C252.005 115.394 252.586 115.684 252.969 116.074C253.351 116.46 253.543 116.958 253.543 117.568C253.543 118.068 253.399 118.515 253.111 118.909C252.827 119.303 252.429 119.614 251.918 119.841C251.406 120.068 250.812 120.182 250.133 120.182C249.243 120.182 248.507 119.989 247.923 119.602C247.34 119.216 246.971 118.652 246.815 117.909L248.088 117.591C248.209 118.061 248.438 118.413 248.776 118.648C249.116 118.883 249.562 119 250.111 119C250.736 119 251.232 118.867 251.599 118.602C251.971 118.333 252.156 118.011 252.156 117.636C252.156 117.333 252.05 117.08 251.838 116.875C251.626 116.667 251.3 116.511 250.861 116.409L249.406 116.068C248.607 115.879 248.02 115.585 247.645 115.188C247.274 114.786 247.088 114.284 247.088 113.682C247.088 113.189 247.226 112.754 247.503 112.375C247.783 111.996 248.164 111.699 248.645 111.483C249.13 111.267 249.679 111.159 250.293 111.159C251.156 111.159 251.834 111.348 252.327 111.727C252.823 112.106 253.175 112.606 253.383 113.227ZM259.186 120.182C258.399 120.182 257.707 119.994 257.113 119.619C256.522 119.244 256.06 118.72 255.726 118.045C255.397 117.371 255.232 116.583 255.232 115.682C255.232 114.773 255.397 113.979 255.726 113.301C256.06 112.623 256.522 112.097 257.113 111.722C257.707 111.347 258.399 111.159 259.186 111.159C259.974 111.159 260.664 111.347 261.255 111.722C261.849 112.097 262.311 112.623 262.641 113.301C262.974 113.979 263.141 114.773 263.141 115.682C263.141 116.583 262.974 117.371 262.641 118.045C262.311 118.72 261.849 119.244 261.255 119.619C260.664 119.994 259.974 120.182 259.186 120.182ZM259.186 118.977C259.785 118.977 260.277 118.824 260.664 118.517C261.05 118.21 261.336 117.807 261.522 117.307C261.707 116.807 261.8 116.265 261.8 115.682C261.8 115.098 261.707 114.555 261.522 114.051C261.336 113.547 261.05 113.14 260.664 112.83C260.277 112.519 259.785 112.364 259.186 112.364C258.588 112.364 258.096 112.519 257.709 112.83C257.323 113.14 257.037 113.547 256.851 114.051C256.666 114.555 256.573 115.098 256.573 115.682C256.573 116.265 256.666 116.807 256.851 117.307C257.037 117.807 257.323 118.21 257.709 118.517C258.096 118.824 258.588 118.977 259.186 118.977ZM268.813 120.182C268.025 120.182 267.334 119.994 266.739 119.619C266.149 119.244 265.686 118.72 265.353 118.045C265.024 117.371 264.859 116.583 264.859 115.682C264.859 114.773 265.024 113.979 265.353 113.301C265.686 112.623 266.149 112.097 266.739 111.722C267.334 111.347 268.025 111.159 268.813 111.159C269.601 111.159 270.291 111.347 270.882 111.722C271.476 112.097 271.938 112.623 272.268 113.301C272.601 113.979 272.768 114.773 272.768 115.682C272.768 116.583 272.601 117.371 272.268 118.045C271.938 118.72 271.476 119.244 270.882 119.619C270.291 119.994 269.601 120.182 268.813 120.182ZM268.813 118.977C269.412 118.977 269.904 118.824 270.291 118.517C270.677 118.21 270.963 117.807 271.149 117.307C271.334 116.807 271.427 116.265 271.427 115.682C271.427 115.098 271.334 114.555 271.149 114.051C270.963 113.547 270.677 113.14 270.291 112.83C269.904 112.519 269.412 112.364 268.813 112.364C268.215 112.364 267.722 112.519 267.336 112.83C266.95 113.14 266.664 113.547 266.478 114.051C266.293 114.555 266.2 115.098 266.2 115.682C266.2 116.265 266.293 116.807 266.478 117.307C266.664 117.807 266.95 118.21 267.336 118.517C267.722 118.824 268.215 118.977 268.813 118.977ZM276.236 114.75V120H274.895V111.273H276.19V112.636H276.304C276.508 112.193 276.819 111.837 277.236 111.568C277.652 111.295 278.19 111.159 278.849 111.159C279.44 111.159 279.957 111.28 280.4 111.523C280.844 111.761 281.188 112.125 281.435 112.614C281.681 113.098 281.804 113.712 281.804 114.455V120H280.463V114.545C280.463 113.86 280.285 113.326 279.929 112.943C279.573 112.557 279.084 112.364 278.463 112.364C278.035 112.364 277.652 112.456 277.315 112.642C276.982 112.828 276.719 113.098 276.525 113.455C276.332 113.811 276.236 114.242 276.236 114.75ZM289.096 120V108.364H290.437V112.659H290.551C290.649 112.508 290.785 112.314 290.96 112.08C291.138 111.841 291.391 111.629 291.721 111.443C292.054 111.254 292.505 111.159 293.073 111.159C293.808 111.159 294.456 111.343 295.016 111.71C295.577 112.078 296.015 112.598 296.329 113.273C296.643 113.947 296.801 114.742 296.801 115.659C296.801 116.583 296.643 117.384 296.329 118.062C296.015 118.737 295.579 119.259 295.022 119.631C294.465 119.998 293.823 120.182 293.096 120.182C292.535 120.182 292.086 120.089 291.749 119.903C291.412 119.714 291.153 119.5 290.971 119.261C290.789 119.019 290.649 118.818 290.551 118.659H290.391V120H289.096ZM290.414 115.636C290.414 116.295 290.511 116.877 290.704 117.381C290.897 117.881 291.179 118.273 291.551 118.557C291.922 118.837 292.376 118.977 292.914 118.977C293.475 118.977 293.943 118.83 294.318 118.534C294.696 118.235 294.98 117.833 295.17 117.33C295.363 116.822 295.46 116.258 295.46 115.636C295.46 115.023 295.365 114.47 295.176 113.977C294.99 113.481 294.708 113.089 294.329 112.801C293.954 112.509 293.482 112.364 292.914 112.364C292.369 112.364 291.91 112.502 291.539 112.778C291.168 113.051 290.888 113.434 290.698 113.926C290.509 114.415 290.414 114.985 290.414 115.636ZM302.591 120.182C301.75 120.182 301.024 119.996 300.415 119.625C299.809 119.25 299.341 118.727 299.011 118.057C298.685 117.383 298.523 116.598 298.523 115.705C298.523 114.811 298.685 114.023 299.011 113.341C299.341 112.655 299.799 112.121 300.386 111.739C300.977 111.352 301.666 111.159 302.454 111.159C302.909 111.159 303.358 111.235 303.801 111.386C304.244 111.538 304.648 111.784 305.011 112.125C305.375 112.462 305.665 112.909 305.881 113.466C306.096 114.023 306.204 114.708 306.204 115.523V116.091H299.477V114.932H304.841C304.841 114.439 304.742 114 304.545 113.614C304.352 113.227 304.076 112.922 303.716 112.699C303.36 112.475 302.939 112.364 302.454 112.364C301.92 112.364 301.458 112.496 301.068 112.761C300.682 113.023 300.384 113.364 300.176 113.784C299.968 114.205 299.863 114.655 299.863 115.136V115.909C299.863 116.568 299.977 117.127 300.204 117.585C300.435 118.04 300.756 118.386 301.165 118.625C301.574 118.86 302.049 118.977 302.591 118.977C302.943 118.977 303.261 118.928 303.545 118.83C303.833 118.727 304.081 118.576 304.29 118.375C304.498 118.17 304.659 117.917 304.773 117.614L306.068 117.977C305.932 118.417 305.702 118.803 305.381 119.136C305.059 119.466 304.661 119.723 304.187 119.909C303.714 120.091 303.182 120.182 302.591 120.182ZM315.472 120.205C314.919 120.205 314.417 120.1 313.967 119.892C313.516 119.68 313.158 119.375 312.893 118.977C312.628 118.576 312.495 118.091 312.495 117.523C312.495 117.023 312.594 116.617 312.791 116.307C312.987 115.992 313.251 115.746 313.58 115.568C313.91 115.39 314.273 115.258 314.671 115.17C315.073 115.08 315.476 115.008 315.881 114.955C316.412 114.886 316.842 114.835 317.171 114.801C317.505 114.763 317.747 114.701 317.898 114.614C318.054 114.527 318.131 114.375 318.131 114.159V114.114C318.131 113.553 317.978 113.117 317.671 112.807C317.368 112.496 316.908 112.341 316.291 112.341C315.65 112.341 315.148 112.481 314.785 112.761C314.421 113.042 314.166 113.341 314.018 113.659L312.745 113.205C312.972 112.674 313.275 112.261 313.654 111.966C314.037 111.667 314.453 111.458 314.904 111.341C315.359 111.22 315.806 111.159 316.245 111.159C316.525 111.159 316.847 111.193 317.211 111.261C317.578 111.326 317.933 111.46 318.273 111.665C318.618 111.869 318.904 112.178 319.131 112.591C319.359 113.004 319.472 113.557 319.472 114.25V120H318.131V118.818H318.063C317.972 119.008 317.821 119.21 317.609 119.426C317.397 119.642 317.114 119.826 316.762 119.977C316.41 120.129 315.98 120.205 315.472 120.205ZM315.677 119C316.207 119 316.654 118.896 317.018 118.688C317.385 118.479 317.662 118.21 317.847 117.881C318.037 117.551 318.131 117.205 318.131 116.841V115.614C318.075 115.682 317.95 115.744 317.756 115.801C317.567 115.854 317.347 115.902 317.097 115.943C316.851 115.981 316.611 116.015 316.376 116.045C316.145 116.072 315.957 116.095 315.813 116.114C315.465 116.159 315.139 116.233 314.836 116.335C314.537 116.434 314.294 116.583 314.109 116.784C313.927 116.981 313.836 117.25 313.836 117.591C313.836 118.057 314.008 118.409 314.353 118.648C314.702 118.883 315.143 119 315.677 119ZM328.824 111.273L325.596 120H324.233L321.005 111.273H322.46L324.869 118.227H324.96L327.369 111.273H328.824ZM332.976 120.205C332.423 120.205 331.921 120.1 331.47 119.892C331.02 119.68 330.662 119.375 330.397 118.977C330.131 118.576 329.999 118.091 329.999 117.523C329.999 117.023 330.097 116.617 330.294 116.307C330.491 115.992 330.754 115.746 331.084 115.568C331.414 115.39 331.777 115.258 332.175 115.17C332.576 115.08 332.98 115.008 333.385 114.955C333.915 114.886 334.345 114.835 334.675 114.801C335.008 114.763 335.251 114.701 335.402 114.614C335.558 114.527 335.635 114.375 335.635 114.159V114.114C335.635 113.553 335.482 113.117 335.175 112.807C334.872 112.496 334.412 112.341 333.794 112.341C333.154 112.341 332.652 112.481 332.289 112.761C331.925 113.042 331.669 113.341 331.522 113.659L330.249 113.205C330.476 112.674 330.779 112.261 331.158 111.966C331.54 111.667 331.957 111.458 332.408 111.341C332.862 111.22 333.309 111.159 333.749 111.159C334.029 111.159 334.351 111.193 334.715 111.261C335.082 111.326 335.436 111.46 335.777 111.665C336.122 111.869 336.408 112.178 336.635 112.591C336.862 113.004 336.976 113.557 336.976 114.25V120H335.635V118.818H335.567C335.476 119.008 335.325 119.21 335.112 119.426C334.9 119.642 334.618 119.826 334.266 119.977C333.914 120.129 333.484 120.205 332.976 120.205ZM333.181 119C333.711 119 334.158 118.896 334.522 118.688C334.889 118.479 335.165 118.21 335.351 117.881C335.54 117.551 335.635 117.205 335.635 116.841V115.614C335.578 115.682 335.453 115.744 335.26 115.801C335.071 115.854 334.851 115.902 334.601 115.943C334.355 115.981 334.114 116.015 333.879 116.045C333.648 116.072 333.461 116.095 333.317 116.114C332.969 116.159 332.643 116.233 332.34 116.335C332.04 116.434 331.798 116.583 331.612 116.784C331.431 116.981 331.34 117.25 331.34 117.591C331.34 118.057 331.512 118.409 331.857 118.648C332.205 118.883 332.647 119 333.181 119ZM339.504 120V111.273H340.844V120H339.504ZM340.185 109.818C339.924 109.818 339.699 109.729 339.509 109.551C339.324 109.373 339.231 109.159 339.231 108.909C339.231 108.659 339.324 108.445 339.509 108.267C339.699 108.089 339.924 108 340.185 108C340.447 108 340.67 108.089 340.856 108.267C341.045 108.445 341.14 108.659 341.14 108.909C341.14 109.159 341.045 109.373 340.856 109.551C340.67 109.729 340.447 109.818 340.185 109.818ZM344.721 108.364V120H343.38V108.364H344.721ZM349.825 120.205C349.272 120.205 348.771 120.1 348.32 119.892C347.869 119.68 347.511 119.375 347.246 118.977C346.981 118.576 346.848 118.091 346.848 117.523C346.848 117.023 346.947 116.617 347.144 116.307C347.341 115.992 347.604 115.746 347.933 115.568C348.263 115.39 348.627 115.258 349.024 115.17C349.426 115.08 349.829 115.008 350.235 114.955C350.765 114.886 351.195 114.835 351.524 114.801C351.858 114.763 352.1 114.701 352.252 114.614C352.407 114.527 352.485 114.375 352.485 114.159V114.114C352.485 113.553 352.331 113.117 352.024 112.807C351.721 112.496 351.261 112.341 350.644 112.341C350.003 112.341 349.502 112.481 349.138 112.761C348.774 113.042 348.519 113.341 348.371 113.659L347.098 113.205C347.325 112.674 347.628 112.261 348.007 111.966C348.39 111.667 348.807 111.458 349.257 111.341C349.712 111.22 350.159 111.159 350.598 111.159C350.878 111.159 351.2 111.193 351.564 111.261C351.932 111.326 352.286 111.46 352.627 111.665C352.971 111.869 353.257 112.178 353.485 112.591C353.712 113.004 353.825 113.557 353.825 114.25V120H352.485V118.818H352.416C352.325 119.008 352.174 119.21 351.962 119.426C351.75 119.642 351.467 119.826 351.115 119.977C350.763 120.129 350.333 120.205 349.825 120.205ZM350.03 119C350.56 119 351.007 118.896 351.371 118.688C351.738 118.479 352.015 118.21 352.2 117.881C352.39 117.551 352.485 117.205 352.485 116.841V115.614C352.428 115.682 352.303 115.744 352.11 115.801C351.92 115.854 351.7 115.902 351.45 115.943C351.204 115.981 350.964 116.015 350.729 116.045C350.498 116.072 350.31 116.095 350.166 116.114C349.818 116.159 349.492 116.233 349.189 116.335C348.89 116.434 348.647 116.583 348.462 116.784C348.28 116.981 348.189 117.25 348.189 117.591C348.189 118.057 348.361 118.409 348.706 118.648C349.055 118.883 349.496 119 350.03 119ZM356.535 120V108.364H357.876V112.659H357.989C358.088 112.508 358.224 112.314 358.398 112.08C358.576 111.841 358.83 111.629 359.16 111.443C359.493 111.254 359.944 111.159 360.512 111.159C361.247 111.159 361.895 111.343 362.455 111.71C363.016 112.078 363.453 112.598 363.768 113.273C364.082 113.947 364.239 114.742 364.239 115.659C364.239 116.583 364.082 117.384 363.768 118.062C363.453 118.737 363.018 119.259 362.461 119.631C361.904 119.998 361.262 120.182 360.535 120.182C359.974 120.182 359.525 120.089 359.188 119.903C358.851 119.714 358.592 119.5 358.41 119.261C358.228 119.019 358.088 118.818 357.989 118.659H357.83V120H356.535ZM357.853 115.636C357.853 116.295 357.949 116.877 358.143 117.381C358.336 117.881 358.618 118.273 358.989 118.557C359.36 118.837 359.815 118.977 360.353 118.977C360.913 118.977 361.381 118.83 361.756 118.534C362.135 118.235 362.419 117.833 362.609 117.33C362.802 116.822 362.898 116.258 362.898 115.636C362.898 115.023 362.804 114.47 362.614 113.977C362.429 113.481 362.146 113.089 361.768 112.801C361.393 112.509 360.921 112.364 360.353 112.364C359.807 112.364 359.349 112.502 358.978 112.778C358.607 113.051 358.326 113.434 358.137 113.926C357.948 114.415 357.853 114.985 357.853 115.636ZM367.711 108.364V120H366.37V108.364H367.711ZM373.906 120.182C373.065 120.182 372.34 119.996 371.73 119.625C371.124 119.25 370.656 118.727 370.327 118.057C370.001 117.383 369.838 116.598 369.838 115.705C369.838 114.811 370.001 114.023 370.327 113.341C370.656 112.655 371.115 112.121 371.702 111.739C372.293 111.352 372.982 111.159 373.77 111.159C374.225 111.159 374.673 111.235 375.117 111.386C375.56 111.538 375.963 111.784 376.327 112.125C376.69 112.462 376.98 112.909 377.196 113.466C377.412 114.023 377.52 114.708 377.52 115.523V116.091H370.793V114.932H376.156C376.156 114.439 376.058 114 375.861 113.614C375.668 113.227 375.391 112.922 375.031 112.699C374.675 112.475 374.255 112.364 373.77 112.364C373.236 112.364 372.774 112.496 372.384 112.761C371.997 113.023 371.7 113.364 371.492 113.784C371.283 114.205 371.179 114.655 371.179 115.136V115.909C371.179 116.568 371.293 117.127 371.52 117.585C371.751 118.04 372.071 118.386 372.48 118.625C372.889 118.86 373.365 118.977 373.906 118.977C374.259 118.977 374.577 118.928 374.861 118.83C375.149 118.727 375.397 118.576 375.605 118.375C375.814 118.17 375.975 117.917 376.088 117.614L377.384 117.977C377.247 118.417 377.018 118.803 376.696 119.136C376.374 119.466 375.976 119.723 375.503 119.909C375.029 120.091 374.497 120.182 373.906 120.182Z" fill="#666666"/>
<g clip-path="url(#clip1_4718_14448)">
<path fill-rule="evenodd" clip-rule="evenodd" d="M774.551 -71.5769C889.388 -69.1322 1019.43 -43.7296 1054.37 65.6292C1088.97 173.925 1000.05 273.569 904.556 335.334C826.031 386.125 730.061 376.388 650.897 326.598C545.957 260.596 418.715 171.23 455.469 52.8798C492.886 -67.6065 648.353 -74.2634 774.551 -71.5769Z" fill="#F9FBFF"/>
<path fill-rule="evenodd" clip-rule="evenodd" d="M849.429 -41.2075C734.399 -42.5177 581.353 -52.5165 553.863 59.3954C527.715 165.845 686.952 193.163 776.321 256.42C859.026 314.961 928.9 436.359 1017.8 387.784C1127.39 327.91 1170.69 182.279 1125.01 65.9012C1085.15 -35.6635 958.355 -39.9667 849.429 -41.2075Z" fill="#EDF4FF"/>
<path d="M773.797 196.016H609.357V291.328H773.797V196.016Z" fill="white"/>
<path d="M773.796 291.618H609.358C609.196 291.618 609.066 291.488 609.066 291.327V196.015C609.066 195.853 609.196 195.724 609.358 195.724H773.796C773.958 195.724 774.087 195.853 774.087 196.015V291.327C774.087 291.488 773.958 291.618 773.796 291.618ZM609.648 291.036H773.505V196.305H609.648V291.036Z" fill="black"/>
<path d="M774.98 192.289C772.921 188.052 769.823 184.352 766.182 181.378C762.517 178.387 758.278 176.104 753.805 174.571C751.501 173.782 749.133 173.183 746.73 172.789C744.181 172.371 741.6 172.142 739.064 171.642C736.476 171.133 733.894 170.316 731.758 168.722C729.595 167.109 727.974 164.913 726.391 162.758C723.194 158.406 720.105 153.888 715.975 150.344C712.17 147.077 707.226 144.718 702.119 144.887C697.343 145.047 692.889 147.506 690.409 151.486C683.973 161.814 685.168 175.961 685.541 179.975C686.025 185.173 687.425 190.267 689.42 195.083C691.463 200.021 694.145 204.68 697.213 209.051C700.265 213.4 703.666 217.559 707.482 221.262C711.22 224.888 715.424 228.031 720.119 230.315C724.526 232.458 729.286 233.88 734.139 234.561C738.996 235.243 743.966 235.19 748.805 234.377C753.664 233.561 758.399 231.981 762.731 229.631C767.189 227.212 771.262 223.946 774.025 219.65C776.58 215.676 777.861 210.965 777.993 206.263C778.128 201.459 777.083 196.609 774.982 192.285L774.98 192.289Z" fill="black"/>
<path d="M644.699 204.719L661.922 173.924L650.456 170.433L634.487 202.748L644.699 204.719Z" fill="#E2EAFF"/>
<path d="M659.864 176.68H648.59V156.227H659.864C663.408 156.227 666.286 159.1 666.286 162.639V170.269C666.286 173.808 663.408 176.682 659.864 176.682V176.68Z" fill="white"/>
<path d="M659.865 176.971H648.593C648.432 176.971 648.302 176.841 648.302 176.68V156.226C648.302 156.065 648.432 155.936 648.593 155.936H659.865C663.567 155.936 666.579 158.943 666.579 162.639V170.269C666.579 173.965 663.567 176.972 659.865 176.972V176.971ZM648.883 176.389H659.865C663.245 176.389 665.996 173.644 665.996 170.268V162.637C665.996 159.263 663.246 156.516 659.865 156.516H648.883V176.388V176.389Z" fill="black"/>
<path d="M577.928 140.64C577.928 140.64 580.513 131.93 587.601 132.687C592.776 133.24 625.723 144.56 643.133 150.631C649.575 152.876 653.887 158.944 653.887 165.755C653.887 173.941 647.707 180.81 639.555 181.685L585.592 187.475C585.592 187.475 579.495 187.763 576.832 179.217C574.168 170.672 577.928 140.642 577.928 140.642V140.64Z" fill="white"/>
<path d="M585.563 187.762C584.905 187.762 579.114 187.515 576.553 179.301C573.902 170.794 577.486 141.832 577.64 140.603C577.641 140.587 577.645 140.571 577.649 140.556C577.675 140.468 580.383 131.619 587.633 132.397C592.771 132.946 624.672 143.883 643.23 150.355C649.778 152.639 654.178 158.828 654.178 165.755C654.178 174.108 647.906 181.08 639.586 181.973L585.624 187.762C585.624 187.762 585.599 187.762 585.563 187.762ZM578.214 140.7C578.089 141.72 574.528 170.846 577.11 179.128C579.669 187.34 585.336 187.191 585.579 187.182L639.524 181.395C647.547 180.534 653.596 173.811 653.596 165.755C653.596 159.075 649.353 153.107 643.038 150.905C624.504 144.443 592.652 133.52 587.571 132.976C580.979 132.273 578.364 140.226 578.214 140.7Z" fill="black"/>
<path d="M585.669 187.475C593.789 187.475 600.371 175.154 600.371 159.956C600.371 144.757 593.789 132.437 585.669 132.437C577.549 132.437 570.967 144.757 570.967 159.956C570.967 175.154 577.549 187.475 585.669 187.475Z" fill="white"/>
<path d="M585.668 187.765C577.401 187.765 570.675 175.289 570.675 159.955C570.675 144.62 577.401 132.145 585.668 132.145C593.936 132.145 600.662 144.62 600.662 159.955C600.662 175.289 593.936 187.765 585.668 187.765ZM585.668 132.725C577.723 132.725 571.258 144.94 571.258 159.953C571.258 174.967 577.723 187.182 585.668 187.182C593.614 187.182 600.079 174.967 600.079 159.953C600.079 144.94 593.614 132.725 585.668 132.725Z" fill="black"/>
<path d="M595.245 171.401C595.245 171.401 595.233 171.401 595.226 171.401C591.16 171.147 587.312 168.481 585.65 164.768C583.989 161.055 584.569 156.414 587.092 153.221C589.617 150.028 594.004 148.387 598.008 149.14C598.165 149.169 598.27 149.321 598.24 149.48C598.21 149.637 598.057 149.742 597.899 149.711C594.102 148.998 589.943 150.553 587.549 153.58C585.155 156.607 584.605 161.008 586.181 164.529C587.756 168.05 591.405 170.579 595.261 170.819C595.421 170.83 595.543 170.967 595.534 171.127C595.524 171.282 595.396 171.4 595.243 171.4L595.245 171.401Z" fill="black"/>
<path d="M584.763 186.215C584.682 186.215 584.6 186.18 584.543 186.114C579.416 180.211 576.026 172.693 574.999 164.948C573.971 157.201 575.282 149.063 578.693 142.03C580.695 137.901 583.053 135.47 585.901 134.598C586.054 134.55 586.217 134.638 586.265 134.792C586.313 134.945 586.225 135.108 586.072 135.155C583.387 135.976 581.144 138.309 579.217 142.284C575.857 149.215 574.563 157.238 575.576 164.872C576.589 172.507 579.93 179.915 584.983 185.733C585.087 185.855 585.076 186.039 584.954 186.143C584.898 186.191 584.83 186.215 584.763 186.215Z" fill="black"/>
<path d="M639.003 246.76C651.671 249.097 672.595 233.852 672.595 233.852C678.131 258.436 680.298 268.171 682.446 278.881H751.739C751.575 273.29 750.633 269.053 750.633 269.053C751.163 268.942 751.719 268.779 752.291 268.575C761.475 265.284 766.023 254.97 762.54 245.87C757.347 232.297 749.666 215.153 745.106 205.2C742.61 199.753 737.569 195.907 731.652 194.915C714.595 192.055 695.221 192.576 684.205 193.241C678.535 193.584 673.103 195.628 668.614 199.102L650.986 212.745L655.302 200.775C646.164 193.149 628.897 201.865 628.897 201.865L624.256 211.954C618.594 223.771 618.789 243.031 639.002 246.76H639.003Z" fill="#5479F7"/>
<path d="M646.899 222.873C646.862 222.873 646.825 222.867 646.789 222.852C646.64 222.791 646.569 222.622 646.63 222.473L650.069 214.067C650.13 213.918 650.299 213.848 650.449 213.909C650.599 213.969 650.669 214.139 650.609 214.288L647.171 222.693C647.124 222.806 647.016 222.875 646.901 222.875L646.899 222.873Z" fill="black"/>
<path d="M711.511 235.133C702.463 231.13 692.516 227.948 682.783 229.729C681.878 229.895 680.951 230.117 680.219 230.672C679.488 231.228 678.93 231.829 679.202 232.706C679.473 233.583 680.318 233.924 681.46 233.883C680.423 234.249 679.326 234.658 678.661 235.532C677.996 236.406 678.032 237.898 679.009 238.4C679.476 238.64 680.031 238.604 680.554 238.563C683.366 238.341 686.178 238.117 688.99 237.895C688.097 238.592 686.89 238.687 685.762 238.784C684.633 238.88 683.416 239.044 682.6 239.83C681.784 240.614 681.73 242.234 682.758 242.707C683.192 242.907 683.696 242.859 684.171 242.807C686.457 242.554 688.743 242.301 691.031 242.049C690.235 242.768 689.171 243.093 688.157 243.444C687.143 243.794 686.093 244.228 685.439 245.078C684.784 245.927 684.713 247.312 685.559 247.971C686.445 248.658 687.708 248.234 688.806 247.998C693.051 247.085 697.228 249.528 700.822 251.96C706.583 255.86 712.215 260.015 718.239 263.469C720.833 256.876 724.123 247.869 726.139 241.808C721.215 239.721 716.401 237.297 711.511 235.134V235.133Z" fill="white"/>
<path d="M739.047 246.31C739.027 246.31 739.008 246.307 738.988 246.303C735.059 245.505 730.939 244.161 726.023 242.078C725.874 242.016 725.805 241.844 725.868 241.698C725.931 241.549 726.102 241.482 726.249 241.543C731.129 243.611 735.213 244.943 739.104 245.734C739.261 245.765 739.363 245.919 739.331 246.076C739.304 246.214 739.182 246.309 739.047 246.309V246.31Z" fill="black"/>
<path d="M742.45 271.208C735.197 271.208 728.43 268.869 723.528 266.568C721.761 265.739 719.982 264.808 718.091 263.723C717.952 263.643 717.903 263.466 717.983 263.327C718.063 263.188 718.242 263.139 718.381 263.22C720.259 264.296 722.023 265.219 723.775 266.042C730.252 269.082 740.023 272.193 749.794 269.746C749.948 269.707 750.108 269.801 750.148 269.957C750.188 270.113 750.092 270.271 749.936 270.31C747.421 270.941 744.906 271.21 742.449 271.21L742.45 271.208Z" fill="black"/>
<path d="M735.079 245.387C734.949 245.387 734.832 245.299 734.797 245.169L731.441 232.134C731.401 231.978 731.495 231.819 731.65 231.779C731.806 231.741 731.965 231.833 732.005 231.988L735.361 245.023C735.401 245.179 735.307 245.338 735.152 245.377C735.128 245.384 735.103 245.387 735.079 245.387Z" fill="black"/>
<path d="M682.448 234.143C682.309 234.143 682.186 234.043 682.161 233.901C682.133 233.743 682.24 233.593 682.399 233.565C684.396 233.223 686.436 233.007 688.46 232.925C688.615 232.915 688.757 233.044 688.763 233.204C688.77 233.364 688.644 233.501 688.484 233.507C686.485 233.588 684.472 233.801 682.498 234.138C682.482 234.141 682.465 234.142 682.449 234.142L682.448 234.143Z" fill="black"/>
<path d="M651.88 210.272C651.88 210.272 636.081 212.45 627.057 205.87L628.899 201.864C628.899 201.864 626.516 199.513 628.93 198.651C628.93 198.651 626.684 194.184 630.584 193.919C630.584 193.919 627.989 188.093 633.981 189.2C633.981 189.2 630.381 182.626 637.094 184.216C642.405 185.473 643.514 187.2 643.514 187.2C643.514 187.2 640.55 179.875 644.265 180.633C645.432 180.871 647.216 181.641 649.099 182.811C655.152 186.575 657.717 194.077 655.302 200.776L651.878 210.273L651.88 210.272Z" fill="white"/>
<path d="M651.878 210.563C651.845 210.563 651.812 210.558 651.779 210.546C651.628 210.492 651.548 210.325 651.604 210.175L655.028 200.677C657.39 194.127 654.832 186.716 648.946 183.057C647.186 181.964 645.415 181.164 644.207 180.918C643.642 180.803 643.253 180.887 643.013 181.174C642.117 182.251 643.265 185.811 643.783 187.091C643.84 187.23 643.78 187.39 643.646 187.458C643.513 187.527 643.348 187.483 643.268 187.356C643.258 187.342 642.107 185.701 637.025 184.499C635.263 184.082 634.116 184.204 633.616 184.86C632.812 185.911 633.791 188.249 634.234 189.061C634.289 189.159 634.281 189.281 634.214 189.372C634.148 189.463 634.037 189.507 633.926 189.487C632.322 189.191 631.241 189.38 630.712 190.048C629.743 191.273 630.836 193.777 630.848 193.802C630.886 193.889 630.879 193.988 630.83 194.07C630.781 194.151 630.695 194.204 630.6 194.21C629.715 194.27 629.115 194.566 628.816 195.09C628.103 196.337 629.175 198.5 629.185 198.523C629.222 198.597 629.226 198.684 629.196 198.761C629.164 198.838 629.102 198.898 629.024 198.926C628.52 199.106 628.229 199.364 628.156 199.692C628.001 200.39 628.784 201.349 629.099 201.66C629.187 201.746 629.21 201.876 629.159 201.988L627.316 205.993C627.249 206.139 627.075 206.202 626.93 206.136C626.784 206.068 626.719 205.897 626.787 205.75L628.547 201.923C628.204 201.541 627.379 200.502 627.587 199.566C627.689 199.109 628.006 198.75 628.535 198.499C628.241 197.809 627.609 196.026 628.31 194.802C628.662 194.187 629.286 193.807 630.168 193.674C629.873 192.859 629.308 190.885 630.253 189.689C630.855 188.927 631.935 188.639 633.469 188.828C633.022 187.848 632.229 185.713 633.15 184.508C633.804 183.652 635.151 183.459 637.158 183.934C640.23 184.661 641.931 185.551 642.834 186.193C642.318 184.632 641.625 181.929 642.563 180.803C642.947 180.342 643.538 180.188 644.321 180.349C645.592 180.608 647.436 181.436 649.25 182.565C655.368 186.369 658.027 194.069 655.572 200.875L652.148 210.373C652.106 210.492 651.994 210.565 651.874 210.565L651.878 210.563Z" fill="black"/>
<path d="M648.282 198.159L641.701 210.896C640.576 213.073 637.968 214.024 635.703 213.083C633.261 212.069 632.133 209.247 633.204 206.832L633.635 205.862C633.635 205.862 638.498 206.742 636.591 203.489C636.591 203.489 642.097 204.145 639.375 199.849C639.375 199.849 640.727 200.296 641.923 199.752C643.672 198.957 645.088 196.737 641.461 193.616C644.265 194.832 646.898 194.348 646.898 194.348C646.898 194.348 647.604 196.799 648.282 198.159Z" fill="#E2EAFF"/>
<path d="M643.687 195.127C643.641 195.127 643.592 195.115 643.548 195.091C640.679 193.532 637.805 191.888 635.004 190.205C634.866 190.123 634.821 189.943 634.904 189.805C634.988 189.668 635.167 189.623 635.304 189.706C638.098 191.384 640.965 193.024 643.826 194.579C643.968 194.656 644.02 194.833 643.943 194.973C643.89 195.07 643.79 195.125 643.687 195.125V195.127Z" fill="black"/>
<path d="M641.984 201.754C641.938 201.754 641.892 201.744 641.849 201.721C638.043 199.715 634.309 197.47 630.751 195.048C630.619 194.959 630.584 194.777 630.674 194.644C630.766 194.51 630.946 194.477 631.08 194.567C634.619 196.975 638.334 199.209 642.121 201.206C642.262 201.281 642.318 201.457 642.243 201.598C642.19 201.697 642.089 201.753 641.984 201.753V201.754Z" fill="black"/>
<path d="M638.611 204.827C638.563 204.827 638.515 204.815 638.47 204.791L630.226 200.254C630.085 200.176 630.034 200 630.111 199.859C630.189 199.717 630.367 199.667 630.507 199.744L638.751 204.281C638.893 204.359 638.943 204.535 638.866 204.676C638.813 204.773 638.714 204.827 638.611 204.827Z" fill="black"/>
<path d="M646.406 195C646.253 195 646.124 194.879 646.115 194.723C646.107 194.563 646.23 194.426 646.39 194.418C647.143 194.379 647.704 193.574 647.756 192.847C647.805 192.155 647.543 191.396 646.953 190.527C645.906 188.983 644.374 187.749 642.641 187.055C642.491 186.995 642.419 186.826 642.479 186.676C642.539 186.527 642.709 186.456 642.858 186.515C644.698 187.253 646.323 188.562 647.435 190.202C648.102 191.183 648.396 192.063 648.336 192.889C648.267 193.86 647.514 194.943 646.419 195C646.414 195 646.409 195 646.404 195H646.406Z" fill="black"/>
<path d="M709.399 171.882L710.828 190.835C712.749 192.006 722.12 194.186 722.12 194.186C709.382 197.887 696.123 197.67 682.446 194.295C682.446 194.295 694.326 192.202 695.678 190.894L696.445 176.246L709.398 171.882H709.399Z" fill="white"/>
<path d="M711.669 168.268C710.421 167.753 709.049 168.255 708.029 169.023C707.538 169.393 707.253 169.979 706.584 169.867C706.056 169.778 705.629 169.221 705.509 168.731C705.337 168.031 705.547 167.302 705.756 166.613C706.168 165.253 706.58 163.893 706.992 162.533C707.139 162.047 707.284 161.505 707.061 161.049C706.73 160.365 705.816 160.269 705.057 160.22C701.033 159.958 697.106 158.393 694.008 155.817C687.886 164.797 685.54 179.978 690.927 182.096C699.599 185.507 705.346 176.603 706.113 176.087C706.662 175.717 707.375 175.739 708.037 175.705C709.314 175.639 710.603 175.299 711.641 174.556C712.681 173.813 713.444 172.632 713.508 171.357C713.571 170.082 712.851 168.756 711.669 168.269V168.268Z" fill="white"/>
<path d="M694.837 183.158C693.579 183.158 692.237 182.922 690.82 182.366C689.585 181.88 688.69 180.766 688.161 179.052C686.443 173.486 689.062 162.551 693.767 155.652C693.813 155.584 693.886 155.539 693.967 155.527C694.047 155.516 694.131 155.539 694.193 155.592C697.246 158.131 701.111 159.671 705.075 159.928C705.758 159.973 706.898 160.047 707.322 160.92C707.584 161.46 707.44 162.053 707.269 162.616L706.033 166.696C705.845 167.317 705.632 168.019 705.789 168.66C705.885 169.05 706.234 169.512 706.63 169.578C706.947 169.631 707.128 169.471 707.444 169.157C707.568 169.033 707.698 168.905 707.852 168.79C709.167 167.799 710.599 167.511 711.779 167.998C713.021 168.509 713.87 169.927 713.797 171.368C713.732 172.667 712.989 173.946 711.809 174.79C710.816 175.5 709.515 175.916 708.05 175.993L707.792 176.005C707.222 176.029 706.685 176.05 706.273 176.326C706.196 176.378 705.946 176.667 705.703 176.948C704.241 178.642 700.347 183.156 694.834 183.156L694.837 183.158ZM694.07 156.243C689.561 163.029 687.065 173.525 688.718 178.88C689.192 180.415 689.971 181.406 691.033 181.823C698.277 184.673 703.352 178.785 705.265 176.568C705.641 176.132 705.813 175.935 705.95 175.844C706.499 175.475 707.175 175.447 707.771 175.423L708.022 175.411C709.376 175.341 710.57 174.961 711.473 174.316C712.509 173.576 713.162 172.462 713.217 171.339C713.278 170.135 712.58 168.955 711.558 168.535C710.159 167.958 708.747 168.845 708.204 169.254C708.082 169.345 707.972 169.455 707.857 169.57C707.532 169.893 707.163 170.258 706.536 170.153C705.866 170.041 705.369 169.388 705.225 168.799C705.029 168.003 705.278 167.184 705.477 166.527L706.712 162.446C706.856 161.975 706.969 161.525 706.799 161.173C706.543 160.648 705.789 160.555 705.038 160.508C701.059 160.25 697.177 158.737 694.071 156.243H694.07Z" fill="black"/>
<path d="M706.693 173.478C706.596 173.478 706.501 173.429 706.445 173.341C706.361 173.205 706.402 173.025 706.538 172.94C707.571 172.299 708.803 172.034 710.008 172.196C710.167 172.217 710.28 172.364 710.259 172.522C710.238 172.681 710.094 172.792 709.932 172.772C708.877 172.631 707.751 172.871 706.848 173.433C706.8 173.464 706.747 173.477 706.694 173.477L706.693 173.478Z" fill="black"/>
<path d="M540.63 258.409H506.328C506.166 258.409 506.036 258.28 506.036 258.118C506.036 257.957 506.166 257.827 506.328 257.827H540.339V222.157C540.339 221.995 540.468 221.866 540.63 221.866H588.468V194.559C588.468 194.398 588.598 194.269 588.759 194.269C588.921 194.269 589.051 194.398 589.051 194.559V222.157C589.051 222.318 588.921 222.448 588.759 222.448H540.921V258.118C540.921 258.28 540.792 258.409 540.63 258.409Z" fill="black"/>
<path d="M643.465 145.138C643.304 145.138 643.174 145.008 643.174 144.847V137.963C643.174 137.802 643.304 137.673 643.465 137.673H679.215V108.2C679.215 108.039 679.345 107.909 679.507 107.909H759.487C759.648 107.909 759.778 108.039 759.778 108.2C759.778 108.361 759.648 108.491 759.487 108.491H679.798V137.963C679.798 138.125 679.668 138.254 679.507 138.254H643.757V144.847C643.757 145.008 643.627 145.138 643.465 145.138Z" fill="black"/>
<path d="M721.969 91.9892L749.389 82.1413L721.969 72.292V91.9892Z" fill="#D6E1FF"/>
<path d="M720.525 108.489C720.363 108.489 720.233 108.36 720.233 108.198V72.2909C720.233 72.1296 720.363 72 720.525 72C720.686 72 720.816 72.1296 720.816 72.2909V108.199C720.816 108.361 720.686 108.49 720.525 108.49V108.489Z" fill="black"/>
<path d="M616.985 263.341C616.741 263.382 616.505 263.44 616.275 263.508C615.291 261.234 613.983 259.156 612.414 257.321C612.577 257.144 612.733 256.959 612.876 256.758C614.803 254.068 614.181 250.327 611.487 248.404C608.792 246.48 605.045 247.102 603.12 249.792C602.977 249.993 602.851 250.2 602.735 250.411C600.49 249.521 598.097 248.957 595.624 248.763C595.613 248.522 595.594 248.281 595.553 248.038C595.01 244.776 591.921 242.57 588.653 243.112C585.386 243.654 583.176 246.738 583.719 250.001C583.76 250.244 583.819 250.479 583.886 250.709C581.609 251.692 579.527 252.997 577.69 254.564C577.513 254.402 577.327 254.246 577.126 254.103C574.432 252.179 570.685 252.8 568.759 255.49C566.832 258.18 567.454 261.921 570.148 263.844C570.35 263.986 570.557 264.112 570.768 264.227C569.877 266.469 569.312 268.858 569.118 271.327C568.877 271.338 568.636 271.357 568.392 271.398C565.124 271.941 562.915 275.024 563.458 278.287C564.001 281.549 567.09 283.755 570.357 283.213C570.601 283.172 570.837 283.114 571.067 283.046C572.052 285.319 573.359 287.398 574.928 289.232C574.765 289.41 574.609 289.595 574.466 289.796C572.539 292.485 573.161 296.227 575.856 298.149C578.55 300.073 582.297 299.452 584.223 296.762C584.366 296.561 584.491 296.354 584.607 296.143C586.852 297.033 589.245 297.597 591.718 297.791C591.729 298.032 591.749 298.272 591.79 298.516C592.333 301.778 595.421 303.984 598.689 303.442C601.957 302.899 604.166 299.816 603.623 296.553C603.582 296.31 603.524 296.074 603.456 295.844C605.733 294.862 607.815 293.557 609.652 291.99C609.83 292.152 610.015 292.308 610.216 292.451C612.91 294.375 616.658 293.754 618.583 291.064C620.511 288.374 619.888 284.633 617.194 282.71C616.993 282.567 616.785 282.442 616.574 282.327C617.465 280.085 618.03 277.696 618.224 275.227C618.465 275.216 618.707 275.196 618.95 275.155C622.218 274.613 624.427 271.529 623.884 268.267C623.341 265.005 620.252 262.799 616.985 263.341ZM595.496 284.247C589.428 285.253 583.69 281.158 582.683 275.099C581.676 269.039 585.779 263.312 591.847 262.307C597.916 261.301 603.652 265.396 604.659 271.455C605.667 277.515 601.563 283.242 595.496 284.247Z" fill="white"/>
<path d="M597.702 303.812C594.684 303.812 592.012 301.63 591.501 298.561C591.474 298.403 591.454 298.237 591.441 298.057C589.14 297.852 586.887 297.33 584.735 296.503C584.644 296.658 584.552 296.798 584.46 296.929C582.442 299.744 578.507 300.398 575.686 298.384C572.866 296.37 572.212 292.439 574.229 289.624C574.322 289.494 574.425 289.363 574.543 289.226C573.063 287.461 571.84 285.501 570.902 283.391C570.727 283.436 570.564 283.471 570.405 283.497C566.984 284.066 563.739 281.748 563.171 278.332C562.602 274.916 564.923 271.676 568.344 271.109C568.502 271.083 568.669 271.063 568.849 271.049C569.054 268.752 569.577 266.502 570.405 264.354C570.25 264.263 570.11 264.172 569.979 264.079C567.157 262.065 566.504 258.135 568.522 255.319C570.539 252.504 574.474 251.851 577.295 253.865C577.426 253.957 577.558 254.062 577.694 254.178C579.462 252.701 581.426 251.479 583.538 250.543C583.493 250.368 583.458 250.206 583.432 250.047C582.864 246.631 585.184 243.391 588.605 242.824C592.029 242.255 595.272 244.574 595.84 247.989C595.866 248.147 595.886 248.313 595.9 248.493C598.2 248.698 600.453 249.221 602.606 250.047C602.697 249.892 602.788 249.752 602.881 249.621C603.859 248.258 605.309 247.355 606.966 247.08C608.623 246.803 610.288 247.191 611.655 248.167C614.476 250.181 615.129 254.111 613.112 256.926C613.019 257.056 612.914 257.188 612.798 257.324C614.277 259.09 615.501 261.051 616.439 263.159C616.614 263.114 616.775 263.079 616.936 263.053C620.358 262.486 623.602 264.802 624.17 268.218C624.738 271.634 622.418 274.874 618.997 275.441C618.838 275.468 618.673 275.487 618.492 275.501C618.287 277.799 617.763 280.048 616.936 282.196C617.091 282.287 617.231 282.379 617.362 282.471C620.183 284.485 620.836 288.415 618.819 291.231C616.802 294.046 612.865 294.699 610.045 292.685C609.914 292.593 609.783 292.488 609.647 292.372C607.878 293.849 605.914 295.071 603.804 296.007C603.849 296.182 603.884 296.344 603.91 296.503C604.478 299.919 602.158 303.159 598.737 303.726C598.39 303.784 598.044 303.812 597.702 303.812ZM584.607 295.85C584.642 295.85 584.679 295.856 584.714 295.87C586.962 296.761 589.326 297.308 591.741 297.499C591.888 297.511 592.003 297.63 592.009 297.777C592.021 298.034 592.043 298.261 592.077 298.467C592.592 301.567 595.537 303.669 598.641 303.153C601.745 302.639 603.851 299.699 603.335 296.6C603.301 296.392 603.248 296.171 603.176 295.925C603.135 295.784 603.206 295.634 603.341 295.576C605.565 294.617 607.624 293.336 609.463 291.768C609.574 291.672 609.741 291.675 609.848 291.774C610.037 291.947 610.214 292.092 610.385 292.215C612.945 294.042 616.516 293.45 618.345 290.895C620.175 288.34 619.582 284.775 617.023 282.947C616.852 282.825 616.659 282.706 616.432 282.582C616.302 282.512 616.247 282.356 616.301 282.22C617.194 279.977 617.742 277.617 617.933 275.204C617.945 275.058 618.064 274.943 618.21 274.936C618.475 274.924 618.695 274.903 618.901 274.869C622.006 274.354 624.112 271.414 623.597 268.315C623.081 265.215 620.134 263.112 617.032 263.628C616.824 263.663 616.61 263.713 616.357 263.787C616.215 263.828 616.065 263.758 616.007 263.623C615.045 261.403 613.762 259.346 612.192 257.511C612.097 257.4 612.1 257.233 612.199 257.126C612.373 256.937 612.517 256.761 612.64 256.59C614.471 254.035 613.877 250.469 611.317 248.643C610.077 247.757 608.566 247.406 607.063 247.656C605.559 247.906 604.243 248.725 603.357 249.962C603.233 250.134 603.114 250.327 602.991 250.551C602.921 250.68 602.766 250.736 602.628 250.682C600.38 249.791 598.016 249.243 595.602 249.053C595.454 249.041 595.339 248.922 595.333 248.775C595.321 248.517 595.3 248.291 595.265 248.085C594.75 244.985 591.805 242.884 588.701 243.398C585.597 243.912 583.491 246.852 584.007 249.952C584.041 250.159 584.094 250.38 584.166 250.626C584.207 250.768 584.136 250.917 584.001 250.975C581.777 251.934 579.718 253.216 577.879 254.784C577.768 254.879 577.601 254.876 577.494 254.777C577.305 254.604 577.128 254.46 576.958 254.337C574.399 252.509 570.826 253.102 568.997 255.657C567.167 258.212 567.76 261.777 570.319 263.604C570.49 263.726 570.683 263.845 570.91 263.969C571.04 264.039 571.095 264.195 571.041 264.332C570.148 266.576 569.6 268.936 569.409 271.347C569.397 271.494 569.278 271.609 569.131 271.615C568.873 271.627 568.646 271.649 568.44 271.683C565.336 272.197 563.23 275.138 563.745 278.237C564.261 281.336 567.209 283.439 570.31 282.923C570.518 282.889 570.738 282.836 570.985 282.765C571.128 282.724 571.277 282.794 571.335 282.929C572.297 285.149 573.58 287.207 575.15 289.041C575.245 289.152 575.242 289.318 575.143 289.426C574.965 289.619 574.825 289.789 574.702 289.961C572.871 292.516 573.465 296.081 576.024 297.909C578.583 299.736 582.154 299.144 583.984 296.589C584.107 296.417 584.226 296.224 584.35 296.001C584.403 295.904 584.502 295.849 584.605 295.849L584.607 295.85ZM593.647 284.69C591.282 284.69 588.983 283.957 587.021 282.558C584.538 280.785 582.895 278.153 582.395 275.146C581.362 268.939 585.58 263.05 591.797 262.02C594.809 261.52 597.836 262.222 600.319 263.996C602.803 265.769 604.445 268.401 604.946 271.408C605.978 277.615 601.761 283.504 595.543 284.534C594.91 284.639 594.276 284.691 593.647 284.691V284.69ZM595.448 283.959C601.349 282.98 605.351 277.392 604.371 271.502C603.391 265.61 597.792 261.614 591.894 262.593C585.993 263.571 581.991 269.16 582.971 275.05C583.951 280.941 589.55 284.937 595.448 283.959Z" fill="black"/>
<path d="M570.336 240.802C570.257 240.815 570.183 240.834 570.109 240.855C569.797 240.131 569.379 239.47 568.881 238.887C568.933 238.83 568.983 238.772 569.028 238.709C569.642 237.853 569.443 236.663 568.586 236.05C567.729 235.438 566.537 235.637 565.924 236.492C565.879 236.556 565.838 236.622 565.802 236.689C565.088 236.406 564.326 236.226 563.539 236.164C563.536 236.088 563.53 236.011 563.517 235.934C563.345 234.896 562.362 234.194 561.322 234.367C560.282 234.539 559.579 235.52 559.753 236.558C559.766 236.635 559.784 236.71 559.806 236.784C559.081 237.097 558.419 237.512 557.835 238.01C557.778 237.959 557.72 237.908 557.656 237.864C556.799 237.251 555.607 237.45 554.994 238.305C554.38 239.161 554.579 240.351 555.436 240.963C555.5 241.008 555.566 241.048 555.633 241.085C555.35 241.798 555.17 242.558 555.108 243.344C555.031 243.348 554.954 243.353 554.877 243.366C553.837 243.538 553.134 244.519 553.308 245.557C553.48 246.595 554.463 247.298 555.502 247.124C555.58 247.111 555.655 247.093 555.729 247.071C556.041 247.795 556.457 248.456 556.957 249.039C556.905 249.096 556.855 249.154 556.81 249.218C556.196 250.073 556.395 251.263 557.252 251.876C558.109 252.488 559.301 252.29 559.914 251.434C559.959 251.371 560 251.304 560.036 251.237C560.75 251.52 561.512 251.7 562.298 251.762C562.302 251.839 562.308 251.915 562.321 251.992C562.493 253.03 563.476 253.732 564.516 253.559C565.555 253.387 566.259 252.406 566.085 251.368C566.072 251.29 566.053 251.216 566.032 251.142C566.757 250.83 567.419 250.414 568.003 249.916C568.06 249.967 568.118 250.018 568.182 250.063C569.039 250.675 570.231 250.477 570.844 249.621C571.457 248.765 571.259 247.575 570.402 246.963C570.338 246.918 570.272 246.878 570.204 246.841C570.488 246.129 570.668 245.368 570.73 244.583C570.807 244.579 570.884 244.573 570.961 244.56C572.001 244.388 572.704 243.407 572.53 242.369C572.358 241.331 571.375 240.629 570.336 240.802ZM563.498 247.454C561.567 247.774 559.742 246.471 559.422 244.543C559.101 242.615 560.406 240.793 562.337 240.473C564.268 240.153 566.093 241.455 566.414 243.383C566.734 245.311 565.43 247.134 563.498 247.454Z" fill="#5479F7"/>
<path d="M475.131 111.484L473.169 124.577L472.063 124.638C472.063 124.638 474.576 132.458 481.117 133.538C487.657 134.619 488.028 124.579 488.028 124.579L483.315 123.969L484.449 114.825L475.131 111.486V111.484Z" fill="white"/>
<path d="M483.141 125.665C483.129 125.665 483.117 125.665 483.105 125.662C482.946 125.642 482.832 125.497 482.852 125.338L484.131 115.018L475.367 111.876L473.458 124.619C473.434 124.777 473.29 124.885 473.127 124.863C472.968 124.84 472.858 124.691 472.882 124.533L474.844 111.44C474.857 111.354 474.907 111.278 474.983 111.233C475.057 111.188 475.148 111.18 475.231 111.21L484.549 114.55C484.677 114.596 484.757 114.724 484.739 114.859L483.432 125.411C483.413 125.558 483.289 125.666 483.143 125.666L483.141 125.665Z" fill="black"/>
<path d="M485.491 124.42C485.483 124.42 485.476 124.42 485.468 124.42L483.293 124.257C483.133 124.246 483.012 124.107 483.024 123.945C483.036 123.785 483.178 123.662 483.337 123.677L485.512 123.84C485.672 123.852 485.793 123.99 485.781 124.152C485.769 124.305 485.642 124.421 485.491 124.421V124.42Z" fill="black"/>
<path d="M489.691 99.73C490.72 98.6602 491.391 97.2016 491.321 95.7192C491.238 93.9432 490.083 92.3153 488.546 91.4174C487.009 90.5195 485.141 90.296 483.377 90.534C481.611 90.7721 479.933 91.4452 478.342 92.2439C476.744 93.0466 475.19 94.0014 473.977 95.3158C472.765 96.6303 471.914 98.3468 471.922 100.135C471.076 100.094 470.394 100.821 469.977 101.558C468.811 103.615 468.738 106.251 469.79 108.368C470.841 110.485 472.987 112.024 475.333 112.342C478.072 112.713 480.876 111.453 482.762 109.435C484.301 107.789 485.276 105.693 485.826 103.525C486.087 102.494 485.969 102.002 486.981 101.546C487.983 101.092 488.924 100.526 489.692 99.7274L489.691 99.73Z" fill="white"/>
<path d="M476.281 112.697C475.949 112.697 475.618 112.676 475.292 112.631C472.837 112.298 470.628 110.714 469.527 108.497C468.427 106.281 468.501 103.567 469.721 101.414C470.237 100.505 470.921 99.9518 471.635 99.8566C471.705 98.2089 472.453 96.5374 473.762 95.1184C475.149 93.6149 476.965 92.6085 478.211 91.983C480.154 91.0071 481.783 90.4543 483.338 90.2454C485.318 89.9796 487.22 90.3062 488.695 91.1671C490.411 92.1695 491.53 93.9084 491.614 95.7056C491.683 97.188 491.059 98.7286 489.903 99.9307C489.197 100.665 488.28 101.28 487.101 101.812C486.419 102.121 486.365 102.392 486.231 103.048C486.198 103.213 486.161 103.397 486.109 103.599C485.489 106.044 484.435 108.074 482.975 109.636C481.161 111.576 478.672 112.697 476.284 112.697H476.281ZM471.852 100.424C471.04 100.424 470.448 101.313 470.227 101.701C469.101 103.689 469.032 106.194 470.048 108.239C471.064 110.285 473.102 111.748 475.37 112.054C477.856 112.393 480.607 111.314 482.547 109.238C483.94 107.749 484.946 105.803 485.542 103.456C485.591 103.263 485.627 103.089 485.659 102.931C485.803 102.224 485.906 101.713 486.86 101.282C487.986 100.774 488.818 100.216 489.481 99.5273C490.528 98.439 491.093 97.0558 491.031 95.732C490.957 94.1293 489.948 92.5715 488.399 91.6683C487.036 90.8735 485.267 90.572 483.415 90.822C481.928 91.023 480.357 91.5572 478.472 92.5027C477.267 93.1084 475.512 94.0777 474.19 95.5125C472.908 96.9024 472.206 98.5435 472.212 100.133C472.212 100.212 472.18 100.289 472.122 100.345C472.065 100.4 471.984 100.431 471.906 100.425C471.888 100.425 471.87 100.424 471.852 100.424Z" fill="black"/>
<path d="M475.784 109.944C475.32 109.286 474.268 109.251 473.634 109.745C472.999 110.24 472.752 111.109 472.813 111.91C472.895 112.992 473.516 114.043 474.48 114.543C475.444 115.043 476.728 114.916 477.507 114.158C479.535 115.574 482.107 116.191 484.557 115.847C485.935 115.654 487.333 115.122 488.21 114.043C488.821 113.291 489.129 112.326 489.218 111.362C489.307 110.398 489.186 109.426 489.016 108.473C488.523 105.725 487.604 103.052 486.302 100.582C486.091 100.183 485.863 99.7795 485.515 99.4912C485.023 99.0839 484.357 98.961 483.721 98.9107C482.267 98.7957 480.77 98.9953 479.459 99.6341C478.149 100.273 477.041 101.374 476.535 102.74C476.05 104.05 476.139 105.513 476.497 106.862C476.862 108.231 477.618 109.642 478.949 110.133L475.784 109.944Z" fill="white"/>
<path d="M483.211 116.231C481.204 116.231 479.2 115.636 477.529 114.525C476.672 115.21 475.372 115.333 474.346 114.801C473.33 114.274 472.615 113.148 472.522 111.931C472.446 110.932 472.795 110.029 473.454 109.516C473.858 109.201 474.413 109.061 474.936 109.138C475.393 109.205 475.779 109.433 476.021 109.777C476.114 109.908 476.082 110.089 475.951 110.183C475.82 110.275 475.638 110.244 475.544 110.113C475.395 109.901 475.148 109.76 474.85 109.715C474.485 109.66 474.087 109.761 473.812 109.975C473.216 110.439 473.054 111.267 473.102 111.889C473.18 112.909 473.774 113.85 474.613 114.286C475.499 114.745 476.629 114.605 477.302 113.952C477.403 113.854 477.559 113.842 477.672 113.921C479.641 115.296 482.137 115.894 484.514 115.561C485.588 115.41 487.062 114.994 487.982 113.862C488.647 113.044 488.861 112.038 488.926 111.338C489.017 110.348 488.876 109.361 488.727 108.527C488.631 107.985 488.517 107.445 488.387 106.911C487.323 106.726 486.363 107.217 485.481 107.779C485.043 108.059 484.616 108.382 484.203 108.695C483.673 109.097 483.126 109.512 482.533 109.853C481.775 110.287 480.289 110.938 478.848 110.408C477.199 109.801 476.49 107.974 476.215 106.939C475.792 105.349 475.808 103.864 476.26 102.641C476.767 101.268 477.886 100.078 479.33 99.3747C480.6 98.7545 482.125 98.4953 483.742 98.6222C484.347 98.6698 485.117 98.7875 485.698 99.2689C486.086 99.5902 486.335 100.028 486.557 100.448C487.878 102.953 488.8 105.636 489.3 108.423C489.456 109.295 489.603 110.329 489.506 111.39C489.404 112.509 489.033 113.49 488.435 114.227C487.396 115.505 485.774 115.97 484.596 116.135C484.137 116.2 483.673 116.231 483.211 116.231ZM482.946 99.171C481.715 99.171 480.566 99.417 479.586 99.8957C478.276 100.534 477.262 101.608 476.807 102.841C476.396 103.95 476.387 105.315 476.778 106.787C477.024 107.712 477.646 109.343 479.049 109.859C480.268 110.307 481.572 109.729 482.243 109.346C482.804 109.023 483.337 108.62 483.851 108.23C484.273 107.909 484.709 107.578 485.168 107.285C486.04 106.73 487.072 106.193 488.232 106.301C487.714 104.367 486.98 102.497 486.043 100.718C485.84 100.333 485.633 99.9684 485.327 99.7159C484.87 99.3377 484.216 99.2424 483.697 99.2014C483.444 99.1816 483.194 99.171 482.947 99.171H482.946Z" fill="black"/>
<path d="M475.189 113.011C475.104 113.011 475.019 112.974 474.962 112.904C474.862 112.779 474.88 112.596 475.005 112.494C475.619 111.997 476.495 111.858 477.234 112.14C477.383 112.197 477.459 112.365 477.402 112.516C477.345 112.665 477.176 112.742 477.026 112.684C476.485 112.479 475.821 112.583 475.372 112.947C475.317 112.99 475.252 113.011 475.189 113.011Z" fill="black"/>
<path d="M497.517 161.201C497.46 162.041 491.326 302.272 491.326 302.272L497.444 310.099C498.591 311.567 497.543 313.71 495.678 313.71H420.488C416.992 313.71 414.497 310.333 415.526 306.999L460.587 161.182L497.515 161.201H497.517Z" fill="white"/>
<path d="M495.677 314H420.488C418.729 314 417.121 313.19 416.076 311.776C415.031 310.362 414.73 308.59 415.248 306.911L460.31 161.095C460.347 160.973 460.461 160.89 460.588 160.89L497.516 160.909C497.596 160.909 497.673 160.943 497.728 161.002C497.783 161.06 497.811 161.14 497.806 161.22C497.751 162.037 491.819 297.613 491.62 302.177L497.672 309.919C498.272 310.686 498.379 311.707 497.951 312.583C497.524 313.458 496.652 314.002 495.677 314.002V314ZM460.804 161.472L415.806 307.083C415.342 308.582 415.612 310.168 416.545 311.431C417.479 312.694 418.916 313.418 420.488 313.418H495.677C496.439 313.418 497.093 313.01 497.428 312.326C497.762 311.642 497.682 310.875 497.214 310.276L491.096 302.449C491.053 302.395 491.031 302.326 491.035 302.257C491.278 296.674 496.88 168.665 497.211 161.49L460.804 161.472Z" fill="black"/>
<path d="M466.183 313.76H449.881C449.72 313.76 449.59 313.63 449.59 313.469C449.59 313.307 449.72 313.178 449.881 313.178H466.183C467.174 313.178 467.752 312.522 467.961 311.907C468.17 311.292 468.115 310.421 467.329 309.818L457.818 302.502C457.726 302.432 457.685 302.316 457.712 302.204L485.356 186.823C485.839 184.805 487.478 183.294 489.532 182.973L489.851 182.922C490.009 182.898 490.159 183.006 490.185 183.164C490.21 183.323 490.102 183.472 489.943 183.498L489.624 183.548C487.805 183.832 486.352 185.172 485.924 186.96L458.324 302.157L467.685 309.357C468.533 310.009 468.858 311.084 468.513 312.096C468.168 313.108 467.254 313.761 466.183 313.761V313.76Z" fill="black"/>
<path d="M457.997 302.56H419.391C419.231 302.56 419.1 302.431 419.1 302.269C419.1 302.108 419.229 301.979 419.391 301.979H457.998C458.16 301.979 458.29 302.108 458.29 302.269C458.29 302.431 458.16 302.56 457.998 302.56H457.997Z" fill="black"/>
<path d="M491.327 302.56H460.104C459.942 302.56 459.812 302.431 459.812 302.269C459.812 302.108 459.942 301.979 460.104 301.979H491.327C491.488 301.979 491.618 302.108 491.618 302.269C491.618 302.431 491.488 302.56 491.327 302.56Z" fill="black"/>
<path d="M494.213 124.026C491.826 123.949 489.439 123.954 487.052 123.995C486.988 124.458 486.903 124.92 486.785 125.372C486.464 126.594 485.891 127.806 484.867 128.591C483.705 129.479 482.199 129.615 480.791 129.425C477.373 128.961 474.504 126.981 472.064 124.637C461.2 125.615 452.24 127.763 452.11 127.994C451.962 128.257 456.2 140.647 457.985 146.11C459.322 145.708 460.66 145.306 461.999 144.905C461.151 150.212 460.304 156.187 459.456 161.493C472.436 161.716 485.418 161.271 498.398 161.493C499.278 154.351 499.7 148.95 499.663 141.754C502.547 141.668 504.548 141.354 506.961 141.46C508.221 136.516 508.849 130.241 508.944 125.139C508.952 124.682 495.465 124.065 494.214 124.024L494.213 124.026Z" fill="#5479F7"/>
<path d="M463.578 168.065C464.231 168.04 464.725 167.392 464.793 166.744C464.86 166.095 464.606 165.459 464.324 164.87C462.475 161.005 454.297 153.065 448.537 149.517C448.537 149.517 453.476 146.413 457.537 144.759L452.348 128.985C447.018 130.847 443.403 133.27 439.191 137.023C437.273 138.731 435.473 140.664 434.444 143.015C432.935 146.458 433.261 150.539 434.841 153.95C436.422 157.362 439.158 160.145 442.271 162.261C445.382 164.377 448.872 165.871 452.39 167.208C452.39 167.208 455.229 172.693 456.014 172.888C457.166 173.172 457.942 172.293 456.48 166.978C456.48 166.978 458.403 170.875 459.231 171.436C460.679 172.417 461.756 170.706 461.239 169.227C461.239 169.227 461.842 170.309 462.793 170.121C463.743 169.934 463.58 168.068 463.58 168.068L463.578 168.065Z" fill="white"/>
<path d="M456.369 173.226C456.237 173.226 456.095 173.208 455.944 173.171C455.136 172.971 453.084 169.176 452.182 167.441C449.001 166.228 445.331 164.694 442.107 162.502C438.644 160.148 436.042 157.233 434.578 154.073C432.875 150.394 432.725 146.216 434.178 142.898C435.323 140.284 437.356 138.27 438.998 136.806C442.837 133.385 446.561 130.701 452.253 128.712C452.405 128.659 452.57 128.738 452.623 128.89C452.676 129.042 452.597 129.208 452.445 129.26C446.825 131.223 443.282 133.769 439.386 137.24C437.787 138.664 435.811 140.621 434.712 143.131C433.324 146.3 433.472 150.299 435.107 153.828C436.527 156.893 439.06 159.726 442.435 162.02C445.645 164.202 449.321 165.73 452.495 166.936C452.563 166.961 452.617 167.011 452.65 167.075C453.959 169.602 455.645 172.436 456.09 172.608C456.476 172.703 456.633 172.6 456.716 172.515C457.004 172.221 457.318 171.121 456.201 167.055C456.161 166.911 456.238 166.759 456.378 166.706C456.52 166.651 456.676 166.714 456.744 166.849C457.475 168.328 458.841 170.817 459.397 171.194C459.83 171.487 460.232 171.511 460.556 171.263C460.979 170.939 461.247 170.124 460.967 169.321C460.916 169.179 460.985 169.023 461.123 168.96C461.262 168.898 461.424 168.952 461.496 169.085C461.5 169.093 462.013 169.977 462.739 169.834C463.315 169.721 463.322 168.43 463.291 168.092C463.285 168.012 463.31 167.934 463.363 167.873C463.416 167.814 463.49 167.778 463.571 167.776C464.082 167.756 464.455 167.21 464.507 166.715C464.567 166.141 464.33 165.55 464.065 164.996C462.262 161.228 454.058 153.257 448.388 149.766C448.303 149.713 448.25 149.62 448.25 149.52C448.25 149.419 448.3 149.325 448.386 149.272C448.437 149.242 453.393 146.136 457.431 144.492C457.581 144.431 457.751 144.503 457.812 144.651C457.873 144.8 457.801 144.969 457.653 145.03C454.32 146.387 450.344 148.757 449.094 149.52C454.912 153.229 462.761 160.916 464.592 164.745C464.894 165.375 465.163 166.058 465.087 166.774C465.018 167.436 464.561 168.133 463.886 168.312C463.896 168.906 463.809 170.217 462.853 170.406C462.369 170.5 461.967 170.34 461.661 170.117C461.632 170.768 461.364 171.378 460.912 171.724C460.385 172.129 459.714 172.11 459.071 171.675C458.617 171.367 457.91 170.235 457.311 169.171C457.826 171.785 457.482 172.567 457.136 172.921C456.937 173.125 456.682 173.226 456.372 173.226H456.369Z" fill="black"/>
<path d="M461.089 169.15C460.961 169.15 460.843 169.064 460.809 168.934C460.398 167.411 459.805 165.938 459.046 164.556C458.969 164.414 459.019 164.239 459.161 164.161C459.301 164.084 459.479 164.135 459.557 164.276C460.338 165.698 460.95 167.214 461.371 168.782C461.414 168.937 461.321 169.097 461.166 169.139C461.141 169.146 461.116 169.15 461.091 169.15H461.089Z" fill="black"/>
<path d="M463.463 168.119C463.334 168.119 463.214 168.03 463.181 167.899C462.711 166.023 461.926 164.256 460.847 162.648C460.757 162.515 460.793 162.333 460.928 162.245C461.061 162.155 461.244 162.191 461.332 162.326C462.448 163.989 463.259 165.817 463.747 167.759C463.787 167.915 463.691 168.073 463.535 168.112C463.511 168.119 463.487 168.122 463.463 168.122V168.119Z" fill="black"/>
<path d="M448.075 149.352C448.026 149.352 447.976 149.34 447.931 149.314C446.927 148.737 445.863 148.249 444.772 147.863C444.621 147.809 444.542 147.644 444.595 147.491C444.649 147.341 444.816 147.261 444.967 147.314C446.091 147.712 447.187 148.215 448.221 148.809C448.36 148.889 448.409 149.066 448.328 149.205C448.274 149.299 448.176 149.351 448.075 149.351V149.352Z" fill="black"/>
<path d="M492.222 100.203C491.392 100.238 490.736 100.919 490.736 101.749C490.736 102.58 491.392 103.261 492.222 103.295L530.035 104.838V98.6602L492.222 100.203Z" fill="black"/>
<path d="M492.223 100.202V103.294L546.483 107.491V96.0049L492.223 100.202Z" fill="black"/>
<path d="M547.926 95.3163L546.482 95.5808V107.916L547.926 108.181C548.501 108.286 549.041 107.899 549.041 107.381V96.1164C549.041 95.598 548.502 95.2105 547.926 95.3163Z" fill="black"/>
<path d="M508.943 125.141L511.989 124.714C511.989 124.714 511.084 118.109 509.568 114.31C508.053 110.511 506.217 106.474 507.291 102.726C508.367 98.9782 509.652 98.2284 510.71 98.1094C511.768 97.9891 511.768 100.11 511.342 101.697C510.915 103.284 511.608 104.3 511.608 104.3L519.904 105.437C519.904 105.437 523.913 114.222 524.807 120.896C525.702 127.57 527.48 136.687 507.487 139.138C507.487 139.138 509.233 129.177 508.942 125.142L508.943 125.141Z" fill="white"/>
<path d="M507.488 139.428C507.342 139.428 507.217 139.32 507.199 139.173C507.179 139.013 507.293 138.869 507.452 138.849C515.39 137.876 520.482 135.803 523.022 132.514C525.634 129.132 525.079 125.052 524.588 121.454L524.518 120.934C523.701 114.845 520.225 106.874 519.704 105.703L511.568 104.588C511.486 104.577 511.413 104.531 511.367 104.464C511.335 104.417 510.604 103.317 511.06 101.622C511.408 100.326 511.398 98.9307 511.037 98.5128C510.956 98.4189 510.868 98.3845 510.743 98.3991C509.897 98.4956 508.648 99.0563 507.572 102.807C506.604 106.18 508.074 109.825 509.497 113.35C509.612 113.636 509.727 113.92 509.84 114.203C511.351 117.992 512.27 124.608 512.28 124.674C512.301 124.833 512.191 124.979 512.031 125.002L508.984 125.429C508.823 125.452 508.678 125.34 508.656 125.182C508.633 125.023 508.745 124.876 508.903 124.854L511.661 124.468C511.468 123.16 510.607 117.696 509.3 114.42C509.187 114.137 509.072 113.854 508.958 113.568C507.499 109.952 505.991 106.213 507.015 102.648C508.187 98.5631 509.668 97.9376 510.68 97.8225C510.996 97.7855 511.274 97.8939 511.481 98.1346C512.069 98.817 511.968 100.499 511.625 101.774C511.313 102.938 511.645 103.752 511.791 104.033L519.946 105.15C520.045 105.163 520.13 105.227 520.171 105.318C520.211 105.407 524.208 114.219 525.098 120.859L525.169 121.377C525.649 124.905 526.247 129.296 523.486 132.872C520.847 136.29 515.625 138.435 507.526 139.428C507.514 139.429 507.502 139.431 507.49 139.431L507.488 139.428Z" fill="black"/>
<path d="M520.934 96.4216C521.56 96.3898 522.248 96.4599 522.643 96.9479C523.044 97.4451 523.062 98.1407 523.025 98.7781C522.988 99.4195 522.91 100.067 522.673 100.665C522.436 101.263 522.024 101.81 521.451 102.104C521.143 102.261 520.779 102.341 520.449 102.239C519.882 102.066 519.584 101.404 519.628 100.815C519.672 100.225 519.975 99.6892 520.272 99.1761C519.693 99.1325 519.052 99.1563 518.49 99.0254C518.535 98.749 519.564 96.4903 520.935 96.4216H520.934Z" fill="white"/>
<path d="M520.761 102.574C520.623 102.574 520.491 102.556 520.365 102.516C519.625 102.288 519.288 101.477 519.339 100.793C519.376 100.297 519.569 99.8499 519.788 99.4426C519.765 99.4426 519.741 99.44 519.719 99.44C519.288 99.4241 518.842 99.4056 518.423 99.3091C518.274 99.2747 518.177 99.1292 518.202 98.9785C518.257 98.6479 519.349 96.2107 520.92 96.1313C521.846 96.0851 522.487 96.2914 522.87 96.7648C523.335 97.34 523.356 98.1136 523.316 98.7947C523.28 99.3977 523.209 100.104 522.944 100.772C522.657 101.495 522.174 102.061 521.584 102.363C521.31 102.503 521.027 102.574 520.761 102.574ZM518.883 98.8C519.16 98.8357 519.454 98.8476 519.741 98.8581C519.928 98.8648 520.114 98.8727 520.294 98.8859C520.394 98.8939 520.483 98.952 520.529 99.0393C520.576 99.1279 520.574 99.2337 520.524 99.321C520.259 99.7799 519.959 100.3 519.919 100.835C519.886 101.285 520.107 101.828 520.535 101.959C520.838 102.052 521.156 101.926 521.317 101.843C521.782 101.605 522.167 101.149 522.402 100.556C522.637 99.965 522.702 99.3157 522.735 98.759C522.768 98.189 522.756 97.549 522.416 97.1284C522.155 96.8058 521.688 96.6709 520.949 96.7106C519.998 96.7582 519.172 98.1652 518.883 98.7986V98.8Z" fill="black"/>
<path d="M520.279 99.4178C520.228 99.4178 520.178 99.4046 520.132 99.3782C519.993 99.2975 519.946 99.119 520.027 98.9801L520.612 97.9791C520.693 97.8402 520.872 97.7939 521.011 97.8746C521.15 97.9553 521.197 98.1338 521.116 98.2726L520.53 99.275C520.476 99.3676 520.379 99.4192 520.279 99.4192V99.4178Z" fill="black"/>
<path d="M518.679 95.8381C519.368 95.8037 520.124 95.8804 520.558 96.416C520.999 96.9621 521.02 97.7278 520.979 98.4287C520.938 99.1348 520.852 99.8463 520.592 100.504C520.331 101.161 519.878 101.764 519.248 102.085C518.91 102.258 518.51 102.344 518.146 102.233C517.522 102.043 517.195 101.317 517.242 100.667C517.29 100.018 517.624 99.4297 517.95 98.8664C517.312 98.8188 516.608 98.8439 515.989 98.7011C516.04 98.3982 517.171 95.9134 518.678 95.8367L518.679 95.8381Z" fill="white"/>
<path d="M518.488 102.575C518.339 102.575 518.195 102.554 518.06 102.513C517.26 102.268 516.897 101.389 516.951 100.647C516.992 100.092 517.216 99.5892 517.464 99.133C517.424 99.1316 517.383 99.129 517.342 99.1277C516.869 99.1092 516.38 99.0906 515.923 98.9848C515.774 98.9505 515.677 98.805 515.702 98.6542C515.762 98.2946 516.954 95.6339 518.664 95.5479C519.674 95.4977 520.37 95.7212 520.783 96.2342C521.288 96.8597 521.312 97.7034 521.268 98.4466C521.229 99.1065 521.151 99.8814 520.861 100.613C520.549 101.402 520.021 102.018 519.379 102.346C519.081 102.498 518.775 102.576 518.488 102.576V102.575ZM516.378 98.477C516.696 98.522 517.035 98.5339 517.364 98.5471C517.57 98.5551 517.774 98.563 517.971 98.5775C518.07 98.5855 518.161 98.6437 518.207 98.7309C518.253 98.8195 518.252 98.9253 518.202 99.0126C517.909 99.5204 517.576 100.096 517.533 100.691C517.496 101.197 517.746 101.808 518.231 101.958C518.574 102.062 518.931 101.922 519.114 101.828C519.631 101.564 520.06 101.056 520.321 100.398C520.58 99.7439 520.652 99.0272 520.688 98.4136C520.725 97.7815 520.712 97.0713 520.331 96.6006C520.039 96.2382 519.519 96.0875 518.694 96.1298C517.607 96.184 516.682 97.7934 516.379 98.4784L516.378 98.477Z" fill="black"/>
<path d="M517.958 99.1043C517.908 99.1043 517.858 99.091 517.811 99.0646C517.672 98.9839 517.626 98.8054 517.707 98.6666L518.35 97.565C518.431 97.4261 518.61 97.3799 518.749 97.4605C518.888 97.5412 518.935 97.7197 518.854 97.8586L518.21 98.9601C518.156 99.0527 518.059 99.1043 517.958 99.1043Z" fill="black"/>
<path d="M516.373 95.8381C517.063 95.8037 517.818 95.8804 518.251 96.416C518.692 96.9621 518.713 97.7278 518.672 98.4287C518.631 99.1348 518.545 99.8463 518.285 100.504C518.024 101.161 517.571 101.764 516.941 102.085C516.603 102.258 516.203 102.344 515.839 102.233C515.215 102.043 514.888 101.317 514.936 100.667C514.983 100.018 515.317 99.4297 515.643 98.8664C515.006 98.8188 514.301 98.8439 513.683 98.7011C513.733 98.3982 514.864 95.9134 516.371 95.8367L516.373 95.8381Z" fill="white"/>
<path d="M516.18 102.575C516.031 102.575 515.888 102.554 515.752 102.513C514.952 102.268 514.589 101.389 514.643 100.647C514.684 100.09 514.908 99.5892 515.157 99.133C515.116 99.1316 515.076 99.129 515.035 99.1277C514.562 99.1092 514.074 99.0906 513.617 98.9848C513.467 98.9505 513.37 98.805 513.396 98.6542C513.455 98.2946 514.647 95.6339 516.357 95.5479C517.368 95.4977 518.063 95.7212 518.476 96.2342C518.981 96.8597 519.005 97.7034 518.961 98.4466C518.923 99.1078 518.843 99.8828 518.555 100.613C518.241 101.402 517.715 102.018 517.072 102.346C516.774 102.498 516.468 102.576 516.181 102.576L516.18 102.575ZM514.071 98.477C514.389 98.522 514.728 98.5339 515.058 98.5471C515.263 98.5551 515.467 98.563 515.664 98.5775C515.764 98.5855 515.854 98.6437 515.9 98.7309C515.947 98.8195 515.945 98.9253 515.895 99.0126C515.602 99.5191 515.27 100.094 515.226 100.691C515.189 101.197 515.439 101.808 515.924 101.958C516.267 102.063 516.625 101.922 516.808 101.828C517.324 101.564 517.752 101.056 518.014 100.398C518.274 99.7452 518.345 99.0285 518.381 98.4136C518.418 97.7815 518.405 97.0713 518.025 96.6006C517.732 96.2382 517.213 96.0875 516.388 96.1298C515.3 96.184 514.376 97.7934 514.072 98.4784L514.071 98.477Z" fill="black"/>
<path d="M514.03 96.4333C514.656 96.4015 515.342 96.4716 515.735 96.9583C516.135 97.4542 516.154 98.1484 516.116 98.7845C516.079 99.4246 516.001 100.071 515.765 100.668C515.528 101.264 515.118 101.81 514.546 102.102C514.238 102.26 513.875 102.338 513.546 102.237C512.98 102.064 512.682 101.406 512.726 100.816C512.769 100.227 513.073 99.693 513.368 99.1812C512.74 99.1812 512.308 99.2447 511.662 99.2421C511.707 98.967 512.662 96.5007 514.029 96.432L514.03 96.4333Z" fill="white"/>
<path d="M513.857 102.575C513.719 102.575 513.587 102.557 513.461 102.517C512.721 102.291 512.385 101.48 512.436 100.797C512.471 100.318 512.654 99.8841 512.864 99.4874C512.763 99.4927 512.664 99.498 512.563 99.5033C512.287 99.5192 511.996 99.5337 511.661 99.535C511.576 99.535 511.495 99.4967 511.44 99.4319C511.384 99.3671 511.362 99.2811 511.375 99.1965C511.415 98.9585 512.408 96.2237 514.016 96.1431C514.943 96.0968 515.58 96.3031 515.962 96.7765C516.425 97.3517 516.448 98.124 516.408 98.8024C516.372 99.4041 516.301 100.109 516.037 100.775C515.75 101.497 515.268 102.061 514.679 102.362C514.405 102.503 514.124 102.574 513.858 102.574L513.857 102.575ZM513.368 98.8923C513.472 98.8923 513.568 98.9479 513.62 99.0378C513.673 99.1277 513.673 99.2388 513.62 99.3287C513.355 99.7863 513.056 100.305 513.016 100.84C512.983 101.289 513.204 101.831 513.63 101.962C513.932 102.054 514.25 101.929 514.412 101.847C514.874 101.61 515.258 101.154 515.494 100.563C515.729 99.9728 515.793 99.3248 515.825 98.7694C515.858 98.2007 515.846 97.5633 515.507 97.1428C515.248 96.8215 514.783 96.6866 514.044 96.7262C513.13 96.7725 512.356 98.2378 512.068 98.9479C512.225 98.9426 512.375 98.9333 512.528 98.9241C512.787 98.9095 513.054 98.8937 513.367 98.8937L513.368 98.8923Z" fill="black"/>
<path d="M513.376 99.4253C513.326 99.4253 513.276 99.4121 513.229 99.3856C513.09 99.305 513.044 99.1264 513.125 98.9876L513.709 97.9878C513.79 97.849 513.968 97.8027 514.107 97.8834C514.247 97.964 514.293 98.1426 514.212 98.2814L513.628 99.2812C513.574 99.3737 513.477 99.4253 513.376 99.4253Z" fill="black"/>
<path d="M566.683 314.001H483.316C483.154 314.001 483.024 313.871 483.024 313.71C483.024 313.549 483.154 313.419 483.316 313.419H566.683C566.844 313.419 566.974 313.549 566.974 313.71C566.974 313.871 566.844 314.001 566.683 314.001Z" fill="black"/>
</g>
</g>
<defs>
<clipPath id="clip0_4718_14448">
<rect width="760" height="314" rx="8" fill="white"/>
</clipPath>
<clipPath id="clip1_4718_14448">
<rect width="363" height="242" fill="white" transform="translate(415 72)"/>
</clipPath>
</defs>
</svg>
