
<svg width="496" height="332" viewBox="0 0 496 332" fill="none" xmlns="http://www.w3.org/2000/svg">
<path d="M148.53 0.856934H34.1768V78.6049H148.53V0.856934Z" fill="#B3C9FF"/>
<path d="M148.53 79.0016H34.1771C33.9539 79.0016 33.7803 78.8218 33.7803 78.6048V0.856761C33.7803 0.633561 33.9601 0.459961 34.1771 0.459961H148.53C148.753 0.459961 148.927 0.639761 148.927 0.856761V78.6048C148.927 78.828 148.747 79.0016 148.53 79.0016ZM34.5801 78.2018H148.133V1.24736H34.5801V78.2018Z" fill="#313036"/>
<path d="M91.4344 51.8952C91.3414 51.8952 91.2484 51.8642 91.174 51.796L38.0834 5.54398C37.916 5.40138 37.8974 5.14718 38.0462 4.97978C38.1888 4.81238 38.443 4.79378 38.6104 4.94258L91.4406 50.9652L143.471 4.56438C143.638 4.41558 143.886 4.43418 144.035 4.59538C144.184 4.76278 144.165 5.01079 144.004 5.15959L91.7134 51.796C91.639 51.8642 91.5398 51.8952 91.4468 51.8952H91.4344Z" fill="#313036"/>
<path d="M246.199 155.726C237.767 144.337 224.883 137.095 210.772 135.793C202.737 135.049 192.662 134.262 181.421 133.692C180.801 135.713 179.939 137.672 178.817 139.52C175.562 144.883 170.459 149.012 164.774 151.572C159.089 154.139 152.721 155.299 146.503 154.548C140.414 153.811 134.623 151.219 130.42 146.687C126.991 142.992 122.874 138.528 121.82 133.679C111.628 134.256 103.592 135.099 94.0196 136.599C75.7544 139.464 59.715 150.326 50.0554 166.093C32.3482 194.985 1.68296 244.659 0.0461549 285.995C-2.59505 352.614 108.999 323.877 108.999 323.877L227.003 314.893L297.367 260.426C297.367 260.426 275.469 195.27 246.199 155.726Z" fill="#6490F7"/>
<path d="M106.928 312.586C106.097 318.197 111.777 322.531 116.96 320.231C127.556 315.538 139.038 313.163 150.626 313.281L200.765 313.783C200.765 313.783 204.677 249.16 133.793 256.966C133.793 256.966 112.403 275.579 106.922 312.58L106.928 312.586Z" fill="white"/>
<path d="M163.844 314.44C163.844 314.44 163.807 314.44 163.788 314.44C163.571 314.409 163.416 314.205 163.454 313.988C163.981 310.354 163.131 306.318 161.06 302.623C159.324 299.529 156.758 296.615 153.217 293.714C152.542 293.156 151.81 292.585 150.979 292.226C150.775 292.139 150.688 291.903 150.775 291.699C150.861 291.494 151.097 291.407 151.302 291.494C152.225 291.897 153 292.505 153.726 293.1C157.347 296.063 159.975 299.052 161.761 302.232C163.919 306.083 164.805 310.292 164.247 314.105C164.216 314.304 164.049 314.446 163.85 314.446L163.844 314.44Z" fill="#313036"/>
<path d="M180.045 313.51C179.847 313.51 179.679 313.368 179.648 313.169C179.041 308.873 178.167 303.845 176.288 299.139C174.341 294.266 171.489 290.285 168.03 287.625C167.856 287.489 167.825 287.241 167.955 287.067C168.092 286.894 168.34 286.857 168.513 286.993C172.084 289.74 175.029 293.838 177.026 298.841C178.935 303.628 179.822 308.712 180.436 313.052C180.467 313.269 180.318 313.473 180.095 313.504C180.076 313.504 180.058 313.504 180.039 313.504L180.045 313.51Z" fill="#313036"/>
<path d="M193.028 313.51C193.028 313.51 192.997 313.51 192.978 313.51C192.761 313.485 192.6 313.287 192.631 313.064C194.82 294.699 182.792 283.242 182.668 283.124C182.507 282.975 182.5 282.721 182.649 282.56C182.798 282.399 183.052 282.392 183.213 282.541C183.337 282.659 195.669 294.377 193.425 313.157C193.4 313.361 193.226 313.51 193.028 313.51Z" fill="#313036"/>
<path d="M365.313 331.28H115.794C114.318 331.28 112.836 330.901 111.621 330.064C108.769 328.099 107.777 324.59 108.906 321.57C111.851 315.395 117.927 313.225 126.923 313.225H381.687L378.382 322.215C376.343 327.665 371.135 331.28 365.319 331.28H365.313Z" fill="#313036"/>
<path d="M115.794 331.682C114.139 331.682 112.62 331.236 111.392 330.393C108.484 328.39 107.306 324.707 108.528 321.434C111.367 315.476 117.034 312.828 126.917 312.828H381.681C381.811 312.828 381.935 312.89 382.01 313.002C382.084 313.107 382.103 313.244 382.059 313.368L378.755 322.358C376.672 327.938 371.265 331.682 365.313 331.682H115.794ZM126.917 313.628C117.381 313.628 111.938 316.133 109.259 321.744C108.181 324.639 109.235 327.944 111.839 329.736C112.93 330.486 114.294 330.883 115.788 330.883H365.307C370.93 330.883 376.033 327.342 377.998 322.072L381.105 313.622H126.911L126.917 313.628Z" fill="#313036"/>
<path d="M366.72 331.279C371.711 331.279 376.193 328.235 378.041 323.598L422.216 212.704C423.388 209.759 423.028 206.43 421.249 203.807C419.469 201.185 416.512 199.616 413.344 199.616H259.993C250.755 199.616 242.515 205.438 239.428 214.155L197.962 331.279H366.713H366.72Z" fill="#313036"/>
<path d="M366.72 331.682H197.969C197.838 331.682 197.721 331.62 197.64 331.515C197.566 331.41 197.547 331.273 197.59 331.149L204.02 312.977C204.094 312.772 204.324 312.661 204.528 312.735C204.733 312.81 204.844 313.039 204.77 313.244L198.527 330.883H366.714C371.569 330.883 375.871 327.969 377.669 323.455L421.844 212.562C422.967 209.741 422.626 206.554 420.914 204.037C419.209 201.52 416.376 200.019 413.338 200.019H272.462C272.238 200.019 272.065 199.839 272.065 199.622C272.065 199.405 272.245 199.226 272.462 199.226H413.338C416.643 199.226 419.718 200.856 421.572 203.59C423.425 206.325 423.804 209.79 422.576 212.859L378.401 323.753C376.485 328.57 371.891 331.682 366.708 331.682H366.72Z" fill="#313036"/>
<path d="M370.31 314.713H218.274C218.051 314.713 217.877 314.533 217.877 314.316C217.877 314.099 218.057 313.919 218.274 313.919H370.31C370.533 313.919 370.707 314.099 370.707 314.316C370.707 314.533 370.527 314.713 370.31 314.713Z" fill="#313036"/>
<mask id="mask0_171_10738" style="mask-type:luminance" maskUnits="userSpaceOnUse" x="300" y="247" width="45" height="45">
<path d="M344.456 247.418H300.566V291.308H344.456V247.418Z" fill="white"/>
</mask>
<g mask="url(#mask0_171_10738)">
<path d="M322.508 291.308C334.629 291.308 344.45 281.481 344.45 269.367C344.45 257.252 334.623 247.425 322.508 247.425C310.393 247.425 300.566 257.252 300.566 269.367C300.566 281.481 310.393 291.308 322.508 291.308Z" fill="white"/>
<path d="M324.926 253.773L314.25 283.099C313.884 284.11 312.768 284.922 311.757 284.922H310.771L321.448 255.596C321.814 254.586 322.93 253.773 323.94 253.773H324.926Z" fill="#92B2FC"/>
<path d="M329.075 253.687L318.398 283.013C318.032 284.024 316.916 284.836 315.906 284.836H314.92L325.596 255.51C325.962 254.499 327.078 253.687 328.089 253.687H329.075Z" fill="#406FDD"/>
<path d="M333.091 253.687L322.415 283.013C322.049 284.024 320.933 284.836 319.922 284.836H318.937L329.613 255.51C329.979 254.499 331.095 253.687 332.105 253.687H333.091Z" fill="#204097"/>
</g>
<path d="M48.3568 258.541C48.1398 258.541 47.96 258.368 47.96 258.151C47.96 257.928 48.1336 257.748 48.3506 257.742L130.116 256.192C130.333 256.179 130.519 256.365 130.525 256.582C130.525 256.805 130.352 256.985 130.135 256.991L48.3692 258.541C48.3692 258.541 48.3692 258.541 48.363 258.541H48.3568Z" fill="#313036"/>
<path d="M75.6681 253.903C75.6309 253.903 75.5938 253.903 75.5566 253.885C75.3458 253.823 75.2279 253.6 75.2899 253.389C78.2659 243.481 82.3641 233.908 87.4791 224.918C88.5145 223.102 90.1638 220.696 92.6376 220.783C92.8608 220.789 93.0282 220.975 93.022 221.192C93.0158 221.415 92.8235 221.583 92.6127 221.577C90.5853 221.502 89.1036 223.678 88.1736 225.309C83.0896 234.243 79.01 243.766 76.0526 253.612C76.003 253.786 75.8417 253.897 75.6681 253.897V253.903Z" fill="#313036"/>
<path d="M144.717 87.0119L130.11 129.736C129.174 132.464 126.855 134.491 124.021 135.043L117.518 136.308C117.518 136.308 134.431 173.031 162.926 166.88C191.428 160.73 185.16 136.308 185.16 136.308L179.133 135.818C175.525 135.527 173.051 132.049 173.956 128.539L180.733 102.282C180.733 102.282 153.118 80.0183 144.723 87.0119H144.717Z" fill="white"/>
<path d="M181.724 136.426C181.724 136.426 181.706 136.426 181.693 136.426L179.102 136.215C177.267 136.066 175.599 135.118 174.526 133.617C173.454 132.117 173.106 130.226 173.571 128.44L180.28 102.437C177.781 100.46 152.845 81.0598 145.058 87.2474L130.488 129.86C129.508 132.718 127.065 134.851 124.102 135.428L122.521 135.738C122.304 135.781 122.093 135.638 122.056 135.421C122.012 135.204 122.155 134.994 122.372 134.956L123.953 134.646C126.637 134.126 128.851 132.191 129.737 129.606L144.345 86.8816C144.369 86.8134 144.413 86.7513 144.469 86.7017C153.018 79.5842 179.846 101.055 180.987 101.972C181.111 102.072 181.16 102.233 181.123 102.382L174.346 128.639C173.943 130.195 174.247 131.844 175.183 133.152C176.113 134.46 177.57 135.285 179.17 135.415L181.762 135.626C181.979 135.645 182.146 135.837 182.127 136.054C182.109 136.265 181.935 136.42 181.731 136.42L181.724 136.426Z" fill="#313036"/>
<path d="M206.27 33.8963C208.769 46.2219 199.171 57.4005 190.876 59.4589C190.584 59.5333 190.287 59.5953 190.002 59.6573C189.822 60.2649 189.605 60.8787 189.332 61.4801C186.071 68.6225 176.727 72.1007 168.884 71.3877C166.609 73.8243 163.645 77.2095 160.508 81.4937C150.477 95.1771 143.359 89.0205 132.937 75.4735C131.548 73.6693 129.552 71.3691 128.51 67.5499C126.452 59.9673 130.017 53.1349 130.469 52.2979C133.867 46.0049 138.244 46.2405 147.866 39.7739C162.492 29.9469 162.746 22.4387 175.32 18.1917C178.649 17.0695 182.834 15.7117 188.067 16.6727C195.675 18.0677 204.311 24.1561 206.283 33.8901L206.27 33.8963Z" fill="#313036"/>
<path d="M154.675 93.6582C154.675 93.6582 161.755 110.008 180.287 106.988C198.825 103.969 199.296 80.384 197.641 55.3174C195.787 57.6858 191.639 59.5086 188.365 60.9036C175.035 66.5766 163.045 59.1366 161.278 58.188C164.452 62.094 164.458 67.395 161.786 70.9786C160.31 72.9564 157.527 74.3886 152.604 74.4754C152.604 74.4754 150.254 66.6262 143.26 71.1832C136.267 75.7402 138.871 94.9664 154.675 93.6644V93.6582Z" fill="white"/>
<path d="M175.872 107.751C161.705 107.751 155.368 95.9834 154.432 94.0738C147.575 94.5388 142.218 91.0978 140.067 84.8296C138.176 79.3054 139.484 73.1612 143.043 70.8424C145.238 69.4102 147.234 69.0072 148.976 69.6458C151.413 70.5386 152.56 73.1736 152.882 74.0602C157.018 73.9424 159.901 72.8264 161.463 70.7308C164.141 67.1348 163.937 62.0756 160.967 58.43C160.849 58.2812 160.849 58.0704 160.967 57.9216C161.091 57.7728 161.296 57.7356 161.463 57.8224C161.556 57.872 161.674 57.9402 161.823 58.0208C173.324 64.4688 182.518 62.9436 188.21 60.5194C191.099 59.2918 195.47 57.4318 197.33 55.0572C197.429 54.927 197.603 54.8712 197.764 54.9208C197.919 54.9704 198.031 55.1129 198.043 55.2741C198.799 66.6883 199.252 79.6774 196.927 89.492C194.41 100.113 188.991 105.953 180.354 107.36C178.78 107.615 177.285 107.732 175.872 107.732V107.751ZM154.674 93.2554C154.829 93.2554 154.978 93.3484 155.04 93.4972C155.108 93.6584 162.219 109.524 180.224 106.592C198.595 103.597 198.775 79.2248 197.305 56.291C195.309 58.275 191.886 59.8374 188.52 61.2696C182.859 63.6752 173.826 65.2376 162.573 59.3476C164.799 63.1048 164.668 67.7796 162.108 71.2206C160.359 73.5704 157.166 74.798 152.609 74.8724C152.609 74.8724 152.609 74.8724 152.603 74.8724C152.43 74.8724 152.275 74.7546 152.219 74.5872C152.206 74.5562 151.208 71.3136 148.697 70.396C147.203 69.8504 145.448 70.2224 143.477 71.512C140.209 73.6386 139.044 79.3798 140.823 84.5692C142.875 90.5521 148.034 93.801 154.643 93.2554C154.655 93.2554 154.668 93.2554 154.674 93.2554Z" fill="#313036"/>
<path d="M153.583 86.6708C153.416 86.6708 153.261 86.5654 153.205 86.398C152.796 85.2014 152.374 83.9614 151.636 82.9322C150.843 81.8286 149.776 81.1528 148.704 81.0846C148.481 81.0722 148.319 80.88 148.332 80.6568C148.35 80.4398 148.536 80.2724 148.76 80.2848C150.068 80.3778 151.357 81.1714 152.287 82.4672C153.093 83.5894 153.534 84.8852 153.961 86.1376C154.036 86.3484 153.924 86.5716 153.713 86.646C153.67 86.6584 153.627 86.6646 153.583 86.6646V86.6708Z" fill="#313036"/>
<path d="M153.286 35.9736C153.286 35.9736 138.337 43.8538 148.654 68.0958L142.008 71.698C142.008 71.698 126.985 40.6856 153.279 35.9798L153.286 35.9736Z" fill="#92B2FC"/>
<path d="M142.013 72.0946C141.97 72.0946 141.932 72.0884 141.889 72.076C141.784 72.045 141.697 71.9706 141.653 71.8714C141.331 71.208 133.829 55.46 139.335 44.6472C141.784 39.8422 146.452 36.7918 153.21 35.5828C153.402 35.5456 153.595 35.6572 153.657 35.8432C153.719 36.0292 153.638 36.2338 153.464 36.3268C153.427 36.3454 149.788 38.317 147.432 43.1654C145.256 47.648 143.761 55.584 149.019 67.9406C149.1 68.1328 149.019 68.3498 148.839 68.449L142.193 72.0512C142.137 72.0822 142.069 72.1008 142.001 72.1008L142.013 72.0946ZM151.431 36.7794C145.962 38.1434 142.143 40.9086 140.048 45.0068C135.174 54.561 141.083 68.6536 142.193 71.1398L148.145 67.9158C142.924 55.4476 144.493 47.3628 146.737 42.7686C148.194 39.7864 150.085 37.8706 151.425 36.7732L151.431 36.7794Z" fill="#313036"/>
<path d="M167.768 101.247C165.716 101.247 163.701 100.484 162.157 99.0647L151.636 89.3803C151.475 89.2315 151.462 88.9773 151.611 88.8161C151.76 88.6549 152.014 88.6425 152.175 88.7913L162.697 98.4757C164.644 100.267 167.421 100.894 169.945 100.125L185.978 95.2145C186.188 95.1525 186.412 95.2703 186.474 95.4811C186.536 95.6919 186.418 95.9151 186.207 95.9771L170.174 100.887C169.387 101.129 168.574 101.247 167.768 101.247Z" fill="#313036"/>
<path d="M186.833 98.9679C190.342 98.2009 192.856 96.0659 192.448 94.1993C192.04 92.3327 188.865 91.4413 185.356 92.2083C181.847 92.9754 179.333 95.1103 179.741 96.977C180.149 98.8436 183.324 99.735 186.833 98.9679Z" fill="#313036"/>
<path d="M184.36 99.6474C183.516 99.6474 182.723 99.5483 182.01 99.3499C180.522 98.9345 179.573 98.1222 179.344 97.0682C178.879 94.954 181.483 92.6476 185.265 91.823C187.026 91.4386 188.768 91.4448 190.169 91.8354C191.657 92.2508 192.606 93.0631 192.835 94.1171C193.3 96.2313 190.696 98.5377 186.914 99.3623C186.046 99.5545 185.178 99.6474 184.36 99.6474ZM187.825 92.3314C187.063 92.3314 186.257 92.4182 185.438 92.598C182.202 93.3048 179.772 95.2702 180.125 96.8946C180.292 97.6448 181.036 98.2462 182.227 98.581C183.504 98.9406 185.11 98.9406 186.74 98.581C189.977 97.8742 192.407 95.9088 192.054 94.2844C191.886 93.5342 191.142 92.9328 189.952 92.598C189.313 92.4182 188.588 92.3252 187.819 92.3252L187.825 92.3314Z" fill="#313036"/>
<path d="M148.61 97.5706C157.476 97.5706 164.662 90.3812 164.662 81.5126C164.662 72.644 157.476 65.4546 148.61 65.4546C139.745 65.4546 132.559 72.644 132.559 81.5126C132.559 90.3812 139.745 97.5706 148.61 97.5706Z" fill="#92B2FC"/>
<path d="M148.611 97.9738C139.54 97.9738 132.156 90.5896 132.156 81.5128C132.156 72.436 139.534 65.0518 148.611 65.0518C157.688 65.0518 165.066 72.436 165.066 81.5128C165.066 90.5896 157.682 97.9738 148.611 97.9738ZM148.611 65.8515C139.981 65.8515 132.956 72.8762 132.956 81.5128C132.956 90.1494 139.981 97.174 148.611 97.174C157.241 97.174 164.266 90.1494 164.266 81.5128C164.266 72.8762 157.241 65.8515 148.611 65.8515Z" fill="#313036"/>
<path d="M148.61 92.8525C154.869 92.8525 159.944 87.7755 159.944 81.5127C159.944 75.2499 154.869 70.1729 148.61 70.1729C142.351 70.1729 137.276 75.2499 137.276 81.5127C137.276 87.7755 142.351 92.8525 148.61 92.8525Z" fill="#6490F7"/>
<path d="M148.61 93.2491C142.144 93.2491 136.88 87.9853 136.88 81.5125C136.88 75.0397 142.144 69.7759 148.61 69.7759C155.077 69.7759 160.341 75.0397 160.341 81.5125C160.341 87.9853 155.077 93.2491 148.61 93.2491ZM148.61 70.5757C142.584 70.5757 137.673 75.4799 137.673 81.5125C137.673 87.5451 142.578 92.4493 148.61 92.4493C154.643 92.4493 159.547 87.5451 159.547 81.5125C159.547 75.4799 154.643 70.5757 148.61 70.5757Z" fill="#313036"/>
<path d="M290.875 55.4849H394.639C398.315 55.4849 401.297 58.4671 401.297 62.1437V109.462C401.297 113.139 398.309 116.127 394.632 116.127H290.869C287.193 116.127 284.204 113.139 284.204 109.462V62.1437C284.204 58.4671 287.186 55.4849 290.863 55.4849H290.875Z" fill="#EBF1FF"/>
<path d="M451.977 70.5572H340.724C336.83 70.5572 333.662 67.389 333.662 63.4954V12.302C333.662 8.40843 336.83 5.24023 340.724 5.24023H485.754C485.922 5.24023 486.064 5.33943 486.126 5.49443C486.188 5.64943 486.145 5.82303 486.021 5.93463L459.032 30.561V63.4954C459.032 67.389 455.864 70.5572 451.971 70.5572H451.977ZM340.724 6.04003C337.271 6.04003 334.462 8.84863 334.462 12.302V63.4954C334.462 66.9488 337.271 69.7574 340.724 69.7574H451.977C455.43 69.7574 458.239 66.9488 458.239 63.4954V30.3874C458.239 30.2758 458.288 30.1704 458.369 30.0898L484.725 6.03383H340.724V6.04003Z" fill="#313036"/>
<path d="M377.415 52.9739C377.192 52.9739 377.019 52.7941 377.019 52.5771V44.0645C377.019 43.8413 377.198 43.6677 377.415 43.6677C384.967 43.6677 391.111 37.5235 391.111 29.9657C391.111 22.4079 384.967 16.2637 377.415 16.2637C371.618 16.2637 366.429 19.9341 364.501 25.4025C364.426 25.6133 364.203 25.7187 363.992 25.6443C363.788 25.5699 363.676 25.3405 363.751 25.1359C365.79 19.3513 371.284 15.4639 377.422 15.4639C385.413 15.4639 391.911 21.9677 391.911 29.9595C391.911 37.9513 385.624 44.2381 377.818 44.4489V52.5647C377.818 52.7879 377.639 52.9615 377.422 52.9615L377.415 52.9739Z" fill="#313036"/>
<path d="M377.428 60.3395C377.205 60.3395 377.031 60.1597 377.031 59.9427V56.3963C377.031 56.1731 377.211 55.9995 377.428 55.9995C377.645 55.9995 377.825 56.1793 377.825 56.3963V59.9427C377.825 60.1659 377.645 60.3395 377.428 60.3395Z" fill="#313036"/>
<path d="M414.144 52.9739C413.921 52.9739 413.747 52.7941 413.747 52.5771V44.0645C413.747 43.8413 413.927 43.6677 414.144 43.6677C421.696 43.6677 427.84 37.5235 427.84 29.9657C427.84 22.4079 421.696 16.2637 414.144 16.2637C408.347 16.2637 403.158 19.9341 401.229 25.4025C401.155 25.6133 400.926 25.7187 400.721 25.6443C400.516 25.5699 400.405 25.3405 400.479 25.1359C402.519 19.3513 408.012 15.4639 414.15 15.4639C422.142 15.4639 428.64 21.9677 428.64 29.9595C428.64 37.9513 422.353 44.2381 414.547 44.4489V52.5647C414.547 52.7879 414.367 52.9615 414.15 52.9615L414.144 52.9739Z" fill="#313036"/>
<path d="M414.157 60.3395C413.933 60.3395 413.76 60.1597 413.76 59.9427V56.3963C413.76 56.1731 413.94 55.9995 414.157 55.9995C414.374 55.9995 414.553 56.1793 414.553 56.3963V59.9427C414.553 60.1659 414.374 60.3395 414.157 60.3395Z" fill="#313036"/>
<path d="M339.415 166.75H235.652C231.758 166.75 228.59 163.582 228.59 159.688V129.147L203.232 106.009C203.108 105.897 203.071 105.724 203.127 105.569C203.189 105.414 203.331 105.314 203.499 105.314H339.415C343.309 105.314 346.477 108.483 346.477 112.376V159.688C346.477 163.582 343.309 166.75 339.415 166.75ZM204.528 106.108L229.26 128.676C229.34 128.75 229.39 128.856 229.39 128.974V159.695C229.39 163.148 232.199 165.957 235.652 165.957H339.415C342.869 165.957 345.677 163.148 345.677 159.695V112.382C345.677 108.929 342.869 106.12 339.415 106.12H204.528V106.108Z" fill="#313036"/>
<path d="M335.702 124.572H296.648V155.863H335.702V124.572Z" fill="#111AE8"/>
<path d="M288.787 125.222H272.475C272.252 125.222 272.078 125.043 272.078 124.826C272.078 124.609 272.258 124.429 272.475 124.429H288.787C289.01 124.429 289.184 124.609 289.184 124.826C289.184 125.043 289.004 125.222 288.787 125.222Z" fill="#313036"/>
<path d="M269.331 125.222H253.632C253.409 125.222 253.235 125.043 253.235 124.826C253.235 124.609 253.415 124.429 253.632 124.429H269.331C269.554 124.429 269.727 124.609 269.727 124.826C269.727 125.043 269.548 125.222 269.331 125.222Z" fill="#313036"/>
<path d="M250.489 125.222H239.502C239.279 125.222 239.105 125.043 239.105 124.826C239.105 124.609 239.285 124.429 239.502 124.429H250.489C250.712 124.429 250.885 124.609 250.885 124.826C250.885 125.043 250.706 125.222 250.489 125.222Z" fill="#313036"/>
<path d="M285.643 140.313H279.437C279.214 140.313 279.04 140.133 279.04 139.916C279.04 139.699 279.22 139.52 279.437 139.52H285.643C285.866 139.52 286.04 139.699 286.04 139.916C286.04 140.133 285.86 140.313 285.643 140.313Z" fill="#313036"/>
<path d="M276.293 140.313H249.398C249.175 140.313 249.001 140.133 249.001 139.916C249.001 139.699 249.181 139.52 249.398 139.52H276.293C276.517 139.52 276.69 139.699 276.69 139.916C276.69 140.133 276.51 140.313 276.293 140.313Z" fill="#313036"/>
<path d="M246.254 140.313H236.353C236.13 140.313 235.956 140.133 235.956 139.916C235.956 139.699 236.136 139.52 236.353 139.52H246.254C246.477 139.52 246.651 139.699 246.651 139.916C246.651 140.133 246.471 140.313 246.254 140.313Z" fill="#313036"/>
<path d="M288.786 155.404H262.641C262.418 155.404 262.244 155.224 262.244 155.007C262.244 154.79 262.424 154.61 262.641 154.61H288.786C289.01 154.61 289.183 154.79 289.183 155.007C289.183 155.224 289.003 155.404 288.786 155.404Z" fill="#313036"/>
<path d="M259.497 155.404H236.353C236.13 155.404 235.956 155.224 235.956 155.007C235.956 154.79 236.136 154.61 236.353 154.61H259.497C259.721 154.61 259.894 154.79 259.894 155.007C259.894 155.224 259.714 155.404 259.497 155.404Z" fill="#313036"/>
<path d="M486.43 148.516C490.094 148.516 493.064 145.546 493.064 141.882C493.064 138.218 490.094 135.248 486.43 135.248C482.766 135.248 479.796 138.218 479.796 141.882C479.796 145.546 482.766 148.516 486.43 148.516Z" fill="#D6E2FF"/>
<path d="M467.079 148.516C470.743 148.516 473.713 145.546 473.713 141.882C473.713 138.218 470.743 135.248 467.079 135.248C463.415 135.248 460.445 138.218 460.445 141.882C460.445 145.546 463.415 148.516 467.079 148.516Z" fill="#92B2FC"/>
<path d="M447.724 148.516C451.388 148.516 454.358 145.546 454.358 141.882C454.358 138.218 451.388 135.248 447.724 135.248C444.06 135.248 441.09 138.218 441.09 141.882C441.09 145.546 444.06 148.516 447.724 148.516Z" fill="#92B2FC"/>
<path d="M369.399 246.532C369.176 246.532 369.002 246.352 369.002 246.135V141.882C369.002 141.659 369.182 141.485 369.399 141.485H434.164C434.387 141.485 434.561 141.665 434.561 141.882C434.561 142.099 434.381 142.279 434.164 142.279H369.796V246.135C369.796 246.358 369.616 246.532 369.399 246.532Z" fill="#313036"/>
<path d="M294.019 32.3959C297.683 32.3959 300.653 29.4258 300.653 25.7619C300.653 22.0981 297.683 19.1279 294.019 19.1279C290.355 19.1279 287.385 22.0981 287.385 25.7619C287.385 29.4258 290.355 32.3959 294.019 32.3959Z" fill="#313036"/>
<path d="M274.669 32.3959C278.333 32.3959 281.303 29.4258 281.303 25.7619C281.303 22.0981 278.333 19.1279 274.669 19.1279C271.005 19.1279 268.035 22.0981 268.035 25.7619C268.035 29.4258 271.005 32.3959 274.669 32.3959Z" fill="#313036"/>
<path d="M255.313 32.3959C258.977 32.3959 261.947 29.4258 261.947 25.7619C261.947 22.0981 258.977 19.1279 255.313 19.1279C251.649 19.1279 248.679 22.0981 248.679 25.7619C248.679 29.4258 251.649 32.3959 255.313 32.3959Z" fill="#313036"/>
<path d="M496.003 175.157H381.65V252.905H496.003V175.157Z" fill="#406FDD"/>
<path d="M438.907 226.394C438.765 226.394 438.628 226.344 438.517 226.245L385.426 179.993C385.178 179.776 385.153 179.398 385.37 179.15C385.587 178.902 385.966 178.877 386.214 179.094L438.907 224.999L490.808 178.716C491.056 178.493 491.434 178.518 491.651 178.766C491.874 179.014 491.849 179.392 491.601 179.609L439.31 226.245C439.199 226.344 439.056 226.394 438.914 226.394H438.907Z" fill="#313036"/>
</svg>
