
<svg width="16" height="16" viewBox="0 0 16 16" fill="none" xmlns="http://www.w3.org/2000/svg">
<g id="text_ad_area">
<mask id="mask0_379_15074" style="mask-type:alpha" maskUnits="userSpaceOnUse" x="0" y="0" width="16" height="16">
<rect id="Bounding box" width="16" height="16" fill="#D9D9D9"/>
</mask>
<g mask="url(#mask0_379_15074)">
<path id="text_ad" d="M2.66634 13.3332C2.29967 13.3332 1.98579 13.2026 1.72467 12.9415C1.46356 12.6804 1.33301 12.3665 1.33301 11.9998V3.99984C1.33301 3.63317 1.46356 3.31928 1.72467 3.05817C1.98579 2.79706 2.29967 2.6665 2.66634 2.6665H13.333C13.6997 2.6665 14.0136 2.79706 14.2747 3.05817C14.5358 3.31928 14.6663 3.63317 14.6663 3.99984V11.9998C14.6663 12.3665 14.5358 12.6804 14.2747 12.9415C14.0136 13.2026 13.6997 13.3332 13.333 13.3332H2.66634ZM2.66634 11.9998H13.333V3.99984H2.66634V11.9998ZM3.99967 11.3332H11.9997C12.1886 11.3332 12.3469 11.2693 12.4747 11.1415C12.6025 11.0137 12.6663 10.8554 12.6663 10.6665C12.6663 10.4776 12.6025 10.3193 12.4747 10.1915C12.3469 10.0637 12.1886 9.99984 11.9997 9.99984H3.99967C3.81079 9.99984 3.65245 10.0637 3.52467 10.1915C3.3969 10.3193 3.33301 10.4776 3.33301 10.6665C3.33301 10.8554 3.3969 11.0137 3.52467 11.1415C3.65245 11.2693 3.81079 11.3332 3.99967 11.3332ZM3.99967 8.6665H11.9997C12.1886 8.6665 12.3469 8.60261 12.4747 8.47484C12.6025 8.34706 12.6663 8.18873 12.6663 7.99984C12.6663 7.81095 12.6025 7.65261 12.4747 7.52484C12.3469 7.39706 12.1886 7.33317 11.9997 7.33317H3.99967C3.81079 7.33317 3.65245 7.39706 3.52467 7.52484C3.3969 7.65261 3.33301 7.81095 3.33301 7.99984C3.33301 8.18873 3.3969 8.34706 3.52467 8.47484C3.65245 8.60261 3.81079 8.6665 3.99967 8.6665ZM3.99967 5.99984H9.33301C9.5219 5.99984 9.68023 5.93595 9.80801 5.80817C9.93579 5.68039 9.99967 5.52206 9.99967 5.33317C9.99967 5.14428 9.93579 4.98595 9.80801 4.85817C9.68023 4.73039 9.5219 4.6665 9.33301 4.6665H3.99967C3.81079 4.6665 3.65245 4.73039 3.52467 4.85817C3.3969 4.98595 3.33301 5.14428 3.33301 5.33317C3.33301 5.52206 3.3969 5.68039 3.52467 5.80817C3.65245 5.93595 3.81079 5.99984 3.99967 5.99984Z" fill="#666666"/>
</g>
</g>
</svg>
