<svg width="25" height="24" viewBox="0 0 25 24" fill="none" xmlns="http://www.w3.org/2000/svg">
<g id="counter">
<mask id="mask0_316_2107" style="mask-type:alpha" maskUnits="userSpaceOnUse" x="0" y="0" width="25" height="24">
<rect id="Bounding box" x="0.5" width="24" height="24" fill="#D9D9D9"/>
</mask>
<g mask="url(#mask0_316_2107)">
<path id="counter_2" d="M12.5 22C11.1167 22 9.81667 21.7375 8.6 21.2125C7.38333 20.6875 6.325 19.975 5.425 19.075C4.525 18.175 3.8125 17.1167 3.2875 15.9C2.7625 14.6833 2.5 13.3833 2.5 12C2.5 10.6167 2.7625 9.31667 3.2875 8.1C3.8125 6.88333 4.525 5.825 5.425 4.925C6.325 4.025 7.38333 3.3125 8.6 2.7875C9.81667 2.2625 11.1167 2 12.5 2C13.8833 2 15.1833 2.2625 16.4 2.7875C17.6167 3.3125 18.675 4.025 19.575 4.925C20.475 5.825 21.1875 6.88333 21.7125 8.1C22.2375 9.31667 22.5 10.6167 22.5 12C22.5 13.3833 22.2375 14.6833 21.7125 15.9C21.1875 17.1167 20.475 18.175 19.575 19.075C18.675 19.975 17.6167 20.6875 16.4 21.2125C15.1833 21.7375 13.8833 22 12.5 22ZM9.5 17H15.5V15H11.5V13H13.5C14.05 13 14.5208 12.8042 14.9125 12.4125C15.3042 12.0208 15.5 11.55 15.5 11V9C15.5 8.45 15.3042 7.97917 14.9125 7.5875C14.5208 7.19583 14.05 7 13.5 7H9.5V9H13.5V11H11.5C10.95 11 10.4792 11.1958 10.0875 11.5875C9.69583 11.9792 9.5 12.45 9.5 13V17Z" fill="#2D2E34"/>
</g>
</g>
</svg>
