<svg width="48" height="48" viewBox="0 0 48 48" fill="none" xmlns="http://www.w3.org/2000/svg">
<g id="deployed_code">
<mask id="mask0_868_5256" style="mask-type:alpha" maskUnits="userSpaceOnUse" x="0" y="0" width="48" height="48">
<rect id="Bounding box" width="48" height="48" fill="#D9D9D9"/>
</mask>
<g mask="url(#mask0_868_5256)">
<path id="deployed_code_2" d="M23 39.427V24.5732L10 17.0462V31.2078C10 31.4129 10.0513 31.6052 10.1538 31.7847C10.2564 31.9642 10.4103 32.118 10.6154 32.2462L23 39.427ZM25 39.427L37.3846 32.2462C37.5897 32.118 37.7436 31.9642 37.8461 31.7847C37.9487 31.6052 38 31.4129 38 31.2078V17.0462L25 24.5732V39.427ZM24 22.8539L36.85 15.427L24.6154 8.34623C24.4103 8.21803 24.2051 8.15393 24 8.15393C23.7949 8.15393 23.5897 8.21803 23.3846 8.34623L11.15 15.427L24 22.8539ZM9.61535 34.0155C9.11025 33.7258 8.71475 33.3321 8.42885 32.8347C8.14295 32.3372 8 31.7988 8 31.2193V16.7808C8 16.2014 8.14295 15.6629 8.42885 15.1655C8.71475 14.668 9.11025 14.2744 9.61535 13.9847L22.3846 6.62698C22.8897 6.33725 23.4282 6.19238 24 6.19238C24.5718 6.19238 25.1103 6.33725 25.6154 6.62698L38.3846 13.9847C38.8897 14.2744 39.2852 14.668 39.5711 15.1655C39.857 15.6629 40 16.2014 40 16.7808V31.2193C40 31.7988 39.857 32.3372 39.5711 32.8347C39.2852 33.3321 38.8897 33.7258 38.3846 34.0155L25.6154 41.3732C25.1103 41.6629 24.5718 41.8078 24 41.8078C23.4282 41.8078 22.8897 41.6629 22.3846 41.3732L9.61535 34.0155Z" fill="#2791FF"/>
</g>
</g>
</svg>
