
<svg width="16" height="16" viewBox="0 0 16 16" fill="none" xmlns="http://www.w3.org/2000/svg">
<g id="data_table">
<mask id="mask0_379_15067" style="mask-type:alpha" maskUnits="userSpaceOnUse" x="0" y="0" width="16" height="16">
<rect id="Bounding box" width="16" height="16" fill="#D9D9D9"/>
</mask>
<g mask="url(#mask0_379_15067)">
<path id="data_table_2" d="M3.33333 14C2.96667 14 2.65278 13.8694 2.39167 13.6083C2.13056 13.3472 2 13.0333 2 12.6667V3.33333C2 2.96667 2.13056 2.65278 2.39167 2.39167C2.65278 2.13056 2.96667 2 3.33333 2H12.6667C13.0333 2 13.3472 2.13056 13.6083 2.39167C13.8694 2.65278 14 2.96667 14 3.33333V12.6667C14 13.0333 13.8694 13.3472 13.6083 13.6083C13.3472 13.8694 13.0333 14 12.6667 14H3.33333ZM3.33333 5.55H12.6667V3.33333H3.33333V5.55ZM3.33333 9.11667H12.6667V6.88333H3.33333V9.11667ZM3.33333 12.6667H12.6667V10.45H3.33333V12.6667ZM4.66667 5.1C4.47778 5.1 4.31944 5.03611 4.19167 4.90833C4.06389 4.78056 4 4.62222 4 4.43333C4 4.24444 4.06389 4.08611 4.19167 3.95833C4.31944 3.83056 4.47778 3.76667 4.66667 3.76667C4.85556 3.76667 5.01389 3.83056 5.14167 3.95833C5.26944 4.08611 5.33333 4.24444 5.33333 4.43333C5.33333 4.62222 5.26944 4.78056 5.14167 4.90833C5.01389 5.03611 4.85556 5.1 4.66667 5.1ZM4.66667 8.66667C4.47778 8.66667 4.31944 8.60278 4.19167 8.475C4.06389 8.34722 4 8.18889 4 8C4 7.81111 4.06389 7.65278 4.19167 7.525C4.31944 7.39722 4.47778 7.33333 4.66667 7.33333C4.85556 7.33333 5.01389 7.39722 5.14167 7.525C5.26944 7.65278 5.33333 7.81111 5.33333 8C5.33333 8.18889 5.26944 8.34722 5.14167 8.475C5.01389 8.60278 4.85556 8.66667 4.66667 8.66667ZM4.66667 12.2333C4.47778 12.2333 4.31944 12.1694 4.19167 12.0417C4.06389 11.9139 4 11.7556 4 11.5667C4 11.3778 4.06389 11.2194 4.19167 11.0917C4.31944 10.9639 4.47778 10.9 4.66667 10.9C4.85556 10.9 5.01389 10.9639 5.14167 11.0917C5.26944 11.2194 5.33333 11.3778 5.33333 11.5667C5.33333 11.7556 5.26944 11.9139 5.14167 12.0417C5.01389 12.1694 4.85556 12.2333 4.66667 12.2333Z" fill="#666666"/>
</g>
</g>
</svg>
