<svg width="20" height="20" viewBox="0 0 20 20" fill="none" xmlns="http://www.w3.org/2000/svg">
<g id="delete">
<mask id="mask0_1197_12631" style="mask-type:alpha" maskUnits="userSpaceOnUse" x="0" y="0" width="20" height="20">
<rect id="Bounding box" width="20" height="20" fill="#D9D9D9"/>
</mask>
<g mask="url(#mask0_1197_12631)">
<path id="delete_2" d="M5.83301 17.5C5.37467 17.5 4.98231 17.3368 4.65592 17.0104C4.32954 16.684 4.16634 16.2917 4.16634 15.8333V5C3.93023 5 3.73231 4.92014 3.57259 4.76042C3.41287 4.60069 3.33301 4.40278 3.33301 4.16667C3.33301 3.93056 3.41287 3.73264 3.57259 3.57292C3.73231 3.41319 3.93023 3.33333 4.16634 3.33333H7.49967C7.49967 3.09722 7.57954 2.89931 7.73926 2.73958C7.89898 2.57986 8.0969 2.5 8.33301 2.5H11.6663C11.9025 2.5 12.1004 2.57986 12.2601 2.73958C12.4198 2.89931 12.4997 3.09722 12.4997 3.33333H15.833C16.0691 3.33333 16.267 3.41319 16.4268 3.57292C16.5865 3.73264 16.6663 3.93056 16.6663 4.16667C16.6663 4.40278 16.5865 4.60069 16.4268 4.76042C16.267 4.92014 16.0691 5 15.833 5V15.8333C15.833 16.2917 15.6698 16.684 15.3434 17.0104C15.017 17.3368 14.6247 17.5 14.1663 17.5H5.83301ZM14.1663 5H5.83301V15.8333H14.1663V5ZM7.49967 14.1667H9.16634V6.66667H7.49967V14.1667ZM10.833 14.1667H12.4997V6.66667H10.833V14.1667Z" fill="#464646"/>
</g>
</g>
</svg>
