<svg xmlns="http://www.w3.org/2000/svg" width="14" height="16" viewBox="0 0 14 16" fill="none">
  <path d="M2.83301 15.5C2.37467 15.5 1.98231 15.3368 1.65592 15.0104C1.32954 14.684 1.16634 14.2917 1.16634 13.8333V3C0.93023 3 0.732313 2.92014 0.572591 2.76042C0.412869 2.60069 0.333008 2.40278 0.333008 2.16667C0.333008 1.93056 0.412869 1.73264 0.572591 1.57292C0.732313 1.41319 0.93023 1.33333 1.16634 1.33333H4.49967C4.49967 1.09722 4.57954 0.899306 4.73926 0.739583C4.89898 0.579861 5.0969 0.5 5.33301 0.5H8.66634C8.90245 0.5 9.10037 0.579861 9.26009 0.739583C9.41981 0.899306 9.49967 1.09722 9.49967 1.33333H12.833C13.0691 1.33333 13.267 1.41319 13.4268 1.57292C13.5865 1.73264 13.6663 1.93056 13.6663 2.16667C13.6663 2.40278 13.5865 2.60069 13.4268 2.76042C13.267 2.92014 13.0691 3 12.833 3V13.8333C12.833 14.2917 12.6698 14.684 12.3434 15.0104C12.017 15.3368 11.6247 15.5 11.1663 15.5H2.83301ZM11.1663 3H2.83301V13.8333H11.1663V3ZM4.49967 12.1667H6.16634V4.66667H4.49967V12.1667ZM7.83301 12.1667H9.49967V4.66667H7.83301V12.1667Z" fill="#D71E28"/>
</svg>