<svg width="56" height="56" viewBox="0 0 56 56" fill="none" xmlns="http://www.w3.org/2000/svg">
<g id="deployed_code">
<mask id="mask0_1278_13157" style="mask-type:alpha" maskUnits="userSpaceOnUse" x="0" y="0" width="56" height="56">
<rect id="Bounding box" width="56" height="56" fill="#D9D9D9"/>
</mask>
<g mask="url(#mask0_1278_13157)">
<path id="deployed_code_2" d="M26.833 45.9983V28.6689L11.6663 19.8874V36.4092C11.6663 36.6486 11.7262 36.8729 11.8458 37.0823C11.9655 37.2917 12.145 37.4712 12.3843 37.6208L26.833 45.9983ZM29.1663 45.9983L43.615 37.6208C43.8544 37.4712 44.0339 37.2917 44.1535 37.0823C44.2732 36.8729 44.333 36.6486 44.333 36.4092V19.8874L29.1663 28.6689V45.9983ZM27.9997 26.6631L42.9913 17.9983L28.7176 9.73743C28.4783 9.58787 28.239 9.51309 27.9997 9.51309C27.7604 9.51309 27.521 9.58787 27.2817 9.73743L13.008 17.9983L27.9997 26.6631ZM11.2176 39.6849C10.6283 39.3469 10.1669 38.8877 9.83333 38.3073C9.49978 37.7269 9.33301 37.0988 9.33301 36.4227V19.5778C9.33301 18.9018 9.49978 18.2736 9.83333 17.6932C10.1669 17.1128 10.6283 16.6536 11.2176 16.3156L26.115 7.73164C26.7044 7.39362 27.3326 7.22461 27.9997 7.22461C28.6668 7.22461 29.295 7.39362 29.8843 7.73164L44.7818 16.3156C45.371 16.6536 45.8325 17.1128 46.166 17.6932C46.4996 18.2736 46.6663 18.9018 46.6663 19.5778V36.4227C46.6663 37.0988 46.4996 37.7269 46.166 38.3073C45.8325 38.8877 45.371 39.3469 44.7818 39.6849L29.8843 48.2689C29.295 48.6069 28.6668 48.7759 27.9997 48.7759C27.3326 48.7759 26.7044 48.6069 26.115 48.2689L11.2176 39.6849Z" fill="#2791FF"/>
</g>
</g>
</svg>
