<svg width="32" height="32" viewBox="0 0 32 32" fill="none" xmlns="http://www.w3.org/2000/svg">
<g id="deployed">
<mask id="mask0_1061_9211" style="mask-type:alpha" maskUnits="userSpaceOnUse" x="0" y="0" width="32" height="32">
<rect id="Bounding box" width="32" height="32" fill="#D9D9D9"/>
</mask>
<g mask="url(#mask0_1061_9211)">
<path id="deployed_code" d="M15.3335 26.2848V16.3823L6.66683 11.3643V20.8054C6.66683 20.9421 6.70102 21.0703 6.7694 21.19C6.83777 21.3096 6.94034 21.4122 7.0771 21.4977L15.3335 26.2848ZM16.6668 26.2848L24.9232 21.4977C25.06 21.4122 25.1625 21.3096 25.2309 21.19C25.2993 21.0703 25.3335 20.9421 25.3335 20.8054V11.3643L16.6668 16.3823V26.2848ZM16.0002 15.2361L24.5668 10.2848L16.4104 5.56432C16.2737 5.47885 16.1369 5.43612 16.0002 5.43612C15.8634 5.43612 15.7267 5.47885 15.5899 5.56432L7.4335 10.2848L16.0002 15.2361ZM6.4104 22.6772C6.07366 22.484 5.81 22.2216 5.6194 21.8899C5.4288 21.5583 5.3335 21.1994 5.3335 20.8131V11.1874C5.3335 10.8011 5.4288 10.4421 5.6194 10.1105C5.81 9.77884 6.07366 9.51644 6.4104 9.32329L14.9232 4.41815C15.26 4.225 15.619 4.12842 16.0002 4.12842C16.3814 4.12842 16.7403 4.225 17.0771 4.41815L25.5899 9.32329C25.9267 9.51644 26.1903 9.77884 26.3809 10.1105C26.5715 10.4421 26.6668 10.8011 26.6668 11.1874V20.8131C26.6668 21.1994 26.5715 21.5583 26.3809 21.8899C26.1903 22.2216 25.9267 22.484 25.5899 22.6772L17.0771 27.5823C16.7403 27.7754 16.3814 27.872 16.0002 27.872C15.619 27.872 15.26 27.7754 14.9232 27.5823L6.4104 22.6772Z" fill="#86B1DD"/>
</g>
</g>
</svg>
