<svg width="24" height="24" viewBox="0 0 24 24" fill="none" xmlns="http://www.w3.org/2000/svg">
<g id="Group">
<g id="Group_2">
<path id="Vector" d="M22.1259 17.1511H21.4273V16.269C21.4273 14.1805 19.7281 12.4814 17.6396 12.4814H16.1727H12.8602V9.21922H14.9555C15.9888 9.21922 16.8295 8.37852 16.8295 7.34511V2.79598C16.8295 1.76263 15.9888 0.921875 14.9555 0.921875H9.35733C8.32397 0.921875 7.48327 1.76258 7.48327 2.79598V7.34506C7.48327 8.37842 8.32397 9.21917 9.35733 9.21917H11.4526V12.4813H8.18705H6.39159C4.30303 12.4813 2.604 14.1805 2.604 16.269V17.1511H1.87411C0.840703 17.1511 0 17.9918 0 19.0252V21.2043C0 22.2376 0.840703 23.0783 1.87411 23.0783H4.74127C5.77463 23.0783 6.61533 22.2376 6.61533 21.2043V19.0252C6.61533 17.9918 5.77463 17.1511 4.74127 17.1511H4.01147V16.269C4.01147 14.9567 5.07919 13.889 6.39155 13.889H8.187H11.4526V17.1511H10.7228C9.68939 17.1511 8.84869 17.9918 8.84869 19.0252V21.2043C8.84869 22.2376 9.68939 23.0783 10.7228 23.0783H13.59C14.6233 23.0783 15.464 22.2376 15.464 21.2043V19.0252C15.464 17.9918 14.6233 17.1511 13.59 17.1511H12.8602V13.889H16.1727H17.6397C18.9521 13.889 20.0198 14.9567 20.0198 16.269V17.1511H19.2587C18.2254 17.1511 17.3847 17.9918 17.3847 19.0252V21.2043C17.3847 22.2376 18.2254 23.0783 19.2587 23.0783H22.1259C23.1593 23.0783 24 22.2376 24 21.2043V19.0252C24 17.9918 23.1593 17.1511 22.1259 17.1511ZM4.74131 18.5586C4.99856 18.5586 5.20786 18.768 5.20786 19.0252V21.2043C5.20786 21.4615 4.99856 21.6708 4.74131 21.6708H1.87416C1.61691 21.6708 1.40756 21.4615 1.40756 21.2043V19.0252C1.40756 18.768 1.61691 18.5586 1.87416 18.5586H4.74131ZM13.59 18.5586C13.8473 18.5586 14.0565 18.768 14.0565 19.0252V21.2043C14.0565 21.4615 13.8473 21.6708 13.59 21.6708H10.7228C10.4656 21.6708 10.2563 21.4615 10.2563 21.2043V19.0252C10.2563 18.768 10.4656 18.5586 10.7228 18.5586H13.59ZM9.35733 7.8117C9.10008 7.8117 8.89078 7.60236 8.89078 7.34511V2.79598C8.89078 2.53873 9.10008 2.32939 9.35733 2.32939H14.9554C15.2127 2.32939 15.422 2.53869 15.422 2.79598V7.34506C15.422 7.60231 15.2127 7.81166 14.9554 7.81166H9.35733V7.8117ZM22.5925 21.2043C22.5925 21.4616 22.3831 21.6709 22.1259 21.6709H19.2587C19.0015 21.6709 18.7922 21.4616 18.7922 21.2043V19.0253C18.7922 18.768 19.0015 18.5587 19.2587 18.5587H22.1259C22.3831 18.5587 22.5925 18.768 22.5925 19.0253V21.2043Z" fill="white"/>
</g>
</g>
</svg>
