<svg width="20" height="20" viewBox="0 0 20 20" fill="none" xmlns="http://www.w3.org/2000/svg">
<g id="Group">
<g id="Group_2">
<path id="Vector" d="M18.4382 14.2924H17.8561V13.5574C17.8561 11.8169 16.4401 10.401 14.6997 10.401H13.4772H10.7168V7.68252H12.4629C13.324 7.68252 14.0246 6.98193 14.0246 6.12076V2.32982C14.0246 1.46869 13.324 0.768066 12.4629 0.768066H7.79777C6.93664 0.768066 6.23605 1.46865 6.23605 2.32982V6.12072C6.23605 6.98185 6.93664 7.68248 7.79777 7.68248H9.54387V10.401H6.82254H5.32633C3.58586 10.401 2.17 11.8169 2.17 13.5573V14.2924H1.56176C0.700586 14.2924 0 14.993 0 15.8542V17.6701C0 18.5312 0.700586 19.2318 1.56176 19.2318H3.95105C4.81219 19.2318 5.51277 18.5312 5.51277 17.6701V15.8542C5.51277 14.993 4.81219 14.2924 3.95105 14.2924H3.34289V13.5574C3.34289 12.4637 4.23266 11.574 5.32629 11.574H6.8225H9.54383V14.2924H8.93566C8.07449 14.2924 7.37391 14.993 7.37391 15.8542V17.6701C7.37391 18.5312 8.07449 19.2318 8.93566 19.2318H11.325C12.1861 19.2318 12.8867 18.5312 12.8867 17.6701V15.8542C12.8867 14.993 12.1861 14.2924 11.325 14.2924H10.7168V11.574H13.4773H14.6998C15.7934 11.574 16.6832 12.4637 16.6832 13.5574V14.2924H16.0489C15.1878 14.2924 14.4872 14.993 14.4872 15.8542V17.6701C14.4872 18.5312 15.1878 19.2318 16.0489 19.2318H18.4382C19.2994 19.2318 20 18.5312 20 17.6701V15.8542C20 14.993 19.2994 14.2924 18.4382 14.2924ZM3.95109 15.4654C4.16547 15.4654 4.33988 15.6398 4.33988 15.8542V17.6701C4.33988 17.8844 4.16547 18.0588 3.95109 18.0588H1.5618C1.34742 18.0588 1.17297 17.8844 1.17297 17.6701V15.8542C1.17297 15.6398 1.34742 15.4654 1.5618 15.4654H3.95109ZM11.325 15.4654C11.5394 15.4654 11.7138 15.6398 11.7138 15.8542V17.6701C11.7138 17.8844 11.5394 18.0588 11.325 18.0588H8.9357C8.72133 18.0588 8.54688 17.8844 8.54688 17.6701V15.8542C8.54688 15.6398 8.72133 15.4654 8.9357 15.4654H11.325ZM7.79777 6.50959C7.5834 6.50959 7.40898 6.33514 7.40898 6.12076V2.32982C7.40898 2.11545 7.5834 1.941 7.79777 1.941H12.4629C12.6772 1.941 12.8516 2.11541 12.8516 2.32982V6.12072C12.8516 6.3351 12.6772 6.50955 12.4629 6.50955H7.79777V6.50959ZM18.8271 17.6701C18.8271 17.8845 18.6526 18.0589 18.4382 18.0589H16.0489C15.8346 18.0589 15.6602 17.8845 15.6602 17.6701V15.8542C15.6602 15.6399 15.8346 15.4654 16.0489 15.4654H18.4382C18.6526 15.4654 18.8271 15.6398 18.8271 15.8542V17.6701Z" fill="#34384E"/>
</g>
</g>
</svg>
