
<svg width="17" height="17" viewBox="0 0 17 17" fill="none" xmlns="http://www.w3.org/2000/svg">
<g id="error">
<mask id="mask0_160_12967" style="mask-type:alpha" maskUnits="userSpaceOnUse" x="0" y="0" width="17" height="17">
<rect id="Bounding box" width="17" height="17" fill="#D9D9D9"/>
</mask>
<g mask="url(#mask0_160_12967)">
<path id="error_2" d="M8.50033 12.042C8.70102 12.042 8.86925 11.9741 9.00501 11.8383C9.14078 11.7026 9.20866 11.5344 9.20866 11.3337C9.20866 11.133 9.14078 10.9647 9.00501 10.829C8.86925 10.6932 8.70102 10.6253 8.50033 10.6253C8.29963 10.6253 8.1314 10.6932 7.99564 10.829C7.85987 10.9647 7.79199 11.133 7.79199 11.3337C7.79199 11.5344 7.85987 11.7026 7.99564 11.8383C8.1314 11.9741 8.29963 12.042 8.50033 12.042ZM8.50033 9.20866C8.70102 9.20866 8.86925 9.14078 9.00501 9.00501C9.14078 8.86925 9.20866 8.70102 9.20866 8.50033V5.66699C9.20866 5.4663 9.14078 5.29807 9.00501 5.1623C8.86925 5.02654 8.70102 4.95866 8.50033 4.95866C8.29963 4.95866 8.1314 5.02654 7.99564 5.1623C7.85987 5.29807 7.79199 5.4663 7.79199 5.66699V8.50033C7.79199 8.70102 7.85987 8.86925 7.99564 9.00501C8.1314 9.14078 8.29963 9.20866 8.50033 9.20866ZM8.50033 15.5837C7.52046 15.5837 6.59963 15.3977 5.73783 15.0258C4.87602 14.654 4.12637 14.1493 3.48887 13.5118C2.85137 12.8743 2.34668 12.1246 1.9748 11.2628C1.60293 10.401 1.41699 9.48019 1.41699 8.50033C1.41699 7.52046 1.60293 6.59963 1.9748 5.73783C2.34668 4.87602 2.85137 4.12637 3.48887 3.48887C4.12637 2.85137 4.87602 2.34668 5.73783 1.9748C6.59963 1.60293 7.52046 1.41699 8.50033 1.41699C9.48019 1.41699 10.401 1.60293 11.2628 1.9748C12.1246 2.34668 12.8743 2.85137 13.5118 3.48887C14.1493 4.12637 14.654 4.87602 15.0258 5.73783C15.3977 6.59963 15.5837 7.52046 15.5837 8.50033C15.5837 9.48019 15.3977 10.401 15.0258 11.2628C14.654 12.1246 14.1493 12.8743 13.5118 13.5118C12.8743 14.1493 12.1246 14.654 11.2628 15.0258C10.401 15.3977 9.48019 15.5837 8.50033 15.5837Z" fill="#D71E28"/>
</g>
</g>
</svg>
