<svg width="20" height="20" viewBox="0 0 20 20" fill="none" xmlns="http://www.w3.org/2000/svg">
<g id="expand_circle">
<mask id="mask0_1486_12883" style="mask-type:alpha" maskUnits="userSpaceOnUse" x="0" y="0" width="20" height="20">
<rect id="Bounding box" width="20" height="20" fill="#D9D9D9"/>
</mask>
<g mask="url(#mask0_1486_12883)">
<path id="expand_circle_right" d="M10.5623 9.99984L8.58317 11.979C8.43039 12.1318 8.354 12.3228 8.354 12.5519C8.354 12.7811 8.43039 12.979 8.58317 13.1457C8.74984 13.3123 8.94775 13.3957 9.17692 13.3957C9.40609 13.3957 9.604 13.3123 9.77067 13.1457L12.3332 10.5832C12.4998 10.4165 12.5832 10.2221 12.5832 9.99984C12.5832 9.77762 12.4998 9.58317 12.3332 9.4165L9.74984 6.83317C9.58317 6.6665 9.38873 6.58664 9.1665 6.59359C8.94428 6.60053 8.74984 6.68734 8.58317 6.854C8.43039 7.02067 8.35053 7.21512 8.34359 7.43734C8.33664 7.65956 8.4165 7.854 8.58317 8.02067L10.5623 9.99984ZM9.99984 18.3332C8.84706 18.3332 7.76373 18.1144 6.74984 17.6769C5.73595 17.2394 4.854 16.6457 4.104 15.8957C3.354 15.1457 2.76025 14.2637 2.32275 13.2498C1.88525 12.2359 1.6665 11.1526 1.6665 9.99984C1.6665 8.84706 1.88525 7.76373 2.32275 6.74984C2.76025 5.73595 3.354 4.854 4.104 4.104C4.854 3.354 5.73595 2.76025 6.74984 2.32275C7.76373 1.88525 8.84706 1.6665 9.99984 1.6665C11.1526 1.6665 12.2359 1.88525 13.2498 2.32275C14.2637 2.76025 15.1457 3.354 15.8957 4.104C16.6457 4.854 17.2394 5.73595 17.6769 6.74984C18.1144 7.76373 18.3332 8.84706 18.3332 9.99984C18.3332 11.1526 18.1144 12.2359 17.6769 13.2498C17.2394 14.2637 16.6457 15.1457 15.8957 15.8957C15.1457 16.6457 14.2637 17.2394 13.2498 17.6769C12.2359 18.1144 11.1526 18.3332 9.99984 18.3332ZM9.99984 16.6665C11.8609 16.6665 13.4373 16.0207 14.729 14.729C16.0207 13.4373 16.6665 11.8609 16.6665 9.99984C16.6665 8.13873 16.0207 6.56234 14.729 5.27067C13.4373 3.979 11.8609 3.33317 9.99984 3.33317C8.13873 3.33317 6.56234 3.979 5.27067 5.27067C3.979 6.56234 3.33317 8.13873 3.33317 9.99984C3.33317 11.8609 3.979 13.4373 5.27067 14.729C6.56234 16.0207 8.13873 16.6665 9.99984 16.6665Z" fill="#131A44"/>
</g>
</g>
</svg>
