<svg width="24" height="24" viewBox="0 0 24 24" fill="none" xmlns="http://www.w3.org/2000/svg">
<path fill-rule="evenodd" clip-rule="evenodd" d="M12 6C7.58172 6 4 9.58172 4 14C4 15.3071 4.31272 16.5383 4.86653 17.6255C4.96922 17.8271 5.22242 18 5.58351 18H18.4165C18.7776 18 19.0308 17.8271 19.1335 17.6255C19.6873 16.5383 20 15.3071 20 14C20 12.7973 19.7353 11.6593 19.2619 10.6385C19.0295 10.1375 19.2473 9.54296 19.7483 9.3106C20.2494 9.07824 20.8439 9.29603 21.0763 9.79706C21.6694 11.0761 22 12.5008 22 14C22 15.6299 21.6093 17.1714 20.9156 18.5333C20.4124 19.521 19.3902 20 18.4165 20H5.58351C4.60984 20 3.58755 19.521 3.08442 18.5333C2.39069 17.1714 2 15.6299 2 14C2 8.47715 6.47715 4 12 4C13.4683 4 14.8652 4.31708 16.1238 4.88746C16.6268 5.11543 16.8498 5.70803 16.6219 6.21107C16.3939 6.7141 15.8013 6.93709 15.2983 6.70912C14.2939 6.25395 13.1779 6 12 6ZM19.7782 6.22194C20.1687 6.61247 20.1687 7.24563 19.7782 7.63616L13.9321 13.4822C14.1103 14.1494 13.9377 14.8909 13.4142 15.4143C12.6332 16.1954 11.3668 16.1954 10.5858 15.4143C9.80474 14.6333 9.80474 13.367 10.5858 12.5859C11.1092 12.0624 11.8507 11.8898 12.5179 12.068L18.364 6.22194C18.7545 5.83142 19.3876 5.83142 19.7782 6.22194Z" fill="white"/>
</svg>
