<svg width="33" height="32" viewBox="0 0 33 32" fill="none" xmlns="http://www.w3.org/2000/svg">
<g id="group">
<g id="Logo">
<path id="Vector" d="M20.8056 10.2151H21.7816L24.5632 7.43352L24.6999 6.25255C23.1064 4.84607 21.1807 3.86905 19.1046 3.41376C17.0285 2.95847 14.8706 3.03995 12.8348 3.6505C10.799 4.26106 8.95239 5.38053 7.4695 6.90316C5.98661 8.4258 4.91637 10.3013 4.35986 12.3526C4.66975 12.2256 5.01302 12.205 5.33587 12.294L10.8991 11.3766C10.8991 11.3766 11.1822 10.9081 11.3286 10.9374C12.5206 9.62823 14.1679 8.82423 15.9334 8.68996C17.6988 8.55569 19.4488 9.10132 20.8251 10.2151H20.8056Z" fill="#EA4335"/>
<path id="Vector_2" d="M28.5255 12.3524C27.8861 9.99789 26.5734 7.88123 24.7483 6.26208L20.8443 10.1661C21.6579 10.8309 22.31 11.6718 22.7512 12.6254C23.1925 13.579 23.4115 14.6203 23.3917 15.6708V16.3638C23.8479 16.3638 24.2998 16.4536 24.7213 16.6283C25.1429 16.8029 25.5259 17.0588 25.8486 17.3815C26.1712 17.7041 26.4271 18.0871 26.6018 18.5087C26.7764 18.9303 26.8663 19.3821 26.8663 19.8384C26.8663 20.2947 26.7764 20.7465 26.6018 21.168C26.4271 21.5896 26.1712 21.9726 25.8486 22.2953C25.5259 22.6179 25.1429 22.8739 24.7213 23.0485C24.2998 23.2231 23.8479 23.313 23.3917 23.313H16.4425L15.7495 24.0157V28.1832L16.4425 28.8762H23.3917C25.3322 28.8913 27.2261 28.2814 28.7931 27.1367C30.3601 25.9921 31.5171 24.3734 32.0929 22.5202C32.6687 20.667 32.6327 18.6776 31.9902 16.8465C31.3477 15.0153 30.1329 13.4396 28.5255 12.3524Z" fill="#4285F4"/>
<path id="Vector_3" d="M9.48372 28.8375H16.4329V23.2742H9.48372C8.98862 23.2741 8.49933 23.1676 8.04899 22.9619L7.07298 23.2645L4.27183 26.0461L4.02783 27.0221C5.59865 28.2083 7.51538 28.846 9.48372 28.8375Z" fill="#34A853"/>
<path id="Vector_4" d="M9.48386 10.7913C7.60096 10.8026 5.76859 11.4016 4.24268 12.5048C2.71677 13.608 1.57352 15.1602 0.972604 16.9447C0.37169 18.7291 0.343124 20.6567 0.890894 22.4582C1.43866 24.2597 2.53542 25.8451 4.02797 26.9931L8.05888 22.9621C7.54664 22.7307 7.09819 22.3785 6.75201 21.9356C6.40583 21.4928 6.17226 20.9725 6.07133 20.4196C5.97041 19.8666 6.00515 19.2974 6.17257 18.7608C6.33999 18.2242 6.63509 17.7363 7.03255 17.3388C7.43002 16.9414 7.91798 16.6463 8.45457 16.4788C8.99115 16.3114 9.56035 16.2767 10.1133 16.3776C10.6663 16.4785 11.1865 16.7121 11.6294 17.0583C12.0722 17.4044 12.4245 17.8529 12.6559 18.3651L16.6868 14.3342C15.8407 13.2282 14.7503 12.3328 13.5007 11.7182C12.2512 11.1036 10.8764 10.7864 9.48386 10.7913Z" fill="#FBBC05"/>
</g>
</g>
</svg>
