<svg width="19" height="18" viewBox="0 0 19 18" fill="none" xmlns="http://www.w3.org/2000/svg">
<g id="developer_mode_tv">
<mask id="mask0_2919_8993" style="mask-type:alpha" maskUnits="userSpaceOnUse" x="0" y="0" width="19" height="18">
<rect id="Bounding box" x="0.5" width="18" height="18" fill="#D9D9D9"/>
</mask>
<g mask="url(#mask0_2919_8993)">
<path id="developer_mode_tv_2" d="M4.1 8.25L5.525 6.825C5.6625 6.6875 5.73125 6.5125 5.73125 6.3C5.73125 6.0875 5.6625 5.9125 5.525 5.775C5.3875 5.6375 5.2125 5.56875 5 5.56875C4.7875 5.56875 4.6125 5.6375 4.475 5.775L2.525 7.725C2.375 7.875 2.3 8.05 2.3 8.25C2.3 8.45 2.375 8.625 2.525 8.775L4.475 10.725C4.6125 10.8625 4.7875 10.9312 5 10.9312C5.2125 10.9312 5.3875 10.8625 5.525 10.725C5.6625 10.5875 5.73125 10.4125 5.73125 10.2C5.73125 9.9875 5.6625 9.8125 5.525 9.675L4.1 8.25ZM14.9 8.25L13.475 9.675C13.3375 9.8125 13.2688 9.9875 13.2688 10.2C13.2688 10.4125 13.3375 10.5875 13.475 10.725C13.6125 10.8625 13.7875 10.9312 14 10.9312C14.2125 10.9312 14.3875 10.8625 14.525 10.725L16.475 8.775C16.625 8.625 16.7 8.45 16.7 8.25C16.7 8.05 16.625 7.875 16.475 7.725L14.525 5.775C14.3875 5.6375 14.2125 5.56875 14 5.56875C13.7875 5.56875 13.6125 5.6375 13.475 5.775C13.3375 5.9125 13.2688 6.0875 13.2688 6.3C13.2688 6.5125 13.3375 6.6875 13.475 6.825L14.9 8.25ZM2 4.5V3.75C2 3.3375 2.14688 2.98438 2.44063 2.69063C2.73438 2.39688 3.0875 2.25 3.5 2.25H15.5C15.9125 2.25 16.2656 2.39688 16.5594 2.69063C16.8531 2.98438 17 3.3375 17 3.75V4.5C17 4.7125 16.9281 4.89062 16.7844 5.03438C16.6406 5.17813 16.4625 5.25 16.25 5.25C16.0375 5.25 15.8594 5.17813 15.7156 5.03438C15.5719 4.89062 15.5 4.7125 15.5 4.5V3.75H3.5V4.5C3.5 4.7125 3.42813 4.89062 3.28437 5.03438C3.14062 5.17813 2.9625 5.25 2.75 5.25C2.5375 5.25 2.35938 5.17813 2.21562 5.03438C2.07187 4.89062 2 4.7125 2 4.5ZM7.25 15.75C7.0375 15.75 6.85938 15.6781 6.71562 15.5344C6.57188 15.3906 6.5 15.2125 6.5 15V14.25H3.5C3.0875 14.25 2.73438 14.1031 2.44063 13.8094C2.14688 13.5156 2 13.1625 2 12.75V12.0188C2 11.8063 2.07187 11.6312 2.21562 11.4937C2.35938 11.3562 2.5375 11.2875 2.75 11.2875C2.9625 11.2875 3.14062 11.3594 3.28437 11.5031C3.42813 11.6469 3.5 11.825 3.5 12.0375V12.75H15.5V12.0188C15.5 11.8063 15.5719 11.6312 15.7156 11.4937C15.8594 11.3562 16.0375 11.2875 16.25 11.2875C16.4625 11.2875 16.6406 11.3594 16.7844 11.5031C16.9281 11.6469 17 11.825 17 12.0375V12.75C17 13.1625 16.8531 13.5156 16.5594 13.8094C16.2656 14.1031 15.9125 14.25 15.5 14.25H12.5V15C12.5 15.2125 12.4281 15.3906 12.2844 15.5344C12.1406 15.6781 11.9625 15.75 11.75 15.75H7.25Z" fill="white"/>
</g>
</g>
</svg>
