<svg xmlns="http://www.w3.org/2000/svg" width="26" height="27" viewBox="0 0 26 27" fill="none">
  <mask id="mask0_5218_25398" style="mask-type:alpha" maskUnits="userSpaceOnUse" x="0" y="0" width="26" height="27">
    <rect y="0.5" width="26" height="26" fill="#D9D9D9"/>
  </mask>
  <g mask="url(#mask0_5218_25398)">
    <path d="M10.2917 17.8333C8.32361 17.8333 6.65799 17.1517 5.29479 15.7885C3.9316 14.4253 3.25 12.7597 3.25 10.7917C3.25 8.82361 3.9316 7.15799 5.29479 5.79479C6.65799 4.4316 8.32361 3.75 10.2917 3.75C12.2597 3.75 13.9253 4.4316 15.2885 5.79479C16.6517 7.15799 17.3333 8.82361 17.3333 10.7917C17.3333 11.5861 17.2069 12.3354 16.9542 13.0396C16.7014 13.7437 16.3583 14.3667 15.925 14.9083L21.9917 20.975C22.1903 21.1736 22.2896 21.4264 22.2896 21.7333C22.2896 22.0403 22.1903 22.2931 21.9917 22.4917C21.7931 22.6903 21.5403 22.7896 21.2333 22.7896C20.9264 22.7896 20.6736 22.6903 20.475 22.4917L14.4083 16.425C13.8667 16.8583 13.2437 17.2014 12.5396 17.4542C11.8354 17.7069 11.0861 17.8333 10.2917 17.8333ZM10.2917 15.6667C11.6458 15.6667 12.7969 15.1927 13.7448 14.2448C14.6927 13.2969 15.1667 12.1458 15.1667 10.7917C15.1667 9.4375 14.6927 8.28646 13.7448 7.33854C12.7969 6.39062 11.6458 5.91667 10.2917 5.91667C8.9375 5.91667 7.78646 6.39062 6.83854 7.33854C5.89062 8.28646 5.41667 9.4375 5.41667 10.7917C5.41667 12.1458 5.89062 13.2969 6.83854 14.2448C7.78646 15.1927 8.9375 15.6667 10.2917 15.6667Z" fill="#464646"/>
  </g>
</svg>