<svg width="33" height="32" viewBox="0 0 33 32" fill="none" xmlns="http://www.w3.org/2000/svg">
<g id="hard_drive">
<mask id="mask0_1511_11423" style="mask-type:alpha" maskUnits="userSpaceOnUse" x="0" y="0" width="33" height="32">
<rect id="Bounding box" x="0.5" width="32" height="32" fill="#D9D9D9"/>
</mask>
<g mask="url(#mask0_1511_11423)">
<path id="hard_drive_2" d="M5.83317 22.6666H27.1665V14.6666H5.83317V22.6666ZM23.1665 20.6666C23.7221 20.6666 24.1943 20.4722 24.5832 20.0833C24.9721 19.6944 25.1665 19.2222 25.1665 18.6666C25.1665 18.1111 24.9721 17.6388 24.5832 17.25C24.1943 16.8611 23.7221 16.6666 23.1665 16.6666C22.6109 16.6666 22.1387 16.8611 21.7498 17.25C21.3609 17.6388 21.1665 18.1111 21.1665 18.6666C21.1665 19.2222 21.3609 19.6944 21.7498 20.0833C22.1387 20.4722 22.6109 20.6666 23.1665 20.6666ZM29.8332 12H26.0665L23.3998 9.33329H9.59984L6.93317 12H3.1665L7.73317 7.43329C7.97761 7.18885 8.26095 6.99996 8.58317 6.86663C8.90539 6.73329 9.24428 6.66663 9.59984 6.66663H23.3998C23.7554 6.66663 24.0943 6.73329 24.4165 6.86663C24.7387 6.99996 25.0221 7.18885 25.2665 7.43329L29.8332 12ZM5.83317 25.3333C5.09984 25.3333 4.47206 25.0722 3.94984 24.55C3.42762 24.0277 3.1665 23.4 3.1665 22.6666V12H29.8332V22.6666C29.8332 23.4 29.5721 24.0277 29.0498 24.55C28.5276 25.0722 27.8998 25.3333 27.1665 25.3333H5.83317Z" fill="#92B2FC"/>
</g>
</g>
</svg>
