<svg width="12" height="16" viewBox="0 0 12 16" fill="none" xmlns="http://www.w3.org/2000/svg">
<path d="M4.91248 12.65L8.79373 8H5.79373L6.33748 3.74375L2.86873 8.75H5.47498L4.91248 12.65ZM3.74998 10.25H1.42498C1.12498 10.25 0.903102 10.1156 0.759352 9.84688C0.615602 9.57813 0.631227 9.31875 0.806227 9.06875L6.41248 1.00625C6.53748 0.831254 6.69998 0.709379 6.89998 0.640629C7.09998 0.571879 7.30623 0.575004 7.51873 0.650004C7.73123 0.725004 7.88748 0.856254 7.98748 1.04375C8.08748 1.23125 8.12498 1.43125 8.09998 1.64375L7.49998 6.5H10.4062C10.7312 6.5 10.9594 6.64375 11.0906 6.93125C11.2219 7.21875 11.1812 7.4875 10.9687 7.7375L4.79998 15.125C4.66248 15.2875 4.49373 15.3938 4.29373 15.4438C4.09373 15.4938 3.89998 15.475 3.71248 15.3875C3.52498 15.3 3.3781 15.1656 3.27185 14.9844C3.1656 14.8031 3.12498 14.6063 3.14998 14.3938L3.74998 10.25Z" fill="#122B6D"/>
</svg>
