<svg width="455" height="280" viewBox="0 0 455 280" fill="none" xmlns="http://www.w3.org/2000/svg">
<g clip-path="url(#clip0_137_19355)">
<path fill-rule="evenodd" clip-rule="evenodd" d="M246.029 -27.6843C331.651 -25.8606 428.612 -6.90995 454.663 74.6731C480.46 155.463 414.16 229.799 342.96 275.876C284.412 313.767 212.857 306.503 153.833 269.359C75.5909 220.121 -19.2805 153.453 8.12312 65.1619C36.0213 -24.7224 151.936 -29.6885 246.029 -27.6843Z" fill="#F9FBFF"/>
<path fill-rule="evenodd" clip-rule="evenodd" d="M313.408 -22.3782C223.055 -23.4062 102.841 -31.251 81.2487 56.5529C60.7101 140.071 185.787 161.504 255.983 211.135C320.946 257.065 375.83 352.311 445.661 314.2C531.735 267.224 565.747 152.965 529.869 61.6572C498.558 -18.0285 398.966 -21.4047 313.408 -22.3782Z" fill="#EDF4FF"/>
<g clip-path="url(#clip1_137_19355)">
<path d="M193.723 66.7036C211.919 35.7994 246.552 28.2445 259.612 25.3977C304.065 15.7011 369.838 27.3536 401.574 80.0229C429.428 126.249 413.917 175.624 411.672 182.391C407.902 193.742 398.465 220.971 371.709 239.414C330.055 268.127 266.565 261.687 244.838 232.048C234.634 218.127 242.891 211.708 231.005 187.093C215.087 154.127 195.334 154.92 186.13 128.527C175.74 98.7318 192.042 69.5592 193.723 66.7036Z" fill="#F5F9FF"/>
<path fill-rule="evenodd" clip-rule="evenodd" d="M273.104 186.766H318.972L332.009 234.405H260.065L273.104 186.766ZM273.442 187.208L260.645 233.963H331.429L318.635 187.208H273.442Z" fill="black"/>
<path d="M198.092 78.9667H197.65V70.4471C197.65 66.3142 201.007 62.9512 205.137 62.9512H227.135V63.3937H205.137C201.252 63.3937 198.092 66.5561 198.092 70.4471V78.9667Z" fill="#313036"/>
<path d="M386.936 202.726H205.137C201.01 202.726 197.65 199.363 197.65 195.23V194.608H198.092V195.23C198.092 199.118 201.252 202.284 205.137 202.284H386.936C390.822 202.284 393.981 199.121 393.981 195.23V70.4452C393.981 66.5571 390.822 63.3917 386.936 63.3917H370.21V62.9492H386.936C391.063 62.9492 394.424 66.3122 394.424 70.4452V195.23C394.424 199.363 391.066 202.726 386.936 202.726Z" fill="#313036"/>
<path fill-rule="evenodd" clip-rule="evenodd" d="M247.868 233.862C247.868 231.241 249.99 229.115 252.608 229.115H339.471C342.089 229.115 344.212 231.241 344.212 233.862C344.212 236.482 342.089 238.608 339.471 238.608H252.608C249.99 238.608 247.868 236.482 247.868 233.862ZM252.608 229.558C250.235 229.558 248.31 231.485 248.31 233.862C248.31 236.239 250.235 238.166 252.608 238.166H339.471C341.844 238.166 343.769 236.239 343.769 233.862C343.769 231.485 341.844 229.558 339.471 229.558H252.608Z" fill="black"/>
<path d="M310.738 27.9609H367.467V194.028H231.519V27.9609H273.335H310.738Z" fill="#EBF1FF"/>
<path d="M231.519 111.343C231.398 111.343 231.298 111.243 231.298 111.122V27.9615C231.298 27.8405 231.398 27.7402 231.519 27.7402H273.335C273.456 27.7402 273.556 27.8405 273.556 27.9615C273.556 28.0824 273.456 28.1827 273.335 28.1827H231.74V111.122C231.74 111.243 231.64 111.343 231.519 111.343Z" fill="#313036"/>
<path d="M367.466 194.25H231.522C231.401 194.25 231.3 194.149 231.3 194.028V159.797C231.3 159.676 231.401 159.575 231.522 159.575C231.642 159.575 231.743 159.676 231.743 159.797V193.807H367.245V155.372C367.245 155.251 367.345 155.15 367.466 155.15C367.587 155.15 367.688 155.251 367.688 155.372V194.028C367.688 194.149 367.587 194.25 367.466 194.25Z" fill="#313036"/>
<path d="M367.467 119.308C367.346 119.308 367.245 119.208 367.245 119.087V28.1827H326.845C326.724 28.1827 326.624 28.0824 326.624 27.9615C326.624 27.8405 326.724 27.7402 326.845 27.7402H367.467C367.587 27.7402 367.688 27.8405 367.688 27.9615V119.087C367.688 119.208 367.587 119.308 367.467 119.308Z" fill="#313036"/>
<path d="M302.165 39.4258H236.54V43.5705H302.165V39.4258Z" fill="#B3C9FF"/>
<path d="M302.165 96.3398H236.54V100.485H302.165V96.3398Z" fill="#B3C9FF"/>
<path d="M302.165 124.795H236.54V128.94H302.165V124.795Z" fill="#B3C9FF"/>
<path d="M352.407 146.057H303.507V150.372H352.407V146.057Z" fill="#B3C9FF"/>
<path d="M317.148 181.627H275.698V185.943H317.148V181.627Z" fill="#B3C9FF"/>
<path d="M387.913 87.2266H387.47V119.677H387.913V87.2266Z" fill="#313036"/>
<path d="M387.913 142.393H387.47V177.203H387.913V142.393Z" fill="#313036"/>
<path d="M387.913 79.8517H387.471V76.1613C387.471 72.639 384.526 69.7745 380.907 69.7745H372.57V69.332H380.907C384.768 69.332 387.913 72.3941 387.913 76.1613V79.8517Z" fill="#313036"/>
<path d="M189.47 199.822H237.72C241.133 199.822 243.903 202.592 243.903 206.005V241.108C243.903 244.521 241.133 247.291 237.72 247.291H189.47C186.056 247.291 183.286 244.521 183.286 241.108V206.005C183.286 202.592 186.056 199.822 189.47 199.822Z" fill="#B3C9FF"/>
<path d="M242.779 199.811H184.372C183.298 199.811 182.428 200.681 182.428 201.755V205.767C182.428 206.84 183.298 207.711 184.372 207.711H242.779C243.853 207.711 244.723 206.84 244.723 205.767V201.755C244.723 200.681 243.853 199.811 242.779 199.811Z" fill="#99B9FF"/>
<path d="M218.866 181.585C218.866 181.585 260.408 179.494 267.683 186.898C275.547 194.904 249.186 237.682 249.186 237.682L240.897 231.526L249.552 202.049L214.769 192.158L218.866 181.585Z" stroke="#313036" stroke-width="0.5" stroke-miterlimit="10"/>
<path d="M198.157 200.78C203.461 203.76 236.304 210.138 236.304 210.138C236.304 210.138 239.083 225.729 241.148 249.329L274.188 248.444L251.906 199.81C250.316 196.229 248.248 192.417 244.576 191.069L209.06 179.31C209.06 179.31 199.399 175.416 194.157 184.974C193.222 186.682 192.316 183.629 191.9 185.007C190.481 189.73 192.641 197.683 198.157 200.78Z" stroke="#313036" stroke-width="0.5" stroke-miterlimit="10"/>
<path fill-rule="evenodd" clip-rule="evenodd" d="M268.024 126.164L268.116 126.396C268.399 127.109 268.275 127.812 267.955 128.447C267.637 129.077 267.119 129.653 266.582 130.137C266.044 130.622 265.475 131.025 265.042 131.305C264.825 131.446 264.641 131.556 264.511 131.632C264.489 131.645 264.468 131.657 264.448 131.668C264.455 131.708 264.462 131.754 264.469 131.807C264.494 132.004 264.516 132.289 264.505 132.658C264.483 133.394 264.331 134.458 263.816 135.79C263.194 137.401 262.05 138.135 261.065 138.46C260.574 138.621 260.124 138.681 259.796 138.7C259.661 138.707 259.547 138.708 259.457 138.706C259.457 138.709 259.457 138.711 259.456 138.713C259.431 138.846 259.392 139.039 259.337 139.286C259.229 139.779 259.059 140.485 258.814 141.338C258.324 143.043 257.53 145.34 256.318 147.705C253.896 152.428 249.779 157.461 243.029 158.523C236.312 159.58 230.68 157.399 226.734 154.963C224.761 153.745 223.206 152.461 222.145 151.481C221.614 150.991 221.206 150.577 220.93 150.284C220.793 150.138 220.688 150.022 220.617 149.943C220.582 149.903 220.555 149.872 220.537 149.851C220.528 149.841 220.521 149.833 220.516 149.827L220.511 149.821L220.509 149.819L220.509 149.819C220.509 149.818 220.508 149.818 220.678 149.676L220.508 149.818L220.42 149.714L225.907 137.017L226.132 137.363L225.946 137.484C226.132 137.363 226.132 137.363 226.132 137.363L226.132 137.364L226.133 137.365L226.138 137.372L226.155 137.398C226.171 137.422 226.194 137.457 226.225 137.503C226.287 137.595 226.379 137.73 226.5 137.902C226.741 138.246 227.095 138.737 227.547 139.324C228.452 140.497 229.747 142.051 231.308 143.575C232.87 145.099 234.692 146.588 236.652 147.635C238.611 148.684 240.695 149.284 242.787 149.055C244.872 148.826 246.861 147.648 248.681 145.979C250.499 144.312 252.131 142.171 253.499 140.051C254.868 137.932 255.969 135.842 256.728 134.28C257.108 133.5 257.402 132.852 257.6 132.399C257.7 132.173 257.775 131.996 257.826 131.876C257.852 131.815 257.871 131.769 257.883 131.738L257.898 131.704L257.901 131.695L257.902 131.693L257.902 131.692C257.902 131.692 257.902 131.692 258.107 131.775L257.902 131.692L257.932 131.619L268.024 126.164ZM258.282 131.932C258.27 131.962 258.254 132.001 258.234 132.047C258.182 132.17 258.106 132.349 258.005 132.578C257.805 133.034 257.508 133.687 257.126 134.474C256.362 136.046 255.252 138.153 253.871 140.291C252.491 142.428 250.837 144.603 248.98 146.305C247.126 148.006 245.052 149.251 242.836 149.495C240.627 149.737 238.452 149.1 236.443 148.026C234.434 146.951 232.578 145.433 230.999 143.891C229.419 142.349 228.11 140.778 227.197 139.594C226.74 139.001 226.382 138.505 226.137 138.156C226.082 138.077 226.032 138.006 225.989 137.943L220.936 149.636C220.94 149.64 220.944 149.644 220.948 149.649C221.016 149.725 221.118 149.838 221.252 149.981C221.522 150.266 221.923 150.673 222.445 151.156C223.491 152.121 225.022 153.386 226.967 154.586C230.855 156.987 236.381 159.121 242.96 158.086C249.506 157.056 253.529 152.173 255.924 147.503C257.12 145.171 257.904 142.902 258.389 141.215C258.631 140.373 258.799 139.676 258.905 139.191C258.959 138.948 258.997 138.758 259.022 138.63C259.034 138.565 259.043 138.516 259.049 138.484C259.051 138.47 259.053 138.459 259.055 138.452C259.057 138.432 259.061 138.411 259.07 138.39L259.836 136.475L259.535 138.265C259.601 138.265 259.681 138.263 259.771 138.258C260.07 138.241 260.481 138.186 260.926 138.039C261.813 137.748 262.838 137.094 263.403 135.631C263.899 134.346 264.042 133.332 264.062 132.645C264.073 132.301 264.052 132.038 264.03 131.864C264.019 131.777 264.007 131.711 263.998 131.669C263.994 131.648 263.991 131.633 263.988 131.623C263.988 131.621 263.987 131.618 263.987 131.617L263.986 131.613L263.986 131.613L263.986 131.612L263.939 131.442L264.095 131.359L264.095 131.359L264.097 131.358L264.107 131.352C264.112 131.35 264.119 131.346 264.128 131.341C264.133 131.338 264.138 131.335 264.144 131.332C264.177 131.313 264.226 131.286 264.289 131.249C264.413 131.177 264.591 131.07 264.801 130.934C265.222 130.661 265.77 130.273 266.286 129.808C266.803 129.342 267.277 128.808 267.56 128.247C267.801 127.769 267.899 127.283 267.781 126.798L258.282 131.932ZM259.497 138.491L259.494 138.509L259.276 138.472C259.494 138.509 259.494 138.509 259.494 138.509L259.494 138.51L259.492 138.521C259.494 138.511 259.496 138.501 259.497 138.491Z" fill="black"/>
<path d="M195.785 132.031C200.095 131.016 201.895 131.001 217.565 131.571C221.394 131.709 225.952 136.524 226.401 140.335C225.182 143.99 219.565 162.041 229.374 176.142C230.767 178.142 231.118 179.771 233.717 181.874C232.256 183.057 227.53 181.65 224.486 182.553C219.43 184.057 219.81 184.249 215.736 184.373C204.957 184.694 201.349 198.987 194.505 197.014C192.31 196.382 190.493 190.111 191.065 185.007C191.573 180.47 191.414 175.6 190.765 170.239C189.006 155.714 186.484 149.412 189.054 141.822C189.818 139.427 190.703 133.229 195.785 132.031Z" fill="#406FDD"/>
<path d="M233.02 144.385C233.02 144.385 224.669 132.299 217.568 131.57L220.099 152.294L233.02 144.385Z" fill="#406FDD"/>
<path d="M183.286 157.842C183.286 157.842 183.888 148.879 186.003 142.581C189.437 132.362 195.591 132.064 195.591 132.064L200.119 157.842H183.283H183.286Z" fill="#406FDD"/>
<path fill-rule="evenodd" clip-rule="evenodd" d="M184.427 157.521L196.966 157.54L197 157.72L196.783 157.761C197 157.72 197 157.72 197 157.72L197.006 157.752L197.024 157.846C197.04 157.928 197.064 158.05 197.094 158.208C197.156 158.523 197.247 158.979 197.362 159.545C197.593 160.677 197.923 162.247 198.32 164C199.116 167.508 200.177 171.734 201.247 174.638C201.774 176.068 202.585 177.215 203.966 177.255L203.967 177.255L212.312 177.526C212.312 177.526 212.312 177.526 212.312 177.526C215.434 177.619 218.534 176.836 221.167 175.165C221.954 174.666 222.825 174.225 223.688 174.008C224.552 173.791 225.428 173.795 226.202 174.213C227.745 175.047 229.41 176.543 230.681 177.818C231.318 178.457 231.86 179.045 232.243 179.474C232.434 179.688 232.586 179.862 232.69 179.983C232.742 180.043 232.782 180.091 232.809 180.123C232.823 180.139 232.833 180.151 232.84 180.159L232.848 180.169L232.851 180.172C232.851 180.172 232.851 180.172 232.681 180.314L232.851 180.172L233.34 180.76L228.306 179.132C226.392 178.514 224.308 178.726 222.557 179.719C222.557 179.719 222.557 179.719 222.557 179.719L219.882 181.236L219.875 181.24L219.781 181.04C219.875 181.24 219.875 181.24 219.874 181.24L219.87 181.242L219.858 181.248C219.847 181.253 219.831 181.26 219.81 181.27C219.767 181.29 219.704 181.319 219.622 181.356C219.458 181.431 219.217 181.539 218.909 181.674C218.292 181.944 217.406 182.32 216.33 182.748C214.177 183.604 211.257 184.665 208.192 185.484C205.131 186.303 201.91 186.885 199.161 186.773C196.418 186.661 194.084 185.854 192.89 183.828C189.073 177.353 185.81 165.482 184.756 157.85L184.427 157.521ZM185.219 157.965C186.294 165.572 189.524 177.247 193.271 183.603C194.35 185.434 196.49 186.221 199.179 186.331C201.862 186.44 205.033 185.871 208.078 185.057C211.12 184.243 214.023 183.189 216.166 182.337C217.238 181.911 218.119 181.537 218.731 181.268C219.038 181.134 219.277 181.027 219.439 180.953C219.521 180.916 219.583 180.888 219.624 180.868C219.645 180.859 219.661 180.851 219.671 180.847L219.679 180.843L222.338 179.334C224.198 178.28 226.41 178.055 228.442 178.711L231.994 179.859C231.968 179.83 231.941 179.8 231.913 179.768C231.534 179.345 230.998 178.763 230.367 178.13C229.102 176.86 227.475 175.404 225.992 174.603C225.347 174.254 224.594 174.237 223.796 174.438C222.996 174.638 222.171 175.053 221.404 175.539C218.691 177.261 215.502 178.064 212.299 177.969L212.298 177.969L203.954 177.697C203.953 177.697 203.953 177.697 203.953 177.697C202.273 177.648 201.367 176.241 200.832 174.791C199.751 171.858 198.684 167.607 197.889 164.098C197.491 162.341 197.16 160.768 196.928 159.633C196.813 159.066 196.722 158.609 196.66 158.293C196.635 158.166 196.615 158.061 196.6 157.982L185.219 157.965Z" fill="black"/>
<path d="M195.733 120.706C199.262 120.202 201.714 116.925 201.209 113.387C200.704 109.848 197.434 107.388 193.905 107.891C190.376 108.395 187.924 111.671 188.429 115.21C188.934 118.749 192.204 121.209 195.733 120.706Z" fill="#313036"/>
<path d="M201.266 113.927C201.438 116.889 199.139 119.635 196.476 120.556C195.564 119.273 193.54 114.505 195.874 107.912C198.788 108.393 201.089 110.847 201.266 113.927Z" fill="#406FDD"/>
<path d="M212.125 112.367C212.68 111.866 215.633 110.677 213.217 107.358C210.801 104.039 203.14 104.169 200.03 106.187C196.921 108.205 196.116 113.521 196.449 116.429C196.782 119.338 198.659 122.91 202.066 124.138C206.072 125.58 210.618 113.736 212.122 112.367H212.125Z" fill="#313036"/>
<path d="M196.656 132.097L196.579 131.811L201.91 130.395C202.697 128.164 202.88 126.852 203.104 124.421C203.125 124.208 203.134 124.09 203.134 124.088L203.14 123.99L203.231 123.958C203.317 123.925 205.367 123.17 205.544 120.848C205.6 120.12 205.166 119.338 204.75 118.583C204.364 117.887 204.001 117.229 204.063 116.656C204.152 115.822 204.812 115.314 205.969 115.187C207.45 115.025 208.795 114.353 209.757 113.296C210.928 112.007 211.883 110.818 212.591 109.765L212.653 109.674L212.786 109.694C213.214 109.824 214.597 114.919 214.597 117.311C214.597 117.5 214.084 122.332 213.509 123.173C213.264 123.53 212.155 123.498 210.733 123.418C210.382 123.397 209.987 123.377 209.866 123.391C209.65 123.869 210.603 128.816 210.996 130.07L215.987 131.56L215.901 131.843L210.762 130.309L210.739 130.235C210.585 129.781 209.134 123.586 209.689 123.146C209.777 123.076 209.945 123.079 210.748 123.123C211.45 123.161 213.096 123.253 213.264 123.005C213.763 122.282 214.302 117.636 214.302 117.311C214.302 114.996 213.128 110.866 212.739 110.075C212.034 111.105 211.105 112.252 209.978 113.491C208.969 114.6 207.556 115.308 206.004 115.476C204.986 115.589 204.432 115.996 204.358 116.686C204.308 117.164 204.65 117.78 205.01 118.435C205.45 119.229 205.904 120.049 205.842 120.866C205.671 123.096 203.854 124.011 203.423 124.194C203.417 124.25 203.411 124.335 203.402 124.442C203.178 126.869 202.98 128.262 202.163 130.56L202.137 130.634L196.656 132.091V132.097Z" fill="#313036"/>
<path d="M209.951 183.092H264.768C264.768 184.717 263.446 186.039 261.821 186.039H212.898C211.273 186.039 209.951 184.717 209.951 183.092Z" fill="#CADDFF"/>
<path d="M264.771 183.145H233.404L243.369 153.772C243.965 152.851 245.003 152.297 246.121 152.297H272.636C273.839 152.297 274.612 153.465 274.22 154.498C274.064 154.908 273.895 155.315 273.76 155.731L264.768 183.148L264.771 183.145Z" fill="#92B2FC"/>
<path fill-rule="evenodd" clip-rule="evenodd" d="M243.569 153.87L233.73 182.871H264.626L273.549 155.663M233.263 182.871L243.168 153.675L243.183 153.652C243.821 152.667 244.93 152.076 246.121 152.076H272.636C273.991 152.076 274.875 153.396 274.427 154.577C274.384 154.689 274.341 154.8 274.298 154.909C274.182 155.208 274.068 155.501 273.97 155.8L273.97 155.8L265.075 182.924H265.306L264.986 183.244C264.907 184.921 263.518 186.261 261.821 186.261H212.898C211.151 186.261 209.73 184.84 209.73 183.092V182.871H233.263ZM264.464 183.367H233.095L233.113 183.314H210.181C210.294 184.714 211.47 185.818 212.898 185.818H261.821C263.092 185.818 264.163 184.944 264.463 183.765L264.27 183.958L264.464 183.367ZM243.569 153.87C244.126 153.028 245.085 152.519 246.121 152.519H272.636C273.688 152.519 274.349 153.535 274.013 154.419" fill="#313036"/>
<mask id="mask0_137_19355" style="mask-type:luminance" maskUnits="userSpaceOnUse" x="251" y="164" width="9" height="9">
<path d="M259.88 164.9H251.871V172.91H259.88V164.9Z" fill="white"/>
</mask>
<g mask="url(#mask0_137_19355)">
<path d="M256.316 166.059L254.369 171.41C254.301 171.593 254.098 171.743 253.915 171.743H253.735L255.682 166.392C255.75 166.209 255.953 166.059 256.136 166.059H256.316Z" fill="#92B2FC"/>
<path d="M257.074 166.045L255.127 171.396C255.06 171.579 254.856 171.73 254.673 171.73H254.493L256.44 166.378C256.508 166.195 256.712 166.045 256.894 166.045H257.074Z" fill="#406FDD"/>
<path d="M257.806 166.045L255.859 171.396C255.791 171.579 255.588 171.73 255.405 171.73H255.225L257.172 166.378C257.24 166.195 257.443 166.045 257.626 166.045H257.806Z" fill="#204097"/>
</g>
<path d="M263.582 61.7562V61.0423C263.582 60.4759 263.19 59.9832 262.635 59.8593L261.511 59.6056C261.063 59.5053 260.712 59.1543 260.603 58.7088C260.573 58.5879 260.541 58.4699 260.508 58.3519C260.384 57.9094 260.511 57.4374 260.848 57.1247L261.694 56.3429C262.11 55.9594 262.205 55.337 261.921 54.8443L261.564 54.2278C261.281 53.7351 260.694 53.505 260.151 53.6761L259.051 54.0183C258.611 54.154 258.136 54.0301 257.815 53.6968C257.729 53.6083 257.644 53.5227 257.558 53.4401C257.228 53.1215 257.101 52.6436 257.24 52.207L257.585 51.1008C257.753 50.558 257.523 49.9739 257.033 49.6907L256.417 49.3337C255.924 49.0505 255.302 49.1449 254.918 49.5609L254.139 50.4075C253.827 50.7468 253.352 50.8736 252.912 50.7497C252.794 50.7173 252.679 50.6848 252.558 50.6553C252.11 50.5432 251.762 50.1951 251.661 49.7438L251.408 48.6169C251.284 48.0623 250.791 47.6699 250.225 47.6699H249.514C248.947 47.6699 248.455 48.0623 248.331 48.6169L248.077 49.7438C247.977 50.1922 247.626 50.5432 247.18 50.6553C247.062 50.6848 246.944 50.7173 246.826 50.7497C246.384 50.8766 245.909 50.7468 245.599 50.4075L244.82 49.5609C244.434 49.142 243.811 49.0476 243.322 49.3337L242.705 49.6907C242.215 49.9739 241.985 50.5609 242.153 51.1008L242.499 52.207C242.634 52.6466 242.507 53.1215 242.18 53.4401C242.091 53.5257 242.006 53.6112 241.923 53.6968C241.605 54.0272 241.127 54.154 240.687 54.0183L239.587 53.6761C239.044 53.508 238.457 53.7381 238.174 54.2278L237.817 54.8443C237.534 55.334 237.628 55.9565 238.044 56.3429L238.891 57.1276C239.227 57.4403 239.357 57.9123 239.23 58.3548C239.197 58.4728 239.165 58.5908 239.136 58.7118C239.023 59.1602 238.675 59.5083 238.227 59.6086L237.103 59.8623C236.548 59.9862 236.156 60.4788 236.156 61.0452V61.7591C236.156 62.3255 236.548 62.8182 237.103 62.9421L238.227 63.1958C238.675 63.2961 239.026 63.6471 239.136 64.0926C239.165 64.2135 239.197 64.3315 239.23 64.4495C239.354 64.892 239.227 65.364 238.891 65.6767L238.044 66.4585C237.628 66.842 237.534 67.4644 237.817 67.9571L238.174 68.5736C238.457 69.0663 239.044 69.2964 239.587 69.1253L240.687 68.7831C241.127 68.6474 241.602 68.7713 241.923 69.1046C242.009 69.1931 242.094 69.2787 242.18 69.3613C242.51 69.6799 242.637 70.1578 242.499 70.5944L242.153 71.7006C241.985 72.2434 242.215 72.8275 242.705 73.1107L243.322 73.4677C243.814 73.7509 244.437 73.6565 244.82 73.2405L245.599 72.3939C245.912 72.0546 246.387 71.9278 246.826 72.0517C246.944 72.0841 247.059 72.1166 247.18 72.1461C247.629 72.2582 247.977 72.6063 248.077 73.0576L248.331 74.1845C248.455 74.7391 248.947 75.1315 249.514 75.1315H250.225C250.791 75.1315 251.284 74.7391 251.408 74.1845L251.661 73.0576C251.762 72.6092 252.113 72.2582 252.558 72.1461C252.676 72.1166 252.794 72.0841 252.912 72.0517C253.355 71.9248 253.829 72.0546 254.139 72.3939L254.918 73.2405C255.304 73.6594 255.927 73.7538 256.417 73.4677L257.033 73.1107C257.523 72.8275 257.753 72.2405 257.585 71.7006L257.24 70.5944C257.104 70.1548 257.231 69.6799 257.558 69.3613C257.647 69.2757 257.732 69.1902 257.815 69.1046C258.134 68.7742 258.611 68.6474 259.051 68.7831L260.151 69.1253C260.694 69.2934 261.281 69.0633 261.564 68.5736L261.921 67.9571C262.205 67.4674 262.11 66.8449 261.694 66.4585L260.848 65.6767C260.511 65.364 260.381 64.892 260.508 64.4495C260.541 64.3315 260.573 64.2135 260.603 64.0926C260.715 63.6442 261.063 63.2961 261.511 63.1958L262.635 62.9421C263.19 62.8182 263.582 62.3255 263.582 61.7591V61.7562ZM249.868 68.2314C246.098 68.2314 243.044 65.1723 243.044 61.3992C243.044 57.6262 246.1 54.567 249.868 54.567C253.638 54.567 256.691 57.6262 256.691 61.3992C256.691 65.1723 253.635 68.2314 249.868 68.2314Z" fill="#111AE8" stroke="black" stroke-width="0.5" stroke-miterlimit="10"/>
<path d="M318.328 48.7819V46.5222C318.328 45.8555 317.865 45.2773 317.213 45.1298L314.393 44.4926C313.856 44.3716 313.44 43.9527 313.319 43.4188C313.216 42.9615 313.098 42.5131 312.962 42.0706C312.803 41.5485 312.956 40.9791 313.357 40.6104L315.481 38.6457C315.971 38.1914 316.083 37.4598 315.75 36.8845L314.623 34.9287C314.29 34.3505 313.599 34.0791 312.959 34.2797L310.198 35.1411C309.676 35.3033 309.104 35.1529 308.732 34.7517C308.416 34.4124 308.089 34.085 307.75 33.7693C307.348 33.3976 307.198 32.8283 307.36 32.3061L308.222 29.5331C308.419 28.8959 308.151 28.2056 307.573 27.8723L305.623 26.7454C305.044 26.412 304.31 26.5212 303.858 27.0138L301.9 29.1378C301.528 29.542 300.959 29.6954 300.436 29.5331C299.994 29.3974 299.549 29.2794 299.094 29.1762C298.56 29.0552 298.141 28.6363 298.02 28.0994L297.383 25.2733C297.236 24.6214 296.658 24.1582 295.991 24.1582H293.74C293.073 24.1582 292.492 24.6214 292.348 25.2733L291.71 28.0994C291.589 28.6363 291.173 29.0523 290.637 29.1762C290.182 29.2794 289.734 29.3974 289.294 29.5331C288.769 29.6924 288.203 29.539 287.831 29.1378L285.872 27.0138C285.418 26.5212 284.686 26.412 284.108 26.7454L282.158 27.8723C281.58 28.2056 281.312 28.8959 281.509 29.5331L282.371 32.3061C282.533 32.8283 282.382 33.3976 281.981 33.7693C281.642 34.085 281.315 34.4124 280.999 34.7517C280.627 35.1529 280.055 35.3063 279.533 35.1411L276.772 34.2797C276.134 34.082 275.444 34.3505 275.108 34.9287L273.981 36.8845C273.648 37.4627 273.76 38.1943 274.249 38.6457L276.373 40.6104C276.775 40.9821 276.928 41.5485 276.769 42.0706C276.633 42.5131 276.515 42.9645 276.412 43.4188C276.291 43.9557 275.872 44.3716 275.338 44.4926L272.518 45.1298C271.866 45.2773 271.403 45.8555 271.403 46.5222V48.7819C271.403 49.4486 271.866 50.0268 272.518 50.1743L275.338 50.8115C275.875 50.9324 276.291 51.3513 276.412 51.8853C276.515 52.3425 276.633 52.7909 276.769 53.2334C276.928 53.7556 276.775 54.3249 276.373 54.6937L274.249 56.6584C273.76 57.1127 273.648 57.8443 273.981 58.4195L275.108 60.3754C275.441 60.9536 276.131 61.2249 276.772 61.0243L279.533 60.163C280.055 60.0007 280.627 60.1512 280.999 60.5524C281.315 60.8916 281.642 61.2191 281.981 61.5347C282.382 61.9064 282.533 62.4758 282.371 62.9979L281.509 65.7709C281.312 66.4081 281.58 67.0984 282.158 67.4318L284.108 68.5587C284.686 68.892 285.421 68.7829 285.872 68.2902L287.831 66.1662C288.203 65.762 288.772 65.6087 289.294 65.7709C289.737 65.9066 290.182 66.0246 290.637 66.1278C291.171 66.2488 291.589 66.6677 291.71 67.2046L292.348 70.0307C292.495 70.6827 293.073 71.1458 293.74 71.1458H295.991C296.658 71.1458 297.239 70.6827 297.383 70.0307L298.02 67.2046C298.141 66.6677 298.557 66.2517 299.094 66.1278C299.549 66.0246 299.997 65.9066 300.436 65.7709C300.962 65.6116 301.528 65.765 301.9 66.1662L303.858 68.2902C304.313 68.7829 305.044 68.892 305.623 68.5587L307.573 67.4318C308.151 67.0984 308.419 66.4081 308.222 65.7709L307.36 62.9979C307.198 62.4758 307.348 61.9064 307.75 61.5347C308.089 61.2191 308.416 60.8916 308.732 60.5524C309.104 60.1512 309.676 59.9978 310.198 60.163L312.959 61.0243C313.596 61.222 314.287 60.9536 314.623 60.3754L315.75 58.4195C316.083 57.8413 315.971 57.1097 315.481 56.6584L313.357 54.6937C312.956 54.322 312.803 53.7556 312.962 53.2334C313.098 52.7909 313.216 52.3396 313.319 51.8853C313.44 51.3484 313.859 50.9324 314.393 50.8115L317.213 50.1743C317.865 50.0268 318.328 49.4486 318.328 48.7819ZM294.861 59.3458C288.412 59.3458 283.182 54.1096 283.182 47.652C283.182 41.1945 288.409 35.9582 294.861 35.9582C301.313 35.9582 306.54 41.1945 306.54 47.652C306.54 54.1096 301.313 59.3458 294.861 59.3458Z" fill="#99B9FF" stroke="black" stroke-width="0.5" stroke-linecap="round" stroke-linejoin="round"/>
<path d="M380.783 211.207C384.863 212.661 389.358 212.381 393.226 210.431C397.093 208.481 399.996 205.032 401.259 200.885C402.53 196.71 402.029 192.194 399.872 188.4C397.716 184.606 394.093 181.869 389.857 180.833L309 163.821C303.221 162.408 297.345 165.759 295.61 171.455C293.861 177.199 296.932 183.303 302.578 185.317L380.78 211.21L380.783 211.207Z" fill="#313036"/>
<path d="M351.495 218.723C354.566 218.723 357.268 216.693 358.132 213.743L361.292 202.932C361.905 200.828 363.832 199.383 366.021 199.383H405.863C408.722 199.383 411.041 201.704 411.041 204.569V240.285H343.014V223.909C343.014 221.045 345.332 218.723 348.191 218.723H351.495Z" fill="#313036"/>
<path d="M345.622 218.723C348.693 218.723 351.395 216.693 352.259 213.743L355.419 202.932C356.032 200.828 357.959 199.383 360.148 199.383H399.99C402.849 199.383 405.168 201.704 405.168 204.569V240.285H337.141V223.909C337.141 221.045 339.459 218.723 342.318 218.723H345.622Z" fill="#6490F7"/>
<path d="M405.389 240.502H336.919V223.906C336.919 220.923 339.341 218.498 342.318 218.498H345.622C348.575 218.498 351.218 216.516 352.047 213.678L355.206 202.866C355.844 200.683 357.876 199.158 360.148 199.158H399.99C402.967 199.158 405.389 201.583 405.389 204.566V240.502ZM337.362 240.06H404.946V204.566C404.946 201.828 402.722 199.601 399.99 199.601H360.148C358.071 199.601 356.212 200.996 355.631 202.99L352.472 213.802C351.587 216.829 348.773 218.941 345.622 218.941H342.318C339.583 218.941 337.362 221.168 337.362 223.906V240.06Z" fill="#313036"/>
<path d="M379.538 145.12C383.305 143.025 384.771 138.344 382.871 134.47C380.957 130.562 376.296 128.868 372.322 130.638L297.728 163.855C291.937 166.434 289.247 173.163 291.663 179.03C292.934 182.122 295.469 184.523 298.619 185.629C301.773 186.733 305.248 186.438 308.165 184.812L379.535 145.123L379.538 145.12Z" fill="#313036"/>
<path d="M376.148 211.524C380.228 212.979 384.724 212.698 388.591 210.748C392.459 208.798 395.362 205.35 396.624 201.202C397.896 197.025 397.394 192.511 395.238 188.718C393.081 184.924 389.459 182.186 385.222 181.151L304.687 163.817C298.908 162.404 293.032 165.755 291.297 171.451C289.548 177.195 292.619 183.299 298.265 185.313L376.148 211.527V211.524Z" fill="#6490F7"/>
<path d="M381.45 212.657C379.629 212.657 377.809 212.351 376.072 211.734L298.192 185.523C292.416 183.464 289.294 177.257 291.082 171.387C292.852 165.581 298.85 162.162 304.738 163.602L385.27 180.933C389.55 181.98 393.252 184.777 395.43 188.606C397.607 192.435 398.12 197.049 396.837 201.265C395.562 205.448 392.592 208.976 388.692 210.943C386.435 212.082 383.948 212.657 381.452 212.657H381.45ZM302.021 163.717C297.286 163.717 292.941 166.797 291.504 171.517C289.784 177.157 292.787 183.128 298.336 185.104L376.219 211.318C380.222 212.743 384.695 212.466 388.488 210.551C392.282 208.64 395.17 205.209 396.409 201.138C397.657 197.037 397.158 192.55 395.04 188.827C392.922 185.104 389.323 182.385 385.164 181.367L304.632 164.036C303.758 163.823 302.879 163.72 302.018 163.72L302.021 163.717Z" fill="#313036"/>
<path d="M372.594 144.086C374.213 145 376.137 145.21 377.913 144.661C379.688 144.115 381.163 142.858 381.989 141.192C382.898 139.357 383.019 137.227 382.323 135.3C381.627 133.374 380.172 131.817 378.299 130.991L331.919 110.523L327.824 118.789L372.591 144.086H372.594Z" fill="#6490F7"/>
<path d="M375.93 145.179C374.732 145.179 373.541 144.872 372.485 144.276L327.535 118.88L331.819 110.236L378.39 130.789C380.308 131.636 381.818 133.252 382.532 135.226C383.246 137.199 383.122 139.409 382.19 141.291C381.34 143.005 379.806 144.312 377.977 144.872C377.311 145.079 376.617 145.179 375.927 145.179H375.93ZM372.703 143.893C374.26 144.775 376.137 144.976 377.848 144.45C379.559 143.922 380.998 142.701 381.792 141.093C382.671 139.32 382.789 137.238 382.113 135.376C381.441 133.515 380.016 131.99 378.208 131.193L332.022 110.812L328.114 118.7L372.697 143.893H372.703Z" fill="#313036"/>
<path d="M330.276 241.238H417.717V237.332H330.276V241.238Z" fill="#313036"/>
<path d="M328.774 124.123L314.747 118.662L316.455 113.88L323.686 115.868L327.043 109.555L318.497 105.809L320.668 100.514L336.132 106.47L328.774 124.123ZM315.308 118.405L328.532 123.553L335.548 106.72L320.913 101.083L319.069 105.579L327.656 109.343L323.907 116.391L316.729 114.417L315.305 118.405H315.308Z" fill="#313036"/>
</g>
</g>
<defs>
<clipPath id="clip0_137_19355">
<rect width="455" height="280" fill="white"/>
</clipPath>
<clipPath id="clip1_137_19355">
<rect width="236" height="236" fill="white" transform="translate(182 22)"/>
</clipPath>
</defs>
</svg>
