<svg width="345" height="242" viewBox="0 0 345 242" fill="none" xmlns="http://www.w3.org/2000/svg">
<g clip-path="url(#clip0_4517_51986)">
<path fill-rule="evenodd" clip-rule="evenodd" d="M359.551 -143.577C474.388 -141.132 604.434 -115.73 639.373 -6.3708C673.973 101.925 585.05 201.569 489.556 263.334C411.031 314.125 315.061 304.388 235.897 254.598C130.957 188.596 3.7147 99.2303 40.4688 -19.1202C77.8861 -139.606 233.353 -146.263 359.551 -143.577Z" fill="#F9FBFF"/>
<path fill-rule="evenodd" clip-rule="evenodd" d="M434.429 -113.207C319.399 -114.518 166.353 -124.516 138.863 -12.6046C112.715 93.845 271.952 121.163 361.321 184.42C444.026 242.961 513.9 364.359 602.803 315.784C712.386 255.91 755.687 110.279 710.01 -6.09882C670.147 -107.663 543.355 -111.967 434.429 -113.207Z" fill="#EDF4FF"/>
<path d="M358.797 124.016H194.357V219.328H358.797V124.016Z" fill="white"/>
<path d="M358.796 219.618H194.358C194.196 219.618 194.066 219.488 194.066 219.327V124.015C194.066 123.853 194.196 123.724 194.358 123.724H358.796C358.958 123.724 359.087 123.853 359.087 124.015V219.327C359.087 219.488 358.958 219.618 358.796 219.618ZM194.648 219.036H358.505V124.305H194.648V219.036Z" fill="black"/>
<path d="M359.98 120.289C357.921 116.052 354.823 112.352 351.182 109.378C347.517 106.387 343.278 104.104 338.805 102.571C336.501 101.782 334.133 101.183 331.73 100.789C329.181 100.371 326.6 100.142 324.064 99.6424C321.476 99.1332 318.894 98.316 316.758 96.7225C314.595 95.1091 312.974 92.9126 311.391 90.7584C308.194 86.4064 305.105 81.8878 300.975 78.3437C297.17 75.0774 292.226 72.7182 287.119 72.8875C282.343 73.0475 277.889 75.5058 275.409 79.4863C268.973 89.8142 270.168 103.961 270.541 107.975C271.025 113.173 272.425 118.267 274.42 123.083C276.463 128.021 279.145 132.68 282.213 137.051C285.265 141.4 288.666 145.559 292.482 149.262C296.22 152.888 300.424 156.031 305.119 158.315C309.526 160.458 314.286 161.88 319.139 162.561C323.996 163.243 328.966 163.19 333.805 162.377C338.664 161.561 343.399 159.981 347.731 157.631C352.189 155.212 356.262 151.946 359.025 147.65C361.58 143.676 362.861 138.965 362.993 134.263C363.128 129.459 362.083 124.609 359.982 120.285L359.98 120.289Z" fill="black"/>
<path d="M229.699 132.719L246.922 101.924L235.456 98.4326L219.487 130.748L229.699 132.719Z" fill="#E2EAFF"/>
<path d="M244.864 104.68H233.59V84.2267H244.864C248.408 84.2267 251.286 87.1003 251.286 90.639V98.2693C251.286 101.808 248.408 104.682 244.864 104.682V104.68Z" fill="white"/>
<path d="M244.865 104.971H233.593C233.432 104.971 233.302 104.841 233.302 104.68V84.2265C233.302 84.0651 233.432 83.9355 233.593 83.9355H244.865C248.567 83.9355 251.579 86.9427 251.579 90.6388V98.2691C251.579 101.965 248.567 104.972 244.865 104.972V104.971ZM233.883 104.389H244.865C248.245 104.389 250.996 101.644 250.996 98.2678V90.6375C250.996 87.2627 248.246 84.5161 244.865 84.5161H233.883V104.388V104.389Z" fill="black"/>
<path d="M162.928 68.6403C162.928 68.6403 165.513 59.9296 172.601 60.6873C177.776 61.2401 210.723 72.5599 228.133 78.631C234.575 80.8765 238.887 86.9437 238.887 93.7554C238.887 101.941 232.707 108.81 224.555 109.685L170.592 115.475C170.592 115.475 164.495 115.763 161.832 107.217C159.168 98.6721 162.928 68.6416 162.928 68.6416V68.6403Z" fill="white"/>
<path d="M170.563 115.762C169.905 115.762 164.114 115.515 161.553 107.301C158.902 98.7944 162.486 69.8324 162.64 68.6026C162.641 68.5867 162.645 68.5708 162.649 68.5563C162.675 68.4677 165.383 59.6195 172.633 60.397C177.771 60.9458 209.672 71.8834 228.23 78.3553C234.778 80.6391 239.178 86.8279 239.178 93.7547C239.178 102.108 232.906 109.08 224.586 109.973L170.624 115.762C170.624 115.762 170.599 115.762 170.563 115.762ZM163.214 68.7004C163.089 69.72 159.528 98.8459 162.11 107.128C164.669 115.34 170.336 115.191 170.579 115.182L224.524 109.395C232.547 108.534 238.596 101.811 238.596 93.7547C238.596 87.0752 234.353 81.1072 228.038 78.9054C209.504 72.4428 177.652 61.5198 172.571 60.9762C165.979 60.2727 163.364 68.2257 163.214 68.7004Z" fill="black"/>
<path d="M170.669 115.475C178.789 115.475 185.371 103.154 185.371 87.9558C185.371 72.7573 178.789 60.4365 170.669 60.4365C162.549 60.4365 155.967 72.7573 155.967 87.9558C155.967 103.154 162.549 115.475 170.669 115.475Z" fill="white"/>
<path d="M170.668 115.765C162.401 115.765 155.675 103.289 155.675 87.9547C155.675 72.6201 162.401 60.1445 170.668 60.1445C178.936 60.1445 185.662 72.6201 185.662 87.9547C185.662 103.289 178.936 115.765 170.668 115.765ZM170.668 60.7251C162.723 60.7251 156.258 72.9401 156.258 87.9534C156.258 102.967 162.723 115.182 170.668 115.182C178.614 115.182 185.079 102.967 185.079 87.9534C185.079 72.9401 178.614 60.7251 170.668 60.7251Z" fill="black"/>
<path d="M180.245 99.4012C180.245 99.4012 180.233 99.4012 180.226 99.4012C176.16 99.1473 172.312 96.4813 170.65 92.768C168.989 89.0547 169.569 84.4144 172.092 81.2207C174.617 78.0285 179.004 76.3874 183.008 77.1398C183.165 77.1689 183.27 77.321 183.24 77.4797C183.21 77.637 183.057 77.7415 182.899 77.7111C179.102 76.9983 174.943 78.5535 172.549 81.5804C170.155 84.6074 169.605 89.0084 171.181 92.5286C172.756 96.0502 176.405 98.5786 180.261 98.8193C180.421 98.8299 180.543 98.9674 180.534 99.1274C180.524 99.2821 180.396 99.3998 180.243 99.3998L180.245 99.4012Z" fill="black"/>
<path d="M169.763 114.215C169.682 114.215 169.6 114.18 169.543 114.114C164.416 108.211 161.026 100.693 159.999 92.9476C158.971 85.201 160.282 77.0629 163.693 70.0304C165.695 65.9005 168.053 63.4699 170.901 62.5985C171.054 62.5495 171.217 62.6381 171.265 62.7915C171.313 62.9449 171.225 63.1076 171.072 63.1552C168.387 63.9764 166.144 66.3091 164.217 70.2843C160.857 77.215 159.563 85.238 160.576 92.8723C161.589 100.507 164.93 107.915 169.983 113.733C170.087 113.855 170.076 114.039 169.954 114.143C169.898 114.191 169.83 114.215 169.763 114.215Z" fill="black"/>
<path d="M224.003 174.76C236.671 177.097 257.595 161.852 257.595 161.852C263.131 186.436 265.298 196.171 267.446 206.881H336.739C336.575 201.29 335.633 197.053 335.633 197.053C336.163 196.942 336.719 196.779 337.291 196.575C346.475 193.284 351.023 182.97 347.54 173.87C342.347 160.297 334.666 143.153 330.106 133.2C327.61 127.753 322.569 123.907 316.652 122.915C299.595 120.055 280.221 120.576 269.205 121.241C263.535 121.584 258.103 123.628 253.614 127.102L235.986 140.745L240.302 128.775C231.164 121.149 213.897 129.865 213.897 129.865L209.256 139.954C203.594 151.771 203.789 171.031 224.002 174.76H224.003Z" fill="#5479F7"/>
<path d="M231.899 150.873C231.862 150.873 231.825 150.867 231.789 150.852C231.64 150.791 231.569 150.622 231.63 150.473L235.069 142.067C235.13 141.918 235.299 141.848 235.449 141.909C235.599 141.969 235.669 142.139 235.609 142.288L232.171 150.693C232.124 150.806 232.016 150.875 231.901 150.875L231.899 150.873Z" fill="black"/>
<path d="M296.511 163.133C287.463 159.13 277.516 155.948 267.783 157.729C266.878 157.895 265.951 158.117 265.219 158.672C264.488 159.228 263.93 159.829 264.202 160.706C264.473 161.583 265.318 161.924 266.46 161.883C265.423 162.249 264.326 162.658 263.661 163.532C262.996 164.406 263.032 165.898 264.009 166.4C264.476 166.64 265.031 166.604 265.554 166.563C268.366 166.341 271.178 166.117 273.99 165.895C273.097 166.592 271.89 166.687 270.762 166.784C269.633 166.88 268.416 167.044 267.6 167.83C266.784 168.614 266.73 170.234 267.758 170.707C268.192 170.907 268.696 170.859 269.171 170.807C271.457 170.554 273.743 170.301 276.031 170.049C275.235 170.768 274.171 171.093 273.157 171.444C272.143 171.794 271.093 172.228 270.439 173.078C269.784 173.927 269.713 175.312 270.559 175.971C271.445 176.658 272.708 176.234 273.806 175.998C278.051 175.085 282.228 177.528 285.822 179.96C291.583 183.86 297.215 188.015 303.239 191.469C305.833 184.876 309.123 175.869 311.139 169.808C306.215 167.721 301.401 165.297 296.511 163.134V163.133Z" fill="white"/>
<path d="M324.047 174.31C324.027 174.31 324.008 174.307 323.988 174.303C320.059 173.505 315.939 172.161 311.023 170.078C310.874 170.016 310.805 169.844 310.868 169.698C310.931 169.549 311.102 169.482 311.249 169.543C316.129 171.611 320.213 172.943 324.104 173.734C324.261 173.765 324.363 173.919 324.331 174.076C324.304 174.214 324.182 174.309 324.047 174.309V174.31Z" fill="black"/>
<path d="M327.45 199.208C320.197 199.208 313.43 196.869 308.528 194.568C306.761 193.739 304.982 192.808 303.091 191.723C302.952 191.643 302.903 191.466 302.983 191.327C303.063 191.188 303.242 191.139 303.381 191.22C305.259 192.296 307.023 193.219 308.775 194.042C315.252 197.082 325.023 200.193 334.794 197.746C334.948 197.707 335.108 197.801 335.148 197.957C335.188 198.113 335.092 198.271 334.936 198.31C332.421 198.941 329.906 199.21 327.449 199.21L327.45 199.208Z" fill="black"/>
<path d="M320.079 173.387C319.949 173.387 319.832 173.299 319.797 173.169L316.441 160.134C316.401 159.978 316.495 159.819 316.65 159.779C316.806 159.741 316.965 159.833 317.005 159.988L320.361 173.023C320.401 173.179 320.307 173.338 320.152 173.377C320.128 173.384 320.103 173.387 320.079 173.387Z" fill="black"/>
<path d="M267.448 162.143C267.309 162.143 267.186 162.043 267.161 161.901C267.133 161.743 267.24 161.593 267.399 161.565C269.396 161.223 271.436 161.007 273.46 160.925C273.615 160.915 273.757 161.044 273.763 161.204C273.77 161.364 273.644 161.501 273.484 161.507C271.485 161.588 269.472 161.801 267.498 162.138C267.482 162.141 267.465 162.142 267.449 162.142L267.448 162.143Z" fill="black"/>
<path d="M236.88 138.272C236.88 138.272 221.081 140.45 212.057 133.87L213.899 129.864C213.899 129.864 211.516 127.513 213.93 126.651C213.93 126.651 211.684 122.184 215.584 121.919C215.584 121.919 212.989 116.093 218.981 117.2C218.981 117.2 215.381 110.626 222.094 112.216C227.405 113.473 228.514 115.2 228.514 115.2C228.514 115.2 225.55 107.875 229.265 108.633C230.432 108.871 232.216 109.641 234.099 110.811C240.152 114.575 242.717 122.077 240.302 128.776L236.878 138.273L236.88 138.272Z" fill="white"/>
<path d="M236.878 138.563C236.845 138.563 236.812 138.558 236.779 138.546C236.628 138.492 236.548 138.325 236.604 138.175L240.028 128.677C242.39 122.127 239.832 114.716 233.946 111.057C232.186 109.964 230.415 109.164 229.207 108.918C228.642 108.803 228.253 108.887 228.013 109.174C227.117 110.251 228.265 113.811 228.783 115.091C228.84 115.23 228.78 115.39 228.646 115.458C228.513 115.527 228.348 115.483 228.268 115.356C228.258 115.342 227.107 113.701 222.025 112.499C220.263 112.082 219.116 112.204 218.616 112.86C217.812 113.911 218.791 116.249 219.234 117.061C219.289 117.159 219.281 117.281 219.214 117.372C219.148 117.463 219.037 117.507 218.926 117.487C217.322 117.191 216.241 117.38 215.712 118.048C214.743 119.273 215.836 121.777 215.848 121.802C215.886 121.889 215.879 121.988 215.83 122.07C215.781 122.151 215.695 122.204 215.6 122.21C214.715 122.27 214.115 122.566 213.816 123.09C213.103 124.337 214.175 126.5 214.185 126.523C214.222 126.597 214.226 126.684 214.196 126.761C214.164 126.838 214.102 126.898 214.024 126.926C213.52 127.106 213.229 127.364 213.156 127.692C213.001 128.39 213.784 129.349 214.099 129.66C214.187 129.746 214.21 129.876 214.159 129.988L212.316 133.993C212.249 134.139 212.075 134.202 211.93 134.136C211.784 134.068 211.719 133.897 211.787 133.75L213.547 129.923C213.204 129.541 212.379 128.502 212.587 127.566C212.689 127.109 213.006 126.75 213.535 126.499C213.241 125.809 212.609 124.026 213.31 122.802C213.662 122.187 214.286 121.807 215.168 121.674C214.873 120.859 214.308 118.885 215.253 117.689C215.855 116.927 216.935 116.639 218.469 116.828C218.022 115.848 217.229 113.713 218.15 112.508C218.804 111.652 220.151 111.459 222.158 111.934C225.23 112.661 226.931 113.551 227.834 114.193C227.318 112.632 226.625 109.929 227.563 108.803C227.947 108.342 228.538 108.188 229.321 108.349C230.592 108.608 232.436 109.436 234.25 110.565C240.368 114.369 243.027 122.069 240.572 128.875L237.148 138.373C237.106 138.492 236.994 138.565 236.874 138.565L236.878 138.563Z" fill="black"/>
<path d="M233.282 126.159L226.701 138.896C225.576 141.073 222.968 142.024 220.703 141.083C218.261 140.069 217.133 137.247 218.204 134.832L218.635 133.862C218.635 133.862 223.498 134.742 221.591 131.489C221.591 131.489 227.097 132.145 224.375 127.849C224.375 127.849 225.727 128.296 226.923 127.752C228.672 126.957 230.088 124.737 226.461 121.616C229.265 122.832 231.898 122.348 231.898 122.348C231.898 122.348 232.604 124.799 233.282 126.159Z" fill="#E2EAFF"/>
<path d="M228.687 123.127C228.641 123.127 228.592 123.115 228.548 123.091C225.679 121.532 222.805 119.888 220.004 118.205C219.866 118.123 219.821 117.943 219.904 117.805C219.988 117.668 220.167 117.623 220.304 117.706C223.098 119.384 225.965 121.024 228.826 122.579C228.968 122.656 229.02 122.833 228.943 122.973C228.89 123.07 228.79 123.125 228.687 123.125V123.127Z" fill="black"/>
<path d="M226.984 129.754C226.938 129.754 226.892 129.744 226.849 129.721C223.043 127.715 219.309 125.47 215.751 123.048C215.619 122.959 215.584 122.777 215.674 122.644C215.766 122.51 215.946 122.477 216.08 122.567C219.619 124.975 223.334 127.209 227.121 129.206C227.262 129.281 227.318 129.457 227.243 129.598C227.19 129.697 227.089 129.753 226.984 129.753V129.754Z" fill="black"/>
<path d="M223.611 132.827C223.563 132.827 223.515 132.815 223.47 132.791L215.226 128.254C215.085 128.176 215.034 128 215.111 127.859C215.189 127.717 215.367 127.667 215.507 127.744L223.751 132.281C223.893 132.359 223.943 132.535 223.866 132.676C223.813 132.773 223.714 132.827 223.611 132.827Z" fill="black"/>
<path d="M231.406 123C231.253 123 231.124 122.879 231.115 122.723C231.107 122.563 231.23 122.426 231.39 122.418C232.143 122.379 232.704 121.574 232.756 120.847C232.805 120.155 232.543 119.396 231.953 118.527C230.906 116.983 229.374 115.749 227.641 115.055C227.491 114.995 227.419 114.826 227.479 114.676C227.539 114.527 227.709 114.456 227.858 114.515C229.698 115.253 231.323 116.562 232.435 118.202C233.102 119.183 233.396 120.063 233.336 120.889C233.267 121.86 232.514 122.943 231.419 123C231.414 123 231.409 123 231.404 123H231.406Z" fill="black"/>
<path d="M294.399 99.8818L295.828 118.835C297.749 120.006 307.12 122.186 307.12 122.186C294.382 125.887 281.123 125.67 267.446 122.295C267.446 122.295 279.326 120.202 280.678 118.894L281.445 104.246L294.398 99.8818H294.399Z" fill="white"/>
<path d="M296.669 96.2678C295.421 95.7534 294.049 96.2546 293.029 97.0229C292.538 97.3932 292.253 97.979 291.584 97.8666C291.056 97.778 290.629 97.2213 290.509 96.7307C290.337 96.0311 290.547 95.3025 290.756 94.6135C291.168 93.2527 291.58 91.8933 291.992 90.5325C292.139 90.0472 292.284 89.505 292.061 89.0488C291.73 88.3651 290.816 88.2686 290.057 88.2197C286.033 87.9578 282.106 86.3934 279.008 83.8174C272.886 92.7965 270.54 107.978 275.927 110.096C284.599 113.507 290.346 104.603 291.113 104.087C291.662 103.717 292.375 103.739 293.037 103.705C294.314 103.639 295.603 103.299 296.641 102.556C297.681 101.813 298.444 100.632 298.508 99.357C298.571 98.0822 297.851 96.7558 296.669 96.2691V96.2678Z" fill="white"/>
<path d="M279.837 111.158C278.579 111.158 277.237 110.922 275.82 110.366C274.585 109.88 273.69 108.766 273.161 107.052C271.443 101.486 274.062 90.5507 278.767 83.6517C278.813 83.5843 278.886 83.5393 278.967 83.5274C279.047 83.5155 279.131 83.5393 279.193 83.5922C282.246 86.1312 286.111 87.6705 290.075 87.9284C290.758 87.9733 291.898 88.0474 292.322 88.9202C292.584 89.4597 292.44 90.0535 292.269 90.6155L291.033 94.6965C290.845 95.3167 290.632 96.0189 290.789 96.6602C290.885 97.0503 291.234 97.5118 291.63 97.578C291.947 97.6309 292.128 97.4709 292.444 97.1574C292.568 97.0331 292.698 96.9049 292.852 96.7898C294.167 95.7993 295.599 95.511 296.779 95.9977C298.021 96.5095 298.87 97.9271 298.797 99.3685C298.732 100.667 297.989 101.946 296.809 102.79C295.816 103.5 294.515 103.916 293.05 103.993L292.792 104.005C292.222 104.029 291.685 104.05 291.273 104.326C291.196 104.378 290.946 104.667 290.703 104.948C289.241 106.642 285.347 111.156 279.834 111.156L279.837 111.158ZM279.07 84.2428C274.561 91.0294 272.065 101.525 273.718 106.88C274.192 108.415 274.971 109.406 276.033 109.823C283.277 112.673 288.352 106.785 290.265 104.568C290.641 104.132 290.813 103.935 290.95 103.844C291.499 103.475 292.175 103.447 292.771 103.423L293.022 103.411C294.376 103.341 295.57 102.961 296.473 102.316C297.509 101.576 298.162 100.462 298.217 99.3394C298.278 98.1347 297.58 96.9551 296.558 96.5346C295.159 95.958 293.747 96.8454 293.204 97.254C293.082 97.3452 292.972 97.455 292.857 97.57C292.532 97.8927 292.163 98.2577 291.536 98.1532C290.866 98.0408 290.369 97.3875 290.225 96.7991C290.029 96.003 290.278 95.1844 290.477 94.5272L291.712 90.4462C291.856 89.9755 291.969 89.5245 291.799 89.1728C291.543 88.6478 290.789 88.5552 290.038 88.5076C286.059 88.2497 282.177 86.7369 279.071 84.2428H279.07Z" fill="black"/>
<path d="M291.693 101.478C291.596 101.478 291.501 101.429 291.445 101.341C291.361 101.205 291.402 101.025 291.538 100.94C292.571 100.299 293.803 100.034 295.008 100.196C295.167 100.217 295.28 100.364 295.259 100.522C295.238 100.681 295.094 100.792 294.932 100.772C293.877 100.631 292.751 100.871 291.848 101.433C291.8 101.464 291.747 101.477 291.694 101.477L291.693 101.478Z" fill="black"/>
<path d="M125.63 186.409H91.3275C91.1659 186.409 91.0361 186.28 91.0361 186.118C91.0361 185.957 91.1659 185.827 91.3275 185.827H125.339V150.157C125.339 149.995 125.468 149.866 125.63 149.866H173.468V122.559C173.468 122.398 173.598 122.269 173.759 122.269C173.921 122.269 174.051 122.398 174.051 122.559V150.157C174.051 150.318 173.921 150.448 173.759 150.448H125.921V186.118C125.921 186.28 125.792 186.409 125.63 186.409Z" fill="black"/>
<path d="M228.465 73.1375C228.304 73.1375 228.174 73.0079 228.174 72.8466V65.9635C228.174 65.8021 228.304 65.6725 228.465 65.6725H264.215V36.2001C264.215 36.0388 264.345 35.9092 264.507 35.9092H344.487C344.648 35.9092 344.778 36.0388 344.778 36.2001C344.778 36.3614 344.648 36.491 344.487 36.491H264.798V65.9635C264.798 66.1248 264.668 66.2544 264.507 66.2544H228.757V72.8466C228.757 73.0079 228.627 73.1375 228.465 73.1375Z" fill="black"/>
<path d="M306.969 19.9892L334.389 10.1413L306.969 0.291992V19.9892Z" fill="#D6E1FF"/>
<path d="M305.525 36.4891C305.363 36.4891 305.233 36.3595 305.233 36.1982V0.290929C305.233 0.129596 305.363 0 305.525 0C305.686 0 305.816 0.129596 305.816 0.290929V36.1995C305.816 36.3608 305.686 36.4904 305.525 36.4904V36.4891Z" fill="black"/>
<path d="M201.985 191.341C201.741 191.382 201.505 191.44 201.275 191.508C200.291 189.234 198.983 187.156 197.414 185.321C197.577 185.144 197.733 184.959 197.876 184.758C199.803 182.068 199.181 178.327 196.487 176.404C193.792 174.48 190.045 175.102 188.12 177.792C187.977 177.993 187.851 178.2 187.735 178.411C185.49 177.521 183.097 176.957 180.624 176.763C180.613 176.522 180.594 176.281 180.553 176.038C180.01 172.776 176.921 170.57 173.653 171.112C170.386 171.654 168.176 174.738 168.719 178.001C168.76 178.244 168.819 178.479 168.886 178.709C166.609 179.692 164.527 180.997 162.69 182.564C162.513 182.402 162.327 182.246 162.126 182.103C159.432 180.179 155.685 180.8 153.759 183.49C151.832 186.18 152.454 189.921 155.148 191.844C155.35 191.986 155.557 192.112 155.768 192.227C154.877 194.469 154.312 196.858 154.118 199.327C153.877 199.338 153.636 199.357 153.392 199.398C150.124 199.941 147.915 203.024 148.458 206.287C149.001 209.549 152.09 211.755 155.357 211.213C155.601 211.172 155.837 211.114 156.067 211.046C157.052 213.319 158.359 215.398 159.928 217.232C159.765 217.41 159.609 217.595 159.466 217.796C157.539 220.485 158.161 224.227 160.856 226.149C163.55 228.073 167.297 227.452 169.223 224.762C169.366 224.561 169.491 224.354 169.607 224.143C171.852 225.033 174.245 225.597 176.718 225.791C176.729 226.032 176.749 226.272 176.79 226.516C177.333 229.778 180.421 231.984 183.689 231.442C186.957 230.899 189.166 227.816 188.623 224.553C188.582 224.31 188.524 224.074 188.456 223.844C190.733 222.862 192.815 221.557 194.652 219.99C194.83 220.152 195.015 220.308 195.216 220.451C197.91 222.375 201.658 221.754 203.583 219.064C205.511 216.374 204.888 212.633 202.194 210.71C201.993 210.567 201.785 210.442 201.574 210.327C202.465 208.085 203.03 205.696 203.224 203.227C203.465 203.216 203.707 203.196 203.95 203.155C207.218 202.613 209.427 199.529 208.884 196.267C208.341 193.005 205.252 190.799 201.985 191.341ZM180.496 212.247C174.428 213.253 168.69 209.158 167.683 203.099C166.676 197.039 170.779 191.312 176.847 190.307C182.916 189.301 188.652 193.396 189.659 199.455C190.667 205.515 186.563 211.242 180.496 212.247Z" fill="white"/>
<path d="M182.702 231.812C179.684 231.812 177.012 229.63 176.501 226.561C176.474 226.403 176.454 226.237 176.441 226.057C174.14 225.852 171.887 225.33 169.735 224.503C169.644 224.658 169.552 224.798 169.46 224.929C167.442 227.744 163.507 228.398 160.686 226.384C157.866 224.37 157.212 220.439 159.229 217.624C159.322 217.494 159.425 217.363 159.543 217.226C158.063 215.461 156.84 213.501 155.902 211.391C155.727 211.436 155.564 211.471 155.405 211.497C151.984 212.066 148.739 209.748 148.171 206.332C147.602 202.916 149.923 199.676 153.344 199.109C153.502 199.083 153.669 199.063 153.849 199.049C154.054 196.752 154.577 194.502 155.405 192.354C155.25 192.263 155.11 192.172 154.979 192.079C152.157 190.065 151.504 186.135 153.522 183.319C155.539 180.504 159.474 179.851 162.295 181.865C162.426 181.957 162.558 182.062 162.694 182.178C164.462 180.701 166.426 179.479 168.538 178.543C168.493 178.368 168.458 178.206 168.432 178.047C167.864 174.631 170.184 171.391 173.605 170.824C177.029 170.255 180.272 172.574 180.84 175.989C180.866 176.147 180.886 176.313 180.9 176.493C183.2 176.698 185.453 177.221 187.606 178.047C187.697 177.892 187.788 177.752 187.881 177.621C188.859 176.258 190.309 175.355 191.966 175.08C193.623 174.803 195.288 175.191 196.655 176.167C199.476 178.181 200.129 182.111 198.112 184.926C198.019 185.056 197.914 185.188 197.798 185.324C199.277 187.09 200.501 189.051 201.439 191.159C201.614 191.114 201.775 191.079 201.936 191.053C205.358 190.486 208.602 192.802 209.17 196.218C209.738 199.634 207.418 202.874 203.997 203.441C203.838 203.468 203.673 203.487 203.492 203.501C203.287 205.799 202.763 208.048 201.936 210.196C202.091 210.287 202.231 210.379 202.362 210.471C205.183 212.485 205.836 216.415 203.819 219.231C201.802 222.046 197.865 222.699 195.045 220.685C194.914 220.593 194.783 220.488 194.647 220.372C192.878 221.849 190.914 223.071 188.804 224.007C188.849 224.182 188.884 224.344 188.91 224.503C189.478 227.919 187.158 231.159 183.737 231.726C183.39 231.784 183.044 231.812 182.702 231.812ZM169.607 223.85C169.642 223.85 169.679 223.856 169.714 223.87C171.962 224.761 174.326 225.308 176.741 225.499C176.888 225.511 177.003 225.63 177.009 225.777C177.021 226.034 177.043 226.261 177.077 226.467C177.592 229.567 180.537 231.669 183.641 231.153C186.745 230.639 188.851 227.699 188.335 224.6C188.301 224.392 188.248 224.171 188.176 223.925C188.135 223.784 188.206 223.634 188.341 223.576C190.565 222.617 192.624 221.336 194.463 219.768C194.574 219.672 194.741 219.675 194.848 219.774C195.037 219.947 195.214 220.092 195.385 220.215C197.945 222.042 201.516 221.45 203.345 218.895C205.175 216.34 204.582 212.775 202.023 210.947C201.852 210.825 201.659 210.706 201.432 210.582C201.302 210.512 201.247 210.356 201.301 210.22C202.194 207.977 202.742 205.617 202.933 203.204C202.945 203.058 203.064 202.943 203.21 202.936C203.475 202.924 203.695 202.903 203.901 202.869C207.006 202.354 209.112 199.414 208.597 196.315C208.081 193.215 205.134 191.112 202.032 191.628C201.824 191.663 201.61 191.713 201.357 191.787C201.215 191.828 201.065 191.758 201.007 191.623C200.045 189.403 198.762 187.346 197.192 185.511C197.097 185.4 197.1 185.233 197.199 185.126C197.373 184.937 197.517 184.761 197.64 184.59C199.471 182.035 198.877 178.469 196.317 176.643C195.077 175.757 193.566 175.406 192.063 175.656C190.559 175.906 189.243 176.725 188.357 177.962C188.233 178.134 188.114 178.327 187.991 178.551C187.921 178.68 187.766 178.736 187.628 178.682C185.38 177.791 183.016 177.243 180.602 177.053C180.454 177.041 180.339 176.922 180.333 176.775C180.321 176.517 180.3 176.291 180.265 176.085C179.75 172.985 176.805 170.884 173.701 171.398C170.597 171.912 168.491 174.852 169.007 177.952C169.041 178.159 169.094 178.38 169.166 178.626C169.207 178.768 169.136 178.917 169.001 178.975C166.777 179.934 164.718 181.216 162.879 182.784C162.768 182.879 162.601 182.876 162.494 182.777C162.305 182.604 162.128 182.46 161.958 182.337C159.399 180.509 155.826 181.102 153.997 183.657C152.167 186.212 152.76 189.777 155.319 191.604C155.49 191.726 155.683 191.845 155.91 191.969C156.04 192.039 156.095 192.195 156.041 192.332C155.148 194.576 154.6 196.936 154.409 199.347C154.397 199.494 154.278 199.609 154.131 199.615C153.873 199.627 153.646 199.649 153.44 199.683C150.336 200.197 148.23 203.138 148.745 206.237C149.261 209.336 152.209 211.439 155.31 210.923C155.518 210.889 155.738 210.836 155.985 210.765C156.128 210.724 156.277 210.794 156.335 210.929C157.297 213.149 158.58 215.207 160.15 217.041C160.245 217.152 160.242 217.318 160.143 217.426C159.965 217.619 159.825 217.789 159.702 217.961C157.871 220.516 158.465 224.081 161.024 225.909C163.583 227.736 167.154 227.144 168.984 224.589C169.107 224.417 169.226 224.224 169.35 224.001C169.403 223.904 169.502 223.849 169.605 223.849L169.607 223.85ZM178.647 212.69C176.282 212.69 173.983 211.957 172.021 210.558C169.538 208.785 167.895 206.153 167.395 203.146C166.362 196.939 170.58 191.05 176.797 190.02C179.809 189.52 182.836 190.222 185.319 191.996C187.803 193.769 189.445 196.401 189.946 199.408C190.978 205.615 186.761 211.504 180.543 212.534C179.91 212.639 179.276 212.691 178.647 212.691V212.69ZM180.448 211.959C186.349 210.98 190.351 205.392 189.371 199.502C188.391 193.61 182.792 189.614 176.894 190.593C170.993 191.571 166.991 197.16 167.971 203.05C168.951 208.941 174.55 212.937 180.448 211.959Z" fill="black"/>
<path d="M155.336 168.802C155.257 168.815 155.183 168.834 155.109 168.855C154.797 168.131 154.379 167.47 153.881 166.887C153.933 166.83 153.983 166.772 154.028 166.709C154.642 165.853 154.443 164.663 153.586 164.05C152.729 163.438 151.537 163.637 150.924 164.492C150.879 164.556 150.838 164.622 150.802 164.689C150.088 164.406 149.326 164.226 148.539 164.164C148.536 164.088 148.53 164.011 148.517 163.934C148.345 162.896 147.362 162.194 146.322 162.367C145.282 162.539 144.579 163.52 144.753 164.558C144.766 164.635 144.784 164.71 144.806 164.784C144.081 165.097 143.419 165.512 142.835 166.01C142.778 165.959 142.72 165.908 142.656 165.864C141.799 165.251 140.607 165.45 139.994 166.305C139.38 167.161 139.579 168.351 140.436 168.963C140.5 169.008 140.566 169.048 140.633 169.085C140.35 169.798 140.17 170.558 140.108 171.344C140.031 171.348 139.954 171.353 139.877 171.366C138.837 171.538 138.134 172.519 138.308 173.557C138.48 174.595 139.463 175.298 140.502 175.124C140.58 175.111 140.655 175.093 140.729 175.071C141.041 175.795 141.457 176.456 141.957 177.039C141.905 177.096 141.855 177.154 141.81 177.218C141.196 178.073 141.395 179.263 142.252 179.876C143.109 180.488 144.301 180.29 144.914 179.434C144.959 179.371 145 179.304 145.036 179.237C145.75 179.52 146.512 179.7 147.298 179.762C147.302 179.839 147.308 179.915 147.321 179.992C147.493 181.03 148.476 181.732 149.516 181.559C150.555 181.387 151.259 180.406 151.085 179.368C151.072 179.29 151.053 179.216 151.032 179.142C151.757 178.83 152.419 178.414 153.003 177.916C153.06 177.967 153.118 178.018 153.182 178.063C154.039 178.675 155.231 178.477 155.844 177.621C156.457 176.765 156.259 175.575 155.402 174.963C155.338 174.918 155.272 174.878 155.204 174.841C155.488 174.129 155.668 173.368 155.73 172.583C155.807 172.579 155.884 172.573 155.961 172.56C157.001 172.388 157.704 171.407 157.53 170.369C157.358 169.331 156.375 168.629 155.336 168.802ZM148.498 175.454C146.567 175.774 144.742 174.471 144.422 172.543C144.101 170.615 145.406 168.793 147.337 168.473C149.268 168.153 151.093 169.455 151.414 171.383C151.734 173.311 150.43 175.134 148.498 175.454Z" fill="#5479F7"/>
<path d="M60.1311 39.4844L58.1695 52.5775L57.0635 52.6383C57.0635 52.6383 59.5761 60.4577 66.1166 61.5381C72.6571 62.6185 73.0279 52.5788 73.0279 52.5788L68.3153 51.9692L69.4491 42.8248L60.1311 39.4857V39.4844Z" fill="white"/>
<path d="M68.1406 53.6647C68.1287 53.6647 68.1167 53.6647 68.1048 53.6621C67.9459 53.6422 67.832 53.4968 67.8518 53.3381L69.1313 43.018L60.367 39.876L58.4583 52.6187C58.4345 52.7774 58.2901 52.8845 58.1272 52.8634C57.9683 52.8395 57.8583 52.6914 57.8822 52.5328L59.8438 39.4396C59.857 39.3537 59.9073 39.2783 59.9828 39.2333C60.057 39.1884 60.1484 39.1804 60.2305 39.2095L69.5486 42.5499C69.677 42.5962 69.7565 42.7245 69.7393 42.8594L68.432 53.4108C68.4134 53.5576 68.2889 53.6661 68.1432 53.6661L68.1406 53.6647Z" fill="black"/>
<path d="M70.4905 52.4201C70.4826 52.4201 70.4759 52.4201 70.468 52.4201L68.2931 52.2575C68.1329 52.2456 68.0123 52.1067 68.0243 51.9454C68.0362 51.7854 68.1779 51.6624 68.3368 51.677L70.5117 51.8396C70.672 51.8515 70.7925 51.9904 70.7806 52.1517C70.7687 52.3051 70.6415 52.4215 70.4905 52.4215V52.4201Z" fill="black"/>
<path d="M74.6907 27.73C75.7199 26.6602 76.3914 25.2016 76.3212 23.7192C76.2378 21.9432 75.0828 20.3153 73.5463 19.4174C72.0086 18.5195 70.141 18.296 68.3767 18.534C66.6111 18.7721 64.933 19.4452 63.3422 20.2439C61.7435 21.0466 60.1898 22.0014 58.9766 23.3158C57.7646 24.6303 56.9143 26.3468 56.9222 28.1347C56.0759 28.0937 55.3937 28.821 54.9765 29.5576C53.8109 31.6153 53.7381 34.2508 54.7898 36.368C55.8414 38.4851 57.9872 40.0244 60.3329 40.3418C63.072 40.7134 65.876 39.4531 67.7621 37.4352C69.3012 35.7888 70.2761 33.6928 70.8258 31.5253C71.0867 30.4939 70.9688 30.0019 71.9807 29.5457C72.9834 29.0921 73.9238 28.5261 74.692 27.7274L74.6907 27.73Z" fill="white"/>
<path d="M61.2811 40.6972C60.9487 40.6972 60.6175 40.676 60.2917 40.631C57.8374 40.2978 55.6281 38.7136 54.5274 36.4972C53.4267 34.2809 53.5009 31.5673 54.7208 29.4144C55.2373 28.5046 55.9208 27.9518 56.6347 27.8566C56.7049 26.2089 57.4533 24.5374 58.7619 23.1184C60.1487 21.6149 61.9646 20.6085 63.211 19.983C65.154 19.0071 66.7832 18.4543 68.3382 18.2454C70.3183 17.9796 72.2204 18.3062 73.6946 19.1671C75.4111 20.1695 76.5304 21.9084 76.6138 23.7056C76.6827 25.188 76.0588 26.7286 74.9025 27.9307C74.1965 28.6646 73.28 29.2795 72.1012 29.8125C71.419 30.1206 71.3647 30.3917 71.2309 31.0476C71.1978 31.2129 71.1607 31.3967 71.1091 31.599C70.4892 34.0441 69.4349 36.074 67.9753 37.6358C66.1607 39.5758 63.6719 40.6972 61.2838 40.6972H61.2811ZM56.8519 28.4239C56.04 28.4239 55.4479 29.3126 55.2267 29.7014C54.1009 31.6889 54.032 34.1936 55.0479 36.2393C56.0638 38.2851 58.1023 39.7477 60.3699 40.0545C62.856 40.393 65.607 39.3139 67.5474 37.2378C68.9395 35.7487 69.9462 33.8035 70.5422 31.4562C70.5912 31.2631 70.627 31.0886 70.6588 30.9312C70.8031 30.2237 70.9064 29.7133 71.8601 29.2822C72.9859 28.7744 73.8177 28.2163 74.4813 27.5273C75.5277 26.439 76.0933 25.0558 76.031 23.732C75.9568 22.1293 74.9476 20.5715 73.3992 19.6683C72.0363 18.8735 70.2667 18.572 68.415 18.822C66.9276 19.023 65.3567 19.5572 63.4719 20.5027C62.2666 21.1084 60.5116 22.0777 59.1897 23.5125C57.9076 24.9024 57.2056 26.5435 57.2122 28.133C57.2122 28.2123 57.1804 28.289 57.1221 28.3446C57.0652 28.4001 56.9844 28.4305 56.9062 28.4253C56.8877 28.4253 56.8705 28.4239 56.8519 28.4239Z" fill="black"/>
<path d="M60.7836 37.9435C60.32 37.2863 59.2683 37.2506 58.6339 37.7452C57.9994 38.2397 57.7517 39.1086 57.8127 39.9099C57.8948 40.9917 58.516 42.043 59.4802 42.5428C60.4445 43.0427 61.7279 42.9158 62.5068 42.158C64.5346 43.5743 67.1068 44.1906 69.5572 43.8467C70.9347 43.6537 72.3334 43.1221 73.2102 42.043C73.8208 41.2905 74.1295 40.3265 74.2182 39.3625C74.3069 38.3984 74.1864 37.4265 74.0155 36.473C73.5228 33.7251 72.6036 31.0525 71.3016 28.5822C71.091 28.1829 70.8632 27.7795 70.5148 27.4912C70.0234 27.0839 69.3572 26.961 68.7214 26.9107C67.2671 26.7957 65.7704 26.9953 64.4591 27.6341C63.1492 28.2728 62.0405 29.3743 61.5346 30.7404C61.0498 32.0496 61.1385 33.5135 61.4975 34.8623C61.8617 36.231 62.618 37.642 63.9492 38.1326L60.7836 37.9435Z" fill="white"/>
<path d="M68.2108 44.2314C66.2041 44.2314 64.2001 43.6363 62.5286 42.5255C61.6716 43.2105 60.3723 43.3335 59.3458 42.8005C58.3298 42.2742 57.6146 41.1475 57.5219 39.9309C57.4464 38.9325 57.7947 38.0293 58.4544 37.5162C58.8583 37.2015 59.4133 37.0613 59.9365 37.138C60.3935 37.2054 60.7789 37.4329 61.0213 37.7767C61.114 37.9076 61.0822 38.0888 60.9511 38.1827C60.8199 38.2753 60.6385 38.2435 60.5444 38.1126C60.3948 37.901 60.1484 37.7595 59.8504 37.7146C59.4848 37.6603 59.0875 37.7608 58.812 37.9751C58.2159 38.4392 58.0543 39.2671 58.102 39.8886C58.1802 40.9095 58.7736 41.8497 59.6133 42.2861C60.4994 42.745 61.6292 42.6048 62.3021 41.9515C62.4028 41.8537 62.559 41.8418 62.6716 41.9211C64.6412 43.2964 67.1366 43.8942 69.5141 43.5609C70.5883 43.4102 72.0625 42.9936 72.9817 41.8616C73.6466 41.0444 73.8612 40.038 73.9261 39.3385C74.0175 38.348 73.8758 37.3615 73.7274 36.527C73.6307 35.9849 73.5168 35.4453 73.387 34.9111C72.3234 34.7259 71.3631 35.2165 70.481 35.7786C70.0426 36.0589 69.6161 36.3816 69.2028 36.695C68.673 37.097 68.126 37.5122 67.5326 37.8534C66.775 38.2872 65.2889 38.9378 63.8478 38.4075C62.1988 37.8005 61.4902 35.9743 61.2147 34.9388C60.7921 33.3493 60.808 31.8642 61.2597 30.641C61.767 29.2684 62.8862 28.0782 64.3299 27.3747C65.6001 26.7545 67.1247 26.4953 68.7419 26.6222C69.3472 26.6698 70.1168 26.7875 70.6982 27.2689C71.0863 27.5902 71.3353 28.028 71.5565 28.4485C72.8784 30.9531 73.8003 33.6363 74.2996 36.4226C74.4559 37.2954 74.6029 38.3295 74.5062 39.39C74.4043 40.5088 74.0334 41.49 73.4347 42.2266C72.3963 43.5054 70.7737 43.9695 69.5962 44.1348C69.1366 44.1996 68.673 44.2314 68.2108 44.2314ZM67.9459 27.171C66.7154 27.171 65.5657 27.417 64.5856 27.8957C63.2756 28.5344 62.2624 29.6082 61.8067 30.8407C61.3961 31.9502 61.3868 33.3149 61.7776 34.7868C62.0239 35.7124 62.6465 37.343 64.0491 37.8587C65.2677 38.307 66.5724 37.7291 67.2426 37.3456C67.8042 37.0229 68.3366 36.6196 68.8505 36.2295C69.2731 35.9095 69.7088 35.5776 70.1684 35.2853C71.04 34.7299 72.0718 34.193 73.2321 34.3014C72.7142 32.3668 71.9804 30.4969 71.0426 28.7182C70.84 28.3334 70.6333 27.9684 70.3274 27.7159C69.8704 27.3377 69.2161 27.2424 68.6969 27.2014C68.4439 27.1816 68.1936 27.171 67.9472 27.171H67.9459Z" fill="black"/>
<path d="M60.1887 41.0115C60.104 41.0115 60.0192 40.9745 59.9622 40.9044C59.8616 40.7787 59.8801 40.5962 60.0046 40.4944C60.6192 39.9972 61.4947 39.8583 62.2338 40.14C62.3835 40.1969 62.459 40.3648 62.402 40.5156C62.3451 40.665 62.1755 40.7417 62.0259 40.6835C61.4855 40.4786 60.8205 40.583 60.3715 40.9467C60.3172 40.9903 60.2523 41.0115 60.1887 41.0115Z" fill="black"/>
<path d="M82.5165 89.2015C82.4595 90.0412 76.3257 230.272 76.3257 230.272L82.4437 238.099C83.5907 239.567 82.543 241.71 80.6781 241.71H5.48758C1.99217 241.71 -0.503234 238.333 0.525919 234.999L45.5875 89.1816L82.5152 89.2015H82.5165Z" fill="white"/>
<path d="M80.6771 242H5.48796C3.72899 242 2.12102 241.19 1.07597 239.776C0.0309239 238.362 -0.269743 236.59 0.248146 234.911L45.3097 89.0946C45.3468 88.973 45.4607 88.8896 45.5879 88.8896L82.5156 88.9095C82.5964 88.9095 82.6732 88.9425 82.7275 89.0021C82.7831 89.0602 82.8109 89.1396 82.8056 89.2202C82.7513 90.0375 76.8188 225.613 76.6201 230.177L82.6719 237.919C83.2719 238.686 83.3792 239.707 82.9513 240.583C82.5235 241.458 81.652 242.002 80.6771 242.002V242ZM45.8038 89.4715L0.80577 235.083C0.342187 236.582 0.612389 238.168 1.54485 239.431C2.47864 240.694 3.91575 241.418 5.48796 241.418H80.6771C81.4387 241.418 82.093 241.01 82.4282 240.326C82.7619 239.642 82.6825 238.875 82.2136 238.276L76.0956 230.449C76.0532 230.395 76.0307 230.326 76.0347 230.257C76.2784 224.674 81.8798 96.6654 82.2109 89.49L45.8038 89.4715Z" fill="black"/>
<path d="M51.1835 241.76H34.8812C34.7196 241.76 34.5898 241.63 34.5898 241.469C34.5898 241.307 34.7196 241.178 34.8812 241.178H51.1835C52.1742 241.178 52.7517 240.522 52.961 239.907C53.1702 239.292 53.1146 238.421 52.3292 237.818L42.8178 230.502C42.7264 230.432 42.6853 230.316 42.7118 230.204L70.3559 114.823C70.8394 112.805 72.4778 111.294 74.5321 110.973L74.8513 110.922C75.009 110.898 75.1586 111.006 75.1851 111.164C75.2103 111.323 75.1017 111.472 74.9427 111.498L74.6235 111.548C72.805 111.832 71.352 113.172 70.9241 114.96L43.3237 230.157L52.6855 237.357C53.5332 238.009 53.8577 239.084 53.5133 240.096C53.1676 241.108 52.2537 241.761 51.1835 241.761V241.76Z" fill="black"/>
<path d="M42.9969 230.56H4.391C4.23074 230.56 4.09961 230.431 4.09961 230.269C4.09961 230.108 4.22941 229.979 4.391 229.979H42.9982C43.1598 229.979 43.2896 230.108 43.2896 230.269C43.2896 230.431 43.1598 230.56 42.9982 230.56H42.9969Z" fill="black"/>
<path d="M76.3269 230.56H45.1039C44.9423 230.56 44.8125 230.431 44.8125 230.269C44.8125 230.108 44.9423 229.979 45.1039 229.979H76.3269C76.4885 229.979 76.6183 230.108 76.6183 230.269C76.6183 230.431 76.4885 230.56 76.3269 230.56Z" fill="black"/>
<path d="M79.2128 52.0257C76.8261 51.949 74.4393 51.9543 72.0525 51.9953C71.9876 52.4581 71.9028 52.9196 71.7849 53.3719C71.4644 54.5938 70.8909 55.8064 69.867 56.5906C68.7054 57.4793 67.1994 57.6155 65.7915 57.4251C62.3729 56.9609 59.5039 54.9812 57.0642 52.6366C46.2004 53.6152 37.24 55.7628 37.1102 55.9942C36.9619 56.2574 41.2004 68.647 42.9845 74.1098C44.3223 73.7078 45.66 73.3058 46.9991 72.9051C46.1514 78.2119 45.3037 84.1866 44.456 89.4934C57.4364 89.7155 70.418 89.2712 83.3983 89.4934C84.2778 82.3511 84.7003 76.9504 84.6633 69.7538C87.5467 69.6679 89.5481 69.3545 91.9614 69.4603C93.221 64.5158 93.8488 58.241 93.9442 53.1391C93.9521 52.6816 80.4645 52.0653 79.2142 52.0244L79.2128 52.0257Z" fill="#5479F7"/>
<path d="M48.5783 96.065C49.2313 96.0399 49.7254 95.3919 49.7929 94.744C49.8605 94.0947 49.6062 93.4586 49.324 92.8701C47.475 89.0047 39.2974 81.065 33.537 77.517C33.537 77.517 38.4762 74.4133 42.5372 72.759L37.3477 56.9854C32.0178 58.8473 28.4032 61.2699 24.1912 65.0229C22.2733 66.7315 20.4733 68.6635 19.4441 71.0147C17.9355 74.4583 18.2613 78.5392 19.8415 81.9497C21.4216 85.3615 24.1581 88.1452 27.2707 90.261C30.382 92.3769 33.8722 93.8712 37.3901 95.2081C37.3901 95.2081 40.2285 100.693 41.014 100.888C42.1663 101.172 42.9425 100.293 41.4802 94.978C41.4802 94.978 43.4034 98.8751 44.2312 99.4358C45.6789 100.417 46.7558 98.7059 46.2392 97.2274C46.2392 97.2274 46.8419 98.3092 47.7929 98.1214C48.7426 97.9336 48.5796 96.0677 48.5796 96.0677L48.5783 96.065Z" fill="white"/>
<path d="M41.3692 101.226C41.2367 101.226 41.095 101.208 40.944 101.171C40.1361 100.971 38.0844 97.1759 37.1824 95.4409C34.0009 94.2283 30.3306 92.6943 27.1067 90.5018C23.6444 88.1479 21.0417 85.2333 19.5781 82.0728C17.8748 78.3938 17.7251 74.2164 19.1781 70.8984C20.3225 68.2841 22.3557 66.27 23.9981 64.8061C27.8365 61.3851 31.5611 58.7006 37.2526 56.7117C37.4049 56.6588 37.5705 56.7381 37.6234 56.8902C37.6764 57.0423 37.597 57.2076 37.4446 57.2605C31.8247 59.2229 28.2816 61.7686 24.3862 65.2399C22.7875 66.6641 20.8113 68.6213 19.7119 71.1312C18.3238 74.2997 18.4722 78.2986 20.1066 81.8281C21.5265 84.8935 24.0603 87.726 27.4352 90.0204C30.6445 92.2024 34.3214 93.7298 37.495 94.9358C37.5625 94.9609 37.6168 95.0112 37.6499 95.0746C38.9586 97.6018 40.6447 100.436 41.0897 100.608C41.4765 100.703 41.6328 100.6 41.7162 100.515C42.0036 100.221 42.3176 99.1212 41.201 95.0548C41.1612 94.9107 41.2381 94.7586 41.3785 94.7057C41.5202 94.6515 41.6765 94.7136 41.744 94.8485C42.4752 96.3283 43.8408 98.817 44.3971 99.1939C44.8302 99.4875 45.2315 99.5113 45.556 99.2627C45.9785 98.9387 46.2474 98.1241 45.9666 97.3214C45.9163 97.1786 45.9852 97.0225 46.1229 96.9604C46.262 96.8982 46.4236 96.9525 46.4964 97.0847C46.5004 97.0926 47.013 97.9773 47.7388 97.8345C48.315 97.7208 48.3216 96.4301 48.2911 96.0916C48.2845 96.0122 48.3097 95.9342 48.3627 95.8734C48.4157 95.8139 48.4898 95.7782 48.5706 95.7755C49.0819 95.7557 49.4554 95.2095 49.5071 94.7149C49.5667 94.141 49.3296 93.5499 49.0647 92.9958C47.262 89.2283 39.0579 81.2568 33.3876 77.7657C33.3029 77.7128 33.2499 77.6202 33.2499 77.5197C33.2499 77.4192 33.3002 77.3253 33.3863 77.2724C33.4366 77.242 38.393 74.1357 42.4315 72.4919C42.5811 72.4311 42.7507 72.5025 42.8116 72.6506C42.8725 72.8001 42.801 72.9693 42.6527 73.0302C39.3202 74.3869 35.3439 76.7567 34.0936 77.5197C39.9122 81.2291 47.7613 88.9162 49.5918 92.7446C49.8938 93.3754 50.1627 94.0577 50.0872 94.7745C50.0183 95.4357 49.5614 96.1326 48.8859 96.3124C48.8965 96.9062 48.809 98.2167 47.8527 98.4058C47.3693 98.4997 46.9666 98.3397 46.6607 98.1175C46.6315 98.7681 46.364 99.3777 45.9123 99.7242C45.3851 100.129 44.7136 100.11 44.0712 99.6753C43.6169 99.3672 42.9096 98.2352 42.3109 97.1707C42.8262 99.785 42.4818 100.567 42.1361 100.921C41.9374 101.125 41.6818 101.226 41.3718 101.226H41.3692Z" fill="black"/>
<path d="M46.0894 97.15C45.9609 97.15 45.843 97.064 45.8086 96.9344C45.398 95.411 44.8046 93.9379 44.0456 92.5559C43.9688 92.4144 44.0191 92.2386 44.1609 92.1605C44.3013 92.0838 44.4787 92.1354 44.5569 92.2756C45.3384 93.6985 45.9503 95.214 46.3715 96.7823C46.4139 96.9371 46.3212 97.0971 46.1662 97.1394C46.141 97.146 46.1159 97.15 46.0907 97.15H46.0894Z" fill="black"/>
<path d="M48.4634 96.119C48.3336 96.119 48.2144 96.0304 48.1813 95.8995C47.7111 94.023 46.9257 92.2562 45.8475 90.6482C45.7574 90.5146 45.7932 90.3335 45.9283 90.2449C46.0607 90.155 46.2435 90.1907 46.3323 90.3255C47.4475 91.9891 48.2594 93.8167 48.7469 95.7593C48.7866 95.9153 48.6912 96.0727 48.5349 96.1124C48.5111 96.119 48.4873 96.1216 48.4634 96.1216V96.119Z" fill="black"/>
<path d="M33.0754 77.3521C33.0264 77.3521 32.9761 77.3402 32.931 77.3137C31.927 76.7372 30.8634 76.2492 29.772 75.863C29.621 75.8088 29.5416 75.6435 29.5945 75.4914C29.6488 75.3407 29.8157 75.2613 29.9667 75.3142C31.0913 75.7123 32.1866 76.2148 33.2211 76.8086C33.3602 76.8892 33.4092 77.0664 33.3284 77.2053C33.2741 77.2992 33.1761 77.3507 33.0754 77.3507V77.3521Z" fill="black"/>
<path d="M77.2224 28.2034C76.392 28.2378 75.7363 28.9188 75.7363 29.7493C75.7363 30.5798 76.392 31.2608 77.2224 31.2952L115.035 32.8384V26.6602L77.2224 28.2034Z" fill="black"/>
<path d="M77.2227 28.2022V31.294L131.483 35.4913V24.0049L77.2227 28.2022Z" fill="black"/>
<path d="M132.926 23.3163L131.482 23.5808V35.9162L132.926 36.1807C133.501 36.2865 134.041 35.899 134.041 35.3806V24.1164C134.041 23.598 133.502 23.2105 132.926 23.3163Z" fill="black"/>
<path d="M93.9431 53.1407L96.9895 52.7135C96.9895 52.7135 96.0835 46.1094 94.5683 42.3102C93.053 38.5109 91.2172 34.4736 92.2914 30.7259C93.3669 26.9782 94.6517 26.2284 95.71 26.1094C96.7683 25.9891 96.7683 28.1102 96.3418 29.6971C95.9153 31.284 96.608 32.2996 96.608 32.2996L104.904 33.4368C104.904 33.4368 108.913 42.2216 109.807 48.8957C110.702 55.5699 112.48 64.6866 92.4874 67.1383C92.4874 67.1383 94.2332 57.1766 93.9418 53.142L93.9431 53.1407Z" fill="white"/>
<path d="M92.4876 67.428C92.3419 67.428 92.2174 67.3196 92.1988 67.1728C92.1789 67.0128 92.2928 66.8686 92.4518 66.8488C100.39 65.8755 105.482 63.8033 108.022 60.5145C110.634 57.1318 110.079 53.0522 109.588 49.4539L109.518 48.9342C108.701 42.8445 105.225 34.8744 104.704 33.7027L96.5684 32.5879C96.4863 32.5774 96.4134 32.5311 96.3671 32.4636C96.3353 32.4174 95.6042 31.3171 96.0598 29.6218C96.4081 28.3258 96.3975 26.9307 96.0373 26.5128C95.9565 26.4189 95.8677 26.3845 95.7432 26.3991C94.8969 26.4956 93.6478 27.0563 92.5723 30.8067C91.6041 34.1801 93.0743 37.8247 94.4969 41.3502C94.6121 41.6358 94.7273 41.9202 94.8399 42.2032C96.3512 45.9918 97.2704 52.6078 97.2797 52.6739C97.3009 52.8326 97.1909 52.9794 97.0307 53.0019L93.9843 53.429C93.8227 53.4515 93.6783 53.3404 93.6558 53.1818C93.6333 53.0231 93.7445 52.8763 93.9035 52.8538L96.6611 52.4677C96.4677 51.1598 95.6068 45.6956 94.2995 42.42C94.1869 42.137 94.0717 41.854 93.9578 41.5684C92.4995 37.9516 90.9908 34.2132 92.0147 30.648C93.1869 26.5631 94.6677 25.9376 95.6797 25.8225C95.9962 25.7855 96.2744 25.8939 96.481 26.1346C97.0691 26.817 96.9684 28.4991 96.6254 29.7739C96.3128 30.9376 96.6452 31.7522 96.7909 32.0325L104.946 33.15C105.045 33.1632 105.13 33.2267 105.171 33.3179C105.211 33.4065 109.208 42.219 110.098 48.8588L110.169 49.3772C110.649 52.9054 111.247 57.2958 108.486 60.8715C105.847 64.2899 100.625 66.4349 92.526 67.428C92.514 67.4293 92.5021 67.4307 92.4902 67.4307L92.4876 67.428Z" fill="black"/>
<path d="M105.934 24.4216C106.56 24.3898 107.248 24.4599 107.643 24.9479C108.044 25.4451 108.062 26.1407 108.025 26.7781C107.988 27.4195 107.91 28.0674 107.673 28.6652C107.436 29.2629 107.024 29.8104 106.451 30.1039C106.143 30.2613 105.779 30.3406 105.449 30.2388C104.882 30.0656 104.584 29.4044 104.628 28.8146C104.672 28.2248 104.975 27.6892 105.272 27.1761C104.693 27.1325 104.052 27.1563 103.49 27.0254C103.535 26.749 104.564 24.4903 105.935 24.4216H105.934Z" fill="white"/>
<path d="M105.761 30.5741C105.623 30.5741 105.491 30.5556 105.365 30.5159C104.625 30.2885 104.288 29.4765 104.339 28.7928C104.376 28.2969 104.569 27.8499 104.788 27.4426C104.765 27.4426 104.741 27.44 104.719 27.44C104.288 27.4241 103.842 27.4056 103.423 27.3091C103.274 27.2747 103.177 27.1292 103.202 26.9785C103.257 26.6479 104.349 24.2107 105.92 24.1313C106.846 24.0851 107.487 24.2914 107.87 24.7648C108.335 25.34 108.356 26.1136 108.316 26.7947C108.28 27.3977 108.209 28.1039 107.944 28.7717C107.657 29.495 107.174 30.061 106.584 30.3625C106.31 30.5027 106.027 30.5741 105.761 30.5741ZM103.883 26.8C104.16 26.8357 104.454 26.8476 104.741 26.8581C104.928 26.8648 105.114 26.8727 105.294 26.8859C105.394 26.8939 105.483 26.952 105.529 27.0393C105.576 27.1279 105.574 27.2337 105.524 27.321C105.259 27.7799 104.959 28.2996 104.919 28.8351C104.886 29.2848 105.107 29.8283 105.535 29.9592C105.838 30.0518 106.156 29.9261 106.317 29.8428C106.782 29.6048 107.167 29.1486 107.402 28.5561C107.637 27.965 107.702 27.3157 107.735 26.759C107.768 26.189 107.756 25.549 107.416 25.1284C107.155 24.8058 106.688 24.6709 105.949 24.7106C104.998 24.7582 104.172 26.1652 103.883 26.7986V26.8Z" fill="black"/>
<path d="M105.279 27.4178C105.228 27.4178 105.178 27.4046 105.132 27.3782C104.993 27.2975 104.946 27.119 105.027 26.9801L105.612 25.9791C105.693 25.8402 105.872 25.7939 106.011 25.8746C106.15 25.9553 106.197 26.1338 106.116 26.2726L105.53 27.275C105.476 27.3676 105.379 27.4192 105.279 27.4192V27.4178Z" fill="black"/>
<path d="M103.679 23.8381C104.368 23.8037 105.124 23.8804 105.558 24.416C105.999 24.9621 106.02 25.7278 105.979 26.4287C105.938 27.1348 105.852 27.8463 105.592 28.5035C105.331 29.1607 104.878 29.7638 104.248 30.0851C103.91 30.2583 103.51 30.3443 103.146 30.2332C102.522 30.0428 102.195 29.3168 102.242 28.6675C102.29 28.0182 102.624 27.4297 102.95 26.8664C102.312 26.8188 101.608 26.8439 100.989 26.7011C101.04 26.3982 102.171 23.9134 103.678 23.8367L103.679 23.8381Z" fill="white"/>
<path d="M103.488 30.5752C103.339 30.5752 103.195 30.554 103.06 30.513C102.26 30.2684 101.897 29.389 101.951 28.6471C101.992 28.0917 102.216 27.5892 102.464 27.133C102.424 27.1316 102.383 27.129 102.342 27.1277C101.869 27.1092 101.38 27.0906 100.923 26.9848C100.774 26.9505 100.677 26.805 100.702 26.6542C100.762 26.2946 101.954 23.6339 103.664 23.5479C104.674 23.4977 105.37 23.7212 105.783 24.2342C106.288 24.8597 106.312 25.7034 106.268 26.4466C106.229 27.1065 106.151 27.8814 105.861 28.6127C105.549 29.4022 105.021 30.0184 104.379 30.3464C104.081 30.4985 103.775 30.5765 103.488 30.5765V30.5752ZM101.378 26.477C101.696 26.522 102.035 26.5339 102.364 26.5471C102.57 26.5551 102.774 26.563 102.971 26.5775C103.07 26.5855 103.161 26.6437 103.207 26.7309C103.253 26.8195 103.252 26.9253 103.202 27.0126C102.909 27.5204 102.576 28.0957 102.533 28.6908C102.496 29.1972 102.746 29.8082 103.231 29.9576C103.574 30.0621 103.931 29.9219 104.114 29.828C104.631 29.5635 105.06 29.0557 105.321 28.3985C105.58 27.7439 105.652 27.0272 105.688 26.4136C105.725 25.7815 105.712 25.0713 105.331 24.6006C105.039 24.2382 104.519 24.0875 103.694 24.1298C102.607 24.184 101.682 25.7934 101.379 26.4784L101.378 26.477Z" fill="black"/>
<path d="M102.958 27.1043C102.908 27.1043 102.858 27.091 102.811 27.0646C102.672 26.9839 102.626 26.8054 102.707 26.6666L103.35 25.565C103.431 25.4261 103.61 25.3799 103.749 25.4605C103.888 25.5412 103.935 25.7197 103.854 25.8586L103.21 26.9601C103.156 27.0527 103.059 27.1043 102.958 27.1043Z" fill="black"/>
<path d="M101.373 23.8381C102.063 23.8037 102.818 23.8804 103.251 24.416C103.692 24.9621 103.713 25.7278 103.672 26.4287C103.631 27.1348 103.545 27.8463 103.285 28.5035C103.024 29.1607 102.571 29.7638 101.941 30.0851C101.603 30.2583 101.203 30.3443 100.839 30.2332C100.215 30.0428 99.8879 29.3168 99.9356 28.6675C99.9833 28.0182 100.317 27.4297 100.643 26.8664C100.006 26.8188 99.3012 26.8439 98.6826 26.7011C98.7329 26.3982 99.8641 23.9134 101.371 23.8367L101.373 23.8381Z" fill="white"/>
<path d="M101.18 30.5752C101.031 30.5752 100.888 30.554 100.752 30.513C99.9519 30.2684 99.589 29.389 99.6433 28.6471C99.6843 28.0904 99.9082 27.5892 100.157 27.133C100.116 27.1316 100.076 27.129 100.035 27.1277C99.5625 27.1092 99.0737 27.0906 98.6168 26.9848C98.4671 26.9505 98.3704 26.805 98.3956 26.6542C98.4552 26.2946 99.6473 23.6339 101.357 23.5479C102.368 23.4977 103.063 23.7212 103.476 24.2342C103.981 24.8597 104.005 25.7034 103.961 26.4466C103.923 27.1078 103.843 27.8828 103.555 28.6127C103.241 29.4022 102.715 30.0184 102.072 30.3464C101.774 30.4985 101.468 30.5765 101.181 30.5765L101.18 30.5752ZM99.0711 26.477C99.389 26.522 99.728 26.5339 100.058 26.5471C100.263 26.5551 100.467 26.563 100.664 26.5775C100.764 26.5855 100.854 26.6437 100.9 26.7309C100.947 26.8195 100.945 26.9253 100.895 27.0126C100.602 27.5191 100.27 28.0943 100.226 28.6908C100.189 29.1972 100.439 29.8082 100.924 29.9576C101.267 30.0634 101.625 29.9219 101.808 29.828C102.324 29.5635 102.752 29.0557 103.014 28.3985C103.274 27.7452 103.345 27.0285 103.381 26.4136C103.418 25.7815 103.405 25.0713 103.025 24.6006C102.732 24.2382 102.213 24.0875 101.388 24.1298C100.3 24.184 99.3757 25.7934 99.0724 26.4784L99.0711 26.477Z" fill="black"/>
<path d="M99.0303 24.4333C99.6555 24.4015 100.342 24.4716 100.735 24.9583C101.135 25.4542 101.154 26.1484 101.116 26.7845C101.079 27.4246 101.001 28.0712 100.765 28.6676C100.528 29.264 100.118 29.8102 99.5456 30.1024C99.2383 30.2598 98.8754 30.3378 98.5456 30.2373C97.98 30.0641 97.682 29.4055 97.7257 28.8157C97.7694 28.2273 98.0727 27.693 98.3681 27.1812C97.7403 27.1812 97.3085 27.2447 96.6621 27.2421C96.7071 26.967 97.6621 24.5007 99.029 24.432L99.0303 24.4333Z" fill="white"/>
<path d="M98.8569 30.5752C98.7192 30.5752 98.5867 30.5567 98.4609 30.5171C97.7205 30.2909 97.3854 29.4803 97.4357 28.7966C97.4715 28.3179 97.6543 27.8841 97.8636 27.4874C97.7629 27.4927 97.6636 27.498 97.5629 27.5033C97.2874 27.5192 96.996 27.5337 96.6609 27.535C96.5761 27.535 96.4953 27.4967 96.4397 27.4319C96.3841 27.3671 96.3615 27.2811 96.3748 27.1965C96.4145 26.9585 97.4079 24.2237 99.0159 24.1431C99.9431 24.0968 100.58 24.3031 100.962 24.7765C101.425 25.3517 101.448 26.124 101.408 26.8024C101.372 27.4041 101.301 28.109 101.037 28.7755C100.75 29.4975 100.268 30.0608 99.6795 30.3623C99.4053 30.5025 99.1245 30.5739 98.8583 30.5739L98.8569 30.5752ZM98.3682 26.8923C98.4715 26.8923 98.5682 26.9479 98.6199 27.0378C98.6728 27.1277 98.6728 27.2388 98.6199 27.3287C98.355 27.7863 98.0556 28.3047 98.0159 28.8402C97.9828 29.2885 98.204 29.8307 98.6305 29.9616C98.9324 30.0542 99.2503 29.9286 99.4119 29.8466C99.8742 29.6099 100.258 29.1537 100.494 28.5625C100.729 27.9728 100.793 27.3248 100.825 26.7694C100.858 26.2007 100.846 25.5633 100.507 25.1428C100.248 24.8215 99.7828 24.6866 99.0437 24.7262C98.1298 24.7725 97.3563 26.2378 97.0675 26.9479C97.2251 26.9426 97.3748 26.9333 97.5285 26.9241C97.7867 26.9095 98.0543 26.8937 98.3669 26.8937L98.3682 26.8923Z" fill="black"/>
<path d="M98.3763 27.4253C98.326 27.4253 98.2756 27.4121 98.2293 27.3856C98.0902 27.305 98.0439 27.1264 98.1246 26.9876L98.7088 25.9878C98.7896 25.849 98.9684 25.8027 99.1074 25.8834C99.2465 25.964 99.2929 26.1426 99.2121 26.2814L98.628 27.2812C98.5737 27.3737 98.477 27.4253 98.3763 27.4253Z" fill="black"/>
<path d="M151.683 242.001H68.3158C68.1542 242.001 68.0244 241.871 68.0244 241.71C68.0244 241.549 68.1542 241.419 68.3158 241.419H151.683C151.844 241.419 151.974 241.549 151.974 241.71C151.974 241.871 151.844 242.001 151.683 242.001Z" fill="black"/>
</g>
<defs>
<clipPath id="clip0_4517_51986">
<rect width="363" height="242" fill="white"/>
</clipPath>
</defs>
</svg>
