<svg width="800" height="534" viewBox="0 0 800 534" fill="none" xmlns="http://www.w3.org/2000/svg">
<g clip-path="url(#clip0_4718_14936)">
<path fill-rule="evenodd" clip-rule="evenodd" d="M359.551 -143.577C474.388 -141.132 604.434 -115.73 639.373 -6.3708C673.973 101.925 585.05 201.569 489.556 263.334C411.031 314.125 315.061 304.388 235.897 254.598C130.957 188.596 3.7147 99.2303 40.4688 -19.1202C77.8861 -139.606 233.353 -146.263 359.551 -143.577Z" fill="#F9FBFF"/>
<path fill-rule="evenodd" clip-rule="evenodd" d="M434.429 -113.207C319.399 -114.518 166.353 -124.516 138.863 -12.6046C112.715 93.845 271.952 121.163 361.321 184.42C444.026 242.961 513.9 364.359 602.803 315.784C712.386 255.91 755.687 110.279 710.01 -6.09883C670.147 -107.663 543.355 -111.967 434.429 -113.207Z" fill="#EDF4FF"/>
<path d="M790.735 273.313H428.334V483.368H790.735V273.313Z" fill="white"/>
<path d="M790.734 484.008H428.336C427.979 484.008 427.693 483.722 427.693 483.367V273.312C427.693 272.957 427.979 272.671 428.336 272.671H790.734C791.09 272.671 791.376 272.957 791.376 273.312V483.367C791.376 483.722 791.09 484.008 790.734 484.008ZM428.975 482.726H790.091V273.953H428.975V482.726Z" fill="black"/>
<path d="M793.342 265.101C788.806 255.764 781.978 247.609 773.954 241.055C765.877 234.462 756.533 229.432 746.675 226.054C741.599 224.314 736.38 222.994 731.085 222.126C725.465 221.205 719.779 220.701 714.189 219.599C708.485 218.477 702.796 216.676 698.088 213.164C693.321 209.608 689.748 204.768 686.26 200.02C679.213 190.429 672.406 180.47 663.304 172.66C654.918 165.461 644.024 160.262 632.768 160.635C622.242 160.988 612.425 166.406 606.96 175.178C592.777 197.939 595.41 229.117 596.233 237.963C597.298 249.419 600.384 260.645 604.78 271.259C609.284 282.142 615.195 292.409 621.956 302.041C628.681 311.627 636.177 320.792 644.587 328.953C652.825 336.944 662.09 343.872 672.438 348.905C682.15 353.629 692.641 356.762 703.336 358.263C714.04 359.767 724.993 359.65 735.656 357.858C746.366 356.059 756.802 352.577 766.347 347.398C776.172 342.068 785.149 334.869 791.238 325.4C796.869 316.642 799.691 306.261 799.983 295.898C800.281 285.31 797.978 274.623 793.348 265.093L793.342 265.101Z" fill="black"/>
<path d="M506.225 292.493L544.181 224.626L518.911 216.932L483.719 288.151L506.225 292.493Z" fill="#E2EAFF"/>
<path d="M539.642 230.701H514.798V185.624H539.642C547.454 185.624 553.797 191.957 553.797 199.756V216.572C553.797 224.371 547.454 230.704 539.642 230.704V230.701Z" fill="white"/>
<path d="M539.645 231.343H514.804C514.448 231.343 514.162 231.057 514.162 230.701V185.625C514.162 185.269 514.448 184.983 514.804 184.983H539.645C547.804 184.983 554.442 191.611 554.442 199.756V216.572C554.442 224.718 547.804 231.346 539.645 231.346V231.343ZM515.444 230.06H539.645C547.095 230.06 553.158 224.01 553.158 216.57V199.754C553.158 192.316 547.098 186.263 539.645 186.263H515.444V230.057V230.06Z" fill="black"/>
<path d="M359.072 151.273C359.072 151.273 364.767 132.076 380.39 133.746C391.795 134.964 464.403 159.911 502.774 173.291C516.97 178.24 526.474 191.611 526.474 206.623C526.474 224.663 512.854 239.8 494.887 241.729L375.962 254.489C375.962 254.489 362.525 255.124 356.655 236.291C350.785 217.458 359.072 151.276 359.072 151.276V151.273Z" fill="white"/>
<path d="M375.896 255.123C374.446 255.123 361.683 254.578 356.041 236.477C350.197 217.729 358.096 153.901 358.435 151.19C358.438 151.155 358.446 151.12 358.455 151.088C358.513 150.893 364.48 131.393 380.459 133.107C391.782 134.316 462.087 158.421 502.986 172.684C517.418 177.717 527.115 191.357 527.115 206.622C527.115 225.032 513.291 240.397 494.956 242.364L376.031 255.123C376.031 255.123 375.975 255.123 375.896 255.123ZM359.701 151.406C359.424 153.653 351.578 217.843 357.267 236.095C362.907 254.194 375.397 253.864 375.931 253.844L494.819 241.091C512.5 239.193 525.831 224.377 525.831 206.622C525.831 191.902 516.481 178.749 502.563 173.896C461.717 159.654 391.519 135.581 380.322 134.383C365.794 132.833 360.031 150.36 359.701 151.406Z" fill="black"/>
<path d="M376.129 254.49C394.024 254.49 408.531 227.337 408.531 193.842C408.531 160.347 394.024 133.193 376.129 133.193C358.234 133.193 343.728 160.347 343.728 193.842C343.728 227.337 358.234 254.49 376.129 254.49Z" fill="white"/>
<path d="M376.128 255.13C357.907 255.13 343.084 227.636 343.084 193.84C343.084 160.045 357.907 132.551 376.128 132.551C394.349 132.551 409.171 160.045 409.171 193.84C409.171 227.636 394.349 255.13 376.128 255.13ZM376.128 133.83C358.616 133.83 344.368 160.75 344.368 193.837C344.368 226.925 358.616 253.845 376.128 253.845C393.639 253.845 407.887 226.925 407.887 193.837C407.887 160.75 393.639 133.83 376.128 133.83Z" fill="black"/>
<path d="M397.234 219.067C397.234 219.067 397.207 219.067 397.193 219.067C388.231 218.507 379.751 212.632 376.088 204.448C372.427 196.265 373.706 186.038 379.267 179C384.831 171.964 394.498 168.348 403.323 170.006C403.67 170.07 403.901 170.405 403.834 170.755C403.769 171.102 403.431 171.332 403.083 171.265C394.714 169.694 385.549 173.121 380.274 179.792C374.996 186.463 373.785 196.163 377.259 203.921C380.729 211.682 388.771 217.254 397.269 217.784C397.622 217.808 397.89 218.111 397.87 218.463C397.85 218.804 397.566 219.064 397.231 219.064L397.234 219.067Z" fill="black"/>
<path d="M374.131 251.714C373.953 251.714 373.772 251.638 373.646 251.492C362.347 238.483 354.877 221.914 352.612 204.845C350.346 187.772 353.236 169.837 360.753 154.338C365.166 145.237 370.362 139.88 376.638 137.959C376.977 137.852 377.336 138.047 377.441 138.385C377.546 138.723 377.354 139.081 377.015 139.186C371.098 140.996 366.156 146.137 361.909 154.898C354.503 170.172 351.651 187.854 353.884 204.679C356.117 221.503 363.479 237.83 374.615 250.653C374.846 250.921 374.82 251.326 374.551 251.557C374.429 251.661 374.28 251.714 374.131 251.714Z" fill="black"/>
<path d="M493.67 385.148C521.588 390.298 567.7 356.701 567.7 356.701C579.902 410.879 584.677 432.335 589.412 455.939H742.123C741.761 443.617 739.685 434.279 739.685 434.279C740.853 434.034 742.079 433.676 743.34 433.224C763.581 425.973 773.602 403.241 765.928 383.187C754.482 353.274 737.554 315.491 727.504 293.555C722.005 281.55 710.895 273.075 697.855 270.89C660.263 264.586 617.566 265.734 593.289 267.2C580.792 267.955 568.821 272.461 558.928 280.117L520.079 310.184L529.589 283.803C509.45 266.996 471.398 286.205 471.398 286.205L461.169 308.442C448.69 334.485 449.119 376.93 493.667 385.148H493.67Z" fill="#5479F7"/>
<path d="M511.072 332.505C510.99 332.505 510.908 332.491 510.829 332.458C510.499 332.324 510.345 331.951 510.479 331.622L518.057 313.098C518.191 312.769 518.565 312.614 518.895 312.748C519.224 312.883 519.379 313.256 519.248 313.585L511.67 332.109C511.568 332.356 511.328 332.508 511.074 332.508L511.072 332.505Z" fill="black"/>
<path d="M653.465 359.523C633.525 350.701 611.603 343.689 590.153 347.615C588.16 347.979 586.116 348.468 584.502 349.693C582.891 350.917 581.662 352.243 582.26 354.175C582.859 356.107 584.721 356.859 587.237 356.769C584.952 357.576 582.535 358.476 581.069 360.403C579.604 362.329 579.683 365.617 581.837 366.724C582.865 367.252 584.088 367.173 585.241 367.083C591.438 366.593 597.635 366.101 603.832 365.611C601.865 367.147 599.205 367.357 596.718 367.569C594.231 367.782 591.549 368.144 589.751 369.875C587.952 371.603 587.833 375.173 590.098 376.216C591.055 376.656 592.165 376.552 593.213 376.435C598.251 375.878 603.289 375.322 608.33 374.765C606.576 376.35 604.232 377.067 601.996 377.84C599.763 378.612 597.448 379.568 596.006 381.442C594.564 383.313 594.407 386.364 596.272 387.816C598.225 389.331 601.006 388.396 603.426 387.877C612.782 385.863 621.989 391.249 629.908 396.608C642.606 405.203 655.018 414.36 668.294 421.972C674.009 407.441 681.26 387.591 685.703 374.235C674.853 369.636 664.242 364.294 653.465 359.526V359.523Z" fill="white"/>
<path d="M714.152 384.156C714.108 384.156 714.067 384.15 714.023 384.142C705.362 382.381 696.284 379.42 685.449 374.83C685.122 374.693 684.97 374.314 685.107 373.991C685.247 373.664 685.624 373.516 685.948 373.65C696.702 378.208 705.704 381.143 714.277 382.885C714.625 382.955 714.849 383.293 714.779 383.64C714.718 383.943 714.45 384.153 714.152 384.153V384.156Z" fill="black"/>
<path d="M721.651 439.028C705.667 439.028 690.753 433.872 679.95 428.801C676.056 426.974 672.135 424.922 667.967 422.532C667.66 422.354 667.552 421.964 667.731 421.658C667.906 421.352 668.3 421.244 668.606 421.422C672.745 423.794 676.634 425.828 680.496 427.641C694.77 434.341 716.304 441.199 737.838 435.804C738.176 435.72 738.529 435.927 738.617 436.271C738.705 436.614 738.494 436.961 738.15 437.049C732.607 438.439 727.063 439.031 721.648 439.031L721.651 439.028Z" fill="black"/>
<path d="M705.406 382.12C705.12 382.12 704.86 381.928 704.784 381.64L697.387 352.912C697.3 352.569 697.507 352.219 697.848 352.131C698.193 352.047 698.543 352.251 698.631 352.592L706.028 381.319C706.115 381.663 705.908 382.013 705.566 382.1C705.514 382.115 705.458 382.12 705.406 382.12Z" fill="black"/>
<path d="M589.415 357.343C589.108 357.343 588.837 357.121 588.781 356.809C588.72 356.46 588.956 356.13 589.307 356.069C593.709 355.314 598.204 354.839 602.664 354.659C603.006 354.635 603.318 354.921 603.333 355.273C603.347 355.626 603.07 355.926 602.717 355.941C598.312 356.119 593.875 356.588 589.525 357.331C589.49 357.337 589.453 357.34 589.417 357.34L589.415 357.343Z" fill="black"/>
<path d="M522.046 304.734C522.046 304.734 487.227 309.534 467.34 295.032L471.4 286.205C471.4 286.205 466.149 281.023 471.467 279.123C471.467 279.123 466.52 269.278 475.113 268.695C475.113 268.695 469.395 255.854 482.601 258.294C482.601 258.294 474.667 243.806 489.46 247.309C501.166 250.081 503.609 253.887 503.609 253.887C503.609 253.887 497.076 237.744 505.264 239.414C507.836 239.939 511.768 241.635 515.919 244.214C529.259 252.509 534.91 269.042 529.589 283.806L522.043 304.737L522.046 304.734Z" fill="white"/>
<path d="M522.045 305.376C521.972 305.376 521.899 305.364 521.826 305.338C521.493 305.218 521.318 304.851 521.441 304.519L528.987 283.588C534.191 269.153 528.555 252.821 515.582 244.757C511.703 242.346 507.8 240.583 505.138 240.041C503.894 239.788 503.036 239.974 502.508 240.606C500.532 242.979 503.063 250.824 504.204 253.645C504.329 253.951 504.198 254.304 503.903 254.456C503.608 254.607 503.246 254.511 503.068 254.231C503.048 254.199 500.511 250.582 489.311 247.933C485.428 247.015 482.901 247.283 481.797 248.729C480.025 251.046 482.182 256.198 483.16 257.988C483.28 258.204 483.263 258.472 483.117 258.673C482.971 258.874 482.725 258.97 482.48 258.926C478.945 258.273 476.563 258.69 475.399 260.162C473.262 262.864 475.67 268.381 475.696 268.436C475.781 268.628 475.766 268.847 475.658 269.028C475.55 269.205 475.361 269.322 475.15 269.336C473.201 269.468 471.878 270.12 471.219 271.275C469.648 274.023 472.01 278.791 472.033 278.84C472.115 279.004 472.123 279.196 472.056 279.365C471.986 279.534 471.849 279.668 471.677 279.729C470.568 280.126 469.925 280.694 469.765 281.417C469.423 282.955 471.148 285.068 471.843 285.753C472.036 285.943 472.088 286.231 471.975 286.476L467.914 295.304C467.765 295.624 467.383 295.764 467.062 295.618C466.741 295.47 466.598 295.091 466.746 294.767L470.626 286.333C469.87 285.491 468.051 283.203 468.51 281.14C468.734 280.131 469.435 279.342 470.6 278.788C469.952 277.267 468.559 273.338 470.103 270.639C470.88 269.284 472.255 268.448 474.199 268.153C473.548 266.358 472.304 262.007 474.386 259.372C475.714 257.694 478.093 257.058 481.473 257.475C480.489 255.315 478.741 250.609 480.77 247.954C482.212 246.068 485.18 245.643 489.603 246.689C496.375 248.292 500.123 250.253 502.114 251.667C500.975 248.228 499.449 242.271 501.515 239.788C502.362 238.773 503.664 238.432 505.389 238.788C508.191 239.359 512.255 241.183 516.254 243.672C529.737 252.054 535.595 269.025 530.186 284.025L522.641 304.956C522.547 305.218 522.299 305.379 522.036 305.379L522.045 305.376Z" fill="black"/>
<path d="M514.121 278.038L499.616 306.11C497.138 310.907 491.39 313.002 486.398 310.93C481.016 308.695 478.529 302.475 480.89 297.154L481.839 295.015C481.839 295.015 492.558 296.956 488.354 289.786C488.354 289.786 500.489 291.232 494.49 281.763C494.49 281.763 497.47 282.748 500.106 281.55C503.96 279.799 507.08 274.905 499.088 268.027C505.267 270.706 511.07 269.639 511.07 269.639C511.07 269.639 512.626 275.042 514.121 278.038Z" fill="#E2EAFF"/>
<path d="M503.993 271.355C503.891 271.355 503.783 271.329 503.686 271.276C497.364 267.84 491.029 264.217 484.855 260.507C484.552 260.327 484.453 259.93 484.636 259.627C484.82 259.324 485.214 259.225 485.518 259.409C491.674 263.107 497.994 266.721 504.299 270.148C504.612 270.317 504.725 270.708 504.556 271.017C504.439 271.23 504.22 271.352 503.993 271.352V271.355Z" fill="black"/>
<path d="M500.24 285.962C500.137 285.962 500.035 285.938 499.942 285.889C491.552 281.468 483.324 276.519 475.483 271.183C475.191 270.985 475.115 270.585 475.314 270.291C475.515 269.997 475.912 269.924 476.207 270.122C484.007 275.429 492.195 280.351 500.54 284.752C500.853 284.918 500.975 285.306 500.809 285.618C500.692 285.836 500.47 285.959 500.24 285.959V285.962Z" fill="black"/>
<path d="M492.804 292.735C492.699 292.735 492.594 292.709 492.494 292.656L474.326 282.657C474.014 282.485 473.903 282.097 474.072 281.786C474.244 281.474 474.636 281.363 474.945 281.532L493.113 291.531C493.426 291.703 493.536 292.091 493.367 292.403C493.25 292.615 493.031 292.735 492.804 292.735Z" fill="black"/>
<path d="M509.985 271.075C509.647 271.075 509.364 270.81 509.343 270.466C509.326 270.113 509.597 269.81 509.95 269.793C511.608 269.708 512.846 267.933 512.96 266.33C513.068 264.806 512.49 263.133 511.191 261.219C508.882 257.815 505.508 255.095 501.687 253.565C501.357 253.434 501.199 253.061 501.33 252.732C501.462 252.402 501.838 252.245 502.165 252.376C506.22 254.002 509.802 256.888 512.254 260.502C513.722 262.664 514.37 264.602 514.239 266.424C514.087 268.563 512.426 270.95 510.015 271.075C510.003 271.075 509.991 271.075 509.98 271.075H509.985Z" fill="black"/>
<path d="M648.812 220.126L651.962 261.895C656.194 264.477 676.847 269.28 676.847 269.28C648.774 277.437 619.554 276.959 589.412 269.522C589.412 269.522 615.593 264.908 618.574 262.026L620.264 229.743L648.809 220.126H648.812Z" fill="white"/>
<path d="M653.815 212.161C651.065 211.027 648.041 212.132 645.793 213.825C644.71 214.641 644.083 215.932 642.609 215.684C641.444 215.489 640.504 214.262 640.238 213.181C639.859 211.639 640.323 210.033 640.784 208.515C641.692 205.516 642.6 202.52 643.508 199.521C643.832 198.451 644.15 197.256 643.659 196.251C642.93 194.744 640.916 194.532 639.243 194.424C630.375 193.847 621.72 190.399 614.892 184.722C601.4 204.51 596.231 237.968 608.102 242.636C627.213 250.153 639.879 230.53 641.569 229.393C642.781 228.577 644.351 228.627 645.811 228.551C648.625 228.405 651.465 227.656 653.754 226.019C656.045 224.381 657.726 221.778 657.867 218.969C658.007 216.159 656.419 213.236 653.815 212.164V212.161Z" fill="white"/>
<path d="M616.719 244.976C613.946 244.976 610.988 244.457 607.865 243.23C605.145 242.161 603.171 239.704 602.007 235.927C598.221 223.66 603.991 199.561 614.36 184.357C614.462 184.208 614.623 184.109 614.801 184.083C614.979 184.057 615.163 184.109 615.3 184.226C622.028 189.821 630.546 193.214 639.283 193.782C640.786 193.881 643.3 194.044 644.234 195.968C644.812 197.157 644.493 198.465 644.117 199.704L641.393 208.698C640.979 210.065 640.509 211.612 640.856 213.026C641.066 213.885 641.837 214.902 642.71 215.048C643.408 215.165 643.807 214.812 644.502 214.121C644.777 213.847 645.063 213.565 645.401 213.311C648.3 211.128 651.455 210.493 654.056 211.565C656.794 212.693 658.665 215.818 658.505 218.994C658.362 221.856 656.724 224.674 654.123 226.534C651.934 228.099 649.068 229.017 645.839 229.186L645.27 229.212C644.015 229.265 642.83 229.311 641.922 229.92C641.752 230.034 641.201 230.672 640.667 231.29C637.444 235.023 628.862 244.973 616.713 244.973L616.719 244.976ZM615.028 185.659C605.092 200.616 599.59 223.748 603.233 235.548C604.278 238.932 605.994 241.114 608.335 242.035C624.299 248.316 635.485 235.338 639.7 230.454C640.529 229.492 640.909 229.058 641.209 228.857C642.421 228.043 643.91 227.982 645.223 227.93L645.778 227.904C648.761 227.749 651.391 226.913 653.382 225.49C655.665 223.858 657.104 221.404 657.226 218.93C657.361 216.275 655.822 213.676 653.569 212.749C650.486 211.478 647.375 213.434 646.178 214.334C645.909 214.535 645.667 214.777 645.413 215.031C644.698 215.742 643.883 216.546 642.503 216.316C641.026 216.068 639.931 214.629 639.613 213.332C639.181 211.577 639.73 209.773 640.167 208.325L642.891 199.331C643.206 198.293 643.457 197.3 643.081 196.524C642.517 195.367 640.856 195.163 639.201 195.058C630.432 194.49 621.877 191.156 615.031 185.659H615.028Z" fill="black"/>
<path d="M642.848 223.645C642.635 223.645 642.425 223.537 642.302 223.341C642.115 223.041 642.206 222.645 642.507 222.458C644.783 221.045 647.498 220.462 650.154 220.818C650.505 220.864 650.753 221.188 650.706 221.537C650.659 221.887 650.344 222.132 649.985 222.088C647.662 221.776 645.18 222.307 643.19 223.545C643.084 223.613 642.968 223.642 642.851 223.642L642.848 223.645Z" fill="black"/>
<path d="M276.87 410.819H201.272C200.916 410.819 200.63 410.533 200.63 410.177C200.63 409.822 200.916 409.536 201.272 409.536H276.228V330.923C276.228 330.568 276.514 330.282 276.87 330.282H382.297V270.103C382.297 269.748 382.584 269.462 382.94 269.462C383.296 269.462 383.582 269.748 383.582 270.103V330.923C383.582 331.279 383.296 331.565 382.94 331.565H277.512V410.177C277.512 410.533 277.226 410.819 276.87 410.819Z" fill="black"/>
<path d="M503.504 161.185C503.147 161.185 502.861 160.899 502.861 160.543V145.374C502.861 145.018 503.147 144.733 503.504 144.733H582.292V79.7798C582.292 79.4243 582.578 79.1387 582.934 79.1387H759.198C759.555 79.1387 759.841 79.4243 759.841 79.7798C759.841 80.1354 759.555 80.421 759.198 80.421H583.576V145.374C583.576 145.73 583.29 146.015 582.934 146.015H504.146V160.543C504.146 160.899 503.86 161.185 503.504 161.185Z" fill="black"/>
<path d="M676.516 44.0534L736.946 22.3499L676.516 0.643555V44.0534Z" fill="#D6E1FF"/>
<path d="M673.334 80.4168C672.977 80.4168 672.691 80.1312 672.691 79.7756V0.641166C672.691 0.28561 672.977 0 673.334 0C673.69 0 673.976 0.28561 673.976 0.641166V79.7785C673.976 80.1341 673.69 80.4197 673.334 80.4197V80.4168Z" fill="black"/>
<path d="M445.145 421.687C444.608 421.777 444.088 421.905 443.58 422.054C441.411 417.044 438.53 412.463 435.071 408.42C435.43 408.03 435.775 407.622 436.09 407.179C440.337 401.251 438.965 393.006 433.028 388.769C427.09 384.528 418.832 385.898 414.588 391.826C414.273 392.269 413.996 392.726 413.742 393.19C408.794 391.228 403.519 389.987 398.069 389.559C398.046 389.028 398.002 388.498 397.912 387.961C396.715 380.772 389.908 375.91 382.706 377.105C375.505 378.3 370.636 385.097 371.833 392.286C371.923 392.823 372.052 393.341 372.201 393.849C367.183 396.014 362.594 398.89 358.545 402.344C358.154 401.986 357.745 401.642 357.302 401.327C351.364 397.086 343.106 398.456 338.862 404.384C334.615 410.312 335.987 418.557 341.924 422.794C342.368 423.109 342.826 423.386 343.29 423.639C341.326 428.579 340.082 433.846 339.653 439.287C339.122 439.31 338.59 439.354 338.053 439.444C330.852 440.639 325.983 447.435 327.18 454.625C328.377 461.815 335.184 466.676 342.385 465.481C342.922 465.391 343.442 465.263 343.95 465.114C346.119 470.124 349 474.705 352.459 478.748C352.1 479.138 351.755 479.546 351.44 479.989C347.193 485.917 348.565 494.162 354.502 498.399C360.44 502.64 368.698 501.27 372.942 495.342C373.257 494.899 373.535 494.442 373.788 493.978C378.736 495.94 384.011 497.181 389.461 497.61C389.484 498.14 389.528 498.67 389.619 499.207C390.815 506.396 397.623 511.258 404.824 510.063C412.025 508.868 416.894 502.072 415.697 494.882C415.607 494.345 415.478 493.827 415.33 493.32C420.347 491.154 424.936 488.278 428.985 484.824C429.376 485.183 429.785 485.527 430.228 485.841C436.166 490.082 444.424 488.712 448.668 482.784C452.915 476.856 451.543 468.611 445.606 464.374C445.162 464.059 444.704 463.782 444.24 463.529C446.204 458.589 447.448 453.322 447.877 447.881C448.408 447.858 448.94 447.814 449.477 447.724C456.678 446.529 461.547 439.733 460.35 432.543C459.153 425.353 452.346 420.492 445.145 421.687ZM397.786 467.76C384.414 469.978 371.768 460.952 369.55 447.599C367.329 434.245 376.372 421.623 389.744 419.408C403.119 417.19 415.762 426.216 417.98 439.569C420.202 452.923 411.158 465.545 397.786 467.76Z" fill="white"/>
<path d="M402.65 510.88C395.997 510.88 390.11 506.071 388.983 499.307C388.924 498.96 388.881 498.593 388.851 498.197C383.781 497.745 378.816 496.594 374.072 494.772C373.871 495.113 373.669 495.422 373.465 495.711C369.019 501.915 360.347 503.355 354.129 498.916C347.915 494.478 346.473 485.816 350.918 479.612C351.123 479.326 351.35 479.037 351.61 478.734C348.35 474.844 345.652 470.525 343.586 465.876C343.2 465.975 342.841 466.051 342.491 466.109C334.951 467.362 327.799 462.253 326.547 454.726C325.295 447.198 330.409 440.057 337.949 438.807C338.296 438.749 338.664 438.705 339.061 438.676C339.514 433.614 340.667 428.653 342.491 423.92C342.149 423.719 341.84 423.518 341.551 423.314C335.333 418.876 333.894 410.214 338.34 404.009C342.786 397.805 351.458 396.365 357.676 400.804C357.965 401.008 358.254 401.238 358.555 401.494C362.451 398.239 366.78 395.546 371.433 393.483C371.334 393.098 371.258 392.739 371.2 392.39C369.948 384.862 375.062 377.722 382.602 376.471C390.147 375.218 397.293 380.327 398.546 387.855C398.604 388.202 398.648 388.569 398.677 388.965C403.747 389.417 408.713 390.568 413.456 392.39C413.658 392.049 413.859 391.74 414.063 391.451C416.218 388.447 419.414 386.456 423.066 385.85C426.717 385.241 430.387 386.095 433.399 388.245C439.617 392.684 441.056 401.346 436.61 407.55C436.406 407.836 436.175 408.127 435.918 408.428C439.179 412.318 441.876 416.64 443.943 421.286C444.328 421.187 444.684 421.111 445.037 421.053C452.58 419.802 459.729 424.908 460.981 432.436C462.234 439.964 457.119 447.104 449.58 448.355C449.229 448.413 448.867 448.457 448.467 448.486C448.015 453.551 446.862 458.508 445.037 463.241C445.379 463.443 445.688 463.644 445.977 463.848C452.195 468.286 453.634 476.948 449.188 483.153C444.743 489.357 436.067 490.797 429.853 486.358C429.564 486.154 429.275 485.924 428.974 485.668C425.077 488.923 420.748 491.616 416.098 493.679C416.197 494.064 416.273 494.423 416.331 494.772C417.584 502.3 412.47 509.44 404.93 510.691C404.165 510.819 403.403 510.88 402.65 510.88ZM373.789 493.333C373.868 493.333 373.95 493.347 374.026 493.376C378.979 495.341 384.19 496.547 389.511 496.967C389.835 496.993 390.089 497.255 390.104 497.579C390.13 498.147 390.177 498.645 390.253 499.1C391.388 505.931 397.877 510.565 404.719 509.429C411.559 508.295 416.2 501.816 415.065 494.985C414.989 494.527 414.872 494.041 414.714 493.499C414.624 493.187 414.778 492.857 415.076 492.729C419.977 490.616 424.516 487.792 428.568 484.336C428.813 484.126 429.181 484.132 429.418 484.35C429.835 484.732 430.223 485.05 430.6 485.321C436.242 489.349 444.112 488.043 448.143 482.412C452.177 476.782 450.87 468.925 445.23 464.897C444.854 464.629 444.427 464.366 443.928 464.092C443.642 463.938 443.52 463.594 443.639 463.294C445.607 458.351 446.815 453.149 447.236 447.833C447.262 447.51 447.524 447.256 447.846 447.241C448.429 447.215 448.914 447.169 449.369 447.093C456.212 445.959 460.853 439.48 459.717 432.649C458.582 425.818 452.087 421.184 445.251 422.32C444.792 422.396 444.319 422.507 443.762 422.67C443.449 422.761 443.12 422.606 442.991 422.309C440.872 417.416 438.043 412.884 434.584 408.839C434.374 408.594 434.38 408.227 434.599 407.99C434.981 407.574 435.299 407.186 435.571 406.81C439.605 401.18 438.297 393.319 432.655 389.295C429.923 387.342 426.592 386.57 423.279 387.121C419.966 387.671 417.064 389.475 415.111 392.203C414.84 392.582 414.577 393.008 414.306 393.5C414.151 393.786 413.809 393.908 413.506 393.789C408.552 391.824 403.342 390.618 398.02 390.198C397.696 390.172 397.442 389.91 397.428 389.586C397.401 389.018 397.355 388.519 397.279 388.065C396.143 381.233 389.654 376.602 382.812 377.736C375.973 378.87 371.331 385.349 372.467 392.18C372.543 392.637 372.659 393.124 372.817 393.666C372.908 393.978 372.753 394.307 372.455 394.436C367.554 396.549 363.015 399.373 358.963 402.829C358.718 403.039 358.35 403.033 358.114 402.814C357.696 402.433 357.308 402.115 356.932 401.844C351.292 397.816 343.419 399.122 339.388 404.753C335.354 410.383 336.662 418.24 342.301 422.268C342.678 422.536 343.104 422.798 343.603 423.072C343.889 423.227 344.012 423.571 343.892 423.871C341.925 428.817 340.716 434.019 340.296 439.332C340.27 439.655 340.007 439.909 339.683 439.923C339.114 439.95 338.614 439.996 338.159 440.072C331.32 441.206 326.678 447.687 327.814 454.516C328.949 461.347 335.447 465.981 342.281 464.844C342.739 464.769 343.224 464.652 343.77 464.495C344.085 464.404 344.412 464.559 344.54 464.856C346.659 469.749 349.488 474.284 352.947 478.326C353.157 478.571 353.151 478.938 352.932 479.174C352.541 479.6 352.232 479.976 351.96 480.355C347.926 485.985 349.234 493.843 354.874 497.87C360.513 501.898 368.383 500.592 372.417 494.962C372.689 494.583 372.951 494.157 373.223 493.665C373.34 493.452 373.558 493.33 373.786 493.33L373.789 493.333ZM393.712 468.738C388.501 468.738 383.434 467.123 379.111 464.04C373.637 460.132 370.018 454.332 368.914 447.705C366.637 434.025 375.935 421.047 389.637 418.777C396.275 417.675 402.945 419.222 408.418 423.131C413.891 427.039 417.511 432.839 418.614 439.466C420.888 453.146 411.594 466.124 397.892 468.394C396.496 468.624 395.098 468.741 393.712 468.741V468.738ZM397.682 467.126C410.686 464.97 419.507 452.653 417.347 439.673C415.187 426.689 402.848 417.882 389.85 420.039C376.845 422.195 368.024 434.511 370.184 447.492C372.344 460.476 384.683 469.283 397.682 467.126Z" fill="black"/>
<path d="M342.337 372.015C342.165 372.044 342.002 372.085 341.838 372.131C341.149 370.537 340.23 369.08 339.132 367.795C339.246 367.669 339.357 367.541 339.456 367.401C340.808 365.516 340.37 362.893 338.481 361.543C336.593 360.194 333.965 360.631 332.614 362.517C332.515 362.657 332.424 362.802 332.345 362.951C330.772 362.327 329.094 361.931 327.36 361.794C327.351 361.625 327.339 361.456 327.31 361.287C326.931 358.999 324.765 357.451 322.473 357.833C320.182 358.212 318.632 360.375 319.014 362.662C319.043 362.831 319.084 362.998 319.131 363.161C317.534 363.849 316.075 364.764 314.787 365.862C314.662 365.749 314.533 365.638 314.393 365.539C312.505 364.19 309.877 364.627 308.526 366.512C307.174 368.398 307.612 371.021 309.501 372.37C309.641 372.469 309.787 372.557 309.936 372.638C309.311 374.209 308.914 375.885 308.777 377.616C308.608 377.625 308.438 377.637 308.269 377.666C305.978 378.045 304.428 380.207 304.81 382.495C305.189 384.783 307.355 386.33 309.647 385.948C309.819 385.919 309.982 385.878 310.146 385.832C310.835 387.426 311.751 388.883 312.852 390.168C312.738 390.294 312.627 390.422 312.528 390.562C311.176 392.447 311.614 395.07 313.503 396.42C315.392 397.769 318.019 397.332 319.37 395.446C319.469 395.306 319.56 395.161 319.639 395.012C321.212 395.636 322.891 396.032 324.624 396.169C324.633 396.338 324.645 396.507 324.674 396.676C325.054 398.964 327.22 400.512 329.511 400.13C331.802 399.751 333.352 397.588 332.97 395.301C332.941 395.129 332.9 394.965 332.853 394.802C334.45 394.114 335.91 393.199 337.197 392.101C337.322 392.214 337.451 392.325 337.591 392.424C339.48 393.773 342.107 393.336 343.458 391.451C344.81 389.565 344.372 386.942 342.483 385.593C342.343 385.494 342.197 385.406 342.048 385.325C342.673 383.754 343.07 382.078 343.207 380.347C343.377 380.338 343.546 380.327 343.715 380.297C346.007 379.918 347.557 377.756 347.174 375.468C346.795 373.18 344.629 371.633 342.337 372.015ZM327.269 386.674C323.013 387.379 318.991 384.509 318.284 380.259C317.578 376.01 320.453 371.994 324.709 371.289C328.965 370.584 332.988 373.454 333.694 377.704C334.4 381.953 331.525 385.969 327.269 386.674Z" fill="#5479F7"/>
<path d="M132.518 87.0176L128.195 115.873L125.758 116.007C125.758 116.007 131.295 133.24 145.71 135.621C160.124 138.002 160.941 115.876 160.941 115.876L150.555 114.532L153.054 94.3793L132.518 87.0205V87.0176Z" fill="white"/>
<path d="M150.17 118.27C150.144 118.27 150.117 118.27 150.091 118.264C149.741 118.22 149.49 117.9 149.534 117.55L152.353 94.8062L133.038 87.8816L128.832 115.965C128.779 116.314 128.461 116.55 128.102 116.504C127.752 116.451 127.509 116.125 127.562 115.775L131.885 86.9199C131.914 86.7304 132.025 86.5643 132.191 86.4652C132.355 86.3662 132.556 86.3487 132.737 86.4128L153.273 93.7745C153.556 93.8765 153.731 94.1592 153.693 94.4565L150.812 117.71C150.771 118.034 150.497 118.273 150.176 118.273L150.17 118.27Z" fill="black"/>
<path d="M155.348 115.526C155.331 115.526 155.316 115.526 155.299 115.526L150.505 115.168C150.152 115.142 149.887 114.835 149.913 114.48C149.939 114.127 150.252 113.856 150.602 113.888L155.395 114.247C155.748 114.273 156.014 114.579 155.987 114.935C155.961 115.273 155.681 115.529 155.348 115.529V115.526Z" fill="black"/>
<path d="M164.606 61.1136C166.874 58.7558 168.354 55.5412 168.199 52.2742C168.015 48.3602 165.47 44.7726 162.084 42.7937C158.695 40.8148 154.579 40.3223 150.691 40.8469C146.8 41.3715 143.101 42.8549 139.596 44.6152C136.072 46.3842 132.648 48.4884 129.974 51.3853C127.303 54.2822 125.429 58.0651 125.447 62.0054C123.582 61.915 122.078 63.5179 121.159 65.1412C118.59 69.676 118.429 75.4844 120.747 80.1504C123.065 84.8163 127.794 88.2086 132.963 88.9081C139 89.727 145.18 86.9496 149.336 82.5023C152.728 78.8738 154.877 74.2545 156.088 69.4779C156.663 67.2046 156.403 66.1205 158.634 65.115C160.843 64.1154 162.916 62.868 164.609 61.1077L164.606 61.1136Z" fill="white"/>
<path d="M135.053 89.6908C134.321 89.6908 133.591 89.6442 132.873 89.5451C127.464 88.8107 122.595 85.3192 120.169 80.4347C117.743 75.5502 117.907 69.5699 120.595 64.8252C121.734 62.8201 123.24 61.6019 124.813 61.3921C124.968 57.7608 126.617 54.077 129.501 50.9498C132.558 47.6362 136.56 45.4183 139.306 44.0398C143.589 41.889 147.179 40.6708 150.606 40.2103C154.97 39.6245 159.162 40.3444 162.411 42.2416C166.194 44.4507 168.66 48.2832 168.844 52.2438C168.996 55.5109 167.621 58.9061 165.073 61.5553C163.517 63.1728 161.497 64.528 158.899 65.7025C157.396 66.3815 157.276 66.979 156.981 68.4245C156.908 68.7888 156.827 69.1939 156.713 69.6398C155.347 75.0285 153.023 79.5021 149.806 82.944C145.807 87.2194 140.322 89.6908 135.059 89.6908H135.053ZM125.292 62.6424C123.503 62.6424 122.198 64.6008 121.71 65.4577C119.229 69.838 119.077 75.3579 121.316 79.8664C123.555 84.375 128.048 87.5983 133.045 88.2744C138.524 89.0205 144.587 86.6424 148.863 82.0668C151.931 78.7852 154.15 74.4981 155.463 69.3251C155.571 68.8996 155.65 68.5149 155.72 68.168C156.039 66.6088 156.266 65.4839 158.368 64.5338C160.849 63.4147 162.682 62.1848 164.145 60.6664C166.451 58.2679 167.697 55.2194 167.56 52.3021C167.397 48.7699 165.172 45.3367 161.76 43.3462C158.756 41.5946 154.856 40.9302 150.775 41.481C147.497 41.924 144.035 43.1014 139.882 45.1852C137.225 46.52 133.357 48.6562 130.444 51.8183C127.619 54.8813 126.071 58.4981 126.086 62.0012C126.086 62.1761 126.016 62.3451 125.888 62.4675C125.762 62.5899 125.584 62.6569 125.412 62.6453C125.371 62.6453 125.333 62.6424 125.292 62.6424Z" fill="black"/>
<path d="M133.957 83.6219C132.935 82.1735 130.617 82.0948 129.219 83.1848C127.821 84.2748 127.275 86.1895 127.409 87.9556C127.59 90.3396 128.959 92.6565 131.084 93.7582C133.21 94.8598 136.038 94.58 137.755 92.9101C142.224 96.0314 147.892 97.3895 153.293 96.6318C156.328 96.2063 159.411 95.0347 161.343 92.6565C162.689 90.9983 163.369 88.8737 163.565 86.7491C163.76 84.6245 163.495 82.4824 163.118 80.3811C162.032 74.325 160.006 68.4351 157.137 62.991C156.673 62.1108 156.171 61.2219 155.403 60.5866C154.32 59.689 152.852 59.4179 151.451 59.3072C148.246 59.0536 144.947 59.4937 142.057 60.9014C139.17 62.309 136.727 64.7367 135.612 67.7473C134.544 70.6325 134.739 73.8587 135.53 76.8314C136.333 79.8478 138 82.9575 140.933 84.0387L133.957 83.6219Z" fill="white"/>
<path d="M150.324 97.4798C145.902 97.4798 141.485 96.1683 137.802 93.7202C135.913 95.2299 133.049 95.5009 130.787 94.3264C128.548 93.1665 126.972 90.6834 126.768 88.0022C126.601 85.8018 127.369 83.8113 128.823 82.6805C129.713 81.9869 130.936 81.678 132.089 81.847C133.096 81.9956 133.945 82.4969 134.48 83.2547C134.684 83.5432 134.614 83.9424 134.325 84.1494C134.036 84.3534 133.636 84.2834 133.429 83.9949C133.099 83.5286 132.556 83.2168 131.899 83.1177C131.094 82.9982 130.218 83.2197 129.611 83.6918C128.297 84.7148 127.941 86.5392 128.046 87.9089C128.218 90.1588 129.526 92.231 131.377 93.1927C133.33 94.204 135.82 93.8951 137.302 92.4554C137.524 92.2397 137.869 92.2135 138.117 92.3883C142.457 95.4193 147.957 96.7366 153.197 96.0022C155.564 95.6699 158.813 94.7519 160.839 92.2572C162.304 90.4561 162.777 88.2383 162.92 86.6965C163.121 84.5137 162.809 82.3395 162.482 80.5005C162.269 79.3056 162.018 78.1166 161.732 76.9392C159.388 76.5312 157.272 77.6124 155.328 78.851C154.361 79.4689 153.421 80.18 152.511 80.8707C151.343 81.7566 150.137 82.6718 148.83 83.4237C147.16 84.3796 143.885 85.8135 140.709 84.6448C137.075 83.3071 135.513 79.2823 134.906 77.0004C133.975 73.4973 134.01 70.2244 135.005 67.5286C136.123 64.5035 138.59 61.8805 141.771 60.3301C144.571 58.9632 147.931 58.392 151.495 58.6718C152.829 58.7767 154.525 59.0361 155.806 60.0969C156.662 60.8051 157.21 61.7698 157.698 62.6965C160.611 68.2164 162.643 74.1297 163.743 80.2703C164.088 82.1938 164.412 84.4729 164.199 86.8102C163.974 89.2758 163.156 91.4383 161.837 93.0616C159.549 95.8798 155.973 96.9027 153.378 97.267C152.365 97.4098 151.343 97.4798 150.324 97.4798ZM149.741 59.8812C147.029 59.8812 144.495 60.4233 142.335 61.4783C139.448 62.886 137.215 65.2525 136.211 67.9687C135.306 70.4138 135.285 73.4215 136.146 76.6652C136.689 78.7053 138.061 82.2987 141.153 83.4353C143.838 84.4233 146.713 83.1497 148.19 82.3046C149.428 81.5934 150.602 80.7046 151.734 79.8448C152.665 79.1395 153.626 78.408 154.639 77.7639C156.559 76.5399 158.833 75.3567 161.39 75.5956C160.249 71.3319 158.632 67.2109 156.565 63.2911C156.119 62.443 155.663 61.6386 154.989 61.082C153.982 60.2485 152.54 60.0386 151.396 59.9483C150.838 59.9046 150.286 59.8812 149.743 59.8812H149.741Z" fill="black"/>
<path d="M132.647 90.3843C132.46 90.3843 132.273 90.3027 132.148 90.1482C131.926 89.8713 131.967 89.4691 132.241 89.2447C133.596 88.1489 135.525 87.8429 137.154 88.4637C137.484 88.589 137.65 88.9591 137.525 89.2914C137.399 89.6207 137.025 89.7897 136.696 89.6615C135.505 89.2098 134.039 89.44 133.05 90.2415C132.93 90.3376 132.787 90.3843 132.647 90.3843Z" fill="black"/>
<path d="M181.854 196.587C181.728 198.437 168.21 507.485 168.21 507.485L181.693 524.735C184.221 527.97 181.912 532.694 177.802 532.694H12.0929C4.38952 532.694 -1.10999 525.251 1.15812 517.904L100.467 196.543L181.851 196.587H181.854Z" fill="white"/>
<path d="M177.8 533.334H12.0937C8.21719 533.334 4.67345 531.548 2.37031 528.432C0.0671754 525.317 -0.595451 521.411 0.545901 517.71L99.8552 196.352C99.9369 196.084 100.188 195.9 100.468 195.9L181.852 195.944C182.03 195.944 182.199 196.017 182.319 196.148C182.441 196.276 182.502 196.451 182.491 196.629C182.371 198.43 169.297 497.219 168.859 507.277L182.196 524.34C183.518 526.031 183.755 528.281 182.812 530.21C181.869 532.139 179.948 533.337 177.8 533.337V533.334ZM100.944 197.183L1.77482 518.089C0.753154 521.394 1.34864 524.888 3.40366 527.672C5.4616 530.455 8.62877 532.052 12.0937 532.052H177.8C179.478 532.052 180.92 531.151 181.659 529.645C182.394 528.138 182.219 526.448 181.186 525.127L167.703 507.877C167.609 507.758 167.56 507.606 167.569 507.454C168.106 495.15 180.45 213.037 181.18 197.224L100.944 197.183Z" fill="black"/>
<path d="M112.8 532.804H76.8727C76.5165 532.804 76.2305 532.519 76.2305 532.163C76.2305 531.808 76.5165 531.522 76.8727 531.522H112.8C114.984 531.522 116.257 530.076 116.718 528.721C117.179 527.366 117.056 525.445 115.325 524.116L94.3637 507.994C94.1622 507.84 94.0718 507.583 94.1301 507.338L155.054 253.055C156.119 248.608 159.73 245.276 164.258 244.568L164.961 244.457C165.308 244.405 165.638 244.641 165.697 244.991C165.752 245.341 165.513 245.67 165.162 245.725L164.459 245.836C160.451 246.463 157.249 249.415 156.306 253.355L95.4787 507.233L116.111 523.102C117.979 524.539 118.694 526.908 117.935 529.138C117.173 531.367 115.159 532.807 112.8 532.807V532.804Z" fill="black"/>
<path d="M94.7572 508.123H9.6754C9.32219 508.123 9.0332 507.838 9.0332 507.482C9.0332 507.126 9.31927 506.841 9.6754 506.841H94.7601C95.1162 506.841 95.4023 507.126 95.4023 507.482C95.4023 507.838 95.1162 508.123 94.7601 508.123H94.7572Z" fill="black"/>
<path d="M168.212 508.123H99.401C99.0449 508.123 98.7588 507.838 98.7588 507.482C98.7588 507.126 99.0449 506.841 99.401 506.841H168.212C168.568 506.841 168.854 507.126 168.854 507.482C168.854 507.838 168.568 508.123 168.212 508.123Z" fill="black"/>
<path d="M174.574 114.657C169.314 114.488 164.054 114.5 158.793 114.59C158.65 115.61 158.464 116.627 158.204 117.624C157.497 120.317 156.233 122.99 153.977 124.718C151.417 126.676 148.098 126.976 144.995 126.557C137.461 125.534 131.138 121.171 125.761 116.004C101.819 118.16 82.0718 122.893 81.7857 123.403C81.4588 123.983 90.7998 151.288 94.7317 163.328C97.68 162.442 100.628 161.556 103.579 160.673C101.711 172.368 99.843 185.535 97.9748 197.231C126.582 197.72 155.191 196.741 183.798 197.231C185.736 181.49 186.667 169.588 186.586 153.728C192.941 153.538 197.351 152.847 202.67 153.081C205.446 142.184 206.829 128.355 207.04 117.111C207.057 116.103 177.332 114.745 174.577 114.654L174.574 114.657Z" fill="#5479F7"/>
<path d="M107.059 211.714C108.498 211.659 109.587 210.231 109.736 208.802C109.885 207.371 109.325 205.97 108.703 204.673C104.628 196.154 86.6055 178.656 73.9105 170.837C73.9105 170.837 84.7957 163.997 93.7455 160.351L82.3086 125.588C70.5624 129.691 62.5962 135.031 53.3136 143.302C49.0868 147.067 45.1198 151.325 42.8517 156.507C39.5269 164.096 40.245 173.09 43.7275 180.606C47.2099 188.125 53.2407 194.26 60.1005 198.923C66.9573 203.586 74.649 206.879 82.4021 209.825C82.4021 209.825 88.6576 221.914 90.3886 222.343C92.9282 222.969 94.6388 221.031 91.4161 209.318C91.4161 209.318 95.6546 217.907 97.479 219.143C100.67 221.305 103.043 217.534 101.904 214.276C101.904 214.276 103.232 216.66 105.328 216.246C107.421 215.832 107.062 211.72 107.062 211.72L107.059 211.714Z" fill="white"/>
<path d="M91.1706 223.089C90.8787 223.089 90.5663 223.048 90.2336 222.966C88.4529 222.526 83.9313 214.162 81.9434 210.338C74.9319 207.666 66.8432 204.285 59.7382 199.453C52.1077 194.265 46.3718 187.842 43.1462 180.877C39.3923 172.769 39.0625 163.562 42.2647 156.25C44.7867 150.488 49.2675 146.05 52.8871 142.823C61.3466 135.284 69.555 129.368 82.0981 124.984C82.4338 124.868 82.7987 125.043 82.9155 125.378C83.0322 125.713 82.8571 126.077 82.5214 126.194C70.1359 130.519 62.3274 136.129 53.7424 143.779C50.2191 146.918 45.8639 151.231 43.4411 156.763C40.3819 163.746 40.7088 172.559 44.3109 180.337C47.4402 187.093 53.0243 193.336 60.4621 198.392C67.535 203.201 75.6383 206.567 82.6323 209.225C82.7812 209.28 82.9009 209.391 82.9739 209.531C85.8579 215.1 89.5739 221.346 90.5547 221.725C91.407 221.934 91.7515 221.707 91.9354 221.521C92.5688 220.874 93.2606 218.449 90.7999 209.487C90.7123 209.169 90.8816 208.834 91.191 208.718C91.5034 208.598 91.8478 208.735 91.9967 209.032C93.608 212.294 96.6175 217.779 97.8435 218.609C98.7981 219.256 99.6826 219.309 100.398 218.761C101.329 218.047 101.921 216.251 101.303 214.482C101.192 214.168 101.343 213.824 101.647 213.687C101.954 213.55 102.31 213.669 102.47 213.961C102.479 213.978 103.609 215.928 105.208 215.613C106.478 215.362 106.493 212.518 106.426 211.772C106.411 211.597 106.466 211.425 106.583 211.291C106.7 211.16 106.863 211.081 107.042 211.075C108.168 211.032 108.991 209.828 109.105 208.738C109.237 207.473 108.714 206.17 108.13 204.949C104.157 196.646 86.0768 179.078 73.5803 171.384C73.3935 171.268 73.2768 171.064 73.2768 170.842C73.2768 170.621 73.3877 170.414 73.5774 170.297C73.6883 170.23 84.6115 163.384 93.5117 159.762C93.8415 159.628 94.2152 159.785 94.3494 160.111C94.4837 160.441 94.3261 160.814 93.9991 160.948C86.6548 163.938 77.8918 169.161 75.1362 170.842C87.9596 179.017 105.258 195.958 109.292 204.396C109.958 205.786 110.55 207.29 110.384 208.869C110.232 210.326 109.225 211.862 107.736 212.259C107.76 213.567 107.567 216.455 105.459 216.872C104.394 217.079 103.507 216.726 102.832 216.237C102.768 217.671 102.178 219.014 101.183 219.778C100.021 220.67 98.5412 220.629 97.1255 219.67C96.1242 218.991 94.5654 216.496 93.246 214.15C94.3815 219.912 93.6226 221.634 92.8607 222.415C92.4229 222.864 91.8595 223.089 91.1764 223.089H91.1706Z" fill="black"/>
<path d="M101.572 214.104C101.289 214.104 101.029 213.914 100.954 213.629C100.049 210.271 98.7409 207.025 97.0683 203.979C96.899 203.667 97.0099 203.28 97.3223 203.108C97.6317 202.939 98.0228 203.052 98.1951 203.361C99.9173 206.497 101.266 209.837 102.194 213.293C102.288 213.634 102.083 213.987 101.742 214.08C101.686 214.095 101.631 214.104 101.575 214.104H101.572Z" fill="black"/>
<path d="M106.805 211.833C106.519 211.833 106.256 211.638 106.183 211.349C105.147 207.214 103.416 203.32 101.04 199.776C100.842 199.482 100.92 199.083 101.218 198.888C101.51 198.689 101.913 198.768 102.108 199.065C104.566 202.732 106.356 206.759 107.43 211.041C107.517 211.384 107.307 211.731 106.963 211.819C106.91 211.833 106.858 211.839 106.805 211.839V211.833Z" fill="black"/>
<path d="M72.8911 170.473C72.7831 170.473 72.6721 170.446 72.5729 170.388C70.3602 169.117 68.0162 168.042 65.6109 167.191C65.2782 167.071 65.103 166.707 65.2198 166.372C65.3395 166.04 65.7073 165.865 66.04 165.981C68.5183 166.859 70.9324 167.966 73.2122 169.275C73.5187 169.452 73.6267 169.843 73.4486 170.149C73.3289 170.356 73.1129 170.47 72.8911 170.47V170.473Z" fill="black"/>
<path d="M170.187 62.157C168.357 62.2327 166.912 63.7336 166.912 65.5639C166.912 67.3941 168.357 68.895 170.187 68.9708L253.521 72.3719V58.7559L170.187 62.157Z" fill="black"/>
<path d="M170.188 62.1555V68.9694L289.77 78.2197V52.9053L170.188 62.1555Z" fill="black"/>
<path d="M292.95 51.3872L289.769 51.9701V79.1555L292.95 79.7384C294.217 79.9715 295.408 79.1176 295.408 77.9752V53.1504C295.408 52.0079 294.22 51.154 292.95 51.3872Z" fill="black"/>
<path d="M207.037 117.114L213.75 116.173C213.75 116.173 211.754 101.618 208.414 93.2453C205.075 84.8722 201.029 75.9746 203.396 67.7152C205.767 59.4558 208.598 57.8034 210.931 57.5411C213.263 57.2759 213.263 61.9505 212.323 65.4478C211.383 68.9451 212.91 71.1833 212.91 71.1833L231.192 73.6897C231.192 73.6897 240.028 93.05 241.998 107.759C243.971 122.468 247.889 142.56 203.828 147.963C203.828 147.963 207.676 126.009 207.034 117.117L207.037 117.114Z" fill="white"/>
<path d="M203.829 148.603C203.508 148.603 203.234 148.364 203.193 148.04C203.149 147.688 203.4 147.37 203.751 147.326C221.245 145.181 232.468 140.614 238.064 133.366C243.821 125.911 242.597 116.92 241.517 108.99L241.363 107.845C239.562 94.4242 231.902 76.8592 230.752 74.277L212.823 71.8202C212.642 71.7969 212.482 71.6949 212.379 71.5462C212.309 71.4442 210.698 69.0195 211.702 65.2832C212.47 62.4271 212.447 59.3524 211.653 58.4315C211.474 58.2246 211.279 58.1488 211.004 58.1808C209.139 58.3936 206.387 59.6293 204.016 67.8945C201.882 75.3291 205.123 83.3612 208.258 91.1309C208.512 91.7604 208.766 92.387 209.014 93.0107C212.344 101.36 214.37 115.941 214.391 116.087C214.437 116.437 214.195 116.76 213.842 116.81L207.128 117.751C206.772 117.801 206.454 117.556 206.404 117.206C206.354 116.856 206.6 116.533 206.95 116.483L213.027 115.632C212.601 112.75 210.704 100.708 207.823 93.4887C207.575 92.865 207.321 92.2413 207.07 91.6118C203.856 83.641 200.531 75.402 202.787 67.5448C205.371 58.5422 208.634 57.1637 210.864 56.9102C211.562 56.8286 212.175 57.0675 212.63 57.598C213.926 59.1018 213.705 62.8089 212.949 65.6184C212.26 68.183 212.992 69.9783 213.313 70.5961L231.286 73.0588C231.505 73.0879 231.692 73.2278 231.782 73.4289C231.87 73.6242 240.68 93.0457 242.641 107.679L242.796 108.821C243.856 116.597 245.172 126.273 239.089 134.153C233.271 141.687 221.764 146.414 203.914 148.603C203.888 148.606 203.862 148.609 203.835 148.609L203.829 148.603Z" fill="black"/>
<path d="M233.463 53.8239C234.844 53.754 236.359 53.9085 237.228 54.9839C238.113 56.0797 238.154 57.6127 238.072 59.0174C237.99 60.4309 237.818 61.8589 237.296 63.1762C236.773 64.4935 235.865 65.7001 234.601 66.3471C233.924 66.6939 233.121 66.8688 232.394 66.6443C231.145 66.2626 230.488 64.8054 230.585 63.5055C230.681 62.2057 231.349 61.0254 232.003 59.8946C230.728 59.7984 229.315 59.8509 228.077 59.5624C228.176 58.9533 230.444 53.9755 233.466 53.8239H233.463Z" fill="white"/>
<path d="M233.082 67.3828C232.778 67.3828 232.486 67.342 232.209 67.2546C230.577 66.7533 229.836 64.9639 229.947 63.4571C230.029 62.3642 230.455 61.3792 230.936 60.4815C230.887 60.4815 230.834 60.4757 230.785 60.4757C229.836 60.4407 228.852 60.3999 227.93 60.1872C227.6 60.1114 227.387 59.7908 227.442 59.4586C227.562 58.73 229.97 53.3588 233.432 53.1839C235.473 53.0819 236.886 53.5366 237.729 54.5799C238.754 55.8477 238.8 57.5526 238.713 59.0535C238.634 60.3825 238.476 61.9387 237.893 63.4105C237.259 65.0047 236.197 66.252 234.895 66.9165C234.29 67.2254 233.669 67.3828 233.082 67.3828ZM228.943 59.0652C229.553 59.1438 230.201 59.1701 230.834 59.1934C231.246 59.208 231.655 59.2254 232.052 59.2546C232.273 59.2721 232.469 59.4003 232.571 59.5927C232.673 59.7879 232.67 60.0211 232.559 60.2134C231.976 61.2247 231.313 62.3701 231.225 63.5504C231.152 64.5413 231.64 65.7391 232.583 66.0276C233.251 66.2316 233.952 65.9548 234.308 65.7712C235.333 65.2466 236.179 64.2411 236.699 62.9355C237.215 61.6327 237.358 60.2018 237.431 58.9748C237.504 57.7187 237.478 56.3081 236.728 55.3814C236.153 54.6703 235.125 54.373 233.497 54.4604C231.401 54.5653 229.579 57.6662 228.943 59.0622V59.0652Z" fill="black"/>
<path d="M232.019 60.4259C231.908 60.4259 231.797 60.3968 231.695 60.3385C231.389 60.1607 231.286 59.7673 231.464 59.4613L232.755 57.2551C232.933 56.9491 233.327 56.847 233.633 57.0248C233.94 57.2026 234.042 57.596 233.864 57.9021L232.574 60.1112C232.454 60.3152 232.241 60.4288 232.019 60.4288V60.4259Z" fill="black"/>
<path d="M228.493 52.5369C230.011 52.4612 231.678 52.6302 232.632 53.8105C233.604 55.0142 233.651 56.7016 233.561 58.2462C233.47 59.8025 233.28 61.3705 232.708 62.8189C232.133 64.2674 231.135 65.5963 229.745 66.3045C229.001 66.6863 228.119 66.8757 227.317 66.6309C225.942 66.2113 225.221 64.6113 225.326 63.1803C225.431 61.7493 226.167 60.4524 226.885 59.2109C225.481 59.106 223.928 59.1614 222.564 58.8466C222.675 58.1792 225.168 52.7031 228.49 52.534L228.493 52.5369Z" fill="white"/>
<path d="M228.071 67.3841C227.744 67.3841 227.426 67.3375 227.129 67.2471C225.365 66.708 224.566 64.7699 224.685 63.1349C224.776 61.9109 225.269 60.8034 225.815 59.798C225.727 59.795 225.637 59.7892 225.546 59.7863C224.504 59.7455 223.427 59.7047 222.42 59.4716C222.09 59.3958 221.877 59.0752 221.933 58.743C222.064 57.9502 224.691 52.0865 228.46 51.8971C230.687 51.7863 232.219 52.2788 233.13 53.4096C234.242 54.7881 234.295 56.6475 234.198 58.2854C234.114 59.7397 233.942 61.4475 233.302 63.0592C232.613 64.7991 231.452 66.1572 230.036 66.8799C229.379 67.2151 228.705 67.387 228.071 67.387V67.3841ZM223.421 58.3524C224.122 58.4515 224.869 58.4777 225.596 58.5069C226.048 58.5244 226.498 58.5419 226.933 58.5739C227.152 58.5914 227.35 58.7196 227.453 58.912C227.555 59.1073 227.552 59.3404 227.441 59.5328C226.796 60.6519 226.063 61.9196 225.967 63.2311C225.885 64.3473 226.437 65.6938 227.505 66.0231C228.261 66.2533 229.049 65.9444 229.452 65.7375C230.591 65.1546 231.536 64.0355 232.111 62.587C232.683 61.1444 232.841 59.5648 232.92 58.2125C233.002 56.8195 232.972 55.2544 232.135 54.2169C231.49 53.4184 230.345 53.0861 228.527 53.1794C226.13 53.2989 224.093 56.8457 223.424 58.3553L223.421 58.3524Z" fill="black"/>
<path d="M226.904 59.7343C226.793 59.7343 226.682 59.7052 226.58 59.6469C226.273 59.4691 226.171 59.0757 226.349 58.7697L227.768 56.342C227.946 56.036 228.34 55.934 228.646 56.1117C228.953 56.2895 229.055 56.683 228.877 56.989L227.458 59.4167C227.339 59.6207 227.126 59.7343 226.904 59.7343Z" fill="black"/>
<path d="M223.41 52.5369C224.931 52.4612 226.595 52.6302 227.549 53.8105C228.521 55.0142 228.568 56.7016 228.478 58.2462C228.387 59.8025 228.197 61.3705 227.625 62.8189C227.05 64.2674 226.052 65.5963 224.662 66.3045C223.918 66.6863 223.036 66.8757 222.234 66.6309C220.859 66.2113 220.138 64.6113 220.243 63.1803C220.348 61.7493 221.084 60.4524 221.802 59.2109C220.398 59.106 218.845 59.1614 217.481 58.8466C217.592 58.1792 220.085 52.7031 223.407 52.534L223.41 52.5369Z" fill="white"/>
<path d="M222.985 67.3841C222.659 67.3841 222.343 67.3375 222.043 67.2471C220.279 66.708 219.48 64.7699 219.599 63.1349C219.69 61.908 220.183 60.8034 220.732 59.798C220.641 59.795 220.554 59.7892 220.463 59.7863C219.421 59.7455 218.344 59.7047 217.337 59.4716C217.007 59.3958 216.794 59.0752 216.85 58.743C216.981 57.9502 219.608 52.0865 223.377 51.8971C225.604 51.7863 227.136 52.2788 228.047 53.4096C229.159 54.7881 229.212 56.6475 229.115 58.2854C229.031 59.7426 228.856 61.4504 228.219 63.0592C227.528 64.7991 226.369 66.1572 224.953 66.8799C224.296 67.2151 223.622 67.387 222.988 67.387L222.985 67.3841ZM218.338 58.3524C219.039 58.4515 219.786 58.4777 220.513 58.5069C220.965 58.5244 221.415 58.5419 221.85 58.5739C222.069 58.5914 222.267 58.7196 222.37 58.912C222.472 59.1073 222.469 59.3404 222.358 59.5328C221.713 60.649 220.98 61.9167 220.884 63.2311C220.802 64.3473 221.354 65.6938 222.422 66.0231C223.178 66.2562 223.966 65.9444 224.369 65.7375C225.508 65.1546 226.45 64.0355 227.028 62.587C227.6 61.1473 227.758 59.5677 227.837 58.2125C227.919 56.8195 227.889 55.2544 227.052 54.2169C226.407 53.4184 225.262 53.0861 223.444 53.1794C221.047 53.2989 219.01 56.8457 218.341 58.3553L218.338 58.3524Z" fill="black"/>
<path d="M218.247 53.8484C219.624 53.7784 221.136 53.9329 222.003 55.0054C222.885 56.0983 222.926 57.6283 222.844 59.0301C222.762 60.4407 222.59 61.8658 222.071 63.1802C221.548 64.4946 220.643 65.6983 219.382 66.3423C218.705 66.6892 217.905 66.8611 217.178 66.6396C215.932 66.2578 215.275 64.8065 215.371 63.5066C215.468 62.2097 216.136 61.0323 216.787 59.9045C215.403 59.9045 214.452 60.0443 213.027 60.0385C213.127 59.4323 215.231 53.997 218.244 53.8454L218.247 53.8484Z" fill="white"/>
<path d="M217.865 67.3839C217.562 67.3839 217.27 67.3431 216.992 67.2557C215.361 66.7573 214.622 64.9708 214.733 63.4641C214.812 62.4091 215.215 61.4531 215.676 60.5788C215.454 60.5905 215.235 60.6021 215.013 60.6138C214.406 60.6488 213.764 60.6808 213.025 60.6837C212.839 60.6837 212.66 60.5992 212.538 60.4564C212.415 60.3136 212.366 60.1242 212.395 59.9377C212.482 59.4131 214.672 53.3861 218.215 53.2083C220.259 53.1063 221.663 53.561 222.504 54.6043C223.525 55.8721 223.575 57.5741 223.487 59.0692C223.408 60.3952 223.251 61.9486 222.67 63.4174C222.037 65.0087 220.974 66.2502 219.678 66.9147C219.074 67.2236 218.455 67.381 217.868 67.381L217.865 67.3839ZM216.788 59.2673C217.016 59.2673 217.229 59.3898 217.343 59.5879C217.459 59.7861 217.459 60.0309 217.343 60.2291C216.759 61.2375 216.099 62.3799 216.012 63.5602C215.939 64.5482 216.426 65.7431 217.366 66.0316C218.032 66.2357 218.732 65.9588 219.088 65.7781C220.107 65.2564 220.954 64.251 221.473 62.9482C221.99 61.6484 222.133 60.2203 222.203 58.9963C222.276 57.7431 222.25 56.3384 221.502 55.4116C220.93 54.7034 219.906 54.4061 218.277 54.4936C216.263 54.5956 214.558 57.8247 213.922 59.3897C214.269 59.3781 214.599 59.3577 214.937 59.3373C215.507 59.3052 216.096 59.2703 216.785 59.2703L216.788 59.2673Z" fill="black"/>
<path d="M216.807 60.4406C216.696 60.4406 216.585 60.4114 216.483 60.3531C216.177 60.1754 216.074 59.7819 216.253 59.4759L217.54 57.2726C217.718 56.9666 218.112 56.8646 218.418 57.0424C218.725 57.2202 218.827 57.6136 218.649 57.9196L217.362 60.1229C217.242 60.3269 217.029 60.4406 216.807 60.4406Z" fill="black"/>
<path d="M334.286 533.335H150.557C150.201 533.335 149.915 533.049 149.915 532.694C149.915 532.338 150.201 532.053 150.557 532.053H334.286C334.642 532.053 334.928 532.338 334.928 532.694C334.928 533.049 334.642 533.335 334.286 533.335Z" fill="black"/>
</g>
<defs>
<clipPath id="clip0_4718_14936">
<rect width="800" height="533.333" fill="white"/>
</clipPath>
</defs>
</svg>
