<svg width="538" height="260" viewBox="0 0 538 260" fill="none" xmlns="http://www.w3.org/2000/svg">
<g clip-path="url(#clip0_137_19356)">
<path fill-rule="evenodd" clip-rule="evenodd" d="M243.827 -27.6815C330.189 -25.8411 427.988 -6.71709 454.264 75.612C480.285 157.141 413.411 232.156 341.596 278.655C282.542 316.892 210.369 309.562 150.834 272.078C71.9158 222.39 -23.7757 155.112 3.86476 66.0138C32.0041 -24.6924 148.921 -29.7039 243.827 -27.6815Z" fill="#F9FBFF"/>
<path fill-rule="evenodd" clip-rule="evenodd" d="M359.58 -37.3243C261.066 -38.4414 129.995 -46.9664 106.452 48.4505C84.0581 139.21 220.432 162.502 296.969 216.435C367.799 266.348 427.641 369.853 503.779 328.437C597.628 277.388 634.711 153.222 595.593 53.9974C561.454 -32.5974 452.867 -36.2664 359.58 -37.3243Z" fill="#EDF4FF"/>
<g clip-path="url(#clip1_137_19356)">
<path d="M288.058 65.6063C309.878 28.5475 351.408 19.4879 367.068 16.0743C420.375 4.4465 499.247 18.4196 537.303 81.5781C570.705 137.011 552.104 196.218 549.412 204.333C544.891 217.945 533.575 250.596 501.49 272.713C451.54 307.143 375.406 299.421 349.353 263.88C337.116 247.186 347.018 239.489 332.765 209.972C313.677 170.44 289.99 171.392 278.953 139.742C266.494 104.013 286.042 69.0306 288.058 65.6063Z" fill="#F5F9FF"/>
<path fill-rule="evenodd" clip-rule="evenodd" d="M383.248 209.578H438.251L453.883 266.705H367.612L383.248 209.578ZM383.653 210.109L368.307 266.175H453.188L437.846 210.109H383.653Z" fill="black"/>
<path d="M293.297 80.3125H292.766V70.0962C292.766 65.1402 296.792 61.1074 301.745 61.1074H328.124V61.638H301.745C297.086 61.638 293.297 65.4302 293.297 70.0962V80.3125Z" fill="#313036"/>
<path d="M519.75 228.717H301.745C296.796 228.717 292.766 224.685 292.766 219.729V218.982H293.297V219.729C293.297 224.391 297.086 228.187 301.745 228.187H519.75C524.409 228.187 528.198 224.395 528.198 219.729V70.0923C528.198 65.4299 524.409 61.6341 519.75 61.6341H499.692V61.1035H519.75C524.699 61.1035 528.728 65.1363 528.728 70.0923V219.729C528.728 224.685 524.703 228.717 519.75 228.717Z" fill="#313036"/>
<path d="M428.377 19.1484H496.403V218.288H333.381V19.1484H383.525H428.377Z" fill="#EBF1FF"/>
<path d="M333.381 119.136C333.236 119.136 333.115 119.015 333.115 118.87V19.1481C333.115 19.0031 333.236 18.8828 333.381 18.8828H383.525C383.67 18.8828 383.79 19.0031 383.79 19.1481C383.79 19.2932 383.67 19.4134 383.525 19.4134H333.646V118.87C333.646 119.015 333.526 119.136 333.381 119.136Z" fill="#313036"/>
<path d="M496.403 218.554H333.384C333.239 218.554 333.119 218.434 333.119 218.289V177.24C333.119 177.094 333.239 176.974 333.384 176.974C333.529 176.974 333.649 177.094 333.649 177.24V218.023H496.137V171.933C496.137 171.788 496.258 171.668 496.403 171.668C496.548 171.668 496.668 171.788 496.668 171.933V218.289C496.668 218.434 496.548 218.554 496.403 218.554Z" fill="#313036"/>
<path d="M496.403 128.687C496.258 128.687 496.137 128.567 496.137 128.421V19.4134H447.691C447.546 19.4134 447.426 19.2932 447.426 19.1481C447.426 19.0031 447.546 18.8828 447.691 18.8828H496.403C496.548 18.8828 496.668 19.0031 496.668 19.1481V128.421C496.668 128.567 496.548 128.687 496.403 128.687Z" fill="#313036"/>
<path d="M418.097 32.8945H339.401V37.8647H418.097V32.8945Z" fill="#B3C9FF"/>
<path d="M418.097 101.145H339.401V106.115H418.097V101.145Z" fill="#B3C9FF"/>
<path d="M418.097 135.268H339.401V140.238H418.097V135.268Z" fill="#B3C9FF"/>
<path d="M478.344 160.762H419.706V165.937H478.344V160.762Z" fill="#B3C9FF"/>
<path d="M436.064 203.416H386.358V208.591H436.064V203.416Z" fill="#B3C9FF"/>
<path d="M520.921 90.2168H520.39V129.129H520.921V90.2168Z" fill="#313036"/>
<path d="M520.921 156.367H520.39V198.11H520.921V156.367Z" fill="#313036"/>
<path d="M520.921 81.3725H520.39V76.9471C520.39 72.7233 516.86 69.2884 512.519 69.2884H502.522V68.7578H512.519C517.15 68.7578 520.921 72.4297 520.921 76.9471V81.3725Z" fill="#313036"/>
<path d="M282.957 225.236H340.816C344.909 225.236 348.231 228.558 348.231 232.651V274.744C348.231 278.837 344.909 282.158 340.816 282.158H282.957C278.864 282.158 275.542 278.837 275.542 274.744V232.651C275.542 228.558 278.864 225.236 282.957 225.236Z" fill="#B3C9FF"/>
<path d="M346.883 225.223H276.844C275.557 225.223 274.513 226.266 274.513 227.554V232.365C274.513 233.652 275.557 234.696 276.844 234.696H346.883C348.171 234.696 349.214 233.652 349.214 232.365V227.554C349.214 226.266 348.171 225.223 346.883 225.223Z" fill="#99B9FF"/>
<path d="M318.208 203.368C318.208 203.368 368.023 200.86 376.747 209.739C386.178 219.34 354.566 270.637 354.566 270.637L344.626 263.254L355.005 227.908L313.294 216.046L318.208 203.368Z" stroke="#313036" stroke-width="0.5" stroke-miterlimit="10"/>
<path d="M293.375 226.386C299.735 229.959 339.118 237.607 339.118 237.607C339.118 237.607 342.451 256.303 344.927 284.603L384.547 283.542L357.828 225.223C355.921 220.928 353.442 216.358 349.037 214.741L306.45 200.641C306.45 200.641 294.864 195.971 288.578 207.432C287.457 209.481 286.371 205.819 285.872 207.471C284.17 213.135 286.76 222.672 293.375 226.386Z" stroke="#313036" stroke-width="0.5" stroke-miterlimit="10"/>
<path fill-rule="evenodd" clip-rule="evenodd" d="M377.156 136.908L377.266 137.186C377.605 138.041 377.456 138.885 377.073 139.645C376.691 140.401 376.071 141.092 375.427 141.672C374.781 142.254 374.099 142.737 373.579 143.073C373.319 143.242 373.099 143.374 372.944 143.465C372.916 143.481 372.891 143.495 372.868 143.509C372.876 143.556 372.884 143.612 372.892 143.675C372.923 143.911 372.949 144.254 372.936 144.695C372.91 145.578 372.727 146.854 372.109 148.451C371.364 150.383 369.992 151.264 368.81 151.652C368.223 151.846 367.682 151.918 367.289 151.94C367.128 151.95 366.99 151.951 366.883 151.948C366.883 151.951 366.882 151.954 366.881 151.957C366.851 152.115 366.804 152.347 366.739 152.643C366.609 153.234 366.406 154.081 366.112 155.104C365.524 157.149 364.572 159.903 363.118 162.739C360.214 168.403 355.277 174.438 347.183 175.712C339.129 176.979 332.374 174.364 327.643 171.442C325.277 169.981 323.413 168.442 322.14 167.267C321.503 166.679 321.014 166.183 320.683 165.832C320.518 165.657 320.392 165.518 320.307 165.422C320.265 165.375 320.233 165.338 320.211 165.313C320.2 165.3 320.192 165.291 320.186 165.284L320.18 165.276L320.178 165.274L320.178 165.274C320.177 165.273 320.177 165.273 320.38 165.102L320.177 165.273L320.072 165.148L326.651 149.922L326.921 150.338L326.698 150.482C326.921 150.338 326.921 150.338 326.921 150.338L326.921 150.338L326.922 150.34L326.928 150.348L326.948 150.38C326.967 150.408 326.995 150.45 327.032 150.505C327.106 150.615 327.217 150.777 327.362 150.984C327.651 151.396 328.076 151.985 328.618 152.688C329.703 154.096 331.256 155.959 333.127 157.786C335 159.614 337.186 161.399 339.536 162.656C341.886 163.912 344.385 164.633 346.893 164.358C349.393 164.083 351.778 162.671 353.961 160.669C356.141 158.67 358.097 156.103 359.739 153.561C361.379 151.02 362.7 148.513 363.61 146.641C364.065 145.705 364.418 144.928 364.656 144.385C364.775 144.114 364.866 143.902 364.927 143.757C364.957 143.685 364.98 143.63 364.996 143.593L365.013 143.551L365.017 143.541L365.018 143.538L365.018 143.538C365.018 143.538 365.018 143.538 365.264 143.637L365.018 143.538L365.054 143.449L377.156 136.908ZM365.474 143.825C365.459 143.861 365.44 143.907 365.416 143.963C365.354 144.11 365.262 144.325 365.142 144.599C364.901 145.147 364.546 145.93 364.087 146.873C363.171 148.758 361.84 151.285 360.184 153.849C358.53 156.411 356.545 159.019 354.319 161.061C352.096 163.1 349.609 164.593 346.951 164.885C344.302 165.176 341.694 164.412 339.285 163.124C336.876 161.835 334.65 160.014 332.757 158.166C330.862 156.317 329.293 154.433 328.198 153.012C327.65 152.302 327.22 151.706 326.927 151.288C326.861 151.194 326.802 151.108 326.749 151.033L320.69 165.054C320.695 165.059 320.699 165.065 320.704 165.07C320.786 165.162 320.908 165.297 321.069 165.468C321.393 165.811 321.873 166.299 322.5 166.877C323.753 168.034 325.59 169.552 327.922 170.991C332.585 173.87 339.211 176.429 347.1 175.188C354.949 173.953 359.774 168.097 362.646 162.497C364.08 159.7 365.02 156.979 365.602 154.957C365.892 153.946 366.093 153.111 366.221 152.529C366.285 152.238 366.331 152.011 366.36 151.856C366.375 151.779 366.386 151.72 366.393 151.681C366.396 151.665 366.398 151.652 366.4 151.643C366.402 151.619 366.408 151.595 366.419 151.569L367.337 149.273L366.976 151.419C367.056 151.419 367.151 151.417 367.259 151.411C367.617 151.39 368.11 151.324 368.644 151.148C369.707 150.799 370.937 150.015 371.614 148.26C372.21 146.72 372.381 145.504 372.405 144.679C372.417 144.267 372.393 143.952 372.366 143.743C372.353 143.638 372.339 143.56 372.328 143.51C372.323 143.484 372.319 143.466 372.316 143.455C372.316 143.451 372.315 143.449 372.314 143.447L372.314 143.443L372.313 143.442L372.313 143.441L372.257 143.238L372.444 143.138L372.445 143.137L372.447 143.136L372.458 143.13C372.465 143.126 372.473 143.122 372.484 143.116C372.49 143.113 372.496 143.109 372.503 143.105C372.543 143.083 372.602 143.05 372.677 143.006C372.826 142.919 373.039 142.791 373.291 142.628C373.796 142.301 374.453 141.835 375.072 141.278C375.692 140.719 376.26 140.079 376.599 139.406C376.888 138.833 377.006 138.249 376.864 137.669L365.474 143.825ZM366.93 151.69L366.927 151.711L366.665 151.667C366.927 151.711 366.927 151.711 366.927 151.712L366.926 151.712L366.924 151.726C366.927 151.714 366.929 151.702 366.93 151.69Z" fill="black"/>
<path d="M290.531 143.944C295.699 142.727 297.857 142.709 316.648 143.392C321.24 143.558 326.705 149.332 327.243 153.902C325.782 158.285 319.047 179.931 330.809 196.84C332.479 199.239 332.9 201.191 336.016 203.714C334.265 205.132 328.598 203.445 324.947 204.527C318.884 206.331 319.34 206.561 314.455 206.71C301.529 207.095 297.203 224.235 288.996 221.868C286.364 221.111 284.185 213.59 284.871 207.47C285.479 202.03 285.288 196.189 284.51 189.762C282.402 172.343 279.377 164.787 282.458 155.685C283.375 152.812 284.436 145.38 290.531 143.944Z" fill="#406FDD"/>
<path d="M335.181 158.759C335.181 158.759 325.167 144.266 316.652 143.393L319.687 168.244L335.181 158.759Z" fill="#406FDD"/>
<path d="M275.542 174.893C275.542 174.893 276.264 164.146 278.8 156.594C282.918 144.34 290.297 143.982 290.297 143.982L295.727 174.893H275.539H275.542Z" fill="#406FDD"/>
<path fill-rule="evenodd" clip-rule="evenodd" d="M276.911 174.512L291.946 174.534L291.987 174.75L291.727 174.799C291.987 174.75 291.987 174.75 291.987 174.75L291.994 174.788L292.016 174.9C292.035 175 292.063 175.146 292.1 175.335C292.174 175.712 292.283 176.26 292.421 176.938C292.698 178.296 293.094 180.179 293.571 182.28C294.524 186.487 295.797 191.555 297.08 195.038C297.712 196.751 298.684 198.127 300.341 198.175L300.342 198.175L310.349 198.501C310.349 198.501 310.349 198.501 310.349 198.501C314.092 198.612 317.81 197.673 320.967 195.669C321.911 195.071 322.955 194.542 323.99 194.282C325.026 194.022 326.076 194.026 327.005 194.528C328.856 195.527 330.852 197.322 332.376 198.85C333.14 199.617 333.79 200.322 334.249 200.836C334.478 201.092 334.66 201.301 334.785 201.446C334.847 201.519 334.896 201.576 334.928 201.614C334.944 201.633 334.957 201.648 334.965 201.658L334.975 201.67L334.978 201.673C334.978 201.673 334.978 201.674 334.774 201.843L334.978 201.674L335.565 202.378L329.528 200.426C327.232 199.685 324.734 199.939 322.634 201.13C322.634 201.13 322.634 201.13 322.634 201.13L319.427 202.949L319.418 202.954L319.305 202.714C319.418 202.954 319.417 202.954 319.417 202.954L319.412 202.956L319.398 202.963C319.385 202.969 319.365 202.978 319.34 202.99C319.289 203.013 319.213 203.048 319.115 203.093C318.918 203.182 318.629 203.312 318.259 203.474C317.52 203.798 316.458 204.249 315.167 204.762C312.585 205.788 309.084 207.06 305.409 208.043C301.738 209.025 297.875 209.723 294.579 209.589C291.289 209.454 288.49 208.486 287.058 206.057C282.481 198.293 278.569 184.058 277.305 174.906L276.911 174.512ZM277.86 175.044C279.149 184.165 283.023 198.166 287.516 205.787C288.81 207.983 291.376 208.927 294.6 209.058C297.818 209.19 301.62 208.507 305.272 207.531C308.92 206.555 312.401 205.291 314.971 204.269C316.255 203.759 317.312 203.309 318.046 202.988C318.414 202.827 318.701 202.698 318.895 202.61C318.993 202.565 319.067 202.531 319.117 202.508C319.142 202.497 319.161 202.488 319.174 202.482L319.183 202.478L322.372 200.668C324.601 199.404 327.254 199.134 329.691 199.921L333.95 201.298C333.919 201.263 333.887 201.227 333.853 201.189C333.399 200.681 332.756 199.983 332 199.225C330.482 197.702 328.531 195.955 326.753 194.995C325.98 194.577 325.077 194.556 324.119 194.797C323.161 195.037 322.171 195.534 321.251 196.117C317.998 198.182 314.174 199.146 310.333 199.031L310.332 199.031L300.326 198.706C300.325 198.706 300.325 198.706 300.325 198.706C298.31 198.647 297.224 196.96 296.582 195.221C295.286 191.703 294.007 186.606 293.053 182.398C292.576 180.292 292.179 178.405 291.902 177.044C291.763 176.364 291.654 175.815 291.58 175.437C291.55 175.284 291.526 175.159 291.507 175.064L277.86 175.044Z" fill="black"/>
<path d="M290.468 130.364C294.7 129.76 297.639 125.83 297.034 121.587C296.429 117.343 292.507 114.393 288.275 114.997C284.043 115.6 281.104 119.53 281.709 123.773C282.314 128.017 286.236 130.967 290.468 130.364Z" fill="#313036"/>
<path d="M297.103 122.234C297.309 125.786 294.553 129.08 291.358 130.183C290.265 128.644 287.839 122.928 290.637 115.021C294.132 115.598 296.891 118.541 297.103 122.234Z" fill="#406FDD"/>
<path d="M310.125 120.364C310.79 119.763 314.331 118.337 311.434 114.357C308.537 110.378 299.35 110.533 295.621 112.953C291.893 115.373 290.927 121.747 291.327 125.235C291.726 128.723 293.976 133.007 298.062 134.479C302.866 136.209 308.317 122.006 310.121 120.364H310.125Z" fill="#313036"/>
<path d="M291.574 144.021L291.482 143.678L297.875 141.98C298.819 139.306 299.039 137.732 299.307 134.817C299.332 134.562 299.343 134.421 299.343 134.417L299.35 134.3L299.459 134.261C299.562 134.222 302.021 133.317 302.233 130.533C302.3 129.659 301.78 128.722 301.281 127.816C300.818 126.981 300.383 126.192 300.457 125.506C300.563 124.505 301.356 123.897 302.742 123.744C304.518 123.55 306.131 122.743 307.284 121.477C308.689 119.931 309.835 118.505 310.684 117.242L310.758 117.133L310.917 117.158C311.43 117.313 313.089 123.422 313.089 126.291C313.089 126.518 312.474 132.312 311.784 133.32C311.491 133.748 310.16 133.71 308.455 133.614C308.034 133.589 307.56 133.564 307.415 133.582C307.157 134.155 308.3 140.088 308.77 141.591L314.756 143.378L314.653 143.717L308.491 141.878L308.462 141.789C308.278 141.244 306.538 133.816 307.203 133.289C307.309 133.204 307.511 133.207 308.473 133.26C309.315 133.306 311.289 133.416 311.491 133.119C312.088 132.252 312.736 126.681 312.736 126.291C312.736 123.514 311.328 118.562 310.861 117.614C310.015 118.849 308.901 120.225 307.55 121.71C306.34 123.04 304.645 123.889 302.785 124.091C301.564 124.226 300.899 124.714 300.811 125.541C300.751 126.115 301.161 126.854 301.593 127.639C302.12 128.591 302.664 129.574 302.59 130.554C302.385 133.228 300.206 134.325 299.689 134.544C299.682 134.612 299.675 134.714 299.665 134.842C299.396 137.753 299.159 139.423 298.179 142.178L298.147 142.267L291.574 144.014V144.021Z" fill="#313036"/>
<path d="M307.518 205.174H373.252C373.252 207.123 371.667 208.708 369.718 208.708H311.052C309.103 208.708 307.518 207.123 307.518 205.174Z" fill="#CADDFF"/>
<path d="M373.255 205.238H335.641L347.591 170.015C348.305 168.911 349.55 168.246 350.891 168.246H382.686C384.129 168.246 385.056 169.647 384.586 170.885C384.398 171.377 384.197 171.865 384.034 172.364L373.252 205.241L373.255 205.238Z" fill="#92B2FC"/>
<path fill-rule="evenodd" clip-rule="evenodd" d="M347.831 170.134L336.033 204.91H373.081L383.782 172.283M335.472 204.91L347.35 169.9L347.368 169.872C348.133 168.691 349.463 167.982 350.891 167.982H382.686C384.311 167.982 385.372 169.565 384.834 170.981C384.782 171.115 384.731 171.248 384.679 171.38C384.54 171.738 384.403 172.089 384.286 172.448L384.286 172.448L373.619 204.974H373.897L373.513 205.357C373.418 207.369 371.752 208.975 369.718 208.975H311.052C308.956 208.975 307.252 207.271 307.252 205.176V204.91H335.472ZM372.887 205.505H335.271L335.292 205.441H307.794C307.929 207.12 309.338 208.444 311.052 208.444H369.718C371.242 208.444 372.526 207.396 372.886 205.982L372.654 206.213L372.887 205.505ZM347.831 170.134C348.498 169.124 349.649 168.513 350.891 168.513H382.686C383.948 168.513 384.741 169.732 384.338 170.792" fill="#313036"/>
<mask id="mask0_137_19356" style="mask-type:luminance" maskUnits="userSpaceOnUse" x="357" y="183" width="11" height="10">
<path d="M367.39 183.359H357.786V192.964H367.39V183.359Z" fill="white"/>
</mask>
<g mask="url(#mask0_137_19356)">
<path d="M363.117 184.75L360.782 191.167C360.7 191.386 360.456 191.567 360.237 191.567H360.021L362.356 185.15C362.437 184.93 362.681 184.75 362.901 184.75H363.117Z" fill="#92B2FC"/>
<path d="M364.026 184.732L361.691 191.149C361.61 191.369 361.366 191.549 361.146 191.549H360.93L363.265 185.132C363.347 184.913 363.591 184.732 363.81 184.732H364.026Z" fill="#406FDD"/>
<path d="M364.903 184.732L362.568 191.149C362.487 191.369 362.243 191.549 362.024 191.549H361.808L364.143 185.132C364.224 184.913 364.468 184.732 364.687 184.732H364.903Z" fill="#204097"/>
</g>
<path d="M371.83 59.6748V58.8187C371.83 58.1395 371.359 57.5487 370.694 57.4001L369.346 57.0959C368.809 56.9756 368.388 56.5547 368.257 56.0205C368.221 55.8755 368.182 55.734 368.143 55.5925C367.995 55.0619 368.147 54.4959 368.55 54.1209L369.566 53.1835C370.064 52.7236 370.178 51.9772 369.838 51.3864L369.41 50.6471C369.07 50.0563 368.366 49.7804 367.715 49.9856L366.396 50.3959C365.869 50.5586 365.299 50.4101 364.914 50.0103C364.811 49.9042 364.709 49.8016 364.606 49.7026C364.21 49.3205 364.058 48.7474 364.224 48.2239L364.638 46.8973C364.839 46.2464 364.564 45.546 363.976 45.2064L363.237 44.7784C362.646 44.4388 361.9 44.552 361.44 45.0507L360.506 46.066C360.131 46.4728 359.561 46.6249 359.034 46.4764C358.893 46.4374 358.755 46.3985 358.61 46.3632C358.072 46.2287 357.655 45.8113 357.535 45.2701L357.23 43.9187C357.082 43.2537 356.491 42.7832 355.812 42.7832H354.959C354.28 42.7832 353.689 43.2537 353.541 43.9187L353.236 45.2701C353.116 45.8078 352.695 46.2287 352.161 46.3632C352.02 46.3985 351.878 46.4374 351.737 46.4764C351.206 46.6285 350.636 46.4728 350.265 46.066L349.331 45.0507C348.868 44.5484 348.121 44.4352 347.534 44.7784L346.795 45.2064C346.207 45.546 345.932 46.2499 346.133 46.8973L346.547 48.2239C346.71 48.751 346.558 49.3205 346.165 49.7026C346.059 49.8051 345.956 49.9077 345.857 50.0103C345.475 50.4065 344.902 50.5586 344.375 50.3959L343.056 49.9856C342.405 49.7839 341.701 50.0598 341.361 50.6471L340.933 51.3864C340.593 51.9736 340.707 52.72 341.205 53.1835L342.221 54.1244C342.624 54.4994 342.78 55.0654 342.627 55.596C342.589 55.7375 342.55 55.879 342.514 56.0241C342.38 56.5618 341.962 56.9792 341.425 57.0995L340.077 57.4037C339.412 57.5523 338.941 58.143 338.941 58.8222V59.6783C338.941 60.3575 339.412 60.9483 340.077 61.0968L341.425 61.4011C341.962 61.5213 342.383 61.9423 342.514 62.4765C342.55 62.6215 342.589 62.763 342.627 62.9045C342.776 63.4351 342.624 64.0011 342.221 64.3761L341.205 65.3135C340.707 65.7734 340.593 66.5198 340.933 67.1106L341.361 67.8499C341.701 68.4407 342.405 68.7166 343.056 68.5114L344.375 68.1011C344.902 67.9384 345.472 68.0869 345.857 68.4867C345.96 68.5928 346.062 68.6954 346.165 68.7944C346.561 69.1765 346.713 69.7496 346.547 70.2731L346.133 71.5997C345.932 72.2506 346.207 72.951 346.795 73.2906L347.534 73.7186C348.125 74.0582 348.871 73.945 349.331 73.4462L350.265 72.431C350.64 72.0242 351.209 71.8721 351.737 72.0206C351.878 72.0596 352.016 72.0985 352.161 72.1338C352.699 72.2683 353.116 72.6857 353.236 73.2269L353.541 74.5783C353.689 75.2433 354.28 75.7138 354.959 75.7138H355.812C356.491 75.7138 357.082 75.2433 357.23 74.5783L357.535 73.2269C357.655 72.6892 358.076 72.2683 358.61 72.1338C358.751 72.0985 358.893 72.0596 359.034 72.0206C359.565 71.8685 360.135 72.0242 360.506 72.431L361.44 73.4462C361.903 73.9486 362.65 74.0618 363.237 73.7186L363.976 73.2906C364.564 72.951 364.839 72.247 364.638 71.5997L364.224 70.2731C364.061 69.746 364.213 69.1765 364.606 68.7944C364.712 68.6919 364.815 68.5893 364.914 68.4867C365.296 68.0905 365.869 67.9384 366.396 68.1011L367.715 68.5114C368.366 68.7131 369.07 68.4371 369.41 67.8499L369.838 67.1106C370.178 66.5234 370.064 65.777 369.566 65.3135L368.55 64.3761C368.147 64.0011 367.991 63.4351 368.143 62.9045C368.182 62.763 368.221 62.6215 368.257 62.4765C368.391 61.9388 368.809 61.5213 369.346 61.4011L370.694 61.0968C371.359 60.9483 371.83 60.3575 371.83 59.6783V59.6748ZM355.384 67.4396C350.863 67.4396 347.201 63.7712 347.201 59.2467C347.201 54.7223 350.866 51.0539 355.384 51.0539C359.905 51.0539 363.566 54.7223 363.566 59.2467C363.566 63.7712 359.901 67.4396 355.384 67.4396Z" fill="#111AE8" stroke="black" stroke-width="0.5" stroke-miterlimit="10"/>
<path d="M437.478 44.1154V41.4057C437.478 40.6062 436.923 39.9129 436.141 39.736L432.759 38.9719C432.115 38.8268 431.617 38.3245 431.472 37.6842C431.348 37.1359 431.206 36.5982 431.044 36.0676C430.853 35.4415 431.037 34.7587 431.518 34.3165L434.065 31.9606C434.652 31.4158 434.786 30.5385 434.387 29.8487L433.035 27.5033C432.635 26.81 431.808 26.4845 431.04 26.7251L427.729 27.758C427.103 27.9526 426.417 27.7722 425.971 27.2911C425.592 26.8842 425.2 26.4916 424.793 26.1131C424.312 25.6673 424.131 24.9846 424.326 24.3585L425.359 21.0332C425.596 20.2691 425.274 19.4413 424.581 19.0416L422.242 17.6903C421.549 17.2905 420.668 17.4214 420.127 18.0122L417.778 20.5592C417.332 21.0438 416.649 21.2278 416.023 21.0332C415.493 20.8705 414.959 20.729 414.414 20.6052C413.774 20.4601 413.271 19.9578 413.126 19.314L412.362 15.9251C412.185 15.1433 411.492 14.5879 410.692 14.5879H407.993C407.194 14.5879 406.497 15.1433 406.324 15.9251L405.559 19.314C405.414 19.9578 404.916 20.4566 404.272 20.6052C403.727 20.729 403.189 20.8705 402.662 21.0332C402.033 21.2242 401.353 21.0403 400.908 20.5592L398.559 18.0122C398.014 17.4214 397.137 17.2905 396.443 17.6903L394.105 19.0416C393.412 19.4413 393.09 20.2691 393.327 21.0332L394.36 24.3585C394.554 24.9846 394.374 25.6673 393.893 26.1131C393.486 26.4916 393.093 26.8842 392.715 27.2911C392.269 27.7722 391.583 27.9561 390.957 27.758L387.646 26.7251C386.881 26.488 386.054 26.81 385.65 27.5033L384.299 29.8487C383.899 30.542 384.034 31.4193 384.621 31.9606L387.168 34.3165C387.649 34.7623 387.833 35.4415 387.642 36.0676C387.479 36.5982 387.338 37.1395 387.214 37.6842C387.069 38.3281 386.567 38.8268 385.926 38.9719L382.544 39.736C381.763 39.9129 381.207 40.6062 381.207 41.4057V44.1154C381.207 44.9149 381.763 45.6082 382.544 45.7851L385.926 46.5492C386.57 46.6942 387.069 47.1966 387.214 47.8369C387.338 48.3852 387.479 48.9229 387.642 49.4535C387.833 50.0796 387.649 50.7624 387.168 51.2046L384.621 53.5605C384.034 54.1053 383.899 54.9826 384.299 55.6724L385.65 58.0178C386.05 58.7111 386.878 59.0366 387.646 58.796L390.957 57.7631C391.583 57.5685 392.269 57.7489 392.715 58.23C393.093 58.6368 393.486 59.0295 393.893 59.408C394.374 59.8537 394.554 60.5365 394.36 61.1626L393.327 64.4879C393.09 65.252 393.412 66.0797 394.105 66.4795L396.443 67.8308C397.137 68.2305 398.017 68.0997 398.559 67.5089L400.908 64.9619C401.353 64.4772 402.036 64.2933 402.662 64.4879C403.193 64.6506 403.727 64.7921 404.272 64.9159C404.912 65.0609 405.414 65.5633 405.559 66.2071L406.324 69.596C406.5 70.3778 407.194 70.9332 407.993 70.9332H410.692C411.492 70.9332 412.189 70.3778 412.362 69.596L413.126 66.2071C413.271 65.5633 413.77 65.0645 414.414 64.9159C414.959 64.7921 415.496 64.6506 416.023 64.4879C416.653 64.2968 417.332 64.4808 417.778 64.9619L420.127 67.5089C420.672 68.0997 421.549 68.2305 422.242 67.8308L424.581 66.4795C425.274 66.0797 425.596 65.252 425.359 64.4879L424.326 61.1626C424.131 60.5365 424.312 59.8537 424.793 59.408C425.2 59.0295 425.592 58.6368 425.971 58.23C426.417 57.7489 427.103 57.565 427.729 57.7631L431.04 58.796C431.804 59.033 432.632 58.7111 433.035 58.0178L434.387 55.6724C434.786 54.9791 434.652 54.1018 434.065 53.5605L431.518 51.2046C431.037 50.7588 430.853 50.0796 431.044 49.4535C431.206 48.9229 431.348 48.3816 431.472 47.8369C431.617 47.193 432.119 46.6942 432.759 46.5492L436.141 45.7851C436.923 45.6082 437.478 44.9149 437.478 44.1154ZM409.337 56.7832C401.604 56.7832 395.333 50.5041 395.333 42.7605C395.333 35.017 401.601 28.7379 409.337 28.7379C417.074 28.7379 423.342 35.017 423.342 42.7605C423.342 50.5041 417.074 56.7832 409.337 56.7832Z" fill="#99B9FF" stroke="black" stroke-width="0.5" stroke-linecap="round" stroke-linejoin="round"/>
<path d="M512.371 238.888C517.263 240.632 522.654 240.295 527.292 237.957C531.93 235.619 535.411 231.484 536.925 226.51C538.449 221.504 537.848 216.088 535.262 211.539C532.676 206.99 528.332 203.707 523.252 202.465L426.293 182.065C419.363 180.37 412.316 184.389 410.236 191.22C408.138 198.107 411.821 205.426 418.592 207.842L512.367 238.891L512.371 238.888Z" fill="#313036"/>
<path d="M477.25 247.901C480.933 247.901 484.173 245.467 485.21 241.93L488.998 228.965C489.734 226.442 492.044 224.709 494.669 224.709H542.447C545.874 224.709 548.655 227.493 548.655 230.928V273.756H467.08V254.12C467.08 250.685 469.861 247.901 473.288 247.901H477.25Z" fill="#313036"/>
<path d="M470.207 247.901C473.89 247.901 477.13 245.467 478.167 241.93L481.955 228.965C482.691 226.442 485.001 224.709 487.626 224.709H535.404C538.831 224.709 541.612 227.493 541.612 230.928V273.756H460.037V254.12C460.037 250.685 462.818 247.901 466.245 247.901H470.207Z" fill="#6490F7"/>
<path d="M541.877 274.018H459.772V254.116C459.772 250.539 462.676 247.631 466.246 247.631H470.208C473.749 247.631 476.918 245.254 477.912 241.851L481.701 228.886C482.465 226.268 484.902 224.439 487.626 224.439H535.404C538.973 224.439 541.877 227.347 541.877 230.924V274.018ZM460.303 273.487H541.347V230.924C541.347 227.641 538.679 224.97 535.404 224.97H487.626C485.136 224.97 482.907 226.643 482.21 229.035L478.422 242C477.36 245.629 473.986 248.162 470.208 248.162H466.246C462.966 248.162 460.303 250.833 460.303 254.116V273.487Z" fill="#313036"/>
<path d="M510.878 159.64C515.395 157.128 517.153 151.514 514.875 146.869C512.579 142.182 506.99 140.152 502.225 142.274L412.776 182.106C405.832 185.198 402.606 193.267 405.503 200.303C407.027 204.01 410.066 206.89 413.844 208.217C417.626 209.54 421.793 209.186 425.292 207.237L510.874 159.643L510.878 159.64Z" fill="#313036"/>
<path d="M506.813 239.269C511.706 241.013 517.097 240.677 521.735 238.339C526.372 236.001 529.853 231.865 531.367 226.892C532.892 221.882 532.29 216.47 529.705 211.921C527.119 207.372 522.775 204.089 517.695 202.847L421.121 182.061C414.191 180.366 407.144 184.385 405.064 191.216C402.967 198.103 406.649 205.422 413.42 207.839L506.813 239.273V239.269Z" fill="#6490F7"/>
<path d="M513.17 240.627C510.988 240.627 508.805 240.259 506.721 239.52L413.331 208.089C406.405 205.62 402.662 198.177 404.806 191.138C406.929 184.176 414.12 180.076 421.181 181.802L517.751 202.585C522.884 203.841 527.324 207.194 529.935 211.786C532.545 216.378 533.161 221.91 531.622 226.965C530.094 231.981 526.531 236.212 521.855 238.572C519.149 239.937 516.167 240.627 513.174 240.627H513.17ZM417.923 181.94C412.245 181.94 407.035 185.633 405.312 191.293C403.25 198.057 406.851 205.217 413.505 207.587L506.898 239.021C511.699 240.73 517.062 240.397 521.611 238.101C526.16 235.809 529.623 231.695 531.109 226.813C532.605 221.896 532.008 216.516 529.468 212.051C526.928 207.587 522.612 204.325 517.624 203.105L421.054 182.322C420.007 182.067 418.953 181.944 417.92 181.944L417.923 181.94Z" fill="#313036"/>
<path d="M502.551 158.398C504.493 159.495 506.799 159.746 508.929 159.088C511.059 158.434 512.827 156.927 513.818 154.928C514.907 152.728 515.052 150.174 514.217 147.864C513.383 145.554 511.639 143.686 509.392 142.696L453.776 118.152L448.866 128.064L502.547 158.398H502.551Z" fill="#6490F7"/>
<path d="M506.552 159.71C505.116 159.71 503.686 159.342 502.42 158.628L448.519 128.173L453.655 117.809L509.502 142.454C511.801 143.47 513.613 145.408 514.469 147.775C515.325 150.141 515.176 152.791 514.058 155.048C513.039 157.103 511.2 158.67 509.007 159.342C508.207 159.59 507.376 159.71 506.548 159.71H506.552ZM502.682 158.168C504.55 159.226 506.799 159.466 508.851 158.837C510.903 158.203 512.629 156.739 513.581 154.811C514.635 152.685 514.776 150.187 513.966 147.955C513.16 145.723 511.451 143.894 509.283 142.939L453.9 118.498L449.212 127.958L502.675 158.168H502.682Z" fill="#313036"/>
<path d="M450.005 134.461L433.184 127.913L435.232 122.179L443.903 124.563L447.928 116.993L437.68 112.5L440.284 106.15L458.827 113.293L450.005 134.461ZM433.856 127.605L449.715 133.778L458.127 113.593L440.577 106.833L438.367 112.224L448.664 116.738L444.168 125.189L435.561 122.823L433.853 127.605H433.856Z" fill="#313036"/>
</g>
</g>
<defs>
<clipPath id="clip0_137_19356">
<rect width="538" height="260" fill="white"/>
</clipPath>
<clipPath id="clip1_137_19356">
<rect width="283" height="283" fill="white" transform="translate(274 12)"/>
</clipPath>
</defs>
</svg>
