<svg width="455" height="260" viewBox="0 0 455 260" fill="none" xmlns="http://www.w3.org/2000/svg">
<g clip-path="url(#clip0_137_19356)">
<path fill-rule="evenodd" clip-rule="evenodd" d="M246.029 -27.6843C331.651 -25.8606 428.612 -6.90995 454.663 74.6731C480.46 155.463 414.16 229.799 342.96 275.876C284.412 313.767 212.857 306.503 153.833 269.359C75.5909 220.121 -19.2805 153.453 8.12312 65.1619C36.0213 -24.7224 151.936 -29.6885 246.029 -27.6843Z" fill="#F9FBFF"/>
<path fill-rule="evenodd" clip-rule="evenodd" d="M313.408 -22.3782C223.055 -23.4062 102.841 -31.251 81.2487 56.5529C60.7101 140.071 185.787 161.504 255.983 211.135C320.946 257.065 375.83 352.311 445.661 314.2C531.735 267.224 565.747 152.965 529.869 61.6572C498.558 -18.0285 398.966 -21.4047 313.408 -22.3782Z" fill="#EDF4FF"/>
<g clip-path="url(#clip1_137_19356)">
<path d="M193.723 56.7036C211.919 25.7994 246.552 18.2445 259.612 15.3977C304.065 5.70108 369.838 17.3536 401.574 70.0229C429.428 116.249 413.917 165.624 411.672 172.391C407.902 183.742 398.465 210.971 371.709 229.414C330.055 258.127 266.565 251.687 244.838 222.048C234.634 208.127 242.891 201.708 231.005 177.093C215.087 144.127 195.334 144.92 186.13 118.527C175.74 88.7318 192.042 59.5592 193.723 56.7036Z" fill="#F5F9FF"/>
<path fill-rule="evenodd" clip-rule="evenodd" d="M273.104 176.766H318.972L332.009 224.405H260.065L273.104 176.766ZM273.442 177.208L260.645 223.963H331.429L318.635 177.208H273.442Z" fill="black"/>
<path d="M198.092 68.9667H197.65V60.4471C197.65 56.3142 201.007 52.9512 205.137 52.9512H227.135V53.3937H205.137C201.252 53.3937 198.092 56.5561 198.092 60.4471V68.9667Z" fill="#313036"/>
<path d="M386.936 192.726H205.137C201.01 192.726 197.65 189.363 197.65 185.23V184.608H198.092V185.23C198.092 189.118 201.252 192.284 205.137 192.284H386.936C390.822 192.284 393.981 189.121 393.981 185.23V60.4452C393.981 56.5571 390.822 53.3917 386.936 53.3917H370.21V52.9492H386.936C391.063 52.9492 394.424 56.3122 394.424 60.4452V185.23C394.424 189.363 391.066 192.726 386.936 192.726Z" fill="#313036"/>
<path fill-rule="evenodd" clip-rule="evenodd" d="M247.868 223.862C247.868 221.241 249.99 219.115 252.608 219.115H339.471C342.089 219.115 344.212 221.241 344.212 223.862C344.212 226.482 342.089 228.608 339.471 228.608H252.608C249.99 228.608 247.868 226.482 247.868 223.862ZM252.608 219.558C250.235 219.558 248.31 221.485 248.31 223.862C248.31 226.239 250.235 228.166 252.608 228.166H339.471C341.844 228.166 343.769 226.239 343.769 223.862C343.769 221.485 341.844 219.558 339.471 219.558H252.608Z" fill="black"/>
<path d="M310.738 17.9609H367.467V184.028H231.519V17.9609H273.335H310.738Z" fill="#EBF1FF"/>
<path d="M231.519 101.343C231.398 101.343 231.298 101.243 231.298 101.122V17.9615C231.298 17.8405 231.398 17.7402 231.519 17.7402H273.335C273.456 17.7402 273.556 17.8405 273.556 17.9615C273.556 18.0824 273.456 18.1827 273.335 18.1827H231.74V101.122C231.74 101.243 231.64 101.343 231.519 101.343Z" fill="#313036"/>
<path d="M367.466 184.25H231.522C231.401 184.25 231.3 184.149 231.3 184.028V149.797C231.3 149.676 231.401 149.575 231.522 149.575C231.642 149.575 231.743 149.676 231.743 149.797V183.807H367.245V145.372C367.245 145.251 367.345 145.15 367.466 145.15C367.587 145.15 367.688 145.251 367.688 145.372V184.028C367.688 184.149 367.587 184.25 367.466 184.25Z" fill="#313036"/>
<path d="M367.467 109.308C367.346 109.308 367.245 109.208 367.245 109.087V18.1827H326.845C326.724 18.1827 326.624 18.0824 326.624 17.9615C326.624 17.8405 326.724 17.7402 326.845 17.7402H367.467C367.587 17.7402 367.688 17.8405 367.688 17.9615V109.087C367.688 109.208 367.587 109.308 367.467 109.308Z" fill="#313036"/>
<path d="M302.165 29.4258H236.54V33.5705H302.165V29.4258Z" fill="#B3C9FF"/>
<path d="M302.165 86.3398H236.54V90.4846H302.165V86.3398Z" fill="#B3C9FF"/>
<path d="M302.165 114.795H236.54V118.94H302.165V114.795Z" fill="#B3C9FF"/>
<path d="M352.407 136.057H303.507V140.372H352.407V136.057Z" fill="#B3C9FF"/>
<path d="M317.148 171.627H275.698V175.943H317.148V171.627Z" fill="#B3C9FF"/>
<path d="M387.913 77.2266H387.47V109.677H387.913V77.2266Z" fill="#313036"/>
<path d="M387.913 132.393H387.47V167.203H387.913V132.393Z" fill="#313036"/>
<path d="M387.913 69.8517H387.471V66.1613C387.471 62.639 384.526 59.7745 380.907 59.7745H372.57V59.332H380.907C384.768 59.332 387.913 62.3941 387.913 66.1613V69.8517Z" fill="#313036"/>
<path d="M189.47 189.822H237.72C241.133 189.822 243.903 192.592 243.903 196.005V231.108C243.903 234.521 241.133 237.291 237.72 237.291H189.47C186.056 237.291 183.286 234.521 183.286 231.108V196.005C183.286 192.592 186.056 189.822 189.47 189.822Z" fill="#B3C9FF"/>
<path d="M242.779 189.811H184.372C183.298 189.811 182.428 190.681 182.428 191.755V195.767C182.428 196.84 183.298 197.711 184.372 197.711H242.779C243.853 197.711 244.723 196.84 244.723 195.767V191.755C244.723 190.681 243.853 189.811 242.779 189.811Z" fill="#99B9FF"/>
<path d="M218.866 171.585C218.866 171.585 260.408 169.494 267.683 176.898C275.547 184.904 249.186 227.682 249.186 227.682L240.897 221.526L249.552 192.049L214.769 182.158L218.866 171.585Z" stroke="#313036" stroke-width="0.5" stroke-miterlimit="10"/>
<path d="M198.157 190.78C203.461 193.76 236.304 200.138 236.304 200.138C236.304 200.138 239.083 215.729 241.148 239.329L274.188 238.444L251.906 189.81C250.316 186.229 248.248 182.417 244.576 181.069L209.06 169.31C209.06 169.31 199.399 165.416 194.157 174.974C193.222 176.682 192.316 173.629 191.9 175.007C190.481 179.73 192.641 187.683 198.157 190.78Z" stroke="#313036" stroke-width="0.5" stroke-miterlimit="10"/>
<path fill-rule="evenodd" clip-rule="evenodd" d="M268.024 116.164L268.116 116.396C268.399 117.109 268.275 117.812 267.955 118.447C267.637 119.077 267.119 119.653 266.582 120.137C266.044 120.622 265.475 121.025 265.042 121.305C264.825 121.446 264.641 121.556 264.511 121.632C264.489 121.645 264.468 121.657 264.448 121.668C264.455 121.708 264.462 121.754 264.469 121.807C264.494 122.004 264.516 122.289 264.505 122.658C264.483 123.394 264.331 124.458 263.816 125.79C263.194 127.401 262.05 128.135 261.065 128.46C260.574 128.621 260.124 128.681 259.796 128.7C259.661 128.707 259.547 128.708 259.457 128.706C259.457 128.709 259.457 128.711 259.456 128.713C259.431 128.846 259.392 129.039 259.337 129.286C259.229 129.779 259.059 130.485 258.814 131.338C258.324 133.043 257.53 135.34 256.318 137.705C253.896 142.428 249.779 147.461 243.029 148.523C236.312 149.58 230.68 147.399 226.734 144.963C224.761 143.745 223.206 142.461 222.145 141.481C221.614 140.991 221.206 140.577 220.93 140.284C220.793 140.138 220.688 140.022 220.617 139.943C220.582 139.903 220.555 139.872 220.537 139.851C220.528 139.841 220.521 139.833 220.516 139.827L220.511 139.821L220.509 139.819L220.509 139.819C220.509 139.818 220.508 139.818 220.678 139.676L220.508 139.818L220.42 139.714L225.907 127.017L226.132 127.363L225.946 127.484C226.132 127.363 226.132 127.363 226.132 127.363L226.132 127.364L226.133 127.365L226.138 127.372L226.155 127.398C226.171 127.422 226.194 127.457 226.225 127.503C226.287 127.595 226.379 127.73 226.5 127.902C226.741 128.246 227.095 128.737 227.547 129.324C228.452 130.497 229.747 132.051 231.308 133.575C232.87 135.099 234.692 136.588 236.652 137.635C238.611 138.684 240.695 139.284 242.787 139.055C244.872 138.826 246.861 137.648 248.681 135.979C250.499 134.312 252.131 132.171 253.499 130.051C254.868 127.932 255.969 125.842 256.728 124.28C257.108 123.5 257.402 122.852 257.6 122.399C257.7 122.173 257.775 121.996 257.826 121.876C257.852 121.815 257.871 121.769 257.883 121.738L257.898 121.704L257.901 121.695L257.902 121.693L257.902 121.692C257.902 121.692 257.902 121.692 258.107 121.775L257.902 121.692L257.932 121.619L268.024 116.164ZM258.282 121.932C258.27 121.962 258.254 122.001 258.234 122.047C258.182 122.17 258.106 122.349 258.005 122.578C257.805 123.034 257.508 123.687 257.126 124.474C256.362 126.046 255.252 128.153 253.871 130.291C252.491 132.428 250.837 134.603 248.98 136.305C247.126 138.006 245.052 139.251 242.836 139.495C240.627 139.737 238.452 139.1 236.443 138.026C234.434 136.951 232.578 135.433 230.999 133.891C229.419 132.349 228.11 130.778 227.197 129.594C226.74 129.001 226.382 128.505 226.137 128.156C226.082 128.077 226.032 128.006 225.989 127.943L220.936 139.636C220.94 139.64 220.944 139.644 220.948 139.649C221.016 139.725 221.118 139.838 221.252 139.981C221.522 140.266 221.923 140.673 222.445 141.156C223.491 142.121 225.022 143.386 226.967 144.586C230.855 146.987 236.381 149.121 242.96 148.086C249.506 147.056 253.529 142.173 255.924 137.503C257.12 135.171 257.904 132.902 258.389 131.215C258.631 130.373 258.799 129.676 258.905 129.191C258.959 128.948 258.997 128.758 259.022 128.63C259.034 128.565 259.043 128.516 259.049 128.484C259.051 128.47 259.053 128.459 259.055 128.452C259.057 128.432 259.061 128.411 259.07 128.39L259.836 126.475L259.535 128.265C259.601 128.265 259.681 128.263 259.771 128.258C260.07 128.241 260.481 128.186 260.926 128.039C261.813 127.748 262.838 127.094 263.403 125.631C263.899 124.346 264.042 123.332 264.062 122.645C264.073 122.301 264.052 122.038 264.03 121.864C264.019 121.777 264.007 121.711 263.998 121.669C263.994 121.648 263.991 121.633 263.988 121.623C263.988 121.621 263.987 121.618 263.987 121.617L263.986 121.613L263.986 121.613L263.986 121.612L263.939 121.442L264.095 121.359L264.095 121.359L264.097 121.358L264.107 121.352C264.112 121.35 264.119 121.346 264.128 121.341C264.133 121.338 264.138 121.335 264.144 121.332C264.177 121.313 264.226 121.286 264.289 121.249C264.413 121.177 264.591 121.07 264.801 120.934C265.222 120.661 265.77 120.273 266.286 119.808C266.803 119.342 267.277 118.808 267.56 118.247C267.801 117.769 267.899 117.283 267.781 116.798L258.282 121.932ZM259.497 128.491L259.494 128.509L259.276 128.472C259.494 128.509 259.494 128.509 259.494 128.509L259.494 128.51L259.492 128.521C259.494 128.511 259.496 128.501 259.497 128.491Z" fill="black"/>
<path d="M195.785 122.031C200.095 121.016 201.895 121.001 217.565 121.571C221.394 121.709 225.952 126.524 226.401 130.335C225.182 133.99 219.565 152.041 229.374 166.142C230.767 168.142 231.118 169.771 233.717 171.874C232.256 173.057 227.53 171.65 224.486 172.553C219.43 174.057 219.81 174.249 215.736 174.373C204.957 174.694 201.349 188.987 194.505 187.014C192.31 186.382 190.493 180.111 191.065 175.007C191.573 170.47 191.414 165.6 190.765 160.239C189.006 145.714 186.484 139.412 189.054 131.822C189.818 129.427 190.703 123.229 195.785 122.031Z" fill="#406FDD"/>
<path d="M233.02 134.385C233.02 134.385 224.669 122.299 217.568 121.57L220.099 142.294L233.02 134.385Z" fill="#406FDD"/>
<path d="M183.286 147.842C183.286 147.842 183.888 138.879 186.003 132.581C189.437 122.362 195.591 122.064 195.591 122.064L200.119 147.842H183.283H183.286Z" fill="#406FDD"/>
<path fill-rule="evenodd" clip-rule="evenodd" d="M184.427 147.521L196.966 147.54L197 147.72L196.783 147.761C197 147.72 197 147.72 197 147.72L197.006 147.752L197.024 147.846C197.04 147.928 197.064 148.05 197.094 148.208C197.156 148.523 197.247 148.979 197.362 149.545C197.593 150.677 197.923 152.247 198.32 154C199.116 157.508 200.177 161.734 201.247 164.638C201.774 166.068 202.585 167.215 203.966 167.255L203.967 167.255L212.312 167.526C212.312 167.526 212.312 167.526 212.312 167.526C215.434 167.619 218.534 166.836 221.167 165.165C221.954 164.666 222.825 164.225 223.688 164.008C224.552 163.791 225.428 163.795 226.202 164.213C227.745 165.047 229.41 166.543 230.681 167.818C231.318 168.457 231.86 169.045 232.243 169.474C232.434 169.688 232.586 169.862 232.69 169.983C232.742 170.043 232.782 170.091 232.809 170.123C232.823 170.139 232.833 170.151 232.84 170.159L232.848 170.169L232.851 170.172C232.851 170.172 232.851 170.172 232.681 170.314L232.851 170.172L233.34 170.76L228.306 169.132C226.392 168.514 224.308 168.726 222.557 169.719C222.557 169.719 222.557 169.719 222.557 169.719L219.882 171.236L219.875 171.24L219.781 171.04C219.875 171.24 219.875 171.24 219.874 171.24L219.87 171.242L219.858 171.248C219.847 171.253 219.831 171.26 219.81 171.27C219.767 171.29 219.704 171.319 219.622 171.356C219.458 171.431 219.217 171.539 218.909 171.674C218.292 171.944 217.406 172.32 216.33 172.748C214.177 173.604 211.257 174.665 208.192 175.484C205.131 176.303 201.91 176.885 199.161 176.773C196.418 176.661 194.084 175.854 192.89 173.828C189.073 167.353 185.81 155.482 184.756 147.85L184.427 147.521ZM185.219 147.965C186.294 155.572 189.524 167.247 193.271 173.603C194.35 175.434 196.49 176.221 199.179 176.331C201.862 176.44 205.033 175.871 208.078 175.057C211.12 174.243 214.023 173.189 216.166 172.337C217.238 171.911 218.119 171.537 218.731 171.268C219.038 171.134 219.277 171.027 219.439 170.953C219.521 170.916 219.583 170.888 219.624 170.868C219.645 170.859 219.661 170.851 219.671 170.847L219.679 170.843L222.338 169.334C224.198 168.28 226.41 168.055 228.442 168.711L231.994 169.859C231.968 169.83 231.941 169.8 231.913 169.768C231.534 169.345 230.998 168.763 230.367 168.13C229.102 166.86 227.475 165.404 225.992 164.603C225.347 164.254 224.594 164.237 223.796 164.438C222.996 164.638 222.171 165.053 221.404 165.539C218.691 167.261 215.502 168.064 212.299 167.969L212.298 167.969L203.954 167.697C203.953 167.697 203.953 167.697 203.953 167.697C202.273 167.648 201.367 166.241 200.832 164.791C199.751 161.858 198.684 157.607 197.889 154.098C197.491 152.341 197.16 150.768 196.928 149.633C196.813 149.066 196.722 148.609 196.66 148.293C196.635 148.166 196.615 148.061 196.6 147.982L185.219 147.965Z" fill="black"/>
<path d="M195.733 110.706C199.262 110.202 201.714 106.925 201.209 103.387C200.704 99.848 197.434 97.3875 193.905 97.891C190.376 98.3946 187.924 101.671 188.429 105.21C188.934 108.749 192.204 111.209 195.733 110.706Z" fill="#313036"/>
<path d="M201.266 103.927C201.438 106.889 199.139 109.635 196.476 110.556C195.564 109.273 193.54 104.505 195.874 97.9121C198.788 98.393 201.089 100.847 201.266 103.927Z" fill="#406FDD"/>
<path d="M212.125 102.367C212.68 101.866 215.633 100.677 213.217 97.358C210.801 94.0392 203.14 94.169 200.03 96.1868C196.921 98.2046 196.116 103.521 196.449 106.429C196.782 109.338 198.659 112.91 202.066 114.138C206.072 115.58 210.618 103.736 212.122 102.367H212.125Z" fill="#313036"/>
<path d="M196.656 122.097L196.579 121.811L201.91 120.395C202.697 118.164 202.88 116.852 203.104 114.421C203.125 114.208 203.134 114.09 203.134 114.088L203.14 113.99L203.231 113.958C203.317 113.925 205.367 113.17 205.544 110.848C205.6 110.12 205.166 109.338 204.75 108.583C204.364 107.887 204.001 107.229 204.063 106.656C204.152 105.822 204.812 105.314 205.969 105.187C207.45 105.025 208.795 104.353 209.757 103.296C210.928 102.007 211.883 100.818 212.591 99.7653L212.653 99.6738L212.786 99.6945C213.214 99.8243 214.597 104.919 214.597 107.311C214.597 107.5 214.084 112.332 213.509 113.173C213.264 113.53 212.155 113.498 210.733 113.418C210.382 113.397 209.987 113.377 209.866 113.391C209.65 113.869 210.603 118.816 210.996 120.07L215.987 121.56L215.901 121.843L210.762 120.309L210.739 120.235C210.585 119.781 209.134 113.586 209.689 113.146C209.777 113.076 209.945 113.079 210.748 113.123C211.45 113.161 213.096 113.253 213.264 113.005C213.763 112.282 214.302 107.636 214.302 107.311C214.302 104.996 213.128 100.866 212.739 100.075C212.034 101.105 211.105 102.252 209.978 103.491C208.969 104.6 207.556 105.308 206.004 105.476C204.986 105.589 204.432 105.996 204.358 106.686C204.308 107.164 204.65 107.78 205.01 108.435C205.45 109.229 205.904 110.049 205.842 110.866C205.671 113.096 203.854 114.011 203.423 114.194C203.417 114.25 203.411 114.335 203.402 114.442C203.178 116.869 202.98 118.262 202.163 120.56L202.137 120.634L196.656 122.091V122.097Z" fill="#313036"/>
<path d="M209.951 173.092H264.768C264.768 174.717 263.446 176.039 261.821 176.039H212.898C211.273 176.039 209.951 174.717 209.951 173.092Z" fill="#CADDFF"/>
<path d="M264.771 173.145H233.404L243.369 143.772C243.965 142.851 245.003 142.297 246.121 142.297H272.636C273.839 142.297 274.612 143.465 274.22 144.498C274.064 144.908 273.895 145.315 273.76 145.731L264.768 173.148L264.771 173.145Z" fill="#92B2FC"/>
<path fill-rule="evenodd" clip-rule="evenodd" d="M243.569 143.87L233.73 172.871H264.626L273.549 145.663M233.263 172.871L243.168 143.675L243.183 143.652C243.821 142.667 244.93 142.076 246.121 142.076H272.636C273.991 142.076 274.875 143.396 274.427 144.577C274.384 144.689 274.341 144.8 274.298 144.909C274.182 145.208 274.068 145.501 273.97 145.8L273.97 145.8L265.075 172.924H265.306L264.986 173.244C264.907 174.921 263.518 176.261 261.821 176.261H212.898C211.151 176.261 209.73 174.84 209.73 173.092V172.871H233.263ZM264.464 173.367H233.095L233.113 173.314H210.181C210.294 174.714 211.47 175.818 212.898 175.818H261.821C263.092 175.818 264.163 174.944 264.463 173.765L264.27 173.958L264.464 173.367ZM243.569 143.87C244.126 143.028 245.085 142.519 246.121 142.519H272.636C273.688 142.519 274.349 143.535 274.013 144.419" fill="#313036"/>
<mask id="mask0_137_19356" style="mask-type:luminance" maskUnits="userSpaceOnUse" x="251" y="154" width="9" height="9">
<path d="M259.88 154.9H251.871V162.91H259.88V154.9Z" fill="white"/>
</mask>
<g mask="url(#mask0_137_19356)">
<path d="M256.316 156.059L254.369 161.41C254.301 161.593 254.098 161.743 253.915 161.743H253.735L255.682 156.392C255.75 156.209 255.953 156.059 256.136 156.059H256.316Z" fill="#92B2FC"/>
<path d="M257.074 156.045L255.127 161.396C255.06 161.579 254.856 161.73 254.673 161.73H254.493L256.44 156.378C256.508 156.195 256.712 156.045 256.894 156.045H257.074Z" fill="#406FDD"/>
<path d="M257.806 156.045L255.859 161.396C255.791 161.579 255.588 161.73 255.405 161.73H255.225L257.172 156.378C257.24 156.195 257.443 156.045 257.626 156.045H257.806Z" fill="#204097"/>
</g>
<path d="M263.582 51.7562V51.0423C263.582 50.4759 263.19 49.9832 262.635 49.8593L261.511 49.6056C261.063 49.5053 260.712 49.1543 260.603 48.7088C260.573 48.5879 260.541 48.4699 260.508 48.3519C260.384 47.9094 260.511 47.4374 260.848 47.1247L261.694 46.3429C262.11 45.9594 262.205 45.337 261.921 44.8443L261.564 44.2278C261.281 43.7351 260.694 43.505 260.151 43.6761L259.051 44.0183C258.611 44.154 258.136 44.0301 257.815 43.6968C257.729 43.6083 257.644 43.5227 257.558 43.4401C257.228 43.1215 257.101 42.6436 257.24 42.207L257.585 41.1008C257.753 40.558 257.523 39.9739 257.033 39.6907L256.417 39.3337C255.924 39.0505 255.302 39.1449 254.918 39.5609L254.139 40.4075C253.827 40.7468 253.352 40.8736 252.912 40.7497C252.794 40.7173 252.679 40.6848 252.558 40.6553C252.11 40.5432 251.762 40.1951 251.661 39.7438L251.408 38.6169C251.284 38.0623 250.791 37.6699 250.225 37.6699H249.514C248.947 37.6699 248.455 38.0623 248.331 38.6169L248.077 39.7438C247.977 40.1922 247.626 40.5432 247.18 40.6553C247.062 40.6848 246.944 40.7173 246.826 40.7497C246.384 40.8766 245.909 40.7468 245.599 40.4075L244.82 39.5609C244.434 39.142 243.811 39.0476 243.322 39.3337L242.705 39.6907C242.215 39.9739 241.985 40.5609 242.153 41.1008L242.499 42.207C242.634 42.6466 242.507 43.1215 242.18 43.4401C242.091 43.5257 242.006 43.6112 241.923 43.6968C241.605 44.0272 241.127 44.154 240.687 44.0183L239.587 43.6761C239.044 43.508 238.457 43.7381 238.174 44.2278L237.817 44.8443C237.534 45.334 237.628 45.9565 238.044 46.3429L238.891 47.1276C239.227 47.4403 239.357 47.9123 239.23 48.3548C239.197 48.4728 239.165 48.5908 239.136 48.7118C239.023 49.1602 238.675 49.5083 238.227 49.6086L237.103 49.8623C236.548 49.9862 236.156 50.4788 236.156 51.0452V51.7591C236.156 52.3255 236.548 52.8182 237.103 52.9421L238.227 53.1958C238.675 53.2961 239.026 53.6471 239.136 54.0926C239.165 54.2135 239.197 54.3315 239.23 54.4495C239.354 54.892 239.227 55.364 238.891 55.6767L238.044 56.4585C237.628 56.842 237.534 57.4644 237.817 57.9571L238.174 58.5736C238.457 59.0663 239.044 59.2964 239.587 59.1253L240.687 58.7831C241.127 58.6474 241.602 58.7713 241.923 59.1046C242.009 59.1931 242.094 59.2787 242.18 59.3613C242.51 59.6799 242.637 60.1578 242.499 60.5944L242.153 61.7006C241.985 62.2434 242.215 62.8275 242.705 63.1107L243.322 63.4677C243.814 63.7509 244.437 63.6565 244.82 63.2405L245.599 62.3939C245.912 62.0546 246.387 61.9278 246.826 62.0517C246.944 62.0841 247.059 62.1166 247.18 62.1461C247.629 62.2582 247.977 62.6063 248.077 63.0576L248.331 64.1845C248.455 64.7391 248.947 65.1315 249.514 65.1315H250.225C250.791 65.1315 251.284 64.7391 251.408 64.1845L251.661 63.0576C251.762 62.6092 252.113 62.2582 252.558 62.1461C252.676 62.1166 252.794 62.0841 252.912 62.0517C253.355 61.9248 253.829 62.0546 254.139 62.3939L254.918 63.2405C255.304 63.6594 255.927 63.7538 256.417 63.4677L257.033 63.1107C257.523 62.8275 257.753 62.2405 257.585 61.7006L257.24 60.5944C257.104 60.1548 257.231 59.6799 257.558 59.3613C257.647 59.2757 257.732 59.1902 257.815 59.1046C258.134 58.7742 258.611 58.6474 259.051 58.7831L260.151 59.1253C260.694 59.2934 261.281 59.0633 261.564 58.5736L261.921 57.9571C262.205 57.4674 262.11 56.8449 261.694 56.4585L260.848 55.6767C260.511 55.364 260.381 54.892 260.508 54.4495C260.541 54.3315 260.573 54.2135 260.603 54.0926C260.715 53.6442 261.063 53.2961 261.511 53.1958L262.635 52.9421C263.19 52.8182 263.582 52.3255 263.582 51.7591V51.7562ZM249.868 58.2314C246.098 58.2314 243.044 55.1723 243.044 51.3992C243.044 47.6262 246.1 44.567 249.868 44.567C253.638 44.567 256.691 47.6262 256.691 51.3992C256.691 55.1723 253.635 58.2314 249.868 58.2314Z" fill="#111AE8" stroke="black" stroke-width="0.5" stroke-miterlimit="10"/>
<path d="M318.328 38.7819V36.5222C318.328 35.8555 317.865 35.2773 317.213 35.1298L314.393 34.4926C313.856 34.3716 313.44 33.9527 313.319 33.4188C313.216 32.9615 313.098 32.5131 312.962 32.0706C312.803 31.5485 312.956 30.9791 313.357 30.6104L315.481 28.6457C315.971 28.1914 316.083 27.4598 315.75 26.8845L314.623 24.9287C314.29 24.3505 313.599 24.0791 312.959 24.2797L310.198 25.1411C309.676 25.3033 309.104 25.1529 308.732 24.7517C308.416 24.4124 308.089 24.085 307.75 23.7693C307.348 23.3976 307.198 22.8283 307.36 22.3061L308.222 19.5331C308.419 18.8959 308.151 18.2056 307.573 17.8723L305.623 16.7454C305.044 16.412 304.31 16.5212 303.858 17.0138L301.9 19.1378C301.528 19.542 300.959 19.6954 300.436 19.5331C299.994 19.3974 299.549 19.2794 299.094 19.1762C298.56 19.0552 298.141 18.6363 298.02 18.0994L297.383 15.2733C297.236 14.6214 296.658 14.1582 295.991 14.1582H293.74C293.073 14.1582 292.492 14.6214 292.348 15.2733L291.71 18.0994C291.589 18.6363 291.173 19.0523 290.637 19.1762C290.182 19.2794 289.734 19.3974 289.294 19.5331C288.769 19.6924 288.203 19.539 287.831 19.1378L285.872 17.0138C285.418 16.5212 284.686 16.412 284.108 16.7454L282.158 17.8723C281.58 18.2056 281.312 18.8959 281.509 19.5331L282.371 22.3061C282.533 22.8283 282.382 23.3976 281.981 23.7693C281.642 24.085 281.315 24.4124 280.999 24.7517C280.627 25.1529 280.055 25.3063 279.533 25.1411L276.772 24.2797C276.134 24.082 275.444 24.3505 275.108 24.9287L273.981 26.8845C273.648 27.4627 273.76 28.1943 274.249 28.6457L276.373 30.6104C276.775 30.9821 276.928 31.5485 276.769 32.0706C276.633 32.5131 276.515 32.9645 276.412 33.4188C276.291 33.9557 275.872 34.3716 275.338 34.4926L272.518 35.1298C271.866 35.2773 271.403 35.8555 271.403 36.5222V38.7819C271.403 39.4486 271.866 40.0268 272.518 40.1743L275.338 40.8115C275.875 40.9324 276.291 41.3513 276.412 41.8853C276.515 42.3425 276.633 42.7909 276.769 43.2334C276.928 43.7556 276.775 44.3249 276.373 44.6937L274.249 46.6584C273.76 47.1127 273.648 47.8443 273.981 48.4195L275.108 50.3754C275.441 50.9536 276.131 51.2249 276.772 51.0243L279.533 50.163C280.055 50.0007 280.627 50.1512 280.999 50.5524C281.315 50.8916 281.642 51.2191 281.981 51.5347C282.382 51.9064 282.533 52.4758 282.371 52.9979L281.509 55.7709C281.312 56.4081 281.58 57.0984 282.158 57.4318L284.108 58.5587C284.686 58.892 285.421 58.7829 285.872 58.2902L287.831 56.1662C288.203 55.762 288.772 55.6087 289.294 55.7709C289.737 55.9066 290.182 56.0246 290.637 56.1278C291.171 56.2488 291.589 56.6677 291.71 57.2046L292.348 60.0307C292.495 60.6827 293.073 61.1458 293.74 61.1458H295.991C296.658 61.1458 297.239 60.6827 297.383 60.0307L298.02 57.2046C298.141 56.6677 298.557 56.2517 299.094 56.1278C299.549 56.0246 299.997 55.9066 300.436 55.7709C300.962 55.6116 301.528 55.765 301.9 56.1662L303.858 58.2902C304.313 58.7829 305.044 58.892 305.623 58.5587L307.573 57.4318C308.151 57.0984 308.419 56.4081 308.222 55.7709L307.36 52.9979C307.198 52.4758 307.348 51.9064 307.75 51.5347C308.089 51.2191 308.416 50.8916 308.732 50.5524C309.104 50.1512 309.676 49.9978 310.198 50.163L312.959 51.0243C313.596 51.222 314.287 50.9536 314.623 50.3754L315.75 48.4195C316.083 47.8413 315.971 47.1097 315.481 46.6584L313.357 44.6937C312.956 44.322 312.803 43.7556 312.962 43.2334C313.098 42.7909 313.216 42.3396 313.319 41.8853C313.44 41.3484 313.859 40.9324 314.393 40.8115L317.213 40.1743C317.865 40.0268 318.328 39.4486 318.328 38.7819ZM294.861 49.3458C288.412 49.3458 283.182 44.1096 283.182 37.652C283.182 31.1945 288.409 25.9582 294.861 25.9582C301.313 25.9582 306.54 31.1945 306.54 37.652C306.54 44.1096 301.313 49.3458 294.861 49.3458Z" fill="#99B9FF" stroke="black" stroke-width="0.5" stroke-linecap="round" stroke-linejoin="round"/>
<path d="M380.783 201.207C384.863 202.661 389.358 202.381 393.226 200.431C397.093 198.481 399.996 195.032 401.259 190.885C402.53 186.71 402.029 182.194 399.872 178.4C397.716 174.606 394.093 171.869 389.857 170.833L309 153.821C303.221 152.408 297.345 155.759 295.61 161.455C293.861 167.199 296.932 173.303 302.578 175.317L380.78 201.21L380.783 201.207Z" fill="#313036"/>
<path d="M351.495 208.723C354.566 208.723 357.268 206.693 358.132 203.743L361.292 192.932C361.905 190.828 363.832 189.383 366.021 189.383H405.863C408.722 189.383 411.041 191.704 411.041 194.569V230.285H343.014V213.909C343.014 211.045 345.332 208.723 348.191 208.723H351.495Z" fill="#313036"/>
<path d="M345.622 208.723C348.693 208.723 351.395 206.693 352.259 203.743L355.419 192.932C356.032 190.828 357.959 189.383 360.148 189.383H399.99C402.849 189.383 405.168 191.704 405.168 194.569V230.285H337.141V213.909C337.141 211.045 339.459 208.723 342.318 208.723H345.622Z" fill="#6490F7"/>
<path d="M405.389 230.502H336.919V213.906C336.919 210.923 339.341 208.498 342.318 208.498H345.622C348.575 208.498 351.218 206.516 352.047 203.678L355.206 192.866C355.844 190.683 357.876 189.158 360.148 189.158H399.99C402.967 189.158 405.389 191.583 405.389 194.566V230.502ZM337.362 230.06H404.946V194.566C404.946 191.828 402.722 189.601 399.99 189.601H360.148C358.071 189.601 356.212 190.996 355.631 192.99L352.472 203.802C351.587 206.829 348.773 208.941 345.622 208.941H342.318C339.583 208.941 337.362 211.168 337.362 213.906V230.06Z" fill="#313036"/>
<path d="M379.538 135.12C383.305 133.025 384.771 128.344 382.871 124.47C380.957 120.562 376.296 118.868 372.322 120.638L297.728 153.855C291.937 156.434 289.247 163.163 291.663 169.03C292.934 172.122 295.469 174.523 298.619 175.629C301.773 176.733 305.248 176.438 308.165 174.812L379.535 135.123L379.538 135.12Z" fill="#313036"/>
<path d="M376.148 201.524C380.228 202.979 384.724 202.698 388.591 200.748C392.459 198.798 395.362 195.35 396.624 191.202C397.896 187.025 397.394 182.511 395.238 178.718C393.081 174.924 389.459 172.186 385.222 171.151L304.687 153.817C298.908 152.404 293.032 155.755 291.297 161.451C289.548 167.195 292.619 173.299 298.265 175.313L376.148 201.527V201.524Z" fill="#6490F7"/>
<path d="M381.45 202.657C379.629 202.657 377.809 202.351 376.072 201.734L298.192 175.523C292.416 173.464 289.294 167.257 291.082 161.387C292.852 155.581 298.85 152.162 304.738 153.602L385.27 170.933C389.55 171.98 393.252 174.777 395.43 178.606C397.607 182.435 398.12 187.049 396.837 191.265C395.562 195.448 392.592 198.976 388.692 200.943C386.435 202.082 383.948 202.657 381.452 202.657H381.45ZM302.021 153.717C297.286 153.717 292.941 156.797 291.504 161.517C289.784 167.157 292.787 173.128 298.336 175.104L376.219 201.318C380.222 202.743 384.695 202.466 388.488 200.551C392.282 198.64 395.17 195.209 396.409 191.138C397.657 187.037 397.158 182.55 395.04 178.827C392.922 175.104 389.323 172.385 385.164 171.367L304.632 154.036C303.758 153.823 302.879 153.72 302.018 153.72L302.021 153.717Z" fill="#313036"/>
<path d="M372.594 134.086C374.213 135 376.137 135.21 377.913 134.661C379.688 134.115 381.163 132.858 381.989 131.192C382.898 129.357 383.019 127.227 382.323 125.3C381.627 123.374 380.172 121.817 378.299 120.991L331.919 100.523L327.824 108.789L372.591 134.086H372.594Z" fill="#6490F7"/>
<path d="M375.93 135.179C374.732 135.179 373.541 134.872 372.485 134.276L327.535 108.88L331.819 100.236L378.39 120.789C380.308 121.636 381.818 123.252 382.532 125.226C383.246 127.199 383.122 129.409 382.19 131.291C381.34 133.005 379.806 134.312 377.977 134.872C377.311 135.079 376.617 135.179 375.927 135.179H375.93ZM372.703 133.893C374.26 134.775 376.137 134.976 377.848 134.45C379.559 133.922 380.998 132.701 381.792 131.093C382.671 129.32 382.789 127.238 382.113 125.376C381.441 123.515 380.016 121.99 378.208 121.193L332.022 100.812L328.114 108.7L372.697 133.893H372.703Z" fill="#313036"/>
<path d="M330.276 231.238H417.717V227.332H330.276V231.238Z" fill="#313036"/>
<path d="M328.774 114.123L314.747 108.662L316.455 103.88L323.686 105.868L327.043 99.5554L318.497 95.8089L320.668 90.5137L336.132 96.4697L328.774 114.123ZM315.308 108.405L328.532 113.553L335.548 96.7205L320.913 91.083L319.069 95.5788L327.656 99.343L323.907 106.391L316.729 104.417L315.305 108.405H315.308Z" fill="#313036"/>
</g>
</g>
<defs>
<clipPath id="clip0_137_19356">
<rect width="455" height="260" fill="white"/>
</clipPath>
<clipPath id="clip1_137_19356">
<rect width="236" height="236" fill="white" transform="translate(182 12)"/>
</clipPath>
</defs>
</svg>
