<svg xmlns="http://www.w3.org/2000/svg" width="16" height="16" viewBox="0 0 16 16" fill="none">
  <path d="M8 12C8.22667 12 8.41667 11.9233 8.57 11.77C8.72333 11.6167 8.8 11.4267 8.8 11.2V8C8.8 7.77333 8.72333 7.58333 8.57 7.43C8.41667 7.27667 8.22667 7.2 8 7.2C7.77333 7.2 7.58333 7.27667 7.43 7.43C7.27667 7.58333 7.2 7.77333 7.2 8V11.2C7.2 11.4267 7.27667 11.6167 7.43 11.77C7.58333 11.9233 7.77333 12 8 12ZM8 5.6C8.22667 5.6 8.41667 5.52333 8.57 5.37C8.72333 5.21667 8.8 5.02667 8.8 4.8C8.8 4.57333 8.72333 4.38333 8.57 4.23C8.41667 4.07667 8.22667 4 8 4C7.77333 4 7.58333 4.07667 7.43 4.23C7.27667 4.38333 7.2 4.57333 7.2 4.8C7.2 5.02667 7.27667 5.21667 7.43 5.37C7.58333 5.52333 7.77333 5.6 8 5.6ZM8 16C6.89333 16 5.85333 15.79 4.88 15.37C3.90667 14.95 3.06 14.38 2.34 13.66C1.62 12.94 1.05 12.0933 0.63 11.12C0.21 10.1467 0 9.10667 0 8C0 6.89333 0.21 5.85333 0.63 4.88C1.05 3.90667 1.62 3.06 2.34 2.34C3.06 1.62 3.90667 1.05 4.88 0.63C5.85333 0.21 6.89333 0 8 0C9.10667 0 10.1467 0.21 11.12 0.63C12.0933 1.05 12.94 1.62 13.66 2.34C14.38 3.06 14.95 3.90667 15.37 4.88C15.79 5.85333 16 6.89333 16 8C16 9.10667 15.79 10.1467 15.37 11.12C14.95 12.0933 14.38 12.94 13.66 13.66C12.94 14.38 12.0933 14.95 11.12 15.37C10.1467 15.79 9.10667 16 8 16ZM8 14.4C9.78667 14.4 11.3 13.78 12.54 12.54C13.78 11.3 14.4 9.78667 14.4 8C14.4 6.21333 13.78 4.7 12.54 3.46C11.3 2.22 9.78667 1.6 8 1.6C6.21333 1.6 4.7 2.22 3.46 3.46C2.22 4.7 1.6 6.21333 1.6 8C1.6 9.78667 2.22 11.3 3.46 12.54C4.7 13.78 6.21333 14.4 8 14.4Z" fill="#C0C0C0"/>
</svg>