<svg width="17" height="16" viewBox="0 0 17 16" fill="none" xmlns="http://www.w3.org/2000/svg">
<g id="info">
<mask id="mask0_1197_9780" style="mask-type:alpha" maskUnits="userSpaceOnUse" x="0" y="0" width="17" height="16">
<rect id="Bounding box" x="0.5" width="16" height="16" fill="#D9D9D9"/>
</mask>
<g mask="url(#mask0_1197_9780)">
<path id="info_2" d="M8.49992 11.3335C8.68881 11.3335 8.84714 11.2696 8.97492 11.1418C9.1027 11.0141 9.16659 10.8557 9.16659 10.6668V8.00016C9.16659 7.81127 9.1027 7.65294 8.97492 7.52516C8.84714 7.39739 8.68881 7.3335 8.49992 7.3335C8.31103 7.3335 8.1527 7.39739 8.02492 7.52516C7.89714 7.65294 7.83325 7.81127 7.83325 8.00016V10.6668C7.83325 10.8557 7.89714 11.0141 8.02492 11.1418C8.1527 11.2696 8.31103 11.3335 8.49992 11.3335ZM8.49992 6.00016C8.68881 6.00016 8.84714 5.93627 8.97492 5.8085C9.1027 5.68072 9.16659 5.52239 9.16659 5.3335C9.16659 5.14461 9.1027 4.98627 8.97492 4.8585C8.84714 4.73072 8.68881 4.66683 8.49992 4.66683C8.31103 4.66683 8.1527 4.73072 8.02492 4.8585C7.89714 4.98627 7.83325 5.14461 7.83325 5.3335C7.83325 5.52239 7.89714 5.68072 8.02492 5.8085C8.1527 5.93627 8.31103 6.00016 8.49992 6.00016ZM8.49992 14.6668C7.5777 14.6668 6.71103 14.4918 5.89992 14.1418C5.08881 13.7918 4.38325 13.3168 3.78325 12.7168C3.18325 12.1168 2.70825 11.4113 2.35825 10.6002C2.00825 9.78905 1.83325 8.92239 1.83325 8.00016C1.83325 7.07794 2.00825 6.21127 2.35825 5.40016C2.70825 4.58905 3.18325 3.8835 3.78325 3.2835C4.38325 2.6835 5.08881 2.2085 5.89992 1.8585C6.71103 1.5085 7.5777 1.3335 8.49992 1.3335C9.42214 1.3335 10.2888 1.5085 11.0999 1.8585C11.911 2.2085 12.6166 2.6835 13.2166 3.2835C13.8166 3.8835 14.2916 4.58905 14.6416 5.40016C14.9916 6.21127 15.1666 7.07794 15.1666 8.00016C15.1666 8.92239 14.9916 9.78905 14.6416 10.6002C14.2916 11.4113 13.8166 12.1168 13.2166 12.7168C12.6166 13.3168 11.911 13.7918 11.0999 14.1418C10.2888 14.4918 9.42214 14.6668 8.49992 14.6668ZM8.49992 13.3335C9.98881 13.3335 11.2499 12.8168 12.2833 11.7835C13.3166 10.7502 13.8333 9.48905 13.8333 8.00016C13.8333 6.51127 13.3166 5.25016 12.2833 4.21683C11.2499 3.1835 9.98881 2.66683 8.49992 2.66683C7.01103 2.66683 5.74992 3.1835 4.71659 4.21683C3.68325 5.25016 3.16659 6.51127 3.16659 8.00016C3.16659 9.48905 3.68325 10.7502 4.71659 11.7835C5.74992 12.8168 7.01103 13.3335 8.49992 13.3335Z" fill="#2D2E34"/>
</g>
</g>
</svg>
