<svg width="16" height="16" viewBox="0 0 16 16" fill="none" xmlns="http://www.w3.org/2000/svg">
<g id="Group">
<path id="Vector" d="M12.25 0H3.75C1.67893 0 0 1.67893 0 3.75V12.25C0 14.3211 1.67893 16 3.75 16H12.25C14.3211 16 16 14.3211 16 12.25V3.75C16 1.67893 14.3211 0 12.25 0Z" fill="#F0DB4F"/>
<path id="Vector_2" d="M4.20709 13.371L5.43147 12.63C5.66772 13.0488 5.88259 13.4031 6.39803 13.4031C6.89209 13.4031 7.20359 13.2099 7.20359 12.4581V7.34577H8.70722V12.4794C8.70722 14.0367 7.79434 14.7456 6.46247 14.7456C5.25966 14.7456 4.56147 14.1226 4.20703 13.3708M9.52391 13.2098L10.7482 12.501C11.0705 13.0273 11.4893 13.414 12.2303 13.414C12.8534 13.414 13.2507 13.1025 13.2507 12.6728C13.2507 12.1573 12.8425 11.9747 12.1552 11.6741L11.7793 11.5129C10.6945 11.0511 9.97491 10.4711 9.97491 9.24677C9.97491 8.11902 10.8342 7.25977 12.1767 7.25977C13.1326 7.25977 13.82 7.59277 14.314 8.4627L13.1433 9.21452C12.8855 8.7527 12.6063 8.57014 12.1767 8.57014C11.7363 8.57014 11.4571 8.84939 11.4571 9.21452C11.4571 9.66558 11.7363 9.8482 12.3807 10.1275L12.7566 10.2886C14.0347 10.8364 14.7543 11.3948 14.7543 12.6513C14.7543 14.0047 13.691 14.7457 12.2626 14.7457C10.8664 14.7457 9.96422 14.0798 9.52391 13.2098Z" fill="#323330"/>
</g>
</svg>
