
<svg width="35" height="26" viewBox="0 0 35 26" fill="none" xmlns="http://www.w3.org/2000/svg">
<rect x="1.1" y="0.6" width="32.8" height="24.8" rx="12.4" fill="white"/>
<rect x="1.1" y="0.6" width="32.8" height="24.8" rx="12.4" stroke="#666666" stroke-width="1.2"/>
<mask id="mask0_1513_23568" style="mask-type:alpha" maskUnits="userSpaceOnUse" x="8" y="4" width="19" height="18">
<rect x="8.5" y="4" width="18" height="18" fill="#D9D9D9"/>
</mask>
<g mask="url(#mask0_1513_23568)">
<path d="M11.5 18.25C11.2875 18.25 11.1094 18.1781 10.9656 18.0344C10.8219 17.8906 10.75 17.7125 10.75 17.5C10.75 17.2875 10.8219 17.1094 10.9656 16.9656C11.1094 16.8219 11.2875 16.75 11.5 16.75H14.5C14.7125 16.75 14.8906 16.8219 15.0344 16.9656C15.1781 17.1094 15.25 17.2875 15.25 17.5C15.25 17.7125 15.1781 17.8906 15.0344 18.0344C14.8906 18.1781 14.7125 18.25 14.5 18.25H11.5ZM11.5 9.25C11.2875 9.25 11.1094 9.17813 10.9656 9.03438C10.8219 8.89063 10.75 8.7125 10.75 8.5C10.75 8.2875 10.8219 8.10938 10.9656 7.96563C11.1094 7.82188 11.2875 7.75 11.5 7.75L17.5 7.75C17.7125 7.75 17.8906 7.82188 18.0344 7.96563C18.1781 8.10938 18.25 8.2875 18.25 8.5C18.25 8.7125 18.1781 8.89063 18.0344 9.03438C17.8906 9.17813 17.7125 9.25 17.5 9.25H11.5ZM17.5 19.75C17.2875 19.75 17.1094 19.6781 16.9656 19.5344C16.8219 19.3906 16.75 19.2125 16.75 19V16C16.75 15.7875 16.8219 15.6094 16.9656 15.4656C17.1094 15.3219 17.2875 15.25 17.5 15.25C17.7125 15.25 17.8906 15.3219 18.0344 15.4656C18.1781 15.6094 18.25 15.7875 18.25 16V16.75H23.5C23.7125 16.75 23.8906 16.8219 24.0344 16.9656C24.1781 17.1094 24.25 17.2875 24.25 17.5C24.25 17.7125 24.1781 17.8906 24.0344 18.0344C23.8906 18.1781 23.7125 18.25 23.5 18.25H18.25V19C18.25 19.2125 18.1781 19.3906 18.0344 19.5344C17.8906 19.6781 17.7125 19.75 17.5 19.75ZM14.5 15.25C14.2875 15.25 14.1094 15.1781 13.9656 15.0344C13.8219 14.8906 13.75 14.7125 13.75 14.5V13.75H11.5C11.2875 13.75 11.1094 13.6781 10.9656 13.5344C10.8219 13.3906 10.75 13.2125 10.75 13C10.75 12.7875 10.8219 12.6094 10.9656 12.4656C11.1094 12.3219 11.2875 12.25 11.5 12.25H13.75V11.5C13.75 11.2875 13.8219 11.1094 13.9656 10.9656C14.1094 10.8219 14.2875 10.75 14.5 10.75C14.7125 10.75 14.8906 10.8219 15.0344 10.9656C15.1781 11.1094 15.25 11.2875 15.25 11.5V14.5C15.25 14.7125 15.1781 14.8906 15.0344 15.0344C14.8906 15.1781 14.7125 15.25 14.5 15.25ZM17.5 13.75C17.2875 13.75 17.1094 13.6781 16.9656 13.5344C16.8219 13.3906 16.75 13.2125 16.75 13C16.75 12.7875 16.8219 12.6094 16.9656 12.4656C17.1094 12.3219 17.2875 12.25 17.5 12.25L23.5 12.25C23.7125 12.25 23.8906 12.3219 24.0344 12.4656C24.1781 12.6094 24.25 12.7875 24.25 13C24.25 13.2125 24.1781 13.3906 24.0344 13.5344C23.8906 13.6781 23.7125 13.75 23.5 13.75L17.5 13.75ZM20.5 10.75C20.2875 10.75 20.1094 10.6781 19.9656 10.5344C19.8219 10.3906 19.75 10.2125 19.75 10V7C19.75 6.7875 19.8219 6.60937 19.9656 6.46562C20.1094 6.32187 20.2875 6.25 20.5 6.25C20.7125 6.25 20.8906 6.32187 21.0344 6.46562C21.1781 6.60937 21.25 6.7875 21.25 7V7.75H23.5C23.7125 7.75 23.8906 7.82188 24.0344 7.96563C24.1781 8.10938 24.25 8.2875 24.25 8.5C24.25 8.7125 24.1781 8.89063 24.0344 9.03438C23.8906 9.17813 23.7125 9.25 23.5 9.25H21.25V10C21.25 10.2125 21.1781 10.3906 21.0344 10.5344C20.8906 10.6781 20.7125 10.75 20.5 10.75Z" fill="#464646"/>
</g>
</svg>
