
<svg width="34" height="26" viewBox="0 0 34 26" fill="none" xmlns="http://www.w3.org/2000/svg">
<rect x="0.6" y="0.6" width="32.8" height="24.8" rx="12.4" fill="white"/>
<rect x="0.6" y="0.6" width="32.8" height="24.8" rx="12.4" stroke="#2791FF" stroke-width="1.2"/>
<mask id="mask0_1523_20506" style="mask-type:alpha" maskUnits="userSpaceOnUse" x="8" y="4" width="18" height="18">
<rect x="8" y="4" width="18" height="18" fill="#D9D9D9"/>
</mask>
<g mask="url(#mask0_1523_20506)">
<path d="M11 18.25C10.7875 18.25 10.6094 18.1781 10.4656 18.0344C10.3219 17.8906 10.25 17.7125 10.25 17.5C10.25 17.2875 10.3219 17.1094 10.4656 16.9656C10.6094 16.8219 10.7875 16.75 11 16.75H14C14.2125 16.75 14.3906 16.8219 14.5344 16.9656C14.6781 17.1094 14.75 17.2875 14.75 17.5C14.75 17.7125 14.6781 17.8906 14.5344 18.0344C14.3906 18.1781 14.2125 18.25 14 18.25H11ZM11 9.25C10.7875 9.25 10.6094 9.17813 10.4656 9.03438C10.3219 8.89062 10.25 8.7125 10.25 8.5C10.25 8.2875 10.3219 8.10938 10.4656 7.96563C10.6094 7.82188 10.7875 7.75 11 7.75L17 7.75C17.2125 7.75 17.3906 7.82188 17.5344 7.96563C17.6781 8.10938 17.75 8.2875 17.75 8.5C17.75 8.7125 17.6781 8.89062 17.5344 9.03438C17.3906 9.17813 17.2125 9.25 17 9.25H11ZM17 19.75C16.7875 19.75 16.6094 19.6781 16.4656 19.5344C16.3219 19.3906 16.25 19.2125 16.25 19V16C16.25 15.7875 16.3219 15.6094 16.4656 15.4656C16.6094 15.3219 16.7875 15.25 17 15.25C17.2125 15.25 17.3906 15.3219 17.5344 15.4656C17.6781 15.6094 17.75 15.7875 17.75 16V16.75H23C23.2125 16.75 23.3906 16.8219 23.5344 16.9656C23.6781 17.1094 23.75 17.2875 23.75 17.5C23.75 17.7125 23.6781 17.8906 23.5344 18.0344C23.3906 18.1781 23.2125 18.25 23 18.25H17.75V19C17.75 19.2125 17.6781 19.3906 17.5344 19.5344C17.3906 19.6781 17.2125 19.75 17 19.75ZM14 15.25C13.7875 15.25 13.6094 15.1781 13.4656 15.0344C13.3219 14.8906 13.25 14.7125 13.25 14.5V13.75H11C10.7875 13.75 10.6094 13.6781 10.4656 13.5344C10.3219 13.3906 10.25 13.2125 10.25 13C10.25 12.7875 10.3219 12.6094 10.4656 12.4656C10.6094 12.3219 10.7875 12.25 11 12.25H13.25V11.5C13.25 11.2875 13.3219 11.1094 13.4656 10.9656C13.6094 10.8219 13.7875 10.75 14 10.75C14.2125 10.75 14.3906 10.8219 14.5344 10.9656C14.6781 11.1094 14.75 11.2875 14.75 11.5V14.5C14.75 14.7125 14.6781 14.8906 14.5344 15.0344C14.3906 15.1781 14.2125 15.25 14 15.25ZM17 13.75C16.7875 13.75 16.6094 13.6781 16.4656 13.5344C16.3219 13.3906 16.25 13.2125 16.25 13C16.25 12.7875 16.3219 12.6094 16.4656 12.4656C16.6094 12.3219 16.7875 12.25 17 12.25L23 12.25C23.2125 12.25 23.3906 12.3219 23.5344 12.4656C23.6781 12.6094 23.75 12.7875 23.75 13C23.75 13.2125 23.6781 13.3906 23.5344 13.5344C23.3906 13.6781 23.2125 13.75 23 13.75L17 13.75ZM20 10.75C19.7875 10.75 19.6094 10.6781 19.4656 10.5344C19.3219 10.3906 19.25 10.2125 19.25 10V7C19.25 6.7875 19.3219 6.60937 19.4656 6.46562C19.6094 6.32187 19.7875 6.25 20 6.25C20.2125 6.25 20.3906 6.32187 20.5344 6.46562C20.6781 6.60937 20.75 6.7875 20.75 7V7.75H23C23.2125 7.75 23.3906 7.82188 23.5344 7.96563C23.6781 8.10938 23.75 8.2875 23.75 8.5C23.75 8.7125 23.6781 8.89062 23.5344 9.03438C23.3906 9.17813 23.2125 9.25 23 9.25H20.75V10C20.75 10.2125 20.6781 10.3906 20.5344 10.5344C20.3906 10.6781 20.2125 10.75 20 10.75Z" fill="#2791FF"/>
</g>
</svg>
