<svg width="28" height="80" viewBox="0 0 28 80" fill="none" xmlns="http://www.w3.org/2000/svg">
<path d="M20 1L20 30" stroke="#C0C0C0" stroke-linecap="round" stroke-dasharray="2 2"/>
<mask id="mask0_2275_17458" style="mask-type:alpha" maskUnits="userSpaceOnUse" x="12" y="32" width="16" height="16">
<rect x="12" y="32" width="16" height="16" fill="#D9D9D9"/>
</mask>
<g mask="url(#mask0_2275_17458)">
<path d="M16.6666 46C16.3 46 15.9861 45.8694 15.725 45.6083C15.4638 45.3472 15.3333 45.0333 15.3333 44.6667L15.3333 36C15.1444 36 14.9861 35.9361 14.8583 35.8083C14.7305 35.6806 14.6666 35.5222 14.6666 35.3333C14.6666 35.1444 14.7305 34.9861 14.8583 34.8583C14.9861 34.7306 15.1444 34.6667 15.3333 34.6667H18C18 34.4778 18.0638 34.3194 18.1916 34.1917C18.3194 34.0639 18.4777 34 18.6666 34H21.3333C21.5222 34 21.6805 34.0639 21.8083 34.1917C21.9361 34.3194 22 34.4778 22 34.6667H24.6666C24.8555 34.6667 25.0138 34.7306 25.1416 34.8583C25.2694 34.9861 25.3333 35.1444 25.3333 35.3333C25.3333 35.5222 25.2694 35.6806 25.1416 35.8083C25.0138 35.9361 24.8555 36 24.6666 36V44.6667C24.6666 45.0333 24.5361 45.3472 24.275 45.6083C24.0138 45.8694 23.7 46 23.3333 46H16.6666ZM23.3333 36H16.6666V44.6667H23.3333V36ZM20 41.2667L21.2666 42.5333C21.3888 42.6556 21.5444 42.7167 21.7333 42.7167C21.9222 42.7167 22.0777 42.6556 22.2 42.5333C22.3222 42.4111 22.3833 42.2556 22.3833 42.0667C22.3833 41.8778 22.3222 41.7222 22.2 41.6L20.9333 40.3333L22.2 39.0667C22.3222 38.9444 22.3833 38.7889 22.3833 38.6C22.3833 38.4111 22.3222 38.2556 22.2 38.1333C22.0777 38.0111 21.9222 37.95 21.7333 37.95C21.5444 37.95 21.3888 38.0111 21.2666 38.1333L20 39.4L18.7333 38.1333C18.6111 38.0111 18.4555 37.95 18.2666 37.95C18.0777 37.95 17.9222 38.0111 17.8 38.1333C17.6777 38.2556 17.6166 38.4111 17.6166 38.6C17.6166 38.7889 17.6777 38.9444 17.8 39.0667L19.0666 40.3333L17.8 41.6C17.6777 41.7222 17.6166 41.8778 17.6166 42.0667C17.6166 42.2556 17.6777 42.4111 17.8 42.5333C17.9222 42.6556 18.0777 42.7167 18.2666 42.7167C18.4555 42.7167 18.6111 42.6556 18.7333 42.5333L20 41.2667Z" fill="#D71E28"/>
</g>
<path d="M20 50L20 79" stroke="#C0C0C0" stroke-linecap="round" stroke-dasharray="2 2"/>
</svg>
