<svg width="28" height="79" viewBox="0 0 28 79" fill="none" xmlns="http://www.w3.org/2000/svg">
<path d="M20 0L20 29" stroke="#C0C0C0" stroke-linecap="round" stroke-dasharray="2 2"/>
<mask id="mask0_2275_17351" style="mask-type:alpha" maskUnits="userSpaceOnUse" x="12" y="31" width="16" height="16">
<rect x="12" y="31" width="16" height="16" fill="#D9D9D9"/>
</mask>
<g mask="url(#mask0_2275_17351)">
<path d="M19.0667 40.2L17.6334 38.7667C17.5112 38.6445 17.3556 38.5834 17.1667 38.5834C16.9778 38.5834 16.8223 38.6445 16.7 38.7667C16.5778 38.8889 16.5167 39.0445 16.5167 39.2334C16.5167 39.4223 16.5778 39.5778 16.7 39.7L18.6 41.6C18.7334 41.7334 18.8889 41.8 19.0667 41.8C19.2445 41.8 19.4 41.7334 19.5334 41.6L23.3 37.8334C23.4223 37.7112 23.4834 37.5556 23.4834 37.3667C23.4834 37.1778 23.4223 37.0223 23.3 36.9C23.1778 36.7778 23.0223 36.7167 22.8334 36.7167C22.6445 36.7167 22.4889 36.7778 22.3667 36.9L19.0667 40.2ZM20 45.6667C19.0778 45.6667 18.2112 45.4917 17.4 45.1417C16.5889 44.7917 15.8834 44.3167 15.2834 43.7167C14.6834 43.1167 14.2084 42.4112 13.8584 41.6C13.5084 40.7889 13.3334 39.9223 13.3334 39C13.3334 38.0778 13.5084 37.2112 13.8584 36.4C14.2084 35.5889 14.6834 34.8834 15.2834 34.2834C15.8834 33.6834 16.5889 33.2084 17.4 32.8584C18.2112 32.5084 19.0778 32.3334 20 32.3334C20.9223 32.3334 21.7889 32.5084 22.6 32.8584C23.4112 33.2084 24.1167 33.6834 24.7167 34.2834C25.3167 34.8834 25.7917 35.5889 26.1417 36.4C26.4917 37.2112 26.6667 38.0778 26.6667 39C26.6667 39.9223 26.4917 40.7889 26.1417 41.6C25.7917 42.4112 25.3167 43.1167 24.7167 43.7167C24.1167 44.3167 23.4112 44.7917 22.6 45.1417C21.7889 45.4917 20.9223 45.6667 20 45.6667Z" fill="#008558"/>
</g>
<path d="M20 49L20 78" stroke="#C0C0C0" stroke-linecap="round" stroke-dasharray="2 2"/>
</svg>
