<svg width="138" height="22" viewBox="0 0 138 22" fill="none" xmlns="http://www.w3.org/2000/svg">
<g id="Layer 1">
<g id="Group">
<g id="Group_2">
<path id="Vector" d="M106.91 0.0742188C106.268 0.0742188 105.724 0.54587 105.635 1.18272L105.048 5.35575C104.236 5.1307 103.33 5.01339 102.324 5.01339C100.539 5.01339 98.9602 5.36772 97.5898 6.07879C96.2194 6.78986 95.1053 7.78104 94.2476 9.05474C94.159 9.18881 94.0727 9.32528 93.9913 9.46175C93.9362 9.06432 93.8427 8.68604 93.7086 8.32931C93.3636 7.40276 92.7982 6.67254 92.0123 6.14104C91.2265 5.60953 90.2514 5.34378 89.087 5.34378C87.9226 5.34378 86.7822 5.64066 85.7975 6.23202C84.8104 6.82338 84.0653 7.64218 83.5622 8.68364H83.3897L83.8282 5.55686H79.3503C78.6987 5.55686 78.1452 6.0357 78.0566 6.68212L77.5415 10.3452C77.5175 10.2135 77.4936 10.0842 77.4648 9.95734C77.2252 8.91588 76.8012 8.02764 76.1902 7.29742C75.5793 6.56481 74.7959 6.00697 73.8447 5.6215C72.8936 5.23604 71.7939 5.04451 70.5504 5.04451C68.8494 5.04451 67.3257 5.39885 65.9768 6.10513C64.6279 6.81141 63.5211 7.8002 62.6562 9.0715C61.7913 10.3428 61.2402 11.8272 61.0007 13.5246C60.7515 15.2939 60.8785 16.8142 61.384 18.0807C61.8871 19.3473 62.7257 20.3193 63.8996 20.9921C65.0736 21.6672 66.5374 22.0048 68.2936 22.0048C69.8149 22.0048 71.1782 21.775 72.3809 21.3153C73.5836 20.8556 74.5922 20.2068 75.402 19.3664C75.8213 18.9307 76.1783 18.4542 76.4729 17.9395L75.9003 22.0048H81.8133L83.1142 12.7561C83.1981 12.2126 83.3634 11.7482 83.6101 11.3579C83.8569 10.9701 84.1756 10.6684 84.5661 10.4577C84.9566 10.247 85.395 10.1417 85.879 10.1417C86.6217 10.1417 87.1703 10.3739 87.5225 10.8384C87.8747 11.3029 87.9897 11.9421 87.8699 12.7537L86.569 22.0024H92.4819L93.0401 18.0377C93.5433 19.2587 94.3626 20.2187 95.5006 20.9083C96.6722 21.6193 98.1504 21.9737 99.9353 21.9737C100.942 21.9737 101.881 21.8564 102.755 21.6313L102.703 22.0024H108.615L109.272 17.3386L110.151 11.0826L111.704 0.0742188H106.91ZM67.6539 10.3404C67.9438 9.98368 68.3032 9.70356 68.732 9.50005C69.1609 9.29655 69.6137 9.196 70.0928 9.196C70.572 9.196 71.0128 9.29655 71.3722 9.50005C71.734 9.70356 72.0047 9.98607 72.1844 10.3452C72.3665 10.7067 72.4264 11.1209 72.3689 11.5926H67.0981C67.1795 11.1137 67.364 10.6971 67.6539 10.3404ZM71.7364 16.3881C71.5783 16.6945 71.3626 16.9579 71.0895 17.1758C70.8164 17.3936 70.5025 17.5588 70.1456 17.6737C69.791 17.7887 69.41 17.8461 69.0027 17.8461C68.4182 17.8461 67.9342 17.7288 67.5533 17.4918C67.1723 17.2572 66.8992 16.9315 66.7363 16.5174C66.5734 16.1032 66.5278 15.6315 66.6021 15.1048L66.6381 14.8486H76.9042L76.6886 16.3905H71.7364V16.3881ZM101.962 17.0967C101.55 17.4319 101.095 17.5995 100.594 17.5995C100.065 17.5995 99.6359 17.4319 99.3052 17.0967C98.9746 16.7616 98.7518 16.2827 98.6392 15.6626C98.5266 15.0426 98.5314 14.3028 98.6512 13.4456C98.7734 12.5813 98.977 11.8416 99.2645 11.2239C99.552 10.6062 99.9066 10.1297 100.333 9.79454C100.76 9.45935 101.236 9.29176 101.763 9.29176C102.264 9.29176 102.671 9.45935 102.99 9.79454C103.306 10.1297 103.522 10.6062 103.635 11.2239C103.747 11.8416 103.742 12.5813 103.623 13.4456C103.503 14.3028 103.299 15.0402 103.012 15.6626C102.724 16.2827 102.374 16.7616 101.965 17.0967H101.962Z" fill="white"/>
<path id="Vector_2" d="M65.1523 5.03016H58.511L53.269 11.0826H53.0557L54.3926 1.57538C54.5028 0.7853 53.8895 0.0790209 53.0893 0.0790209H48.6881L47.4854 8.63099C46.9751 7.57516 46.206 6.73481 45.1782 6.10993C44.0067 5.39886 42.5284 5.04452 40.7435 5.04452C38.9586 5.04452 37.3798 5.39886 36.0094 6.10993C34.7635 6.75396 33.7333 7.63501 32.9116 8.74351C32.4012 7.63501 31.6178 6.75396 30.5541 6.10993C29.3825 5.39886 27.9043 5.04452 26.1194 5.04452C24.3345 5.04452 22.7556 5.39886 21.3852 6.10993C20.0148 6.821 18.9007 7.81218 18.043 9.08588C17.9879 9.16728 17.9376 9.25347 17.8849 9.33727C17.8561 9.25347 17.8298 9.16728 17.7962 9.08588C17.2979 7.81218 16.4618 6.821 15.2902 6.10993C14.1186 5.39886 12.6404 5.04452 10.8555 5.04452C9.93552 5.04452 9.07063 5.14029 8.25844 5.32943L8.78792 1.5634C8.89812 0.775724 8.28719 0.0718384 7.49177 0.0718384H3.08344L1.35365 12.3755C1.265 12.7466 1.19073 13.1296 1.13562 13.5223C1.08052 13.9173 1.04698 14.298 1.0326 14.6691L0 21.9952H5.91292L5.95125 21.7151C6.70833 21.9042 7.54688 22 8.46688 22C10.2518 22 11.8306 21.6457 13.201 20.9346C14.5715 20.2235 15.6855 19.2324 16.5432 17.9587C16.5983 17.8773 16.6486 17.7911 16.7014 17.7073C16.7301 17.7911 16.7565 17.8773 16.79 17.9587C17.2883 19.2324 18.1245 20.2235 19.296 20.9346C20.4676 21.6457 21.9458 22 23.7307 22C25.5156 22 27.0945 21.6457 28.4649 20.9346C29.7083 20.2906 30.7409 19.4095 31.5627 18.301C32.073 19.4095 32.8565 20.2906 33.9202 20.9346C35.0918 21.6457 36.57 22 38.3549 22C40.1398 22 41.7186 21.6457 43.0891 20.9346C44.2918 20.3121 45.298 19.4718 46.1054 18.4136L45.6023 22H51.5152L52.1717 17.3362L53.2162 16.2061L55.7582 22H62.5289L58.0606 12.7633L65.1499 5.03016H65.1523ZM12.1541 13.4792C12.0343 14.3363 11.8306 15.0737 11.5431 15.6962C11.2556 16.3163 10.9058 16.7951 10.4961 17.1303C10.0841 17.4655 9.62885 17.6331 9.12812 17.6331C8.59865 17.6331 8.16979 17.4655 7.83917 17.1303C7.50854 16.7951 7.28573 16.3163 7.17312 15.6962C7.06052 15.0761 7.06531 14.3363 7.1851 13.4792C7.30729 12.6149 7.51094 11.8751 7.79844 11.2574C8.08594 10.6397 8.44052 10.1633 8.86698 9.82807C9.29344 9.49289 9.77021 9.32529 10.2973 9.32529C10.798 9.32529 11.2053 9.49289 11.524 9.82807C11.8402 10.1633 12.0558 10.6397 12.1684 11.2574C12.281 11.8751 12.2762 12.6149 12.1565 13.4792H12.1541ZM27.4203 13.4792C27.3005 14.3363 27.0969 15.0737 26.8094 15.6962C26.5219 16.3163 26.1721 16.7951 25.7624 17.1303C25.3503 17.4655 24.8951 17.6331 24.3944 17.6331C23.8649 17.6331 23.436 17.4655 23.1054 17.1303C22.7748 16.7951 22.552 16.3163 22.4394 15.6962C22.3268 15.0761 22.3316 14.3363 22.4514 13.4792C22.5735 12.6149 22.7772 11.8751 23.0647 11.2574C23.3522 10.6397 23.7068 10.1633 24.1332 9.82807C24.5597 9.49289 25.0365 9.32529 25.5635 9.32529C26.0643 9.32529 26.4716 9.49289 26.7902 9.82807C27.1065 10.1633 27.3221 10.6397 27.4347 11.2574C27.5473 11.8751 27.5425 12.6149 27.4227 13.4792H27.4203ZM42.0445 13.4792C41.9247 14.3363 41.721 15.0737 41.4335 15.6962C41.146 16.3163 40.7962 16.7951 40.3866 17.1303C39.9745 17.4655 39.5193 17.6331 39.0185 17.6331C38.4891 17.6331 38.0602 17.4655 37.7296 17.1303C37.399 16.7951 37.1761 16.3163 37.0635 15.6962C36.9509 15.0761 36.9557 14.3363 37.0755 13.4792C37.1977 12.6149 37.4014 11.8751 37.6889 11.2574C37.9764 10.6397 38.3309 10.1633 38.7574 9.82807C39.1839 9.49289 39.6606 9.32529 40.1877 9.32529C40.6884 9.32529 41.0957 9.49289 41.4144 9.82807C41.7306 10.1633 41.9463 10.6397 42.0589 11.2574C42.1715 11.8751 42.1667 12.6149 42.0469 13.4792H42.0445Z" fill="white"/>
</g>
<path id="Vector_3" d="M136.713 21.9545C137.422 21.9545 138 21.3799 138 20.6688V0.27533H137.82C136.826 0.27533 136.021 1.07977 136.021 2.07335V17.6067L129.727 0.320819H129.408C128.328 0.320819 127.362 0.995974 126.991 2.0111L119.715 21.9976H120.52C121.282 21.9976 121.96 21.5188 122.216 20.8005L124.116 15.4663H133.215L135.539 21.9976L136.711 21.9521L136.713 21.9545ZM124.748 13.6922L128.591 2.89455H128.74L132.583 13.6922H124.748Z" fill="white"/>
<g id="Group_3">
<path id="Vector_4" d="M120.393 0.0646362L112.872 20.7143C112.614 21.423 111.828 22 111.119 22H110.424L117.944 1.3503C118.203 0.64163 118.989 0.0646362 119.698 0.0646362H120.393Z" fill="#F5F9FF"/>
<path id="Vector_5" d="M123.317 0L115.796 20.6497C115.537 21.3584 114.752 21.9354 114.042 21.9354H113.348L120.868 1.28567C121.127 0.576994 121.913 0 122.622 0L123.317 0Z" fill="#92B2FC"/>
<path id="Vector_6" d="M126.145 0L118.624 20.6497C118.366 21.3584 117.58 21.9354 116.871 21.9354H116.176L123.696 1.28567C123.955 0.576994 124.741 0 125.45 0L126.145 0Z" fill="#204097"/>
</g>
</g>
</g>
</svg>
