<svg width="24" height="24" viewBox="0 0 24 24" fill="none" xmlns="http://www.w3.org/2000/svg">
<g clip-path="url(#clip0_267_3379)">
<path d="M11.9602 21.967H2.99002C2.43984 21.967 1.99336 21.5205 1.99336 20.9703V3.0301C1.99336 2.47993 2.43989 2.03345 2.99002 2.03345H11.9602C12.5113 2.03345 12.9568 1.58795 12.9568 1.03679C12.9568 0.485633 12.5113 0.0400391 11.9602 0.0400391H2.99002C1.34152 0.0400391 0 1.3816 0 3.0301V20.9703C0 22.6188 1.34152 23.9603 2.99002 23.9603H11.9602C12.5113 23.9603 12.9568 23.5148 12.9568 22.9636C12.9568 22.4125 12.5113 21.967 11.9602 21.967Z" fill="white"/>
<path d="M23.7032 11.2905L17.6434 5.31037C17.2527 4.92366 16.6208 4.92867 16.2341 5.32036C15.8474 5.71205 15.8514 6.34294 16.2441 6.72966L20.5746 11.0034H8.97029C8.41913 11.0034 7.97363 11.4489 7.97363 12C7.97363 12.5512 8.41913 12.9967 8.97029 12.9967H20.5746L16.2441 17.2705C15.8514 17.6572 15.8484 18.2881 16.2341 18.6798C16.4294 18.8771 16.6866 18.9768 16.9437 18.9768C17.1969 18.9768 17.45 18.8811 17.6434 18.6897L23.7032 12.7096C23.8926 12.5223 24.0002 12.2671 24.0002 12C24.0002 11.733 23.8936 11.4788 23.7032 11.2905Z" fill="white"/>
</g>
<defs>
<clipPath id="clip0_267_3379">
<rect width="24" height="24" fill="white"/>
</clipPath>
</defs>
</svg>
