<svg width="32" height="32" viewBox="0 0 32 32" fill="none" xmlns="http://www.w3.org/2000/svg">
<g id="Layer 1">
<g id="Group">
<path id="Vector" d="M16 32C24.8366 32 32 24.8366 32 16C32 7.16344 24.8366 0 16 0C7.16344 0 0 7.16344 0 16C0 24.8366 7.16344 32 16 32Z" fill="white"/>
<g id="Group_2">
<path id="Vector_2" d="M17.7621 4.63477L9.97989 26.017C9.71322 26.7525 8.89989 27.3481 8.16434 27.3481H7.44434L15.2288 5.96588C15.4954 5.23032 16.3088 4.63477 17.0443 4.63477H17.7643H17.7621Z" fill="#92B2FC"/>
<path id="Vector_3" d="M20.7865 4.56836L13.0043 25.9506C12.7376 26.6861 11.9243 27.2817 11.1887 27.2817H10.4688L18.2532 5.89947C18.5199 5.16391 19.3332 4.56836 20.0687 4.56836H20.7888H20.7865Z" fill="#406FDD"/>
<path id="Vector_4" d="M23.7133 4.56836L15.9311 25.9506C15.6644 26.6861 14.8511 27.2817 14.1155 27.2817H13.3955L21.18 5.89947C21.4466 5.16391 22.26 4.56836 22.9955 4.56836H23.7155H23.7133Z" fill="#204097"/>
</g>
</g>
</g>
</svg>
