<svg width="472" height="314" viewBox="0 0 472 314" fill="none" xmlns="http://www.w3.org/2000/svg">
<g clip-path="url(#clip0_2992_4518)">
<path d="M283.676 64.6557C283.778 64.6557 283.88 64.6174 283.956 64.5472L316.281 34.2268H426.903C427.126 34.2268 427.311 34.0417 427.311 33.8183C427.311 33.5949 427.126 33.4098 426.903 33.4098H316.116C316.014 33.4098 315.911 33.4481 315.835 33.5183L283.389 63.9535C283.223 64.1067 283.217 64.3684 283.37 64.5344C283.453 64.6238 283.561 64.662 283.669 64.662L283.676 64.6557Z" fill="#B3C9FF"/>
<path d="M433.912 41.2676C438.018 41.2676 441.36 37.9228 441.36 33.812C441.36 29.7012 438.018 26.3564 433.912 26.3564C429.805 26.3564 426.463 29.7012 426.463 33.812C426.463 37.9228 429.805 41.2676 433.912 41.2676ZM433.912 27.1799C437.566 27.1799 440.537 30.1545 440.537 33.812C440.537 37.4696 437.566 40.4442 433.912 40.4442C430.258 40.4442 427.286 37.4696 427.286 33.812C427.286 30.1545 430.258 27.1799 433.912 27.1799Z" fill="#B3C9FF"/>
<path d="M194.277 293.737H226.239C244.311 293.737 261.115 284.756 271.197 269.71C271.324 269.525 271.273 269.27 271.082 269.142C270.891 269.015 270.642 269.066 270.514 269.257C260.592 284.073 244.037 292.92 226.239 292.92H194.277C183.539 292.92 174.796 284.175 174.796 273.419V198.059C174.796 197.835 174.611 197.65 174.388 197.65C174.164 197.65 173.98 197.835 173.98 198.059V273.419C173.98 284.622 183.086 293.737 194.277 293.737Z" fill="#B3C9FF"/>
<path d="M156.673 277.728C156.896 277.728 157.081 277.542 157.081 277.319V31.6927C157.081 14.6686 170.913 0.823431 187.92 0.823431C204.927 0.823431 218.759 14.675 218.759 31.6927V42.2952C218.759 42.5187 218.938 42.6974 219.155 42.7038C251.084 43.7187 276.095 69.5771 276.095 101.57C276.095 114.726 267.734 126.401 255.287 130.62C255.108 130.684 254.993 130.856 255.012 131.048C255.031 131.239 255.178 131.386 255.363 131.411C260.943 132.165 266.293 133.901 271.248 136.575C271.446 136.684 271.694 136.607 271.803 136.409C271.911 136.212 271.835 135.963 271.637 135.854C267.065 133.39 262.167 131.705 257.059 130.843C269.003 126.107 276.917 114.541 276.917 101.57C276.917 85.9565 270.936 71.1857 260.069 59.9831C249.324 48.9019 234.957 42.4867 219.575 41.8995V31.6927C219.575 14.2218 205.374 0 187.914 0C170.454 0 156.252 14.2154 156.252 31.6927V277.319C156.252 277.542 156.437 277.728 156.66 277.728H156.673Z" fill="#B3C9FF"/>
<path d="M236.569 222.468H265.999C266.222 222.468 266.407 222.283 266.407 222.059C266.407 221.836 266.222 221.651 265.999 221.651H236.569C236.346 221.651 236.161 221.836 236.161 222.059C236.161 222.283 236.346 222.468 236.569 222.468Z" fill="black"/>
<path d="M199.283 257.869C199.506 257.869 199.691 257.684 199.691 257.461V187.367L255.707 131.297C255.866 131.137 255.866 130.875 255.707 130.716C255.547 130.556 255.286 130.556 255.127 130.716L198.99 186.907C198.913 186.984 198.869 187.086 198.869 187.194V257.455C198.869 257.678 199.054 257.863 199.277 257.863L199.283 257.869Z" fill="#B3C9FF"/>
<path d="M185.28 154.085C185.382 154.085 185.49 154.046 185.566 153.963L219.46 120.037C219.537 119.96 219.581 119.858 219.581 119.749V42.2953C219.581 42.0718 219.396 41.8867 219.173 41.8867C218.95 41.8867 218.765 42.0718 218.765 42.2953V119.583L184.986 153.395C184.827 153.555 184.827 153.817 184.986 153.976C185.069 154.059 185.171 154.097 185.273 154.097L185.28 154.085Z" fill="#B3C9FF"/>
<path d="M187.448 98.1804C187.671 98.1804 187.856 97.9953 187.856 97.7719V42.6974H219.173C219.396 42.6974 219.581 42.5123 219.581 42.2889C219.581 42.0655 219.396 41.8804 219.173 41.8804H187.448C187.224 41.8804 187.04 42.0655 187.04 42.2889V97.7719C187.04 97.9953 187.224 98.1804 187.448 98.1804Z" fill="#B3C9FF"/>
<path d="M187.448 110.73C182.876 110.73 179.17 107.02 179.17 102.444C179.17 97.8684 182.876 94.1589 187.448 94.1589C192.019 94.1589 195.725 97.8684 195.725 102.444C195.725 107.02 192.019 110.73 187.448 110.73Z" fill="white"/>
<path d="M187.447 111.138C192.236 111.138 196.133 107.238 196.133 102.444C196.133 97.6505 192.236 93.7504 187.447 93.7504C182.658 93.7504 178.762 97.6505 178.762 102.444C178.762 107.238 182.658 111.138 187.447 111.138ZM187.447 94.561C191.784 94.561 195.317 98.0974 195.317 102.438C195.317 106.779 191.784 110.315 187.447 110.315C183.111 110.315 179.578 106.779 179.578 102.438C179.578 98.0974 183.111 94.561 187.447 94.561Z" fill="#B3C9FF"/>
<path d="M172.732 161.129C170.982 156.902 172.988 152.055 177.211 150.304C181.435 148.553 186.277 150.56 188.026 154.788C189.775 159.015 187.77 163.862 183.546 165.613C179.323 167.364 174.481 165.357 172.732 161.129Z" fill="#E2EAFF"/>
<path d="M170.033 199.509C166.144 197.103 164.94 191.998 167.344 188.105C169.747 184.213 174.848 183.008 178.736 185.414C182.625 187.82 183.829 192.925 181.425 196.818C179.022 200.71 173.921 201.915 170.033 199.509Z" fill="white"/>
<path d="M174.387 201.18C179.176 201.18 183.073 197.28 183.073 192.486C183.073 187.692 179.176 183.792 174.387 183.792C169.598 183.792 165.702 187.692 165.702 192.486C165.702 197.28 169.598 201.18 174.387 201.18ZM174.387 184.609C178.723 184.609 182.256 188.145 182.256 192.486C182.256 196.827 178.723 200.363 174.387 200.363C170.051 200.363 166.518 196.827 166.518 192.486C166.518 188.145 170.051 184.609 174.387 184.609Z" fill="#B3C9FF"/>
<path d="M222.259 223.943C221.209 219.489 223.965 215.027 228.414 213.976C232.863 212.925 237.321 215.683 238.371 220.136C239.421 224.59 236.666 229.052 232.217 230.103C227.768 231.155 223.309 228.396 222.259 223.943Z" fill="white"/>
<path d="M230.307 230.754C235.096 230.754 238.992 226.853 238.992 222.06C238.992 217.266 235.096 213.366 230.307 213.366C225.518 213.366 221.622 217.266 221.622 222.06C221.622 226.853 225.518 230.754 230.307 230.754ZM230.307 214.176C234.643 214.176 238.176 217.713 238.176 222.053C238.176 226.394 234.643 229.93 230.307 229.93C225.971 229.93 222.438 226.394 222.438 222.053C222.438 217.713 225.971 214.176 230.307 214.176Z" fill="black"/>
<path d="M199.284 272.953C194.712 272.953 191.006 269.243 191.006 264.667C191.006 260.092 194.712 256.382 199.284 256.382C203.855 256.382 207.561 260.092 207.561 264.667C207.561 269.243 203.855 272.953 199.284 272.953Z" fill="#E2EAFF"/>
<path d="M59.5383 293.737H91.4998C102.691 293.737 111.798 284.622 111.798 273.419V198.059C111.798 197.835 111.613 197.65 111.39 197.65C111.166 197.65 110.981 197.835 110.981 198.059V273.419C110.981 284.168 102.245 292.92 91.4998 292.92H59.5383C30.1659 292.92 6.27136 269.002 6.27136 239.601C6.27136 231.366 11.864 224.319 19.8735 222.468C20.0457 222.43 20.1796 222.277 20.1923 222.098C20.2051 221.919 20.0966 221.753 19.9308 221.689C1.94775 214.776 -10.1302 197.178 -10.1302 177.894C-10.1302 154.512 7.30442 134.533 30.4146 131.418C30.6059 131.392 30.7462 131.239 30.7654 131.054C30.7845 130.862 30.6697 130.69 30.4911 130.626C18.0433 126.407 9.68307 114.732 9.68307 101.576C9.68307 69.5835 34.6936 43.7251 66.6231 42.7101C66.8463 42.7037 67.0185 42.5186 67.0185 42.3016V31.6991C67.0185 14.675 80.8566 0.829789 97.8576 0.829789C114.859 0.829789 128.697 14.6814 128.697 31.6991V271.453C128.697 271.676 128.882 271.861 129.105 271.861C129.328 271.861 129.513 271.676 129.513 271.453V31.6991C129.513 14.2282 115.311 0.00634766 97.8512 0.00634766C80.391 0.00634766 66.1895 14.2218 66.1895 31.6991V41.9058C50.8082 42.4931 36.4409 48.9082 25.6957 59.9895C14.8357 71.1921 8.84769 85.9628 8.84769 101.576C8.84769 114.547 16.7615 126.113 28.7056 130.85C5.97801 134.699 -10.9656 154.64 -10.9656 177.894C-10.9656 187.737 -7.99396 197.184 -2.3822 205.214C2.86605 212.727 10.0593 218.504 18.4641 221.989C10.7289 224.326 5.43598 231.398 5.43598 239.601C5.43598 269.455 29.7004 293.743 59.5256 293.743L59.5383 293.737Z" fill="#B3C9FF"/>
<path d="M19.7775 222.468H49.2073C49.4305 222.468 49.6155 222.283 49.6155 222.059C49.6155 221.836 49.4305 221.651 49.2073 221.651H19.7775C19.5544 221.651 19.3694 221.836 19.3694 222.059C19.3694 222.283 19.5544 222.468 19.7775 222.468Z" fill="#92B2FC"/>
<path d="M86.4935 257.869C86.7167 257.869 86.9016 257.684 86.9016 257.461V187.201C86.9016 187.092 86.857 186.99 86.7804 186.913L30.6439 130.722C30.4845 130.562 30.223 130.562 30.0636 130.722C29.9041 130.882 29.9041 131.143 30.0636 131.303L86.079 187.373V257.467C86.079 257.691 86.2639 257.876 86.4871 257.876L86.4935 257.869Z" fill="#92B2FC"/>
<path d="M100.504 154.085C100.606 154.085 100.714 154.046 100.791 153.963C100.95 153.804 100.95 153.542 100.791 153.382L67.0117 119.57V42.2824C67.0117 42.059 66.8268 41.8739 66.6036 41.8739C66.3804 41.8739 66.1955 42.059 66.1955 42.2824V119.736C66.1955 119.845 66.2401 119.947 66.3167 120.024L100.21 153.951C100.293 154.034 100.395 154.072 100.497 154.072L100.504 154.085Z" fill="#92B2FC"/>
<path d="M98.3353 98.1804C98.5585 98.1804 98.7434 97.9953 98.7434 97.7719V42.2889C98.7434 42.0655 98.5585 41.8804 98.3353 41.8804H66.6098C66.3866 41.8804 66.2016 42.0655 66.2016 42.2889C66.2016 42.5123 66.3866 42.6974 66.6098 42.6974H97.9271V97.7719C97.9271 97.9953 98.1121 98.1804 98.3353 98.1804Z" fill="#92B2FC"/>
<path d="M98.3352 110.73C93.7637 110.73 90.0579 107.02 90.0579 102.444C90.0579 97.8683 93.7637 94.1588 98.3352 94.1588C102.907 94.1588 106.613 97.8683 106.613 102.444C106.613 107.02 102.907 110.73 98.3352 110.73Z" fill="#E2EAFF"/>
<path d="M102.239 165.617C98.0151 163.866 96.0094 159.019 97.7588 154.792C99.5082 150.564 104.35 148.556 108.574 150.308C112.797 152.059 114.803 156.905 113.053 161.133C111.304 165.361 106.462 167.368 102.239 165.617Z" fill="white"/>
<path d="M105.408 166.66C110.197 166.66 114.093 162.759 114.093 157.966C114.093 153.172 110.197 149.272 105.408 149.272C100.618 149.272 96.7221 153.172 96.7221 157.966C96.7221 162.759 100.618 166.66 105.408 166.66ZM105.408 150.089C109.744 150.089 113.277 153.625 113.277 157.966C113.277 162.306 109.744 165.842 105.408 165.842C101.071 165.842 97.5383 162.306 97.5383 157.966C97.5383 153.625 101.071 150.089 105.408 150.089Z" fill="#B3C9FF"/>
<path d="M105.535 198.344C102.303 195.108 102.303 189.862 105.535 186.627C108.768 183.391 114.009 183.391 117.241 186.627C120.474 189.862 120.474 195.108 117.241 198.344C114.009 201.58 108.768 201.58 105.535 198.344Z" fill="#E2EAFF"/>
<path d="M53.7995 230.171C49.3215 229.251 46.4364 224.871 47.3556 220.388C48.2749 215.906 52.6502 213.018 57.1283 213.938C61.6064 214.858 64.4914 219.238 63.5722 223.72C62.653 228.203 58.2776 231.091 53.7995 230.171Z" fill="white"/>
<path d="M55.4701 230.754C60.2592 230.754 64.1555 226.853 64.1555 222.06C64.1555 217.266 60.2592 213.366 55.4701 213.366C50.6809 213.366 46.7846 217.266 46.7846 222.06C46.7846 226.853 50.6809 230.754 55.4701 230.754ZM55.4701 214.176C59.8064 214.176 63.3392 217.713 63.3392 222.053C63.3392 226.394 59.8064 229.93 55.4701 229.93C51.1337 229.93 47.6008 226.394 47.6008 222.053C47.6008 217.713 51.1337 214.176 55.4701 214.176Z" fill="#92B2FC"/>
<path d="M86.4944 272.953C81.9229 272.953 78.2171 269.243 78.2171 264.667C78.2171 260.092 81.9229 256.382 86.4944 256.382C91.0658 256.382 94.7717 260.092 94.7717 264.667C94.7717 269.243 91.0658 272.953 86.4944 272.953Z" fill="white"/>
<path d="M86.4935 273.362C91.2826 273.362 95.179 269.461 95.179 264.668C95.179 259.874 91.2826 255.974 86.4935 255.974C81.7044 255.974 77.808 259.874 77.808 264.668C77.808 269.461 81.7044 273.362 86.4935 273.362ZM86.4935 256.784C90.8299 256.784 94.3627 260.321 94.3627 264.661C94.3627 269.002 90.8299 272.538 86.4935 272.538C82.1571 272.538 78.6243 269.002 78.6243 264.661C78.6243 260.321 82.1571 256.784 86.4935 256.784Z" fill="#92B2FC"/>
<path d="M-5.55125 334.781H99.6754C99.7838 334.781 99.8858 334.736 99.9623 334.66L156.96 277.606C157.119 277.447 157.119 277.185 156.96 277.025C156.8 276.866 156.539 276.866 156.379 277.025L99.4968 333.957H-5.56401C-5.78722 333.957 -5.97215 334.143 -5.97215 334.366C-5.97215 334.589 -5.78722 334.774 -5.56401 334.774L-5.55125 334.781Z" fill="#B3C9FF"/>
<path d="M57.6894 334.781C57.7914 334.781 57.8999 334.743 57.9764 334.66C58.1358 334.5 58.1358 334.238 57.9764 334.079L25.6132 301.684C25.5367 301.607 25.4346 301.563 25.3262 301.563H-39.6106C-39.8338 301.563 -40.0187 301.748 -40.0187 301.971C-40.0187 302.195 -39.8338 302.38 -39.6106 302.38H25.154L57.3961 334.653C57.479 334.736 57.581 334.775 57.683 334.775L57.6894 334.781Z" fill="#92B2FC"/>
<path d="M9.84187 58.9874C9.55491 58.981 9.27431 58.9491 8.99372 58.9044C8.20935 61.7003 7.02324 64.3174 5.49276 66.6983C5.70958 66.877 5.92001 67.0685 6.11769 67.2792C8.7769 70.1006 8.64297 74.5433 5.82434 77.2051C3.00571 79.8669 -1.43266 79.7328 -4.09187 76.9115C-4.28955 76.7008 -4.46809 76.4774 -4.63389 76.254C-7.09541 77.6392 -9.78013 78.6732 -12.6115 79.286C-12.586 79.5669 -12.5733 79.8477 -12.5796 80.1414C-12.6944 84.016 -15.9276 87.0672 -19.7984 86.9523C-23.6692 86.8374 -26.7174 83.6011 -26.6026 79.7265C-26.5962 79.4392 -26.5643 79.1584 -26.5197 78.8775C-29.3128 78.0924 -31.9274 76.9051 -34.306 75.3731C-34.4846 75.5901 -34.6759 75.8008 -34.8863 75.9987C-37.7049 78.6605 -42.1433 78.5264 -44.8025 75.705C-47.4617 72.8837 -47.3278 68.4409 -44.5092 65.7791C-44.2988 65.5812 -44.0755 65.4025 -43.8523 65.2365C-45.2362 62.7726 -46.2692 60.0853 -46.8814 57.2511C-47.162 57.2767 -47.4426 57.2894 -47.7359 57.2831C-51.6068 57.1682 -54.655 53.9319 -54.5402 50.0572C-54.4254 46.1826 -51.1923 43.1315 -47.3214 43.2464C-47.0345 43.2527 -46.7539 43.2847 -46.4733 43.3293C-45.6889 40.5335 -44.5028 37.9164 -42.9723 35.5354C-43.1891 35.3567 -43.3996 35.1652 -43.5973 34.9546C-46.2565 32.1332 -46.1226 27.6904 -43.3039 25.0286C-40.4853 22.3668 -36.0469 22.5009 -33.3877 25.3223C-33.19 25.5329 -33.0115 25.7563 -32.8457 25.9797C-30.3842 24.5946 -27.6995 23.5605 -24.8681 22.9477C-24.8936 22.6668 -24.9063 22.386 -24.9 22.0923C-24.7852 18.2177 -21.552 15.1666 -17.6812 15.2815C-13.8104 15.3964 -10.7622 18.6327 -10.877 22.5073C-10.8834 22.7945 -10.9153 23.0754 -10.9599 23.3562C-8.16677 24.1414 -5.54582 25.3286 -3.17358 26.8606C-2.99502 26.6436 -2.80369 26.433 -2.59325 26.2351C0.225378 23.5733 4.66375 23.7073 7.32295 26.5287C9.98216 29.3501 9.84823 33.7928 7.0296 36.4546C6.81916 36.6525 6.59598 36.8312 6.37279 36.9972C7.75659 39.4611 8.78967 42.1484 9.40186 44.9826C9.68244 44.9571 9.96301 44.9443 10.2564 44.9507C14.1272 45.0656 17.1754 48.3019 17.0606 52.1765C16.9458 56.0511 13.7127 59.1023 9.84187 58.9874ZM-18.3508 38.0887C-25.5377 37.8781 -31.5384 43.5336 -31.7552 50.7339C-31.9657 57.9278 -26.3157 63.9344 -19.1224 64.1514C-11.9356 64.3621 -5.9348 58.7065 -5.71799 51.5062C-5.50755 44.3124 -11.1576 38.3057 -18.3508 38.0887Z" fill="#E2EAFF"/>
<path d="M44.386 24.3711C44.2266 24.3711 44.0736 24.352 43.9205 24.3264C43.4933 25.8584 42.8428 27.2946 42.0011 28.5968C42.1222 28.6926 42.237 28.8011 42.3454 28.916C43.7994 30.4607 43.7292 32.8991 42.186 34.3545C40.6427 35.8099 38.2067 35.7397 36.7528 34.1949C36.6444 34.08 36.5487 33.9587 36.4531 33.8311C35.1012 34.5907 33.6345 35.1588 32.0785 35.4971C32.0912 35.6503 32.0976 35.8035 32.0976 35.9631C32.0338 38.0887 30.261 39.7611 28.1375 39.6972C26.014 39.6334 24.3432 37.8589 24.4069 35.7333C24.4069 35.5737 24.4261 35.4205 24.4516 35.2673C22.9211 34.8396 21.4863 34.1885 20.1854 33.3459C20.0897 33.4672 19.9813 33.5821 19.8665 33.6906C18.3233 35.146 15.8873 35.0758 14.4333 33.531C12.9794 31.9863 13.0495 29.5479 14.5927 28.0926C14.7075 27.984 14.8287 27.8883 14.9562 27.7925C14.1974 26.4393 13.6298 24.9711 13.2918 23.4136C13.1388 23.4264 12.9858 23.4328 12.8263 23.4328C10.7028 23.369 9.03201 21.5944 9.09578 19.4688C9.15955 17.3432 10.9324 15.6708 13.0559 15.7346C13.2153 15.7346 13.3684 15.7538 13.5214 15.7793C13.9487 14.2473 14.5991 12.8111 15.4409 11.5089C15.3197 11.4132 15.205 11.3047 15.0965 11.1898C13.6426 9.64503 13.7127 7.20664 15.256 5.75126C16.7992 4.29589 19.2352 4.3661 20.6891 5.91084C20.7975 6.02574 20.8932 6.14703 20.9889 6.27469C22.3408 5.51509 23.8075 4.94698 25.3635 4.60867C25.3507 4.45547 25.3444 4.30227 25.3444 4.14269C25.4081 2.01707 27.1809 0.344674 29.3045 0.408506C31.428 0.472339 33.0988 2.24687 33.035 4.37248C33.035 4.53206 33.0159 4.68527 32.9904 4.83846C34.5209 5.26614 35.9557 5.91723 37.2566 6.75981C37.3522 6.63853 37.4606 6.52364 37.5754 6.41512C39.1187 4.95975 41.5546 5.02996 43.0086 6.5747C44.4626 8.11944 44.3924 10.5578 42.8492 12.0132C42.7344 12.1217 42.6133 12.2175 42.4857 12.3132C43.2446 13.6665 43.8121 15.1346 44.1501 16.6921C44.3032 16.6793 44.4562 16.673 44.6156 16.673C46.7391 16.7368 48.4099 18.5113 48.3461 20.6369C48.2824 22.7625 46.5096 24.435 44.386 24.3711ZM28.9282 12.9132C24.9873 12.7983 21.6967 15.9006 21.5819 19.8454C21.4671 23.7902 24.5664 27.084 28.5073 27.1989C32.4483 27.3138 35.7389 24.2115 35.8536 20.2667C35.9684 16.3219 32.8692 13.0281 28.9282 12.9132Z" fill="#E2EAFF"/>
<path d="M-24.128 130.958H9.03868C9.26187 130.958 9.44678 130.773 9.44678 130.55C9.44678 130.326 9.26187 130.141 9.03868 130.141H-23.7199V94.1589C-23.7199 93.9355 -23.9048 93.7504 -24.128 93.7504C-24.3512 93.7504 -24.5361 93.9355 -24.5361 94.1589V130.55C-24.5361 130.773 -24.3512 130.958 -24.128 130.958Z" fill="#E2EAFF"/>
<path d="M292.342 143.342H455.217V340.577H292.342V143.342Z" fill="#E2EAFF"/>
<path d="M344.716 306.727L368.407 340.571H307.692C305.995 337.213 303.706 332.649 301.244 327.689C291.857 308.731 294.963 285.956 309.088 270.215C329.469 247.503 361.016 219.494 374.497 206.51C377.073 204.033 379.088 202.233 380.376 201.308C392.773 192.448 423.389 222.934 423.389 222.934L385.663 265.868L344.71 306.727H344.716Z" fill="white"/>
<path d="M307.698 340.979C307.762 340.979 307.826 340.966 307.883 340.934C308.087 340.832 308.164 340.583 308.062 340.385C306.531 337.353 304.165 332.655 301.621 327.504C292.247 308.578 295.301 286.198 309.401 270.489C324.514 253.644 345.75 233.907 361.258 219.5C366.653 214.489 371.309 210.155 374.79 206.81C377.437 204.263 379.401 202.527 380.625 201.646C391.989 193.527 419.761 219.972 422.841 222.96L385.37 265.606L344.436 306.446C344.296 306.586 344.276 306.81 344.391 306.969L368.082 340.813C368.209 340.998 368.464 341.043 368.649 340.915C368.834 340.788 368.879 340.532 368.751 340.347L345.259 306.784L385.963 266.174L423.708 223.221C423.848 223.062 423.842 222.813 423.689 222.66C422.426 221.402 392.684 192.039 380.147 200.989C378.884 201.889 376.895 203.65 374.216 206.229C370.747 209.574 366.086 213.902 360.697 218.913C345.182 233.332 323.928 253.088 308.789 269.959C301.799 277.747 297.361 287.341 295.945 297.707C294.53 308.074 296.239 318.51 300.881 327.887C303.432 333.038 305.798 337.736 307.328 340.775C307.398 340.915 307.545 340.998 307.692 340.998L307.698 340.979Z" fill="black"/>
<path d="M335.196 316.142C335.298 316.142 335.4 316.104 335.477 316.027L345.004 307.027C345.17 306.874 345.176 306.612 345.023 306.446C344.87 306.28 344.608 306.274 344.443 306.427L334.915 315.427C334.75 315.58 334.743 315.842 334.896 316.008C334.979 316.091 335.088 316.136 335.196 316.136V316.142Z" fill="black"/>
<path d="M410.164 340.571H336.58L404.182 217.751L438.477 198.384C438.809 199.272 452.367 212.383 442.278 248.027C434.524 275.417 417.586 320.955 410.164 340.571Z" fill="white"/>
<path d="M410.164 340.979C410.329 340.979 410.483 340.877 410.546 340.717C417.606 322.072 434.862 275.73 442.674 248.135C448.642 227.051 447.399 209.478 439.173 198.659C439.032 198.474 438.886 198.276 438.854 198.218C438.777 198.008 438.541 197.905 438.331 197.982C438.12 198.059 438.012 198.308 438.095 198.518C438.146 198.652 438.261 198.812 438.522 199.15C446.589 209.759 447.782 227.07 441.883 247.905C434.084 275.468 416.834 321.785 409.781 340.417C409.698 340.628 409.807 340.864 410.017 340.947C410.062 340.966 410.113 340.973 410.164 340.973V340.979Z" fill="black"/>
<path d="M336.58 340.979C336.727 340.979 336.867 340.902 336.938 340.768L390.466 243.52C390.574 243.322 390.504 243.073 390.307 242.965C390.109 242.856 389.86 242.926 389.752 243.124L336.223 340.373C336.115 340.571 336.185 340.82 336.383 340.928C336.447 340.96 336.51 340.979 336.58 340.979Z" fill="black"/>
<path d="M383.252 234.839C383.252 234.839 419.065 247.293 449.082 208.017C452.321 203.772 452.015 197.81 448.329 193.948C431.928 176.764 386.957 131.092 371.952 130.563C353.465 129.905 317.748 169.685 317.748 169.685L330.974 192.41L341.432 183.25L383.252 234.845V234.839Z" fill="#5479F7"/>
<path d="M340.521 181.998C340.61 181.998 340.693 181.973 340.769 181.916C340.948 181.775 340.986 181.52 340.846 181.341L336.72 175.934C336.586 175.756 336.324 175.717 336.146 175.858C335.967 175.998 335.929 176.254 336.069 176.432L340.195 181.839C340.278 181.947 340.399 181.998 340.521 181.998Z" fill="black"/>
<path d="M365.997 198.997C366.188 198.997 366.354 198.863 366.398 198.671L372.846 169.053C373.464 166.225 374.159 163.021 375.926 160.519C377.462 158.342 380.472 156.331 383.457 157.066C383.674 157.117 383.897 156.983 383.954 156.766C384.005 156.549 383.871 156.325 383.655 156.268C380.281 155.438 377.01 157.57 375.262 160.047C373.4 162.689 372.686 165.977 372.055 168.881L365.608 198.499C365.557 198.722 365.697 198.939 365.92 198.984C365.952 198.991 365.978 198.991 366.009 198.991L365.997 198.997Z" fill="black"/>
<path d="M397.69 214.642C397.875 214.642 398.047 214.515 398.092 214.323C400.33 204.308 401.255 194.031 400.834 183.773C400.828 183.55 400.636 183.371 400.407 183.377C400.184 183.384 400.005 183.575 400.011 183.805C400.426 193.986 399.514 204.199 397.288 214.144C397.237 214.368 397.378 214.585 397.601 214.636C397.633 214.642 397.658 214.649 397.69 214.649V214.642Z" fill="black"/>
<path d="M247.48 190.386C247.907 190.386 248.322 190.418 248.73 190.469C249.756 186.326 251.389 182.426 253.532 178.864C253.206 178.609 252.888 178.341 252.588 178.041C248.564 174.013 248.564 167.477 252.588 163.443C256.612 159.415 263.142 159.415 267.172 163.443C267.472 163.743 267.74 164.062 268.001 164.387C271.559 162.243 275.456 160.608 279.594 159.581C279.543 159.172 279.511 158.751 279.511 158.33C279.511 152.629 284.128 148.008 289.823 148.008C295.518 148.008 300.135 152.629 300.135 158.33C300.135 158.757 300.103 159.172 300.052 159.581C304.19 160.608 308.087 162.243 311.645 164.387C311.9 164.062 312.168 163.743 312.474 163.443C316.498 159.415 323.028 159.415 327.058 163.443C331.082 167.47 331.082 174.007 327.058 178.041C326.759 178.341 326.44 178.609 326.114 178.864C328.257 182.426 329.89 186.326 330.916 190.469C331.324 190.418 331.745 190.386 332.166 190.386C337.861 190.386 342.478 195.008 342.478 200.708C342.478 206.408 337.861 211.03 332.166 211.03C331.739 211.03 331.324 210.998 330.916 210.947C329.89 215.089 328.257 218.989 326.114 222.551C326.44 222.807 326.759 223.075 327.058 223.375C331.082 227.402 331.082 233.939 327.058 237.973C323.034 242.001 316.504 242.001 312.474 237.973C312.174 237.673 311.907 237.354 311.645 237.028C308.087 239.173 304.19 240.807 300.052 241.835C300.103 242.243 300.135 242.665 300.135 243.086C300.135 248.786 295.518 253.408 289.823 253.408C284.128 253.408 279.511 248.786 279.511 243.086C279.511 242.658 279.543 242.243 279.594 241.835C275.456 240.807 271.559 239.173 268.001 237.028C267.746 237.354 267.478 237.673 267.172 237.973C263.148 242.001 256.618 242.001 252.588 237.973C248.564 233.945 248.564 227.409 252.588 223.375C252.888 223.075 253.206 222.807 253.532 222.551C251.389 218.989 249.756 215.089 248.73 210.947C248.322 210.998 247.901 211.03 247.48 211.03C241.785 211.03 237.168 206.408 237.168 200.708C237.168 195.008 241.785 190.386 247.48 190.386ZM289.817 219.877C300.39 219.877 308.967 211.298 308.967 200.708C308.967 190.118 300.396 181.539 289.817 181.539C279.237 181.539 270.667 190.118 270.667 200.708C270.667 211.298 279.237 219.877 289.817 219.877Z" fill="white"/>
<path d="M289.823 253.823C295.735 253.823 300.543 249.01 300.543 243.092C300.543 242.799 300.53 242.486 300.498 242.148C304.388 241.145 308.1 239.607 311.55 237.564C311.767 237.826 311.971 238.056 312.181 238.267C314.209 240.29 316.9 241.407 319.763 241.407C322.627 241.407 325.318 240.29 327.346 238.267C331.522 234.086 331.522 227.275 327.346 223.094C327.135 222.883 326.906 222.679 326.644 222.462C328.685 219.008 330.222 215.287 331.223 211.4C331.561 211.432 331.867 211.444 332.167 211.444C338.078 211.444 342.886 206.631 342.886 200.714C342.886 194.797 338.078 189.984 332.167 189.984C331.873 189.984 331.561 189.997 331.223 190.029C330.222 186.135 328.685 182.42 326.644 178.967C326.906 178.75 327.135 178.545 327.346 178.335C329.367 176.311 330.483 173.611 330.483 170.745C330.483 167.879 329.367 165.185 327.346 163.155C325.324 161.125 322.627 160.015 319.763 160.015C316.9 160.015 314.209 161.132 312.181 163.155C311.971 163.366 311.767 163.596 311.55 163.857C308.1 161.815 304.382 160.276 300.498 159.274C300.53 158.936 300.543 158.63 300.543 158.33C300.543 152.412 295.735 147.599 289.823 147.599C283.912 147.599 279.104 152.412 279.104 158.33C279.104 158.623 279.116 158.936 279.148 159.274C275.258 160.276 271.547 161.815 268.097 163.857C267.88 163.596 267.676 163.366 267.466 163.155C263.289 158.974 256.484 158.974 252.308 163.155C250.28 165.185 249.17 167.879 249.17 170.745C249.17 173.611 250.286 176.305 252.308 178.335C252.518 178.545 252.748 178.75 253.009 178.967C250.968 182.42 249.432 186.141 248.43 190.029C248.092 189.997 247.786 189.984 247.487 189.984C241.575 189.984 236.767 194.797 236.767 200.714C236.767 206.631 241.575 211.444 247.487 211.444C247.78 211.444 248.092 211.432 248.43 211.4C249.432 215.293 250.968 219.008 253.009 222.462C252.748 222.679 252.518 222.883 252.308 223.094C248.131 227.275 248.131 234.086 252.308 238.267C256.484 242.448 263.289 242.454 267.466 238.267C267.676 238.056 267.88 237.826 268.097 237.564C271.547 239.607 275.265 241.145 279.148 242.148C279.116 242.486 279.104 242.792 279.104 243.092C279.104 249.01 283.912 253.823 289.823 253.823ZM311.645 236.62C311.575 236.62 311.499 236.639 311.435 236.677C307.864 238.828 304.006 240.431 299.95 241.439C299.752 241.49 299.618 241.682 299.644 241.886C299.695 242.333 299.727 242.722 299.727 243.086C299.727 248.55 295.282 252.999 289.823 252.999C284.365 252.999 279.92 248.55 279.92 243.086C279.92 242.722 279.945 242.326 280.003 241.88C280.028 241.675 279.894 241.484 279.697 241.433C275.647 240.424 271.783 238.828 268.212 236.671C268.033 236.562 267.804 236.607 267.676 236.767C267.402 237.118 267.14 237.418 266.885 237.673C263.027 241.535 256.746 241.535 252.881 237.673C249.017 233.811 249.023 227.524 252.881 223.655C253.137 223.4 253.436 223.138 253.787 222.864C253.953 222.736 253.991 222.506 253.883 222.328C251.734 218.76 250.133 214.891 249.125 210.832C249.074 210.627 248.883 210.5 248.679 210.525C248.226 210.583 247.844 210.608 247.48 210.608C242.021 210.608 237.577 206.159 237.577 200.695C237.577 195.231 242.021 190.782 247.48 190.782C247.844 190.782 248.239 190.807 248.679 190.865C248.883 190.89 249.074 190.756 249.125 190.558C250.133 186.505 251.727 182.637 253.883 179.062C253.991 178.884 253.946 178.654 253.787 178.526C253.436 178.252 253.137 177.99 252.881 177.735C251.013 175.864 249.98 173.375 249.98 170.726C249.98 168.077 251.013 165.587 252.881 163.717C256.74 159.855 263.021 159.855 266.885 163.717C267.14 163.972 267.402 164.272 267.676 164.623C267.804 164.789 268.033 164.828 268.212 164.719C271.783 162.568 275.641 160.966 279.697 159.957C279.894 159.906 280.028 159.715 280.003 159.51C279.952 159.064 279.92 158.668 279.92 158.304C279.92 152.84 284.365 148.391 289.823 148.391C295.282 148.391 299.727 152.84 299.727 158.304C299.727 158.668 299.701 159.064 299.644 159.504C299.618 159.708 299.752 159.9 299.95 159.951C303.999 160.959 307.864 162.555 311.435 164.713C311.613 164.821 311.843 164.777 311.971 164.617C312.245 164.266 312.506 163.966 312.761 163.711C314.63 161.84 317.117 160.806 319.763 160.806C322.41 160.806 324.897 161.84 326.765 163.711C328.634 165.581 329.667 168.07 329.667 170.719C329.667 173.368 328.634 175.858 326.765 177.728C326.51 177.983 326.21 178.245 325.86 178.52C325.694 178.647 325.656 178.877 325.764 179.056C327.913 182.63 329.514 186.499 330.521 190.552C330.572 190.756 330.764 190.884 330.968 190.858C331.414 190.807 331.803 190.775 332.167 190.775C337.625 190.775 342.07 195.225 342.07 200.689C342.07 206.153 337.625 210.602 332.167 210.602C331.803 210.602 331.408 210.576 330.968 210.519C330.764 210.493 330.572 210.627 330.521 210.825C329.514 214.879 327.913 218.747 325.764 222.321C325.656 222.5 325.7 222.73 325.86 222.858C326.21 223.132 326.51 223.394 326.765 223.649C330.623 227.511 330.623 233.798 326.765 237.667C324.897 239.537 322.41 240.571 319.763 240.571C317.117 240.571 314.63 239.537 312.761 237.667C312.506 237.411 312.245 237.111 311.971 236.76C311.888 236.658 311.773 236.601 311.645 236.601V236.62ZM289.823 220.285C300.607 220.285 309.382 211.502 309.382 200.708C309.382 189.914 300.607 181.13 289.823 181.13C279.04 181.13 270.265 189.914 270.265 200.708C270.265 211.502 279.04 220.285 289.823 220.285ZM289.823 181.954C300.154 181.954 308.559 190.367 308.559 200.708C308.559 211.049 300.154 219.462 289.823 219.462C279.493 219.462 271.088 211.049 271.088 200.708C271.088 190.367 279.493 181.954 289.823 181.954Z" fill="black"/>
<path d="M397.008 215.874C397.008 215.874 394.17 246.003 376.11 248.167C358.051 250.331 325.713 215.536 323.596 213.327C321.472 211.119 321.581 208.138 328.513 212.389C328.513 212.389 321.893 208.176 321.211 205.431C320.529 202.686 325.522 203.114 331.325 206.893C331.325 206.893 320.643 201.097 321.211 197.369C321.504 195.448 326.421 194.886 337.204 201.92C337.204 201.92 331.223 198.199 328.481 195.448C325.656 192.607 328.513 188.943 338.461 194.822C348.256 200.612 363.739 214.981 363.739 214.981L367.227 201.92C367.227 201.92 387.353 205.923 397.008 215.861V215.874Z" fill="white"/>
<path d="M374.46 248.678C375.04 248.678 375.608 248.646 376.162 248.582C382.412 247.835 387.539 243.763 391.41 236.492C391.518 236.294 391.442 236.045 391.244 235.937C391.046 235.828 390.798 235.905 390.689 236.103C386.952 243.124 382.036 247.05 376.067 247.765C360.048 249.68 332.321 221.926 324.203 213.372L323.897 213.046C322.896 212 322.66 211.074 322.87 210.806C322.902 210.768 323.674 209.906 328.297 212.746C328.488 212.861 328.737 212.804 328.858 212.612C328.979 212.421 328.922 212.172 328.73 212.051C326.926 210.902 322.13 207.461 321.607 205.342C321.454 204.729 321.677 204.487 321.85 204.359C322.768 203.701 325.434 204.148 328.737 205.865C329.91 206.593 330.822 207.097 331.122 207.263C331.313 207.365 331.555 207.302 331.67 207.11C331.785 206.919 331.728 206.676 331.543 206.555C330.771 206.057 330.006 205.604 329.253 205.208C325.886 203.101 321.269 199.674 321.614 197.439C321.658 197.152 321.862 196.922 322.22 196.763C323.865 196.029 328.38 196.878 335.815 201.531C336.478 201.965 336.925 202.24 336.989 202.278C337.18 202.399 337.429 202.342 337.55 202.15C337.671 201.959 337.614 201.71 337.429 201.589C337.052 201.34 336.676 201.103 336.319 200.874C334.463 199.667 330.746 197.146 328.775 195.167C327.895 194.28 327.621 193.329 328.08 192.741C328.998 191.561 332.569 191.822 338.258 195.186C347.906 200.886 363.313 215.147 363.466 215.293C363.574 215.389 363.721 215.427 363.855 215.389C363.995 215.351 364.097 215.242 364.135 215.102L364.977 211.949C365.035 211.732 364.907 211.508 364.69 211.444C364.473 211.387 364.25 211.514 364.186 211.731L363.517 214.234C360.775 211.725 347.402 199.642 338.666 194.484C332.104 190.609 328.558 190.782 327.423 192.244C326.696 193.182 326.996 194.554 328.188 195.754C328.756 196.329 329.457 196.935 330.21 197.542C324.911 195.148 322.589 195.71 321.882 196.022C321.269 196.297 320.887 196.756 320.797 197.325C320.491 199.323 322.921 201.723 325.504 203.676C323.667 203.146 322.175 203.127 321.365 203.701C320.804 204.104 320.606 204.755 320.797 205.546C321.142 206.938 322.838 208.623 324.534 210.021C323.399 209.695 322.628 209.791 322.22 210.302C321.556 211.131 322.277 212.568 323.291 213.627L323.597 213.946C331.504 222.277 357.886 248.69 374.453 248.69L374.46 248.678Z" fill="black"/>
<path d="M371.602 221.421C371.723 221.421 371.851 221.364 371.927 221.255C372.061 221.077 372.029 220.815 371.844 220.681L365.365 215.804C365.187 215.67 364.925 215.702 364.791 215.887C364.658 216.066 364.689 216.327 364.874 216.461L371.353 221.338C371.43 221.396 371.513 221.421 371.596 221.421H371.602Z" fill="black"/>
<path d="M364.785 118.773L378.387 134.597C380.912 137.539 380.925 141.88 378.413 144.835C374.306 149.667 367.808 156.3 361.807 158.112C352.057 161.055 356.221 149.655 360.366 141.899C360.366 141.899 361.412 118.996 364.785 118.773Z" fill="white"/>
<path d="M367.552 146.38C367.629 146.38 367.705 146.361 367.776 146.316C367.967 146.195 368.018 145.94 367.897 145.748L362.483 137.424C362.362 137.233 362.106 137.182 361.915 137.303C361.724 137.424 361.673 137.68 361.794 137.871L367.208 146.195C367.285 146.316 367.418 146.38 367.552 146.38Z" fill="black"/>
<path d="M373.005 121.46C373.005 121.46 380.186 109.46 378.579 106.913C376.978 104.366 374.013 105.655 374.013 105.655C374.013 105.655 360.831 85.2607 355.494 94.0313C355.494 94.0313 351.495 87.897 346.509 91.5673C341.528 95.2313 343.25 99.2655 346.764 101.793C346.764 101.793 343.818 108.247 346.93 111.215C350.042 114.177 347.217 121.913 345.042 122.947C345.042 122.947 339.315 138.076 346.101 141.81C352.879 145.544 365.723 145.41 368.12 128.928L373.005 121.46Z" fill="black"/>
<path d="M368.988 122.692L368.12 128.928C368.12 128.928 374.587 130.365 376.755 125.194C378.744 120.451 374.37 116.475 370.263 120.247C369.568 120.885 369.121 121.754 368.988 122.692Z" fill="white"/>
<path d="M370.059 129.509C372.259 129.509 375.646 128.89 377.132 125.354C378.158 122.903 377.623 120.305 375.824 119.041C374.498 118.109 372.266 117.853 369.983 119.947C369.224 120.643 368.727 121.6 368.58 122.635L367.713 128.871C367.681 129.082 367.821 129.279 368.032 129.331C368.057 129.331 368.886 129.509 370.059 129.516V129.509ZM373.624 119.162C374.243 119.162 374.836 119.341 375.352 119.705C376.564 120.56 377.399 122.59 376.373 125.035C374.625 129.19 369.945 128.801 368.574 128.59L369.39 122.743C369.511 121.894 369.913 121.115 370.531 120.547C371.526 119.634 372.617 119.162 373.618 119.162H373.624Z" fill="black"/>
<path d="M369.785 127.096C369.932 127.096 370.078 127.013 370.149 126.873C370.837 125.539 372.24 124.607 373.739 124.498C373.962 124.479 374.134 124.288 374.115 124.058C374.096 123.834 373.905 123.662 373.675 123.681C371.902 123.809 370.231 124.92 369.422 126.496C369.32 126.701 369.396 126.943 369.6 127.045C369.657 127.077 369.721 127.09 369.785 127.09V127.096Z" fill="black"/>
<path d="M346.763 108.974C346.763 108.974 349.288 106.096 352.011 106.23C352.011 106.23 356.054 109.523 359.772 111.77C361.711 112.945 362.693 115.224 362.214 117.439C361.736 119.666 361.073 122.392 360.352 124.415C359.855 125.794 358.484 126.656 357.024 126.503C354.039 126.184 348.74 125.303 345.041 122.935L346.763 108.968V108.974Z" fill="white"/>
<path d="M357.362 126.937C358.861 126.937 360.212 126.005 360.729 124.562C361.335 122.864 361.972 120.502 362.61 117.534C363.127 115.147 362.068 112.689 359.983 111.425C356.335 109.211 352.305 105.949 352.267 105.917C352.197 105.859 352.114 105.827 352.031 105.827C349.148 105.681 346.559 108.585 346.451 108.706C346.4 108.77 346.362 108.847 346.355 108.923L344.633 122.896C344.614 123.056 344.684 123.209 344.818 123.292C348.619 125.718 354.071 126.605 356.979 126.918C357.107 126.93 357.241 126.937 357.368 126.937H357.362ZM351.859 106.638C352.528 107.174 356.195 110.091 359.556 112.128C361.341 113.213 362.247 115.313 361.807 117.362C361.182 120.253 360.544 122.647 359.957 124.288C359.524 125.494 358.331 126.241 357.062 126.107C354.282 125.807 349.123 124.977 345.475 122.743L347.152 109.166C347.586 108.706 349.652 106.644 351.82 106.644C351.833 106.644 351.846 106.644 351.859 106.644V106.638Z" fill="black"/>
</g>
<defs>
<clipPath id="clip0_2992_4518">
<rect width="472" height="314" fill="white"/>
</clipPath>
</defs>
</svg>
