<svg width="293" height="314" viewBox="0 0 293 314" fill="none" xmlns="http://www.w3.org/2000/svg">
<g clip-path="url(#clip0_415_7405)">
<path d="M121.175 64.6557C121.277 64.6557 121.379 64.6174 121.456 64.5472L153.781 34.2268H264.402C264.626 34.2268 264.811 34.0417 264.811 33.8183C264.811 33.5949 264.626 33.4098 264.402 33.4098H153.615C153.513 33.4098 153.411 33.4481 153.334 33.5183L120.888 63.9535C120.723 64.1067 120.716 64.3684 120.869 64.5344C120.952 64.6238 121.061 64.662 121.169 64.662L121.175 64.6557Z" fill="#B3C9FF"/>
<path d="M271.411 41.2676C275.518 41.2676 278.859 37.9228 278.859 33.812C278.859 29.7012 275.518 26.3564 271.411 26.3564C267.304 26.3564 263.963 29.7012 263.963 33.812C263.963 37.9228 267.304 41.2676 271.411 41.2676ZM271.411 27.1798C275.065 27.1798 278.037 30.1544 278.037 33.812C278.037 37.4696 275.065 40.4441 271.411 40.4441C267.757 40.4441 264.785 37.4696 264.785 33.812C264.785 30.1544 267.757 27.1798 271.411 27.1798Z" fill="#B3C9FF"/>
<path d="M31.7772 293.737H63.7387C81.8111 293.737 98.6144 284.756 108.696 269.71C108.824 269.525 108.773 269.27 108.582 269.142C108.39 269.015 108.142 269.066 108.014 269.257C98.0915 284.073 81.5368 292.92 63.7387 292.92H31.7772C21.0384 292.92 12.2955 284.175 12.2955 273.419V198.059C12.2955 197.835 12.1106 197.65 11.8874 197.65C11.6642 197.65 11.4793 197.835 11.4793 198.059V273.419C11.4793 284.622 20.5856 293.737 31.7772 293.737Z" fill="#B3C9FF"/>
<path d="M-5.82738 277.728C-5.60419 277.728 -5.41929 277.542 -5.41929 277.319V31.6927C-5.41929 14.6686 8.41241 0.823431 25.4198 0.823431C42.4272 0.823431 56.2589 14.675 56.2589 31.6927V42.2952C56.2589 42.5187 56.4375 42.6974 56.6543 42.7038C88.5838 43.7187 113.594 69.5771 113.594 101.57C113.594 114.726 105.234 126.401 92.7863 130.62C92.6077 130.684 92.4929 130.856 92.5121 131.048C92.5312 131.239 92.6779 131.386 92.8628 131.411C98.4427 132.165 103.793 133.901 108.748 136.575C108.946 136.684 109.194 136.607 109.303 136.409C109.411 136.212 109.335 135.963 109.137 135.854C104.565 133.39 99.667 131.705 94.5591 130.843C106.503 126.107 114.417 114.541 114.417 101.57C114.417 85.9565 108.435 71.1857 97.569 59.9831C86.8238 48.9019 72.4565 42.4867 57.0752 41.8995V31.6927C57.0752 14.2218 42.8736 0 25.4134 0C7.95327 0 -6.24829 14.2154 -6.24829 31.6927V277.319C-6.24829 277.542 -6.06335 277.728 -5.84016 277.728H-5.82738Z" fill="#B3C9FF"/>
<path d="M74.0693 222.468H103.499C103.722 222.468 103.907 222.283 103.907 222.06C103.907 221.836 103.722 221.651 103.499 221.651H74.0693C73.8461 221.651 73.6612 221.836 73.6612 222.06C73.6612 222.283 73.8461 222.468 74.0693 222.468Z" fill="black"/>
<path d="M36.7831 257.869C37.0063 257.869 37.1912 257.684 37.1912 257.461V187.367L93.2066 131.297C93.366 131.137 93.366 130.875 93.2066 130.716C93.0472 130.556 92.7857 130.556 92.6263 130.716L36.4897 186.907C36.4132 186.984 36.3686 187.086 36.3686 187.194V257.455C36.3686 257.678 36.5535 257.863 36.7767 257.863L36.7831 257.869Z" fill="#B3C9FF"/>
<path d="M22.7793 154.085C22.8813 154.085 22.9897 154.046 23.0662 153.963L56.9599 120.037C57.0364 119.96 57.0811 119.858 57.0811 119.749V42.2953C57.0811 42.0718 56.8961 41.8867 56.6729 41.8867C56.4497 41.8867 56.2648 42.0718 56.2648 42.2953V119.583L22.4859 153.395C22.3265 153.555 22.3265 153.817 22.4859 153.976C22.5688 154.059 22.6709 154.097 22.7729 154.097L22.7793 154.085Z" fill="#B3C9FF"/>
<path d="M24.9474 98.1804C25.1706 98.1804 25.3555 97.9953 25.3555 97.7719V42.6974H56.6729C56.8961 42.6974 57.0811 42.5123 57.0811 42.2889C57.0811 42.0655 56.8961 41.8804 56.6729 41.8804H24.9474C24.7242 41.8804 24.5393 42.0655 24.5393 42.2889V97.7719C24.5393 97.9953 24.7242 98.1804 24.9474 98.1804Z" fill="#B3C9FF"/>
<path d="M24.9473 110.73C20.3758 110.73 16.67 107.02 16.67 102.444C16.67 97.8684 20.3758 94.1589 24.9473 94.1589C29.5187 94.1589 33.2246 97.8684 33.2246 102.444C33.2246 107.02 29.5187 110.73 24.9473 110.73Z" fill="white"/>
<path d="M24.9473 111.138C29.7365 111.138 33.6328 107.238 33.6328 102.444C33.6328 97.6505 29.7365 93.7504 24.9473 93.7504C20.1582 93.7504 16.2619 97.6505 16.2619 102.444C16.2619 107.238 20.1582 111.138 24.9473 111.138ZM24.9473 94.561C29.2837 94.561 32.8166 98.0974 32.8166 102.438C32.8166 106.779 29.2837 110.315 24.9473 110.315C20.611 110.315 17.0782 106.779 17.0782 102.438C17.0782 98.0974 20.611 94.561 24.9473 94.561Z" fill="#B3C9FF"/>
<path d="M10.2313 161.129C8.48186 156.902 10.4875 152.055 14.7109 150.304C18.9344 148.553 23.7764 150.56 25.5258 154.788C27.2752 159.015 25.2696 163.862 21.0461 165.613C16.8227 167.364 11.9807 165.357 10.2313 161.129Z" fill="#E2EAFF"/>
<path d="M7.5325 199.509C3.6439 197.104 2.44002 191.998 4.84354 188.105C7.24706 184.213 12.3478 183.008 16.2364 185.414C20.125 187.82 21.3289 192.925 18.9254 196.818C16.5218 200.71 11.4211 201.915 7.5325 199.509Z" fill="white"/>
<path d="M11.8868 201.18C16.6759 201.18 20.5723 197.28 20.5723 192.486C20.5723 187.692 16.6759 183.792 11.8868 183.792C7.09772 183.792 3.20139 187.692 3.20139 192.486C3.20139 197.28 7.09772 201.18 11.8868 201.18ZM11.8868 184.609C16.2232 184.609 19.756 188.145 19.756 192.486C19.756 196.827 16.2232 200.363 11.8868 200.363C7.55049 200.363 4.01766 196.827 4.01766 192.486C4.01766 188.145 7.55049 184.609 11.8868 184.609Z" fill="#B3C9FF"/>
<path d="M59.7591 223.943C58.709 219.489 61.4645 215.027 65.9137 213.976C70.3629 212.925 74.821 215.683 75.8711 220.136C76.9212 224.59 74.1657 229.052 69.7165 230.103C65.2673 231.155 60.8092 228.396 59.7591 223.943Z" fill="white"/>
<path d="M67.8067 230.754C72.5959 230.754 76.4922 226.853 76.4922 222.06C76.4922 217.266 72.5959 213.366 67.8067 213.366C63.0176 213.366 59.1213 217.266 59.1213 222.06C59.1213 226.853 63.0176 230.754 67.8067 230.754ZM67.8067 214.176C72.1431 214.176 75.6759 217.713 75.6759 222.053C75.6759 226.394 72.1431 229.93 67.8067 229.93C63.4704 229.93 59.9375 226.394 59.9375 222.053C59.9375 217.713 63.4704 214.176 67.8067 214.176Z" fill="black"/>
<path d="M36.7832 272.953C32.2118 272.953 28.5059 269.243 28.5059 264.668C28.5059 260.092 32.2118 256.382 36.7832 256.382C41.3547 256.382 45.0605 260.092 45.0605 264.668C45.0605 269.243 41.3547 272.953 36.7832 272.953Z" fill="#E2EAFF"/>
<path d="M129.842 143.342H292.717V340.577H129.842V143.342Z" fill="#E2EAFF"/>
<path d="M182.216 306.727L205.906 340.571H145.191C143.495 337.213 141.205 332.649 138.744 327.689C129.357 308.731 132.463 285.956 146.588 270.215C166.968 247.503 198.515 219.494 211.996 206.51C214.573 204.033 216.588 202.233 217.876 201.308C230.273 192.448 260.889 222.934 260.889 222.934L223.162 265.868L182.209 306.727H182.216Z" fill="white"/>
<path d="M145.198 340.979C145.262 340.979 145.325 340.966 145.383 340.934C145.587 340.832 145.663 340.583 145.561 340.385C144.031 337.353 141.665 332.655 139.121 327.504C129.746 308.578 132.801 286.198 146.901 270.489C162.014 253.644 183.249 233.907 198.758 219.5C204.153 214.489 208.808 210.155 212.29 206.81C214.937 204.263 216.901 202.527 218.125 201.646C229.489 193.527 257.261 219.972 260.341 222.96L222.87 265.606L181.936 306.446C181.795 306.586 181.776 306.81 181.891 306.969L205.582 340.813C205.709 340.998 205.964 341.043 206.149 340.915C206.334 340.788 206.379 340.532 206.251 340.347L182.758 306.784L223.463 266.174L261.208 223.221C261.348 223.062 261.342 222.813 261.189 222.66C259.926 221.402 230.184 192.039 217.647 200.989C216.384 201.889 214.395 203.65 211.716 206.229C208.247 209.574 203.586 213.902 198.197 218.913C182.682 233.332 161.427 253.088 146.288 269.959C139.299 277.747 134.861 287.341 133.445 297.707C132.029 308.074 133.738 318.51 138.381 327.887C140.932 333.038 143.298 337.736 144.828 340.775C144.898 340.915 145.045 340.998 145.191 340.998L145.198 340.979Z" fill="black"/>
<path d="M172.696 316.142C172.798 316.142 172.9 316.104 172.976 316.027L182.503 307.027C182.669 306.874 182.676 306.612 182.523 306.446C182.37 306.28 182.108 306.274 181.942 306.427L172.415 315.427C172.249 315.58 172.243 315.842 172.396 316.008C172.479 316.091 172.587 316.136 172.696 316.136V316.142Z" fill="black"/>
<path d="M247.663 340.571H174.079L241.682 217.751L275.977 198.384C276.309 199.272 289.866 212.383 279.778 248.027C272.023 275.417 255.086 320.955 247.663 340.571Z" fill="white"/>
<path d="M247.663 340.979C247.829 340.979 247.982 340.877 248.046 340.717C255.105 322.072 272.361 275.73 280.173 248.135C286.142 227.051 284.899 209.478 276.672 198.659C276.532 198.474 276.385 198.276 276.353 198.218C276.277 198.008 276.041 197.905 275.831 197.982C275.62 198.059 275.512 198.308 275.595 198.518C275.646 198.652 275.76 198.812 276.022 199.15C284.089 209.759 285.281 227.07 279.383 247.905C271.583 275.468 254.334 321.785 247.281 340.417C247.198 340.628 247.306 340.864 247.517 340.947C247.561 340.966 247.612 340.973 247.663 340.973V340.979Z" fill="black"/>
<path d="M174.08 340.979C174.227 340.979 174.367 340.902 174.437 340.768L227.966 243.52C228.074 243.322 228.004 243.073 227.806 242.965C227.609 242.856 227.36 242.926 227.251 243.124L173.723 340.373C173.615 340.571 173.685 340.82 173.882 340.928C173.946 340.96 174.01 340.979 174.08 340.979Z" fill="black"/>
<path d="M220.752 234.839C220.752 234.839 256.565 247.293 286.581 208.017C289.821 203.772 289.515 197.81 285.829 193.948C269.427 176.764 224.457 131.092 209.452 130.563C190.965 129.905 155.247 169.685 155.247 169.685L168.473 192.41L178.932 183.25L220.752 234.845V234.839Z" fill="#5479F7"/>
<path d="M178.02 181.998C178.11 181.998 178.192 181.973 178.269 181.916C178.448 181.775 178.486 181.52 178.346 181.341L174.22 175.934C174.086 175.756 173.824 175.717 173.646 175.858C173.467 175.998 173.429 176.254 173.569 176.432L177.695 181.839C177.778 181.947 177.899 181.998 178.02 181.998Z" fill="black"/>
<path d="M203.496 198.997C203.688 198.997 203.854 198.863 203.898 198.671L210.345 169.053C210.964 166.225 211.659 163.021 213.425 160.519C214.962 158.342 217.972 156.331 220.957 157.066C221.173 157.117 221.397 156.983 221.454 156.766C221.505 156.549 221.371 156.325 221.154 156.268C217.781 155.438 214.509 157.57 212.762 160.047C210.9 162.689 210.186 165.977 209.555 168.881L203.107 198.499C203.056 198.722 203.197 198.939 203.42 198.984C203.452 198.991 203.477 198.991 203.509 198.991L203.496 198.997Z" fill="black"/>
<path d="M235.19 214.642C235.375 214.642 235.547 214.515 235.592 214.323C237.83 204.308 238.755 194.031 238.334 183.773C238.327 183.55 238.136 183.371 237.907 183.377C237.683 183.384 237.505 183.575 237.511 183.805C237.926 193.986 237.014 204.199 234.788 214.144C234.737 214.368 234.877 214.585 235.101 214.636C235.133 214.642 235.158 214.649 235.19 214.649V214.642Z" fill="black"/>
<path d="M84.9796 190.386C85.4069 190.386 85.8214 190.418 86.2295 190.469C87.2562 186.326 88.8887 182.426 91.0314 178.864C90.7062 178.609 90.3873 178.341 90.0876 178.041C86.0637 174.013 86.0637 167.477 90.0876 163.443C94.1115 159.415 100.641 159.415 104.672 163.443C104.971 163.743 105.239 164.062 105.501 164.387C109.059 162.243 112.955 160.608 117.094 159.581C117.043 159.172 117.011 158.751 117.011 158.33C117.011 152.629 121.628 148.008 127.323 148.008C133.017 148.008 137.634 152.629 137.634 158.33C137.634 158.757 137.602 159.172 137.551 159.581C141.69 160.608 145.586 162.243 149.145 164.387C149.4 164.062 149.668 163.743 149.974 163.443C153.998 159.415 160.528 159.415 164.558 163.443C168.582 167.47 168.582 174.007 164.558 178.041C164.258 178.341 163.939 178.609 163.614 178.864C165.757 182.426 167.389 186.326 168.416 190.469C168.824 190.418 169.245 190.386 169.666 190.386C175.361 190.386 179.978 195.008 179.978 200.708C179.978 206.408 175.361 211.03 169.666 211.03C169.239 211.03 168.824 210.998 168.416 210.947C167.389 215.089 165.757 218.989 163.614 222.551C163.939 222.807 164.258 223.075 164.558 223.375C168.582 227.402 168.582 233.939 164.558 237.973C160.534 242.001 154.004 242.001 149.974 237.973C149.674 237.673 149.406 237.354 149.145 237.028C145.586 239.173 141.69 240.807 137.551 241.835C137.602 242.243 137.634 242.665 137.634 243.086C137.634 248.786 133.017 253.408 127.323 253.408C121.628 253.408 117.011 248.786 117.011 243.086C117.011 242.658 117.043 242.243 117.094 241.835C112.955 240.807 109.059 239.173 105.501 237.028C105.246 237.354 104.978 237.673 104.672 237.973C100.648 242.001 94.1178 242.001 90.0876 237.973C86.0637 233.945 86.0637 227.409 90.0876 223.375C90.3873 223.075 90.7062 222.807 91.0314 222.551C88.8887 218.989 87.2562 215.089 86.2295 210.947C85.8214 210.998 85.4005 211.03 84.9796 211.03C79.285 211.03 74.668 206.408 74.668 200.708C74.668 195.008 79.285 190.386 84.9796 190.386ZM127.316 219.877C137.889 219.877 146.466 211.298 146.466 200.708C146.466 190.118 137.896 181.539 127.316 181.539C116.737 181.539 108.166 190.118 108.166 200.708C108.166 211.298 116.737 219.877 127.316 219.877Z" fill="white"/>
<path d="M127.323 253.823C133.234 253.823 138.043 249.01 138.043 243.092C138.043 242.799 138.03 242.486 137.998 242.148C141.888 241.145 145.599 239.607 149.049 237.564C149.266 237.826 149.47 238.056 149.681 238.267C151.708 240.29 154.4 241.407 157.263 241.407C160.126 241.407 162.817 240.29 164.845 238.267C169.022 234.086 169.022 227.275 164.845 223.094C164.635 222.883 164.405 222.679 164.144 222.462C166.184 219.008 167.721 215.287 168.722 211.4C169.06 211.432 169.366 211.444 169.666 211.444C175.577 211.444 180.386 206.631 180.386 200.714C180.386 194.797 175.577 189.984 169.666 189.984C169.373 189.984 169.06 189.997 168.722 190.029C167.721 186.135 166.184 182.42 164.144 178.967C164.405 178.75 164.635 178.545 164.845 178.335C166.867 176.311 167.983 173.611 167.983 170.745C167.983 167.879 166.867 165.185 164.845 163.155C162.824 161.125 160.126 160.015 157.263 160.015C154.4 160.015 151.708 161.132 149.681 163.155C149.47 163.366 149.266 163.596 149.049 163.857C145.599 161.815 141.882 160.276 137.998 159.274C138.03 158.936 138.043 158.63 138.043 158.33C138.043 152.412 133.234 147.599 127.323 147.599C121.411 147.599 116.603 152.412 116.603 158.33C116.603 158.623 116.616 158.936 116.648 159.274C112.758 160.276 109.046 161.815 105.596 163.857C105.38 163.596 105.176 163.366 104.965 163.155C100.788 158.974 93.984 158.974 89.8071 163.155C87.7792 165.185 86.6696 167.879 86.6696 170.745C86.6696 173.611 87.7856 176.305 89.8071 178.335C90.0175 178.545 90.2471 178.75 90.5085 178.967C88.4679 182.42 86.931 186.141 85.9299 190.029C85.5919 189.997 85.2858 189.984 84.9861 189.984C79.0746 189.984 74.2663 194.797 74.2663 200.714C74.2663 206.631 79.0746 211.444 84.9861 211.444C85.2794 211.444 85.5919 211.432 85.9299 211.4C86.931 215.293 88.4679 219.008 90.5085 222.462C90.2471 222.679 90.0175 222.883 89.8071 223.094C85.6301 227.275 85.6301 234.086 89.8071 238.267C93.984 242.448 100.788 242.454 104.965 238.267C105.176 238.056 105.38 237.826 105.596 237.564C109.046 239.607 112.764 241.145 116.648 242.148C116.616 242.486 116.603 242.792 116.603 243.092C116.603 249.01 121.411 253.823 127.323 253.823ZM149.145 236.62C149.075 236.62 148.998 236.639 148.934 236.677C145.363 238.828 141.505 240.431 137.449 241.439C137.252 241.49 137.118 241.682 137.143 241.886C137.194 242.333 137.226 242.722 137.226 243.086C137.226 248.55 132.782 252.999 127.323 252.999C121.864 252.999 117.419 248.55 117.419 243.086C117.419 242.722 117.445 242.326 117.502 241.88C117.528 241.675 117.394 241.484 117.196 241.433C113.147 240.424 109.282 238.828 105.711 236.671C105.533 236.562 105.303 236.607 105.176 236.767C104.901 237.118 104.64 237.418 104.385 237.673C100.527 241.535 94.2454 241.535 90.381 237.673C86.5165 233.811 86.5229 227.524 90.381 223.655C90.6361 223.4 90.9358 223.138 91.2865 222.864C91.4523 222.736 91.4906 222.506 91.3822 222.328C89.2331 218.76 87.6325 214.891 86.6249 210.832C86.5739 210.627 86.3826 210.5 86.1786 210.525C85.7258 210.583 85.3432 210.608 84.9797 210.608C79.521 210.608 75.0762 206.159 75.0762 200.695C75.0762 195.231 79.521 190.782 84.9797 190.782C85.3432 190.782 85.7385 190.807 86.1786 190.865C86.3826 190.89 86.5739 190.756 86.6249 190.558C87.6325 186.505 89.2268 182.637 91.3822 179.062C91.4906 178.884 91.4459 178.654 91.2865 178.526C90.9358 178.252 90.6361 177.99 90.381 177.735C88.5125 175.864 87.4795 173.375 87.4795 170.726C87.4795 168.077 88.5125 165.587 90.381 163.717C94.2391 159.855 100.52 159.855 104.385 163.717C104.64 163.972 104.901 164.272 105.176 164.623C105.303 164.789 105.533 164.828 105.711 164.719C109.282 162.568 113.14 160.966 117.196 159.957C117.394 159.906 117.528 159.715 117.502 159.51C117.451 159.064 117.419 158.668 117.419 158.304C117.419 152.84 121.864 148.391 127.323 148.391C132.782 148.391 137.226 152.84 137.226 158.304C137.226 158.668 137.201 159.064 137.143 159.504C137.118 159.708 137.252 159.9 137.449 159.951C141.499 160.959 145.363 162.555 148.934 164.713C149.113 164.821 149.343 164.777 149.47 164.617C149.744 164.266 150.006 163.966 150.261 163.711C152.129 161.84 154.616 160.806 157.263 160.806C159.909 160.806 162.396 161.84 164.265 163.711C166.133 165.581 167.166 168.07 167.166 170.719C167.166 173.368 166.133 175.858 164.265 177.728C164.01 177.983 163.71 178.245 163.359 178.52C163.193 178.647 163.155 178.877 163.264 179.056C165.413 182.63 167.013 186.499 168.021 190.552C168.072 190.756 168.263 190.884 168.467 190.858C168.914 190.807 169.303 190.775 169.666 190.775C175.125 190.775 179.569 195.225 179.569 200.689C179.569 206.153 175.125 210.602 169.666 210.602C169.303 210.602 168.907 210.576 168.467 210.519C168.263 210.493 168.072 210.627 168.021 210.825C167.013 214.879 165.413 218.747 163.264 222.321C163.155 222.5 163.2 222.73 163.359 222.858C163.71 223.132 164.01 223.394 164.265 223.649C168.123 227.511 168.123 233.798 164.265 237.667C162.396 239.537 159.909 240.571 157.263 240.571C154.616 240.571 152.129 239.537 150.261 237.667C150.006 237.411 149.744 237.111 149.47 236.76C149.387 236.658 149.272 236.601 149.145 236.601V236.62ZM127.323 220.285C138.106 220.285 146.881 211.502 146.881 200.708C146.881 189.914 138.106 181.13 127.323 181.13C116.539 181.13 107.765 189.914 107.765 200.708C107.765 211.502 116.539 220.285 127.323 220.285ZM127.323 181.954C137.654 181.954 146.058 190.367 146.058 200.708C146.058 211.049 137.654 219.462 127.323 219.462C116.992 219.462 108.587 211.049 108.587 200.708C108.587 190.367 116.992 181.954 127.323 181.954Z" fill="black"/>
<path d="M234.508 215.874C234.508 215.874 231.67 246.003 213.61 248.167C195.551 250.331 163.213 215.536 161.096 213.327C158.972 211.119 159.081 208.138 166.013 212.389C166.013 212.389 159.393 208.176 158.711 205.431C158.029 202.686 163.022 203.114 168.825 206.893C168.825 206.893 158.143 201.097 158.711 197.369C159.004 195.448 163.921 194.886 174.704 201.92C174.704 201.92 168.723 198.199 165.981 195.448C163.156 192.607 166.013 188.943 175.961 194.822C185.756 200.612 201.239 214.981 201.239 214.981L204.727 201.92C204.727 201.92 224.853 205.923 234.508 215.861V215.874Z" fill="white"/>
<path d="M211.96 248.678C212.54 248.678 213.107 248.646 213.662 248.582C219.912 247.835 225.039 243.763 228.91 236.492C229.018 236.294 228.941 236.045 228.744 235.937C228.546 235.828 228.297 235.905 228.189 236.103C224.452 243.124 219.535 247.05 213.567 247.765C197.548 249.68 169.82 221.926 161.703 213.372L161.396 213.046C160.395 212 160.159 211.074 160.37 210.806C160.402 210.768 161.173 209.906 165.797 212.746C165.988 212.861 166.237 212.804 166.358 212.612C166.479 212.421 166.422 212.172 166.23 212.051C164.426 210.902 159.63 207.461 159.107 205.342C158.954 204.729 159.177 204.487 159.349 204.359C160.268 203.701 162.933 204.148 166.237 205.865C167.41 206.593 168.322 207.097 168.622 207.263C168.813 207.365 169.055 207.302 169.17 207.11C169.285 206.919 169.227 206.676 169.042 206.555C168.271 206.057 167.506 205.604 166.753 205.208C163.386 203.101 158.769 199.674 159.113 197.439C159.158 197.152 159.362 196.922 159.719 196.763C161.365 196.029 165.879 196.878 173.315 201.531C173.978 201.965 174.425 202.24 174.488 202.278C174.68 202.399 174.928 202.342 175.05 202.15C175.171 201.959 175.113 201.71 174.928 201.589C174.552 201.34 174.176 201.103 173.819 200.874C171.963 199.667 168.245 197.146 166.275 195.167C165.395 194.28 165.121 193.329 165.58 192.741C166.498 191.561 170.069 191.822 175.757 195.186C185.406 200.886 200.813 215.147 200.966 215.293C201.074 215.389 201.221 215.427 201.355 215.389C201.495 215.351 201.597 215.242 201.635 215.102L202.477 211.949C202.534 211.732 202.407 211.508 202.19 211.444C201.973 211.387 201.75 211.514 201.686 211.731L201.017 214.234C198.275 211.725 184.902 199.642 176.166 194.484C169.604 190.609 166.058 190.782 164.923 192.244C164.196 193.182 164.496 194.554 165.688 195.754C166.256 196.329 166.957 196.935 167.71 197.542C162.41 195.148 160.089 195.71 159.381 196.022C158.769 196.297 158.387 196.756 158.297 197.325C157.991 199.323 160.421 201.723 163.003 203.676C161.167 203.146 159.675 203.127 158.865 203.701C158.304 204.104 158.106 204.755 158.297 205.546C158.642 206.938 160.338 208.623 162.034 210.021C160.899 209.695 160.127 209.791 159.719 210.302C159.056 211.131 159.777 212.568 160.791 213.627L161.097 213.946C169.004 222.277 195.386 248.69 211.953 248.69L211.96 248.678Z" fill="black"/>
<path d="M209.102 221.421C209.223 221.421 209.35 221.364 209.427 221.255C209.561 221.077 209.529 220.815 209.344 220.681L202.865 215.804C202.686 215.67 202.425 215.702 202.291 215.887C202.157 216.066 202.189 216.327 202.374 216.461L208.853 221.338C208.929 221.396 209.012 221.421 209.095 221.421H209.102Z" fill="black"/>
<path d="M202.285 118.773L215.887 134.597C218.412 137.539 218.425 141.88 215.913 144.835C211.806 149.667 205.308 156.3 199.307 158.112C189.557 161.055 193.721 149.655 197.866 141.899C197.866 141.899 198.912 118.996 202.285 118.773Z" fill="white"/>
<path d="M205.052 146.38C205.129 146.38 205.205 146.361 205.275 146.316C205.467 146.195 205.518 145.94 205.397 145.748L199.982 137.424C199.861 137.233 199.606 137.182 199.415 137.303C199.224 137.424 199.173 137.68 199.294 137.871L204.708 146.195C204.784 146.316 204.918 146.38 205.052 146.38Z" fill="black"/>
<path d="M210.505 121.46C210.505 121.46 217.685 109.46 216.078 106.913C214.477 104.366 211.512 105.655 211.512 105.655C211.512 105.655 198.331 85.2608 192.993 94.0313C192.993 94.0313 188.995 87.897 184.008 91.5674C179.028 95.2314 180.75 99.2656 184.263 101.793C184.263 101.793 181.317 108.247 184.429 111.215C187.541 114.177 184.716 121.913 182.542 122.947C182.542 122.947 176.815 138.076 183.6 141.81C190.379 145.544 203.222 145.41 205.62 128.928L210.505 121.46Z" fill="black"/>
<path d="M206.487 122.692L205.62 128.928C205.62 128.928 212.086 130.365 214.254 125.194C216.244 120.451 211.869 116.475 207.763 120.247C207.068 120.885 206.621 121.754 206.487 122.692Z" fill="white"/>
<path d="M207.559 129.509C209.759 129.509 213.145 128.89 214.631 125.354C215.658 122.903 215.122 120.305 213.324 119.041C211.998 118.109 209.766 117.853 207.483 119.947C206.724 120.643 206.226 121.6 206.08 122.635L205.212 128.871C205.181 129.082 205.321 129.279 205.531 129.331C205.557 129.331 206.386 129.509 207.559 129.516V129.509ZM211.124 119.162C211.742 119.162 212.336 119.341 212.852 119.705C214.064 120.56 214.899 122.59 213.872 125.035C212.125 129.19 207.444 128.801 206.073 128.59L206.89 122.743C207.011 121.894 207.413 121.115 208.031 120.547C209.026 119.634 210.116 119.162 211.118 119.162H211.124Z" fill="black"/>
<path d="M207.285 127.096C207.431 127.096 207.578 127.013 207.648 126.873C208.337 125.539 209.74 124.607 211.239 124.498C211.462 124.479 211.634 124.288 211.615 124.058C211.596 123.834 211.404 123.662 211.175 123.681C209.402 123.809 207.731 124.92 206.921 126.496C206.819 126.701 206.896 126.943 207.1 127.045C207.157 127.077 207.221 127.09 207.285 127.09V127.096Z" fill="black"/>
<path d="M184.263 108.974C184.263 108.974 186.788 106.096 189.511 106.23C189.511 106.23 193.554 109.523 197.272 111.77C199.21 112.945 200.192 115.224 199.714 117.439C199.236 119.666 198.573 122.392 197.852 124.415C197.355 125.794 195.984 126.656 194.523 126.503C191.539 126.184 186.24 125.303 182.541 122.935L184.263 108.968V108.974Z" fill="white"/>
<path d="M194.861 126.937C196.36 126.937 197.712 126.005 198.228 124.562C198.834 122.864 199.472 120.502 200.11 117.534C200.626 115.147 199.568 112.689 197.482 111.425C193.835 109.211 189.804 105.949 189.766 105.917C189.696 105.859 189.613 105.827 189.53 105.827C186.648 105.681 184.059 108.585 183.95 108.706C183.899 108.77 183.861 108.847 183.855 108.923L182.133 122.896C182.114 123.056 182.184 123.209 182.318 123.292C186.119 125.718 191.571 126.605 194.479 126.918C194.606 126.93 194.74 126.937 194.868 126.937H194.861ZM189.358 106.638C190.028 107.174 193.694 110.091 197.055 112.128C198.841 113.213 199.746 115.313 199.306 117.362C198.681 120.253 198.044 122.647 197.457 124.288C197.023 125.494 195.831 126.241 194.562 126.107C191.781 125.807 186.622 124.977 182.975 122.743L184.652 109.166C185.086 108.706 187.152 106.644 189.32 106.644C189.333 106.644 189.345 106.644 189.358 106.644V106.638Z" fill="black"/>
</g>
<defs>
<clipPath id="clip0_415_7405">
<rect width="292" height="314" fill="white" transform="translate(0.5)"/>
</clipPath>
</defs>
</svg>
