
<svg width="39" height="26" viewBox="0 0 39 26" fill="none" xmlns="http://www.w3.org/2000/svg">
<rect x="1" y="0.5" width="37" height="25" rx="12.5" fill="white"/>
<rect x="1" y="0.5" width="37" height="25" rx="12.5" stroke="#C0C0C0"/>
<g clip-path="url(#clip0_1513_23561)">
<path d="M15 11.5C14.175 11.5 13.5 12.175 13.5 13C13.5 13.825 14.175 14.5 15 14.5C15.825 14.5 16.5 13.825 16.5 13C16.5 12.175 15.825 11.5 15 11.5ZM24 11.5C23.175 11.5 22.5 12.175 22.5 13C22.5 13.825 23.175 14.5 24 14.5C24.825 14.5 25.5 13.825 25.5 13C25.5 12.175 24.825 11.5 24 11.5ZM19.5 11.5C18.675 11.5 18 12.175 18 13C18 13.825 18.675 14.5 19.5 14.5C20.325 14.5 21 13.825 21 13C21 12.175 20.325 11.5 19.5 11.5Z" fill="#666666"/>
</g>
<defs>
<clipPath id="clip0_1513_23561">
<rect width="18" height="18" fill="white" transform="translate(10.5 4)"/>
</clipPath>
</defs>
</svg>
