
<svg width="21" height="20" viewBox="0 0 21 20" fill="none" xmlns="http://www.w3.org/2000/svg">
<g id="More horiz" clip-path="url(#clip0_1505_10536)">
<path id="Vector" d="M1 4C1 2.067 2.567 0.5 4.5 0.5H16.5C18.433 0.5 20 2.067 20 4V16C20 17.933 18.433 19.5 16.5 19.5H4.5C2.567 19.5 1 17.933 1 16V4Z" stroke="#E8E7E7"/>
<path id="Vector_2" d="M5.49967 8.33331C4.58301 8.33331 3.83301 9.08331 3.83301 9.99998C3.83301 10.9166 4.58301 11.6666 5.49967 11.6666C6.41634 11.6666 7.16634 10.9166 7.16634 9.99998C7.16634 9.08331 6.41634 8.33331 5.49967 8.33331ZM15.4997 8.33331C14.583 8.33331 13.833 9.08331 13.833 9.99998C13.833 10.9166 14.583 11.6666 15.4997 11.6666C16.4163 11.6666 17.1663 10.9166 17.1663 9.99998C17.1663 9.08331 16.4163 8.33331 15.4997 8.33331ZM10.4997 8.33331C9.58301 8.33331 8.83301 9.08331 8.83301 9.99998C8.83301 10.9166 9.58301 11.6666 10.4997 11.6666C11.4163 11.6666 12.1663 10.9166 12.1663 9.99998C12.1663 9.08331 11.4163 8.33331 10.4997 8.33331Z" fill="#666666"/>
</g>
<defs>
<clipPath id="clip0_1505_10536">
<rect width="20" height="20" fill="white" transform="translate(0.5)"/>
</clipPath>
</defs>
</svg>
