<svg width="24" height="24" viewBox="0 0 24 24" fill="none" xmlns="http://www.w3.org/2000/svg">
<g clip-path="url(#clip0_267_3339)">
<path d="M23.7239 18.2818C23.2952 17.5585 22.6714 16.9843 21.9433 16.6097C22.3207 16.1479 22.5262 15.5749 22.5262 14.9705C22.5262 14.2771 22.2561 13.6252 21.7659 13.135C21.5046 12.8738 21.201 12.6806 20.8769 12.5542C20.5301 10.8199 19.6811 9.22575 18.4021 7.94676C17.528 7.07262 16.5062 6.39971 15.3935 5.95037C15.0106 5.49004 14.5389 5.11504 14.0129 4.84423C14.3904 4.38244 14.5957 3.80969 14.5957 3.20507C14.5957 2.51184 14.3258 1.85998 13.8355 1.36963C13.3453 0.879455 12.6934 0.609375 12 0.609375C11.3068 0.609375 10.6549 0.879455 10.1646 1.36963C9.67439 1.85998 9.40431 2.51184 9.40431 3.20507C9.40431 3.80969 9.60976 4.38244 9.98732 4.84423C9.46107 5.11504 8.98958 5.49004 8.60671 5.95019C7.49398 6.39971 6.47225 7.07262 5.59792 7.94676C4.31893 9.22575 3.47006 10.8199 3.12307 12.5542C2.79916 12.6806 2.49539 12.8738 2.23428 13.135C1.74392 13.6252 1.47384 14.2771 1.47384 14.9705C1.47384 15.5749 1.67929 16.1479 2.05685 16.6097C1.32883 16.9843 0.704986 17.5585 0.276154 18.2818C-0.0867607 18.8939 -0.0922538 19.6298 0.261322 20.2503C0.617828 20.8762 1.26016 21.2501 1.9794 21.2501H6.13936C7.77431 22.6428 9.82857 23.4025 12 23.4025C14.1715 23.4025 16.2257 22.6428 17.8605 21.2501H22.0204C22.7397 21.2501 23.382 20.8762 23.7387 20.2503C24.0923 19.6298 24.0868 18.8939 23.7239 18.2818ZM22.4817 19.534C22.4355 19.615 22.2984 19.8032 22.0206 19.8032H17.8403C17.5626 19.8032 17.4254 19.615 17.3793 19.534C17.3346 19.4558 17.2456 19.2489 17.3817 19.0197C17.913 18.123 18.8897 17.5662 19.9305 17.5662C20.9711 17.5662 21.9477 18.123 22.4793 19.0197C22.6152 19.2489 22.5262 19.4558 22.4817 19.534ZM20.7427 15.7827C20.2949 16.2308 19.5661 16.2308 19.118 15.7827C18.6702 15.3349 18.6702 14.6061 19.118 14.1581C19.342 13.9341 19.6362 13.8222 19.9305 13.8222C20.2247 13.8222 20.5188 13.9341 20.7427 14.1581C21.1908 14.6061 21.1908 15.3349 20.7427 15.7827ZM11.1878 2.39282C11.4117 2.16888 11.7059 2.05682 12 2.05682C12.2943 2.05682 12.5883 2.16888 12.8124 2.39282C13.2603 2.84069 13.2603 3.56945 12.8124 4.01751C12.3644 4.46539 11.6356 4.46539 11.1878 4.01751C10.7399 3.56945 10.7399 2.84069 11.1878 2.39282ZM14.5488 7.25426C14.6849 7.48369 14.5959 7.69042 14.5512 7.7686C14.5051 7.84954 14.3679 8.03777 14.0902 8.03777H9.90986C9.63209 8.03777 9.49495 7.84954 9.44881 7.7686C9.40431 7.69042 9.31514 7.48369 9.45119 7.25426C9.98256 6.35778 10.9592 5.80077 12 5.80077C13.0408 5.80077 14.0175 6.35778 14.5488 7.25426ZM1.51852 19.534C1.47384 19.4558 1.38486 19.2489 1.52072 19.0197C2.05227 18.123 3.02896 17.5662 4.06973 17.5662C5.11031 17.5662 6.087 18.123 6.61855 19.0197C6.75441 19.2489 6.66542 19.4558 6.62075 19.534C6.5746 19.615 6.43746 19.8032 6.15969 19.8032H1.97958C1.70181 19.8032 1.56466 19.615 1.51852 19.534ZM3.25729 14.1581C3.48141 13.9341 3.77548 13.8222 4.06973 13.8222C4.36379 13.8222 4.65804 13.9341 4.88198 14.1581C5.32986 14.6061 5.32986 15.3349 4.88198 15.7827C4.4341 16.2306 3.70535 16.2306 3.25729 15.7827C2.80941 15.3349 2.80941 14.6061 3.25729 14.1581ZM7.63991 20.5843C7.7289 20.4829 7.80892 20.3715 7.87795 20.2503C8.23152 19.6298 8.22603 18.8939 7.86312 18.282C7.43447 17.5587 6.81044 16.9843 6.08242 16.6097C6.45998 16.1479 6.66542 15.5749 6.66542 14.9705C6.66542 14.2773 6.39534 13.6254 5.90499 13.135C5.54317 12.7732 5.10024 12.5414 4.63406 12.4385C4.96914 11.1376 5.64626 9.94462 6.62111 8.96977C7.0342 8.55687 7.48647 8.19744 7.9695 7.89458C8.0107 8.09746 8.08431 8.2965 8.19179 8.48491C8.5483 9.11095 9.19063 9.48466 9.90986 9.48466H14.0902C14.8096 9.48466 15.4517 9.11095 15.8084 8.48491C15.9157 8.2965 15.9895 8.09746 16.0307 7.89458C16.5136 8.19744 16.966 8.55669 17.3791 8.96977C18.3539 9.94462 19.0311 11.1376 19.366 12.4385C18.9 12.5416 18.4568 12.7732 18.095 13.135C17.6047 13.6254 17.3348 14.2773 17.3348 14.9705C17.3348 15.5749 17.54 16.1479 17.9176 16.6097C17.1896 16.9843 16.5657 17.5585 16.1371 18.282C15.7742 18.8939 15.7687 19.6298 16.1221 20.2503C16.1911 20.3715 16.2711 20.4831 16.3601 20.5845C15.0914 21.4755 13.5828 21.9558 12 21.9558C10.4174 21.9558 8.90883 21.4755 7.63991 20.5843Z" fill="white"/>
</g>
<defs>
<clipPath id="clip0_267_3339">
<rect width="24" height="24" fill="white"/>
</clipPath>
</defs>
</svg>
