<svg xmlns="http://www.w3.org/2000/svg" width="22" height="20" viewBox="0 0 22 20" fill="none">
  <g opacity="0.6">
    <path d="M10.7708 18.1252H4.8125V14.1668C4.8125 13.3627 5.53208 12.7085 6.41667 12.7085H9.16667C10.0512 12.7085 10.7708 13.3627 10.7708 14.1668V18.1252ZM6.1875 16.8752H9.39583V14.1668C9.39583 14.0518 9.29317 13.9585 9.16667 13.9585H6.41667C6.29017 13.9585 6.1875 14.0518 6.1875 14.1668V16.8752Z" fill="#34384E"/>
    <path d="M18.4104 8.15917L13.5209 6.25417V3.59083C13.5209 3.1325 13.2908 2.71 12.8902 2.43167C12.4906 2.15417 11.9827 2.06333 11.496 2.18417L3.92064 4.06167C2.82706 4.3325 2.06348 5.2425 2.06348 6.2725V15.8325C2.06348 17.0967 3.19373 18.1242 4.58431 18.1242H17.4176C18.8082 18.1242 19.9385 17.0967 19.9385 15.8325V10.265C19.9385 9.3475 19.339 8.52083 18.4113 8.15833L18.4104 8.15917ZM12.1459 16.875H4.58339C3.95181 16.875 3.43756 16.4075 3.43756 15.8333V6.27333C3.43756 5.805 3.78498 5.39167 4.28181 5.26833L11.8581 3.39083C11.8791 3.385 11.9002 3.38333 11.9186 3.38333C11.9818 3.38333 12.0304 3.40833 12.0551 3.42583C12.0891 3.44917 12.1459 3.50167 12.1459 3.59167V16.875ZM18.5626 15.8333C18.5626 16.4075 18.0483 16.875 17.4167 16.875H13.5209V7.61417L17.8677 9.30833C18.2894 9.4725 18.5626 9.84833 18.5626 10.2658V15.8333ZM9.85423 7.5C9.85423 7.845 9.54623 8.125 9.16673 8.125H6.41673C6.03723 8.125 5.72923 7.845 5.72923 7.5C5.72923 7.155 6.03723 6.875 6.41673 6.875H9.16673C9.54623 6.875 9.85423 7.155 9.85423 7.5ZM9.85423 10C9.85423 10.345 9.54623 10.625 9.16673 10.625H6.41673C6.03723 10.625 5.72923 10.345 5.72923 10C5.72923 9.655 6.03723 9.375 6.41673 9.375H9.16673C9.54623 9.375 9.85423 9.655 9.85423 10ZM17.1876 14.1667C17.1876 14.5117 16.8796 14.7917 16.5001 14.7917H15.5834C15.2039 14.7917 14.8959 14.5117 14.8959 14.1667C14.8959 13.8217 15.2039 13.5417 15.5834 13.5417H16.5001C16.8796 13.5417 17.1876 13.8217 17.1876 14.1667ZM17.1876 11.6667C17.1876 12.0117 16.8796 12.2917 16.5001 12.2917H15.5834C15.2039 12.2917 14.8959 12.0117 14.8959 11.6667C14.8959 11.3217 15.2039 11.0417 15.5834 11.0417H16.5001C16.8796 11.0417 17.1876 11.3217 17.1876 11.6667Z" fill="#34384E"/>
  </g>
</svg>