<svg xmlns="http://www.w3.org/2000/svg" width="18" height="18" viewBox="0 0 18 18" fill="none">
  <g opacity="0.9">
    <path fill-rule="evenodd" clip-rule="evenodd" d="M15.1581 1.5L11.25 1.5C10.8358 1.5 10.5 1.83579 10.5 2.25C10.5 2.66421 10.8358 3 11.25 3L13.5484 3L6.61811 9.9303C6.32521 10.2232 6.32521 10.6981 6.61811 10.991C6.911 11.2839 7.38587 11.2839 7.67877 10.991L15 3.66973V6.75C15 7.16421 15.3358 7.5 15.75 7.5C16.1642 7.5 16.5 7.16421 16.5 6.75V2.25C16.5 1.83579 16.1642 1.5 15.75 1.5H15.6388C15.375 1.5 15.375 1.50002 15.1581 1.5ZM3.39844 5.21063C3.19952 5.21063 3.00876 5.28965 2.86811 5.4303C2.72746 5.57095 2.64844 5.76172 2.64844 5.96063L2.64844 14.2106C2.64844 14.4095 2.72746 14.6003 2.86811 14.741C3.00876 14.8816 3.19953 14.9606 3.39844 14.9606L11.6484 14.9606C11.8473 14.9606 12.0381 14.8816 12.1788 14.741C12.3194 14.6003 12.3984 14.4095 12.3984 14.2106V9.71063C12.3984 9.29642 12.7342 8.96063 13.1484 8.96063C13.5627 8.96063 13.8984 9.29642 13.8984 9.71063V14.2106C13.8984 14.8074 13.6614 15.3797 13.2394 15.8016C12.8175 16.2236 12.2452 16.4606 11.6484 16.4606H3.39844C2.8017 16.4606 2.2294 16.2236 1.80745 15.8016C1.38549 15.3797 1.14844 14.8074 1.14844 14.2106L1.14844 5.96063C1.14844 5.3639 1.38549 4.7916 1.80745 4.36964C2.2294 3.94769 2.8017 3.71063 3.39844 3.71063L7.89844 3.71063C8.31265 3.71063 8.64844 4.04642 8.64844 4.46063C8.64844 4.87485 8.31265 5.21063 7.89844 5.21063L3.39844 5.21063Z" fill="#464646"/>
  </g>
</svg>