<svg width="200" height="200" viewBox="0 0 200 200" fill="none" xmlns="http://www.w3.org/2000/svg">
<g opacity="0.2" clip-path="url(#clip0_267_3275)">
<path d="M151.159 82.3706C151.119 82.3249 151.08 82.2788 151.042 82.2316C150.111 81.0855 148.91 80.8597 148.277 80.8269C147.644 80.7937 146.426 80.8964 145.383 81.9409L87.6775 139.736C85.5259 141.891 82.0881 142.05 79.7462 140.106L55.4595 119.939C54.0302 118.752 51.9661 118.764 50.5524 119.968C50.5345 119.983 50.5169 119.998 50.4981 120.013L0 161.952V174.443C0 188.536 11.4645 200 25.5567 200H174.443C188.536 200 200 188.535 200 174.443V138.866L151.159 82.3706Z" fill="#2D2E34"/>
<path d="M62.9588 36.3877C53.7924 36.3877 46.335 43.8451 46.335 53.0112C46.335 62.1772 53.7928 69.6346 62.9588 69.6346C72.1252 69.6346 79.5823 62.1772 79.5823 53.0112C79.5823 43.8447 72.1252 36.3877 62.9588 36.3877Z" fill="#2D2E34"/>
<path d="M174.444 0H25.5567C11.4653 0 0 11.4645 0 25.5567V146.638L42.947 110.971C48.7306 106.074 57.1513 106.031 62.9849 110.875L83.1373 127.609L137.046 73.6169C140.163 70.4962 144.48 68.8372 148.88 69.0615C153.251 69.2857 157.343 71.349 160.122 74.7259L200 120.853V25.5567C200 11.4645 188.535 0 174.444 0ZM62.9587 81.4146C47.2966 81.4146 34.5548 68.6728 34.5548 53.011C34.5548 37.3493 47.2974 24.6075 62.9587 24.6075C78.6209 24.6075 91.3623 37.3497 91.3623 53.011C91.3623 68.6728 78.6209 81.4146 62.9587 81.4146Z" fill="#2D2E34"/>
</g>
<defs>
<clipPath id="clip0_267_3275">
<rect width="200" height="200" fill="white"/>
</clipPath>
</defs>
</svg>
