<svg width="24" height="24" viewBox="0 0 24 24" fill="none" xmlns="http://www.w3.org/2000/svg">
<g clip-path="url(#clip0_267_3345)">
<mask id="mask0_267_3345" style="mask-type:luminance" maskUnits="userSpaceOnUse" x="0" y="0" width="24" height="24">
<path d="M0 1.90735e-06H24V24H0V1.90735e-06Z" fill="white"/>
</mask>
<g mask="url(#mask0_267_3345)">
<path fill-rule="evenodd" clip-rule="evenodd" d="M17.2363 3.33164C17.2363 5.12115 18.687 6.57178 20.4765 6.57178C22.266 6.57178 23.7167 5.12116 23.7167 3.33164C23.7167 1.54213 22.266 0.0914493 20.4765 0.0914493C18.6869 0.0914493 17.2363 1.54214 17.2363 3.33164ZM20.4765 5.16553C19.4636 5.16553 18.6426 4.3445 18.6426 3.33164C18.6426 2.31876 19.4636 1.4977 20.4765 1.4977C21.4894 1.4977 22.3104 2.31877 22.3104 3.33164C22.3104 4.34449 21.4894 5.16553 20.4765 5.16553Z" fill="white"/>
<path fill-rule="evenodd" clip-rule="evenodd" d="M17.5195 15.4151C17.5195 17.2046 18.9702 18.6553 20.7597 18.6553C22.5492 18.6553 23.9999 17.2047 23.9999 15.4151C23.9999 13.6256 22.5492 12.1749 20.7597 12.1749C18.9701 12.1749 17.5195 13.6256 17.5195 15.4151ZM20.7597 17.249C19.7468 17.249 18.9258 16.428 18.9258 15.4151C18.9258 14.4023 19.7468 13.5812 20.7597 13.5812C21.7725 13.5812 22.5936 14.4023 22.5936 15.4151C22.5936 16.428 21.7726 17.249 20.7597 17.249Z" fill="white"/>
<path fill-rule="evenodd" clip-rule="evenodd" d="M0 3.73686C0 5.52638 1.45067 6.97705 3.24019 6.97705C5.0297 6.97705 6.48037 5.52638 6.48037 3.73686C6.48037 1.94735 5.0297 0.496676 3.24019 0.496676C1.45067 0.496676 0 1.94735 0 3.73686ZM3.24019 5.5708C2.22733 5.5708 1.40625 4.74973 1.40625 3.73686C1.40625 2.724 2.22733 1.90293 3.24019 1.90293C4.25305 1.90293 5.07412 2.724 5.07412 3.73686C5.07412 4.74973 4.25305 5.5708 3.24019 5.5708Z" fill="white"/>
<path fill-rule="evenodd" clip-rule="evenodd" d="M13.9131 21.4116C13.9131 22.7908 15.0311 23.9087 16.4102 23.9087C17.7893 23.9087 18.9073 22.7907 18.9073 21.4116C18.9073 20.0325 17.7893 18.9145 16.4102 18.9145C15.0311 18.9145 13.9131 20.0325 13.9131 21.4116ZM16.4102 22.5024C15.8077 22.5024 15.3193 22.0141 15.3193 21.4116C15.3193 20.8092 15.8077 20.3208 16.4102 20.3208C17.0126 20.3208 17.501 20.8092 17.501 21.4116C17.501 22.0141 17.0126 22.5024 16.4102 22.5024Z" fill="white"/>
<path fill-rule="evenodd" clip-rule="evenodd" d="M10.7451 3.47216C10.7451 4.85129 11.8631 5.96924 13.2422 5.96924C14.6213 5.96924 15.7393 4.85129 15.7393 3.47216C15.7393 2.09303 14.6213 0.975082 13.2422 0.975082C11.8631 0.975082 10.7451 2.09303 10.7451 3.47216ZM13.2422 4.56299C12.6398 4.56299 12.1514 4.07462 12.1514 3.47216C12.1514 2.8697 12.6398 2.38133 13.2422 2.38133C13.8446 2.38133 14.333 2.8697 14.333 3.47216C14.333 4.07462 13.8446 4.56299 13.2422 4.56299Z" fill="white"/>
<path fill-rule="evenodd" clip-rule="evenodd" d="M0 18.8745C0 20.2536 1.11796 21.3716 2.49708 21.3716C3.87614 21.3716 4.99416 20.2536 4.99416 18.8745C4.99416 17.4954 3.87614 16.3774 2.49708 16.3774C1.11796 16.3774 0 17.4954 0 18.8745ZM2.49708 19.9653C1.89461 19.9653 1.40625 19.477 1.40625 18.8745C1.40625 18.272 1.89461 17.7837 2.49708 17.7837C3.09951 17.7837 3.58791 18.272 3.58791 18.8745C3.58791 19.477 3.09951 19.9653 2.49708 19.9653Z" fill="white"/>
<path fill-rule="evenodd" clip-rule="evenodd" d="M4.93359 13.5031C4.93359 16.6161 7.45726 19.146 10.5769 19.146C13.6933 19.146 16.2197 16.6192 16.2197 13.5031C16.2197 10.3858 13.6911 7.85986 10.5769 7.85986C7.46014 7.85986 4.93359 10.3871 4.93359 13.5031ZM10.5769 17.7397C8.2348 17.7397 6.33984 15.8404 6.33984 13.5031C6.33984 11.1636 8.23689 9.26611 10.5769 9.26611C12.9148 9.26611 14.8135 11.1628 14.8135 13.5031C14.8135 15.8426 12.9166 17.7397 10.5769 17.7397Z" fill="white"/>
<path fill-rule="evenodd" clip-rule="evenodd" d="M8.03234 10.1153C8.34279 9.88203 8.40536 9.44126 8.17209 9.13081L5.32584 5.34284C5.09257 5.03239 4.65179 4.96982 4.34134 5.20309C4.03088 5.43636 3.96832 5.87714 4.20159 6.18759L7.04784 9.97556C7.28111 10.286 7.72189 10.3486 8.03234 10.1153Z" fill="white"/>
<path fill-rule="evenodd" clip-rule="evenodd" d="M11.6653 9.40739C12.0406 9.50713 12.4257 9.28374 12.5254 8.90844L13.461 5.3877C13.5608 5.01241 13.3374 4.62732 12.9621 4.52758C12.5868 4.42785 12.2017 4.65123 12.102 5.02653L11.1663 8.54727C11.0666 8.92257 11.29 9.30766 11.6653 9.40739Z" fill="white"/>
<path fill-rule="evenodd" clip-rule="evenodd" d="M15.7633 20.5336C16.0758 20.3031 16.1423 19.8629 15.9118 19.5504L14.0757 17.0609C13.8452 16.7484 13.405 16.6819 13.0925 16.9124C12.7799 17.1429 12.7134 17.5831 12.9439 17.8956L14.78 20.3851C15.0105 20.6976 15.4507 20.7641 15.7633 20.5336Z" fill="white"/>
<path fill-rule="evenodd" clip-rule="evenodd" d="M3.40574 18.2705C3.62073 18.5939 4.05716 18.6818 4.38055 18.4668L6.85274 16.8233C7.17612 16.6083 7.264 16.1719 7.04902 15.8485C6.83403 15.5251 6.3976 15.4373 6.07421 15.6522L3.60202 17.2957C3.27864 17.5107 3.19076 17.9471 3.40574 18.2705Z" fill="white"/>
<path fill-rule="evenodd" clip-rule="evenodd" d="M18.9573 15.077C19.029 14.6954 18.7778 14.3278 18.3962 14.2561L15.5626 13.7236C15.181 13.6519 14.8134 13.9031 14.7417 14.2848C14.67 14.6664 14.9212 15.0339 15.3029 15.1057L18.1364 15.6382C18.5181 15.7099 18.8856 15.4586 18.9573 15.077Z" fill="white"/>
<path fill-rule="evenodd" clip-rule="evenodd" d="M13.5321 10.4673C13.8104 10.7381 14.2555 10.7321 14.5263 10.4538L19.211 5.64018C19.4819 5.36189 19.4758 4.91674 19.1975 4.6459C18.9193 4.37506 18.4741 4.38111 18.2033 4.65939L13.5186 9.47299C13.2477 9.75128 13.2538 10.1964 13.5321 10.4673Z" fill="white"/>
</g>
</g>
<defs>
<clipPath id="clip0_267_3345">
<rect width="24" height="24" fill="white"/>
</clipPath>
</defs>
</svg>
