<svg width="20" height="20" viewBox="0 0 20 20" fill="none" xmlns="http://www.w3.org/2000/svg">
<path d="M16.2999 9.29998L10.7 9.29998V3.69996C10.7 3.31364 10.3864 3 9.99994 3C9.61362 3 9.29998 3.31364 9.29998 3.69996V9.29998H3.69996C3.31364 9.29998 3 9.61362 3 9.99994C3 10.3864 3.31364 10.7 3.69996 10.7H9.29998L9.29998 16.2999C9.29998 16.6864 9.61362 17 9.99994 17C10.3864 17 10.7 16.6864 10.7 16.2999L10.7 10.7L16.2999 10.7C16.6864 10.7 17 10.3864 17 9.99994C17 9.61362 16.6864 9.29998 16.2999 9.29998Z" fill="white"/>
</svg>
