<svg width="18" height="18" viewBox="0 0 18 18" fill="none" xmlns="http://www.w3.org/2000/svg">
<g id="plus">
<path id="Vector" d="M14.3999 8.39998L9.60002 8.39998V3.59996C9.60002 3.26883 9.33118 3 8.99995 3C8.66882 3 8.39998 3.26883 8.39998 3.59996V8.39998H3.59996C3.26883 8.39998 3 8.66882 3 8.99995C3 9.33118 3.26883 9.60002 3.59996 9.60002H8.39998L8.39998 14.3999C8.39998 14.7312 8.66882 15 8.99995 15C9.33118 15 9.60002 14.7312 9.60002 14.3999L9.60002 9.60002L14.3999 9.60002C14.7312 9.60002 15 9.33118 15 8.99995C15 8.66882 14.7312 8.39998 14.3999 8.39998Z" fill="black"/>
</g>
</svg>
