<svg xmlns="http://www.w3.org/2000/svg" width="16" height="16" viewBox="0 0 16 16" fill="none">
  <mask id="mask0_3891_26771" style="mask-type:alpha" maskUnits="userSpaceOnUse" x="0" y="0" width="16" height="16">
    <rect width="16" height="16" fill="#D9D9D9"/>
  </mask>
  <g mask="url(#mask0_3891_26771)">
    <path d="M7.96683 12.0002C8.20016 12.0002 8.39739 11.9196 8.5585 11.7585C8.71961 11.5974 8.80016 11.4002 8.80016 11.1668C8.80016 10.9335 8.71961 10.7363 8.5585 10.5752C8.39739 10.4141 8.20016 10.3335 7.96683 10.3335C7.7335 10.3335 7.53627 10.4141 7.37516 10.5752C7.21405 10.7363 7.1335 10.9335 7.1335 11.1668C7.1335 11.4002 7.21405 11.5974 7.37516 11.7585C7.53627 11.9196 7.7335 12.0002 7.96683 12.0002ZM7.36683 9.4335H8.60016C8.60016 9.06683 8.64183 8.77794 8.72516 8.56683C8.8085 8.35572 9.04461 8.06683 9.4335 7.70016C9.72239 7.41127 9.95016 7.13627 10.1168 6.87516C10.2835 6.61405 10.3668 6.30016 10.3668 5.9335C10.3668 5.31127 10.1391 4.8335 9.6835 4.50016C9.22794 4.16683 8.68905 4.00016 8.06683 4.00016C7.4335 4.00016 6.91961 4.16683 6.52516 4.50016C6.13072 4.8335 5.85572 5.2335 5.70016 5.70016L6.80016 6.1335C6.85572 5.9335 6.98072 5.71683 7.17516 5.4835C7.36961 5.25016 7.66683 5.1335 8.06683 5.1335C8.42239 5.1335 8.68905 5.23072 8.86683 5.42516C9.04461 5.61961 9.1335 5.8335 9.1335 6.06683C9.1335 6.28905 9.06683 6.49739 8.9335 6.69183C8.80016 6.88627 8.6335 7.06683 8.4335 7.2335C7.94461 7.66683 7.64461 7.99461 7.5335 8.21683C7.42239 8.43905 7.36683 8.84461 7.36683 9.4335ZM8.00016 14.6668C7.07794 14.6668 6.21127 14.4918 5.40016 14.1418C4.58905 13.7918 3.8835 13.3168 3.2835 12.7168C2.6835 12.1168 2.2085 11.4113 1.8585 10.6002C1.5085 9.78905 1.3335 8.92239 1.3335 8.00016C1.3335 7.07794 1.5085 6.21127 1.8585 5.40016C2.2085 4.58905 2.6835 3.8835 3.2835 3.2835C3.8835 2.6835 4.58905 2.2085 5.40016 1.8585C6.21127 1.5085 7.07794 1.3335 8.00016 1.3335C8.92239 1.3335 9.78905 1.5085 10.6002 1.8585C11.4113 2.2085 12.1168 2.6835 12.7168 3.2835C13.3168 3.8835 13.7918 4.58905 14.1418 5.40016C14.4918 6.21127 14.6668 7.07794 14.6668 8.00016C14.6668 8.92239 14.4918 9.78905 14.1418 10.6002C13.7918 11.4113 13.3168 12.1168 12.7168 12.7168C12.1168 13.3168 11.4113 13.7918 10.6002 14.1418C9.78905 14.4918 8.92239 14.6668 8.00016 14.6668ZM8.00016 13.3335C9.48905 13.3335 10.7502 12.8168 11.7835 11.7835C12.8168 10.7502 13.3335 9.48905 13.3335 8.00016C13.3335 6.51127 12.8168 5.25016 11.7835 4.21683C10.7502 3.1835 9.48905 2.66683 8.00016 2.66683C6.51127 2.66683 5.25016 3.1835 4.21683 4.21683C3.1835 5.25016 2.66683 6.51127 2.66683 8.00016C2.66683 9.48905 3.1835 10.7502 4.21683 11.7835C5.25016 12.8168 6.51127 13.3335 8.00016 13.3335Z" fill="#666666"/>
  </g>
</svg>