<svg xmlns="http://www.w3.org/2000/svg" width="32" height="32" viewBox="0 0 32 32" fill="none">
  <mask id="mask0_2069_1458" style="mask-type:alpha" maskUnits="userSpaceOnUse" x="0" y="0" width="32" height="32">
    <rect width="32" height="32" fill="#D9D9D9"/>
  </mask>
  <g mask="url(#mask0_2069_1458)">
    <path d="M7.33329 29.3332C6.0444 29.3332 4.9444 28.8776 4.03329 27.9665C3.12218 27.0554 2.66663 25.9554 2.66663 24.6665C2.66663 23.3776 3.12218 22.2776 4.03329 21.3665C4.9444 20.4554 6.0444 19.9998 7.33329 19.9998C7.73329 19.9998 8.12218 20.0498 8.49996 20.1498C8.87774 20.2498 9.23329 20.3887 9.56663 20.5665L14.6666 15.4665V11.7998C13.6888 11.5109 12.8888 10.9609 12.2666 10.1498C11.6444 9.33873 11.3333 8.39984 11.3333 7.33317C11.3333 6.04428 11.7888 4.94428 12.7 4.03317C13.6111 3.12206 14.7111 2.6665 16 2.6665C17.2888 2.6665 18.3888 3.12206 19.3 4.03317C20.2111 4.94428 20.6666 6.04428 20.6666 7.33317C20.6666 8.39984 20.3555 9.33873 19.7333 10.1498C19.1111 10.9609 18.3111 11.5109 17.3333 11.7998V15.4665L22.4666 20.5665C22.8 20.3887 23.15 20.2498 23.5166 20.1498C23.8833 20.0498 24.2666 19.9998 24.6666 19.9998C25.9555 19.9998 27.0555 20.4554 27.9666 21.3665C28.8777 22.2776 29.3333 23.3776 29.3333 24.6665C29.3333 25.9554 28.8777 27.0554 27.9666 27.9665C27.0555 28.8776 25.9555 29.3332 24.6666 29.3332C23.3777 29.3332 22.2777 28.8776 21.3666 27.9665C20.4555 27.0554 20 25.9554 20 24.6665C20 24.2665 20.05 23.8776 20.15 23.4998C20.25 23.1221 20.3888 22.7665 20.5666 22.4332L16 17.8665L11.4333 22.4332C11.6111 22.7665 11.75 23.1221 11.85 23.4998C11.95 23.8776 12 24.2665 12 24.6665C12 25.9554 11.5444 27.0554 10.6333 27.9665C9.72218 28.8776 8.62218 29.3332 7.33329 29.3332ZM24.6666 26.6665C25.2222 26.6665 25.6944 26.4721 26.0833 26.0832C26.4722 25.6943 26.6666 25.2221 26.6666 24.6665C26.6666 24.1109 26.4722 23.6387 26.0833 23.2498C25.6944 22.8609 25.2222 22.6665 24.6666 22.6665C24.1111 22.6665 23.6388 22.8609 23.25 23.2498C22.8611 23.6387 22.6666 24.1109 22.6666 24.6665C22.6666 25.2221 22.8611 25.6943 23.25 26.0832C23.6388 26.4721 24.1111 26.6665 24.6666 26.6665ZM16 9.33317C16.5555 9.33317 17.0277 9.13873 17.4166 8.74984C17.8055 8.36095 18 7.88873 18 7.33317C18 6.77762 17.8055 6.30539 17.4166 5.9165C17.0277 5.52762 16.5555 5.33317 16 5.33317C15.4444 5.33317 14.9722 5.52762 14.5833 5.9165C14.1944 6.30539 14 6.77762 14 7.33317C14 7.88873 14.1944 8.36095 14.5833 8.74984C14.9722 9.13873 15.4444 9.33317 16 9.33317ZM7.33329 26.6665C7.88885 26.6665 8.36107 26.4721 8.74996 26.0832C9.13885 25.6943 9.33329 25.2221 9.33329 24.6665C9.33329 24.1109 9.13885 23.6387 8.74996 23.2498C8.36107 22.8609 7.88885 22.6665 7.33329 22.6665C6.77774 22.6665 6.30552 22.8609 5.91663 23.2498C5.52774 23.6387 5.33329 24.1109 5.33329 24.6665C5.33329 25.2221 5.52774 25.6943 5.91663 26.0832C6.30552 26.4721 6.77774 26.6665 7.33329 26.6665Z" fill="#406FDD"/>
  </g>
</svg>