<svg xmlns="http://www.w3.org/2000/svg" width="32" height="32" viewBox="0 0 32 32" fill="none">
<mask id="mask0_2069_1449" style="mask-type:alpha" maskUnits="userSpaceOnUse" x="0" y="0" width="32" height="32">
<rect width="32" height="32" fill="#D9D9D9"/>
</mask>
<g mask="url(#mask0_2069_1449)">
<path d="M5.33337 30.6668C4.9556 30.6668 4.63893 30.539 4.38337 30.2835C4.12782 30.0279 4.00004 29.7113 4.00004 29.3335L4.00004 25.0668C3.22226 24.8002 2.58337 24.3279 2.08337 23.6502C1.58337 22.9724 1.33337 22.2002 1.33337 21.3335L1.33337 9.3335C1.33337 8.95572 1.46115 8.63905 1.71671 8.3835C1.97226 8.12794 2.28893 8.00016 2.66671 8.00016H4.00004V2.66683C4.00004 2.28905 4.12782 1.97238 4.38337 1.71683C4.63893 1.46127 4.9556 1.3335 5.33337 1.3335C5.71115 1.3335 6.02782 1.46127 6.28337 1.71683C6.53893 1.97238 6.66671 2.28905 6.66671 2.66683L6.66671 8.00016H8.00004C8.37782 8.00016 8.69448 8.12794 8.95004 8.3835C9.2056 8.63905 9.33337 8.95572 9.33337 9.3335L9.33337 21.3335C9.33337 22.2002 9.08337 22.9724 8.58337 23.6502C8.08337 24.3279 7.44448 24.8002 6.66671 25.0668V29.3668C6.66671 29.7446 6.53893 30.0557 6.28337 30.3002C6.02782 30.5446 5.71115 30.6668 5.33337 30.6668ZM16 30.6668C15.6223 30.6668 15.3056 30.539 15.05 30.2835C14.7945 30.0279 14.6667 29.7113 14.6667 29.3335L14.6667 25.0668C13.8889 24.8002 13.25 24.3279 12.75 23.6502C12.25 22.9724 12 22.2002 12 21.3335L12 9.3335C12 8.95572 12.1278 8.63905 12.3834 8.3835C12.6389 8.12794 12.9556 8.00016 13.3334 8.00016H14.6667V2.66683C14.6667 2.28905 14.7945 1.97238 15.05 1.71683C15.3056 1.46127 15.6223 1.3335 16 1.3335C16.3778 1.3335 16.6945 1.46127 16.95 1.71683C17.2056 1.97238 17.3334 2.28905 17.3334 2.66683V8.00016H18.6667C19.0445 8.00016 19.3612 8.12794 19.6167 8.3835C19.8723 8.63905 20 8.95572 20 9.3335L20 21.3335C20 22.2002 19.75 22.9724 19.25 23.6502C18.75 24.3279 18.1112 24.8002 17.3334 25.0668L17.3334 29.3668C17.3334 29.7446 17.2056 30.0557 16.95 30.3002C16.6945 30.5446 16.3778 30.6668 16 30.6668ZM26.6667 30.6668C26.2889 30.6668 25.9723 30.539 25.7167 30.2835C25.4612 30.0279 25.3334 29.7113 25.3334 29.3335V25.0668C24.5556 24.8002 23.9167 24.3279 23.4167 23.6502C22.9167 22.9724 22.6667 22.2002 22.6667 21.3335L22.6667 9.3335C22.6667 8.95572 22.7945 8.63905 23.05 8.3835C23.3056 8.12794 23.6223 8.00016 24 8.00016H25.3334V2.66683C25.3334 2.28905 25.4612 1.97238 25.7167 1.71683C25.9723 1.46127 26.2889 1.3335 26.6667 1.3335C27.0445 1.3335 27.3611 1.46127 27.6167 1.71683C27.8723 1.97238 28 2.28905 28 2.66683V8.00016H29.3334C29.7111 8.00016 30.0278 8.12794 30.2834 8.3835C30.5389 8.63905 30.6667 8.95572 30.6667 9.3335L30.6667 21.3335C30.6667 22.2002 30.4167 22.9724 29.9167 23.6502C29.4167 24.3279 28.7778 24.8002 28 25.0668V29.3668C28 29.7446 27.8723 30.0557 27.6167 30.3002C27.3611 30.5446 27.0445 30.6668 26.6667 30.6668ZM4.00004 10.6668L4.00004 16.0002H6.66671L6.66671 10.6668H4.00004ZM14.6667 10.6668V16.0002H17.3334V10.6668H14.6667ZM25.3334 10.6668V16.0002H28V10.6668H25.3334ZM5.33337 22.6668C5.71115 22.6668 6.02782 22.5391 6.28337 22.2835C6.53893 22.0279 6.66671 21.7113 6.66671 21.3335V18.6668H4.00004V21.3335C4.00004 21.7113 4.12782 22.0279 4.38337 22.2835C4.63893 22.5391 4.9556 22.6668 5.33337 22.6668ZM16 22.6668C16.3778 22.6668 16.6945 22.5391 16.95 22.2835C17.2056 22.0279 17.3334 21.7113 17.3334 21.3335V18.6668H14.6667V21.3335C14.6667 21.7113 14.7945 22.0279 15.05 22.2835C15.3056 22.5391 15.6223 22.6668 16 22.6668ZM26.6667 22.6668C27.0445 22.6668 27.3611 22.5391 27.6167 22.2835C27.8723 22.0279 28 21.7113 28 21.3335L28 18.6668H25.3334L25.3334 21.3335C25.3334 21.7113 25.4612 22.0279 25.7167 22.2835C25.9723 22.5391 26.2889 22.6668 26.6667 22.6668Z" fill="#406FDD"/>
</g>
</svg>