<svg width="18" height="18" viewBox="0 0 18 18" fill="none" xmlns="http://www.w3.org/2000/svg">
<g id="rocket">
<mask id="mask0_632_7549" style="mask-type:alpha" maskUnits="userSpaceOnUse" x="0" y="0" width="18" height="18">
<rect id="Bounding box" width="18" height="18" fill="#D9D9D9"/>
</mask>
<g mask="url(#mask0_632_7549)">
<path id="rocket_launch" d="M4.59336 9.11227L2.84961 8.36227C2.59961 8.26227 2.45273 8.08102 2.40898 7.81852C2.36523 7.55602 2.43711 7.33102 2.62461 7.14352L4.98711 4.78102C5.16211 4.60602 5.36836 4.48102 5.60586 4.40602C5.84336 4.33102 6.08711 4.31852 6.33711 4.36852L7.31211 4.57477C6.64961 5.36227 6.12148 6.0779 5.72773 6.72165C5.33398 7.3654 4.95586 8.16227 4.59336 9.11227ZM15.6184 1.79977C15.7184 1.79977 15.8184 1.82477 15.9184 1.87477C16.0184 1.92477 16.1059 1.98727 16.1809 2.06227C16.2559 2.13727 16.3184 2.22477 16.3684 2.32477C16.4184 2.42477 16.4434 2.52477 16.4434 2.62477C16.4934 3.78727 16.2465 4.99352 15.7027 6.24352C15.159 7.49352 14.3934 8.61227 13.4059 9.59977C12.7309 10.2748 12.0809 10.8154 11.4559 11.2216C10.8309 11.6279 10.0934 12.0123 9.24336 12.3748C9.08086 12.4373 8.91523 12.4685 8.74648 12.4685C8.57773 12.4685 8.43086 12.406 8.30586 12.281L5.96211 9.93727C5.83711 9.81227 5.77461 9.6654 5.77461 9.49665C5.77461 9.3279 5.80586 9.16227 5.86836 8.99977C6.23086 8.16227 6.61523 7.4279 7.02148 6.79665C7.42773 6.1654 7.96836 5.51227 8.64336 4.83727C9.63086 3.84977 10.7496 3.08415 11.9996 2.5404C13.2496 1.99665 14.4559 1.74977 15.6184 1.79977ZM10.8559 7.38727C11.1434 7.67477 11.4965 7.81852 11.9152 7.81852C12.334 7.81852 12.6871 7.67477 12.9746 7.38727C13.2621 7.09977 13.4059 6.74665 13.4059 6.3279C13.4059 5.90915 13.2621 5.55602 12.9746 5.26852C12.6871 4.98102 12.334 4.83727 11.9152 4.83727C11.4965 4.83727 11.1434 4.98102 10.8559 5.26852C10.5684 5.55602 10.4246 5.90915 10.4246 6.3279C10.4246 6.74665 10.5684 7.09977 10.8559 7.38727ZM9.13086 13.6498C10.0809 13.2873 10.8809 12.9091 11.5309 12.5154C12.1809 12.1216 12.8996 11.5935 13.6871 10.931L13.8746 11.906C13.9246 12.156 13.9121 12.4029 13.8371 12.6466C13.7621 12.8904 13.6371 13.0998 13.4621 13.2748L11.0996 15.6373C10.9121 15.8248 10.6871 15.8935 10.4246 15.8435C10.1621 15.7935 9.98086 15.6435 9.88086 15.3935L9.13086 13.6498ZM3.03711 12.0373C3.47248 11.5998 4.00427 11.3779 4.63245 11.3716C5.26064 11.3654 5.79242 11.581 6.2278 12.0185C6.66317 12.456 6.88086 12.9873 6.88086 13.6123C6.88086 14.2373 6.66211 14.7685 6.22461 15.206C5.91211 15.5185 5.39023 15.7873 4.65898 16.0123C3.92773 16.2373 2.91836 16.4373 1.63086 16.6123C1.80586 15.3248 2.00586 14.3179 2.23086 13.5918C2.45586 12.8656 2.72461 12.3475 3.03711 12.0373Z" fill="white"/>
</g>
</g>
</svg>
