<svg width="48" height="48" viewBox="0 0 48 48" fill="none" xmlns="http://www.w3.org/2000/svg">
<g id="rocket_launch">
<mask id="mask0_868_5234" style="mask-type:alpha" maskUnits="userSpaceOnUse" x="0" y="0" width="48" height="48">
<rect id="Bounding box" width="48" height="48" fill="#D9D9D9"/>
</mask>
<g mask="url(#mask0_868_5234)">
<path id="rocket_launch_2" d="M15.0078 24.6999C15.6283 23.4588 16.304 22.264 17.0347 21.1153C17.7655 19.9665 18.5719 18.8434 19.454 17.746L16.3847 17.1191C16.1796 17.0678 15.9809 17.0742 15.7886 17.1383C15.5963 17.2024 15.4232 17.3114 15.2694 17.4653L10.4155 22.3191C10.3386 22.396 10.313 22.4857 10.3386 22.5883C10.3642 22.6909 10.4283 22.7678 10.5309 22.8191L15.0078 24.6999ZM37.9155 9.75756C34.8386 9.97806 32.129 10.655 29.7867 11.7883C27.4444 12.9216 25.2412 14.5204 23.1771 16.5845C21.7002 18.0614 20.4117 19.5999 19.3117 21.1999C18.2117 22.7999 17.3053 24.3896 16.5924 25.9691L22.254 31.6191C23.8335 30.9063 25.4296 29.9999 27.0424 28.8999C28.6553 27.7999 30.2002 26.5114 31.6771 25.0345C33.7412 22.9704 35.3399 20.7755 36.4732 18.4499C37.6066 16.1242 38.2835 13.4229 38.504 10.346C38.504 10.2639 38.4982 10.1883 38.4867 10.1191C38.4752 10.0499 38.4322 9.97808 38.3578 9.90371C38.2835 9.82934 38.2117 9.78639 38.1424 9.77486C38.0732 9.76333 37.9976 9.75756 37.9155 9.75756ZM27.2232 21.0268C26.636 20.4396 26.3424 19.7351 26.3424 18.9133C26.3424 18.0915 26.636 17.387 27.2232 16.7999C27.8104 16.2127 28.5168 15.9191 29.3424 15.9191C30.1681 15.9191 30.8745 16.2127 31.4617 16.7999C32.0489 17.387 32.3424 18.0915 32.3424 18.9133C32.3424 19.7351 32.0489 20.4396 31.4617 21.0268C30.8745 21.614 30.1681 21.9076 29.3424 21.9076C28.5168 21.9076 27.8104 21.614 27.2232 21.0268ZM23.5232 33.2422L25.404 37.7306C25.4553 37.8332 25.5322 37.8909 25.6348 37.9037C25.7373 37.9165 25.8271 37.8845 25.904 37.8076L30.7578 32.9922C30.9117 32.8383 31.0206 32.6653 31.0847 32.473C31.1488 32.2807 31.1553 32.0819 31.104 31.8768L30.4771 28.8076C29.3796 29.6896 28.2565 30.4941 27.1078 31.221C25.9591 31.9479 24.7643 32.6217 23.5232 33.2422ZM40.4194 9.46521C40.404 12.7985 39.7719 15.8736 38.5232 18.6903C37.2745 21.5069 35.413 24.1524 32.9386 26.6268C32.8104 26.755 32.6886 26.8704 32.5732 26.973C32.4578 27.0755 32.336 27.1909 32.2078 27.3191L33.054 31.4614C33.1617 31.9999 33.1348 32.5217 32.9732 33.0268C32.8117 33.5319 32.5361 33.9794 32.1463 34.3691L26.5771 39.9384C26.1797 40.3358 25.695 40.4826 25.1232 40.3787C24.5514 40.2749 24.1578 39.9537 23.9424 39.4153L21.5463 33.7653L14.4578 26.6383L8.80784 24.2422C8.26937 24.0268 7.95269 23.6332 7.85779 23.0614C7.76292 22.4896 7.91421 22.005 8.31164 21.6076L13.8809 16.0383C14.2706 15.6486 14.72 15.3793 15.229 15.2306C15.738 15.0819 16.2617 15.0614 16.8001 15.1691L20.9424 16.0152C21.0706 15.887 21.1796 15.7716 21.2693 15.6691C21.3591 15.5665 21.4681 15.4511 21.5963 15.3229C24.0707 12.8485 26.7162 10.9806 29.5328 9.71906C32.3495 8.45752 35.4245 7.81908 38.7578 7.80371C38.9732 7.81138 39.1822 7.85433 39.3848 7.93256C39.5874 8.01076 39.7758 8.13703 39.9501 8.31136C40.1245 8.48573 40.2444 8.66779 40.3098 8.85756C40.3752 9.04729 40.4117 9.24984 40.4194 9.46521ZM10.2347 32.3345C11.0168 31.5524 11.9675 31.1659 13.0867 31.1749C14.2059 31.1838 15.1566 31.5793 15.9386 32.3614C16.7207 33.1434 17.1098 34.0941 17.1059 35.2133C17.1021 36.3325 16.7091 37.2832 15.9271 38.0653C15.2476 38.7448 14.1572 39.3268 12.6559 39.8114C11.1546 40.296 9.41809 40.6307 7.44629 40.8153C7.63089 38.8435 7.97191 37.1069 8.46934 35.6056C8.96677 34.1043 9.55524 33.014 10.2347 32.3345ZM11.6617 33.7883C11.2771 34.1729 10.9181 34.8005 10.5847 35.671C10.2514 36.5415 10.0309 37.4396 9.92319 38.3653C10.8489 38.2576 11.7469 38.0326 12.6174 37.6903C13.4879 37.348 14.1155 36.9845 14.5001 36.5999C14.9001 36.1999 15.104 35.7229 15.1117 35.1691C15.1194 34.6152 14.9232 34.1383 14.5232 33.7383C14.1232 33.3383 13.6463 33.1466 13.0924 33.1633C12.5386 33.18 12.0617 33.3883 11.6617 33.7883Z" fill="#67BA4A"/>
</g>
</g>
</svg>
