<svg width="17" height="17" viewBox="0 0 17 17" fill="none" xmlns="http://www.w3.org/2000/svg">
<g id="rocket">
<mask id="mask0_1264_6255" style="mask-type:alpha" maskUnits="userSpaceOnUse" x="0" y="0" width="17" height="17">
<rect id="Bounding box" width="17" height="17" fill="#D9D9D9"/>
</mask>
<g mask="url(#mask0_1264_6255)">
<path id="rocket_launch" d="M4.33844 8.60631L2.69157 7.89797C2.45546 7.80353 2.31674 7.63235 2.27542 7.38443C2.2341 7.13652 2.30199 6.92402 2.47907 6.74693L4.71032 4.51568C4.8756 4.3504 5.07039 4.23235 5.29469 4.16151C5.519 4.09068 5.74921 4.07888 5.98532 4.1261L6.90615 4.32089C6.28046 5.06464 5.78167 5.74051 5.4098 6.34849C5.03792 6.95648 4.6808 7.70908 4.33844 8.60631ZM14.7509 1.70006C14.8454 1.70006 14.9398 1.72367 15.0343 1.77089C15.1287 1.81811 15.2114 1.87714 15.2822 1.94797C15.353 2.01881 15.4121 2.10145 15.4593 2.19589C15.5065 2.29033 15.5301 2.38478 15.5301 2.47922C15.5773 3.57714 15.3442 4.71638 14.8306 5.89693C14.3171 7.07749 13.594 8.13408 12.6614 9.06672C12.0239 9.70422 11.41 10.2148 10.8197 10.5985C10.2294 10.9822 9.53289 11.3452 8.73011 11.6876C8.57664 11.7466 8.42021 11.7761 8.26084 11.7761C8.10146 11.7761 7.96275 11.7171 7.84469 11.599L5.63115 9.38547C5.5131 9.26742 5.45407 9.1287 5.45407 8.96933C5.45407 8.80995 5.48358 8.65353 5.54261 8.50006C5.88497 7.70908 6.24799 7.01551 6.63167 6.41933C7.01535 5.82315 7.52594 5.20631 8.16344 4.56881C9.09608 3.63617 10.1527 2.91308 11.3332 2.39954C12.5138 1.88599 13.653 1.65283 14.7509 1.70006ZM10.253 6.97714C10.5246 7.24867 10.8581 7.38443 11.2535 7.38443C11.649 7.38443 11.9825 7.24867 12.2541 6.97714C12.5256 6.70561 12.6614 6.37211 12.6614 5.97662C12.6614 5.58113 12.5256 5.24763 12.2541 4.9761C11.9825 4.70457 11.649 4.56881 11.2535 4.56881C10.8581 4.56881 10.5246 4.70457 10.253 4.9761C9.9815 5.24763 9.84574 5.58113 9.84574 5.97662C9.84574 6.37211 9.9815 6.70561 10.253 6.97714ZM8.62386 12.8917C9.52108 12.5494 10.2766 12.1922 10.8905 11.8204C11.5044 11.4485 12.1832 10.9497 12.927 10.324L13.1041 11.2448C13.1513 11.481 13.1395 11.7141 13.0687 11.9443C12.9978 12.1745 12.8798 12.3723 12.7145 12.5376L10.4832 14.7688C10.3062 14.9459 10.0937 15.0108 9.84574 14.9636C9.59782 14.9164 9.42664 14.7747 9.33219 14.5386L8.62386 12.8917ZM2.86865 11.3688C3.27984 10.9556 3.78208 10.7461 4.37537 10.7402C4.96865 10.7343 5.47089 10.9379 5.88208 11.3511C6.29327 11.7643 6.49886 12.266 6.49886 12.8563C6.49886 13.4466 6.29226 13.9483 5.87907 14.3615C5.58393 14.6567 5.09105 14.9105 4.40042 15.123C3.7098 15.3355 2.7565 15.5244 1.54053 15.6896C1.70581 14.4737 1.89469 13.5228 2.10719 12.837C2.31969 12.1511 2.57351 11.6618 2.86865 11.3688Z" fill="#2D2E34"/>
</g>
</g>
</svg>
