<svg width="25" height="30" viewBox="0 0 25 30" fill="none" xmlns="http://www.w3.org/2000/svg">
<g id="Group 4">
<path id="Vector" fill-rule="evenodd" clip-rule="evenodd" d="M22.75 5.1875L17.5625 15.0625L22.75 24.9375L24.875 23.75V6.375L22.75 5.1875Z" fill="#E25444"/>
<path id="Vector_2" fill-rule="evenodd" clip-rule="evenodd" d="M22.75 5.1875L12.375 6.375L7.09375 15.0625L12.375 23.75L22.75 24.9375V5.1875Z" fill="#7B1D13"/>
<path id="Vector_3" fill-rule="evenodd" clip-rule="evenodd" d="M1.8125 5.1875L0.125 5.9375V24.1875L1.8125 24.9375L12.375 15.0625L1.8125 5.1875Z" fill="#58150D"/>
<path id="Vector_4" fill-rule="evenodd" clip-rule="evenodd" d="M1.79004 5.16663L12.3892 8.11106V22.2777L1.79004 24.9444V5.16663Z" fill="#E25444"/>
<path id="Vector_5" fill-rule="evenodd" clip-rule="evenodd" d="M12.3945 9.66675L7.89404 8.9445L12.3945 3.83337L16.8839 8.9445L12.3945 9.66675Z" fill="#58150D"/>
<path id="Vector_6" fill-rule="evenodd" clip-rule="evenodd" d="M16.8839 8.9445L12.389 9.67781L7.89404 8.9445V3.83337" fill="#58150D"/>
<path id="Vector_7" fill-rule="evenodd" clip-rule="evenodd" d="M12.3945 20.3889L7.89404 21.2223L12.3945 25.6112L16.8839 21.2223L12.3945 20.3889Z" fill="#58150D"/>
<path id="Vector_8" fill-rule="evenodd" clip-rule="evenodd" d="M12.375 0L7.875 2.375V8.9375L12.389 7.66669L12.375 0Z" fill="#7B1D13"/>
<path id="Vector_9" fill-rule="evenodd" clip-rule="evenodd" d="M12.389 11.2777L7.89404 11.7666V18.319L12.389 18.8333V11.2777Z" fill="#7B1D13"/>
<path id="Vector_10" fill-rule="evenodd" clip-rule="evenodd" d="M12.389 22.3334L7.89404 21.2063V27.6477L12.389 30.0001V22.3334Z" fill="#7B1D13"/>
<path id="Vector_11" fill-rule="evenodd" clip-rule="evenodd" d="M16.8841 21.2063L12.3892 22.3337V30.0001L16.8841 27.6477V21.2063Z" fill="#E25444"/>
<path id="Vector_12" fill-rule="evenodd" clip-rule="evenodd" d="M12.3892 11.2777L16.8841 11.7666V18.319L12.3892 18.8333V11.2777Z" fill="#E25444"/>
<path id="Vector_13" fill-rule="evenodd" clip-rule="evenodd" d="M12.375 0L16.875 2.375V8.9375L12.375 7.6875V0Z" fill="#E25444"/>
</g>
</svg>
