
<svg width="28" height="86" viewBox="0 0 28 86" fill="none" xmlns="http://www.w3.org/2000/svg">
<path d="M20 1L20 33" stroke="#C0C0C0" stroke-linecap="round" stroke-dasharray="2 2"/>
<mask id="mask0_1768_18954" style="mask-type:alpha" maskUnits="userSpaceOnUse" x="12" y="35" width="16" height="16">
<rect x="12" y="35" width="16" height="16" fill="#D9D9D9"/>
</mask>
<g mask="url(#mask0_1768_18954)">
<path d="M18.3671 45.1L24.0171 39.45C24.1505 39.3167 24.3088 39.25 24.4921 39.25C24.6755 39.25 24.8338 39.3167 24.9671 39.45C25.1005 39.5833 25.1671 39.7417 25.1671 39.925C25.1671 40.1083 25.1005 40.2667 24.9671 40.4L18.8338 46.5333C18.7005 46.6667 18.5449 46.7333 18.3671 46.7333C18.1894 46.7333 18.0338 46.6667 17.9005 46.5333L15.0338 43.6667C14.9005 43.5333 14.8366 43.375 14.8421 43.1917C14.8477 43.0083 14.9171 42.85 15.0505 42.7167C15.1838 42.5833 15.3421 42.5167 15.5255 42.5167C15.7088 42.5167 15.8671 42.5833 16.0005 42.7167L18.3671 45.1Z" fill="#67BA4A"/>
</g>
<path d="M20 53L20 85" stroke="#C0C0C0" stroke-linecap="round" stroke-dasharray="2 2"/>
</svg>
