
<svg width="28" height="158" viewBox="0 0 28 158" fill="none" xmlns="http://www.w3.org/2000/svg">
<path d="M20 1L20 69" stroke="#C0C0C0" stroke-linecap="round" stroke-dasharray="2 2"/>
<mask id="mask0_1777_19251" style="mask-type:alpha" maskUnits="userSpaceOnUse" x="12" y="71" width="16" height="16">
<rect x="12" y="71" width="16" height="16" fill="#D9D9D9"/>
</mask>
<g mask="url(#mask0_1777_19251)">
<path d="M13.8162 85C13.694 85 13.5829 84.9694 13.4829 84.9083C13.3829 84.8472 13.3051 84.7667 13.2495 84.6667C13.194 84.5667 13.1634 84.4583 13.1579 84.3417C13.1523 84.225 13.1829 84.1111 13.2495 84L19.4162 73.3333C19.4829 73.2222 19.569 73.1389 19.6745 73.0833C19.7801 73.0278 19.8884 73 19.9995 73C20.1106 73 20.219 73.0278 20.3245 73.0833C20.4301 73.1389 20.5162 73.2222 20.5829 73.3333L26.7495 84C26.8162 84.1111 26.8468 84.225 26.8412 84.3417C26.8356 84.4583 26.8051 84.5667 26.7495 84.6667C26.694 84.7667 26.6162 84.8472 26.5162 84.9083C26.4162 84.9694 26.3051 85 26.1829 85H13.8162ZM14.9662 83.6667H25.0329L19.9995 75L14.9662 83.6667ZM19.9995 83C20.1884 83 20.3468 82.9361 20.4745 82.8083C20.6023 82.6806 20.6662 82.5222 20.6662 82.3333C20.6662 82.1444 20.6023 81.9861 20.4745 81.8583C20.3468 81.7306 20.1884 81.6667 19.9995 81.6667C19.8106 81.6667 19.6523 81.7306 19.5245 81.8583C19.3968 81.9861 19.3329 82.1444 19.3329 82.3333C19.3329 82.5222 19.3968 82.6806 19.5245 82.8083C19.6523 82.9361 19.8106 83 19.9995 83ZM19.9995 81C20.1884 81 20.3468 80.9361 20.4745 80.8083C20.6023 80.6806 20.6662 80.5222 20.6662 80.3333V78.3333C20.6662 78.1444 20.6023 77.9861 20.4745 77.8583C20.3468 77.7306 20.1884 77.6667 19.9995 77.6667C19.8106 77.6667 19.6523 77.7306 19.5245 77.8583C19.3968 77.9861 19.3329 78.1444 19.3329 78.3333V80.3333C19.3329 80.5222 19.3968 80.6806 19.5245 80.8083C19.6523 80.9361 19.8106 81 19.9995 81Z" fill="#E8A411"/>
</g>
<path d="M20 89L20 157" stroke="#C0C0C0" stroke-linecap="round" stroke-dasharray="2 2"/>
</svg>
