<svg xmlns="http://www.w3.org/2000/svg" width="18" height="18" viewBox="0 0 18 18" fill="none">
  <g opacity="0.9">
    <mask id="mask0_1396_11333" style="mask-type:alpha" maskUnits="userSpaceOnUse" x="0" y="0" width="18" height="18">
      <rect width="18" height="18" fill="#D9D9D9"/>
    </mask>
    <g mask="url(#mask0_1396_11333)">
      <path d="M8.2125 9.5248L7.1625 8.4748C7.0125 8.3248 6.8375 8.2498 6.6375 8.2498C6.4375 8.2498 6.2625 8.3248 6.1125 8.4748C5.9625 8.6248 5.8875 8.80293 5.8875 9.00918C5.8875 9.21543 5.9625 9.39355 6.1125 9.54355L7.6875 11.1373C7.8375 11.2873 8.0125 11.3623 8.2125 11.3623C8.4125 11.3623 8.5875 11.2873 8.7375 11.1373L11.925 7.9498C12.075 7.7998 12.15 7.62168 12.15 7.41543C12.15 7.20918 12.075 7.03105 11.925 6.88105C11.775 6.73105 11.5969 6.65605 11.3906 6.65605C11.1844 6.65605 11.0063 6.73105 10.8563 6.88105L8.2125 9.5248ZM9 16.4248C8.9125 16.4248 8.83125 16.4186 8.75625 16.4061C8.68125 16.3936 8.60625 16.3748 8.53125 16.3498C6.84375 15.7873 5.5 14.7467 4.5 13.2279C3.5 11.7092 3 10.0748 3 8.3248L3 4.78105C3 4.46855 3.09063 4.1873 3.27188 3.9373C3.45313 3.6873 3.6875 3.50605 3.975 3.39355L8.475 1.70605C8.65 1.64355 8.825 1.6123 9 1.6123C9.175 1.6123 9.35 1.64355 9.525 1.70605L14.025 3.39355C14.3125 3.50605 14.5469 3.6873 14.7281 3.9373C14.9094 4.1873 15 4.46855 15 4.78105V8.3248C15 10.0748 14.5 11.7092 13.5 13.2279C12.5 14.7467 11.1563 15.7873 9.46875 16.3498C9.39375 16.3748 9.31875 16.3936 9.24375 16.4061C9.16875 16.4186 9.0875 16.4248 9 16.4248Z" fill="#2791FF"/>
    </g>
  </g>
</svg>