<svg width="14" height="14" viewBox="0 0 14 14" fill="none" xmlns="http://www.w3.org/2000/svg">
<mask id="mask0_999_11103" style="mask-type:alpha" maskUnits="userSpaceOnUse" x="0" y="0" width="14" height="14">
<rect width="14" height="14" fill="#D9D9D9"/>
</mask>
<g mask="url(#mask0_999_11103)">
<path d="M6.38718 7.40856L5.57051 6.59189C5.45384 6.47523 5.31773 6.41689 5.16217 6.41689C5.00662 6.41689 4.87051 6.47523 4.75384 6.59189C4.63717 6.70856 4.57884 6.8471 4.57884 7.00752C4.57884 7.16794 4.63717 7.30648 4.75384 7.42314L5.97884 8.66273C6.09551 8.77939 6.23162 8.83773 6.38718 8.83773C6.54273 8.83773 6.67884 8.77939 6.79551 8.66273L9.27468 6.18356C9.39134 6.06689 9.44968 5.92835 9.44968 5.76794C9.44968 5.60752 9.39134 5.46898 9.27468 5.35231C9.15801 5.23564 9.01947 5.17731 8.85905 5.17731C8.69863 5.17731 8.56009 5.23564 8.44343 5.35231L6.38718 7.40856ZM6.99967 12.7752C6.93162 12.7752 6.86842 12.7704 6.81009 12.7606C6.75176 12.7509 6.69342 12.7363 6.63509 12.7169C5.32259 12.2794 4.27745 11.47 3.49967 10.2888C2.7219 9.10752 2.33301 7.83634 2.33301 6.47523V3.71898C2.33301 3.47592 2.40349 3.25717 2.54447 3.06273C2.68544 2.86828 2.86773 2.72731 3.09134 2.63981L6.59134 1.32731C6.72745 1.2787 6.86356 1.25439 6.99967 1.25439C7.13579 1.25439 7.2719 1.2787 7.40801 1.32731L10.908 2.63981C11.1316 2.72731 11.3139 2.86828 11.4549 3.06273C11.5959 3.25717 11.6663 3.47592 11.6663 3.71898V6.47523C11.6663 7.83634 11.2775 9.10752 10.4997 10.2888C9.7219 11.47 8.67676 12.2794 7.36426 12.7169C7.30592 12.7363 7.24759 12.7509 7.18926 12.7606C7.13092 12.7704 7.06773 12.7752 6.99967 12.7752Z" fill="#67BA4A"/>
</g>
</svg>
