
<svg width="16" height="16" viewBox="0 0 16 16" fill="none" xmlns="http://www.w3.org/2000/svg">
<g id="folder_data">
<mask id="mask0_379_15081" style="mask-type:alpha" maskUnits="userSpaceOnUse" x="0" y="0" width="16" height="16">
<rect id="Bounding box" width="16" height="16" fill="#D9D9D9"/>
</mask>
<g mask="url(#mask0_379_15081)">
<path id="folder_data_2" d="M9.99967 15.3332C9.63301 15.3332 9.31912 15.2026 9.05801 14.9415C8.7969 14.6804 8.66634 14.3665 8.66634 13.9998C8.66634 13.7443 8.72745 13.5165 8.84968 13.3165C8.9719 13.1165 9.13301 12.9554 9.33301 12.8332V9.14984C9.13301 9.02762 8.9719 8.86928 8.84968 8.67484C8.72745 8.48039 8.66634 8.25539 8.66634 7.99984C8.66634 7.63317 8.7969 7.31928 9.05801 7.05817C9.31912 6.79706 9.63301 6.6665 9.99967 6.6665C10.3663 6.6665 10.6802 6.79706 10.9413 7.05817C11.2025 7.31928 11.333 7.63317 11.333 7.99984C11.333 8.25539 11.2719 8.48039 11.1497 8.67484C11.0275 8.86928 10.8663 9.02762 10.6663 9.14984V11.0665L13.333 10.1832V9.14984C13.133 9.02762 12.9719 8.86928 12.8497 8.67484C12.7275 8.48039 12.6663 8.25539 12.6663 7.99984C12.6663 7.63317 12.7969 7.31928 13.058 7.05817C13.3191 6.79706 13.633 6.6665 13.9997 6.6665C14.3663 6.6665 14.6802 6.79706 14.9413 7.05817C15.2025 7.31928 15.333 7.63317 15.333 7.99984C15.333 8.25539 15.2719 8.48039 15.1497 8.67484C15.0275 8.86928 14.8663 9.02762 14.6663 9.14984V10.1665C14.6663 10.4554 14.583 10.7165 14.4163 10.9498C14.2497 11.1832 14.0275 11.3443 13.7497 11.4332L10.6663 12.4665V12.8332C10.8663 12.9554 11.0275 13.1165 11.1497 13.3165C11.2719 13.5165 11.333 13.7443 11.333 13.9998C11.333 14.3665 11.2025 14.6804 10.9413 14.9415C10.6802 15.2026 10.3663 15.3332 9.99967 15.3332ZM2.66634 13.3332C2.29967 13.3332 1.98579 13.2026 1.72467 12.9415C1.46356 12.6804 1.33301 12.3665 1.33301 11.9998V3.99984C1.33301 3.63317 1.46356 3.31928 1.72467 3.05817C1.98579 2.79706 2.29967 2.6665 2.66634 2.6665H6.11634C6.29412 2.6665 6.46356 2.69984 6.62467 2.7665C6.78579 2.83317 6.92745 2.92761 7.04967 3.04984L7.99967 3.99984H13.333C13.6997 3.99984 14.0136 4.13039 14.2747 4.3915C14.5358 4.65261 14.6663 4.9665 14.6663 5.33317H7.44967L6.11634 3.99984H2.66634V11.9998H6.66634C6.85523 11.9998 7.01356 12.0637 7.14134 12.1915C7.26912 12.3193 7.33301 12.4776 7.33301 12.6665C7.33301 12.8554 7.26912 13.0137 7.14134 13.1415C7.01356 13.2693 6.85523 13.3332 6.66634 13.3332H2.66634Z" fill="#666666"/>
</g>
</g>
</svg>
