<svg xmlns="http://www.w3.org/2000/svg" width="22" height="22" viewBox="0 0 22 22" fill="none">
  <mask id="mask0_468_2132" style="mask-type:alpha" maskUnits="userSpaceOnUse" x="0" y="0" width="22" height="22">
    <rect width="22" height="22" fill="#D9D9D9"/>
  </mask>
  <g mask="url(#mask0_468_2132)">
    <path d="M3.66667 18.3333C3.40694 18.3333 3.18924 18.2455 3.01354 18.0698C2.83785 17.8941 2.75 17.6764 2.75 17.4167V6.64583C2.82639 6.64583 2.91424 6.65729 3.01354 6.6802C3.11285 6.70312 3.20833 6.75277 3.3 6.82916L6.41667 9.16666L10.4271 3.52916C10.5799 3.31527 10.7861 3.18923 11.0458 3.15104C11.3056 3.11284 11.5424 3.17777 11.7563 3.34583L15.5833 6.41666H18.3333C18.5931 6.41666 18.8108 6.50451 18.9865 6.6802C19.1622 6.8559 19.25 7.07361 19.25 7.33333V17.4167C19.25 17.6764 19.1622 17.8941 18.9865 18.0698C18.8108 18.2455 18.5931 18.3333 18.3333 18.3333H3.66667ZM7.33333 15.5833L10.45 11.2979C10.6028 11.084 10.8052 10.958 11.0573 10.9198C11.3094 10.8816 11.5424 10.9465 11.7563 11.1146L17.4167 15.5375V8.24999H14.9417L11.3667 5.38541L6.82917 11.7562L4.58333 10.0833V13.3833L7.33333 15.5833Z" fill="white"/>
  </g>
</svg>