<svg xmlns="http://www.w3.org/2000/svg" width="20" height="20" viewBox="0 0 20 20" fill="none">
  <mask id="mask0_468_15748" style="mask-type:alpha" maskUnits="userSpaceOnUse" x="0" y="0" width="20" height="20">
    <rect width="20" height="20" fill="#D9D9D9"/>
  </mask>
  <g mask="url(#mask0_468_15748)">
    <path d="M3.33333 16.6667C3.09722 16.6667 2.89931 16.5868 2.73958 16.4271C2.57986 16.2674 2.5 16.0694 2.5 15.8333V6.04166C2.56944 6.04166 2.64931 6.05208 2.73958 6.07291C2.82986 6.09375 2.91667 6.13889 3 6.20833L5.83333 8.33333L9.47917 3.20833C9.61806 3.01389 9.80556 2.8993 10.0417 2.86458C10.2778 2.82986 10.4931 2.88889 10.6875 3.04166L14.1667 5.83333H16.6667C16.9028 5.83333 17.1007 5.91319 17.2604 6.07291C17.4201 6.23264 17.5 6.43055 17.5 6.66666V15.8333C17.5 16.0694 17.4201 16.2674 17.2604 16.4271C17.1007 16.5868 16.9028 16.6667 16.6667 16.6667H3.33333ZM6.66667 14.1667L9.5 10.2708C9.63889 10.0764 9.82292 9.9618 10.0521 9.92708C10.2812 9.89236 10.4931 9.95139 10.6875 10.1042L15.8333 14.125V7.5H13.5833L10.3333 4.89583L6.20833 10.6875L4.16667 9.16666V12.1667L6.66667 14.1667Z" fill="#464646"/>
  </g>
</svg>