<svg xmlns="http://www.w3.org/2000/svg" width="22" height="22" viewBox="0 0 22 22" fill="none">
  <path fill-rule="evenodd" clip-rule="evenodd" d="M7.33301 12.8333C7.33301 12.3273 6.92234 11.9167 6.41634 11.9167H2.74967C2.24367 11.9167 1.83301 12.3273 1.83301 12.8333V16.5C1.83301 17.006 2.24367 17.4167 2.74967 17.4167H6.41634C6.92234 17.4167 7.33301 17.006 7.33301 16.5V12.8333ZM10.083 15.5833H19.2497C19.7557 15.5833 20.1663 15.1727 20.1663 14.6667C20.1663 14.1607 19.7557 13.75 19.2497 13.75H10.083C9.57701 13.75 9.16634 14.1607 9.16634 14.6667C9.16634 15.1727 9.57701 15.5833 10.083 15.5833ZM3.66634 13.75V15.5833H5.49967V13.75H3.66634ZM7.33301 5.49999C7.33301 4.99399 6.92234 4.58333 6.41634 4.58333H2.74967C2.24367 4.58333 1.83301 4.99399 1.83301 5.49999V9.16666C1.83301 9.67266 2.24367 10.0833 2.74967 10.0833H6.41634C6.92234 10.0833 7.33301 9.67266 7.33301 9.16666V5.49999ZM3.66634 6.41666V8.24999H5.49967V6.41666H3.66634ZM10.083 8.24999H19.2497C19.7557 8.24999 20.1663 7.83933 20.1663 7.33333C20.1663 6.82733 19.7557 6.41666 19.2497 6.41666H10.083C9.57701 6.41666 9.16634 6.82733 9.16634 7.33333C9.16634 7.83933 9.57701 8.24999 10.083 8.24999Z" fill="#464646"/>
</svg>