<svg xmlns="http://www.w3.org/2000/svg" width="24" height="24" viewBox="0 0 24 24" fill="none">
  <path fill-rule="evenodd" clip-rule="evenodd" d="M8 14C8 13.448 7.552 13 7 13H3C2.448 13 2 13.448 2 14V18C2 18.552 2.448 19 3 19H7C7.552 19 8 18.552 8 18V14ZM11 17H21C21.552 17 22 16.552 22 16C22 15.448 21.552 15 21 15H11C10.448 15 10 15.448 10 16C10 16.552 10.448 17 11 17ZM4 15V17H6V15H4ZM8 6C8 5.448 7.552 5 7 5H3C2.448 5 2 5.448 2 6V10C2 10.552 2.448 11 3 11H7C7.552 11 8 10.552 8 10V6ZM4 7V9H6V7H4ZM11 9H21C21.552 9 22 8.552 22 8C22 7.448 21.552 7 21 7H11C10.448 7 10 7.448 10 8C10 8.552 10.448 9 11 9Z" fill="white"/>
</svg>