<svg xmlns="http://www.w3.org/2000/svg" width="16" height="16" viewBox="0 0 16 16" fill="none">
  <mask id="mask0_3855_2457" style="mask-type:alpha" maskUnits="userSpaceOnUse" x="0" y="0" width="16" height="16">
    <rect width="16" height="16" fill="#D9D9D9"/>
  </mask>
  <g mask="url(#mask0_3855_2457)">
    <path d="M7.06683 9.20016L5.6335 7.76683C5.51127 7.64461 5.35572 7.5835 5.16683 7.5835C4.97794 7.5835 4.82238 7.64461 4.70016 7.76683C4.57794 7.88905 4.51683 8.04461 4.51683 8.2335C4.51683 8.42238 4.57794 8.57794 4.70016 8.70016L6.60016 10.6002C6.7335 10.7335 6.88905 10.8002 7.06683 10.8002C7.24461 10.8002 7.40016 10.7335 7.5335 10.6002L11.3002 6.8335C11.4224 6.71127 11.4835 6.55572 11.4835 6.36683C11.4835 6.17794 11.4224 6.02238 11.3002 5.90016C11.1779 5.77794 11.0224 5.71683 10.8335 5.71683C10.6446 5.71683 10.4891 5.77794 10.3668 5.90016L7.06683 9.20016ZM8.00016 14.6668C7.07794 14.6668 6.21127 14.4918 5.40016 14.1418C4.58905 13.7918 3.8835 13.3168 3.2835 12.7168C2.6835 12.1168 2.2085 11.4113 1.8585 10.6002C1.5085 9.78905 1.3335 8.92238 1.3335 8.00016C1.3335 7.07794 1.5085 6.21127 1.8585 5.40016C2.2085 4.58905 2.6835 3.8835 3.2835 3.2835C3.8835 2.6835 4.58905 2.2085 5.40016 1.8585C6.21127 1.5085 7.07794 1.3335 8.00016 1.3335C8.92238 1.3335 9.78905 1.5085 10.6002 1.8585C11.4113 2.2085 12.1168 2.6835 12.7168 3.2835C13.3168 3.8835 13.7918 4.58905 14.1418 5.40016C14.4918 6.21127 14.6668 7.07794 14.6668 8.00016C14.6668 8.92238 14.4918 9.78905 14.1418 10.6002C13.7918 11.4113 13.3168 12.1168 12.7168 12.7168C12.1168 13.3168 11.4113 13.7918 10.6002 14.1418C9.78905 14.4918 8.92238 14.6668 8.00016 14.6668ZM8.00016 13.3335C9.48905 13.3335 10.7502 12.8168 11.7835 11.7835C12.8168 10.7502 13.3335 9.48905 13.3335 8.00016C13.3335 6.51127 12.8168 5.25016 11.7835 4.21683C10.7502 3.1835 9.48905 2.66683 8.00016 2.66683C6.51127 2.66683 5.25016 3.1835 4.21683 4.21683C3.1835 5.25016 2.66683 6.51127 2.66683 8.00016C2.66683 9.48905 3.1835 10.7502 4.21683 11.7835C5.25016 12.8168 6.51127 13.3335 8.00016 13.3335Z" fill="#008558"/>
  </g>
</svg>