<svg width="266" height="192" viewBox="0 0 266 192" fill="none" xmlns="http://www.w3.org/2000/svg">
<g clip-path="url(#clip0_551_15929)">
<path d="M298.751 -3.25125V261.751H33.7488V-3.25125H298.751ZM299.25 -3.75H33.25V262.25H299.25V-3.75Z" fill="white"/>
<path d="M12.8439 121.26L144.085 121.26V117.682L12.8439 117.682V121.26Z" fill="black"/>
<path d="M157.215 182.48C157.128 182.48 157.045 182.43 157.012 182.344L130.744 119.558C130.698 119.445 130.751 119.315 130.864 119.268C130.977 119.222 131.107 119.275 131.153 119.388L157.421 182.174C157.467 182.287 157.414 182.417 157.301 182.463C157.275 182.477 157.245 182.48 157.215 182.48Z" fill="black"/>
<path d="M159.029 186.904C160.049 186.273 160.365 184.935 159.735 183.915C159.104 182.895 157.766 182.58 156.746 183.21C155.726 183.84 155.411 185.178 156.041 186.198C156.671 187.218 158.009 187.534 159.029 186.904Z" fill="black"/>
<path d="M3.40756 182.48C3.37763 182.48 3.35103 182.473 3.32111 182.463C3.20806 182.417 3.15486 182.287 3.20141 182.174L29.4689 119.388C29.5155 119.275 29.6451 119.222 29.7582 119.268C29.8712 119.315 29.9244 119.445 29.8779 119.558L3.61038 182.344C3.57381 182.43 3.49401 182.48 3.40756 182.48Z" fill="black"/>
<path d="M4.27383 186.605C5.12175 185.757 5.12174 184.382 4.27383 183.535C3.42591 182.687 2.05117 182.687 1.20326 183.535C0.35534 184.382 0.355333 185.757 1.20325 186.605C2.05117 187.453 3.42592 187.453 4.27383 186.605Z" fill="black"/>
<path d="M135.353 107.661H11.7629L0.457911 34.5106C-0.110664 30.8298 2.41301 27.844 6.09378 27.844H116.354C120.035 27.844 123.48 30.8298 124.048 34.5106L135.353 107.661Z" fill="white"/>
<path d="M135.353 107.883H11.7626C11.6529 107.883 11.5598 107.804 11.5432 107.697L0.238161 34.5473C-0.0477892 32.6886 0.411062 30.9396 1.53824 29.6296C2.64546 28.3395 4.26141 27.6279 6.09349 27.6279H32.4109C32.5339 27.6279 32.6336 27.7277 32.6336 27.8507C32.6336 27.9737 32.5339 28.0735 32.4109 28.0735H6.09349C4.39441 28.0735 2.89483 28.7285 1.87406 29.9222C0.833335 31.1358 0.411061 32.7551 0.677061 34.4841L11.9521 107.448H135.097L128.357 63.8405C128.337 63.7208 128.42 63.6078 128.543 63.5878C128.666 63.5712 128.776 63.651 128.796 63.774L135.572 107.634C135.582 107.697 135.562 107.764 135.522 107.81C135.479 107.86 135.419 107.887 135.356 107.887L135.353 107.883Z" fill="black"/>
<path d="M124.285 36.2562C124.178 36.2562 124.082 36.1764 124.065 36.07L123.829 34.5472C123.277 30.9761 119.922 28.0701 116.351 28.0701H91.9191C91.796 28.0701 91.6963 27.9703 91.6963 27.8473C91.6963 27.7243 91.796 27.6245 91.9191 27.6245H116.351C120.132 27.6245 123.679 30.7001 124.265 34.4773L124.501 36.0002C124.521 36.1199 124.438 36.2329 124.315 36.2529C124.305 36.2529 124.291 36.2529 124.281 36.2529L124.285 36.2562Z" fill="black"/>
<path d="M132.172 117.523H20.0492C15.0883 117.523 10.1573 115.112 7.20804 111.245L5.78827 109.383C4.79077 108.076 5.33939 106.294 6.73922 106.294H141.861C143.194 106.294 144.281 107.933 143.819 109.243L143.387 110.467C141.874 114.756 137.485 117.516 132.175 117.516L132.172 117.523Z" fill="white"/>
<path d="M132.171 117.746H20.0488C15.0147 117.746 10.0272 115.308 7.03141 111.382L5.61164 109.52C5.02644 108.751 4.89011 107.761 5.26916 106.996C5.55843 106.411 6.09376 106.078 6.73881 106.078H141.86C142.532 106.078 143.203 106.457 143.652 107.092C144.138 107.781 144.281 108.612 144.028 109.323L143.596 110.547C142.053 114.919 137.571 117.746 132.174 117.746H132.171ZM6.73549 106.52C6.26001 106.52 5.87764 106.76 5.66484 107.192C5.35894 107.807 5.47864 108.615 5.96409 109.25L7.38386 111.112C10.2966 114.929 15.1511 117.303 20.0488 117.303H132.174C137.381 117.303 141.701 114.593 143.18 110.401L143.612 109.177C143.812 108.612 143.689 107.91 143.293 107.348C142.927 106.83 142.392 106.52 141.863 106.52H6.73549Z" fill="black"/>
<path d="M243.396 182.802C243.313 182.802 243.233 182.756 243.196 182.673L225.567 144.369C225.517 144.259 225.567 144.126 225.677 144.076C225.79 144.026 225.92 144.076 225.97 144.186L243.599 182.49C243.649 182.599 243.599 182.732 243.489 182.782C243.459 182.796 243.429 182.802 243.396 182.802Z" fill="black"/>
<path d="M246.109 185.836C246.52 184.845 246.049 183.709 245.059 183.299C244.068 182.888 242.932 183.359 242.521 184.35C242.111 185.34 242.582 186.476 243.572 186.887C244.563 187.297 245.699 186.827 246.109 185.836Z" fill="black"/>
<path d="M166.053 182.802C166.023 182.802 165.99 182.796 165.96 182.783C165.85 182.733 165.801 182.6 165.85 182.49L185.421 139.966C185.471 139.857 185.604 139.807 185.714 139.857C185.824 139.907 185.874 140.04 185.824 140.149L166.253 182.673C166.216 182.753 166.136 182.802 166.053 182.802Z" fill="black"/>
<path d="M166.502 186.468C167.26 185.71 167.26 184.48 166.502 183.722C165.744 182.964 164.514 182.964 163.756 183.722C162.998 184.48 162.998 185.71 163.756 186.468C164.514 187.226 165.744 187.226 166.502 186.468Z" fill="black"/>
<path d="M158.755 132.193C158.755 146.723 179.037 155.331 204.055 155.331C229.072 155.331 249.354 146.723 249.354 132.193C249.354 117.662 229.072 102.71 204.055 102.71C179.037 102.71 158.755 117.662 158.755 132.193Z" fill="white"/>
<path d="M204.054 155.551C191.519 155.551 180.108 153.369 171.928 149.409C163.167 145.167 158.535 139.215 158.535 132.192C158.535 125.17 163.406 117.572 171.902 111.82C180.783 105.802 192.201 102.49 204.058 102.49C215.915 102.49 227.333 105.805 236.214 111.82C244.706 117.576 249.58 125 249.58 132.192C249.58 139.384 244.949 145.17 236.187 149.409C228.004 153.369 216.596 155.551 204.061 155.551H204.054ZM204.054 102.929C178.256 102.929 158.977 118.377 158.977 132.192C158.977 146.008 177.514 155.112 204.054 155.112C230.595 155.112 249.131 145.689 249.131 132.192C249.131 118.696 229.853 102.929 204.054 102.929Z" fill="black"/>
<path d="M231.193 128.701C230.431 132.598 228.303 136.213 225.268 138.766C222.229 141.32 218.305 142.796 214.335 142.879L231.193 128.701Z" fill="white"/>
<path d="M214.335 143.099C214.215 143.099 214.116 143.002 214.112 142.882C214.112 142.759 214.205 142.66 214.328 142.656C218.272 142.576 222.106 141.133 225.121 138.596C228.14 136.059 230.219 132.528 230.973 128.658C230.997 128.538 231.113 128.459 231.233 128.482C231.352 128.505 231.432 128.621 231.409 128.741C230.634 132.711 228.503 136.329 225.407 138.932C222.312 141.536 218.382 143.015 214.338 143.095H214.335V143.099Z" fill="black"/>
<path d="M208.563 60.7883C200.955 60.7118 195.452 60.3527 195.452 60.3527C195.452 60.3527 217.364 77.6261 219.685 83.3949C219.685 83.3949 203.977 89.2137 189.813 74.6602C175.648 60.1066 179.562 51.2621 185.507 49.0244C190.764 47.046 204.051 48.785 211.336 50.2912C211.336 50.2912 220.127 51.967 223.05 52.3162C227.991 52.9047 227.715 55.0393 226.278 55.0826C226.278 55.0826 229.387 56.3361 227.372 57.7592C227.372 57.7592 230.291 59.4184 227.096 60.3726C227.096 60.3726 229.384 62.2779 225.673 62.5638C224.193 62.6769 222.564 62.5838 222.564 62.5838C222.564 62.5838 222.684 63.538 221.178 63.6843C219.675 63.8306 217.164 63.8406 215.083 63.3984C214.072 63.1823 212.822 62.3211 212.097 61.7625C211.678 61.44 210.74 61.0543 210.245 60.9445C209.893 60.8681 208.985 60.7883 208.559 60.7849L208.563 60.7883Z" fill="white"/>
<path d="M211.871 84.7615C211.286 84.7615 210.678 84.7448 210.046 84.7049C204.809 84.3691 197.019 82.3841 189.654 74.813C180.264 65.1639 179.293 58.6535 180.131 54.893C180.763 52.0601 182.694 49.8456 185.431 48.8149C191.004 46.7168 204.842 48.7218 211.383 50.0717C211.466 50.0883 220.197 51.7509 223.077 52.0933C226.328 52.479 227.449 53.5297 227.412 54.3809C227.399 54.7101 227.21 54.9794 226.914 55.1423C227.452 55.4383 228.187 55.9636 228.267 56.6419C228.313 57.0276 228.141 57.3967 227.755 57.7392C228.17 58.0251 228.885 58.6236 228.809 59.2986C228.752 59.784 228.33 60.1697 227.512 60.4657C227.785 60.7682 228.137 61.277 227.974 61.7824C227.791 62.3509 227.043 62.6801 225.69 62.7832C224.53 62.873 223.266 62.8364 222.771 62.8131C222.744 62.9528 222.684 63.1323 222.541 63.3085C222.275 63.641 221.823 63.8406 221.198 63.9004C219.675 64.0467 217.148 64.06 215.037 63.6111C214.019 63.395 212.806 62.5804 211.964 61.9353C211.582 61.6427 210.674 61.2637 210.199 61.1573C209.866 61.0841 208.979 61.0077 208.56 61.001C202.581 60.9412 197.856 60.7051 196.137 60.6053C199.625 63.3817 217.753 77.9884 219.888 83.3018C219.911 83.3583 219.908 83.4182 219.888 83.4747C219.865 83.5279 219.818 83.5711 219.762 83.591C219.725 83.6043 216.563 84.7548 211.871 84.7548V84.7615ZM192.563 48.3627C189.707 48.3627 187.226 48.6121 185.584 49.2272C182.99 50.2014 181.162 52.3028 180.56 54.9861C179.406 60.1531 182.748 67.0824 189.97 74.5005C197.238 81.9684 204.912 83.9269 210.072 84.2594C214.904 84.5686 218.481 83.5478 219.382 83.2552C216.669 77.3999 195.526 60.6918 195.309 60.5222C195.233 60.4624 195.206 60.3593 195.24 60.2695C195.273 60.1797 195.359 60.1232 195.459 60.1265C195.516 60.1299 201.042 60.4856 208.556 60.5621C209.005 60.5654 209.923 60.6486 210.285 60.7284C210.817 60.8447 211.778 61.247 212.224 61.5862C212.882 62.0916 214.136 62.9694 215.12 63.1789C217.181 63.6178 219.655 63.6045 221.148 63.4615C221.677 63.4116 222.049 63.2454 222.225 62.9794C222.352 62.7898 222.335 62.6136 222.335 62.6036C222.328 62.5405 222.352 62.474 222.395 62.4274C222.438 62.3809 222.498 62.3543 222.568 62.3576C222.584 62.3576 224.2 62.4474 225.647 62.3377C227.14 62.2213 227.479 61.8522 227.545 61.6427C227.672 61.2537 227.143 60.6984 226.947 60.5355C226.884 60.4823 226.857 60.4025 226.874 60.3227C226.89 60.2429 226.95 60.1797 227.027 60.1565C227.861 59.9071 228.323 59.5912 228.36 59.2454C228.42 58.7334 227.559 58.1182 227.256 57.9453C227.19 57.9088 227.15 57.8389 227.143 57.7624C227.14 57.686 227.173 57.6162 227.236 57.5696C227.655 57.2737 227.851 56.9744 227.818 56.6852C227.745 56.0401 226.614 55.4516 226.185 55.2787C226.089 55.2388 226.032 55.139 226.049 55.036C226.069 54.9329 226.156 54.8564 226.259 54.8531C226.658 54.8398 226.947 54.6336 226.957 54.3543C226.977 53.8855 226.179 52.9013 223.01 52.5256C220.114 52.1798 211.369 50.5173 211.283 50.5006C206.172 49.4433 198.531 48.356 192.55 48.356L192.563 48.3627Z" fill="black"/>
<path d="M221.986 62.0584H221.98C221.205 62.0385 220.078 61.9354 219.227 61.2903C218.628 60.8381 218.249 60.1864 217.88 59.558C217.501 58.9096 217.142 58.2978 216.573 57.9022C216.473 57.8323 216.447 57.696 216.517 57.5929C216.586 57.4932 216.723 57.4666 216.826 57.5364C217.478 57.9886 217.877 58.6702 218.262 59.3319C218.625 59.9504 218.967 60.5356 219.493 60.9379C220.241 61.5065 221.275 61.5962 221.99 61.6162C222.113 61.6162 222.209 61.7226 222.206 61.8423C222.206 61.962 222.103 62.0584 221.986 62.0584Z" fill="black"/>
<path d="M227.05 60.6618C227.05 60.6618 227.036 60.6618 227.03 60.6618C226.391 60.6086 225.73 60.5753 225.028 60.5421C223.914 60.4889 222.764 60.4357 221.72 60.2794C221.6 60.2628 221.517 60.1497 221.533 60.0267C221.55 59.907 221.666 59.8239 221.786 59.8405C222.81 59.9934 223.951 60.0466 225.051 60.0998C225.726 60.1331 226.424 60.1664 227.069 60.2196C227.193 60.2295 227.282 60.3359 227.272 60.459C227.262 60.5753 227.166 60.6618 227.053 60.6618H227.05Z" fill="black"/>
<path d="M227.243 57.9685C227.243 57.9685 227.223 57.9685 227.213 57.9685C226.339 57.8555 225.458 57.7724 224.607 57.6892C223.752 57.6094 222.864 57.523 221.986 57.4099C221.867 57.3933 221.78 57.2836 221.797 57.1606C221.814 57.0409 221.92 56.9511 222.046 56.971C222.921 57.0841 223.802 57.1672 224.653 57.2504C225.508 57.3302 226.395 57.4166 227.273 57.5297C227.393 57.5463 227.479 57.656 227.463 57.779C227.449 57.8921 227.353 57.9719 227.243 57.9719V57.9685Z" fill="black"/>
<path d="M226.438 55.302C226.438 55.302 226.418 55.302 226.411 55.302C225.949 55.2455 225.078 55.1324 224.207 55.0227C223.329 54.9096 222.451 54.7999 221.989 54.7401C221.869 54.7234 221.783 54.6137 221.796 54.494C221.81 54.3743 221.919 54.2879 222.042 54.3012C222.504 54.3577 223.386 54.4707 224.26 54.5838C225.131 54.6935 226.002 54.8066 226.465 54.8631C226.584 54.8797 226.671 54.9894 226.657 55.1091C226.644 55.2222 226.548 55.302 226.438 55.302Z" fill="black"/>
<path d="M240.579 75.814C245.992 81.1606 250.122 84.8147 250.122 84.8147C250.122 84.8147 222.432 81.9087 216.699 83.8405C216.699 83.8405 223.748 98.5736 244.057 98.3807C264.366 98.1845 267.771 89.6925 265.171 83.897C262.873 78.7732 252.277 70.5638 246.079 66.4541C246.079 66.4541 238.697 61.3934 236.393 59.5647C232.493 56.4691 231.173 58.1682 232.154 59.2222C232.154 59.2222 229.075 57.8955 229.481 60.3328C229.481 60.3328 226.249 59.4284 227.818 62.3677C227.818 62.3677 224.855 62.0884 227.266 64.9246C228.227 66.0551 229.441 67.1457 229.441 67.1457C229.441 67.1457 228.679 67.7342 229.637 68.9046C230.594 70.075 232.353 71.8639 234.132 73.0276C234.997 73.5929 236.49 73.8722 237.394 73.9952C237.919 74.065 238.854 74.4607 239.279 74.7333C239.582 74.9295 240.28 75.518 240.579 75.8173V75.814Z" fill="white"/>
<path d="M243.665 98.6001C233.328 98.6001 226.525 94.6699 222.621 91.3483C218.335 87.7007 216.52 83.9701 216.503 83.9335C216.477 83.877 216.473 83.8105 216.5 83.7506C216.523 83.6908 216.573 83.6476 216.633 83.6276C221.913 81.8454 245.091 84.0798 249.474 84.522C248.207 83.3816 244.699 80.1862 240.43 75.9701C240.131 75.6742 239.452 75.099 239.166 74.9161C238.757 74.6534 237.85 74.2777 237.371 74.2112C236.32 74.0682 234.887 73.779 234.016 73.2104C232.207 72.0267 230.438 70.2245 229.467 69.0408C229.072 68.5554 228.895 68.0932 228.942 67.6709C228.969 67.4448 229.052 67.2753 229.131 67.1589C228.766 66.8197 227.851 65.9519 227.097 65.0641C226.215 64.0267 225.923 63.2653 226.199 62.7366C226.445 62.2678 227.053 62.1581 227.459 62.1381C227.097 61.3501 227.07 60.7782 227.376 60.3958C227.801 59.8638 228.729 59.9503 229.225 60.0434C229.198 59.528 229.338 59.1489 229.644 58.9062C230.179 58.4873 231.073 58.6402 231.662 58.8098C231.565 58.4839 231.629 58.1614 231.851 57.9187C232.43 57.2936 233.963 57.3501 236.53 59.385C238.804 61.1872 246.129 66.2146 246.205 66.2645C251.768 69.9519 262.937 78.3675 265.374 83.8005C266.568 86.4605 266.395 89.2236 264.889 91.5744C262.884 94.7065 257.64 98.4671 244.064 98.5968C243.931 98.5968 243.801 98.5968 243.668 98.5968L243.665 98.6001ZM217.019 83.9701C217.481 84.8279 219.306 87.9534 222.924 91.0257C226.817 94.3341 233.647 98.2576 244.057 98.1545C257.437 98.0249 262.568 94.374 264.516 91.335C265.939 89.1139 266.102 86.5004 264.972 83.9801C262.751 79.0258 252.383 70.8929 245.959 66.6302C245.883 66.577 238.541 61.543 236.257 59.7308C233.76 57.7491 232.496 57.8755 232.181 58.2179C231.991 58.4241 232.048 58.7732 232.32 59.0658C232.39 59.1423 232.4 59.2587 232.34 59.3451C232.28 59.4316 232.167 59.4615 232.071 59.4216C231.645 59.2387 230.432 58.853 229.923 59.2554C229.693 59.4349 229.62 59.784 229.703 60.2928C229.717 60.3659 229.69 60.4424 229.634 60.4923C229.577 60.5421 229.501 60.5621 229.427 60.5421C229.088 60.449 228.051 60.2695 227.725 60.6718C227.509 60.9444 227.609 61.4931 228.018 62.2611C228.058 62.3343 228.051 62.4208 228.008 62.4873C227.961 62.5538 227.881 62.5903 227.801 62.5837C227.549 62.5604 226.784 62.5737 226.595 62.9395C226.491 63.1356 226.468 63.6344 227.439 64.7748C228.38 65.8821 229.584 66.966 229.594 66.976C229.644 67.0192 229.67 67.0824 229.667 67.1489C229.667 67.2154 229.634 67.2753 229.58 67.3152C229.577 67.3152 229.441 67.4315 229.394 67.6543C229.331 67.9635 229.474 68.3459 229.813 68.7582C230.761 69.9186 232.493 71.6809 234.259 72.838C235.1 73.3899 236.606 73.6592 237.431 73.7723C237.986 73.8488 238.947 74.2478 239.406 74.5437C239.718 74.7432 240.423 75.3384 240.742 75.6542C246.089 80.9344 250.235 84.6085 250.275 84.6451C250.348 84.7082 250.368 84.8113 250.332 84.9011C250.292 84.9875 250.202 85.0441 250.106 85.0308C249.833 85.0042 223.156 82.2311 217.022 83.9701H217.019Z" fill="black"/>
<path d="M233.151 68.6251C233.004 68.6251 232.858 68.6151 232.709 68.5952C231.651 68.4456 230.787 67.7174 230.225 67.1821C230.135 67.0989 230.132 66.9593 230.218 66.8695C230.301 66.7797 230.444 66.7764 230.531 66.8629C231.046 67.355 231.841 68.0266 232.772 68.1563C233.427 68.2494 234.085 68.0798 234.777 67.9003C235.518 67.7074 236.286 67.5112 237.064 67.6542C237.184 67.6775 237.264 67.7905 237.24 67.9136C237.217 68.0333 237.101 68.1097 236.981 68.0898C236.3 67.9634 235.611 68.1397 234.886 68.3292C234.321 68.4755 233.739 68.6251 233.151 68.6251Z" fill="black"/>
<path d="M231.808 66.1614C231.761 66.1614 231.715 66.1481 231.675 66.1182C230.827 65.4865 229.979 64.7051 229.158 63.9536C228.639 63.4782 228.15 63.0293 227.662 62.617C227.569 62.5372 227.559 62.3975 227.635 62.3044C227.715 62.2113 227.854 62.2014 227.948 62.2778C228.443 62.7001 228.958 63.1723 229.457 63.6278C230.272 64.3726 231.11 65.144 231.941 65.7658C232.037 65.8389 232.057 65.9786 231.984 66.075C231.941 66.1315 231.874 66.1648 231.808 66.1648V66.1614Z" fill="black"/>
<path d="M233.659 63.9503C233.613 63.9503 233.563 63.9337 233.523 63.9038C232.822 63.3585 232.14 62.7932 231.482 62.2413C230.823 61.6927 230.142 61.1241 229.447 60.5855C229.35 60.5123 229.334 60.3726 229.407 60.2762C229.483 60.1798 229.62 60.1632 229.716 60.2363C230.418 60.7816 231.102 61.3502 231.764 61.9021C232.419 62.4508 233.101 63.016 233.796 63.5547C233.892 63.6311 233.909 63.7675 233.836 63.8639C233.792 63.9204 233.726 63.9503 233.659 63.9503Z" fill="black"/>
<path d="M235.552 62.0682C235.505 62.0682 235.455 62.0516 235.415 62.0217C235.049 61.7357 234.355 61.1904 233.66 60.6484C232.965 60.1065 232.27 59.5645 231.904 59.2752C231.808 59.1988 231.791 59.0591 231.867 58.966C231.944 58.8696 232.084 58.853 232.177 58.9294C232.542 59.2154 233.237 59.7607 233.932 60.3027C234.627 60.8446 235.322 61.3866 235.688 61.6759C235.784 61.7524 235.801 61.892 235.724 61.9851C235.681 62.0416 235.615 62.0682 235.552 62.0682Z" fill="black"/>
<path d="M183.858 113.616L206.222 131.265L215.845 131.358C215.845 131.358 227.868 107.531 232.367 97.802C232.779 97.9084 241.597 98.8062 241.597 98.8062L243.123 83.3915L231.216 81.5461C231.216 81.5461 218.063 75.7074 214.342 74.557C214.332 74.557 204.4 66.7366 204.4 66.7366L193.94 79.3051C193.94 79.3051 199.037 84.2527 200.111 85.1338C191.489 99.5942 183.862 113.619 183.862 113.619L183.858 113.616Z" fill="white"/>
<path d="M215.841 131.308C215.808 131.308 215.775 131.301 215.741 131.285C215.632 131.228 215.588 131.095 215.645 130.989C215.765 130.753 227.718 107.325 232.164 97.7122C232.207 97.6158 232.316 97.5626 232.42 97.5925C232.712 97.669 237.866 98.2076 241.394 98.5667L242.877 83.581L231.179 81.7688C231.159 81.7688 231.143 81.7589 231.123 81.7522C231.123 81.7522 230.258 81.3698 228.912 80.778C228.799 80.7281 228.749 80.5984 228.799 80.4854C228.849 80.3723 228.978 80.3225 229.091 80.3723C230.302 80.901 231.123 81.2668 231.279 81.3333L243.156 83.1753C243.272 83.1919 243.356 83.2983 243.342 83.4147L241.816 98.8294C241.809 98.8893 241.783 98.9425 241.736 98.9791C241.69 99.0156 241.633 99.0323 241.573 99.0289C240.732 98.9425 233.776 98.2343 232.496 98.0514C227.994 107.764 216.16 130.959 216.041 131.192C216.001 131.268 215.924 131.311 215.844 131.311L215.841 131.308Z" fill="black"/>
<path d="M187.719 106.853C187.679 106.853 187.639 106.843 187.606 106.819C187.503 106.756 187.466 106.62 187.529 106.517C187.572 106.447 191.779 99.4645 199.822 85.1803C198.518 84.0598 193.98 79.6542 193.78 79.4613C193.697 79.3815 193.69 79.2518 193.764 79.1621L204.181 66.5304C204.257 66.4373 204.394 66.424 204.49 66.4971C204.586 66.5736 213.847 73.8886 214.442 74.3574C217.192 75.2153 224.792 78.4904 229.088 80.369C229.201 80.4189 229.251 80.5486 229.201 80.6616C229.152 80.7747 229.022 80.8246 228.909 80.7747C225.441 79.2585 217.075 75.6376 214.269 74.7664C214.236 74.7553 210.941 72.1596 204.384 66.9793L194.232 79.2884C195.074 80.1064 199.29 84.1795 200.241 84.9609C200.324 85.0274 200.347 85.1471 200.294 85.2402C192.188 99.6374 187.948 106.676 187.905 106.746C187.862 106.816 187.792 106.853 187.715 106.853H187.719Z" fill="black"/>
<path d="M233.84 56.0035C235.057 56.9744 235.795 58.5172 235.785 60.0766C235.778 60.8746 235.589 61.666 235.565 62.464C235.542 63.262 235.728 64.1265 236.327 64.6585C236.626 64.9245 237.002 65.0841 237.328 65.3201C237.979 65.7923 238.392 66.6102 238.282 67.4082C238.172 68.2029 237.484 68.9111 236.679 68.9477C236.679 69.6759 236.24 70.3841 235.589 70.7066C234.937 71.0291 234.106 70.946 233.527 70.5038C232.922 71.9469 231.346 72.8113 229.787 72.9443C228.227 73.0774 226.681 72.5919 225.241 71.9735C222.518 70.8064 219.981 69.1206 218.056 66.8629C217.557 66.281 217.095 65.646 216.852 64.9211C216.61 64.1929 216.606 63.355 216.999 62.6967C216.277 61.6892 215.615 60.582 215.486 59.3484C215.356 58.1149 215.895 56.7416 217.022 56.2296C217.933 55.814 219.034 56.0234 219.948 55.6178C220.743 55.2653 221.268 54.5139 221.86 53.8755C222.601 53.0775 223.522 52.4125 224.576 52.1498C225.863 51.8306 227.263 52.2163 228.287 53.0409C228.842 53.4898 229.112 54.0218 229.504 54.5937C229.88 55.1456 230.754 54.853 231.356 54.9395C232.257 55.0692 233.128 55.4349 233.84 56.0002V56.0035Z" fill="black"/>
<path d="M217.906 75.8738L219.11 76.3593L221.061 69.4666C221.061 69.4666 225.553 61.9554 229.623 70.2047L227.429 79.9037L228.296 80.2595C228.296 80.2595 223.934 85.2803 218.534 79.5978C217.756 78.7799 217.903 77.5929 217.903 75.8738H217.906Z" fill="white"/>
<path d="M223.44 82.9858C222.602 82.9858 221.747 82.8495 220.942 82.5569C218.306 81.6026 217.036 79.3383 217.455 76.3425C217.471 76.2228 217.581 76.1363 217.704 76.1529C217.824 76.1696 217.91 76.2826 217.893 76.4023C217.504 79.172 218.671 81.2635 221.092 82.1413C223.599 83.049 226.731 82.3341 227.799 80.6118C227.862 80.5087 227.998 80.4754 228.104 80.5386C228.208 80.6018 228.241 80.7381 228.178 80.8445C227.34 82.1978 225.444 82.9858 223.443 82.9858H223.44Z" fill="black"/>
<path d="M228.297 80.4822C228.27 80.4822 228.24 80.4755 228.214 80.4655L227.346 80.1098C227.246 80.0699 227.19 79.9601 227.213 79.8571L229.391 70.2345C228.204 67.8538 226.881 66.6202 225.461 66.5604C223.25 66.4706 221.447 69.2669 221.268 69.5562L219.323 76.419C219.306 76.4789 219.263 76.5287 219.206 76.5587C219.15 76.5853 219.083 76.5886 219.027 76.5653L217.903 76.1131C217.79 76.0666 217.733 75.9369 217.78 75.8238C217.827 75.7108 217.956 75.6576 218.069 75.7008L218.967 76.0632L220.852 69.4099C220.859 69.39 220.866 69.3733 220.876 69.3567C220.959 69.2204 222.904 66.0151 225.481 66.1215C227.09 66.188 228.553 67.528 229.826 70.1115C229.85 70.158 229.856 70.2079 229.843 70.2578L227.692 79.7739L228.387 80.0566C228.5 80.1031 228.553 80.2328 228.506 80.3458C228.47 80.4323 228.39 80.4822 228.3 80.4822H228.297Z" fill="black"/>
<path d="M227.11 70.6368C226.199 71.5678 225.085 72.3259 223.835 72.6817C222.581 73.0374 221.185 72.9643 220.041 72.3425C218.126 71.3051 217.251 68.9278 217.381 66.7532C217.507 64.5787 218.451 62.5438 219.396 60.5787C219.396 60.5787 221.474 57.8921 224.127 57.7957C222.787 62.3775 231.678 62.1647 227.186 67.5678C227.186 67.5678 229.248 66.4407 230.086 66.8895C230.993 67.3717 231.445 68.5487 231.116 69.5229C230.787 70.4971 229.766 71.1688 228.739 71.1588C228.157 71.1522 227.618 71.089 227.113 70.6401L227.11 70.6368Z" fill="white"/>
<path d="M222.315 73.1174C221.463 73.1174 220.639 72.9212 219.931 72.5388C218.095 71.5446 217.005 69.267 217.154 66.74C217.291 64.4391 218.345 62.2446 219.189 60.4824C219.196 60.4691 219.202 60.4558 219.212 60.4425C219.299 60.3294 221.384 57.6727 224.11 57.573C224.18 57.5697 224.25 57.6029 224.293 57.6594C224.336 57.716 224.35 57.7891 224.33 57.8589C223.778 59.7442 225.074 60.7417 226.444 61.7957C227.468 62.5838 228.529 63.3984 228.662 64.6054C228.742 65.3169 228.489 66.1016 227.897 66.9827C228.609 66.6868 229.603 66.3876 230.182 66.6935C231.189 67.2288 231.688 68.5023 231.319 69.5929C230.966 70.6303 229.892 71.3784 228.752 71.3784H228.729C228.23 71.3751 227.661 71.3318 227.119 70.9362C226.142 71.8971 225.028 72.5754 223.887 72.8979C223.365 73.0475 222.833 73.1207 222.311 73.1207L222.315 73.1174ZM219.578 60.6985C218.75 62.4208 217.726 64.5621 217.597 66.7666C217.483 68.6984 218.225 71.1124 220.143 72.1498C221.181 72.7117 222.504 72.8314 223.774 72.469C224.895 72.1498 225.995 71.4648 226.953 70.4806C227.036 70.3975 227.169 70.3909 227.259 70.4707C227.685 70.8497 228.143 70.9262 228.742 70.9328H228.762C229.716 70.9328 230.617 70.3111 230.906 69.4466C231.202 68.5721 230.787 67.5081 229.982 67.0792C229.447 66.7932 228.05 67.3452 227.292 67.7575C227.199 67.8073 227.083 67.7841 227.016 67.7043C226.95 67.6211 226.95 67.5048 227.016 67.4216C227.921 66.3344 228.32 65.4266 228.233 64.6486C228.12 63.6278 227.179 62.9063 226.185 62.1415C224.888 61.144 223.425 60.0202 223.838 58.0352C221.563 58.2912 219.758 60.4757 219.585 60.6952L219.578 60.6985Z" fill="black"/>
<path d="M227.824 69.6426C227.731 69.6426 227.645 69.5828 227.615 69.4897C227.578 69.3733 227.641 69.2469 227.755 69.2104C228.217 69.0607 228.646 68.838 229.035 68.552C229.134 68.4789 229.271 68.5021 229.344 68.5986C229.417 68.6983 229.394 68.8346 229.297 68.9078C228.868 69.2237 228.396 69.4664 227.891 69.6326C227.868 69.6393 227.844 69.6426 227.821 69.6426H227.824Z" fill="black"/>
<path d="M100.341 68.7483L108.295 79.0625C108.551 79.395 108.857 79.6876 109.203 79.927L176.73 116.143C180.79 118.966 177.325 125.24 172.777 123.298L103.44 103.451C103.314 103.398 103.184 103.338 103.065 103.268C101.465 102.361 100.425 100.708 100.302 98.8628L99.2109 82.5005C99.0247 79.6842 98.2334 73.8256 98.2999 70.474C98.3531 67.8639 99.0014 67.0093 100.341 68.7483Z" fill="white"/>
<path d="M105.514 104.768C105.481 104.768 105.444 104.761 105.411 104.745L103.143 103.568C101.384 102.657 100.207 100.858 100.078 98.8794L98.086 69.0342C98.0494 68.4989 98.352 68.0301 98.8507 67.8405C99.3495 67.651 99.8881 67.804 100.214 68.2262L108.852 79.4282C108.925 79.5246 108.909 79.6642 108.812 79.7374C108.716 79.8139 108.576 79.7939 108.503 79.6975L99.8649 68.4956C99.6155 68.173 99.2597 68.1597 99.0103 68.2528C98.761 68.3493 98.5016 68.5953 98.5282 69.001L100.52 98.8462C100.643 100.672 101.727 102.327 103.349 103.169L105.617 104.346C105.727 104.402 105.767 104.535 105.71 104.645C105.67 104.721 105.594 104.765 105.514 104.765V104.768Z" fill="black"/>
<path d="M101.169 91.6775C101.488 91.9535 101.844 92.1796 102.23 92.3459L158.096 110.155C162.635 112.12 160.477 118.953 155.633 117.952L103.4 117.35C103.264 117.323 100.953 116.485 100.823 116.442C99.0777 115.867 97.7278 114.454 97.2423 112.668L89.5084 84.316C89.0362 82.5737 90.1169 82.4939 91.4203 83.5246C93.8774 85.4698 98.7386 89.5695 101.166 91.6742L101.169 91.6775Z" fill="white"/>
<path d="M103.346 117.569C103.327 117.569 103.307 117.569 103.287 117.559L100.829 116.854C98.9242 116.306 97.418 114.779 96.8993 112.864L89.0523 83.9999C88.9127 83.4812 89.1155 82.9625 89.5677 82.6799C90.0199 82.394 90.5752 82.4372 90.9808 82.7896L101.661 92.0631C101.754 92.1429 101.764 92.2825 101.684 92.3756C101.604 92.4687 101.465 92.4787 101.371 92.3989L90.6916 83.1255C90.3823 82.8561 90.0299 82.916 89.8038 83.0556C89.5777 83.1986 89.3715 83.4912 89.4812 83.8869L97.3282 112.751C97.807 114.517 99.1969 115.927 100.956 116.432L103.413 117.137C103.529 117.17 103.599 117.293 103.566 117.41C103.539 117.506 103.45 117.569 103.353 117.569H103.346Z" fill="black"/>
<path d="M107.692 98.6633C108.254 93.9318 107.586 79.0491 107.692 78.2112C109.94 79.3716 139.32 81.1771 154.216 85.5262C160.437 87.3416 166.256 90.3208 171.369 94.3042C179.296 100.479 188.254 107.947 193.94 112.063C196.021 113.569 197.999 115.212 199.875 116.967C205.334 122.075 215.602 131.684 215.585 131.71C215.22 132.349 214.608 133.227 214.023 133.905C206.804 142.274 194.615 144.053 185.587 137.675L151.715 113.752L107.689 98.6633H107.692Z" fill="#406FDD"/>
<path d="M101.94 91.9734C104.743 91.9368 133.418 91.7007 148.889 91.5943C155.087 91.5511 161.169 93.2568 166.442 96.5153C175.041 101.829 188.577 110.131 197.135 115.036C198.941 116.07 199.868 118.154 199.429 120.193C198.02 126.756 194.585 140.219 190.339 139.002L150.785 117.895L101.94 117.523C101.94 117.523 102 92.8146 101.94 91.9734Z" fill="#406FDD"/>
<path d="M180.879 134.128C180.823 134.128 180.766 134.104 180.723 134.061C180.597 133.931 167.882 121.143 162.05 114.71L161.737 114.364C153.105 104.841 150.499 101.965 144.77 99.3382C137.787 96.1362 108.687 91.95 108.394 91.9101C108.274 91.8935 108.188 91.7804 108.208 91.6607C108.225 91.541 108.338 91.4579 108.457 91.4745C108.75 91.5178 137.917 95.7106 144.956 98.9391C150.768 101.606 153.614 104.748 162.066 114.071L162.379 114.417C168.204 120.844 180.909 133.626 181.039 133.752C181.125 133.838 181.125 133.978 181.039 134.064C180.996 134.108 180.939 134.128 180.882 134.128H180.879Z" fill="black"/>
<path d="M67.8359 78.2809C69.3654 78.7498 70.9847 77.8919 71.4535 76.3591C71.4901 76.246 71.5133 76.1297 71.5333 76.0166C72.7303 76.0831 73.9107 75.9667 75.0412 75.6808C75.0844 75.7905 75.1276 75.8969 75.1841 76.0033C75.9323 77.4164 77.6845 77.9551 79.0977 77.207C80.5108 76.4588 81.0494 74.7032 80.3013 73.2868C80.2448 73.1804 80.1816 73.084 80.1151 72.9875C80.9829 72.2095 81.7444 71.2951 82.3595 70.2677C82.4659 70.3142 82.5756 70.3575 82.6887 70.394C84.2182 70.8629 85.8374 70.005 86.3063 68.4722C86.7751 66.9427 85.9172 65.3201 84.3877 64.8513C84.2747 64.8147 84.1583 64.7914 84.0452 64.7715C84.1117 63.5745 83.9954 62.3908 83.7127 61.2603C83.8225 61.217 83.9289 61.1705 84.0353 61.1173C85.4484 60.3658 85.9871 58.6136 85.2389 57.1971C84.4908 55.784 82.7385 55.2453 81.3254 55.9935C81.219 56.05 81.1226 56.1132 81.0262 56.1797C80.2481 55.3085 79.337 54.5504 78.3096 53.932C78.3562 53.8256 78.3994 53.7158 78.436 53.6028C78.9048 52.0733 78.047 50.4507 76.5175 49.9819C74.988 49.513 73.3687 50.3709 72.8999 51.9037C72.8633 52.0168 72.84 52.1331 72.8201 52.2462C71.6231 52.1797 70.4427 52.2961 69.3122 52.582C69.2689 52.4723 69.2257 52.3659 69.1692 52.2595C68.4211 50.8464 66.6688 50.3077 65.2557 51.0558C63.8426 51.804 63.3039 53.5596 64.052 54.976C64.1086 55.0824 64.1717 55.1788 64.2382 55.2753C63.3704 56.0533 62.609 56.9677 61.9939 57.9951C61.8875 57.9486 61.7777 57.9053 61.6647 57.8688C60.1352 57.3999 58.5159 58.2578 58.0471 59.7906C57.5782 61.3234 58.4361 62.9427 59.9656 63.4115C60.0787 63.4481 60.195 63.4714 60.3081 63.4913C60.2416 64.6883 60.358 65.872 60.6406 67.0025C60.5309 67.0458 60.4245 67.0923 60.3181 67.1455C58.9049 67.897 58.3663 69.6492 59.1144 71.0657C59.8625 72.4788 61.6148 73.0175 63.0279 72.2693C63.1343 72.2128 63.2308 72.1496 63.3272 72.0831C64.1052 72.9543 65.0163 73.7124 66.0437 74.3308C65.9972 74.4372 65.9539 74.547 65.9174 74.66C65.4485 76.1895 66.3064 77.8121 67.8359 78.2809ZM70.5989 69.2768C67.7594 68.4057 66.1667 65.3932 67.0379 62.5504C67.909 59.7075 70.9181 58.1115 73.7577 58.9826C76.5972 59.8538 78.1899 62.8662 77.3188 65.7091C76.4476 68.552 73.4385 70.148 70.5989 69.2768Z" fill="#111AE8"/>
<path d="M33.6581 78.6901C35.4968 79.2554 37.4452 78.2213 38.0105 76.3793C38.0537 76.2429 38.0836 76.1033 38.1069 75.9669C39.5466 76.0467 40.9664 75.9038 42.3297 75.5646C42.3795 75.6943 42.4361 75.824 42.5026 75.9503C43.4036 77.6527 45.5117 78.3011 47.2141 77.3967C48.9132 76.4956 49.5615 74.3842 48.6605 72.6818C48.594 72.5555 48.5175 72.4358 48.4377 72.3194C49.4817 71.3818 50.3961 70.2812 51.1409 69.0476C51.2673 69.1041 51.4003 69.1573 51.5366 69.1972C53.3753 69.7625 55.3238 68.7284 55.889 66.8864C56.4543 65.0443 55.4202 63.0925 53.5815 62.5273C53.4451 62.4841 53.3055 62.4541 53.1692 62.4309C53.249 60.9911 53.1093 59.568 52.7702 58.2048C52.8998 58.1549 53.0295 58.0984 53.1559 58.0319C54.8549 57.1308 55.5033 55.0194 54.6022 53.317C53.7012 51.6146 51.5931 50.9663 49.8907 51.8707C49.7644 51.9372 49.6447 52.0136 49.5316 52.0934C48.594 51.0461 47.4967 50.1317 46.2631 49.3902C46.3197 49.2639 46.3729 49.1309 46.4128 48.9945C46.978 47.1525 45.9439 45.2007 44.1052 44.6355C42.2665 44.0702 40.318 45.1043 39.7528 46.9463C39.7096 47.0827 39.6796 47.2223 39.6564 47.3586C38.2166 47.2788 36.7969 47.4218 35.4336 47.761C35.3837 47.6313 35.3272 47.5016 35.2607 47.3753C34.3596 45.6729 32.2516 45.0245 30.5492 45.9289C28.8501 46.83 28.2017 48.9413 29.1028 50.6437C29.1693 50.7701 29.2458 50.8898 29.3256 51.0062C28.2815 51.9438 27.3672 53.0444 26.6224 54.278C26.496 54.2214 26.363 54.1682 26.2267 54.1283C24.388 53.5631 22.4395 54.5972 21.8743 56.4392C21.309 58.2813 22.3431 60.233 24.1818 60.7983C24.3181 60.8415 24.4578 60.8714 24.5941 60.8947C24.5143 62.3344 24.654 63.7575 24.9931 65.1208C24.8634 65.1707 24.7338 65.2272 24.6074 65.2937C22.9083 66.1948 22.26 68.3061 23.161 70.0085C24.0621 71.7109 26.1702 72.3593 27.8726 71.4549C27.9989 71.3884 28.1186 71.3119 28.2317 71.2321C29.1693 72.2795 30.2666 73.1939 31.5001 73.9354C31.4436 74.0617 31.3904 74.1947 31.3505 74.331C30.7853 76.1731 31.8193 78.1249 33.6581 78.6901ZM36.9831 67.8539C33.5683 66.8032 31.6498 63.179 32.6971 59.7609C33.7478 56.3395 37.3654 54.4176 40.7835 55.4683C44.1983 56.519 46.1168 60.1433 45.0695 63.5614C44.0188 66.9828 40.4012 68.9046 36.9831 67.8539Z" fill="white"/>
<path d="M34.6853 79.0658C34.3196 79.0658 33.9538 79.0126 33.5947 78.8996C31.643 78.2978 30.5424 76.2196 31.1409 74.2645C31.1642 74.1847 31.1941 74.1049 31.2273 74.0218C30.1068 73.3269 29.0894 72.4856 28.2016 71.5181C28.1251 71.5646 28.052 71.6079 27.9821 71.6478C27.1077 72.1133 26.1068 72.2064 25.1592 71.9171C24.2116 71.6278 23.4369 70.9827 22.9714 70.1083C22.0138 68.3028 22.7054 66.0518 24.5108 65.0942C24.584 65.0576 24.6605 65.021 24.7403 64.9844C24.4377 63.7043 24.3147 62.3876 24.3679 61.0709C24.2814 61.051 24.1983 61.031 24.1218 61.0044C22.17 60.4026 21.0695 58.3245 21.668 56.3694C21.9572 55.4217 22.599 54.6437 23.4734 54.1815C24.3479 53.716 25.3521 53.6229 26.2964 53.9122C26.3728 53.9355 26.4526 53.9654 26.5391 53.9986C27.234 52.8781 28.0719 51.8573 29.0428 50.9662C28.9963 50.8898 28.953 50.8166 28.9131 50.7435C27.9555 48.938 28.6471 46.687 30.4526 45.7294C31.3271 45.2639 32.3312 45.1708 33.2755 45.46C34.2232 45.7493 34.9979 46.3944 35.4634 47.2688C35.5 47.342 35.5365 47.4185 35.5731 47.4983C36.8532 47.1957 38.1666 47.0693 39.4833 47.1259C39.5033 47.0394 39.5232 46.9563 39.5498 46.8765C39.8391 45.9289 40.4808 45.1508 41.3553 44.6886C42.2298 44.2231 43.2339 44.13 44.1782 44.4193C46.13 45.0211 47.2306 47.0993 46.6321 49.0544C46.6088 49.1342 46.5789 49.214 46.5456 49.2971C47.6661 49.992 48.6836 50.8332 49.5714 51.8008C49.6478 51.7543 49.721 51.711 49.7908 51.6711C50.6653 51.209 51.6661 51.1125 52.6137 51.4018C53.5614 51.6911 54.3361 52.3361 54.8016 53.2106C55.7592 55.0161 55.0676 57.2671 53.2621 58.2247C53.189 58.2613 53.1125 58.3012 53.0327 58.3344C53.3353 59.6179 53.4583 60.9313 53.4051 62.248C53.4915 62.2679 53.5747 62.2879 53.6511 62.3145C55.6029 62.9163 56.7035 64.9944 56.105 66.9495C55.8157 67.8972 55.174 68.6752 54.2995 69.1374C53.425 69.6029 52.4209 69.696 51.4766 69.4067C51.4001 69.3834 51.3203 69.3535 51.2372 69.3203C50.5423 70.4408 49.7044 71.4615 48.7335 72.3526C48.78 72.4291 48.8232 72.5023 48.8631 72.5754C49.8207 74.3809 49.1291 76.6319 47.3237 77.5895C46.4492 78.055 45.4484 78.1481 44.5007 77.8588C43.5531 77.5696 42.7784 76.9245 42.3129 76.05C42.273 75.9769 42.2397 75.9004 42.2032 75.8206C40.923 76.1232 39.6097 76.2462 38.293 76.193C38.273 76.2795 38.2531 76.3626 38.2265 76.4424C37.9372 77.39 37.2955 78.1681 36.421 78.6303C35.879 78.9195 35.2872 79.0658 34.6887 79.0658H34.6853ZM28.2348 71.0093C28.2947 71.0093 28.3579 71.0359 28.4011 71.0825C29.3354 72.1265 30.416 73.021 31.6197 73.7458C31.7161 73.8024 31.7527 73.9221 31.7061 74.0251C31.6463 74.1614 31.5997 74.2811 31.5632 74.3975C31.0345 76.1199 32.0054 77.952 33.7244 78.4806C34.5557 78.7366 35.4401 78.6535 36.2115 78.2446C36.9829 77.8356 37.5482 77.1506 37.8042 76.3161C37.8408 76.203 37.8674 76.0733 37.894 75.9304C37.9139 75.8206 38.0137 75.7375 38.1234 75.7475C39.5232 75.8239 40.9197 75.6909 42.2796 75.3518C42.3894 75.3219 42.4991 75.3817 42.539 75.4881C42.5922 75.6278 42.6454 75.7441 42.7019 75.8505C43.1109 76.6219 43.7925 77.1872 44.6271 77.4432C45.4617 77.6992 46.3428 77.6161 47.1109 77.2072C48.7002 76.3626 49.3087 74.3809 48.4675 72.7882C48.4109 72.6818 48.3444 72.5721 48.258 72.4491C48.1948 72.356 48.2081 72.233 48.2912 72.1565C49.3353 71.2222 50.2297 70.1382 50.9512 68.9345C51.0078 68.8381 51.1275 68.8016 51.2305 68.8448C51.3669 68.9046 51.4866 68.9512 51.6029 68.9878C52.4342 69.2438 53.3186 69.1607 54.09 68.7517C54.8614 68.3427 55.4267 67.6577 55.6827 66.8232C56.2114 65.1008 55.2405 63.2687 53.5215 62.7401C53.4084 62.7035 53.2821 62.6769 53.1358 62.6503C53.026 62.6304 52.9462 62.5306 52.9529 62.4209C53.0294 61.0177 52.8964 59.6179 52.5572 58.2613C52.5306 58.1516 52.5871 58.0418 52.6935 58.0019C52.8332 57.9487 52.9496 57.8955 53.056 57.839C54.6453 56.9945 55.2538 55.0128 54.4126 53.4234C54.0036 52.652 53.3186 52.0868 52.4874 51.8307C51.6561 51.5747 50.7717 51.6578 50.0036 52.0668C49.8972 52.1233 49.7875 52.1898 49.6678 52.2763C49.5747 52.3395 49.4517 52.3262 49.3752 52.243C48.4409 51.199 47.3602 50.3046 46.1566 49.5797C46.0602 49.5232 46.0236 49.4035 46.0668 49.3004C46.1267 49.1608 46.1732 49.0444 46.2098 48.928C46.7385 47.2057 45.7676 45.3736 44.0485 44.8449C43.214 44.5889 42.3328 44.672 41.5614 45.081C40.79 45.49 40.2248 46.1749 39.9688 47.0095C39.9322 47.1225 39.9056 47.2522 39.879 47.3952C39.859 47.5049 39.7593 47.588 39.6496 47.5781C38.2497 47.5016 36.8532 47.6346 35.4933 47.9737C35.3836 48.0003 35.2739 47.9438 35.234 47.8374C35.1808 47.7011 35.1276 47.5814 35.071 47.475C34.6621 46.7036 33.9804 46.1383 33.1459 45.8823C32.3146 45.6263 31.4302 45.7094 30.6621 46.1184C29.0727 46.9629 28.4643 48.9446 29.3055 50.5373C29.362 50.6437 29.4318 50.7568 29.515 50.8765C29.5781 50.9696 29.5648 51.0926 29.4817 51.1691C28.4377 52.1034 27.5432 53.1873 26.8217 54.391C26.7652 54.4874 26.6455 54.524 26.5424 54.4808C26.4094 54.4209 26.2864 54.3744 26.1733 54.3378C25.3421 54.0818 24.4576 54.1649 23.6862 54.5739C22.9148 54.9828 22.3496 55.6678 22.0936 56.5024C21.5649 58.2247 22.5358 60.0568 24.2548 60.5855C24.3679 60.6221 24.4942 60.6486 24.6405 60.6752C24.7502 60.6952 24.83 60.7949 24.8234 60.9047C24.7469 62.3078 24.8799 63.7077 25.2191 65.0643C25.2457 65.174 25.1891 65.2837 25.0827 65.3236C24.9431 65.3768 24.8267 65.43 24.7203 65.4865C23.131 66.3311 22.5225 68.3128 23.3637 69.9021C23.7727 70.6735 24.4543 71.2388 25.2889 71.4948C26.1201 71.7508 27.0046 71.6677 27.7727 71.2587C27.8791 71.2022 27.9888 71.1324 28.1085 71.0493C28.1484 71.0227 28.1916 71.0093 28.2348 71.0093ZM38.8915 68.3626C38.2331 68.3626 37.5681 68.2629 36.9197 68.0634C33.3919 66.9795 31.4036 63.2255 32.4875 59.6944C33.0129 57.982 34.17 56.5788 35.7493 55.7409C37.3287 54.903 39.1408 54.7302 40.8466 55.2555C44.3744 56.3395 46.3627 60.0934 45.2788 63.6245C44.7534 65.3369 43.5963 66.7401 42.017 67.578C41.0361 68.0967 39.9688 68.3626 38.8915 68.3626ZM38.8782 55.3985C37.8707 55.3985 36.8732 55.6445 35.9588 56.13C34.4825 56.9113 33.4019 58.2247 32.9098 59.8207C31.899 63.1191 33.7543 66.627 37.0494 67.6378C38.6454 68.1299 40.3378 67.967 41.8108 67.1856C43.2871 66.4042 44.3677 65.0909 44.8598 63.4949C45.8706 60.1965 44.0153 56.6886 40.7202 55.6778C40.1151 55.4916 39.4966 55.3985 38.8782 55.3985Z" fill="black"/>
<path d="M55.5733 48.8415C57.7611 49.5131 60.0786 48.2829 60.7503 46.0917C60.8001 45.9288 60.8367 45.7659 60.8666 45.5996C62.579 45.6927 64.2681 45.5265 65.8874 45.1208C65.9472 45.2771 66.0137 45.43 66.0935 45.5797C67.1642 47.6046 69.6746 48.376 71.6962 47.302C73.7178 46.228 74.4892 43.7177 73.4185 41.6927C73.3387 41.5431 73.249 41.4001 73.1525 41.2638C74.3961 40.1499 75.4834 38.8399 76.3645 37.3702C76.5174 37.4367 76.6737 37.4999 76.8366 37.5498C79.0245 38.2214 81.342 36.9912 82.0136 34.8C82.6853 32.6088 81.4584 30.288 79.2705 29.6163C79.1076 29.5665 78.9447 29.5299 78.7784 29.5C78.8715 27.7876 78.7053 26.0952 78.3029 24.4726C78.4592 24.4127 78.6122 24.3462 78.7618 24.2664C80.7834 23.1924 81.5548 20.6821 80.4841 18.6571C79.4135 16.6322 76.9031 15.8608 74.8815 16.9348C74.7319 17.0146 74.5889 17.1044 74.4526 17.2008C73.3387 15.9572 72.0353 14.8666 70.5657 13.9855C70.6322 13.8326 70.6953 13.6763 70.7452 13.5134C71.4169 11.3222 70.1899 9.00134 68.0021 8.32969C65.8142 7.65804 63.4967 8.88829 62.8251 11.0795C62.7752 11.2424 62.7386 11.4053 62.7087 11.5716C60.9963 11.4785 59.3072 11.6447 57.6879 12.0504C57.6281 11.8941 57.5616 11.7411 57.4818 11.5915C56.4111 9.56659 53.9008 8.79519 51.8792 9.86916C49.8576 10.9431 49.0862 13.4535 50.1568 15.4784C50.2366 15.6281 50.3264 15.771 50.4228 15.9074C49.1793 17.0212 48.092 18.3313 47.2109 19.8009C47.0579 19.7344 46.9016 19.6713 46.7387 19.6214C44.5509 18.9497 42.2333 20.18 41.5617 22.3712C40.89 24.5623 42.117 26.8832 44.3048 27.5548C44.4677 27.6047 44.6307 27.6413 44.7969 27.6712C44.7038 29.3836 44.8701 31.076 45.2724 32.6986C45.1161 32.7585 44.9632 32.825 44.8135 32.9048C42.7919 33.9787 42.0205 36.4891 43.0912 38.514C44.1618 40.539 46.6722 41.3104 48.6938 40.2364C48.8434 40.1566 48.9864 40.0668 49.1227 39.9704C50.2366 41.2139 51.54 42.3045 53.0097 43.1857C52.9432 43.3386 52.88 43.4949 52.8301 43.6578C52.1585 45.849 53.3854 48.1698 55.5733 48.8415ZM59.5267 35.9538C55.4635 34.7036 53.1826 30.3944 54.4295 26.3279C55.6763 22.2614 59.9822 19.9738 64.0453 21.224C68.1085 22.4742 70.3895 26.7834 69.1426 30.8499C67.8957 34.9164 63.5898 37.204 59.5267 35.9538Z" fill="white"/>
<path d="M56.7934 49.2472C56.3645 49.2472 55.9289 49.184 55.5067 49.0543C53.2058 48.3461 51.909 45.8989 52.6172 43.5947C52.6472 43.4916 52.6871 43.3885 52.7303 43.2788C51.3803 42.4442 50.1567 41.4334 49.0861 40.263C48.9863 40.3262 48.8899 40.3827 48.7968 40.4326C47.7661 40.9779 46.5857 41.091 45.4718 40.7485C44.3579 40.406 43.4436 39.6479 42.8949 38.6172C41.7678 36.4892 42.5824 33.8391 44.7071 32.7086C44.8002 32.6587 44.8999 32.6122 45.0096 32.5657C44.6439 31.0229 44.4943 29.4402 44.5641 27.8508C44.4477 27.8242 44.3413 27.7976 44.2382 27.7677C41.9373 27.0595 40.6406 24.6122 41.3488 22.308C41.6913 21.1908 42.4461 20.2765 43.4768 19.7278C44.5076 19.1825 45.6879 19.0695 46.8018 19.412C46.9049 19.4419 47.008 19.4818 47.1177 19.525C47.9489 18.1717 48.9631 16.9448 50.1301 15.8742C50.067 15.7744 50.0104 15.678 49.9606 15.5849C48.8334 13.4569 49.648 10.8068 51.7727 9.67635C52.8034 9.13105 53.9838 9.018 55.0977 9.36048C56.2116 9.70295 57.1259 10.4611 57.6746 11.4918C57.7244 11.5849 57.771 11.688 57.8175 11.7944C59.3603 11.4286 60.943 11.2757 62.5257 11.3455C62.5523 11.2291 62.5789 11.1227 62.6089 11.0197C62.9513 9.90245 63.7061 8.98808 64.7369 8.44278C65.7676 7.89415 66.948 7.78442 68.0619 8.1269C70.3628 8.83512 71.6595 11.2823 70.9513 13.5866C70.9214 13.6896 70.8815 13.7927 70.8382 13.9024C72.1882 14.737 73.4151 15.7478 74.4824 16.9182C74.5822 16.855 74.6786 16.7985 74.7717 16.7486C75.8025 16.2033 76.9828 16.0903 78.0967 16.4328C79.2106 16.7752 80.125 17.5333 80.6736 18.5641C81.8008 20.6921 80.9861 23.3421 78.8615 24.4726C78.765 24.5225 78.6686 24.569 78.5589 24.6156C78.9246 26.1584 79.0743 27.7411 79.0044 29.3304C79.1208 29.357 79.2272 29.3836 79.3303 29.4136C81.6312 30.1218 82.9279 32.569 82.2197 34.8732C81.8772 35.9904 81.1225 36.9048 80.0917 37.4534C79.061 37.9987 77.8806 38.1117 76.7667 37.7693C76.6636 37.7393 76.5606 37.6995 76.4508 37.6562C75.6196 39.0095 74.6055 40.2364 73.4384 41.3071C73.5016 41.4068 73.5581 41.5033 73.608 41.5964C74.7351 43.7244 73.9205 46.3744 71.7958 47.5049C70.7651 48.0502 69.5847 48.1632 68.4708 47.8208C67.357 47.4783 66.4426 46.7202 65.894 45.6894C65.8441 45.5963 65.7975 45.4966 65.751 45.3869C64.2115 45.7526 62.6288 45.9056 61.0428 45.8357C61.0162 45.9521 60.9896 46.0585 60.9597 46.1616C60.6172 47.2788 59.8624 48.1932 58.8317 48.7385C58.1933 49.0776 57.495 49.2505 56.7934 49.2505V49.2472ZM49.1193 39.7477C49.1792 39.7477 49.2424 39.7743 49.2856 39.8208C50.3995 41.0644 51.6896 42.135 53.1226 42.9962C53.2191 43.0527 53.2556 43.1724 53.2124 43.2755C53.1393 43.4384 53.0861 43.5847 53.0428 43.721C52.4078 45.7925 53.5715 47.9937 55.6397 48.6287C56.6405 48.938 57.7012 48.8349 58.6288 48.3428C59.5565 47.8507 60.2348 47.0294 60.5407 46.0253C60.5839 45.8856 60.6172 45.7393 60.6504 45.5598C60.6704 45.45 60.7701 45.3636 60.8799 45.3769C62.549 45.47 64.2148 45.3104 65.8341 44.9047C65.9438 44.8781 66.0536 44.9347 66.0935 45.0411C66.1566 45.2106 66.2198 45.347 66.2896 45.4766C66.7817 46.4043 67.603 47.0826 68.6038 47.3918C69.6047 47.7011 70.6653 47.598 71.593 47.1059C73.5049 46.0918 74.2364 43.7077 73.2223 41.7959C73.1558 41.6695 73.0726 41.5365 72.9729 41.3902C72.9097 41.2971 72.923 41.1741 73.0061 41.0976C74.2497 39.9837 75.317 38.6903 76.1782 37.2539C76.2347 37.1575 76.3544 37.1209 76.4575 37.1641C76.6204 37.2373 76.7634 37.2938 76.903 37.3337C77.9039 37.6429 78.9645 37.5399 79.8922 37.0478C80.8199 36.5557 81.4982 35.7344 81.8041 34.7302C82.4392 32.6588 81.2754 30.4576 79.2073 29.8225C79.0709 29.7793 78.918 29.7427 78.7418 29.7128C78.632 29.6929 78.5522 29.5931 78.5589 29.4834C78.652 27.8109 78.4924 26.1418 78.0901 24.5225C78.0635 24.4128 78.12 24.303 78.2264 24.2631C78.396 24.1966 78.5323 24.1368 78.662 24.067C80.5738 23.0528 81.3053 20.6688 80.2912 18.7569C79.7991 17.8293 78.9778 17.1509 77.977 16.8417C76.9762 16.5325 75.9155 16.6356 74.9878 17.1277C74.8615 17.1942 74.7285 17.2773 74.5822 17.3804C74.4891 17.4436 74.3661 17.4303 74.2896 17.3471C73.1757 16.1036 71.8856 15.0329 70.4525 14.1718C70.3561 14.1152 70.3195 13.9955 70.3628 13.8925C70.4359 13.7262 70.4891 13.5865 70.5323 13.4469C71.1674 11.3754 70.0037 9.17428 67.9355 8.5392C66.9347 8.22998 65.874 8.33305 64.9463 8.82515C64.022 9.31725 63.3404 10.1385 63.0345 11.1427C62.9912 11.2823 62.958 11.4286 62.9247 11.6082C62.9048 11.7179 62.805 11.801 62.6953 11.7911C61.0262 11.7013 59.3603 11.8575 57.7411 12.2632C57.6313 12.2898 57.5216 12.2333 57.4817 12.1269C57.4185 11.9606 57.3554 11.8176 57.2855 11.6913C56.7934 10.7636 55.9722 10.0853 54.9713 9.7761C53.9705 9.46688 52.9098 9.56995 51.9822 10.0621C50.0703 11.0762 49.3388 13.4602 50.3529 15.3721C50.4194 15.4984 50.5025 15.6314 50.6023 15.7777C50.6655 15.8708 50.6522 15.9939 50.569 16.0703C49.3255 17.1842 48.2582 18.4776 47.397 19.914C47.3405 20.0105 47.2208 20.047 47.1177 20.0038C46.9548 19.9307 46.8085 19.8741 46.6721 19.8342C45.6713 19.525 44.6106 19.6281 43.683 20.1202C42.7553 20.6123 42.077 21.4336 41.7711 22.4377C41.136 24.5092 42.2998 26.7103 44.3679 27.3454C44.5042 27.3886 44.6572 27.4252 44.8334 27.4551C44.9431 27.4751 45.0229 27.5748 45.0163 27.6846C44.9232 29.357 45.0828 31.0262 45.4851 32.6455C45.5117 32.7552 45.4552 32.8649 45.3488 32.9048C45.1825 32.968 45.0396 33.0312 44.9132 33.101C43.0013 34.1151 42.2698 36.4991 43.284 38.411C43.7761 39.3387 44.5973 40.017 45.5982 40.3262C46.599 40.6354 47.6597 40.5324 48.5873 40.0403C48.717 39.9704 48.8434 39.8906 48.993 39.7876C49.0296 39.761 49.0761 39.7477 49.1193 39.7477ZM61.7942 36.5191C61.0129 36.5191 60.2282 36.4027 59.4601 36.1666C55.2872 34.8832 52.9364 30.441 54.2166 26.2648C54.8383 24.2399 56.2082 22.5807 58.0769 21.5898C59.9455 20.599 62.0868 20.3928 64.1084 21.0146C68.2813 22.2981 70.6321 26.7403 69.352 30.9165C68.7302 32.9414 67.3603 34.6006 65.4916 35.5914C64.3312 36.2065 63.0677 36.5191 61.7909 36.5191H61.7942ZM61.7776 21.1011C60.574 21.1011 59.3803 21.397 58.2864 21.9755C56.5208 22.9132 55.2274 24.4792 54.6422 26.3911C53.4319 30.3379 55.653 34.5307 59.5931 35.741C61.5016 36.3262 63.5232 36.1367 65.2888 35.1991C67.0544 34.2614 68.3478 32.6953 68.933 30.7835C70.1433 26.8367 67.9222 22.6439 63.9821 21.4336C63.2572 21.2108 62.5158 21.1011 61.7809 21.1011H61.7776Z" fill="black"/>
<path d="M37.7443 34.7469C37.6446 34.7469 37.5548 34.6804 37.5315 34.5807C37.0295 32.5923 36.7734 30.5341 36.7734 28.4627C36.7734 14.767 47.9155 3.62158 61.6145 3.62158C68.9162 3.62158 75.8156 6.81358 80.5471 12.383C80.6269 12.4761 80.6136 12.6157 80.5205 12.6955C80.4274 12.7753 80.2877 12.7653 80.2079 12.6689C75.5596 7.19928 68.7799 4.0638 61.6112 4.0638C48.1582 4.0638 37.2123 15.0097 37.2123 28.4627C37.2123 30.4976 37.4617 32.5192 37.9571 34.4709C37.9871 34.5906 37.9139 34.7103 37.7975 34.7403C37.7809 34.7436 37.761 34.7469 37.7443 34.7469Z" fill="black"/>
<path d="M79.9484 45.1142C79.8952 45.1142 79.842 45.0942 79.8021 45.0576C79.7123 44.9778 79.7023 44.8349 79.7854 44.7451C83.802 40.2663 86.0131 34.4841 86.0131 28.4626C86.0131 24.825 85.2318 21.3271 83.6923 18.062C83.6391 17.9522 83.689 17.8192 83.7987 17.766C83.9084 17.7128 84.0414 17.7627 84.0946 17.8724C85.664 21.1974 86.4587 24.7585 86.4587 28.4626C86.4587 34.5939 84.2077 40.4791 80.1179 45.041C80.0747 45.0909 80.0148 45.1142 79.9517 45.1142H79.9484Z" fill="black"/>
<path d="M72.261 81.4165C67.1571 81.4165 62.3292 79.1888 59.0108 75.3052C58.931 75.2121 58.941 75.0724 59.0341 74.9926C59.1272 74.9128 59.2669 74.9228 59.3467 75.0159C62.5786 78.8031 67.2868 80.9743 72.261 80.9743C80.5236 80.9743 87.556 75.0758 88.9791 66.9495C88.999 66.8298 89.1121 66.75 89.2351 66.7699C89.3548 66.7899 89.4346 66.9062 89.4146 67.0259C87.955 75.365 80.7397 81.4165 72.261 81.4165Z" fill="black"/>
<path d="M64.2814 112.219L45.3788 112.146C43.0779 112.136 40.9333 110.267 40.5808 107.97L38.7388 95.8602C38.3896 93.5626 39.969 91.7072 42.2699 91.7139L61.1725 91.787C63.4734 91.797 65.6181 93.6657 65.9705 95.9632L67.8126 108.073C68.1617 110.37 66.5823 112.226 64.2814 112.219Z" fill="white"/>
<path d="M64.2973 112.439H64.2807L45.378 112.366C42.9774 112.356 40.7297 110.397 40.3639 108L38.5219 95.8902C38.3423 94.7065 38.6383 93.5926 39.3598 92.758C40.0647 91.9401 41.0921 91.4912 42.2559 91.4912H42.2725L61.1751 91.5644C63.5758 91.5743 65.8235 93.5328 66.1892 95.9301L68.0313 108.04C68.2108 109.223 67.9149 110.337 67.1934 111.172C66.4885 111.99 65.4611 112.439 64.2973 112.439ZM42.2525 91.9334C41.2218 91.9334 40.3141 92.3291 39.6923 93.0473C39.0572 93.7821 38.7979 94.7697 38.9575 95.8237L40.7995 107.933C41.132 110.125 43.1869 111.913 45.378 111.923L64.2807 111.996H64.2973C65.3281 111.996 66.2358 111.601 66.8575 110.883C67.4926 110.148 67.752 109.16 67.5924 108.106L65.7503 95.9966C65.4178 93.8054 63.363 92.0166 61.1718 92.0066L42.2692 91.9334H42.2525Z" fill="black"/>
<path d="M142.309 24.928L158.632 25.0078C161.724 25.0245 163.829 22.401 163.33 19.1492L161.893 9.78265C161.395 6.5308 158.482 3.8841 155.39 3.86747L139.067 3.78768C135.975 3.77105 133.87 6.39447 134.369 9.64632L135.805 19.0129C136.304 22.2647 139.217 24.9114 142.309 24.928Z" fill="#E2EAFF"/>
<path d="M143.841 15.7059C144.556 14.9357 144.404 13.6341 143.504 12.7988C142.603 11.9635 141.294 11.9107 140.579 12.6809C139.865 13.4511 140.016 14.7526 140.917 15.5879C141.818 16.4233 143.127 16.4761 143.841 15.7059Z" fill="white"/>
<path d="M156.591 21.0315C157.305 20.2613 157.153 18.9598 156.253 18.1245C155.352 17.2891 154.043 17.2363 153.328 18.0065C152.614 18.7767 152.765 20.0783 153.666 20.9136C154.567 21.749 155.876 21.8018 156.591 21.0315Z" fill="white"/>
<path d="M152.949 18.8967C152.919 18.8967 152.892 18.89 152.862 18.88L144.227 15.2691C144.114 15.2225 144.061 15.0929 144.108 14.9798C144.154 14.8668 144.284 14.8135 144.397 14.8601L153.032 18.4711C153.145 18.5176 153.198 18.6473 153.152 18.7603C153.115 18.8468 153.035 18.8967 152.949 18.8967Z" fill="white"/>
<path d="M155.057 10.6055C155.772 9.83532 155.62 8.53378 154.719 7.69845C153.819 6.86311 152.509 6.81031 151.795 7.58051C151.081 8.35072 151.232 9.65227 152.133 10.4876C153.034 11.3229 154.343 11.3757 155.057 10.6055Z" fill="white"/>
<path d="M144.068 13.5897C143.985 13.5897 143.905 13.5432 143.865 13.46C143.815 13.3503 143.865 13.2173 143.975 13.1674L151.566 9.69614C151.675 9.64626 151.808 9.69614 151.858 9.80586C151.908 9.91559 151.858 10.0486 151.749 10.0985L144.158 13.5698C144.128 13.5831 144.098 13.5897 144.065 13.5897H144.068Z" fill="white"/>
<path d="M114.848 60.9078H139.207C140.447 60.9078 141.295 59.9003 141.102 58.6601L138.405 41.39C138.212 40.1498 137.049 39.1423 135.808 39.1423H103.981L109.893 43.5646L112.251 58.6601C112.444 59.9003 113.607 60.9078 114.848 60.9078Z" fill="white"/>
<path d="M139.204 61.1307H114.845C113.502 61.1307 112.238 60.0368 112.029 58.6935L109.684 43.6877L103.846 39.3187C103.769 39.2621 103.739 39.1624 103.769 39.0726C103.799 38.9828 103.882 38.9197 103.979 38.9197H135.806C137.149 38.9197 138.412 40.0136 138.622 41.3569L141.318 58.627C141.425 59.2986 141.255 59.9304 140.85 60.4058C140.451 60.8747 139.865 61.1307 139.204 61.1307ZM104.644 39.3619L110.024 43.3852C110.07 43.4184 110.1 43.4716 110.11 43.5281L112.467 58.6236C112.644 59.7608 113.711 60.6851 114.848 60.6851H139.207C139.736 60.6851 140.201 60.4823 140.517 60.1132C140.84 59.7375 140.969 59.2321 140.886 58.6901L138.19 41.4201C138.013 40.2829 136.946 39.3586 135.809 39.3586H104.647L104.644 39.3619Z" fill="#5479F7"/>
<path d="M33.3425 100.555H17.1897C17.0799 100.555 16.9868 100.475 16.9702 100.369L11.5006 64.981C11.4906 64.9178 11.5106 64.8513 11.5505 64.8047C11.5937 64.7549 11.6535 64.7283 11.7167 64.7283H20.0891C20.2121 64.7283 20.3118 64.828 20.3118 64.951C20.3118 65.0741 20.2121 65.1738 20.0891 65.1738H11.9727L17.3759 100.12H33.3392C33.4622 100.12 33.562 100.219 33.562 100.342C33.562 100.465 33.4622 100.565 33.3392 100.565L33.3425 100.555Z" fill="black"/>
<path d="M99.696 61.7558H88.6271C88.504 61.7558 88.4043 61.656 88.4043 61.533C88.4043 61.41 88.504 61.3102 88.6271 61.3102H99.44L98.0834 52.2695C98.0734 52.2064 98.0934 52.1399 98.1333 52.0933C98.1765 52.0434 98.2363 52.0168 98.2995 52.0168H107.546C107.669 52.0168 107.769 52.1166 107.769 52.2396C107.769 52.3627 107.669 52.4624 107.546 52.4624H98.5555L99.9121 61.5031C99.9221 61.5662 99.9021 61.6327 99.8622 61.6793C99.819 61.7292 99.7592 61.7558 99.696 61.7558Z" fill="black"/>
<path d="M130.393 17.0911H86.4161C86.2931 17.0911 86.1934 16.9913 86.1934 16.8683C86.1934 16.7453 86.2931 16.6455 86.4161 16.6455H130.393C130.516 16.6455 130.615 16.7453 130.615 16.8683C130.615 16.9913 130.516 17.0911 130.393 17.0911Z" fill="black"/>
<path d="M113.049 187.255L73.3947 187.118C73.3947 187.118 63.842 186.796 63.5693 181.715C63.0307 171.667 82.9242 161.32 82.9242 161.32C82.9242 161.32 102.548 158.806 113.564 159.022C122.635 159.202 126.01 167.125 126.01 174.284C126.01 181.442 120.207 187.251 113.052 187.251L113.049 187.255Z" fill="white"/>
<path d="M113.049 187.474L73.3951 187.338C72.9895 187.324 63.6296 186.949 63.3503 181.725C63.1209 177.482 66.3395 172.721 72.9097 167.574C77.7742 163.764 82.775 161.15 82.8248 161.123C82.8481 161.11 82.8714 161.104 82.898 161.1C83.0942 161.074 102.658 158.586 113.568 158.803C122.914 158.985 126.229 167.258 126.229 174.287C126.229 181.316 120.318 187.474 113.049 187.474ZM82.9911 161.536C82.0568 162.031 63.2738 172.109 63.7892 181.705C64.0486 186.53 73.3087 186.896 73.4018 186.899L113.049 187.035C120.071 187.035 125.784 181.316 125.784 174.29C125.784 167.265 122.582 159.424 113.554 159.248C102.918 159.035 83.9853 161.413 82.9878 161.539L82.9911 161.536Z" fill="black"/>
<path d="M85.9233 159.378L79.8319 163.178C78.6681 162.793 77.408 162.58 76.0913 162.58C73.6042 162.58 71.3166 163.335 69.5011 164.595L62.9342 162.643C61.9401 162.347 61.0756 163.385 61.5477 164.309L65.4213 171.94C65.4213 171.956 65.4213 171.976 65.4213 171.996C65.4213 177.197 70.196 181.413 76.0879 181.413C81.9798 181.413 86.7545 177.197 86.7545 171.996C86.7545 170.819 86.5085 169.692 86.0596 168.651L87.6988 160.615C87.905 159.597 86.7978 158.829 85.92 159.378H85.9233Z" fill="white"/>
<path d="M76.0916 181.635C70.0866 181.635 65.2022 177.313 65.2022 171.996L61.3518 164.408C61.0925 163.9 61.159 163.315 61.5248 162.876C61.8905 162.44 62.4524 162.267 63.0011 162.43L69.4649 164.352C71.3801 163.049 73.671 162.36 76.0916 162.36C77.365 162.36 78.6119 162.553 79.8023 162.936L85.8072 159.188C86.2893 158.886 86.8812 158.902 87.3467 159.225C87.8155 159.551 88.035 160.099 87.9219 160.658L86.296 168.628C86.7515 169.709 86.9809 170.839 86.9809 171.996C86.9809 177.309 82.0965 181.635 76.0916 181.635ZM65.6079 171.813C65.6345 171.85 65.6477 171.893 65.6477 171.94V171.996C65.6477 177.067 70.3327 181.19 76.0916 181.19C81.8505 181.19 86.5387 177.063 86.5387 171.996C86.5387 170.879 86.3093 169.782 85.8604 168.738C85.8438 168.698 85.8371 168.651 85.8471 168.605L87.4863 160.568C87.5794 160.113 87.3434 159.763 87.094 159.587C86.8446 159.414 86.4356 159.315 86.04 159.561L79.9486 163.361C79.892 163.394 79.8256 163.404 79.7624 163.384C78.5853 162.995 77.3517 162.799 76.0916 162.799C73.7242 162.799 71.4898 163.481 69.6278 164.774C69.5712 164.814 69.5014 164.824 69.4382 164.804L62.8714 162.852C62.4258 162.719 62.0567 162.922 61.8639 163.158C61.6677 163.394 61.5347 163.793 61.7442 164.209L65.6045 171.813H65.6079Z" fill="black"/>
<path d="M81.6016 163.66L85.9673 160.937L84.767 166.823L81.6016 163.66Z" fill="white"/>
<path d="M84.7668 167.042C84.7668 167.042 84.7369 167.042 84.7236 167.039C84.6039 167.015 84.5274 166.899 84.5507 166.779L85.6479 161.399L81.7178 163.853C81.6147 163.916 81.4784 163.886 81.4119 163.783C81.3487 163.68 81.3786 163.544 81.4817 163.477L85.8474 160.751C85.9239 160.704 86.017 160.708 86.0902 160.758C86.1633 160.807 86.1999 160.897 86.1799 160.984L84.9796 166.869C84.9597 166.975 84.8666 167.045 84.7635 167.045L84.7668 167.042Z" fill="black"/>
<path d="M68.171 165.779L63.4961 164.389L66.0098 169.34L68.171 165.779Z" fill="white"/>
<path d="M66.0104 169.559C65.9306 169.559 65.8508 169.516 65.8142 169.439L63.3005 164.488C63.2606 164.408 63.2706 164.315 63.3271 164.246C63.3836 164.179 63.4768 164.149 63.5599 164.176L68.2348 165.566C68.3512 165.602 68.4177 165.725 68.3845 165.842C68.3479 165.958 68.2248 166.024 68.1085 165.991L63.9256 164.748L66.2066 169.24C66.2631 169.349 66.2199 169.482 66.1101 169.536C66.0769 169.552 66.0436 169.559 66.0104 169.559Z" fill="black"/>
<path d="M99.596 187.484C99.596 187.484 99.5893 187.484 99.586 187.484C97.4114 187.384 95.8886 186.344 95.5129 184.701C95.1671 183.191 95.8853 181.619 97.2618 180.874C98.901 179.986 101.784 180.076 104.836 180.172C108.051 180.272 111.699 180.385 114.346 179.351C117.624 178.071 117.661 174.407 117.661 174.37C117.661 174.247 117.76 174.147 117.883 174.147C118.006 174.147 118.106 174.247 118.106 174.37C118.106 174.41 118.066 178.374 114.512 179.763C111.779 180.831 108.088 180.714 104.826 180.615C101.834 180.521 99.0074 180.435 97.4746 181.263C96.2942 181.901 95.6525 183.308 95.9484 184.605C96.2776 186.041 97.6475 186.955 99.6126 187.045C99.7356 187.052 99.8287 187.155 99.8221 187.278C99.8154 187.398 99.719 187.487 99.6026 187.487L99.596 187.484Z" fill="black"/>
<path d="M99.6323 180.678C99.5226 180.678 99.4295 180.598 99.4129 180.485C98.7878 175.743 99.6822 172.126 102.066 169.725C105.986 165.785 112.66 166.576 112.726 166.583C112.846 166.6 112.932 166.709 112.919 166.829C112.902 166.952 112.789 167.035 112.673 167.022C112.61 167.015 106.146 166.25 102.382 170.038C100.098 172.335 99.2499 175.83 99.8551 180.425C99.8717 180.545 99.7853 180.658 99.6656 180.674C99.6556 180.674 99.6456 180.674 99.6356 180.674L99.6323 180.678Z" fill="black"/>
<path d="M86.7853 187.447C86.6623 187.447 86.5625 187.348 86.5625 187.225C86.5625 187.102 86.6623 187.002 86.7853 187.002C86.9648 187.002 91.1843 186.962 92.4079 183.371C93.422 180.398 91.663 171.581 91.6431 171.491C91.6198 171.371 91.6963 171.255 91.816 171.231C91.9357 171.208 92.0521 171.285 92.0754 171.404C92.1485 171.77 93.8742 180.428 92.8235 183.514C91.5001 187.401 86.9748 187.444 86.782 187.444L86.7853 187.447Z" fill="black"/>
<path d="M76.9927 187.411C76.9927 187.411 76.9694 187.411 76.9561 187.411C75.5064 187.168 74.4391 186.25 74.0368 184.894C73.6411 183.567 73.9902 182.154 74.9245 181.293C75.0143 181.21 75.154 181.216 75.2371 181.306C75.3202 181.396 75.3135 181.536 75.2238 181.619C74.4125 182.367 74.1132 183.604 74.459 184.767C74.8148 185.958 75.7491 186.762 77.0293 186.975C77.149 186.995 77.2321 187.108 77.2121 187.231C77.1955 187.338 77.0991 187.417 76.9927 187.417V187.411Z" fill="black"/>
<path d="M81.3849 180.415C81.2652 180.415 81.1654 180.319 81.1621 180.199C81.1621 180.076 81.2585 179.976 81.3782 179.973L81.7407 179.966C83.3433 179.939 84.8595 179.913 85.2618 179.537C86.1463 178.716 85.315 176.691 85.3084 176.668C85.2618 176.555 85.315 176.425 85.4281 176.378C85.5411 176.332 85.6708 176.385 85.7174 176.498C85.7573 176.595 86.6716 178.832 85.5644 179.86C85.0357 180.348 83.586 180.375 81.7473 180.405L81.3849 180.412H81.3816L81.3849 180.415Z" fill="black"/>
<path d="M245.792 23.7216C246.787 22.6428 246.564 20.8198 245.295 19.6499C244.026 18.4799 242.191 18.406 241.196 19.4849C240.202 20.5637 240.424 22.3867 241.694 23.5566C242.963 24.7266 244.798 24.8004 245.792 23.7216Z" fill="white"/>
<path d="M243.964 24.7086C242.272 24.7086 240.669 23.3321 240.393 21.643C240.257 20.8017 240.459 20.0104 240.965 19.4119C241.464 18.8267 242.195 18.5042 243.023 18.5042C244.715 18.5042 246.318 19.8807 246.594 21.5698C246.73 22.411 246.528 23.2024 246.022 23.8009C245.523 24.3861 244.792 24.7086 243.964 24.7086ZM243.023 18.9464C242.328 18.9464 241.716 19.2124 241.304 19.6978C240.882 20.1933 240.715 20.8583 240.832 21.5698C241.075 23.0561 242.481 24.2664 243.964 24.2664C244.662 24.2664 245.271 24.0004 245.683 23.5149C246.105 23.0195 246.272 22.3545 246.155 21.643C245.912 20.1567 244.506 18.9464 243.023 18.9464Z" fill="black"/>
<path d="M247.411 32.7382C248.406 31.6594 248.183 29.8364 246.914 28.6665C245.645 27.4965 243.81 27.4226 242.815 28.5015C241.821 29.5803 242.044 31.4033 243.313 32.5732C244.582 33.7432 246.417 33.817 247.411 32.7382Z" fill="white"/>
<path d="M245.587 33.7259C243.895 33.7259 242.292 32.3494 242.016 30.6603C241.88 29.8191 242.083 29.0277 242.588 28.4292C243.087 27.844 243.818 27.5215 244.646 27.5215C246.339 27.5215 247.941 28.898 248.217 30.5871C248.353 31.4284 248.151 32.2197 247.645 32.8182C247.146 33.4034 246.415 33.7259 245.587 33.7259ZM244.646 27.9637C243.948 27.9637 243.339 28.2297 242.927 28.7152C242.505 29.2106 242.339 29.8756 242.455 30.5871C242.698 32.0734 244.104 33.2837 245.587 33.2837C246.285 33.2837 246.894 33.0177 247.306 32.5323C247.728 32.0368 247.895 31.3718 247.778 30.6603C247.536 29.174 246.129 27.9637 244.646 27.9637Z" fill="black"/>
<path d="M248.93 42.0273C249.924 40.9485 249.702 39.1255 248.433 37.9555C247.163 36.7856 245.328 36.7117 244.334 37.7905C243.339 38.8693 243.562 40.6923 244.831 41.8623C246.1 43.0322 247.936 43.1061 248.93 42.0273Z" fill="#111AE8"/>
<path d="M242.259 13.7827C242.152 13.7827 242.059 13.7062 242.043 13.5998L240.36 4.00717H191.719C191.596 4.00717 191.496 3.90742 191.496 3.78772C191.496 3.66802 191.596 3.56494 191.719 3.56494H240.546C240.653 3.56494 240.746 3.64142 240.766 3.74782L242.482 13.5233C242.502 13.643 242.422 13.7594 242.302 13.7793C242.289 13.7793 242.276 13.7793 242.262 13.7793L242.259 13.7827Z" fill="black"/>
<path d="M249.91 60.6985C249.803 60.6985 249.71 60.622 249.69 60.5123L247.615 47.7908C247.595 47.6711 247.678 47.5581 247.798 47.5381C247.921 47.5182 248.031 47.6013 248.051 47.721L250.126 60.4424C250.146 60.5621 250.062 60.6752 249.943 60.6951C249.929 60.6951 249.919 60.6951 249.906 60.6951L249.91 60.6985Z" fill="black"/>
<path d="M220.998 13.5898H180.879C180.756 13.5898 180.656 13.4901 180.656 13.3671C180.656 13.244 180.756 13.1443 180.879 13.1443H220.998C221.122 13.1443 221.221 13.244 221.221 13.3671C221.221 13.4901 221.122 13.5898 220.998 13.5898Z" fill="black"/>
<path d="M200.939 18.1882H173.371C173.248 18.1882 173.148 18.0885 173.148 17.9654C173.148 17.8424 173.248 17.7427 173.371 17.7427H200.939C201.062 17.7427 201.162 17.8424 201.162 17.9654C201.162 18.0885 201.062 18.1882 200.939 18.1882Z" fill="black"/>
</g>
<defs>
<clipPath id="clip0_551_15929">
<rect width="266" height="266" fill="white" transform="translate(0 -37)"/>
</clipPath>
</defs>
</svg>
