<svg width="17" height="18" viewBox="0 0 17 18" fill="none" xmlns="http://www.w3.org/2000/svg">
<mask id="mask0_4415_21393" style="mask-type:alpha" maskUnits="userSpaceOnUse" x="0" y="0" width="17" height="18">
<rect y="0.5" width="17" height="17" fill="#D9D9D9"/>
</mask>
<g mask="url(#mask0_4415_21393)">
<path d="M2.83333 13.9583C2.63264 13.9583 2.46441 13.8905 2.32865 13.7547C2.19288 13.6189 2.125 13.4507 2.125 13.25C2.125 13.0493 2.19288 12.8811 2.32865 12.7453C2.46441 12.6095 2.63264 12.5417 2.83333 12.5417H5.66667C5.86736 12.5417 6.03559 12.6095 6.17135 12.7453C6.30712 12.8811 6.375 13.0493 6.375 13.25C6.375 13.4507 6.30712 13.6189 6.17135 13.7547C6.03559 13.8905 5.86736 13.9583 5.66667 13.9583H2.83333ZM2.83333 5.45833C2.63264 5.45833 2.46441 5.39045 2.32865 5.25469C2.19288 5.11892 2.125 4.95069 2.125 4.75C2.125 4.54931 2.19288 4.38108 2.32865 4.24531C2.46441 4.10955 2.63264 4.04167 2.83333 4.04167L8.5 4.04167C8.70069 4.04167 8.86892 4.10955 9.00469 4.24531C9.14045 4.38108 9.20833 4.54931 9.20833 4.75C9.20833 4.95069 9.14045 5.11892 9.00469 5.25469C8.86892 5.39045 8.70069 5.45833 8.5 5.45833L2.83333 5.45833ZM8.5 15.375C8.29931 15.375 8.13108 15.3071 7.99531 15.1714C7.85955 15.0356 7.79167 14.8674 7.79167 14.6667L7.79167 11.8333C7.79167 11.6326 7.85955 11.4644 7.99531 11.3286C8.13108 11.1929 8.29931 11.125 8.5 11.125C8.70069 11.125 8.86892 11.1929 9.00469 11.3286C9.14045 11.4644 9.20833 11.6326 9.20833 11.8333V12.5417L14.1667 12.5417C14.3674 12.5417 14.5356 12.6095 14.6714 12.7453C14.8071 12.8811 14.875 13.0493 14.875 13.25C14.875 13.4507 14.8071 13.6189 14.6714 13.7547C14.5356 13.8905 14.3674 13.9583 14.1667 13.9583L9.20833 13.9583V14.6667C9.20833 14.8674 9.14045 15.0356 9.00469 15.1714C8.86892 15.3071 8.70069 15.375 8.5 15.375ZM5.66667 11.125C5.46597 11.125 5.29774 11.0571 5.16198 10.9214C5.02622 10.7856 4.95833 10.6174 4.95833 10.4167V9.70833H2.83333C2.63264 9.70833 2.46441 9.64045 2.32865 9.50469C2.19288 9.36892 2.125 9.20069 2.125 9C2.125 8.79931 2.19288 8.63108 2.32865 8.49531C2.46441 8.35955 2.63264 8.29167 2.83333 8.29167H4.95833L4.95833 7.58333C4.95833 7.38264 5.02622 7.21441 5.16198 7.07865C5.29774 6.94288 5.46597 6.875 5.66667 6.875C5.86736 6.875 6.03559 6.94288 6.17135 7.07865C6.30712 7.21441 6.375 7.38264 6.375 7.58333V10.4167C6.375 10.6174 6.30712 10.7856 6.17135 10.9214C6.03559 11.0571 5.86736 11.125 5.66667 11.125ZM8.5 9.70833C8.29931 9.70833 8.13108 9.64045 7.99531 9.50469C7.85955 9.36892 7.79167 9.20069 7.79167 9C7.79167 8.79931 7.85955 8.63108 7.99531 8.49531C8.13108 8.35955 8.29931 8.29167 8.5 8.29167L14.1667 8.29167C14.3674 8.29167 14.5356 8.35955 14.6714 8.49531C14.8071 8.63108 14.875 8.79931 14.875 9C14.875 9.20069 14.8071 9.36892 14.6714 9.50469C14.5356 9.64045 14.3674 9.70833 14.1667 9.70833L8.5 9.70833ZM11.3333 6.875C11.1326 6.875 10.9644 6.80712 10.8286 6.67135C10.6929 6.53559 10.625 6.36736 10.625 6.16667V3.33333C10.625 3.13264 10.6929 2.96441 10.8286 2.82865C10.9644 2.69288 11.1326 2.625 11.3333 2.625C11.534 2.625 11.7023 2.69288 11.838 2.82865C11.9738 2.96441 12.0417 3.13264 12.0417 3.33333V4.04167L14.1667 4.04167C14.3674 4.04167 14.5356 4.10955 14.6714 4.24531C14.8071 4.38108 14.875 4.54931 14.875 4.75C14.875 4.95069 14.8071 5.11892 14.6714 5.25469C14.5356 5.39045 14.3674 5.45833 14.1667 5.45833H12.0417V6.16667C12.0417 6.36736 11.9738 6.53559 11.838 6.67135C11.7023 6.80712 11.534 6.875 11.3333 6.875Z" fill="#2D2E34"/>
</g>
</svg>
