<svg width="20" height="20" viewBox="0 0 20 20" fill="none" xmlns="http://www.w3.org/2000/svg">
<g id="upload">
<mask id="mask0_933_3563" style="mask-type:alpha" maskUnits="userSpaceOnUse" x="0" y="0" width="20" height="20">
<rect id="Bounding box" width="20" height="20" fill="#D9D9D9"/>
</mask>
<g mask="url(#mask0_933_3563)">
<path id="upload_2" d="M4.99967 16.6667C4.54134 16.6667 4.14898 16.5035 3.82259 16.1771C3.4962 15.8507 3.33301 15.4583 3.33301 15V13.3333C3.33301 13.0972 3.41287 12.8993 3.57259 12.7396C3.73231 12.5799 3.93023 12.5 4.16634 12.5C4.40245 12.5 4.60037 12.5799 4.76009 12.7396C4.91981 12.8993 4.99967 13.0972 4.99967 13.3333L4.99967 15L14.9997 15V13.3333C14.9997 13.0972 15.0795 12.8993 15.2393 12.7396C15.399 12.5799 15.5969 12.5 15.833 12.5C16.0691 12.5 16.267 12.5799 16.4268 12.7396C16.5865 12.8993 16.6663 13.0972 16.6663 13.3333V15C16.6663 15.4583 16.5031 15.8507 16.1768 16.1771C15.8504 16.5035 15.458 16.6667 14.9997 16.6667H4.99967ZM9.16634 6.54167L7.60384 8.10417C7.43717 8.27083 7.23926 8.35069 7.01009 8.34375C6.78092 8.33681 6.58301 8.25 6.41634 8.08333C6.26356 7.91667 6.1837 7.72222 6.17676 7.5C6.16981 7.27778 6.24967 7.08333 6.41634 6.91667L9.41634 3.91667C9.49967 3.83333 9.58995 3.77431 9.68717 3.73958C9.7844 3.70486 9.88856 3.6875 9.99967 3.6875C10.1108 3.6875 10.215 3.70486 10.3122 3.73958C10.4094 3.77431 10.4997 3.83333 10.583 3.91667L13.583 6.91667C13.7497 7.08333 13.8295 7.27778 13.8226 7.5C13.8156 7.72222 13.7358 7.91667 13.583 8.08333C13.4163 8.25 13.2184 8.33681 12.9893 8.34375C12.7601 8.35069 12.5622 8.27083 12.3955 8.10417L10.833 6.54167V12.5C10.833 12.7361 10.7531 12.934 10.5934 13.0937C10.4337 13.2535 10.2358 13.3333 9.99967 13.3333C9.76356 13.3333 9.56565 13.2535 9.40592 13.0938C9.2462 12.934 9.16634 12.7361 9.16634 12.5V6.54167Z" fill="white"/>
</g>
</g>
</svg>
