
<svg width="17" height="17" viewBox="0 0 17 17" fill="none" xmlns="http://www.w3.org/2000/svg">
<g id="verify">
<mask id="mask0_151_8457" style="mask-type:alpha" maskUnits="userSpaceOnUse" x="0" y="0" width="17" height="17">
<rect id="Bounding box" width="17" height="17" fill="#D9D9D9"/>
</mask>
<g mask="url(#mask0_151_8457)">
<path id="new_releases" d="M5.77285 15.4065L4.74577 13.6711L2.79785 13.2461C2.62077 13.2107 2.4791 13.1192 2.37285 12.9717C2.2666 12.8241 2.22528 12.6618 2.24889 12.4847L2.44368 10.4836L1.11556 8.96071C0.997504 8.83085 0.938477 8.67738 0.938477 8.5003C0.938477 8.32321 0.997504 8.16974 1.11556 8.03988L2.44368 6.51696L2.24889 4.51592C2.22528 4.33884 2.2666 4.17651 2.37285 4.02894C2.4791 3.88137 2.62077 3.78988 2.79785 3.75446L4.74577 3.32946L5.77285 1.59405C5.8673 1.44058 5.99716 1.33728 6.16244 1.28415C6.32771 1.23103 6.49299 1.23988 6.65827 1.31071L8.49994 2.08988L10.3416 1.31071C10.5069 1.23988 10.6722 1.23103 10.8374 1.28415C11.0027 1.33728 11.1326 1.44058 11.227 1.59405L12.2541 3.32946L14.202 3.75446C14.3791 3.78988 14.5208 3.88137 14.627 4.02894C14.7333 4.17651 14.7746 4.33884 14.751 4.51592L14.5562 6.51696L15.8843 8.03988C16.0024 8.16974 16.0614 8.32321 16.0614 8.5003C16.0614 8.67738 16.0024 8.83085 15.8843 8.96071L14.5562 10.4836L14.751 12.4847C14.7746 12.6618 14.7333 12.8241 14.627 12.9717C14.5208 13.1192 14.3791 13.2107 14.202 13.2461L12.2541 13.6711L11.227 15.4065C11.1326 15.56 11.0027 15.6633 10.8374 15.7164C10.6722 15.7696 10.5069 15.7607 10.3416 15.6899L8.49994 14.9107L6.65827 15.6899C6.49299 15.7607 6.32771 15.7696 6.16244 15.7164C5.99716 15.6633 5.8673 15.56 5.77285 15.4065ZM7.75619 8.99613L6.7291 7.98676C6.59924 7.8569 6.43691 7.79196 6.24212 7.79196C6.04733 7.79196 5.8791 7.8628 5.73744 8.00446C5.60757 8.13433 5.54264 8.2996 5.54264 8.5003C5.54264 8.70099 5.60757 8.86627 5.73744 8.99613L7.26035 10.519C7.40202 10.6607 7.5673 10.7315 7.75619 10.7315C7.94507 10.7315 8.11035 10.6607 8.25202 10.519L11.2624 7.50863C11.4041 7.36696 11.472 7.20169 11.4661 7.0128C11.4602 6.82391 11.3923 6.65863 11.2624 6.51696C11.1208 6.3753 10.9525 6.30151 10.7577 6.29561C10.563 6.28971 10.3947 6.35759 10.2531 6.49926L7.75619 8.99613Z" fill="#008558"/>
</g>
</g>
</svg>
