<svg width="17" height="18" viewBox="0 0 17 18" fill="none" xmlns="http://www.w3.org/2000/svg">
<mask id="mask0_1026_731" style="mask-type:alpha" maskUnits="userSpaceOnUse" x="0" y="0" width="17" height="18">
<rect y="0.5" width="17" height="17" fill="#D9D9D9"/>
</mask>
<g mask="url(#mask0_1026_731)">
<path d="M11.4039 9.92064L10.3768 8.89355C10.4831 8.33869 10.3237 7.81925 9.8987 7.33522C9.4737 6.85119 8.92474 6.6623 8.25182 6.76855L7.22474 5.74147C7.42543 5.64703 7.62908 5.57619 7.83568 5.52897C8.04227 5.48175 8.26363 5.45814 8.49974 5.45814C9.38516 5.45814 10.1378 5.76803 10.7576 6.38783C11.3773 7.00762 11.6872 7.76022 11.6872 8.64564C11.6872 8.88175 11.6636 9.1031 11.6164 9.3097C11.5692 9.5163 11.4984 9.71994 11.4039 9.92064ZM13.6706 12.1519L12.6435 11.1602C13.0921 10.8179 13.4905 10.443 13.8388 10.0357C14.1871 9.62845 14.4852 9.16508 14.7331 8.64564C14.1428 7.45328 13.2957 6.50588 12.1919 5.80345C11.0881 5.10102 9.85738 4.7498 8.49974 4.7498C8.15738 4.7498 7.82092 4.77342 7.49037 4.82064C7.15981 4.86786 6.83516 4.93869 6.51641 5.03314L5.41849 3.93522C5.90252 3.73453 6.39835 3.58401 6.90599 3.48366C7.41363 3.38331 7.94488 3.33314 8.49974 3.33314C10.1879 3.33314 11.7049 3.7788 13.0508 4.67012C14.3966 5.56144 15.406 6.72133 16.0789 8.1498C16.1143 8.20883 16.1379 8.28262 16.1497 8.37116C16.1615 8.4597 16.1674 8.55119 16.1674 8.64564C16.1674 8.74008 16.1586 8.83158 16.1409 8.92012C16.1232 9.00866 16.1025 9.08244 16.0789 9.14147C15.8074 9.74355 15.468 10.2984 15.0607 10.8061C14.6534 11.3137 14.19 11.7623 13.6706 12.1519ZM13.5289 16.0123L11.0497 13.5686C10.6365 13.6984 10.2204 13.7958 9.8013 13.8607C9.38221 13.9257 8.94835 13.9581 8.49974 13.9581C6.81154 13.9581 5.29453 13.5125 3.9487 12.6212C2.60286 11.7298 1.59349 10.5699 0.920573 9.14147C0.885156 9.08244 0.861545 9.00866 0.84974 8.92012C0.837934 8.83158 0.832031 8.74008 0.832031 8.64564C0.832031 8.55119 0.837934 8.46265 0.84974 8.38001C0.861545 8.29737 0.885156 8.22654 0.920573 8.16751C1.16849 7.63626 1.46363 7.14633 1.80599 6.69772C2.14835 6.24911 2.52613 5.83592 2.93932 5.45814L1.46953 3.97064C1.33967 3.84078 1.27474 3.67845 1.27474 3.48366C1.27474 3.28887 1.34557 3.12064 1.48724 2.97897C1.6171 2.84911 1.78238 2.78418 1.98307 2.78418C2.18377 2.78418 2.34905 2.84911 2.47891 2.97897L14.5206 15.0206C14.6504 15.1505 14.7183 15.3128 14.7242 15.5076C14.7301 15.7024 14.6622 15.8706 14.5206 16.0123C14.3907 16.1422 14.2254 16.2071 14.0247 16.2071C13.824 16.2071 13.6588 16.1422 13.5289 16.0123ZM3.93099 6.4498C3.58863 6.75675 3.27578 7.09321 2.99245 7.45918C2.70911 7.82515 2.4671 8.22064 2.26641 8.64564C2.85668 9.838 3.70373 10.7854 4.80755 11.4878C5.91137 12.1903 7.1421 12.5415 8.49974 12.5415C8.73585 12.5415 8.96606 12.5267 9.19036 12.4972C9.41467 12.4677 9.64488 12.4352 9.88099 12.3998L9.24349 11.7269C9.11363 11.7623 8.98967 11.7889 8.87161 11.8066C8.75356 11.8243 8.6296 11.8331 8.49974 11.8331C7.61432 11.8331 6.86172 11.5232 6.24193 10.9035C5.62214 10.2837 5.31224 9.53105 5.31224 8.64564C5.31224 8.51578 5.32109 8.39182 5.3388 8.27376C5.35651 8.15571 5.38307 8.03175 5.41849 7.90189L3.93099 6.4498Z" fill="#1C1B1F"/>
</g>
</svg>
