<svg xmlns="http://www.w3.org/2000/svg" width="16" height="16" viewBox="0 0 16 16" fill="none">
  <mask id="mask0_3891_26270" style="mask-type:alpha" maskUnits="userSpaceOnUse" x="0" y="0" width="16" height="16">
    <rect width="16" height="16" fill="#D9D9D9"/>
  </mask>
  <g mask="url(#mask0_3891_26270)">
    <path d="M1.81669 14C1.69447 14 1.58336 13.9694 1.48336 13.9083C1.38336 13.8472 1.30558 13.7667 1.25002 13.6667C1.19447 13.5667 1.16391 13.4583 1.15836 13.3417C1.1528 13.225 1.18336 13.1111 1.25002 13L7.41669 2.33333C7.48336 2.22222 7.56947 2.13889 7.67502 2.08333C7.78058 2.02778 7.88891 2 8.00002 2C8.11113 2 8.21947 2.02778 8.32502 2.08333C8.43058 2.13889 8.51669 2.22222 8.58336 2.33333L14.75 13C14.8167 13.1111 14.8472 13.225 14.8417 13.3417C14.8361 13.4583 14.8056 13.5667 14.75 13.6667C14.6945 13.7667 14.6167 13.8472 14.5167 13.9083C14.4167 13.9694 14.3056 14 14.1834 14L1.81669 14ZM2.96669 12.6667L13.0334 12.6667L8.00002 4L2.96669 12.6667ZM8.00002 12C8.18891 12 8.34725 11.9361 8.47502 11.8083C8.6028 11.6806 8.66669 11.5222 8.66669 11.3333C8.66669 11.1444 8.6028 10.9861 8.47502 10.8583C8.34725 10.7306 8.18891 10.6667 8.00002 10.6667C7.81113 10.6667 7.6528 10.7306 7.52502 10.8583C7.39724 10.9861 7.33336 11.1444 7.33336 11.3333C7.33336 11.5222 7.39724 11.6806 7.52502 11.8083C7.6528 11.9361 7.81113 12 8.00002 12ZM8.00002 10C8.18891 10 8.34725 9.93611 8.47502 9.80833C8.6028 9.68056 8.66669 9.52222 8.66669 9.33333V7.33333C8.66669 7.14444 8.6028 6.98611 8.47502 6.85833C8.34725 6.73056 8.18891 6.66667 8.00002 6.66667C7.81113 6.66667 7.6528 6.73056 7.52502 6.85833C7.39724 6.98611 7.33336 7.14444 7.33336 7.33333V9.33333C7.33336 9.52222 7.39724 9.68056 7.52502 9.80833C7.6528 9.93611 7.81113 10 8.00002 10Z" fill="#E8A411"/>
  </g>
</svg>